  0
SECTION
  2
HEADER
  9
$ACADVER
  1
AC1009
  9
$EXTMIN
  10
 0.000000
  20
 0.000000
  30
 0.000000
  9
$EXTMAX
  10
 1284.000000
  20
 964.000000
  30
 0.000000
  0
ENDSEC
  0
SECTION
  2
TABLES
  0
TABLE
  2
LAYER
  70
     2048
  0
LAYER
  2
0
  70
    0
  62
     7
  6
CONTINUOUS
  0
LAYER
   2
C7
  70
     64
  62
7
  6
CONTINUOUS
  0
LAYER
   2
C18
  70
     64
  62
18
  6
CONTINUOUS
  0
ENDTAB
  0
ENDSEC
  0
SECTION
  2
ENTITIES
  0
POLYLINE
  8
C7
  66
1
  10
0.000000
  20
964.000000
  0
VERTEX
  8
C7
  10
0.000000
  20
964.000000
  0
SEQEND
  8
C7
  0
POLYLINE
  8
C7
  66
1
  10
0.000000
  20
964.000000
  0
VERTEX
  8
C7
  10
0.000000
  20
964.000000
  0
VERTEX
  8
C7
  10
0.000000
  20
0.000000
  0
VERTEX
  8
C7
  10
1284.000000
  20
0.000000
  0
VERTEX
  8
C7
  10
1284.000000
  20
964.000000
  0
VERTEX
  8
C7
  10
0.000000
  20
964.000000
  0
SEQEND
  8
C7
  0
POLYLINE
  8
C7
  66
1
  10
500.000000
  20
603.000000
  0
VERTEX
  8
C7
  10
500.000000
  20
603.000000
  0
VERTEX
  8
C7
  10
483.000000
  20
572.000000
  0
VERTEX
  8
C7
  10
514.000000
  20
555.000000
  0
VERTEX
  8
C7
  10
530.000000
  20
585.000000
  0
VERTEX
  8
C7
  10
530.863300
  20
584.532700
  0
VERTEX
  8
C7
  10
531.724800
  20
584.053900
  0
VERTEX
  8
C7
  10
532.585500
  20
583.567500
  0
VERTEX
  8
C7
  10
533.446200
  20
583.077500
  0
VERTEX
  8
C7
  10
534.307800
  20
582.588000
  0
VERTEX
  8
C7
  10
535.171200
  20
582.102800
  0
VERTEX
  8
C7
  10
536.037300
  20
581.626000
  0
VERTEX
  8
C7
  10
536.907100
  20
581.161600
  0
VERTEX
  8
C7
  10
537.781400
  20
580.713600
  0
VERTEX
  8
C7
  10
538.661100
  20
580.285900
  0
VERTEX
  8
C7
  10
539.547100
  20
579.882600
  0
VERTEX
  8
C7
  10
540.440300
  20
579.507600
  0
VERTEX
  8
C7
  10
541.341700
  20
579.165000
  0
VERTEX
  8
C7
  10
542.252000
  20
578.858700
  0
VERTEX
  8
C7
  10
543.172300
  20
578.592600
  0
VERTEX
  8
C7
  10
544.103500
  20
578.370900
  0
VERTEX
  8
C7
  10
545.046300
  20
578.197400
  0
VERTEX
  8
C7
  10
546.001800
  20
578.076300
  0
VERTEX
  8
C7
  10
546.970800
  20
578.011400
  0
VERTEX
  8
C7
  10
547.954200
  20
578.006700
  0
VERTEX
  8
C7
  10
548.952900
  20
578.066300
  0
VERTEX
  8
C7
  10
549.967900
  20
578.194200
  0
VERTEX
  8
C7
  10
551.000000
  20
578.394300
  0
SEQEND
  8
C7
  0
POLYLINE
  8
C7
  66
1
  10
551.000000
  20
578.394200
  0
VERTEX
  8
C7
  10
551.000000
  20
578.394200
  0
VERTEX
  8
C7
  10
551.695300
  20
578.578100
  0
VERTEX
  8
C7
  10
552.391300
  20
578.811900
  0
VERTEX
  8
C7
  10
553.087400
  20
579.093700
  0
VERTEX
  8
C7
  10
553.783300
  20
579.422100
  0
VERTEX
  8
C7
  10
554.478600
  20
579.795300
  0
VERTEX
  8
C7
  10
555.172800
  20
580.211800
  0
VERTEX
  8
C7
  10
555.865500
  20
580.669900
  0
VERTEX
  8
C7
  10
556.556500
  20
581.167900
  0
VERTEX
  8
C7
  10
557.245100
  20
581.704400
  0
VERTEX
  8
C7
  10
557.931100
  20
582.277600
  0
VERTEX
  8
C7
  10
558.614100
  20
582.885900
  0
VERTEX
  8
C7
  10
559.293600
  20
583.527700
  0
VERTEX
  8
C7
  10
559.969200
  20
584.201400
  0
VERTEX
  8
C7
  10
560.640500
  20
584.905300
  0
VERTEX
  8
C7
  10
561.307200
  20
585.637800
  0
VERTEX
  8
C7
  10
561.968800
  20
586.397300
  0
VERTEX
  8
C7
  10
562.624900
  20
587.182200
  0
VERTEX
  8
C7
  10
563.275100
  20
587.990800
  0
VERTEX
  8
C7
  10
563.919100
  20
588.821600
  0
VERTEX
  8
C7
  10
564.556300
  20
589.672800
  0
VERTEX
  8
C7
  10
565.186500
  20
590.542900
  0
VERTEX
  8
C7
  10
565.809100
  20
591.430200
  0
VERTEX
  8
C7
  10
566.423900
  20
592.333100
  0
VERTEX
  8
C7
  10
567.030300
  20
593.250000
  0
VERTEX
  8
C7
  10
567.628000
  20
594.179200
  0
VERTEX
  8
C7
  10
568.216700
  20
595.119200
  0
VERTEX
  8
C7
  10
568.795800
  20
596.068300
  0
VERTEX
  8
C7
  10
569.364900
  20
597.024900
  0
VERTEX
  8
C7
  10
569.923800
  20
597.987300
  0
VERTEX
  8
C7
  10
570.471900
  20
598.954000
  0
VERTEX
  8
C7
  10
571.008900
  20
599.923300
  0
VERTEX
  8
C7
  10
571.534400
  20
600.893500
  0
VERTEX
  8
C7
  10
572.047900
  20
601.863100
  0
VERTEX
  8
C7
  10
572.549100
  20
602.830400
  0
VERTEX
  8
C7
  10
573.037600
  20
603.793800
  0
VERTEX
  8
C7
  10
573.512800
  20
604.751700
  0
VERTEX
  8
C7
  10
573.974600
  20
605.702500
  0
VERTEX
  8
C7
  10
574.422400
  20
606.644400
  0
VERTEX
  8
C7
  10
574.855800
  20
607.576000
  0
VERTEX
  8
C7
  10
575.274400
  20
608.495500
  0
VERTEX
  8
C7
  10
575.677900
  20
609.401400
  0
VERTEX
  8
C7
  10
576.065900
  20
610.292000
  0
VERTEX
  8
C7
  10
576.437800
  20
611.165700
  0
VERTEX
  8
C7
  10
576.793400
  20
612.020900
  0
VERTEX
  8
C7
  10
577.132200
  20
612.855900
  0
VERTEX
  8
C7
  10
577.453800
  20
613.669100
  0
VERTEX
  8
C7
  10
577.757800
  20
614.458900
  0
VERTEX
  8
C7
  10
578.043800
  20
615.223700
  0
VERTEX
  8
C7
  10
578.311500
  20
615.961800
  0
VERTEX
  8
C7
  10
578.560300
  20
616.671600
  0
VERTEX
  8
C7
  10
578.789900
  20
617.351600
  0
VERTEX
  8
C7
  10
579.000000
  20
618.000000
  0
VERTEX
  8
C7
  10
579.951300
  20
617.633700
  0
VERTEX
  8
C7
  10
580.899200
  20
617.264900
  0
VERTEX
  8
C7
  10
581.843500
  20
616.893200
  0
VERTEX
  8
C7
  10
582.784200
  20
616.518800
  0
VERTEX
  8
C7
  10
583.721200
  20
616.141400
  0
VERTEX
  8
C7
  10
584.654600
  20
615.761000
  0
VERTEX
  8
C7
  10
585.584200
  20
615.377500
  0
VERTEX
  8
C7
  10
586.510100
  20
614.990700
  0
VERTEX
  8
C7
  10
587.432100
  20
614.600700
  0
VERTEX
  8
C7
  10
588.350300
  20
614.207200
  0
VERTEX
  8
C7
  10
589.264500
  20
613.810200
  0
VERTEX
  8
C7
  10
590.174800
  20
613.409600
  0
VERTEX
  8
C7
  10
591.081000
  20
613.005300
  0
VERTEX
  8
C7
  10
591.983200
  20
612.597100
  0
VERTEX
  8
C7
  10
592.881300
  20
612.185100
  0
VERTEX
  8
C7
  10
593.775200
  20
611.769100
  0
VERTEX
  8
C7
  10
594.664900
  20
611.349000
  0
VERTEX
  8
C7
  10
595.550400
  20
610.924700
  0
VERTEX
  8
C7
  10
596.431600
  20
610.496100
  0
VERTEX
  8
C7
  10
597.308400
  20
610.063100
  0
VERTEX
  8
C7
  10
598.180900
  20
609.625700
  0
VERTEX
  8
C7
  10
599.048900
  20
609.183700
  0
VERTEX
  8
C7
  10
599.912400
  20
608.737000
  0
VERTEX
  8
C7
  10
600.771400
  20
608.285500
  0
VERTEX
  8
C7
  10
601.625800
  20
607.829200
  0
VERTEX
  8
C7
  10
602.475700
  20
607.367900
  0
VERTEX
  8
C7
  10
603.320800
  20
606.901500
  0
VERTEX
  8
C7
  10
604.161200
  20
606.430000
  0
VERTEX
  8
C7
  10
604.996900
  20
605.953200
  0
VERTEX
  8
C7
  10
605.827800
  20
605.471100
  0
VERTEX
  8
C7
  10
606.653800
  20
604.983500
  0
VERTEX
  8
C7
  10
607.474900
  20
604.490400
  0
VERTEX
  8
C7
  10
608.291100
  20
603.991600
  0
VERTEX
  8
C7
  10
609.102300
  20
603.487100
  0
VERTEX
  8
C7
  10
609.908400
  20
602.976800
  0
VERTEX
  8
C7
  10
610.709400
  20
602.460500
  0
VERTEX
  8
C7
  10
611.505400
  20
601.938300
  0
VERTEX
  8
C7
  10
612.296100
  20
601.409800
  0
VERTEX
  8
C7
  10
613.081600
  20
600.875200
  0
VERTEX
  8
C7
  10
613.861900
  20
600.334300
  0
VERTEX
  8
C7
  10
614.636800
  20
599.786900
  0
VERTEX
  8
C7
  10
615.406400
  20
599.233000
  0
VERTEX
  8
C7
  10
616.170500
  20
598.672500
  0
VERTEX
  8
C7
  10
616.929200
  20
598.105300
  0
VERTEX
  8
C7
  10
617.682400
  20
597.531300
  0
VERTEX
  8
C7
  10
618.430000
  20
596.950400
  0
VERTEX
  8
C7
  10
619.172100
  20
596.362500
  0
VERTEX
  8
C7
  10
619.908500
  20
595.767600
  0
VERTEX
  8
C7
  10
620.639200
  20
595.165400
  0
VERTEX
  8
C7
  10
621.364200
  20
594.555900
  0
VERTEX
  8
C7
  10
622.083400
  20
593.939100
  0
VERTEX
  8
C7
  10
622.796700
  20
593.314800
  0
VERTEX
  8
C7
  10
623.504200
  20
592.682900
  0
VERTEX
  8
C7
  10
624.205700
  20
592.043300
  0
VERTEX
  8
C7
  10
624.901300
  20
591.396000
  0
VERTEX
  8
C7
  10
625.590900
  20
590.740800
  0
VERTEX
  8
C7
  10
626.274400
  20
590.077600
  0
VERTEX
  8
C7
  10
626.951800
  20
589.406400
  0
VERTEX
  8
C7
  10
627.623100
  20
588.727000
  0
VERTEX
  8
C7
  10
628.288100
  20
588.039300
  0
VERTEX
  8
C7
  10
628.946900
  20
587.343400
  0
VERTEX
  8
C7
  10
629.599400
  20
586.638900
  0
VERTEX
  8
C7
  10
630.245600
  20
585.925900
  0
VERTEX
  8
C7
  10
630.885300
  20
585.204300
  0
VERTEX
  8
C7
  10
631.518700
  20
584.474000
  0
VERTEX
  8
C7
  10
632.145500
  20
583.734800
  0
VERTEX
  8
C7
  10
632.765900
  20
582.986700
  0
VERTEX
  8
C7
  10
633.379600
  20
582.229500
  0
VERTEX
  8
C7
  10
633.986700
  20
581.463300
  0
VERTEX
  8
C7
  10
634.587200
  20
580.687800
  0
VERTEX
  8
C7
  10
635.180900
  20
579.903000
  0
VERTEX
  8
C7
  10
635.767900
  20
579.108700
  0
VERTEX
  8
C7
  10
636.348100
  20
578.305000
  0
VERTEX
  8
C7
  10
636.921400
  20
577.491700
  0
VERTEX
  8
C7
  10
637.487900
  20
576.668600
  0
VERTEX
  8
C7
  10
638.047300
  20
575.835800
  0
VERTEX
  8
C7
  10
638.599800
  20
574.993000
  0
VERTEX
  8
C7
  10
639.145300
  20
574.140300
  0
VERTEX
  8
C7
  10
639.683600
  20
573.277500
  0
VERTEX
  8
C7
  10
640.214900
  20
572.404500
  0
VERTEX
  8
C7
  10
640.738900
  20
571.521200
  0
VERTEX
  8
C7
  10
641.255700
  20
570.627500
  0
VERTEX
  8
C7
  10
641.765300
  20
569.723300
  0
VERTEX
  8
C7
  10
642.267500
  20
568.808600
  0
VERTEX
  8
C7
  10
642.762400
  20
567.883200
  0
VERTEX
  8
C7
  10
643.249900
  20
566.947000
  0
VERTEX
  8
C7
  10
643.729900
  20
566.000000
  0
VERTEX
  8
C7
  10
644.137300
  20
565.175000
  0
VERTEX
  8
C7
  10
644.535600
  20
564.348100
  0
VERTEX
  8
C7
  10
644.924900
  20
563.519400
  0
VERTEX
  8
C7
  10
645.305100
  20
562.688800
  0
VERTEX
  8
C7
  10
645.676300
  20
561.856500
  0
VERTEX
  8
C7
  10
646.038500
  20
561.022500
  0
VERTEX
  8
C7
  10
646.391700
  20
560.186800
  0
VERTEX
  8
C7
  10
646.736000
  20
559.349500
  0
VERTEX
  8
C7
  10
647.071400
  20
558.510700
  0
VERTEX
  8
C7
  10
647.397900
  20
557.670300
  0
VERTEX
  8
C7
  10
647.715500
  20
556.828500
  0
VERTEX
  8
C7
  10
648.024300
  20
555.985200
  0
VERTEX
  8
C7
  10
648.324300
  20
555.140600
  0
VERTEX
  8
C7
  10
648.615500
  20
554.294700
  0
VERTEX
  8
C7
  10
648.897900
  20
553.447600
  0
VERTEX
  8
C7
  10
649.171600
  20
552.599200
  0
VERTEX
  8
C7
  10
649.436700
  20
551.749700
  0
VERTEX
  8
C7
  10
649.693000
  20
550.899000
  0
VERTEX
  8
C7
  10
649.940700
  20
550.047300
  0
VERTEX
  8
C7
  10
650.179800
  20
549.194600
  0
VERTEX
  8
C7
  10
650.410300
  20
548.340900
  0
VERTEX
  8
C7
  10
650.632200
  20
547.486300
  0
VERTEX
  8
C7
  10
650.845600
  20
546.630900
  0
VERTEX
  8
C7
  10
651.050400
  20
545.774700
  0
VERTEX
  8
C7
  10
651.246800
  20
544.917700
  0
VERTEX
  8
C7
  10
651.434700
  20
544.059900
  0
VERTEX
  8
C7
  10
651.614200
  20
543.201600
  0
VERTEX
  8
C7
  10
651.785300
  20
542.342600
  0
VERTEX
  8
C7
  10
651.948000
  20
541.483100
  0
VERTEX
  8
C7
  10
652.102300
  20
540.623000
  0
VERTEX
  8
C7
  10
652.248300
  20
539.762500
  0
VERTEX
  8
C7
  10
652.386100
  20
538.901600
  0
VERTEX
  8
C7
  10
652.515500
  20
538.040300
  0
VERTEX
  8
C7
  10
652.636700
  20
537.178800
  0
VERTEX
  8
C7
  10
652.749700
  20
536.317000
  0
VERTEX
  8
C7
  10
652.854400
  20
535.454900
  0
VERTEX
  8
C7
  10
652.951100
  20
534.592700
  0
VERTEX
  8
C7
  10
653.039500
  20
533.730400
  0
VERTEX
  8
C7
  10
653.119900
  20
532.868100
  0
VERTEX
  8
C7
  10
653.192200
  20
532.005700
  0
VERTEX
  8
C7
  10
653.256400
  20
531.143400
  0
VERTEX
  8
C7
  10
653.312500
  20
530.281200
  0
VERTEX
  8
C7
  10
653.360700
  20
529.419200
  0
VERTEX
  8
C7
  10
653.400900
  20
528.557300
  0
VERTEX
  8
C7
  10
653.433100
  20
527.695700
  0
VERTEX
  8
C7
  10
653.457500
  20
526.834300
  0
VERTEX
  8
C7
  10
653.473900
  20
525.973400
  0
VERTEX
  8
C7
  10
653.482400
  20
525.112800
  0
VERTEX
  8
C7
  10
653.483100
  20
524.252600
  0
VERTEX
  8
C7
  10
653.476000
  20
523.393000
  0
VERTEX
  8
C7
  10
653.461100
  20
522.533900
  0
VERTEX
  8
C7
  10
653.438400
  20
521.675400
  0
VERTEX
  8
C7
  10
653.407900
  20
520.817600
  0
VERTEX
  8
C7
  10
653.369800
  20
519.960400
  0
VERTEX
  8
C7
  10
653.324000
  20
519.104000
  0
VERTEX
  8
C7
  10
653.270500
  20
518.248400
  0
VERTEX
  8
C7
  10
653.209400
  20
517.393600
  0
VERTEX
  8
C7
  10
653.140600
  20
516.539800
  0
VERTEX
  8
C7
  10
653.064300
  20
515.686900
  0
VERTEX
  8
C7
  10
652.980500
  20
514.835000
  0
VERTEX
  8
C7
  10
652.889100
  20
513.984100
  0
VERTEX
  8
C7
  10
652.790200
  20
513.134300
  0
VERTEX
  8
C7
  10
652.683800
  20
512.285700
  0
VERTEX
  8
C7
  10
652.570000
  20
511.438300
  0
VERTEX
  8
C7
  10
652.448800
  20
510.592100
  0
VERTEX
  8
C7
  10
652.320200
  20
509.747300
  0
VERTEX
  8
C7
  10
652.184200
  20
508.903800
  0
VERTEX
  8
C7
  10
652.040900
  20
508.061700
  0
VERTEX
  8
C7
  10
651.890200
  20
507.221000
  0
VERTEX
  8
C7
  10
651.732300
  20
506.381800
  0
VERTEX
  8
C7
  10
651.567100
  20
505.544200
  0
VERTEX
  8
C7
  10
651.394700
  20
504.708200
  0
VERTEX
  8
C7
  10
651.215100
  20
503.873800
  0
VERTEX
  8
C7
  10
651.028300
  20
503.041200
  0
VERTEX
  8
C7
  10
650.834300
  20
502.210300
  0
VERTEX
  8
C7
  10
650.633200
  20
501.381200
  0
VERTEX
  8
C7
  10
650.425000
  20
500.553900
  0
VERTEX
  8
C7
  10
650.209800
  20
499.728600
  0
VERTEX
  8
C7
  10
649.987500
  20
498.905200
  0
VERTEX
  8
C7
  10
649.758200
  20
498.083800
  0
VERTEX
  8
C7
  10
649.521900
  20
497.264500
  0
VERTEX
  8
C7
  10
649.278600
  20
496.447200
  0
VERTEX
  8
C7
  10
649.028400
  20
495.632100
  0
VERTEX
  8
C7
  10
648.771200
  20
494.819300
  0
VERTEX
  8
C7
  10
648.507200
  20
494.008600
  0
VERTEX
  8
C7
  10
648.236300
  20
493.200300
  0
VERTEX
  8
C7
  10
647.958600
  20
492.394300
  0
VERTEX
  8
C7
  10
647.674100
  20
491.590800
  0
VERTEX
  8
C7
  10
647.382800
  20
490.789700
  0
VERTEX
  8
C7
  10
647.084800
  20
489.991100
  0
VERTEX
  8
C7
  10
646.780000
  20
489.195000
  0
VERTEX
  8
C7
  10
646.468500
  20
488.401600
  0
VERTEX
  8
C7
  10
646.150400
  20
487.610800
  0
VERTEX
  8
C7
  10
645.825600
  20
486.822700
  0
VERTEX
  8
C7
  10
645.494200
  20
486.037400
  0
VERTEX
  8
C7
  10
645.156200
  20
485.254800
  0
VERTEX
  8
C7
  10
644.811600
  20
484.475200
  0
VERTEX
  8
C7
  10
644.460500
  20
483.698400
  0
VERTEX
  8
C7
  10
644.102900
  20
482.924600
  0
VERTEX
  8
C7
  10
643.738800
  20
482.153800
  0
VERTEX
  8
C7
  10
643.368200
  20
481.386100
  0
VERTEX
  8
C7
  10
642.991200
  20
480.621400
  0
VERTEX
  8
C7
  10
642.607800
  20
479.860000
  0
VERTEX
  8
C7
  10
642.218100
  20
479.101700
  0
VERTEX
  8
C7
  10
641.821900
  20
478.346700
  0
VERTEX
  8
C7
  10
641.419500
  20
477.595000
  0
VERTEX
  8
C7
  10
641.010700
  20
476.846600
  0
VERTEX
  8
C7
  10
640.595700
  20
476.101700
  0
VERTEX
  8
C7
  10
640.174400
  20
475.360200
  0
VERTEX
  8
C7
  10
639.746900
  20
474.622300
  0
VERTEX
  8
C7
  10
639.313200
  20
473.887800
  0
VERTEX
  8
C7
  10
638.873400
  20
473.157000
  0
VERTEX
  8
C7
  10
638.427400
  20
472.429900
  0
VERTEX
  8
C7
  10
637.975300
  20
471.706500
  0
VERTEX
  8
C7
  10
637.517100
  20
470.986800
  0
VERTEX
  8
C7
  10
637.052800
  20
470.270900
  0
VERTEX
  8
C7
  10
636.582600
  20
469.558900
  0
VERTEX
  8
C7
  10
636.106300
  20
468.850800
  0
VERTEX
  8
C7
  10
635.624000
  20
468.146700
  0
VERTEX
  8
C7
  10
635.135800
  20
467.446600
  0
VERTEX
  8
C7
  10
634.641700
  20
466.750500
  0
VERTEX
  8
C7
  10
634.141600
  20
466.058600
  0
VERTEX
  8
C7
  10
633.635700
  20
465.370800
  0
VERTEX
  8
C7
  10
633.124000
  20
464.687200
  0
VERTEX
  8
C7
  10
632.606400
  20
464.007900
  0
VERTEX
  8
C7
  10
632.083000
  20
463.332900
  0
VERTEX
  8
C7
  10
631.553900
  20
462.662200
  0
VERTEX
  8
C7
  10
631.019000
  20
461.996000
  0
VERTEX
  8
C7
  10
630.478400
  20
461.334200
  0
VERTEX
  8
C7
  10
629.932200
  20
460.677000
  0
VERTEX
  8
C7
  10
629.380200
  20
460.024300
  0
VERTEX
  8
C7
  10
628.822700
  20
459.376200
  0
VERTEX
  8
C7
  10
628.259500
  20
458.732800
  0
VERTEX
  8
C7
  10
627.690800
  20
458.094100
  0
VERTEX
  8
C7
  10
627.116500
  20
457.460200
  0
VERTEX
  8
C7
  10
626.536700
  20
456.831000
  0
VERTEX
  8
C7
  10
625.951400
  20
456.206800
  0
VERTEX
  8
C7
  10
625.360600
  20
455.587400
  0
VERTEX
  8
C7
  10
624.764300
  20
454.973000
  0
VERTEX
  8
C7
  10
624.162700
  20
454.363700
  0
VERTEX
  8
C7
  10
623.555600
  20
453.759400
  0
VERTEX
  8
C7
  10
622.943200
  20
453.160200
  0
VERTEX
  8
C7
  10
622.325500
  20
452.566100
  0
VERTEX
  8
C7
  10
621.702400
  20
451.977300
  0
VERTEX
  8
C7
  10
621.074100
  20
451.393800
  0
VERTEX
  8
C7
  10
620.440500
  20
450.815600
  0
VERTEX
  8
C7
  10
619.801700
  20
450.242700
  0
VERTEX
  8
C7
  10
619.157600
  20
449.675200
  0
VERTEX
  8
C7
  10
618.508400
  20
449.113300
  0
VERTEX
  8
C7
  10
617.854000
  20
448.556800
  0
VERTEX
  8
C7
  10
617.194600
  20
448.005900
  0
VERTEX
  8
C7
  10
616.530000
  20
447.460600
  0
VERTEX
  8
C7
  10
615.860300
  20
446.921000
  0
VERTEX
  8
C7
  10
615.185600
  20
446.387100
  0
VERTEX
  8
C7
  10
614.505900
  20
445.859000
  0
VERTEX
  8
C7
  10
613.821200
  20
445.336700
  0
VERTEX
  8
C7
  10
613.131500
  20
444.820200
  0
VERTEX
  8
C7
  10
612.436900
  20
444.309700
  0
VERTEX
  8
C7
  10
611.737300
  20
443.805100
  0
VERTEX
  8
C7
  10
611.032900
  20
443.306600
  0
VERTEX
  8
C7
  10
610.323700
  20
442.814100
  0
VERTEX
  8
C7
  10
609.609600
  20
442.327800
  0
VERTEX
  8
C7
  10
608.890700
  20
441.847600
  0
VERTEX
  8
C7
  10
608.167000
  20
441.373600
  0
VERTEX
  8
C7
  10
607.438500
  20
440.905900
  0
VERTEX
  8
C7
  10
606.705400
  20
440.444600
  0
VERTEX
  8
C7
  10
605.967500
  20
439.989600
  0
VERTEX
  8
C7
  10
605.225000
  20
439.541000
  0
VERTEX
  8
C7
  10
604.477800
  20
439.098900
  0
VERTEX
  8
C7
  10
603.726000
  20
438.663300
  0
VERTEX
  8
C7
  10
602.969600
  20
438.234200
  0
VERTEX
  8
C7
  10
602.208700
  20
437.811800
  0
VERTEX
  8
C7
  10
601.443200
  20
437.396100
  0
VERTEX
  8
C7
  10
600.673200
  20
436.987100
  0
VERTEX
  8
C7
  10
599.898700
  20
436.584800
  0
VERTEX
  8
C7
  10
599.119800
  20
436.189400
  0
VERTEX
  8
C7
  10
598.336400
  20
435.800900
  0
VERTEX
  8
C7
  10
597.548700
  20
435.419300
  0
VERTEX
  8
C7
  10
596.756500
  20
435.044600
  0
VERTEX
  8
C7
  10
595.960000
  20
434.677000
  0
VERTEX
  8
C7
  10
595.159200
  20
434.316400
  0
VERTEX
  8
C7
  10
594.354100
  20
433.963000
  0
VERTEX
  8
C7
  10
593.544700
  20
433.616700
  0
VERTEX
  8
C7
  10
592.731100
  20
433.277700
  0
VERTEX
  8
C7
  10
591.913200
  20
432.945900
  0
VERTEX
  8
C7
  10
591.091200
  20
432.621500
  0
VERTEX
  8
C7
  10
590.264900
  20
432.304400
  0
VERTEX
  8
C7
  10
589.434600
  20
431.994800
  0
VERTEX
  8
C7
  10
588.600100
  20
431.692600
  0
VERTEX
  8
C7
  10
587.761600
  20
431.397900
  0
VERTEX
  8
C7
  10
586.919000
  20
431.110900
  0
VERTEX
  8
C7
  10
586.072400
  20
430.831400
  0
VERTEX
  8
C7
  10
585.221800
  20
430.559600
  0
VERTEX
  8
C7
  10
584.367100
  20
430.295600
  0
VERTEX
  8
C7
  10
583.508600
  20
430.039300
  0
VERTEX
  8
C7
  10
582.646100
  20
429.790900
  0
VERTEX
  8
C7
  10
581.779700
  20
429.550300
  0
VERTEX
  8
C7
  10
580.909500
  20
429.317700
  0
VERTEX
  8
C7
  10
580.035400
  20
429.093000
  0
VERTEX
  8
C7
  10
579.157500
  20
428.876300
  0
VERTEX
  8
C7
  10
578.275800
  20
428.667800
  0
VERTEX
  8
C7
  10
577.390300
  20
428.467300
  0
VERTEX
  8
C7
  10
576.501100
  20
428.275100
  0
VERTEX
  8
C7
  10
575.608200
  20
428.091000
  0
VERTEX
  8
C7
  10
574.711600
  20
427.915300
  0
VERTEX
  8
C7
  10
573.811300
  20
427.747800
  0
VERTEX
  8
C7
  10
572.907400
  20
427.588800
  0
VERTEX
  8
C7
  10
572.000000
  20
427.438200
  0
VERTEX
  8
C7
  10
571.228800
  20
427.318000
  0
VERTEX
  8
C7
  10
570.442400
  20
427.203300
  0
VERTEX
  8
C7
  10
569.641300
  20
427.094300
  0
VERTEX
  8
C7
  10
568.826000
  20
426.991100
  0
VERTEX
  8
C7
  10
567.996900
  20
426.893800
  0
VERTEX
  8
C7
  10
567.154500
  20
426.802500
  0
VERTEX
  8
C7
  10
566.299300
  20
426.717300
  0
VERTEX
  8
C7
  10
565.431700
  20
426.638400
  0
VERTEX
  8
C7
  10
564.552300
  20
426.565900
  0
VERTEX
  8
C7
  10
563.661400
  20
426.499900
  0
VERTEX
  8
C7
  10
562.759600
  20
426.440500
  0
VERTEX
  8
C7
  10
561.847300
  20
426.387800
  0
VERTEX
  8
C7
  10
560.925000
  20
426.341900
  0
VERTEX
  8
C7
  10
559.993200
  20
426.303100
  0
VERTEX
  8
C7
  10
559.052400
  20
426.271300
  0
VERTEX
  8
C7
  10
558.102900
  20
426.246800
  0
VERTEX
  8
C7
  10
557.145400
  20
426.229500
  0
VERTEX
  8
C7
  10
556.180200
  20
426.219800
  0
VERTEX
  8
C7
  10
555.207900
  20
426.217600
  0
VERTEX
  8
C7
  10
554.228800
  20
426.223100
  0
VERTEX
  8
C7
  10
553.243500
  20
426.236400
  0
VERTEX
  8
C7
  10
552.252500
  20
426.257600
  0
VERTEX
  8
C7
  10
551.256200
  20
426.286900
  0
VERTEX
  8
C7
  10
550.255200
  20
426.324400
  0
VERTEX
  8
C7
  10
549.249700
  20
426.370100
  0
VERTEX
  8
C7
  10
548.240400
  20
426.424300
  0
VERTEX
  8
C7
  10
547.227800
  20
426.487000
  0
VERTEX
  8
C7
  10
546.212200
  20
426.558300
  0
VERTEX
  8
C7
  10
545.194100
  20
426.638400
  0
VERTEX
  8
C7
  10
544.174100
  20
426.727400
  0
VERTEX
  8
C7
  10
543.152600
  20
426.825400
  0
VERTEX
  8
C7
  10
542.130000
  20
426.932500
  0
VERTEX
  8
C7
  10
541.106900
  20
427.048900
  0
VERTEX
  8
C7
  10
540.083700
  20
427.174600
  0
VERTEX
  8
C7
  10
539.060900
  20
427.309900
  0
VERTEX
  8
C7
  10
538.039000
  20
427.454700
  0
VERTEX
  8
C7
  10
537.018300
  20
427.609300
  0
VERTEX
  8
C7
  10
535.999500
  20
427.773700
  0
VERTEX
  8
C7
  10
534.983000
  20
427.948000
  0
VERTEX
  8
C7
  10
533.969200
  20
428.132500
  0
VERTEX
  8
C7
  10
532.958600
  20
428.327200
  0
VERTEX
  8
C7
  10
531.951700
  20
428.532100
  0
VERTEX
  8
C7
  10
530.949000
  20
428.747600
  0
VERTEX
  8
C7
  10
529.950900
  20
428.973500
  0
VERTEX
  8
C7
  10
528.957900
  20
429.210200
  0
VERTEX
  8
C7
  10
527.970500
  20
429.457700
  0
VERTEX
  8
C7
  10
526.989100
  20
429.716100
  0
VERTEX
  8
C7
  10
526.014300
  20
429.985500
  0
VERTEX
  8
C7
  10
525.046400
  20
430.266100
  0
VERTEX
  8
C7
  10
524.086000
  20
430.558000
  0
VERTEX
  8
C7
  10
523.133600
  20
430.861300
  0
VERTEX
  8
C7
  10
522.189500
  20
431.176100
  0
VERTEX
  8
C7
  10
521.254400
  20
431.502500
  0
VERTEX
  8
C7
  10
520.328600
  20
431.840700
  0
VERTEX
  8
C7
  10
519.412600
  20
432.190800
  0
VERTEX
  8
C7
  10
518.506900
  20
432.552900
  0
VERTEX
  8
C7
  10
517.612000
  20
432.927100
  0
VERTEX
  8
C7
  10
516.728300
  20
433.313500
  0
VERTEX
  8
C7
  10
515.856300
  20
433.712300
  0
VERTEX
  8
C7
  10
514.996500
  20
434.123600
  0
VERTEX
  8
C7
  10
514.149400
  20
434.547400
  0
VERTEX
  8
C7
  10
513.315400
  20
434.984000
  0
VERTEX
  8
C7
  10
512.495000
  20
435.433400
  0
VERTEX
  8
C7
  10
511.688700
  20
435.895800
  0
VERTEX
  8
C7
  10
510.896900
  20
436.371300
  0
VERTEX
  8
C7
  10
510.120100
  20
436.859900
  0
VERTEX
  8
C7
  10
509.358900
  20
437.361900
  0
VERTEX
  8
C7
  10
508.613500
  20
437.877300
  0
VERTEX
  8
C7
  10
507.884700
  20
438.406200
  0
VERTEX
  8
C7
  10
507.172700
  20
438.948900
  0
VERTEX
  8
C7
  10
506.478100
  20
439.505300
  0
VERTEX
  8
C7
  10
505.801300
  20
440.075600
  0
VERTEX
  8
C7
  10
505.142900
  20
440.660000
  0
VERTEX
  8
C7
  10
504.503200
  20
441.258500
  0
VERTEX
  8
C7
  10
503.882800
  20
441.871300
  0
VERTEX
  8
C7
  10
503.282200
  20
442.498500
  0
VERTEX
  8
C7
  10
502.701700
  20
443.140200
  0
VERTEX
  8
C7
  10
502.142000
  20
443.796500
  0
VERTEX
  8
C7
  10
501.603400
  20
444.467600
  0
SEQEND
  8
C7
  0
POLYLINE
  8
C7
  66
1
  10
501.603300
  20
444.467500
  0
VERTEX
  8
C7
  10
501.603300
  20
444.467500
  0
VERTEX
  8
C7
  10
501.075500
  20
445.258300
  0
VERTEX
  8
C7
  10
500.659400
  20
446.114000
  0
VERTEX
  8
C7
  10
500.342800
  20
447.024800
  0
VERTEX
  8
C7
  10
500.113700
  20
447.980700
  0
VERTEX
  8
C7
  10
499.960000
  20
448.972100
  0
VERTEX
  8
C7
  10
499.869700
  20
449.989000
  0
VERTEX
  8
C7
  10
499.830700
  20
451.021700
  0
VERTEX
  8
C7
  10
499.831000
  20
452.060400
  0
VERTEX
  8
C7
  10
499.858500
  20
453.095300
  0
VERTEX
  8
C7
  10
499.901200
  20
454.116500
  0
VERTEX
  8
C7
  10
499.947100
  20
455.114200
  0
VERTEX
  8
C7
  10
499.984000
  20
456.078600
  0
VERTEX
  8
C7
  10
500.000000
  20
457.000000
  0
VERTEX
  8
C7
  10
500.015700
  20
458.113300
  0
VERTEX
  8
C7
  10
500.059000
  20
459.198600
  0
VERTEX
  8
C7
  10
500.129400
  20
460.256300
  0
VERTEX
  8
C7
  10
500.226500
  20
461.286500
  0
VERTEX
  8
C7
  10
500.350000
  20
462.289900
  0
VERTEX
  8
C7
  10
500.499400
  20
463.266600
  0
VERTEX
  8
C7
  10
500.674200
  20
464.217100
  0
VERTEX
  8
C7
  10
500.874100
  20
465.141700
  0
VERTEX
  8
C7
  10
501.098600
  20
466.040800
  0
VERTEX
  8
C7
  10
501.347300
  20
466.914800
  0
VERTEX
  8
C7
  10
501.619900
  20
467.763900
  0
VERTEX
  8
C7
  10
501.915800
  20
468.588700
  0
VERTEX
  8
C7
  10
502.234700
  20
469.389400
  0
VERTEX
  8
C7
  10
502.576200
  20
470.166400
  0
VERTEX
  8
C7
  10
502.939700
  20
470.920100
  0
VERTEX
  8
C7
  10
503.325000
  20
471.650900
  0
VERTEX
  8
C7
  10
503.731700
  20
472.359000
  0
VERTEX
  8
C7
  10
504.159100
  20
473.044900
  0
VERTEX
  8
C7
  10
504.607100
  20
473.708900
  0
VERTEX
  8
C7
  10
505.075100
  20
474.351500
  0
VERTEX
  8
C7
  10
505.562700
  20
474.972900
  0
VERTEX
  8
C7
  10
506.069600
  20
475.573500
  0
VERTEX
  8
C7
  10
506.595300
  20
476.153700
  0
VERTEX
  8
C7
  10
507.139300
  20
476.713800
  0
VERTEX
  8
C7
  10
507.701300
  20
477.254300
  0
VERTEX
  8
C7
  10
508.280800
  20
477.775400
  0
VERTEX
  8
C7
  10
508.877500
  20
478.277600
  0
VERTEX
  8
C7
  10
509.490900
  20
478.761200
  0
VERTEX
  8
C7
  10
510.120500
  20
479.226600
  0
VERTEX
  8
C7
  10
510.766100
  20
479.674100
  0
VERTEX
  8
C7
  10
511.427100
  20
480.104100
  0
VERTEX
  8
C7
  10
512.103200
  20
480.517000
  0
VERTEX
  8
C7
  10
512.793800
  20
480.913100
  0
VERTEX
  8
C7
  10
513.498700
  20
481.292800
  0
VERTEX
  8
C7
  10
514.217400
  20
481.656400
  0
VERTEX
  8
C7
  10
514.949400
  20
482.004400
  0
VERTEX
  8
C7
  10
515.694500
  20
482.337000
  0
VERTEX
  8
C7
  10
516.452000
  20
482.654700
  0
VERTEX
  8
C7
  10
517.221700
  20
482.957800
  0
VERTEX
  8
C7
  10
518.003000
  20
483.246700
  0
VERTEX
  8
C7
  10
518.795700
  20
483.521700
  0
VERTEX
  8
C7
  10
519.599200
  20
483.783200
  0
VERTEX
  8
C7
  10
520.413200
  20
484.031600
  0
VERTEX
  8
C7
  10
521.237200
  20
484.267300
  0
VERTEX
  8
C7
  10
522.070900
  20
484.490500
  0
VERTEX
  8
C7
  10
522.913700
  20
484.701700
  0
VERTEX
  8
C7
  10
523.765300
  20
484.901200
  0
VERTEX
  8
C7
  10
524.625300
  20
485.089400
  0
VERTEX
  8
C7
  10
525.493300
  20
485.266600
  0
VERTEX
  8
C7
  10
526.368700
  20
485.433300
  0
VERTEX
  8
C7
  10
527.251300
  20
485.589700
  0
VERTEX
  8
C7
  10
528.140600
  20
485.736300
  0
VERTEX
  8
C7
  10
529.036200
  20
485.873400
  0
VERTEX
  8
C7
  10
529.937600
  20
486.001400
  0
VERTEX
  8
C7
  10
530.844500
  20
486.120600
  0
VERTEX
  8
C7
  10
531.756400
  20
486.231400
  0
VERTEX
  8
C7
  10
532.672900
  20
486.334100
  0
VERTEX
  8
C7
  10
533.593600
  20
486.429200
  0
VERTEX
  8
C7
  10
534.518100
  20
486.517000
  0
VERTEX
  8
C7
  10
535.446000
  20
486.597900
  0
VERTEX
  8
C7
  10
536.376800
  20
486.672100
  0
VERTEX
  8
C7
  10
537.310100
  20
486.740200
  0
VERTEX
  8
C7
  10
538.245500
  20
486.802400
  0
VERTEX
  8
C7
  10
539.182600
  20
486.859100
  0
VERTEX
  8
C7
  10
540.121000
  20
486.910700
  0
VERTEX
  8
C7
  10
541.060300
  20
486.957500
  0
VERTEX
  8
C7
  10
542.000000
  20
487.000000
  0
VERTEX
  8
C7
  10
542.000000
  20
509.000000
  0
VERTEX
  8
C7
  10
402.000000
  20
509.000000
  0
VERTEX
  8
C7
  10
402.000000
  20
487.000000
  0
VERTEX
  8
C7
  10
402.875400
  20
486.962400
  0
VERTEX
  8
C7
  10
403.763800
  20
486.923800
  0
VERTEX
  8
C7
  10
404.664300
  20
486.883300
  0
VERTEX
  8
C7
  10
405.575800
  20
486.840400
  0
VERTEX
  8
C7
  10
406.497500
  20
486.794200
  0
VERTEX
  8
C7
  10
407.428300
  20
486.743900
  0
VERTEX
  8
C7
  10
408.367300
  20
486.688900
  0
VERTEX
  8
C7
  10
409.313400
  20
486.628300
  0
VERTEX
  8
C7
  10
410.265900
  20
486.561500
  0
VERTEX
  8
C7
  10
411.223600
  20
486.487600
  0
VERTEX
  8
C7
  10
412.185600
  20
486.406000
  0
VERTEX
  8
C7
  10
413.151000
  20
486.315900
  0
VERTEX
  8
C7
  10
414.118800
  20
486.216500
  0
VERTEX
  8
C7
  10
415.088000
  20
486.107100
  0
VERTEX
  8
C7
  10
416.057700
  20
485.987000
  0
VERTEX
  8
C7
  10
417.026800
  20
485.855400
  0
VERTEX
  8
C7
  10
417.994500
  20
485.711500
  0
VERTEX
  8
C7
  10
418.959800
  20
485.554600
  0
VERTEX
  8
C7
  10
419.921700
  20
485.384000
  0
VERTEX
  8
C7
  10
420.879100
  20
485.199000
  0
VERTEX
  8
C7
  10
421.831300
  20
484.998600
  0
VERTEX
  8
C7
  10
422.777200
  20
484.782400
  0
VERTEX
  8
C7
  10
423.715800
  20
484.549400
  0
VERTEX
  8
C7
  10
424.646200
  20
484.298900
  0
VERTEX
  8
C7
  10
425.567400
  20
484.030200
  0
VERTEX
  8
C7
  10
426.478500
  20
483.742600
  0
VERTEX
  8
C7
  10
427.378500
  20
483.435200
  0
VERTEX
  8
C7
  10
428.266300
  20
483.107400
  0
VERTEX
  8
C7
  10
429.141200
  20
482.758400
  0
VERTEX
  8
C7
  10
430.002000
  20
482.387500
  0
VERTEX
  8
C7
  10
430.847800
  20
481.993800
  0
VERTEX
  8
C7
  10
431.677700
  20
481.576700
  0
VERTEX
  8
C7
  10
432.490700
  20
481.135400
  0
VERTEX
  8
C7
  10
433.285900
  20
480.669200
  0
VERTEX
  8
C7
  10
434.062200
  20
480.177300
  0
VERTEX
  8
C7
  10
434.818700
  20
479.659000
  0
VERTEX
  8
C7
  10
435.554400
  20
479.113500
  0
VERTEX
  8
C7
  10
436.268400
  20
478.540100
  0
VERTEX
  8
C7
  10
436.959800
  20
477.938100
  0
VERTEX
  8
C7
  10
437.627400
  20
477.306600
  0
VERTEX
  8
C7
  10
438.270500
  20
476.644900
  0
VERTEX
  8
C7
  10
438.887900
  20
475.952400
  0
VERTEX
  8
C7
  10
439.478900
  20
475.228200
  0
VERTEX
  8
C7
  10
440.042300
  20
474.471600
  0
VERTEX
  8
C7
  10
440.577200
  20
473.681900
  0
VERTEX
  8
C7
  10
441.082700
  20
472.858200
  0
VERTEX
  8
C7
  10
441.557800
  20
472.000000
  0
VERTEX
  8
C7
  10
441.956300
  20
471.208900
  0
VERTEX
  8
C7
  10
442.331600
  20
470.400600
  0
VERTEX
  8
C7
  10
442.684100
  20
469.575700
  0
VERTEX
  8
C7
  10
443.014600
  20
468.734800
  0
VERTEX
  8
C7
  10
443.323600
  20
467.878600
  0
VERTEX
  8
C7
  10
443.611700
  20
467.007600
  0
VERTEX
  8
C7
  10
443.879600
  20
466.122600
  0
VERTEX
  8
C7
  10
444.127900
  20
465.224100
  0
VERTEX
  8
C7
  10
444.357200
  20
464.312800
  0
VERTEX
  8
C7
  10
444.568200
  20
463.389300
  0
VERTEX
  8
C7
  10
444.761300
  20
462.454200
  0
VERTEX
  8
C7
  10
444.937300
  20
461.508300
  0
VERTEX
  8
C7
  10
445.096800
  20
460.552100
  0
VERTEX
  8
C7
  10
445.240400
  20
459.586200
  0
VERTEX
  8
C7
  10
445.368700
  20
458.611300
  0
VERTEX
  8
C7
  10
445.482300
  20
457.628000
  0
VERTEX
  8
C7
  10
445.581800
  20
456.637000
  0
VERTEX
  8
C7
  10
445.667900
  20
455.638900
  0
VERTEX
  8
C7
  10
445.741100
  20
454.634300
  0
VERTEX
  8
C7
  10
445.802200
  20
453.623900
  0
VERTEX
  8
C7
  10
445.851600
  20
452.608300
  0
VERTEX
  8
C7
  10
445.890100
  20
451.588100
  0
VERTEX
  8
C7
  10
445.918200
  20
450.563900
  0
VERTEX
  8
C7
  10
445.936600
  20
449.536500
  0
VERTEX
  8
C7
  10
445.945900
  20
448.506400
  0
VERTEX
  8
C7
  10
445.946600
  20
447.474200
  0
VERTEX
  8
C7
  10
445.939400
  20
446.440700
  0
VERTEX
  8
C7
  10
445.925000
  20
445.406300
  0
VERTEX
  8
C7
  10
445.903900
  20
444.371900
  0
VERTEX
  8
C7
  10
445.876800
  20
443.337900
  0
VERTEX
  8
C7
  10
445.844200
  20
442.305100
  0
VERTEX
  8
C7
  10
445.806900
  20
441.274000
  0
VERTEX
  8
C7
  10
445.765300
  20
440.245300
  0
VERTEX
  8
C7
  10
445.720200
  20
439.219700
  0
VERTEX
  8
C7
  10
445.672100
  20
438.197700
  0
VERTEX
  8
C7
  10
445.621700
  20
437.180100
  0
VERTEX
  8
C7
  10
445.569500
  20
436.167300
  0
VERTEX
  8
C7
  10
445.516300
  20
435.160200
  0
VERTEX
  8
C7
  10
445.462500
  20
434.159200
  0
VERTEX
  8
C7
  10
445.408900
  20
433.165100
  0
VERTEX
  8
C7
  10
445.356000
  20
432.178500
  0
VERTEX
  8
C7
  10
445.304500
  20
431.200000
  0
VERTEX
  8
C7
  10
445.255000
  20
430.230200
  0
VERTEX
  8
C7
  10
445.208000
  20
429.269700
  0
VERTEX
  8
C7
  10
445.164300
  20
428.319300
  0
VERTEX
  8
C7
  10
445.124400
  20
427.379600
  0
VERTEX
  8
C7
  10
445.088900
  20
426.451100
  0
VERTEX
  8
C7
  10
445.058500
  20
425.534500
  0
VERTEX
  8
C7
  10
445.033800
  20
424.630500
  0
VERTEX
  8
C7
  10
445.015400
  20
423.739600
  0
VERTEX
  8
C7
  10
445.003900
  20
422.862600
  0
VERTEX
  8
C7
  10
445.000000
  20
422.000000
  0
VERTEX
  8
C7
  10
445.000000
  20
311.000000
  0
VERTEX
  8
C7
  10
445.004000
  20
310.168600
  0
VERTEX
  8
C7
  10
445.015700
  20
309.320700
  0
VERTEX
  8
C7
  10
445.034400
  20
308.456700
  0
VERTEX
  8
C7
  10
445.059400
  20
307.577600
  0
VERTEX
  8
C7
  10
445.090200
  20
306.683900
  0
VERTEX
  8
C7
  10
445.126100
  20
305.776400
  0
VERTEX
  8
C7
  10
445.166400
  20
304.855900
  0
VERTEX
  8
C7
  10
445.210500
  20
303.923000
  0
VERTEX
  8
C7
  10
445.257800
  20
302.978400
  0
VERTEX
  8
C7
  10
445.307600
  20
302.022900
  0
VERTEX
  8
C7
  10
445.359300
  20
301.057100
  0
VERTEX
  8
C7
  10
445.412300
  20
300.081800
  0
VERTEX
  8
C7
  10
445.465900
  20
299.097800
  0
VERTEX
  8
C7
  10
445.519400
  20
298.105600
  0
VERTEX
  8
C7
  10
445.572300
  20
297.106100
  0
VERTEX
  8
C7
  10
445.623900
  20
296.100000
  0
VERTEX
  8
C7
  10
445.673500
  20
295.087900
  0
VERTEX
  8
C7
  10
445.720500
  20
294.070600
  0
VERTEX
  8
C7
  10
445.764300
  20
293.048800
  0
VERTEX
  8
C7
  10
445.804300
  20
292.023200
  0
VERTEX
  8
C7
  10
445.839700
  20
290.994500
  0
VERTEX
  8
C7
  10
445.870000
  20
289.963500
  0
VERTEX
  8
C7
  10
445.894600
  20
288.930800
  0
VERTEX
  8
C7
  10
445.912700
  20
287.897200
  0
VERTEX
  8
C7
  10
445.923700
  20
286.863400
  0
VERTEX
  8
C7
  10
445.927000
  20
285.830000
  0
VERTEX
  8
C7
  10
445.922000
  20
284.797900
  0
VERTEX
  8
C7
  10
445.908100
  20
283.767800
  0
VERTEX
  8
C7
  10
445.884500
  20
282.740200
  0
VERTEX
  8
C7
  10
445.850600
  20
281.716100
  0
VERTEX
  8
C7
  10
445.805800
  20
280.696000
  0
VERTEX
  8
C7
  10
445.749500
  20
279.680700
  0
VERTEX
  8
C7
  10
445.681100
  20
278.670900
  0
VERTEX
  8
C7
  10
445.599800
  20
277.667300
  0
VERTEX
  8
C7
  10
445.505000
  20
276.670700
  0
VERTEX
  8
C7
  10
445.396200
  20
275.681700
  0
VERTEX
  8
C7
  10
445.272600
  20
274.701100
  0
VERTEX
  8
C7
  10
445.133600
  20
273.729600
  0
VERTEX
  8
C7
  10
444.978700
  20
272.767800
  0
VERTEX
  8
C7
  10
444.807100
  20
271.816600
  0
VERTEX
  8
C7
  10
444.618100
  20
270.876600
  0
VERTEX
  8
C7
  10
444.411300
  20
269.948500
  0
VERTEX
  8
C7
  10
444.185900
  20
269.033200
  0
VERTEX
  8
C7
  10
443.941300
  20
268.131100
  0
VERTEX
  8
C7
  10
443.676800
  20
267.243200
  0
VERTEX
  8
C7
  10
443.391800
  20
266.370100
  0
VERTEX
  8
C7
  10
443.085700
  20
265.512500
  0
VERTEX
  8
C7
  10
442.757900
  20
264.671100
  0
VERTEX
  8
C7
  10
442.407600
  20
263.846600
  0
VERTEX
  8
C7
  10
442.034300
  20
263.039900
  0
VERTEX
  8
C7
  10
441.637300
  20
262.251500
  0
VERTEX
  8
C7
  10
441.215900
  20
261.482200
  0
VERTEX
  8
C7
  10
440.769700
  20
260.732700
  0
VERTEX
  8
C7
  10
440.297800
  20
260.003800
  0
VERTEX
  8
C7
  10
439.716500
  20
259.181800
  0
VERTEX
  8
C7
  10
439.111900
  20
258.402200
  0
VERTEX
  8
C7
  10
438.484700
  20
257.663800
  0
VERTEX
  8
C7
  10
437.835800
  20
256.965200
  0
VERTEX
  8
C7
  10
437.165900
  20
256.305200
  0
VERTEX
  8
C7
  10
436.475800
  20
255.682500
  0
VERTEX
  8
C7
  10
435.766200
  20
255.095800
  0
VERTEX
  8
C7
  10
435.037900
  20
254.544000
  0
VERTEX
  8
C7
  10
434.291700
  20
254.025600
  0
VERTEX
  8
C7
  10
433.528300
  20
253.539500
  0
VERTEX
  8
C7
  10
432.748600
  20
253.084400
  0
VERTEX
  8
C7
  10
431.953300
  20
252.659000
  0
VERTEX
  8
C7
  10
431.143100
  20
252.262100
  0
VERTEX
  8
C7
  10
430.318900
  20
251.892300
  0
VERTEX
  8
C7
  10
429.481300
  20
251.548500
  0
VERTEX
  8
C7
  10
428.631300
  20
251.229300
  0
VERTEX
  8
C7
  10
427.769500
  20
250.933500
  0
VERTEX
  8
C7
  10
426.896700
  20
250.659800
  0
VERTEX
  8
C7
  10
426.013800
  20
250.407000
  0
VERTEX
  8
C7
  10
425.121300
  20
250.173700
  0
VERTEX
  8
C7
  10
424.220300
  20
249.958700
  0
VERTEX
  8
C7
  10
423.311300
  20
249.760800
  0
VERTEX
  8
C7
  10
422.395200
  20
249.578700
  0
VERTEX
  8
C7
  10
421.472800
  20
249.411100
  0
VERTEX
  8
C7
  10
420.544700
  20
249.256700
  0
VERTEX
  8
C7
  10
419.611900
  20
249.114400
  0
VERTEX
  8
C7
  10
418.675000
  20
248.982700
  0
VERTEX
  8
C7
  10
417.734900
  20
248.860500
  0
VERTEX
  8
C7
  10
416.792300
  20
248.746400
  0
VERTEX
  8
C7
  10
415.847900
  20
248.639300
  0
VERTEX
  8
C7
  10
414.902600
  20
248.537800
  0
VERTEX
  8
C7
  10
413.957100
  20
248.440600
  0
VERTEX
  8
C7
  10
413.012200
  20
248.346600
  0
VERTEX
  8
C7
  10
412.068600
  20
248.254500
  0
VERTEX
  8
C7
  10
411.127200
  20
248.162900
  0
VERTEX
  8
C7
  10
410.188700
  20
248.070600
  0
VERTEX
  8
C7
  10
409.253900
  20
247.976400
  0
VERTEX
  8
C7
  10
408.323500
  20
247.878900
  0
VERTEX
  8
C7
  10
407.398300
  20
247.777000
  0
VERTEX
  8
C7
  10
406.479100
  20
247.669200
  0
VERTEX
  8
C7
  10
405.566700
  20
247.554500
  0
VERTEX
  8
C7
  10
404.661800
  20
247.431500
  0
VERTEX
  8
C7
  10
403.765200
  20
247.298900
  0
VERTEX
  8
C7
  10
402.877600
  20
247.155500
  0
VERTEX
  8
C7
  10
402.000000
  20
247.000000
  0
VERTEX
  8
C7
  10
402.000000
  20
225.000000
  0
VERTEX
  8
C7
  10
542.000000
  20
225.000000
  0
VERTEX
  8
C7
  10
542.000000
  20
247.000000
  0
VERTEX
  8
C7
  10
541.103600
  20
247.158000
  0
VERTEX
  8
C7
  10
540.196800
  20
247.302200
  0
VERTEX
  8
C7
  10
539.280400
  20
247.434200
  0
VERTEX
  8
C7
  10
538.355200
  20
247.555300
  0
VERTEX
  8
C7
  10
537.422100
  20
247.667100
  0
VERTEX
  8
C7
  10
536.481900
  20
247.770900
  0
VERTEX
  8
C7
  10
535.535500
  20
247.868400
  0
VERTEX
  8
C7
  10
534.583600
  20
247.960900
  0
VERTEX
  8
C7
  10
533.627100
  20
248.049900
  0
VERTEX
  8
C7
  10
532.666800
  20
248.136900
  0
VERTEX
  8
C7
  10
531.703500
  20
248.223300
  0
VERTEX
  8
C7
  10
530.738100
  20
248.310700
  0
VERTEX
  8
C7
  10
529.771400
  20
248.400400
  0
VERTEX
  8
C7
  10
528.804300
  20
248.494000
  0
VERTEX
  8
C7
  10
527.837500
  20
248.593000
  0
VERTEX
  8
C7
  10
526.871900
  20
248.698700
  0
VERTEX
  8
C7
  10
525.908400
  20
248.812700
  0
VERTEX
  8
C7
  10
524.947700
  20
248.936400
  0
VERTEX
  8
C7
  10
523.990700
  20
249.071300
  0
VERTEX
  8
C7
  10
523.038100
  20
249.218900
  0
VERTEX
  8
C7
  10
522.091000
  20
249.380700
  0
VERTEX
  8
C7
  10
521.150000
  20
249.558000
  0
VERTEX
  8
C7
  10
520.216000
  20
249.752500
  0
VERTEX
  8
C7
  10
519.289800
  20
249.965400
  0
VERTEX
  8
C7
  10
518.372300
  20
250.198400
  0
VERTEX
  8
C7
  10
517.464300
  20
250.452900
  0
VERTEX
  8
C7
  10
516.566600
  20
250.730300
  0
VERTEX
  8
C7
  10
515.680000
  20
251.032200
  0
VERTEX
  8
C7
  10
514.805400
  20
251.359900
  0
VERTEX
  8
C7
  10
513.943600
  20
251.715000
  0
VERTEX
  8
C7
  10
513.095500
  20
252.099000
  0
VERTEX
  8
C7
  10
512.261800
  20
252.513200
  0
VERTEX
  8
C7
  10
511.443500
  20
252.959200
  0
VERTEX
  8
C7
  10
510.641200
  20
253.438400
  0
VERTEX
  8
C7
  10
509.855900
  20
253.952400
  0
VERTEX
  8
C7
  10
509.088400
  20
254.502500
  0
VERTEX
  8
C7
  10
508.339500
  20
255.090200
  0
VERTEX
  8
C7
  10
507.610100
  20
255.717100
  0
VERTEX
  8
C7
  10
506.900900
  20
256.384600
  0
VERTEX
  8
C7
  10
506.212900
  20
257.094100
  0
VERTEX
  8
C7
  10
505.578400
  20
257.812700
  0
VERTEX
  8
C7
  10
504.984400
  20
258.553600
  0
VERTEX
  8
C7
  10
504.429600
  20
259.315900
  0
VERTEX
  8
C7
  10
503.912800
  20
260.098700
  0
VERTEX
  8
C7
  10
503.432700
  20
260.901100
  0
VERTEX
  8
C7
  10
502.988100
  20
261.722000
  0
VERTEX
  8
C7
  10
502.577700
  20
262.560600
  0
VERTEX
  8
C7
  10
502.200200
  20
263.416000
  0
VERTEX
  8
C7
  10
501.854400
  20
264.287300
  0
VERTEX
  8
C7
  10
501.539000
  20
265.173500
  0
VERTEX
  8
C7
  10
501.252800
  20
266.073600
  0
VERTEX
  8
C7
  10
500.994600
  20
266.986800
  0
VERTEX
  8
C7
  10
500.762900
  20
267.912200
  0
VERTEX
  8
C7
  10
500.556700
  20
268.848800
  0
VERTEX
  8
C7
  10
500.374700
  20
269.795700
  0
VERTEX
  8
C7
  10
500.215500
  20
270.751900
  0
VERTEX
  8
C7
  10
500.078000
  20
271.716700
  0
VERTEX
  8
C7
  10
499.960800
  20
272.688900
  0
VERTEX
  8
C7
  10
499.862800
  20
273.667700
  0
VERTEX
  8
C7
  10
499.782600
  20
274.652200
  0
VERTEX
  8
C7
  10
499.719000
  20
275.641400
  0
VERTEX
  8
C7
  10
499.670800
  20
276.634500
  0
VERTEX
  8
C7
  10
499.636700
  20
277.630500
  0
VERTEX
  8
C7
  10
499.615400
  20
278.628400
  0
VERTEX
  8
C7
  10
499.605700
  20
279.627400
  0
VERTEX
  8
C7
  10
499.606300
  20
280.626600
  0
VERTEX
  8
C7
  10
499.616000
  20
281.624900
  0
VERTEX
  8
C7
  10
499.633500
  20
282.621500
  0
VERTEX
  8
C7
  10
499.657500
  20
283.615400
  0
VERTEX
  8
C7
  10
499.686900
  20
284.605800
  0
VERTEX
  8
C7
  10
499.720300
  20
285.591700
  0
VERTEX
  8
C7
  10
499.756400
  20
286.572200
  0
VERTEX
  8
C7
  10
499.794100
  20
287.546300
  0
VERTEX
  8
C7
  10
499.832100
  20
288.513200
  0
VERTEX
  8
C7
  10
499.869100
  20
289.471800
  0
VERTEX
  8
C7
  10
499.903900
  20
290.421400
  0
VERTEX
  8
C7
  10
499.935100
  20
291.360900
  0
VERTEX
  8
C7
  10
499.961600
  20
292.289400
  0
VERTEX
  8
C7
  10
499.982100
  20
293.206000
  0
VERTEX
  8
C7
  10
499.995300
  20
294.109900
  0
VERTEX
  8
C7
  10
500.000000
  20
295.000000
  0
VERTEX
  8
C7
  10
500.000000
  20
389.000000
  0
VERTEX
  8
C7
  10
500.825200
  20
388.564900
  0
VERTEX
  8
C7
  10
501.652700
  20
388.137500
  0
VERTEX
  8
C7
  10
502.482300
  20
387.717800
  0
VERTEX
  8
C7
  10
503.313900
  20
387.305800
  0
VERTEX
  8
C7
  10
504.147700
  20
386.901400
  0
VERTEX
  8
C7
  10
504.983400
  20
386.504600
  0
VERTEX
  8
C7
  10
505.821100
  20
386.115400
  0
VERTEX
  8
C7
  10
506.660800
  20
385.733800
  0
VERTEX
  8
C7
  10
507.502500
  20
385.359700
  0
VERTEX
  8
C7
  10
508.346000
  20
384.993200
  0
VERTEX
  8
C7
  10
509.191400
  20
384.634200
  0
VERTEX
  8
C7
  10
510.038600
  20
384.282600
  0
VERTEX
  8
C7
  10
510.887600
  20
383.938500
  0
VERTEX
  8
C7
  10
511.738400
  20
383.601900
  0
VERTEX
  8
C7
  10
512.590900
  20
383.272700
  0
VERTEX
  8
C7
  10
513.445100
  20
382.950800
  0
VERTEX
  8
C7
  10
514.301000
  20
382.636400
  0
VERTEX
  8
C7
  10
515.158500
  20
382.329300
  0
VERTEX
  8
C7
  10
516.017600
  20
382.029500
  0
VERTEX
  8
C7
  10
516.878300
  20
381.737000
  0
VERTEX
  8
C7
  10
517.740500
  20
381.451800
  0
VERTEX
  8
C7
  10
518.604300
  20
381.173800
  0
VERTEX
  8
C7
  10
519.469500
  20
380.903100
  0
VERTEX
  8
C7
  10
520.336100
  20
380.639600
  0
VERTEX
  8
C7
  10
521.204200
  20
380.383400
  0
VERTEX
  8
C7
  10
522.073600
  20
380.134200
  0
VERTEX
  8
C7
  10
522.944400
  20
379.892300
  0
VERTEX
  8
C7
  10
523.816400
  20
379.657400
  0
VERTEX
  8
C7
  10
524.689800
  20
379.429700
  0
VERTEX
  8
C7
  10
525.564400
  20
379.209000
  0
VERTEX
  8
C7
  10
526.440200
  20
378.995400
  0
VERTEX
  8
C7
  10
527.317200
  20
378.788800
  0
VERTEX
  8
C7
  10
528.195400
  20
378.589300
  0
VERTEX
  8
C7
  10
529.074700
  20
378.396700
  0
VERTEX
  8
C7
  10
529.955000
  20
378.211100
  0
VERTEX
  8
C7
  10
530.836400
  20
378.032500
  0
VERTEX
  8
C7
  10
531.718800
  20
377.860800
  0
VERTEX
  8
C7
  10
532.602200
  20
377.696000
  0
VERTEX
  8
C7
  10
533.486600
  20
377.538000
  0
VERTEX
  8
C7
  10
534.371900
  20
377.387000
  0
VERTEX
  8
C7
  10
535.258000
  20
377.242700
  0
VERTEX
  8
C7
  10
536.145100
  20
377.105300
  0
VERTEX
  8
C7
  10
537.032900
  20
376.974700
  0
VERTEX
  8
C7
  10
537.921600
  20
376.850800
  0
VERTEX
  8
C7
  10
538.811000
  20
376.733700
  0
VERTEX
  8
C7
  10
539.701100
  20
376.623400
  0
VERTEX
  8
C7
  10
540.591900
  20
376.519700
  0
VERTEX
  8
C7
  10
541.483400
  20
376.422700
  0
VERTEX
  8
C7
  10
542.375500
  20
376.332300
  0
VERTEX
  8
C7
  10
543.268200
  20
376.248600
  0
VERTEX
  8
C7
  10
544.161500
  20
376.171500
  0
VERTEX
  8
C7
  10
545.055300
  20
376.101000
  0
VERTEX
  8
C7
  10
545.949600
  20
376.037100
  0
VERTEX
  8
C7
  10
546.844400
  20
375.979700
  0
VERTEX
  8
C7
  10
547.739600
  20
375.928900
  0
VERTEX
  8
C7
  10
548.635200
  20
375.884500
  0
VERTEX
  8
C7
  10
549.531200
  20
375.846600
  0
VERTEX
  8
C7
  10
550.427500
  20
375.815200
  0
VERTEX
  8
C7
  10
551.324100
  20
375.790200
  0
VERTEX
  8
C7
  10
552.221000
  20
375.771700
  0
VERTEX
  8
C7
  10
553.118100
  20
375.759500
  0
VERTEX
  8
C7
  10
554.015500
  20
375.753700
  0
VERTEX
  8
C7
  10
554.913000
  20
375.754200
  0
VERTEX
  8
C7
  10
555.810600
  20
375.761100
  0
VERTEX
  8
C7
  10
556.708400
  20
375.774300
  0
VERTEX
  8
C7
  10
557.606200
  20
375.793700
  0
VERTEX
  8
C7
  10
558.504100
  20
375.819400
  0
VERTEX
  8
C7
  10
559.402000
  20
375.851300
  0
VERTEX
  8
C7
  10
560.299900
  20
375.889500
  0
VERTEX
  8
C7
  10
561.197700
  20
375.933800
  0
VERTEX
  8
C7
  10
562.095500
  20
375.984300
  0
VERTEX
  8
C7
  10
562.993100
  20
376.041000
  0
VERTEX
  8
C7
  10
563.890600
  20
376.103800
  0
VERTEX
  8
C7
  10
564.787900
  20
376.172700
  0
VERTEX
  8
C7
  10
565.685000
  20
376.247600
  0
VERTEX
  8
C7
  10
566.581800
  20
376.328600
  0
VERTEX
  8
C7
  10
567.478300
  20
376.415700
  0
VERTEX
  8
C7
  10
568.374600
  20
376.508800
  0
VERTEX
  8
C7
  10
569.270500
  20
376.607800
  0
VERTEX
  8
C7
  10
570.166000
  20
376.712800
  0
VERTEX
  8
C7
  10
571.061100
  20
376.823800
  0
VERTEX
  8
C7
  10
571.955800
  20
376.940700
  0
VERTEX
  8
C7
  10
572.850000
  20
377.063500
  0
VERTEX
  8
C7
  10
573.743600
  20
377.192200
  0
VERTEX
  8
C7
  10
574.636800
  20
377.326700
  0
VERTEX
  8
C7
  10
575.529400
  20
377.467000
  0
VERTEX
  8
C7
  10
576.421300
  20
377.613200
  0
VERTEX
  8
C7
  10
577.312700
  20
377.765200
  0
VERTEX
  8
C7
  10
578.203300
  20
377.922900
  0
VERTEX
  8
C7
  10
579.093300
  20
378.086400
  0
VERTEX
  8
C7
  10
579.982500
  20
378.255600
  0
VERTEX
  8
C7
  10
580.871000
  20
378.430500
  0
VERTEX
  8
C7
  10
581.758700
  20
378.611100
  0
VERTEX
  8
C7
  10
582.645500
  20
378.797300
  0
VERTEX
  8
C7
  10
583.531500
  20
378.989100
  0
VERTEX
  8
C7
  10
584.416500
  20
379.186600
  0
VERTEX
  8
C7
  10
585.300700
  20
379.389700
  0
VERTEX
  8
C7
  10
586.183800
  20
379.598300
  0
VERTEX
  8
C7
  10
587.066000
  20
379.812500
  0
VERTEX
  8
C7
  10
587.947200
  20
380.032200
  0
VERTEX
  8
C7
  10
588.827300
  20
380.257400
  0
VERTEX
  8
C7
  10
589.706300
  20
380.488100
  0
VERTEX
  8
C7
  10
590.584200
  20
380.724200
  0
VERTEX
  8
C7
  10
591.460900
  20
380.965800
  0
VERTEX
  8
C7
  10
592.336500
  20
381.212700
  0
VERTEX
  8
C7
  10
593.210800
  20
381.465100
  0
VERTEX
  8
C7
  10
594.083900
  20
381.722800
  0
VERTEX
  8
C7
  10
594.955700
  20
381.985900
  0
VERTEX
  8
C7
  10
595.826100
  20
382.254300
  0
VERTEX
  8
C7
  10
596.695200
  20
382.528000
  0
VERTEX
  8
C7
  10
597.563000
  20
382.807000
  0
VERTEX
  8
C7
  10
598.429300
  20
383.091200
  0
VERTEX
  8
C7
  10
599.294200
  20
383.380700
  0
VERTEX
  8
C7
  10
600.157500
  20
383.675300
  0
VERTEX
  8
C7
  10
601.019400
  20
383.975200
  0
VERTEX
  8
C7
  10
601.879700
  20
384.280200
  0
VERTEX
  8
C7
  10
602.738500
  20
384.590400
  0
VERTEX
  8
C7
  10
603.595600
  20
384.905700
  0
VERTEX
  8
C7
  10
604.451100
  20
385.226100
  0
VERTEX
  8
C7
  10
605.304900
  20
385.551500
  0
VERTEX
  8
C7
  10
606.157100
  20
385.882000
  0
VERTEX
  8
C7
  10
607.007400
  20
386.217600
  0
VERTEX
  8
C7
  10
607.856000
  20
386.558200
  0
VERTEX
  8
C7
  10
608.702800
  20
386.903700
  0
VERTEX
  8
C7
  10
609.547800
  20
387.254200
  0
VERTEX
  8
C7
  10
610.390900
  20
387.609700
  0
VERTEX
  8
C7
  10
611.232100
  20
387.970100
  0
VERTEX
  8
C7
  10
612.071300
  20
388.335300
  0
VERTEX
  8
C7
  10
612.908600
  20
388.705500
  0
VERTEX
  8
C7
  10
613.743900
  20
389.080500
  0
VERTEX
  8
C7
  10
614.577100
  20
389.460300
  0
VERTEX
  8
C7
  10
615.408300
  20
389.845000
  0
VERTEX
  8
C7
  10
616.237400
  20
390.234400
  0
VERTEX
  8
C7
  10
617.064400
  20
390.628600
  0
VERTEX
  8
C7
  10
617.889200
  20
391.027500
  0
VERTEX
  8
C7
  10
618.711800
  20
391.431200
  0
VERTEX
  8
C7
  10
619.532100
  20
391.839500
  0
VERTEX
  8
C7
  10
620.350300
  20
392.252600
  0
VERTEX
  8
C7
  10
621.166100
  20
392.670300
  0
VERTEX
  8
C7
  10
621.979600
  20
393.092600
  0
VERTEX
  8
C7
  10
622.790700
  20
393.519500
  0
VERTEX
  8
C7
  10
623.599500
  20
393.951000
  0
VERTEX
  8
C7
  10
624.405800
  20
394.387100
  0
VERTEX
  8
C7
  10
625.209700
  20
394.827700
  0
VERTEX
  8
C7
  10
626.011100
  20
395.272800
  0
VERTEX
  8
C7
  10
626.809900
  20
395.722500
  0
VERTEX
  8
C7
  10
627.606200
  20
396.176600
  0
VERTEX
  8
C7
  10
628.400000
  20
396.635100
  0
VERTEX
  8
C7
  10
629.191100
  20
397.098100
  0
VERTEX
  8
C7
  10
629.979600
  20
397.565500
  0
VERTEX
  8
C7
  10
630.765400
  20
398.037300
  0
VERTEX
  8
C7
  10
631.548400
  20
398.513500
  0
VERTEX
  8
C7
  10
632.328800
  20
398.994000
  0
VERTEX
  8
C7
  10
633.106300
  20
399.478800
  0
VERTEX
  8
C7
  10
633.881000
  20
399.967900
  0
VERTEX
  8
C7
  10
634.652900
  20
400.461300
  0
VERTEX
  8
C7
  10
635.421900
  20
400.958900
  0
VERTEX
  8
C7
  10
636.188000
  20
401.460800
  0
VERTEX
  8
C7
  10
636.951200
  20
401.966800
  0
VERTEX
  8
C7
  10
637.711400
  20
402.477100
  0
VERTEX
  8
C7
  10
638.468600
  20
402.991500
  0
VERTEX
  8
C7
  10
639.222700
  20
403.510100
  0
VERTEX
  8
C7
  10
639.973800
  20
404.032700
  0
VERTEX
  8
C7
  10
640.721800
  20
404.559500
  0
VERTEX
  8
C7
  10
641.466600
  20
405.090400
  0
VERTEX
  8
C7
  10
642.208300
  20
405.625300
  0
VERTEX
  8
C7
  10
642.946800
  20
406.164200
  0
VERTEX
  8
C7
  10
643.682000
  20
406.707100
  0
VERTEX
  8
C7
  10
644.414000
  20
407.254100
  0
VERTEX
  8
C7
  10
645.142600
  20
407.804900
  0
VERTEX
  8
C7
  10
645.868000
  20
408.359800
  0
VERTEX
  8
C7
  10
646.589900
  20
408.918500
  0
VERTEX
  8
C7
  10
647.308500
  20
409.481100
  0
VERTEX
  8
C7
  10
648.023700
  20
410.047700
  0
VERTEX
  8
C7
  10
648.735400
  20
410.618000
  0
VERTEX
  8
C7
  10
649.443600
  20
411.192200
  0
VERTEX
  8
C7
  10
650.148200
  20
411.770200
  0
VERTEX
  8
C7
  10
650.849300
  20
412.352000
  0
VERTEX
  8
C7
  10
651.546900
  20
412.937500
  0
VERTEX
  8
C7
  10
652.240800
  20
413.526800
  0
VERTEX
  8
C7
  10
652.931000
  20
414.119800
  0
VERTEX
  8
C7
  10
653.617600
  20
414.716500
  0
VERTEX
  8
C7
  10
654.300400
  20
415.316900
  0
VERTEX
  8
C7
  10
654.979500
  20
415.920900
  0
VERTEX
  8
C7
  10
655.654800
  20
416.528500
  0
VERTEX
  8
C7
  10
656.326300
  20
417.139800
  0
VERTEX
  8
C7
  10
656.993900
  20
417.754600
  0
VERTEX
  8
C7
  10
657.657700
  20
418.373000
  0
VERTEX
  8
C7
  10
658.317500
  20
418.995000
  0
VERTEX
  8
C7
  10
658.973400
  20
419.620400
  0
VERTEX
  8
C7
  10
659.625300
  20
420.249400
  0
VERTEX
  8
C7
  10
660.273200
  20
420.881800
  0
VERTEX
  8
C7
  10
660.917000
  20
421.517700
  0
VERTEX
  8
C7
  10
661.556800
  20
422.157000
  0
VERTEX
  8
C7
  10
662.192500
  20
422.799700
  0
VERTEX
  8
C7
  10
662.824000
  20
423.445800
  0
VERTEX
  8
C7
  10
663.451300
  20
424.095200
  0
VERTEX
  8
C7
  10
664.074500
  20
424.748000
  0
VERTEX
  8
C7
  10
664.693400
  20
425.404100
  0
VERTEX
  8
C7
  10
665.308000
  20
426.063500
  0
VERTEX
  8
C7
  10
665.918300
  20
426.726200
  0
VERTEX
  8
C7
  10
666.524300
  20
427.392100
  0
VERTEX
  8
C7
  10
667.125900
  20
428.061200
  0
VERTEX
  8
C7
  10
667.723100
  20
428.733600
  0
VERTEX
  8
C7
  10
668.315900
  20
429.409100
  0
VERTEX
  8
C7
  10
668.904200
  20
430.087800
  0
VERTEX
  8
C7
  10
669.488000
  20
430.769700
  0
VERTEX
  8
C7
  10
670.067300
  20
431.454600
  0
VERTEX
  8
C7
  10
670.642000
  20
432.142600
  0
VERTEX
  8
C7
  10
671.212200
  20
432.833800
  0
VERTEX
  8
C7
  10
671.777700
  20
433.527900
  0
VERTEX
  8
C7
  10
672.338500
  20
434.225100
  0
VERTEX
  8
C7
  10
672.894600
  20
434.925300
  0
VERTEX
  8
C7
  10
673.446000
  20
435.628500
  0
VERTEX
  8
C7
  10
673.992700
  20
436.334600
  0
VERTEX
  8
C7
  10
674.534500
  20
437.043700
  0
VERTEX
  8
C7
  10
675.071600
  20
437.755700
  0
VERTEX
  8
C7
  10
675.603800
  20
438.470600
  0
VERTEX
  8
C7
  10
676.131100
  20
439.188300
  0
VERTEX
  8
C7
  10
676.653400
  20
439.908900
  0
VERTEX
  8
C7
  10
677.170800
  20
440.632300
  0
VERTEX
  8
C7
  10
677.683300
  20
441.358600
  0
VERTEX
  8
C7
  10
678.190700
  20
442.087600
  0
VERTEX
  8
C7
  10
678.693000
  20
442.819400
  0
VERTEX
  8
C7
  10
679.190300
  20
443.553900
  0
VERTEX
  8
C7
  10
679.682500
  20
444.291100
  0
VERTEX
  8
C7
  10
680.169500
  20
445.031000
  0
VERTEX
  8
C7
  10
680.651300
  20
445.773600
  0
VERTEX
  8
C7
  10
681.127900
  20
446.518800
  0
VERTEX
  8
C7
  10
681.599300
  20
447.266700
  0
VERTEX
  8
C7
  10
682.065400
  20
448.017200
  0
VERTEX
  8
C7
  10
682.526200
  20
448.770200
  0
VERTEX
  8
C7
  10
682.981600
  20
449.525800
  0
VERTEX
  8
C7
  10
683.431700
  20
450.283900
  0
VERTEX
  8
C7
  10
683.876400
  20
451.044600
  0
VERTEX
  8
C7
  10
684.315600
  20
451.807700
  0
VERTEX
  8
C7
  10
684.749300
  20
452.573400
  0
VERTEX
  8
C7
  10
685.177600
  20
453.341400
  0
VERTEX
  8
C7
  10
685.600300
  20
454.111900
  0
VERTEX
  8
C7
  10
686.017400
  20
454.884800
  0
VERTEX
  8
C7
  10
686.428900
  20
455.660100
  0
VERTEX
  8
C7
  10
686.834800
  20
456.437700
  0
VERTEX
  8
C7
  10
687.235000
  20
457.217700
  0
VERTEX
  8
C7
  10
687.629600
  20
458.000000
  0
VERTEX
  8
C7
  10
688.052300
  20
458.853000
  0
VERTEX
  8
C7
  10
688.469000
  20
459.708400
  0
VERTEX
  8
C7
  10
688.879500
  20
460.566100
  0
VERTEX
  8
C7
  10
689.283800
  20
461.426100
  0
VERTEX
  8
C7
  10
689.682000
  20
462.288300
  0
VERTEX
  8
C7
  10
690.074100
  20
463.152700
  0
VERTEX
  8
C7
  10
690.460000
  20
464.019300
  0
VERTEX
  8
C7
  10
690.839800
  20
464.888100
  0
VERTEX
  8
C7
  10
691.213500
  20
465.759000
  0
VERTEX
  8
C7
  10
691.581100
  20
466.631900
  0
VERTEX
  8
C7
  10
691.942600
  20
467.506900
  0
VERTEX
  8
C7
  10
692.298000
  20
468.383900
  0
VERTEX
  8
C7
  10
692.647200
  20
469.262900
  0
VERTEX
  8
C7
  10
692.990400
  20
470.143800
  0
VERTEX
  8
C7
  10
693.327500
  20
471.026600
  0
VERTEX
  8
C7
  10
693.658500
  20
471.911300
  0
VERTEX
  8
C7
  10
693.983400
  20
472.797800
  0
VERTEX
  8
C7
  10
694.302300
  20
473.686200
  0
VERTEX
  8
C7
  10
694.615000
  20
474.576300
  0
VERTEX
  8
C7
  10
694.921700
  20
475.468100
  0
VERTEX
  8
C7
  10
695.222400
  20
476.361600
  0
VERTEX
  8
C7
  10
695.517000
  20
477.256800
  0
VERTEX
  8
C7
  10
695.805500
  20
478.153700
  0
VERTEX
  8
C7
  10
696.088000
  20
479.052100
  0
VERTEX
  8
C7
  10
696.364500
  20
479.952100
  0
VERTEX
  8
C7
  10
696.634900
  20
480.853600
  0
VERTEX
  8
C7
  10
696.899300
  20
481.756700
  0
VERTEX
  8
C7
  10
697.157700
  20
482.661100
  0
VERTEX
  8
C7
  10
697.410000
  20
483.567100
  0
VERTEX
  8
C7
  10
697.656300
  20
484.474400
  0
VERTEX
  8
C7
  10
697.896600
  20
485.383000
  0
VERTEX
  8
C7
  10
698.131000
  20
486.293000
  0
VERTEX
  8
C7
  10
698.359300
  20
487.204300
  0
VERTEX
  8
C7
  10
698.581600
  20
488.116900
  0
VERTEX
  8
C7
  10
698.797900
  20
489.030600
  0
VERTEX
  8
C7
  10
699.008200
  20
489.945600
  0
VERTEX
  8
C7
  10
699.212600
  20
490.861700
  0
VERTEX
  8
C7
  10
699.411000
  20
491.779000
  0
VERTEX
  8
C7
  10
699.603400
  20
492.697300
  0
VERTEX
  8
C7
  10
699.789800
  20
493.616700
  0
VERTEX
  8
C7
  10
699.970300
  20
494.537100
  0
VERTEX
  8
C7
  10
700.144800
  20
495.458500
  0
VERTEX
  8
C7
  10
700.313400
  20
496.380800
  0
VERTEX
  8
C7
  10
700.476000
  20
497.304100
  0
VERTEX
  8
C7
  10
700.632700
  20
498.228200
  0
VERTEX
  8
C7
  10
700.783500
  20
499.153200
  0
VERTEX
  8
C7
  10
700.928300
  20
500.079000
  0
VERTEX
  8
C7
  10
701.067200
  20
501.005600
  0
VERTEX
  8
C7
  10
701.200100
  20
501.932900
  0
VERTEX
  8
C7
  10
701.327200
  20
502.860900
  0
VERTEX
  8
C7
  10
701.448300
  20
503.789700
  0
VERTEX
  8
C7
  10
701.563600
  20
504.719000
  0
VERTEX
  8
C7
  10
701.672900
  20
505.649000
  0
VERTEX
  8
C7
  10
701.776300
  20
506.579500
  0
VERTEX
  8
C7
  10
701.873900
  20
507.510600
  0
VERTEX
  8
C7
  10
701.965500
  20
508.442200
  0
VERTEX
  8
C7
  10
702.051300
  20
509.374300
  0
VERTEX
  8
C7
  10
702.131200
  20
510.306800
  0
VERTEX
  8
C7
  10
702.205200
  20
511.239800
  0
VERTEX
  8
C7
  10
702.273400
  20
512.173100
  0
VERTEX
  8
C7
  10
702.335600
  20
513.106700
  0
VERTEX
  8
C7
  10
702.392100
  20
514.040600
  0
VERTEX
  8
C7
  10
702.442700
  20
514.974800
  0
VERTEX
  8
C7
  10
702.487400
  20
515.909300
  0
VERTEX
  8
C7
  10
702.526300
  20
516.843900
  0
VERTEX
  8
C7
  10
702.559300
  20
517.778700
  0
VERTEX
  8
C7
  10
702.586500
  20
518.713700
  0
VERTEX
  8
C7
  10
702.607900
  20
519.648700
  0
VERTEX
  8
C7
  10
702.623500
  20
520.583800
  0
VERTEX
  8
C7
  10
702.633200
  20
521.519000
  0
VERTEX
  8
C7
  10
702.637200
  20
522.454100
  0
VERTEX
  8
C7
  10
702.635300
  20
523.389200
  0
VERTEX
  8
C7
  10
702.627600
  20
524.324200
  0
VERTEX
  8
C7
  10
702.614200
  20
525.259100
  0
VERTEX
  8
C7
  10
702.594900
  20
526.193900
  0
VERTEX
  8
C7
  10
702.569800
  20
527.128500
  0
VERTEX
  8
C7
  10
702.539000
  20
528.062900
  0
VERTEX
  8
C7
  10
702.502400
  20
528.997100
  0
VERTEX
  8
C7
  10
702.460000
  20
529.931000
  0
VERTEX
  8
C7
  10
702.411800
  20
530.864600
  0
VERTEX
  8
C7
  10
702.357900
  20
531.797800
  0
VERTEX
  8
C7
  10
702.298200
  20
532.730600
  0
VERTEX
  8
C7
  10
702.232800
  20
533.663100
  0
VERTEX
  8
C7
  10
702.161600
  20
534.595100
  0
VERTEX
  8
C7
  10
702.084600
  20
535.526600
  0
VERTEX
  8
C7
  10
702.002000
  20
536.457600
  0
VERTEX
  8
C7
  10
701.913600
  20
537.388100
  0
VERTEX
  8
C7
  10
701.819400
  20
538.317900
  0
VERTEX
  8
C7
  10
701.719600
  20
539.247200
  0
VERTEX
  8
C7
  10
701.614000
  20
540.175800
  0
VERTEX
  8
C7
  10
701.502700
  20
541.103700
  0
VERTEX
  8
C7
  10
701.385700
  20
542.030900
  0
VERTEX
  8
C7
  10
701.263000
  20
542.957400
  0
VERTEX
  8
C7
  10
701.134600
  20
543.883000
  0
VERTEX
  8
C7
  10
701.000500
  20
544.807900
  0
VERTEX
  8
C7
  10
700.860700
  20
545.731800
  0
VERTEX
  8
C7
  10
700.715200
  20
546.654900
  0
VERTEX
  8
C7
  10
700.564100
  20
547.577100
  0
VERTEX
  8
C7
  10
700.407200
  20
548.498300
  0
VERTEX
  8
C7
  10
700.244700
  20
549.418600
  0
VERTEX
  8
C7
  10
700.076600
  20
550.337800
  0
VERTEX
  8
C7
  10
699.902700
  20
551.255900
  0
VERTEX
  8
C7
  10
699.723200
  20
552.172900
  0
VERTEX
  8
C7
  10
699.538100
  20
553.088900
  0
VERTEX
  8
C7
  10
699.347300
  20
554.003600
  0
VERTEX
  8
C7
  10
699.150900
  20
554.917200
  0
VERTEX
  8
C7
  10
698.948900
  20
555.829500
  0
VERTEX
  8
C7
  10
698.741200
  20
556.740600
  0
VERTEX
  8
C7
  10
698.527900
  20
557.650300
  0
VERTEX
  8
C7
  10
698.308900
  20
558.558800
  0
VERTEX
  8
C7
  10
698.084400
  20
559.465800
  0
VERTEX
  8
C7
  10
697.854200
  20
560.371500
  0
VERTEX
  8
C7
  10
697.618500
  20
561.275700
  0
VERTEX
  8
C7
  10
697.377100
  20
562.178500
  0
VERTEX
  8
C7
  10
697.130100
  20
563.079800
  0
VERTEX
  8
C7
  10
696.877600
  20
563.979500
  0
VERTEX
  8
C7
  10
696.619500
  20
564.877700
  0
VERTEX
  8
C7
  10
696.355700
  20
565.774200
  0
VERTEX
  8
C7
  10
696.086400
  20
566.669100
  0
VERTEX
  8
C7
  10
695.811600
  20
567.562400
  0
VERTEX
  8
C7
  10
695.531200
  20
568.453900
  0
VERTEX
  8
C7
  10
695.245200
  20
569.343700
  0
VERTEX
  8
C7
  10
694.953600
  20
570.231700
  0
VERTEX
  8
C7
  10
694.656500
  20
571.117900
  0
VERTEX
  8
C7
  10
694.353900
  20
572.002300
  0
VERTEX
  8
C7
  10
694.045700
  20
572.884800
  0
VERTEX
  8
C7
  10
693.731900
  20
573.765300
  0
VERTEX
  8
C7
  10
693.412700
  20
574.644000
  0
VERTEX
  8
C7
  10
693.087900
  20
575.520600
  0
VERTEX
  8
C7
  10
692.757600
  20
576.395200
  0
VERTEX
  8
C7
  10
692.421800
  20
577.267800
  0
VERTEX
  8
C7
  10
692.080400
  20
578.138300
  0
VERTEX
  8
C7
  10
691.733600
  20
579.006700
  0
VERTEX
  8
C7
  10
691.381300
  20
579.873000
  0
VERTEX
  8
C7
  10
691.023400
  20
580.737000
  0
VERTEX
  8
C7
  10
690.660100
  20
581.598900
  0
VERTEX
  8
C7
  10
690.291300
  20
582.458400
  0
VERTEX
  8
C7
  10
689.917000
  20
583.315700
  0
VERTEX
  8
C7
  10
689.537200
  20
584.170700
  0
VERTEX
  8
C7
  10
689.151900
  20
585.023300
  0
VERTEX
  8
C7
  10
688.761200
  20
585.873600
  0
VERTEX
  8
C7
  10
688.365000
  20
586.721400
  0
VERTEX
  8
C7
  10
687.963400
  20
587.566700
  0
VERTEX
  8
C7
  10
687.556300
  20
588.409600
  0
VERTEX
  8
C7
  10
687.143700
  20
589.249900
  0
VERTEX
  8
C7
  10
686.725800
  20
590.087700
  0
VERTEX
  8
C7
  10
686.302300
  20
590.922900
  0
VERTEX
  8
C7
  10
685.873500
  20
591.755500
  0
VERTEX
  8
C7
  10
685.439200
  20
592.585400
  0
VERTEX
  8
C7
  10
684.999500
  20
593.412600
  0
VERTEX
  8
C7
  10
684.554400
  20
594.237000
  0
VERTEX
  8
C7
  10
684.103800
  20
595.058700
  0
VERTEX
  8
C7
  10
683.647900
  20
595.877700
  0
VERTEX
  8
C7
  10
683.186500
  20
596.693700
  0
VERTEX
  8
C7
  10
682.719800
  20
597.506900
  0
VERTEX
  8
C7
  10
682.247600
  20
598.317300
  0
VERTEX
  8
C7
  10
681.770100
  20
599.124600
  0
VERTEX
  8
C7
  10
681.287200
  20
599.929000
  0
VERTEX
  8
C7
  10
680.798900
  20
600.730500
  0
VERTEX
  8
C7
  10
680.305200
  20
601.528800
  0
VERTEX
  8
C7
  10
679.806200
  20
602.324100
  0
VERTEX
  8
C7
  10
679.301800
  20
603.116300
  0
VERTEX
  8
C7
  10
678.792000
  20
603.905400
  0
VERTEX
  8
C7
  10
678.276900
  20
604.691300
  0
VERTEX
  8
C7
  10
677.756500
  20
605.474000
  0
VERTEX
  8
C7
  10
677.230700
  20
606.253400
  0
VERTEX
  8
C7
  10
676.699500
  20
607.029600
  0
VERTEX
  8
C7
  10
676.163100
  20
607.802400
  0
VERTEX
  8
C7
  10
675.621200
  20
608.571900
  0
VERTEX
  8
C7
  10
675.074100
  20
609.338100
  0
VERTEX
  8
C7
  10
674.521700
  20
610.100800
  0
VERTEX
  8
C7
  10
673.963900
  20
610.860100
  0
VERTEX
  8
C7
  10
673.400800
  20
611.615900
  0
VERTEX
  8
C7
  10
672.832400
  20
612.368100
  0
VERTEX
  8
C7
  10
672.258800
  20
613.116900
  0
VERTEX
  8
C7
  10
671.679800
  20
613.862000
  0
VERTEX
  8
C7
  10
671.095500
  20
614.603600
  0
VERTEX
  8
C7
  10
670.506000
  20
615.341500
  0
VERTEX
  8
C7
  10
669.911200
  20
616.075700
  0
VERTEX
  8
C7
  10
669.311100
  20
616.806200
  0
VERTEX
  8
C7
  10
668.705700
  20
617.532900
  0
VERTEX
  8
C7
  10
668.095000
  20
618.255900
  0
VERTEX
  8
C7
  10
667.479100
  20
618.975000
  0
VERTEX
  8
C7
  10
666.858000
  20
619.690300
  0
VERTEX
  8
C7
  10
666.231600
  20
620.401700
  0
VERTEX
  8
C7
  10
665.599900
  20
621.109100
  0
VERTEX
  8
C7
  10
664.963100
  20
621.812600
  0
VERTEX
  8
C7
  10
664.320900
  20
622.512100
  0
VERTEX
  8
C7
  10
663.673600
  20
623.207600
  0
VERTEX
  8
C7
  10
663.021000
  20
623.899100
  0
VERTEX
  8
C7
  10
662.363200
  20
624.586400
  0
VERTEX
  8
C7
  10
661.700200
  20
625.269600
  0
VERTEX
  8
C7
  10
661.031900
  20
625.948700
  0
VERTEX
  8
C7
  10
660.358500
  20
626.623600
  0
VERTEX
  8
C7
  10
659.679900
  20
627.294200
  0
VERTEX
  8
C7
  10
658.996100
  20
627.960600
  0
VERTEX
  8
C7
  10
658.286100
  20
628.642900
  0
VERTEX
  8
C7
  10
657.570600
  20
629.321200
  0
VERTEX
  8
C7
  10
656.849600
  20
629.995500
  0
VERTEX
  8
C7
  10
656.123200
  20
630.665700
  0
VERTEX
  8
C7
  10
655.391500
  20
631.331700
  0
VERTEX
  8
C7
  10
654.654400
  20
631.993500
  0
VERTEX
  8
C7
  10
653.912100
  20
632.651000
  0
VERTEX
  8
C7
  10
653.164600
  20
633.304200
  0
VERTEX
  8
C7
  10
652.412000
  20
633.952900
  0
VERTEX
  8
C7
  10
651.654400
  20
634.597200
  0
VERTEX
  8
C7
  10
650.891800
  20
635.236900
  0
VERTEX
  8
C7
  10
650.124300
  20
635.872000
  0
VERTEX
  8
C7
  10
649.351900
  20
636.502400
  0
VERTEX
  8
C7
  10
648.574700
  20
637.128100
  0
VERTEX
  8
C7
  10
647.792800
  20
637.749100
  0
VERTEX
  8
C7
  10
647.006200
  20
638.365100
  0
VERTEX
  8
C7
  10
646.215000
  20
638.976300
  0
VERTEX
  8
C7
  10
645.419300
  20
639.582500
  0
VERTEX
  8
C7
  10
644.619100
  20
640.183600
  0
VERTEX
  8
C7
  10
643.814500
  20
640.779600
  0
VERTEX
  8
C7
  10
643.005500
  20
641.370500
  0
VERTEX
  8
C7
  10
642.192300
  20
641.956100
  0
VERTEX
  8
C7
  10
641.374800
  20
642.536400
  0
VERTEX
  8
C7
  10
640.553100
  20
643.111400
  0
VERTEX
  8
C7
  10
639.727400
  20
643.681000
  0
VERTEX
  8
C7
  10
638.897600
  20
644.245000
  0
VERTEX
  8
C7
  10
638.063900
  20
644.803600
  0
VERTEX
  8
C7
  10
637.226200
  20
645.356500
  0
VERTEX
  8
C7
  10
636.384700
  20
645.903700
  0
VERTEX
  8
C7
  10
635.539500
  20
646.445300
  0
VERTEX
  8
C7
  10
634.690400
  20
646.981000
  0
VERTEX
  8
C7
  10
633.837800
  20
647.510900
  0
VERTEX
  8
C7
  10
632.981500
  20
648.034800
  0
VERTEX
  8
C7
  10
632.121800
  20
648.552800
  0
VERTEX
  8
C7
  10
631.258500
  20
649.064800
  0
VERTEX
  8
C7
  10
630.391800
  20
649.570600
  0
VERTEX
  8
C7
  10
629.521900
  20
650.070200
  0
VERTEX
  8
C7
  10
628.648600
  20
650.563700
  0
VERTEX
  8
C7
  10
627.772100
  20
651.050800
  0
VERTEX
  8
C7
  10
626.892500
  20
651.531600
  0
VERTEX
  8
C7
  10
626.009700
  20
652.005900
  0
VERTEX
  8
C7
  10
625.124000
  20
652.473800
  0
VERTEX
  8
C7
  10
624.235300
  20
652.935100
  0
VERTEX
  8
C7
  10
623.343700
  20
653.389800
  0
VERTEX
  8
C7
  10
622.449200
  20
653.837800
  0
VERTEX
  8
C7
  10
621.552000
  20
654.279200
  0
VERTEX
  8
C7
  10
620.652100
  20
654.713700
  0
VERTEX
  8
C7
  10
619.749500
  20
655.141300
  0
VERTEX
  8
C7
  10
618.844300
  20
655.562100
  0
VERTEX
  8
C7
  10
617.936600
  20
655.975800
  0
VERTEX
  8
C7
  10
617.026500
  20
656.382500
  0
VERTEX
  8
C7
  10
616.114000
  20
656.782100
  0
VERTEX
  8
C7
  10
615.199100
  20
657.174500
  0
VERTEX
  8
C7
  10
614.282000
  20
657.559700
  0
VERTEX
  8
C7
  10
613.362700
  20
657.937600
  0
VERTEX
  8
C7
  10
612.441200
  20
658.308100
  0
VERTEX
  8
C7
  10
611.517700
  20
658.671300
  0
VERTEX
  8
C7
  10
610.592100
  20
659.026900
  0
VERTEX
  8
C7
  10
609.664600
  20
659.375000
  0
VERTEX
  8
C7
  10
608.735200
  20
659.715400
  0
VERTEX
  8
C7
  10
607.804000
  20
660.048200
  0
VERTEX
  8
C7
  10
606.871000
  20
660.373300
  0
VERTEX
  8
C7
  10
605.936300
  20
660.690500
  0
VERTEX
  8
C7
  10
605.000000
  20
661.000000
  0
VERTEX
  8
C7
  10
605.361300
  20
661.748700
  0
VERTEX
  8
C7
  10
605.749600
  20
662.507400
  0
VERTEX
  8
C7
  10
606.162900
  20
663.275600
  0
VERTEX
  8
C7
  10
606.599100
  20
664.052900
  0
VERTEX
  8
C7
  10
607.056300
  20
664.839100
  0
VERTEX
  8
C7
  10
607.532400
  20
665.633700
  0
VERTEX
  8
C7
  10
608.025500
  20
666.436400
  0
VERTEX
  8
C7
  10
608.533600
  20
667.246800
  0
VERTEX
  8
C7
  10
609.054700
  20
668.064600
  0
VERTEX
  8
C7
  10
609.586800
  20
668.889400
  0
VERTEX
  8
C7
  10
610.127900
  20
669.721000
  0
VERTEX
  8
C7
  10
610.676100
  20
670.558800
  0
VERTEX
  8
C7
  10
611.229200
  20
671.402600
  0
VERTEX
  8
C7
  10
611.785400
  20
672.252000
  0
VERTEX
  8
C7
  10
612.342600
  20
673.106600
  0
VERTEX
  8
C7
  10
612.898900
  20
673.966100
  0
VERTEX
  8
C7
  10
613.452200
  20
674.830100
  0
VERTEX
  8
C7
  10
614.000600
  20
675.698400
  0
VERTEX
  8
C7
  10
614.542000
  20
676.570400
  0
VERTEX
  8
C7
  10
615.074500
  20
677.445900
  0
VERTEX
  8
C7
  10
615.596100
  20
678.324500
  0
VERTEX
  8
C7
  10
616.104800
  20
679.205900
  0
VERTEX
  8
C7
  10
616.598600
  20
680.089600
  0
VERTEX
  8
C7
  10
617.075500
  20
680.975400
  0
VERTEX
  8
C7
  10
617.533600
  20
681.862900
  0
VERTEX
  8
C7
  10
617.970700
  20
682.751600
  0
VERTEX
  8
C7
  10
618.385000
  20
683.641400
  0
VERTEX
  8
C7
  10
618.774400
  20
684.531800
  0
VERTEX
  8
C7
  10
619.136900
  20
685.422400
  0
VERTEX
  8
C7
  10
619.470600
  20
686.312900
  0
VERTEX
  8
C7
  10
619.773500
  20
687.203000
  0
VERTEX
  8
C7
  10
620.043500
  20
688.092200
  0
VERTEX
  8
C7
  10
620.278700
  20
688.980300
  0
VERTEX
  8
C7
  10
620.477100
  20
689.866800
  0
VERTEX
  8
C7
  10
620.636600
  20
690.751500
  0
VERTEX
  8
C7
  10
620.755400
  20
691.633900
  0
VERTEX
  8
C7
  10
620.831400
  20
692.513700
  0
VERTEX
  8
C7
  10
620.862600
  20
693.390600
  0
VERTEX
  8
C7
  10
620.847000
  20
694.264200
  0
VERTEX
  8
C7
  10
620.782600
  20
695.134100
  0
VERTEX
  8
C7
  10
620.667500
  20
696.000000
  0
SEQEND
  8
C7
  0
POLYLINE
  8
C7
  66
1
  10
620.667400
  20
696.000000
  0
VERTEX
  8
C7
  10
620.667400
  20
696.000000
  0
VERTEX
  8
C7
  10
620.465000
  20
697.042700
  0
VERTEX
  8
C7
  10
620.208900
  20
698.034500
  0
VERTEX
  8
C7
  10
619.901100
  20
698.977700
  0
VERTEX
  8
C7
  10
619.543900
  20
699.874900
  0
VERTEX
  8
C7
  10
619.139400
  20
700.728800
  0
VERTEX
  8
C7
  10
618.689800
  20
701.541800
  0
VERTEX
  8
C7
  10
618.197300
  20
702.316600
  0
VERTEX
  8
C7
  10
617.663900
  20
703.055600
  0
VERTEX
  8
C7
  10
617.091900
  20
703.761400
  0
VERTEX
  8
C7
  10
616.483300
  20
704.436700
  0
VERTEX
  8
C7
  10
615.840500
  20
705.083900
  0
VERTEX
  8
C7
  10
615.165500
  20
705.705600
  0
VERTEX
  8
C7
  10
614.460500
  20
706.304400
  0
VERTEX
  8
C7
  10
613.727700
  20
706.882700
  0
VERTEX
  8
C7
  10
612.969200
  20
707.443300
  0
VERTEX
  8
C7
  10
612.187200
  20
707.988600
  0
VERTEX
  8
C7
  10
611.383800
  20
708.521200
  0
VERTEX
  8
C7
  10
610.561200
  20
709.043600
  0
VERTEX
  8
C7
  10
609.721600
  20
709.558400
  0
VERTEX
  8
C7
  10
608.867100
  20
710.068200
  0
VERTEX
  8
C7
  10
608.000000
  20
710.575600
  0
VERTEX
  8
C7
  10
607.126000
  20
711.082600
  0
VERTEX
  8
C7
  10
606.251700
  20
711.589000
  0
VERTEX
  8
C7
  10
605.376900
  20
712.094700
  0
VERTEX
  8
C7
  10
604.501800
  20
712.599900
  0
VERTEX
  8
C7
  10
603.626300
  20
713.104500
  0
VERTEX
  8
C7
  10
602.750400
  20
713.608500
  0
VERTEX
  8
C7
  10
601.874300
  20
714.112200
  0
VERTEX
  8
C7
  10
600.998000
  20
714.615400
  0
VERTEX
  8
C7
  10
600.121400
  20
715.118300
  0
VERTEX
  8
C7
  10
599.244600
  20
715.620900
  0
VERTEX
  8
C7
  10
598.367600
  20
716.123200
  0
VERTEX
  8
C7
  10
597.490500
  20
716.625300
  0
VERTEX
  8
C7
  10
596.613300
  20
717.127300
  0
VERTEX
  8
C7
  10
595.736000
  20
717.629200
  0
VERTEX
  8
C7
  10
594.858700
  20
718.131000
  0
VERTEX
  8
C7
  10
593.981400
  20
718.632700
  0
VERTEX
  8
C7
  10
593.104000
  20
719.134600
  0
VERTEX
  8
C7
  10
592.226800
  20
719.636500
  0
VERTEX
  8
C7
  10
591.349600
  20
720.138500
  0
VERTEX
  8
C7
  10
590.472500
  20
720.640800
  0
VERTEX
  8
C7
  10
589.595500
  20
721.143200
  0
VERTEX
  8
C7
  10
588.718700
  20
721.646000
  0
VERTEX
  8
C7
  10
587.842100
  20
722.149100
  0
VERTEX
  8
C7
  10
586.965800
  20
722.652500
  0
VERTEX
  8
C7
  10
586.089700
  20
723.156400
  0
VERTEX
  8
C7
  10
585.213800
  20
723.660800
  0
VERTEX
  8
C7
  10
584.338300
  20
724.165700
  0
VERTEX
  8
C7
  10
583.463200
  20
724.671100
  0
VERTEX
  8
C7
  10
582.588400
  20
725.177200
  0
VERTEX
  8
C7
  10
581.714100
  20
725.684000
  0
VERTEX
  8
C7
  10
580.840200
  20
726.191500
  0
VERTEX
  8
C7
  10
579.966700
  20
726.699700
  0
VERTEX
  8
C7
  10
579.093800
  20
727.208800
  0
VERTEX
  8
C7
  10
578.221400
  20
727.718700
  0
VERTEX
  8
C7
  10
577.349600
  20
728.229600
  0
VERTEX
  8
C7
  10
576.478300
  20
728.741400
  0
VERTEX
  8
C7
  10
575.607700
  20
729.254300
  0
VERTEX
  8
C7
  10
574.737800
  20
729.768200
  0
VERTEX
  8
C7
  10
573.868500
  20
730.283200
  0
VERTEX
  8
C7
  10
573.000000
  20
730.799400
  0
SEQEND
  8
C7
  0
POLYLINE
  8
C7
  66
1
  10
573.000000
  20
730.799300
  0
VERTEX
  8
C7
  10
573.000000
  20
730.799300
  0
VERTEX
  8
C7
  10
572.161700
  20
731.296400
  0
VERTEX
  8
C7
  10
571.315300
  20
731.792600
  0
VERTEX
  8
C7
  10
570.461100
  20
732.284700
  0
VERTEX
  8
C7
  10
569.599200
  20
732.769700
  0
VERTEX
  8
C7
  10
568.729800
  20
733.244500
  0
VERTEX
  8
C7
  10
567.852900
  20
733.705800
  0
VERTEX
  8
C7
  10
566.968900
  20
734.150500
  0
VERTEX
  8
C7
  10
566.077800
  20
734.575700
  0
VERTEX
  8
C7
  10
565.179900
  20
734.978000
  0
VERTEX
  8
C7
  10
564.275200
  20
735.354500
  0
VERTEX
  8
C7
  10
563.364000
  20
735.701900
  0
VERTEX
  8
C7
  10
562.446500
  20
736.017200
  0
VERTEX
  8
C7
  10
561.522700
  20
736.297300
  0
VERTEX
  8
C7
  10
560.592900
  20
736.539000
  0
VERTEX
  8
C7
  10
559.657200
  20
736.739100
  0
VERTEX
  8
C7
  10
558.715800
  20
736.894700
  0
VERTEX
  8
C7
  10
557.768900
  20
737.002500
  0
VERTEX
  8
C7
  10
556.816700
  20
737.059400
  0
VERTEX
  8
C7
  10
555.859200
  20
737.062400
  0
VERTEX
  8
C7
  10
554.896700
  20
737.008200
  0
VERTEX
  8
C7
  10
553.929300
  20
736.893800
  0
VERTEX
  8
C7
  10
552.957300
  20
736.716100
  0
VERTEX
  8
C7
  10
551.980700
  20
736.471900
  0
VERTEX
  8
C7
  10
550.999700
  20
736.158100
  0
VERTEX
  8
C7
  10
550.014600
  20
735.771600
  0
VERTEX
  8
C7
  10
549.255500
  20
735.417000
  0
VERTEX
  8
C7
  10
548.510600
  20
735.012800
  0
VERTEX
  8
C7
  10
547.779600
  20
734.561000
  0
VERTEX
  8
C7
  10
547.062200
  20
734.063900
  0
VERTEX
  8
C7
  10
546.358100
  20
733.523500
  0
VERTEX
  8
C7
  10
545.667200
  20
732.942000
  0
VERTEX
  8
C7
  10
544.989200
  20
732.321600
  0
VERTEX
  8
C7
  10
544.323700
  20
731.664400
  0
VERTEX
  8
C7
  10
543.670600
  20
730.972400
  0
VERTEX
  8
C7
  10
543.029600
  20
730.248000
  0
VERTEX
  8
C7
  10
542.400400
  20
729.493100
  0
VERTEX
  8
C7
  10
541.782800
  20
728.710000
  0
VERTEX
  8
C7
  10
541.176500
  20
727.900800
  0
VERTEX
  8
C7
  10
540.581300
  20
727.067500
  0
VERTEX
  8
C7
  10
539.996900
  20
726.212500
  0
VERTEX
  8
C7
  10
539.423000
  20
725.337800
  0
VERTEX
  8
C7
  10
538.859400
  20
724.445500
  0
VERTEX
  8
C7
  10
538.305900
  20
723.537700
  0
VERTEX
  8
C7
  10
537.762200
  20
722.616700
  0
VERTEX
  8
C7
  10
537.227900
  20
721.684600
  0
VERTEX
  8
C7
  10
536.703000
  20
720.743500
  0
VERTEX
  8
C7
  10
536.187100
  20
719.795500
  0
VERTEX
  8
C7
  10
535.679900
  20
718.842800
  0
VERTEX
  8
C7
  10
535.181200
  20
717.887600
  0
VERTEX
  8
C7
  10
534.690800
  20
716.931900
  0
VERTEX
  8
C7
  10
534.208300
  20
715.977900
  0
VERTEX
  8
C7
  10
533.733600
  20
715.027800
  0
VERTEX
  8
C7
  10
533.266400
  20
714.083600
  0
VERTEX
  8
C7
  10
532.806400
  20
713.147600
  0
VERTEX
  8
C7
  10
532.353400
  20
712.221800
  0
VERTEX
  8
C7
  10
531.907000
  20
711.308500
  0
VERTEX
  8
C7
  10
531.467100
  20
710.409700
  0
VERTEX
  8
C7
  10
531.033400
  20
709.527600
  0
VERTEX
  8
C7
  10
530.605700
  20
708.664300
  0
VERTEX
  8
C7
  10
530.183600
  20
707.822000
  0
VERTEX
  8
C7
  10
529.767000
  20
707.002800
  0
VERTEX
  8
C7
  10
529.355500
  20
706.208900
  0
VERTEX
  8
C7
  10
528.949000
  20
705.442300
  0
VERTEX
  8
C7
  10
528.547100
  20
704.705300
  0
VERTEX
  8
C7
  10
528.149600
  20
704.000000
  0
VERTEX
  8
C7
  10
527.648000
  20
703.126000
  0
VERTEX
  8
C7
  10
527.146600
  20
702.251900
  0
VERTEX
  8
C7
  10
526.645400
  20
701.377700
  0
VERTEX
  8
C7
  10
526.144200
  20
700.503400
  0
VERTEX
  8
C7
  10
525.643200
  20
699.629000
  0
VERTEX
  8
C7
  10
525.142300
  20
698.754500
  0
VERTEX
  8
C7
  10
524.641400
  20
697.879800
  0
VERTEX
  8
C7
  10
524.140700
  20
697.005100
  0
VERTEX
  8
C7
  10
523.640000
  20
696.130400
  0
VERTEX
  8
C7
  10
523.139300
  20
695.255500
  0
VERTEX
  8
C7
  10
522.638800
  20
694.380600
  0
VERTEX
  8
C7
  10
522.138200
  20
693.505600
  0
VERTEX
  8
C7
  10
521.637600
  20
692.630600
  0
VERTEX
  8
C7
  10
521.137100
  20
691.755500
  0
VERTEX
  8
C7
  10
520.636600
  20
690.880400
  0
VERTEX
  8
C7
  10
520.136000
  20
690.005300
  0
VERTEX
  8
C7
  10
519.635500
  20
689.130200
  0
VERTEX
  8
C7
  10
519.134900
  20
688.255100
  0
VERTEX
  8
C7
  10
518.634200
  20
687.380000
  0
VERTEX
  8
C7
  10
518.133500
  20
686.504900
  0
VERTEX
  8
C7
  10
517.632800
  20
685.629800
  0
VERTEX
  8
C7
  10
517.131900
  20
684.754700
  0
VERTEX
  8
C7
  10
516.631000
  20
683.879700
  0
VERTEX
  8
C7
  10
516.130000
  20
683.004700
  0
VERTEX
  8
C7
  10
515.628900
  20
682.129700
  0
VERTEX
  8
C7
  10
515.127600
  20
681.254900
  0
VERTEX
  8
C7
  10
514.626200
  20
680.380000
  0
VERTEX
  8
C7
  10
514.124700
  20
679.505300
  0
VERTEX
  8
C7
  10
513.623000
  20
678.630700
  0
VERTEX
  8
C7
  10
513.121200
  20
677.756100
  0
VERTEX
  8
C7
  10
512.619200
  20
676.881600
  0
VERTEX
  8
C7
  10
512.116900
  20
676.007300
  0
VERTEX
  8
C7
  10
511.614500
  20
675.133100
  0
VERTEX
  8
C7
  10
511.111900
  20
674.258900
  0
VERTEX
  8
C7
  10
510.609100
  20
673.385000
  0
VERTEX
  8
C7
  10
510.106000
  20
672.511100
  0
VERTEX
  8
C7
  10
509.602700
  20
671.637400
  0
VERTEX
  8
C7
  10
509.099200
  20
670.763900
  0
VERTEX
  8
C7
  10
508.595400
  20
669.890500
  0
VERTEX
  8
C7
  10
508.091300
  20
669.017300
  0
VERTEX
  8
C7
  10
507.586900
  20
668.144300
  0
VERTEX
  8
C7
  10
507.082300
  20
667.271500
  0
VERTEX
  8
C7
  10
506.577300
  20
666.398800
  0
VERTEX
  8
C7
  10
506.072000
  20
665.526400
  0
VERTEX
  8
C7
  10
505.566400
  20
664.654200
  0
VERTEX
  8
C7
  10
505.060400
  20
663.782200
  0
VERTEX
  8
C7
  10
504.554100
  20
662.910400
  0
VERTEX
  8
C7
  10
504.047400
  20
662.038900
  0
VERTEX
  8
C7
  10
503.540400
  20
661.167600
  0
VERTEX
  8
C7
  10
503.033000
  20
660.296600
  0
VERTEX
  8
C7
  10
502.525100
  20
659.425800
  0
VERTEX
  8
C7
  10
502.016900
  20
658.555300
  0
VERTEX
  8
C7
  10
501.508300
  20
657.685100
  0
VERTEX
  8
C7
  10
500.999200
  20
656.815200
  0
VERTEX
  8
C7
  10
500.489700
  20
655.945500
  0
VERTEX
  8
C7
  10
499.979700
  20
655.076200
  0
VERTEX
  8
C7
  10
499.469300
  20
654.207200
  0
VERTEX
  8
C7
  10
498.958400
  20
653.338500
  0
VERTEX
  8
C7
  10
498.447100
  20
652.470100
  0
VERTEX
  8
C7
  10
497.935200
  20
651.602000
  0
VERTEX
  8
C7
  10
497.422800
  20
650.734300
  0
VERTEX
  8
C7
  10
496.910000
  20
649.867000
  0
VERTEX
  8
C7
  10
496.396600
  20
649.000000
  0
VERTEX
  8
C7
  10
495.940800
  20
648.242600
  0
VERTEX
  8
C7
  10
495.464800
  20
647.472200
  0
VERTEX
  8
C7
  10
494.970900
  20
646.689300
  0
VERTEX
  8
C7
  10
494.461400
  20
645.894600
  0
VERTEX
  8
C7
  10
493.938700
  20
645.088600
  0
VERTEX
  8
C7
  10
493.404900
  20
644.271900
  0
VERTEX
  8
C7
  10
492.862500
  20
643.445000
  0
VERTEX
  8
C7
  10
492.313800
  20
642.608400
  0
VERTEX
  8
C7
  10
491.761000
  20
641.762800
  0
VERTEX
  8
C7
  10
491.206500
  20
640.908600
  0
VERTEX
  8
C7
  10
490.652700
  20
640.046600
  0
VERTEX
  8
C7
  10
490.101700
  20
639.177100
  0
VERTEX
  8
C7
  10
489.555900
  20
638.300800
  0
VERTEX
  8
C7
  10
489.017700
  20
637.418200
  0
VERTEX
  8
C7
  10
488.489400
  20
636.530000
  0
VERTEX
  8
C7
  10
487.973200
  20
635.636600
  0
VERTEX
  8
C7
  10
487.471500
  20
634.738600
  0
VERTEX
  8
C7
  10
486.986600
  20
633.836600
  0
VERTEX
  8
C7
  10
486.520800
  20
632.931200
  0
VERTEX
  8
C7
  10
486.076400
  20
632.022800
  0
VERTEX
  8
C7
  10
485.655800
  20
631.112100
  0
VERTEX
  8
C7
  10
485.261200
  20
630.199600
  0
VERTEX
  8
C7
  10
484.894900
  20
629.286000
  0
VERTEX
  8
C7
  10
484.559400
  20
628.371600
  0
VERTEX
  8
C7
  10
484.256800
  20
627.457200
  0
VERTEX
  8
C7
  10
483.989600
  20
626.543200
  0
VERTEX
  8
C7
  10
483.759900
  20
625.630300
  0
VERTEX
  8
C7
  10
483.570200
  20
624.718900
  0
VERTEX
  8
C7
  10
483.422800
  20
623.809700
  0
VERTEX
  8
C7
  10
483.319900
  20
622.903200
  0
VERTEX
  8
C7
  10
483.263900
  20
622.000000
  0
SEQEND
  8
C7
  0
POLYLINE
  8
C7
  66
1
  10
483.263800
  20
622.000000
  0
VERTEX
  8
C7
  10
483.263800
  20
622.000000
  0
VERTEX
  8
C7
  10
483.259800
  20
620.977500
  0
VERTEX
  8
C7
  10
483.319500
  20
619.986600
  0
VERTEX
  8
C7
  10
483.440400
  20
619.026600
  0
VERTEX
  8
C7
  10
483.620200
  20
618.096800
  0
VERTEX
  8
C7
  10
483.856200
  20
617.196900
  0
VERTEX
  8
C7
  10
484.146000
  20
616.326000
  0
VERTEX
  8
C7
  10
484.487300
  20
615.483700
  0
VERTEX
  8
C7
  10
484.877400
  20
614.669400
  0
VERTEX
  8
C7
  10
485.314000
  20
613.882600
  0
VERTEX
  8
C7
  10
485.794500
  20
613.122500
  0
VERTEX
  8
C7
  10
486.316600
  20
612.388600
  0
VERTEX
  8
C7
  10
486.877700
  20
611.680400
  0
VERTEX
  8
C7
  10
487.475300
  20
610.997300
  0
VERTEX
  8
C7
  10
488.107100
  20
610.338600
  0
VERTEX
  8
C7
  10
488.770500
  20
609.703900
  0
VERTEX
  8
C7
  10
489.463100
  20
609.092400
  0
VERTEX
  8
C7
  10
490.182400
  20
608.503700
  0
VERTEX
  8
C7
  10
490.926000
  20
607.937200
  0
VERTEX
  8
C7
  10
491.691300
  20
607.392200
  0
VERTEX
  8
C7
  10
492.475900
  20
606.868200
  0
VERTEX
  8
C7
  10
493.277400
  20
606.364600
  0
VERTEX
  8
C7
  10
494.093300
  20
605.880800
  0
VERTEX
  8
C7
  10
494.921100
  20
605.416200
  0
VERTEX
  8
C7
  10
495.758300
  20
604.970300
  0
VERTEX
  8
C7
  10
496.602500
  20
604.542400
  0
VERTEX
  8
C7
  10
497.451300
  20
604.132000
  0
VERTEX
  8
C7
  10
498.302100
  20
603.738500
  0
VERTEX
  8
C7
  10
499.152500
  20
603.361400
  0
VERTEX
  8
C7
  10
500.000000
  20
603.000000
  0
SEQEND
  8
0
  0
ENDSEC
  0
EOF
