<?xml version="1.0" encoding="UTF-8" standalone="no"?>
<!-- Created with Inkscape (http://www.inkscape.org/) -->

<svg
   xmlns:dc="http://purl.org/dc/elements/1.1/"
   xmlns:cc="http://creativecommons.org/ns#"
   xmlns:rdf="http://www.w3.org/1999/02/22-rdf-syntax-ns#"
   xmlns:svg="http://www.w3.org/2000/svg"
   xmlns="http://www.w3.org/2000/svg"
   xmlns:sodipodi="http://sodipodi.sourceforge.net/DTD/sodipodi-0.dtd"
   xmlns:inkscape="http://www.inkscape.org/namespaces/inkscape"
   id="svg3055"
   version="1.1"
   inkscape:version="0.48.2 r9819"
   width="1280"
   height="960"
   xml:space="preserve"
   sodipodi:docname="logo.svg"><metadata
     id="metadata3061"><rdf:RDF><cc:Work
         rdf:about=""><dc:format>image/svg+xml</dc:format><dc:type
           rdf:resource="http://purl.org/dc/dcmitype/StillImage" /></cc:Work></rdf:RDF></metadata><defs
     id="defs3059"><clipPath
       clipPathUnits="userSpaceOnUse"
       id="clipPath3071"><path
         d="M 0,768 1024,768 1024,0 0,0 0,768 z"
         id="path3073" /></clipPath><clipPath
       clipPathUnits="userSpaceOnUse"
       id="clipPath3113"><path
         d="M 0,768 1024,768 1024,0 0,0 0,768 z"
         id="path3115" /></clipPath><clipPath
       clipPathUnits="userSpaceOnUse"
       id="clipPath3129"><path
         d="m 0,0 1024,0 0,768 L 0,768 0,0 z"
         id="path3131" /></clipPath></defs><sodipodi:namedview
     pagecolor="#ffffff"
     bordercolor="#666666"
     borderopacity="1"
     objecttolerance="10"
     gridtolerance="10"
     guidetolerance="10"
     inkscape:pageopacity="0"
     inkscape:pageshadow="2"
     inkscape:window-width="1213"
     inkscape:window-height="689"
     id="namedview3057"
     showgrid="false"
     inkscape:zoom="0.49166667"
     inkscape:cx="554.487"
     inkscape:cy="564.58977"
     inkscape:window-x="0"
     inkscape:window-y="0"
     inkscape:window-maximized="0"
     inkscape:current-layer="g3063" /><g
     id="g3063"
     inkscape:groupmode="layer"
     inkscape:label="PI0001_Deliverables_8.23.14_rev"
     transform="matrix(1.25,0,0,-1.25,0,960)"><path
       inkscape:connector-curvature="0"
       id="path3135"
       style="fill:#000000;fill-opacity:1;fill-rule:nonzero;stroke:none"
       d="m 481.9781,527.3381 11.441,19.825 c 3.455,5.984 1.384,13.709 -4.605,17.164 l -38.698,22.349 c -5.989,3.455 -13.719,1.384 -17.174,-4.605 l -46.301,-80.202 c -3.455,-5.989 -1.384,-13.713 4.6,-17.163 l 7.506,-4.339 -13.841,-23.967 24.191,-13.964 13.841,23.967 7.006,-4.046 c 5.989,-3.455 13.709,-1.384 17.169,4.6 l 14.768,25.58 c 34.141,-8.177 59.599,-38.943 59.599,-75.548 0,-42.845 -34.854,-77.705 -77.7,-77.705 -17.115,0 -32.927,5.59 -45.778,15.002 l 0,4.233 c 0,23.828 4.557,27.677 33.986,29.434 l 0,17.861 -112.106,0 0,-17.861 c 29.424,-1.757 34.327,-5.606 34.327,-29.434 l 0,-132.874 c 0,-23.819 -4.903,-27.678 -34.327,-29.43 l 0,-17.866 112.106,0 0,17.866 c -29.429,1.752 -33.986,5.611 -33.986,29.43 l 0,83.917 c 14.071,-6.027 29.536,-9.38 45.778,-9.38 64.406,0 116.808,52.401 116.808,116.807 0,51.027 -32.911,94.49 -78.61,110.349" /></g></svg>