G75*
%MOIN*%
%OFA0B0*%
%FSLAX24Y24*%
%IPPOS*%
%LPD*%
%AMOC8*
5,1,8,0,0,1.08239X$1,22.5*
%
%ADD10C,0.0000*%
%ADD11R,0.1450X0.0394*%
%ADD12C,0.0394*%
%ADD13C,0.0500*%
%ADD14C,0.0281*%
%ADD15C,0.0354*%
%ADD16R,0.0472X0.0591*%
%ADD17R,0.0591X0.0591*%
%ADD18C,0.0120*%
%ADD19C,0.0330*%
%ADD20C,0.0240*%
%ADD21C,0.0100*%
%ADD22C,0.0400*%
D10*
X017760Y016393D02*
X052760Y016393D01*
X052260Y017893D02*
X052262Y017937D01*
X052268Y017981D01*
X052278Y018024D01*
X052291Y018066D01*
X052308Y018107D01*
X052329Y018146D01*
X052353Y018183D01*
X052380Y018218D01*
X052410Y018250D01*
X052443Y018280D01*
X052479Y018306D01*
X052516Y018330D01*
X052556Y018349D01*
X052597Y018366D01*
X052640Y018378D01*
X052683Y018387D01*
X052727Y018392D01*
X052771Y018393D01*
X052815Y018390D01*
X052859Y018383D01*
X052902Y018372D01*
X052944Y018358D01*
X052984Y018340D01*
X053023Y018318D01*
X053059Y018294D01*
X053093Y018266D01*
X053125Y018235D01*
X053154Y018201D01*
X053180Y018165D01*
X053202Y018127D01*
X053221Y018087D01*
X053236Y018045D01*
X053248Y018003D01*
X053256Y017959D01*
X053260Y017915D01*
X053260Y017871D01*
X053256Y017827D01*
X053248Y017783D01*
X053236Y017741D01*
X053221Y017699D01*
X053202Y017659D01*
X053180Y017621D01*
X053154Y017585D01*
X053125Y017551D01*
X053093Y017520D01*
X053059Y017492D01*
X053023Y017468D01*
X052984Y017446D01*
X052944Y017428D01*
X052902Y017414D01*
X052859Y017403D01*
X052815Y017396D01*
X052771Y017393D01*
X052727Y017394D01*
X052683Y017399D01*
X052640Y017408D01*
X052597Y017420D01*
X052556Y017437D01*
X052516Y017456D01*
X052479Y017480D01*
X052443Y017506D01*
X052410Y017536D01*
X052380Y017568D01*
X052353Y017603D01*
X052329Y017640D01*
X052308Y017679D01*
X052291Y017720D01*
X052278Y017762D01*
X052268Y017805D01*
X052262Y017849D01*
X052260Y017893D01*
X052760Y016393D02*
X052836Y016395D01*
X052912Y016401D01*
X052987Y016410D01*
X053062Y016424D01*
X053136Y016441D01*
X053209Y016462D01*
X053281Y016486D01*
X053352Y016515D01*
X053421Y016546D01*
X053488Y016581D01*
X053553Y016620D01*
X053617Y016662D01*
X053678Y016707D01*
X053737Y016755D01*
X053793Y016806D01*
X053847Y016860D01*
X053898Y016916D01*
X053946Y016975D01*
X053991Y017036D01*
X054033Y017100D01*
X054072Y017165D01*
X054107Y017232D01*
X054138Y017301D01*
X054167Y017372D01*
X054191Y017444D01*
X054212Y017517D01*
X054229Y017591D01*
X054243Y017666D01*
X054252Y017741D01*
X054258Y017817D01*
X054260Y017893D01*
X054260Y034893D01*
X052260Y034893D02*
X052262Y034937D01*
X052268Y034981D01*
X052278Y035024D01*
X052291Y035066D01*
X052308Y035107D01*
X052329Y035146D01*
X052353Y035183D01*
X052380Y035218D01*
X052410Y035250D01*
X052443Y035280D01*
X052479Y035306D01*
X052516Y035330D01*
X052556Y035349D01*
X052597Y035366D01*
X052640Y035378D01*
X052683Y035387D01*
X052727Y035392D01*
X052771Y035393D01*
X052815Y035390D01*
X052859Y035383D01*
X052902Y035372D01*
X052944Y035358D01*
X052984Y035340D01*
X053023Y035318D01*
X053059Y035294D01*
X053093Y035266D01*
X053125Y035235D01*
X053154Y035201D01*
X053180Y035165D01*
X053202Y035127D01*
X053221Y035087D01*
X053236Y035045D01*
X053248Y035003D01*
X053256Y034959D01*
X053260Y034915D01*
X053260Y034871D01*
X053256Y034827D01*
X053248Y034783D01*
X053236Y034741D01*
X053221Y034699D01*
X053202Y034659D01*
X053180Y034621D01*
X053154Y034585D01*
X053125Y034551D01*
X053093Y034520D01*
X053059Y034492D01*
X053023Y034468D01*
X052984Y034446D01*
X052944Y034428D01*
X052902Y034414D01*
X052859Y034403D01*
X052815Y034396D01*
X052771Y034393D01*
X052727Y034394D01*
X052683Y034399D01*
X052640Y034408D01*
X052597Y034420D01*
X052556Y034437D01*
X052516Y034456D01*
X052479Y034480D01*
X052443Y034506D01*
X052410Y034536D01*
X052380Y034568D01*
X052353Y034603D01*
X052329Y034640D01*
X052308Y034679D01*
X052291Y034720D01*
X052278Y034762D01*
X052268Y034805D01*
X052262Y034849D01*
X052260Y034893D01*
X052760Y036393D02*
X052836Y036391D01*
X052912Y036385D01*
X052987Y036376D01*
X053062Y036362D01*
X053136Y036345D01*
X053209Y036324D01*
X053281Y036300D01*
X053352Y036271D01*
X053421Y036240D01*
X053488Y036205D01*
X053553Y036166D01*
X053617Y036124D01*
X053678Y036079D01*
X053737Y036031D01*
X053793Y035980D01*
X053847Y035926D01*
X053898Y035870D01*
X053946Y035811D01*
X053991Y035750D01*
X054033Y035686D01*
X054072Y035621D01*
X054107Y035554D01*
X054138Y035485D01*
X054167Y035414D01*
X054191Y035342D01*
X054212Y035269D01*
X054229Y035195D01*
X054243Y035120D01*
X054252Y035045D01*
X054258Y034969D01*
X054260Y034893D01*
X052760Y036393D02*
X017760Y036393D01*
X017260Y034893D02*
X017262Y034937D01*
X017268Y034981D01*
X017278Y035024D01*
X017291Y035066D01*
X017308Y035107D01*
X017329Y035146D01*
X017353Y035183D01*
X017380Y035218D01*
X017410Y035250D01*
X017443Y035280D01*
X017479Y035306D01*
X017516Y035330D01*
X017556Y035349D01*
X017597Y035366D01*
X017640Y035378D01*
X017683Y035387D01*
X017727Y035392D01*
X017771Y035393D01*
X017815Y035390D01*
X017859Y035383D01*
X017902Y035372D01*
X017944Y035358D01*
X017984Y035340D01*
X018023Y035318D01*
X018059Y035294D01*
X018093Y035266D01*
X018125Y035235D01*
X018154Y035201D01*
X018180Y035165D01*
X018202Y035127D01*
X018221Y035087D01*
X018236Y035045D01*
X018248Y035003D01*
X018256Y034959D01*
X018260Y034915D01*
X018260Y034871D01*
X018256Y034827D01*
X018248Y034783D01*
X018236Y034741D01*
X018221Y034699D01*
X018202Y034659D01*
X018180Y034621D01*
X018154Y034585D01*
X018125Y034551D01*
X018093Y034520D01*
X018059Y034492D01*
X018023Y034468D01*
X017984Y034446D01*
X017944Y034428D01*
X017902Y034414D01*
X017859Y034403D01*
X017815Y034396D01*
X017771Y034393D01*
X017727Y034394D01*
X017683Y034399D01*
X017640Y034408D01*
X017597Y034420D01*
X017556Y034437D01*
X017516Y034456D01*
X017479Y034480D01*
X017443Y034506D01*
X017410Y034536D01*
X017380Y034568D01*
X017353Y034603D01*
X017329Y034640D01*
X017308Y034679D01*
X017291Y034720D01*
X017278Y034762D01*
X017268Y034805D01*
X017262Y034849D01*
X017260Y034893D01*
X016260Y034893D02*
X016262Y034969D01*
X016268Y035045D01*
X016277Y035120D01*
X016291Y035195D01*
X016308Y035269D01*
X016329Y035342D01*
X016353Y035414D01*
X016382Y035485D01*
X016413Y035554D01*
X016448Y035621D01*
X016487Y035686D01*
X016529Y035750D01*
X016574Y035811D01*
X016622Y035870D01*
X016673Y035926D01*
X016727Y035980D01*
X016783Y036031D01*
X016842Y036079D01*
X016903Y036124D01*
X016967Y036166D01*
X017032Y036205D01*
X017099Y036240D01*
X017168Y036271D01*
X017239Y036300D01*
X017311Y036324D01*
X017384Y036345D01*
X017458Y036362D01*
X017533Y036376D01*
X017608Y036385D01*
X017684Y036391D01*
X017760Y036393D01*
X016260Y034893D02*
X016260Y017893D01*
X017260Y017893D02*
X017262Y017937D01*
X017268Y017981D01*
X017278Y018024D01*
X017291Y018066D01*
X017308Y018107D01*
X017329Y018146D01*
X017353Y018183D01*
X017380Y018218D01*
X017410Y018250D01*
X017443Y018280D01*
X017479Y018306D01*
X017516Y018330D01*
X017556Y018349D01*
X017597Y018366D01*
X017640Y018378D01*
X017683Y018387D01*
X017727Y018392D01*
X017771Y018393D01*
X017815Y018390D01*
X017859Y018383D01*
X017902Y018372D01*
X017944Y018358D01*
X017984Y018340D01*
X018023Y018318D01*
X018059Y018294D01*
X018093Y018266D01*
X018125Y018235D01*
X018154Y018201D01*
X018180Y018165D01*
X018202Y018127D01*
X018221Y018087D01*
X018236Y018045D01*
X018248Y018003D01*
X018256Y017959D01*
X018260Y017915D01*
X018260Y017871D01*
X018256Y017827D01*
X018248Y017783D01*
X018236Y017741D01*
X018221Y017699D01*
X018202Y017659D01*
X018180Y017621D01*
X018154Y017585D01*
X018125Y017551D01*
X018093Y017520D01*
X018059Y017492D01*
X018023Y017468D01*
X017984Y017446D01*
X017944Y017428D01*
X017902Y017414D01*
X017859Y017403D01*
X017815Y017396D01*
X017771Y017393D01*
X017727Y017394D01*
X017683Y017399D01*
X017640Y017408D01*
X017597Y017420D01*
X017556Y017437D01*
X017516Y017456D01*
X017479Y017480D01*
X017443Y017506D01*
X017410Y017536D01*
X017380Y017568D01*
X017353Y017603D01*
X017329Y017640D01*
X017308Y017679D01*
X017291Y017720D01*
X017278Y017762D01*
X017268Y017805D01*
X017262Y017849D01*
X017260Y017893D01*
X016260Y017893D02*
X016262Y017817D01*
X016268Y017741D01*
X016277Y017666D01*
X016291Y017591D01*
X016308Y017517D01*
X016329Y017444D01*
X016353Y017372D01*
X016382Y017301D01*
X016413Y017232D01*
X016448Y017165D01*
X016487Y017100D01*
X016529Y017036D01*
X016574Y016975D01*
X016622Y016916D01*
X016673Y016860D01*
X016727Y016806D01*
X016783Y016755D01*
X016842Y016707D01*
X016903Y016662D01*
X016967Y016620D01*
X017032Y016581D01*
X017099Y016546D01*
X017168Y016515D01*
X017239Y016486D01*
X017311Y016462D01*
X017384Y016441D01*
X017458Y016424D01*
X017533Y016410D01*
X017608Y016401D01*
X017684Y016395D01*
X017760Y016393D01*
X021086Y019011D02*
X021088Y019050D01*
X021094Y019089D01*
X021104Y019127D01*
X021117Y019164D01*
X021134Y019199D01*
X021154Y019233D01*
X021178Y019264D01*
X021205Y019293D01*
X021234Y019319D01*
X021266Y019342D01*
X021300Y019362D01*
X021336Y019378D01*
X021373Y019390D01*
X021412Y019399D01*
X021451Y019404D01*
X021490Y019405D01*
X021529Y019402D01*
X021568Y019395D01*
X021605Y019384D01*
X021642Y019370D01*
X021677Y019352D01*
X021710Y019331D01*
X021741Y019306D01*
X021769Y019279D01*
X021794Y019249D01*
X021816Y019216D01*
X021835Y019182D01*
X021850Y019146D01*
X021862Y019108D01*
X021870Y019070D01*
X021874Y019031D01*
X021874Y018991D01*
X021870Y018952D01*
X021862Y018914D01*
X021850Y018876D01*
X021835Y018840D01*
X021816Y018806D01*
X021794Y018773D01*
X021769Y018743D01*
X021741Y018716D01*
X021710Y018691D01*
X021677Y018670D01*
X021642Y018652D01*
X021605Y018638D01*
X021568Y018627D01*
X021529Y018620D01*
X021490Y018617D01*
X021451Y018618D01*
X021412Y018623D01*
X021373Y018632D01*
X021336Y018644D01*
X021300Y018660D01*
X021266Y018680D01*
X021234Y018703D01*
X021205Y018729D01*
X021178Y018758D01*
X021154Y018789D01*
X021134Y018823D01*
X021117Y018858D01*
X021104Y018895D01*
X021094Y018933D01*
X021088Y018972D01*
X021086Y019011D01*
X021086Y033775D02*
X021088Y033814D01*
X021094Y033853D01*
X021104Y033891D01*
X021117Y033928D01*
X021134Y033963D01*
X021154Y033997D01*
X021178Y034028D01*
X021205Y034057D01*
X021234Y034083D01*
X021266Y034106D01*
X021300Y034126D01*
X021336Y034142D01*
X021373Y034154D01*
X021412Y034163D01*
X021451Y034168D01*
X021490Y034169D01*
X021529Y034166D01*
X021568Y034159D01*
X021605Y034148D01*
X021642Y034134D01*
X021677Y034116D01*
X021710Y034095D01*
X021741Y034070D01*
X021769Y034043D01*
X021794Y034013D01*
X021816Y033980D01*
X021835Y033946D01*
X021850Y033910D01*
X021862Y033872D01*
X021870Y033834D01*
X021874Y033795D01*
X021874Y033755D01*
X021870Y033716D01*
X021862Y033678D01*
X021850Y033640D01*
X021835Y033604D01*
X021816Y033570D01*
X021794Y033537D01*
X021769Y033507D01*
X021741Y033480D01*
X021710Y033455D01*
X021677Y033434D01*
X021642Y033416D01*
X021605Y033402D01*
X021568Y033391D01*
X021529Y033384D01*
X021490Y033381D01*
X021451Y033382D01*
X021412Y033387D01*
X021373Y033396D01*
X021336Y033408D01*
X021300Y033424D01*
X021266Y033444D01*
X021234Y033467D01*
X021205Y033493D01*
X021178Y033522D01*
X021154Y033553D01*
X021134Y033587D01*
X021117Y033622D01*
X021104Y033659D01*
X021094Y033697D01*
X021088Y033736D01*
X021086Y033775D01*
X048645Y033775D02*
X048647Y033814D01*
X048653Y033853D01*
X048663Y033891D01*
X048676Y033928D01*
X048693Y033963D01*
X048713Y033997D01*
X048737Y034028D01*
X048764Y034057D01*
X048793Y034083D01*
X048825Y034106D01*
X048859Y034126D01*
X048895Y034142D01*
X048932Y034154D01*
X048971Y034163D01*
X049010Y034168D01*
X049049Y034169D01*
X049088Y034166D01*
X049127Y034159D01*
X049164Y034148D01*
X049201Y034134D01*
X049236Y034116D01*
X049269Y034095D01*
X049300Y034070D01*
X049328Y034043D01*
X049353Y034013D01*
X049375Y033980D01*
X049394Y033946D01*
X049409Y033910D01*
X049421Y033872D01*
X049429Y033834D01*
X049433Y033795D01*
X049433Y033755D01*
X049429Y033716D01*
X049421Y033678D01*
X049409Y033640D01*
X049394Y033604D01*
X049375Y033570D01*
X049353Y033537D01*
X049328Y033507D01*
X049300Y033480D01*
X049269Y033455D01*
X049236Y033434D01*
X049201Y033416D01*
X049164Y033402D01*
X049127Y033391D01*
X049088Y033384D01*
X049049Y033381D01*
X049010Y033382D01*
X048971Y033387D01*
X048932Y033396D01*
X048895Y033408D01*
X048859Y033424D01*
X048825Y033444D01*
X048793Y033467D01*
X048764Y033493D01*
X048737Y033522D01*
X048713Y033553D01*
X048693Y033587D01*
X048676Y033622D01*
X048663Y033659D01*
X048653Y033697D01*
X048647Y033736D01*
X048645Y033775D01*
X048645Y019011D02*
X048647Y019050D01*
X048653Y019089D01*
X048663Y019127D01*
X048676Y019164D01*
X048693Y019199D01*
X048713Y019233D01*
X048737Y019264D01*
X048764Y019293D01*
X048793Y019319D01*
X048825Y019342D01*
X048859Y019362D01*
X048895Y019378D01*
X048932Y019390D01*
X048971Y019399D01*
X049010Y019404D01*
X049049Y019405D01*
X049088Y019402D01*
X049127Y019395D01*
X049164Y019384D01*
X049201Y019370D01*
X049236Y019352D01*
X049269Y019331D01*
X049300Y019306D01*
X049328Y019279D01*
X049353Y019249D01*
X049375Y019216D01*
X049394Y019182D01*
X049409Y019146D01*
X049421Y019108D01*
X049429Y019070D01*
X049433Y019031D01*
X049433Y018991D01*
X049429Y018952D01*
X049421Y018914D01*
X049409Y018876D01*
X049394Y018840D01*
X049375Y018806D01*
X049353Y018773D01*
X049328Y018743D01*
X049300Y018716D01*
X049269Y018691D01*
X049236Y018670D01*
X049201Y018652D01*
X049164Y018638D01*
X049127Y018627D01*
X049088Y018620D01*
X049049Y018617D01*
X049010Y018618D01*
X048971Y018623D01*
X048932Y018632D01*
X048895Y018644D01*
X048859Y018660D01*
X048825Y018680D01*
X048793Y018703D01*
X048764Y018729D01*
X048737Y018758D01*
X048713Y018789D01*
X048693Y018823D01*
X048676Y018858D01*
X048663Y018895D01*
X048653Y018933D01*
X048647Y018972D01*
X048645Y019011D01*
D11*
X047160Y025693D03*
X047160Y026693D03*
X047160Y027693D03*
X045360Y027693D03*
X045360Y026693D03*
X045360Y025693D03*
X042160Y025693D03*
X042160Y026693D03*
X042160Y027693D03*
X040360Y027693D03*
X040360Y026693D03*
X040360Y025693D03*
D12*
X051260Y019393D03*
X019260Y033393D03*
D13*
X023260Y031893D03*
X026260Y031893D03*
X030260Y031893D03*
X033260Y031893D03*
X037260Y031893D03*
X040260Y031893D03*
X044260Y031893D03*
X047260Y031893D03*
X024510Y023393D03*
D14*
X017776Y022715D02*
X017776Y022503D01*
X017776Y022715D02*
X017870Y022715D01*
X017870Y022503D01*
X017776Y022503D01*
X017776Y024472D02*
X017776Y024684D01*
X017870Y024684D01*
X017870Y024472D01*
X017776Y024472D01*
D15*
X016888Y024971D02*
X016632Y024971D01*
X016632Y022215D02*
X016888Y022215D01*
D16*
X047861Y021743D03*
X047861Y020523D03*
X047861Y022964D03*
D17*
X045460Y022354D03*
X045460Y021133D03*
D18*
X044410Y021543D02*
X044410Y021843D01*
X044260Y021993D01*
X039410Y021993D01*
X035160Y021993D01*
X034610Y021993D01*
X034510Y022093D01*
X024060Y022093D01*
X023560Y022593D01*
X023560Y023093D01*
X023860Y023343D02*
X023860Y022793D01*
X024360Y022293D01*
X039760Y022293D01*
X043947Y022293D01*
X043660Y022593D02*
X025760Y022593D01*
X025260Y023093D01*
X025260Y023593D01*
X024760Y023893D02*
X024510Y023893D01*
X024510Y023393D01*
X024510Y023893D02*
X022560Y023893D01*
X022310Y023643D01*
X022310Y022893D01*
X023260Y023343D02*
X023260Y022393D01*
X023760Y021893D01*
X034410Y021893D01*
X034610Y021693D01*
X035460Y021693D01*
X040060Y021693D01*
X044047Y021693D01*
X045260Y023393D02*
X036810Y023393D01*
X036310Y022893D01*
X028310Y022893D01*
X023860Y027343D01*
X023560Y027343D01*
X023160Y027743D01*
X022910Y027743D01*
X022760Y027893D01*
X022760Y028393D01*
X023060Y028093D02*
X023610Y027543D01*
X023910Y027543D01*
X028310Y023143D01*
X036260Y023143D01*
X036810Y023693D01*
X043360Y023693D01*
X043460Y023793D01*
X044810Y023793D01*
X045260Y023393D02*
X045760Y023893D01*
X047760Y023893D01*
X047910Y024293D02*
X036860Y024293D01*
X036460Y024693D01*
X028910Y024693D01*
X027060Y026543D01*
X026660Y026543D01*
X026060Y027143D01*
X026060Y028293D01*
X026460Y028293D02*
X026460Y027093D01*
X026760Y026793D01*
X027160Y026793D01*
X029060Y024893D01*
X036610Y024893D01*
X037010Y024493D01*
X048210Y024493D01*
X048710Y023993D01*
X048710Y021643D01*
X048960Y021393D01*
X049655Y021393D01*
X048410Y022293D02*
X048410Y023793D01*
X047910Y024293D01*
X050510Y024693D02*
X037160Y024693D01*
X036760Y025093D01*
X029210Y025093D01*
X027160Y027143D01*
X026960Y027143D01*
X026960Y027543D02*
X027060Y027543D01*
X029310Y025293D01*
X036910Y025293D01*
X037310Y024893D01*
X051306Y024893D01*
X051760Y025347D01*
X051760Y031393D01*
X051060Y032093D01*
X046114Y031268D02*
X046114Y030893D01*
X046114Y031268D02*
X045989Y031393D01*
X045135Y031393D01*
X045010Y031268D01*
X045010Y030893D01*
X044510Y030393D01*
X038260Y030393D01*
X037760Y029893D01*
X037760Y028393D01*
X037260Y027893D01*
X037010Y027893D01*
X037260Y027393D02*
X037510Y027393D01*
X038010Y027893D01*
X038010Y029643D01*
X038510Y030143D01*
X044905Y030143D01*
X045405Y030643D01*
X045405Y030893D01*
X045360Y027693D02*
X044047Y027693D01*
X044047Y026693D02*
X045360Y026693D01*
X045360Y025693D02*
X043947Y025693D01*
X041460Y023993D02*
X036760Y023993D01*
X036160Y023393D01*
X028310Y023393D01*
X023960Y027743D01*
X023660Y027743D01*
X023360Y028043D01*
X023360Y028393D01*
X023710Y028093D02*
X023860Y027943D01*
X024010Y027943D01*
X028360Y023593D01*
X035810Y023593D01*
X036110Y023893D01*
X036160Y024193D02*
X035860Y024493D01*
X028710Y024493D01*
X026910Y026293D01*
X026560Y026293D01*
X025660Y027193D01*
X025660Y028293D01*
X026931Y028343D02*
X027185Y028343D01*
X027310Y028218D01*
X027310Y027893D01*
X029460Y025743D01*
X038560Y025743D01*
X038810Y025993D01*
X038810Y027443D01*
X039060Y027693D01*
X040360Y027693D01*
X040360Y026693D02*
X039260Y026693D01*
X039260Y025693D02*
X040360Y025693D01*
X037510Y026243D02*
X036910Y026243D01*
X036760Y026393D01*
X032210Y026393D01*
X031510Y027093D01*
X031510Y028143D01*
X031210Y027643D02*
X031210Y026993D01*
X032110Y026093D01*
X035385Y026093D01*
X036110Y026743D02*
X037260Y026743D01*
X036110Y026743D02*
X036110Y032893D01*
X035434Y034393D02*
X035434Y029743D01*
X035684Y029493D01*
X035385Y029467D02*
X035385Y029143D01*
X035385Y029467D02*
X035085Y029767D01*
X035085Y034393D01*
X034885Y034593D01*
X034885Y034893D01*
X035434Y034393D02*
X035634Y034593D01*
X035634Y034893D01*
X037510Y031393D02*
X038614Y031393D01*
X039114Y030893D01*
X038405Y030893D02*
X038010Y030893D01*
X037510Y030393D01*
X037510Y028643D01*
X037260Y028393D01*
X037010Y028893D02*
X037010Y030893D01*
X037510Y031393D01*
X033560Y030593D02*
X033560Y028393D01*
X033260Y028143D02*
X033260Y027393D01*
X032960Y027893D02*
X032760Y028093D01*
X032760Y029643D01*
X032260Y030143D01*
X024905Y030143D01*
X024405Y030643D01*
X024405Y030893D01*
X025114Y030893D02*
X025614Y030393D01*
X032510Y030393D01*
X032960Y029943D01*
X032960Y028443D01*
X033260Y028143D01*
X033260Y028893D02*
X033260Y030143D01*
X032760Y030643D01*
X031905Y030643D01*
X031405Y031143D01*
X032114Y031143D02*
X033010Y031143D01*
X033560Y030593D01*
X030110Y026243D02*
X029510Y026243D01*
X029410Y025493D02*
X026960Y027943D01*
X029410Y025493D02*
X037060Y025493D01*
X037460Y025093D01*
X050660Y025093D01*
X051160Y025593D01*
X051160Y026393D01*
X050510Y024693D02*
X051010Y024193D01*
X051010Y020643D01*
X048260Y026693D02*
X047160Y026693D01*
X036510Y024193D02*
X036160Y024193D01*
X035760Y024193D02*
X028460Y024193D01*
X028010Y024643D01*
X027660Y024593D02*
X027660Y024943D01*
X027660Y024593D02*
X028360Y023893D01*
X035410Y023893D01*
X022560Y027393D02*
X021610Y028343D01*
X019260Y028343D01*
X019710Y028793D02*
X019710Y032143D01*
X019710Y028793D02*
X019960Y028543D01*
X022010Y028543D01*
X022460Y028093D01*
D19*
X022460Y028093D03*
X022760Y028393D03*
X023060Y028093D03*
X023360Y028393D03*
X023710Y028093D03*
X023260Y028893D03*
X022260Y028893D03*
X021260Y028893D03*
X020260Y029393D03*
X019260Y028893D03*
X019260Y028343D03*
X018260Y028893D03*
X016760Y028893D03*
X017260Y027893D03*
X016760Y026393D03*
X019260Y026393D03*
X019510Y025143D03*
X020260Y024393D03*
X020760Y024893D03*
X021460Y026248D03*
X022560Y026743D03*
X022560Y027393D03*
X022760Y025893D03*
X024760Y025893D03*
X026760Y025893D03*
X027660Y024943D03*
X028010Y024643D03*
X029510Y026243D03*
X030110Y026243D03*
X030760Y026143D03*
X031760Y026043D03*
X033260Y027393D03*
X032960Y027893D03*
X033560Y028393D03*
X033260Y028893D03*
X031510Y028143D03*
X031210Y027643D03*
X031010Y028893D03*
X028760Y028793D03*
X026931Y028343D03*
X026960Y027943D03*
X026960Y027543D03*
X026960Y027143D03*
X026460Y028293D03*
X026060Y028293D03*
X025660Y028293D03*
X025860Y028693D03*
X024760Y027893D03*
X025114Y030893D03*
X024405Y030893D03*
X024760Y031893D03*
X024760Y033393D03*
X024760Y034893D03*
X028260Y034893D03*
X028760Y035393D03*
X028260Y033393D03*
X028260Y031893D03*
X026760Y031393D03*
X029760Y031393D03*
X031405Y031143D03*
X032114Y031143D03*
X031760Y031893D03*
X031760Y033393D03*
X031760Y034893D03*
X034460Y035393D03*
X034885Y034893D03*
X035634Y034893D03*
X036110Y032893D03*
X034460Y032893D03*
X033760Y031393D03*
X034910Y029493D03*
X035385Y029143D03*
X035684Y029493D03*
X037010Y028893D03*
X037260Y028393D03*
X037010Y027893D03*
X037260Y027393D03*
X037260Y026743D03*
X037510Y026243D03*
X039260Y026693D03*
X039260Y025693D03*
X041460Y023993D03*
X040760Y022993D03*
X039760Y022293D03*
X039410Y021993D03*
X040060Y021693D03*
X039260Y022993D03*
X037760Y022993D03*
X036510Y024193D03*
X036110Y023893D03*
X035760Y024193D03*
X035410Y023893D03*
X035160Y021993D03*
X035460Y021693D03*
X034860Y021043D03*
X034260Y021543D03*
X032760Y021543D03*
X032260Y021043D03*
X032760Y020393D03*
X033510Y019643D03*
X034260Y018893D03*
X035010Y019643D03*
X035760Y018893D03*
X035260Y017893D03*
X036760Y017893D03*
X038260Y017893D03*
X039760Y017893D03*
X041260Y017893D03*
X042260Y019393D03*
X042260Y020393D03*
X041960Y021043D03*
X043660Y020393D03*
X044360Y021043D03*
X044410Y021543D03*
X044047Y021693D03*
X043947Y022293D03*
X043660Y022593D03*
X044810Y023793D03*
X046760Y022393D03*
X048410Y022293D03*
X049760Y022893D03*
X050260Y024143D03*
X049260Y024143D03*
X047760Y023893D03*
X048260Y025693D03*
X048260Y026693D03*
X050510Y028143D03*
X049260Y028893D03*
X047760Y028893D03*
X046260Y028893D03*
X044760Y028893D03*
X043260Y028893D03*
X043260Y027693D03*
X044047Y027693D03*
X044047Y026693D03*
X043947Y025693D03*
X041760Y028893D03*
X040260Y028893D03*
X039114Y030893D03*
X038405Y030893D03*
X038760Y031893D03*
X038760Y033393D03*
X038760Y034893D03*
X042260Y034893D03*
X042760Y035393D03*
X042260Y033393D03*
X042260Y031893D03*
X043760Y031393D03*
X045405Y030893D03*
X046114Y030893D03*
X045760Y031893D03*
X045760Y033393D03*
X045760Y034893D03*
X050510Y035643D03*
X051260Y034643D03*
X050510Y033643D03*
X051060Y032093D03*
X050510Y030643D03*
X051260Y029393D03*
X052510Y028643D03*
X053160Y027893D03*
X053760Y026393D03*
X052760Y024693D03*
X051160Y026393D03*
X053760Y029393D03*
X052510Y030143D03*
X053760Y032143D03*
X053160Y033643D03*
X047760Y031393D03*
X040760Y031393D03*
X036760Y031393D03*
X035385Y026093D03*
X030760Y021543D03*
X029760Y021543D03*
X028760Y021543D03*
X027760Y021543D03*
X026760Y021543D03*
X026260Y021043D03*
X025760Y021543D03*
X024260Y021543D03*
X023560Y023093D03*
X023860Y023343D03*
X023260Y023343D03*
X022310Y022893D03*
X021810Y023193D03*
X021260Y023393D03*
X020760Y022893D03*
X020260Y022393D03*
X019760Y021893D03*
X020260Y019893D03*
X020260Y018393D03*
X019260Y018393D03*
X018760Y017393D03*
X017260Y018893D03*
X016760Y020893D03*
X018360Y024393D03*
X022060Y019893D03*
X022260Y018393D03*
X023760Y017393D03*
X024760Y017893D03*
X025010Y019643D03*
X026760Y020393D03*
X028260Y020393D03*
X027260Y018893D03*
X027760Y017893D03*
X030760Y017893D03*
X031260Y018893D03*
X030260Y020393D03*
X034260Y020393D03*
X035760Y020393D03*
X036342Y021043D03*
X037260Y020393D03*
X033760Y017893D03*
X026060Y022943D03*
X025260Y023593D03*
X024760Y023893D03*
X019260Y030393D03*
X018260Y030393D03*
X016760Y030393D03*
X016760Y032143D03*
X017260Y033643D03*
X019260Y034393D03*
X018760Y035893D03*
X021760Y032393D03*
X022760Y031393D03*
X019710Y032143D03*
X021160Y016843D03*
X045510Y020393D03*
X046760Y020893D03*
X046760Y019393D03*
X047510Y018643D03*
X046760Y017893D03*
X048260Y017393D03*
X052010Y018393D03*
X053160Y019143D03*
X051010Y020643D03*
X050364Y021393D03*
X049655Y021393D03*
X051510Y022143D03*
X052760Y022143D03*
X053760Y022143D03*
D20*
X051760Y019893D02*
X044760Y019893D01*
X044360Y020293D01*
X044360Y021043D01*
X041960Y021043D01*
X036342Y021043D01*
X034860Y021043D01*
X032260Y021043D01*
X026260Y021043D01*
X022314Y021043D01*
X021810Y021548D01*
X021810Y023193D01*
X021810Y025898D01*
X021460Y026248D01*
X021460Y027643D01*
X021210Y027893D01*
X017260Y027893D01*
X017260Y033643D01*
X021760Y032393D02*
X022260Y032393D01*
X022760Y032893D01*
X022760Y034893D01*
X023260Y035393D01*
X028760Y035393D01*
X034460Y035393D01*
X042760Y035393D01*
X044260Y031893D02*
X043760Y031393D01*
X040760Y031393D02*
X040260Y031893D01*
X037260Y031893D02*
X036760Y031393D01*
X034910Y029493D02*
X034460Y029943D01*
X034460Y032893D01*
X033260Y031893D02*
X033760Y031393D01*
X030260Y031893D02*
X029760Y031393D01*
X026760Y031393D02*
X026260Y031893D01*
X023260Y031893D02*
X022760Y031393D01*
X028760Y028793D02*
X030260Y028793D01*
X030760Y028293D01*
X030760Y026893D01*
X031610Y026043D01*
X031760Y026043D01*
X042160Y027693D02*
X043260Y027693D01*
X047160Y025693D02*
X048260Y025693D01*
X053160Y027893D02*
X053160Y019143D01*
X052510Y019143D01*
X051760Y019893D01*
X053160Y027893D02*
X053160Y033643D01*
X047760Y031393D02*
X047260Y031893D01*
D21*
X017583Y016555D02*
X017243Y016646D01*
X016938Y016822D01*
X016688Y017071D01*
X016512Y017377D01*
X016421Y017717D01*
X016410Y017893D01*
X016410Y034893D01*
X016421Y035070D01*
X016512Y035410D01*
X016688Y035715D01*
X016938Y035964D01*
X017243Y036141D01*
X017583Y036232D01*
X017760Y036243D01*
X020760Y036243D01*
X020760Y029393D01*
X031360Y029393D01*
X031760Y028993D01*
X031760Y028232D01*
X031734Y028293D01*
X031660Y028368D01*
X031562Y028408D01*
X031457Y028408D01*
X031359Y028368D01*
X031285Y028293D01*
X031245Y028196D01*
X031245Y028091D01*
X031285Y027993D01*
X031350Y027929D01*
X031350Y027872D01*
X031262Y027908D01*
X031157Y027908D01*
X031059Y027868D01*
X030985Y027793D01*
X030980Y027781D01*
X030980Y028384D01*
X030480Y028884D01*
X030351Y029013D01*
X028914Y029013D01*
X028910Y029018D01*
X028812Y029058D01*
X028707Y029058D01*
X028609Y029018D01*
X028535Y028943D01*
X028495Y028846D01*
X028495Y028741D01*
X028535Y028643D01*
X028609Y028569D01*
X028707Y028528D01*
X028812Y028528D01*
X028910Y028569D01*
X028914Y028573D01*
X030168Y028573D01*
X030540Y028202D01*
X030540Y026802D01*
X030668Y026673D01*
X031438Y025903D01*
X029526Y025903D01*
X029447Y025983D01*
X029457Y025978D01*
X029562Y025978D01*
X029660Y026019D01*
X029724Y026083D01*
X029895Y026083D01*
X029959Y026019D01*
X030057Y025978D01*
X030162Y025978D01*
X030260Y026019D01*
X030334Y026093D01*
X030375Y026191D01*
X030375Y026296D01*
X030334Y026393D01*
X030260Y026468D01*
X030162Y026508D01*
X030057Y026508D01*
X029959Y026468D01*
X029895Y026403D01*
X029724Y026403D01*
X029660Y026468D01*
X029562Y026508D01*
X029457Y026508D01*
X029359Y026468D01*
X029285Y026393D01*
X029245Y026296D01*
X029245Y026191D01*
X029249Y026180D01*
X027470Y027960D01*
X027470Y028285D01*
X027251Y028503D01*
X027146Y028503D01*
X027081Y028568D01*
X026984Y028608D01*
X026878Y028608D01*
X026781Y028568D01*
X026706Y028493D01*
X026685Y028441D01*
X026684Y028443D01*
X026610Y028518D01*
X026512Y028558D01*
X026407Y028558D01*
X026309Y028518D01*
X026260Y028468D01*
X026210Y028518D01*
X026112Y028558D01*
X026007Y028558D01*
X025909Y028518D01*
X025860Y028468D01*
X025810Y028518D01*
X025712Y028558D01*
X025607Y028558D01*
X025509Y028518D01*
X025435Y028443D01*
X025395Y028346D01*
X025395Y028241D01*
X025435Y028143D01*
X025500Y028079D01*
X025500Y027127D01*
X026400Y026227D01*
X026493Y026133D01*
X026843Y026133D01*
X027808Y025169D01*
X027712Y025208D01*
X027607Y025208D01*
X027509Y025168D01*
X027435Y025093D01*
X027395Y024996D01*
X027395Y024891D01*
X027435Y024793D01*
X027500Y024729D01*
X027500Y024680D01*
X024170Y028010D01*
X024076Y028103D01*
X023975Y028103D01*
X023975Y028146D01*
X023934Y028243D01*
X023860Y028318D01*
X023762Y028358D01*
X023657Y028358D01*
X023625Y028345D01*
X023625Y028446D01*
X023584Y028543D01*
X023510Y028618D01*
X023412Y028658D01*
X023307Y028658D01*
X023209Y028618D01*
X023135Y028543D01*
X023095Y028446D01*
X023095Y028358D01*
X023025Y028358D01*
X023025Y028446D01*
X022984Y028543D01*
X022910Y028618D01*
X022812Y028658D01*
X022707Y028658D01*
X022609Y028618D01*
X022535Y028543D01*
X022495Y028446D01*
X022495Y028358D01*
X022421Y028358D01*
X022076Y028703D01*
X020026Y028703D01*
X019870Y028860D01*
X019870Y031929D01*
X019934Y031993D01*
X019975Y032091D01*
X019975Y032196D01*
X019934Y032293D01*
X019860Y032368D01*
X019762Y032408D01*
X019657Y032408D01*
X019559Y032368D01*
X019485Y032293D01*
X019445Y032196D01*
X019445Y032091D01*
X019485Y031993D01*
X019550Y031929D01*
X019550Y028727D01*
X019643Y028633D01*
X019773Y028503D01*
X019474Y028503D01*
X019410Y028568D01*
X019312Y028608D01*
X019207Y028608D01*
X019109Y028568D01*
X019035Y028493D01*
X018995Y028396D01*
X018995Y028291D01*
X019035Y028193D01*
X019109Y028119D01*
X019122Y028113D01*
X017480Y028113D01*
X017480Y033489D01*
X017484Y033493D01*
X017525Y033591D01*
X017525Y033696D01*
X017484Y033793D01*
X017410Y033868D01*
X017312Y033908D01*
X017207Y033908D01*
X017109Y033868D01*
X017035Y033793D01*
X016995Y033696D01*
X016995Y033591D01*
X017035Y033493D01*
X017040Y033489D01*
X017040Y028048D01*
X017035Y028043D01*
X016995Y027946D01*
X016995Y027841D01*
X017035Y027743D01*
X017109Y027669D01*
X017207Y027628D01*
X017312Y027628D01*
X017410Y027669D01*
X017414Y027673D01*
X021118Y027673D01*
X021240Y027552D01*
X021240Y026402D01*
X021235Y026398D01*
X021195Y026300D01*
X021195Y026195D01*
X021235Y026098D01*
X021309Y026023D01*
X021407Y025983D01*
X021413Y025983D01*
X021590Y025807D01*
X021590Y023348D01*
X021585Y023343D01*
X021545Y023246D01*
X021545Y023141D01*
X021585Y023043D01*
X021590Y023039D01*
X021590Y021457D01*
X021718Y021328D01*
X022094Y020952D01*
X022223Y020823D01*
X026105Y020823D01*
X026109Y020819D01*
X026207Y020778D01*
X026312Y020778D01*
X026410Y020819D01*
X026414Y020823D01*
X032105Y020823D01*
X032109Y020819D01*
X032207Y020778D01*
X032312Y020778D01*
X032410Y020819D01*
X032414Y020823D01*
X034705Y020823D01*
X034709Y020819D01*
X034807Y020778D01*
X034912Y020778D01*
X035010Y020819D01*
X035014Y020823D01*
X036187Y020823D01*
X036192Y020819D01*
X036289Y020778D01*
X036395Y020778D01*
X036492Y020819D01*
X036497Y020823D01*
X041805Y020823D01*
X041809Y020819D01*
X041907Y020778D01*
X042012Y020778D01*
X042110Y020819D01*
X042114Y020823D01*
X044140Y020823D01*
X044140Y020202D01*
X044268Y020073D01*
X044668Y019673D01*
X051160Y019673D01*
X051091Y019645D01*
X051008Y019561D01*
X050963Y019452D01*
X050963Y019334D01*
X051008Y019225D01*
X051091Y019142D01*
X051200Y019096D01*
X051319Y019096D01*
X051428Y019142D01*
X051511Y019225D01*
X051556Y019334D01*
X051556Y019452D01*
X051511Y019561D01*
X051428Y019645D01*
X051359Y019673D01*
X051668Y019673D01*
X052418Y018923D01*
X053005Y018923D01*
X053009Y018919D01*
X053107Y018878D01*
X053212Y018878D01*
X053310Y018919D01*
X053384Y018993D01*
X053425Y019091D01*
X053425Y019196D01*
X053384Y019293D01*
X053380Y019298D01*
X053380Y027739D01*
X053384Y027743D01*
X053425Y027841D01*
X053425Y027946D01*
X053384Y028043D01*
X053380Y028048D01*
X053380Y033489D01*
X053384Y033493D01*
X053425Y033591D01*
X053425Y033696D01*
X053384Y033793D01*
X053310Y033868D01*
X053212Y033908D01*
X053107Y033908D01*
X053009Y033868D01*
X052935Y033793D01*
X052895Y033696D01*
X052895Y033591D01*
X052935Y033493D01*
X052940Y033489D01*
X052940Y028048D01*
X052935Y028043D01*
X052895Y027946D01*
X052895Y027841D01*
X052935Y027743D01*
X052940Y027739D01*
X052940Y019363D01*
X052601Y019363D01*
X051851Y020113D01*
X044851Y020113D01*
X044580Y020384D01*
X044580Y020889D01*
X044584Y020893D01*
X044625Y020991D01*
X044625Y021096D01*
X044584Y021193D01*
X044510Y021268D01*
X044473Y021283D01*
X044560Y021319D01*
X044634Y021393D01*
X044675Y021491D01*
X044675Y021596D01*
X044634Y021693D01*
X044570Y021758D01*
X044570Y021910D01*
X044476Y022003D01*
X044420Y022060D01*
X044326Y022153D01*
X044176Y022153D01*
X044212Y022241D01*
X044212Y022346D01*
X044172Y022443D01*
X044097Y022518D01*
X044000Y022558D01*
X043925Y022558D01*
X043925Y022646D01*
X043884Y022743D01*
X043810Y022818D01*
X043712Y022858D01*
X043607Y022858D01*
X043509Y022818D01*
X043445Y022753D01*
X036396Y022753D01*
X036876Y023233D01*
X045326Y023233D01*
X045420Y023327D01*
X045826Y023733D01*
X047545Y023733D01*
X047609Y023669D01*
X047707Y023628D01*
X047812Y023628D01*
X047910Y023669D01*
X047984Y023743D01*
X048025Y023841D01*
X048025Y023946D01*
X048020Y023956D01*
X048250Y023727D01*
X048250Y022508D01*
X048185Y022443D01*
X048145Y022346D01*
X048145Y022241D01*
X048185Y022143D01*
X048259Y022069D01*
X048357Y022028D01*
X048462Y022028D01*
X048550Y022064D01*
X048550Y021577D01*
X048643Y021483D01*
X048893Y021233D01*
X049440Y021233D01*
X049505Y021169D01*
X049602Y021128D01*
X049708Y021128D01*
X049805Y021169D01*
X049880Y021243D01*
X049920Y021341D01*
X049920Y021446D01*
X049880Y021543D01*
X049805Y021618D01*
X049708Y021658D01*
X049602Y021658D01*
X049505Y021618D01*
X049440Y021553D01*
X049026Y021553D01*
X048870Y021710D01*
X048870Y024060D01*
X048396Y024533D01*
X050443Y024533D01*
X050850Y024127D01*
X050850Y020858D01*
X050785Y020793D01*
X050745Y020696D01*
X050745Y020591D01*
X050785Y020493D01*
X050859Y020419D01*
X050957Y020378D01*
X051062Y020378D01*
X051160Y020419D01*
X051234Y020493D01*
X051275Y020591D01*
X051275Y020696D01*
X051234Y020793D01*
X051170Y020858D01*
X051170Y024260D01*
X050696Y024733D01*
X051372Y024733D01*
X051826Y025187D01*
X051920Y025281D01*
X051920Y031460D01*
X051325Y032055D01*
X052940Y032055D01*
X052940Y032153D02*
X051321Y032153D01*
X051325Y032146D02*
X051284Y032243D01*
X051210Y032318D01*
X051112Y032358D01*
X051007Y032358D01*
X050909Y032318D01*
X050835Y032243D01*
X050795Y032146D01*
X050795Y032041D01*
X050835Y031943D01*
X050909Y031869D01*
X051007Y031828D01*
X051098Y031828D01*
X051600Y031327D01*
X051600Y025413D01*
X051240Y025053D01*
X050846Y025053D01*
X051320Y025527D01*
X051320Y026179D01*
X051384Y026243D01*
X051425Y026341D01*
X051425Y026446D01*
X051384Y026543D01*
X051310Y026618D01*
X051212Y026658D01*
X051107Y026658D01*
X051009Y026618D01*
X050935Y026543D01*
X050895Y026446D01*
X050895Y026341D01*
X050935Y026243D01*
X051000Y026179D01*
X051000Y025660D01*
X050593Y025253D01*
X037526Y025253D01*
X037196Y025583D01*
X038626Y025583D01*
X038720Y025677D01*
X038970Y025927D01*
X038970Y027377D01*
X039126Y027533D01*
X039535Y027533D01*
X039535Y027455D01*
X039593Y027396D01*
X041126Y027396D01*
X041185Y027455D01*
X041185Y027932D01*
X041126Y027990D01*
X039593Y027990D01*
X039535Y027932D01*
X039535Y027853D01*
X038993Y027853D01*
X038900Y027760D01*
X038900Y027760D01*
X038760Y027620D01*
X038760Y028993D01*
X039160Y029393D01*
X049760Y029393D01*
X049760Y036243D01*
X052760Y036243D01*
X052936Y036232D01*
X053276Y036141D01*
X053581Y035964D01*
X053831Y035715D01*
X054007Y035410D01*
X054098Y035070D01*
X054110Y034893D01*
X054110Y017893D01*
X054098Y017717D01*
X054007Y017377D01*
X054007Y017377D01*
X053831Y017071D01*
X053757Y016998D01*
X053954Y017286D01*
X053954Y017286D01*
X054070Y017696D01*
X054060Y017901D01*
X054060Y022203D01*
X054014Y022313D01*
X053929Y022398D01*
X053819Y022443D01*
X053700Y022443D01*
X053590Y022398D01*
X053505Y022313D01*
X053460Y022203D01*
X053460Y017945D01*
X053457Y017938D01*
X053460Y017886D01*
X053460Y017868D01*
X053456Y017765D01*
X053395Y017548D01*
X053267Y017361D01*
X053087Y017224D01*
X052873Y017152D01*
X052760Y017143D01*
X048434Y017143D01*
X048514Y017223D01*
X048560Y017334D01*
X048560Y017453D01*
X048514Y017563D01*
X048429Y017648D01*
X048319Y017693D01*
X019884Y017693D01*
X019560Y018018D01*
X019560Y018453D01*
X019514Y018563D01*
X019429Y018648D01*
X019319Y018693D01*
X019200Y018693D01*
X019090Y018648D01*
X019010Y018568D01*
X018660Y018918D01*
X018660Y024453D01*
X018614Y024563D01*
X018529Y024648D01*
X018419Y024693D01*
X018300Y024693D01*
X018190Y024648D01*
X018105Y024563D01*
X018060Y024453D01*
X018060Y018734D01*
X018105Y018623D01*
X018460Y018269D01*
X018460Y017334D01*
X018505Y017223D01*
X018590Y017139D01*
X018700Y017093D01*
X018819Y017093D01*
X018929Y017139D01*
X019014Y017223D01*
X019060Y017334D01*
X019060Y017669D01*
X019090Y017639D01*
X019590Y017139D01*
X019700Y017093D01*
X020985Y017093D01*
X020905Y017013D01*
X020860Y016903D01*
X020860Y016784D01*
X020905Y016673D01*
X020990Y016589D01*
X021100Y016543D01*
X052760Y016543D01*
X052760Y016543D01*
X017760Y016543D01*
X017583Y016555D01*
X017451Y016590D02*
X020988Y016590D01*
X020899Y016689D02*
X017169Y016689D01*
X016998Y016787D02*
X020860Y016787D01*
X020860Y016886D02*
X016874Y016886D01*
X016776Y016984D02*
X020893Y016984D01*
X020975Y017083D02*
X016682Y017083D01*
X016625Y017181D02*
X018547Y017181D01*
X018482Y017280D02*
X017977Y017280D01*
X017889Y017243D02*
X018128Y017342D01*
X018311Y017525D01*
X018410Y017764D01*
X018410Y018023D01*
X018311Y018262D01*
X018128Y018444D01*
X017889Y018543D01*
X017630Y018543D01*
X017391Y018444D01*
X017208Y018262D01*
X017110Y018023D01*
X017110Y017764D01*
X017208Y017525D01*
X017391Y017342D01*
X017630Y017243D01*
X017889Y017243D01*
X018164Y017378D02*
X018460Y017378D01*
X018460Y017477D02*
X018262Y017477D01*
X018331Y017575D02*
X018460Y017575D01*
X018460Y017674D02*
X018372Y017674D01*
X018410Y017772D02*
X018460Y017772D01*
X018460Y017871D02*
X018410Y017871D01*
X018410Y017969D02*
X018460Y017969D01*
X018460Y018068D02*
X018391Y018068D01*
X018350Y018166D02*
X018460Y018166D01*
X018460Y018265D02*
X018307Y018265D01*
X018365Y018363D02*
X018209Y018363D01*
X018267Y018462D02*
X018086Y018462D01*
X018168Y018560D02*
X016410Y018560D01*
X016410Y018462D02*
X017433Y018462D01*
X017310Y018363D02*
X016410Y018363D01*
X016410Y018265D02*
X017212Y018265D01*
X017169Y018166D02*
X016410Y018166D01*
X016410Y018068D02*
X017128Y018068D01*
X017110Y017969D02*
X016410Y017969D01*
X016411Y017871D02*
X017110Y017871D01*
X017110Y017772D02*
X016417Y017772D01*
X016433Y017674D02*
X017147Y017674D01*
X017188Y017575D02*
X016459Y017575D01*
X016485Y017477D02*
X017257Y017477D01*
X017355Y017378D02*
X016512Y017378D01*
X016568Y017280D02*
X017542Y017280D01*
X018972Y017181D02*
X019547Y017181D01*
X019449Y017280D02*
X019037Y017280D01*
X019060Y017378D02*
X019350Y017378D01*
X019252Y017477D02*
X019060Y017477D01*
X019060Y017575D02*
X019153Y017575D01*
X019608Y017969D02*
X052110Y017969D01*
X052110Y018023D02*
X052110Y017764D01*
X052208Y017525D01*
X052391Y017342D01*
X052630Y017243D01*
X052889Y017243D01*
X053128Y017342D01*
X053311Y017525D01*
X053410Y017764D01*
X053410Y018023D01*
X053311Y018262D01*
X053128Y018444D01*
X052889Y018543D01*
X052630Y018543D01*
X052391Y018444D01*
X052208Y018262D01*
X052110Y018023D01*
X052128Y018068D02*
X019560Y018068D01*
X019560Y018166D02*
X052169Y018166D01*
X052212Y018265D02*
X019560Y018265D01*
X019560Y018363D02*
X052310Y018363D01*
X052433Y018462D02*
X019556Y018462D01*
X019515Y018560D02*
X021162Y018560D01*
X021172Y018550D02*
X021372Y018468D01*
X021588Y018468D01*
X021788Y018550D01*
X021941Y018703D01*
X022024Y018903D01*
X022024Y019120D01*
X021941Y019319D01*
X021788Y019472D01*
X021588Y019555D01*
X021372Y019555D01*
X021172Y019472D01*
X021019Y019319D01*
X020936Y019120D01*
X020936Y018903D01*
X021019Y018703D01*
X021172Y018550D01*
X021064Y018659D02*
X019402Y018659D01*
X019117Y018659D02*
X018918Y018659D01*
X018820Y018757D02*
X020997Y018757D01*
X020956Y018856D02*
X018721Y018856D01*
X018660Y018954D02*
X020936Y018954D01*
X020936Y019053D02*
X018660Y019053D01*
X018660Y019151D02*
X020949Y019151D01*
X020990Y019250D02*
X018660Y019250D01*
X018660Y019348D02*
X021048Y019348D01*
X021146Y019447D02*
X018660Y019447D01*
X018660Y019545D02*
X021348Y019545D01*
X021612Y019545D02*
X048907Y019545D01*
X048931Y019555D02*
X048731Y019472D01*
X048578Y019319D01*
X048495Y019120D01*
X048495Y018903D01*
X048578Y018703D01*
X048731Y018550D01*
X048931Y018468D01*
X049147Y018468D01*
X049347Y018550D01*
X049500Y018703D01*
X049583Y018903D01*
X049583Y019120D01*
X049500Y019319D01*
X049347Y019472D01*
X049147Y019555D01*
X048931Y019555D01*
X049171Y019545D02*
X051001Y019545D01*
X050963Y019447D02*
X049373Y019447D01*
X049471Y019348D02*
X050963Y019348D01*
X050998Y019250D02*
X049529Y019250D01*
X049570Y019151D02*
X051082Y019151D01*
X051437Y019151D02*
X052190Y019151D01*
X052092Y019250D02*
X051521Y019250D01*
X051556Y019348D02*
X051993Y019348D01*
X051895Y019447D02*
X051556Y019447D01*
X051518Y019545D02*
X051796Y019545D01*
X051698Y019644D02*
X051429Y019644D01*
X051090Y019644D02*
X018660Y019644D01*
X018660Y019742D02*
X044599Y019742D01*
X044501Y019841D02*
X018660Y019841D01*
X018660Y019939D02*
X044402Y019939D01*
X044304Y020038D02*
X018660Y020038D01*
X018660Y020136D02*
X044205Y020136D01*
X044140Y020235D02*
X018660Y020235D01*
X018660Y020333D02*
X044140Y020333D01*
X044140Y020432D02*
X018660Y020432D01*
X018660Y020530D02*
X044140Y020530D01*
X044140Y020629D02*
X018660Y020629D01*
X018660Y020727D02*
X044140Y020727D01*
X044580Y020727D02*
X045063Y020727D01*
X045072Y020718D02*
X045106Y020698D01*
X045144Y020688D01*
X045410Y020688D01*
X045410Y021083D01*
X045510Y021083D01*
X045510Y021183D01*
X045905Y021183D01*
X045905Y021448D01*
X045895Y021486D01*
X045875Y021520D01*
X045847Y021548D01*
X045813Y021568D01*
X045775Y021578D01*
X045510Y021578D01*
X045510Y021183D01*
X045410Y021183D01*
X045410Y021578D01*
X045144Y021578D01*
X045106Y021568D01*
X045072Y021548D01*
X045044Y021520D01*
X045024Y021486D01*
X045014Y021448D01*
X045014Y021183D01*
X045410Y021183D01*
X045410Y021083D01*
X045014Y021083D01*
X045014Y020818D01*
X045024Y020780D01*
X045044Y020746D01*
X045072Y020718D01*
X045014Y020826D02*
X044580Y020826D01*
X044597Y020924D02*
X045014Y020924D01*
X045014Y021023D02*
X044625Y021023D01*
X044614Y021121D02*
X045410Y021121D01*
X045410Y021023D02*
X045510Y021023D01*
X045510Y021083D02*
X045510Y020688D01*
X045775Y020688D01*
X045813Y020698D01*
X045847Y020718D01*
X045875Y020746D01*
X045895Y020780D01*
X045905Y020818D01*
X045905Y021083D01*
X045510Y021083D01*
X045510Y021121D02*
X050038Y021121D01*
X050064Y021147D02*
X049740Y020823D01*
X048197Y020823D01*
X048197Y020860D01*
X048139Y020918D01*
X047583Y020918D01*
X047525Y020860D01*
X047525Y020186D01*
X047583Y020128D01*
X048139Y020128D01*
X048197Y020186D01*
X048197Y020223D01*
X049924Y020223D01*
X050034Y020269D01*
X050534Y020769D01*
X050618Y020853D01*
X050664Y020963D01*
X050664Y021453D01*
X050618Y021563D01*
X050534Y021648D01*
X050424Y021693D01*
X050304Y021693D01*
X050194Y021648D01*
X050110Y021563D01*
X050064Y021453D01*
X050064Y021147D01*
X050064Y021220D02*
X049856Y021220D01*
X049911Y021318D02*
X050064Y021318D01*
X050064Y021417D02*
X049920Y021417D01*
X049891Y021515D02*
X050090Y021515D01*
X050160Y021614D02*
X049809Y021614D01*
X049501Y021614D02*
X048965Y021614D01*
X048870Y021712D02*
X050850Y021712D01*
X050850Y021614D02*
X050568Y021614D01*
X050638Y021515D02*
X050850Y021515D01*
X050850Y021417D02*
X050664Y021417D01*
X050664Y021318D02*
X050850Y021318D01*
X050850Y021220D02*
X050664Y021220D01*
X050664Y021121D02*
X050850Y021121D01*
X050850Y021023D02*
X050664Y021023D01*
X050648Y020924D02*
X050850Y020924D01*
X050817Y020826D02*
X050591Y020826D01*
X050493Y020727D02*
X050757Y020727D01*
X050745Y020629D02*
X050394Y020629D01*
X050296Y020530D02*
X050769Y020530D01*
X050846Y020432D02*
X050197Y020432D01*
X050099Y020333D02*
X052940Y020333D01*
X052940Y020235D02*
X049952Y020235D01*
X049743Y020826D02*
X048197Y020826D01*
X048139Y021348D02*
X047583Y021348D01*
X047525Y021407D01*
X047525Y022080D01*
X047583Y022139D01*
X048139Y022139D01*
X048197Y022080D01*
X048197Y021407D01*
X048139Y021348D01*
X048197Y021417D02*
X048710Y021417D01*
X048808Y021318D02*
X045905Y021318D01*
X045905Y021220D02*
X049454Y021220D01*
X049841Y020924D02*
X045905Y020924D01*
X045905Y020826D02*
X047525Y020826D01*
X047525Y020727D02*
X045856Y020727D01*
X045905Y021023D02*
X049940Y021023D01*
X050850Y021811D02*
X048870Y021811D01*
X048870Y021909D02*
X050850Y021909D01*
X050850Y022008D02*
X048870Y022008D01*
X048870Y022106D02*
X050850Y022106D01*
X050850Y022205D02*
X048870Y022205D01*
X048870Y022303D02*
X050850Y022303D01*
X050850Y022402D02*
X048870Y022402D01*
X048870Y022500D02*
X050850Y022500D01*
X050850Y022599D02*
X048870Y022599D01*
X048870Y022697D02*
X050850Y022697D01*
X050850Y022796D02*
X048870Y022796D01*
X048870Y022894D02*
X050850Y022894D01*
X050850Y022993D02*
X048870Y022993D01*
X048870Y023091D02*
X050850Y023091D01*
X050850Y023190D02*
X048870Y023190D01*
X048870Y023288D02*
X050850Y023288D01*
X050850Y023387D02*
X048870Y023387D01*
X048870Y023485D02*
X050850Y023485D01*
X050850Y023584D02*
X048870Y023584D01*
X048870Y023682D02*
X050850Y023682D01*
X050850Y023781D02*
X048870Y023781D01*
X048870Y023879D02*
X050850Y023879D01*
X050850Y023978D02*
X048870Y023978D01*
X048853Y024076D02*
X050850Y024076D01*
X050802Y024175D02*
X048754Y024175D01*
X048656Y024273D02*
X050703Y024273D01*
X050605Y024372D02*
X048557Y024372D01*
X048459Y024470D02*
X050506Y024470D01*
X050762Y024667D02*
X052940Y024667D01*
X052940Y024569D02*
X050860Y024569D01*
X050959Y024470D02*
X052940Y024470D01*
X052940Y024372D02*
X051057Y024372D01*
X051156Y024273D02*
X052940Y024273D01*
X052940Y024175D02*
X051170Y024175D01*
X051170Y024076D02*
X052940Y024076D01*
X052940Y023978D02*
X051170Y023978D01*
X051170Y023879D02*
X052940Y023879D01*
X052940Y023781D02*
X051170Y023781D01*
X051170Y023682D02*
X052940Y023682D01*
X052940Y023584D02*
X051170Y023584D01*
X051170Y023485D02*
X052940Y023485D01*
X052940Y023387D02*
X051170Y023387D01*
X051170Y023288D02*
X052940Y023288D01*
X052940Y023190D02*
X051170Y023190D01*
X051170Y023091D02*
X052940Y023091D01*
X052940Y022993D02*
X051170Y022993D01*
X051170Y022894D02*
X052940Y022894D01*
X052940Y022796D02*
X051170Y022796D01*
X051170Y022697D02*
X052940Y022697D01*
X052940Y022599D02*
X051170Y022599D01*
X051170Y022500D02*
X052940Y022500D01*
X052940Y022402D02*
X051170Y022402D01*
X051170Y022303D02*
X052940Y022303D01*
X052940Y022205D02*
X051170Y022205D01*
X051170Y022106D02*
X052940Y022106D01*
X052940Y022008D02*
X051170Y022008D01*
X051170Y021909D02*
X052940Y021909D01*
X052940Y021811D02*
X051170Y021811D01*
X051170Y021712D02*
X052940Y021712D01*
X052940Y021614D02*
X051170Y021614D01*
X051170Y021515D02*
X052940Y021515D01*
X052940Y021417D02*
X051170Y021417D01*
X051170Y021318D02*
X052940Y021318D01*
X052940Y021220D02*
X051170Y021220D01*
X051170Y021121D02*
X052940Y021121D01*
X052940Y021023D02*
X051170Y021023D01*
X051170Y020924D02*
X052940Y020924D01*
X052940Y020826D02*
X051202Y020826D01*
X051262Y020727D02*
X052940Y020727D01*
X052940Y020629D02*
X051275Y020629D01*
X051250Y020530D02*
X052940Y020530D01*
X052940Y020432D02*
X051173Y020432D01*
X051926Y020038D02*
X052940Y020038D01*
X052940Y020136D02*
X048147Y020136D01*
X047575Y020136D02*
X044828Y020136D01*
X044729Y020235D02*
X047525Y020235D01*
X047525Y020333D02*
X044631Y020333D01*
X044580Y020432D02*
X047525Y020432D01*
X047525Y020530D02*
X044580Y020530D01*
X044580Y020629D02*
X047525Y020629D01*
X047525Y021417D02*
X045905Y021417D01*
X045878Y021515D02*
X047525Y021515D01*
X047525Y021614D02*
X044667Y021614D01*
X044675Y021515D02*
X045041Y021515D01*
X045014Y021417D02*
X044644Y021417D01*
X044559Y021318D02*
X045014Y021318D01*
X045014Y021220D02*
X044558Y021220D01*
X044296Y021304D02*
X044209Y021268D01*
X044205Y021263D01*
X042114Y021263D01*
X042110Y021268D01*
X042012Y021308D01*
X041907Y021308D01*
X041809Y021268D01*
X041805Y021263D01*
X036497Y021263D01*
X036492Y021268D01*
X036395Y021308D01*
X036289Y021308D01*
X036192Y021268D01*
X036187Y021263D01*
X035014Y021263D01*
X035010Y021268D01*
X034912Y021308D01*
X034807Y021308D01*
X034709Y021268D01*
X034705Y021263D01*
X032414Y021263D01*
X032410Y021268D01*
X032312Y021308D01*
X032207Y021308D01*
X032109Y021268D01*
X032105Y021263D01*
X026414Y021263D01*
X026410Y021268D01*
X026312Y021308D01*
X026207Y021308D01*
X026109Y021268D01*
X026105Y021263D01*
X022405Y021263D01*
X022030Y021639D01*
X022030Y023039D01*
X022034Y023043D01*
X022075Y023141D01*
X022075Y023246D01*
X022034Y023343D01*
X022030Y023348D01*
X022030Y025989D01*
X021901Y026118D01*
X021725Y026294D01*
X021725Y026300D01*
X021684Y026398D01*
X021680Y026402D01*
X021680Y027734D01*
X021551Y027863D01*
X021301Y028113D01*
X019397Y028113D01*
X019410Y028119D01*
X019474Y028183D01*
X021543Y028183D01*
X022295Y027432D01*
X022295Y027341D01*
X022335Y027243D01*
X022409Y027169D01*
X022507Y027128D01*
X022612Y027128D01*
X022710Y027169D01*
X022784Y027243D01*
X022825Y027341D01*
X022825Y027446D01*
X022784Y027543D01*
X022710Y027618D01*
X022612Y027658D01*
X022521Y027658D01*
X022311Y027868D01*
X022407Y027828D01*
X022512Y027828D01*
X022600Y027864D01*
X022600Y027827D01*
X022750Y027677D01*
X022843Y027583D01*
X023093Y027583D01*
X023493Y027183D01*
X023793Y027183D01*
X028223Y022753D01*
X025826Y022753D01*
X025420Y023160D01*
X025420Y023379D01*
X025484Y023443D01*
X025525Y023541D01*
X025525Y023646D01*
X025484Y023743D01*
X025410Y023818D01*
X025312Y023858D01*
X025207Y023858D01*
X025109Y023818D01*
X025035Y023743D01*
X024995Y023646D01*
X024995Y023541D01*
X025035Y023443D01*
X025100Y023379D01*
X025100Y023027D01*
X025600Y022527D01*
X025673Y022453D01*
X024426Y022453D01*
X024020Y022860D01*
X024020Y023129D01*
X024084Y023193D01*
X024125Y023291D01*
X024125Y023396D01*
X024084Y023493D01*
X024010Y023568D01*
X023912Y023608D01*
X023807Y023608D01*
X023709Y023568D01*
X023635Y023493D01*
X023595Y023396D01*
X023595Y023358D01*
X023525Y023358D01*
X023525Y023396D01*
X023484Y023493D01*
X023410Y023568D01*
X023312Y023608D01*
X023207Y023608D01*
X023109Y023568D01*
X023035Y023493D01*
X022995Y023396D01*
X022995Y023291D01*
X023035Y023193D01*
X023100Y023129D01*
X023100Y022327D01*
X023193Y022233D01*
X023693Y021733D01*
X034343Y021733D01*
X034543Y021533D01*
X035245Y021533D01*
X035309Y021469D01*
X035407Y021428D01*
X035512Y021428D01*
X035610Y021469D01*
X035674Y021533D01*
X039845Y021533D01*
X039909Y021469D01*
X040007Y021428D01*
X040112Y021428D01*
X040210Y021469D01*
X040274Y021533D01*
X043832Y021533D01*
X043897Y021469D01*
X043994Y021428D01*
X044100Y021428D01*
X044160Y021453D01*
X044185Y021393D01*
X044259Y021319D01*
X044296Y021304D01*
X044260Y021318D02*
X022350Y021318D01*
X022251Y021417D02*
X044175Y021417D01*
X043850Y021515D02*
X040256Y021515D01*
X039863Y021515D02*
X035656Y021515D01*
X035263Y021515D02*
X022153Y021515D01*
X022054Y021614D02*
X034463Y021614D01*
X034364Y021712D02*
X022030Y021712D01*
X022030Y021811D02*
X023616Y021811D01*
X023517Y021909D02*
X022030Y021909D01*
X022030Y022008D02*
X023419Y022008D01*
X023320Y022106D02*
X022030Y022106D01*
X022030Y022205D02*
X023222Y022205D01*
X023123Y022303D02*
X022030Y022303D01*
X022030Y022402D02*
X023100Y022402D01*
X023100Y022500D02*
X022030Y022500D01*
X022030Y022599D02*
X023100Y022599D01*
X023100Y022697D02*
X022488Y022697D01*
X022460Y022669D02*
X022534Y022743D01*
X022575Y022841D01*
X022575Y022946D01*
X022534Y023043D01*
X022470Y023108D01*
X022470Y023577D01*
X022626Y023733D01*
X024350Y023733D01*
X024350Y023706D01*
X024311Y023690D01*
X024213Y023592D01*
X024160Y023463D01*
X024160Y023324D01*
X024213Y023195D01*
X024311Y023097D01*
X024440Y023043D01*
X024579Y023043D01*
X024708Y023097D01*
X024806Y023195D01*
X024860Y023324D01*
X024860Y023463D01*
X024806Y023592D01*
X024769Y023628D01*
X024812Y023628D01*
X024910Y023669D01*
X024984Y023743D01*
X025025Y023841D01*
X025025Y023946D01*
X024984Y024043D01*
X024910Y024118D01*
X024812Y024158D01*
X024707Y024158D01*
X024609Y024118D01*
X024545Y024053D01*
X022493Y024053D01*
X022400Y023960D01*
X022150Y023710D01*
X022150Y023108D01*
X022085Y023043D01*
X022045Y022946D01*
X022045Y022841D01*
X022085Y022743D01*
X022159Y022669D01*
X022257Y022628D01*
X022362Y022628D01*
X022460Y022669D01*
X022556Y022796D02*
X023100Y022796D01*
X023100Y022894D02*
X022575Y022894D01*
X022555Y022993D02*
X023100Y022993D01*
X023100Y023091D02*
X022486Y023091D01*
X022470Y023190D02*
X023038Y023190D01*
X022995Y023288D02*
X022470Y023288D01*
X022470Y023387D02*
X022995Y023387D01*
X023032Y023485D02*
X022470Y023485D01*
X022476Y023584D02*
X023148Y023584D01*
X023371Y023584D02*
X023748Y023584D01*
X023632Y023485D02*
X023488Y023485D01*
X023525Y023387D02*
X023595Y023387D01*
X023971Y023584D02*
X024210Y023584D01*
X024169Y023485D02*
X024088Y023485D01*
X024125Y023387D02*
X024160Y023387D01*
X024174Y023288D02*
X024124Y023288D01*
X024081Y023190D02*
X024218Y023190D01*
X024324Y023091D02*
X024020Y023091D01*
X024020Y022993D02*
X025134Y022993D01*
X025100Y023091D02*
X024695Y023091D01*
X024801Y023190D02*
X025100Y023190D01*
X025100Y023288D02*
X024845Y023288D01*
X024860Y023387D02*
X025091Y023387D01*
X025017Y023485D02*
X024850Y023485D01*
X024809Y023584D02*
X024995Y023584D01*
X025010Y023682D02*
X024923Y023682D01*
X025000Y023781D02*
X025072Y023781D01*
X025025Y023879D02*
X027097Y023879D01*
X027196Y023781D02*
X025447Y023781D01*
X025509Y023682D02*
X027294Y023682D01*
X027393Y023584D02*
X025525Y023584D01*
X025502Y023485D02*
X027491Y023485D01*
X027590Y023387D02*
X025428Y023387D01*
X025420Y023288D02*
X027688Y023288D01*
X027787Y023190D02*
X025420Y023190D01*
X025488Y023091D02*
X027885Y023091D01*
X027984Y022993D02*
X025586Y022993D01*
X025685Y022894D02*
X028082Y022894D01*
X028181Y022796D02*
X025783Y022796D01*
X025528Y022599D02*
X024280Y022599D01*
X024182Y022697D02*
X025429Y022697D01*
X025331Y022796D02*
X024083Y022796D01*
X024020Y022894D02*
X025232Y022894D01*
X025626Y022500D02*
X024379Y022500D01*
X024304Y023682D02*
X022575Y023682D01*
X022319Y023879D02*
X022030Y023879D01*
X022030Y023781D02*
X022221Y023781D01*
X022150Y023682D02*
X022030Y023682D01*
X022030Y023584D02*
X022150Y023584D01*
X022150Y023485D02*
X022030Y023485D01*
X022030Y023387D02*
X022150Y023387D01*
X022150Y023288D02*
X022057Y023288D01*
X022075Y023190D02*
X022150Y023190D01*
X022133Y023091D02*
X022054Y023091D01*
X022064Y022993D02*
X022030Y022993D01*
X022030Y022894D02*
X022045Y022894D01*
X022030Y022796D02*
X022063Y022796D01*
X022030Y022697D02*
X022131Y022697D01*
X021590Y022697D02*
X018660Y022697D01*
X018660Y022599D02*
X021590Y022599D01*
X021590Y022500D02*
X018660Y022500D01*
X018660Y022402D02*
X021590Y022402D01*
X021590Y022303D02*
X018660Y022303D01*
X018660Y022205D02*
X021590Y022205D01*
X021590Y022106D02*
X018660Y022106D01*
X018660Y022008D02*
X021590Y022008D01*
X021590Y021909D02*
X018660Y021909D01*
X018660Y021811D02*
X021590Y021811D01*
X021590Y021712D02*
X018660Y021712D01*
X018660Y021614D02*
X021590Y021614D01*
X021590Y021515D02*
X018660Y021515D01*
X018660Y021417D02*
X021629Y021417D01*
X021718Y021328D02*
X021718Y021328D01*
X021728Y021318D02*
X018660Y021318D01*
X018660Y021220D02*
X021826Y021220D01*
X021925Y021121D02*
X018660Y021121D01*
X018660Y021023D02*
X022023Y021023D01*
X022094Y020952D02*
X022094Y020952D01*
X022122Y020924D02*
X018660Y020924D01*
X018660Y020826D02*
X022220Y020826D01*
X021813Y019447D02*
X048706Y019447D01*
X048607Y019348D02*
X021912Y019348D01*
X021970Y019250D02*
X048549Y019250D01*
X048508Y019151D02*
X022011Y019151D01*
X022024Y019053D02*
X048495Y019053D01*
X048495Y018954D02*
X022024Y018954D01*
X022004Y018856D02*
X048515Y018856D01*
X048556Y018757D02*
X021963Y018757D01*
X021896Y018659D02*
X048623Y018659D01*
X048721Y018560D02*
X021798Y018560D01*
X019805Y017772D02*
X052110Y017772D01*
X052110Y017871D02*
X019706Y017871D01*
X018091Y018659D02*
X016410Y018659D01*
X016410Y018757D02*
X018060Y018757D01*
X018060Y018856D02*
X016410Y018856D01*
X016410Y018954D02*
X018060Y018954D01*
X018060Y019053D02*
X016410Y019053D01*
X016410Y019151D02*
X018060Y019151D01*
X018060Y019250D02*
X016410Y019250D01*
X016410Y019348D02*
X018060Y019348D01*
X018060Y019447D02*
X016410Y019447D01*
X016410Y019545D02*
X018060Y019545D01*
X018060Y019644D02*
X016410Y019644D01*
X016410Y019742D02*
X018060Y019742D01*
X018060Y019841D02*
X016410Y019841D01*
X016410Y019939D02*
X018060Y019939D01*
X018060Y020038D02*
X016410Y020038D01*
X016410Y020136D02*
X018060Y020136D01*
X018060Y020235D02*
X016410Y020235D01*
X016410Y020333D02*
X018060Y020333D01*
X018060Y020432D02*
X016410Y020432D01*
X016410Y020530D02*
X018060Y020530D01*
X018060Y020629D02*
X016410Y020629D01*
X016410Y020727D02*
X018060Y020727D01*
X018060Y020826D02*
X016410Y020826D01*
X016410Y020924D02*
X018060Y020924D01*
X018060Y021023D02*
X016410Y021023D01*
X016410Y021121D02*
X018060Y021121D01*
X018060Y021220D02*
X016410Y021220D01*
X016410Y021318D02*
X018060Y021318D01*
X018060Y021417D02*
X016410Y021417D01*
X016410Y021515D02*
X018060Y021515D01*
X018060Y021614D02*
X016410Y021614D01*
X016410Y021712D02*
X018060Y021712D01*
X018060Y021811D02*
X016410Y021811D01*
X016410Y021909D02*
X018060Y021909D01*
X018060Y022008D02*
X016410Y022008D01*
X016410Y022106D02*
X018060Y022106D01*
X018060Y022205D02*
X016410Y022205D01*
X016410Y022303D02*
X018060Y022303D01*
X018060Y022402D02*
X016410Y022402D01*
X016410Y022500D02*
X018060Y022500D01*
X018060Y022599D02*
X016410Y022599D01*
X016410Y022697D02*
X018060Y022697D01*
X018060Y022796D02*
X016410Y022796D01*
X016410Y022894D02*
X018060Y022894D01*
X018060Y022993D02*
X016410Y022993D01*
X016410Y023091D02*
X018060Y023091D01*
X018060Y023190D02*
X016410Y023190D01*
X016410Y023288D02*
X018060Y023288D01*
X018060Y023387D02*
X016410Y023387D01*
X016410Y023485D02*
X018060Y023485D01*
X018060Y023584D02*
X016410Y023584D01*
X016410Y023682D02*
X018060Y023682D01*
X018060Y023781D02*
X016410Y023781D01*
X016410Y023879D02*
X018060Y023879D01*
X018060Y023978D02*
X016410Y023978D01*
X016410Y024076D02*
X018060Y024076D01*
X018060Y024175D02*
X016410Y024175D01*
X016410Y024273D02*
X018060Y024273D01*
X018060Y024372D02*
X016410Y024372D01*
X016410Y024470D02*
X018067Y024470D01*
X018111Y024569D02*
X016410Y024569D01*
X016410Y024667D02*
X018237Y024667D01*
X018482Y024667D02*
X021590Y024667D01*
X021590Y024569D02*
X018608Y024569D01*
X018652Y024470D02*
X021590Y024470D01*
X021590Y024372D02*
X018660Y024372D01*
X018660Y024273D02*
X021590Y024273D01*
X021590Y024175D02*
X018660Y024175D01*
X018660Y024076D02*
X021590Y024076D01*
X021590Y023978D02*
X018660Y023978D01*
X018660Y023879D02*
X021590Y023879D01*
X021590Y023781D02*
X018660Y023781D01*
X018660Y023682D02*
X021590Y023682D01*
X021590Y023584D02*
X018660Y023584D01*
X018660Y023485D02*
X021590Y023485D01*
X021590Y023387D02*
X018660Y023387D01*
X018660Y023288D02*
X021562Y023288D01*
X021545Y023190D02*
X018660Y023190D01*
X018660Y023091D02*
X021565Y023091D01*
X021590Y022993D02*
X018660Y022993D01*
X018660Y022894D02*
X021590Y022894D01*
X021590Y022796D02*
X018660Y022796D01*
X016410Y024766D02*
X021590Y024766D01*
X021590Y024864D02*
X016410Y024864D01*
X016410Y024963D02*
X021590Y024963D01*
X021590Y025061D02*
X016410Y025061D01*
X016410Y025160D02*
X021590Y025160D01*
X021590Y025258D02*
X016410Y025258D01*
X016410Y025357D02*
X021590Y025357D01*
X021590Y025455D02*
X016410Y025455D01*
X016410Y025554D02*
X021590Y025554D01*
X021590Y025652D02*
X016410Y025652D01*
X016410Y025751D02*
X021590Y025751D01*
X021547Y025849D02*
X016410Y025849D01*
X016410Y025948D02*
X021448Y025948D01*
X021286Y026046D02*
X016410Y026046D01*
X016410Y026145D02*
X021215Y026145D01*
X021195Y026243D02*
X016410Y026243D01*
X016410Y026342D02*
X021212Y026342D01*
X021240Y026440D02*
X016410Y026440D01*
X016410Y026539D02*
X021240Y026539D01*
X021240Y026637D02*
X016410Y026637D01*
X016410Y026736D02*
X021240Y026736D01*
X021240Y026834D02*
X016410Y026834D01*
X016410Y026933D02*
X021240Y026933D01*
X021240Y027031D02*
X016410Y027031D01*
X016410Y027130D02*
X021240Y027130D01*
X021240Y027228D02*
X016410Y027228D01*
X016410Y027327D02*
X021240Y027327D01*
X021240Y027425D02*
X016410Y027425D01*
X016410Y027524D02*
X021240Y027524D01*
X021169Y027622D02*
X016410Y027622D01*
X016410Y027721D02*
X017057Y027721D01*
X017003Y027819D02*
X016410Y027819D01*
X016410Y027918D02*
X016995Y027918D01*
X017024Y028016D02*
X016410Y028016D01*
X016410Y028115D02*
X017040Y028115D01*
X017040Y028213D02*
X016410Y028213D01*
X016410Y028312D02*
X017040Y028312D01*
X017040Y028410D02*
X016410Y028410D01*
X016410Y028509D02*
X017040Y028509D01*
X017040Y028607D02*
X016410Y028607D01*
X016410Y028706D02*
X017040Y028706D01*
X017040Y028804D02*
X016410Y028804D01*
X016410Y028903D02*
X017040Y028903D01*
X017040Y029001D02*
X016410Y029001D01*
X016410Y029100D02*
X017040Y029100D01*
X017040Y029198D02*
X016410Y029198D01*
X016410Y029297D02*
X017040Y029297D01*
X017040Y029395D02*
X016410Y029395D01*
X016410Y029494D02*
X017040Y029494D01*
X017040Y029592D02*
X016410Y029592D01*
X016410Y029691D02*
X017040Y029691D01*
X017040Y029789D02*
X016410Y029789D01*
X016410Y029888D02*
X017040Y029888D01*
X017040Y029986D02*
X016410Y029986D01*
X016410Y030085D02*
X017040Y030085D01*
X017040Y030183D02*
X016410Y030183D01*
X016410Y030282D02*
X017040Y030282D01*
X017040Y030380D02*
X016410Y030380D01*
X016410Y030479D02*
X017040Y030479D01*
X017040Y030577D02*
X016410Y030577D01*
X016410Y030676D02*
X017040Y030676D01*
X017040Y030774D02*
X016410Y030774D01*
X016410Y030873D02*
X017040Y030873D01*
X017040Y030971D02*
X016410Y030971D01*
X016410Y031070D02*
X017040Y031070D01*
X017040Y031168D02*
X016410Y031168D01*
X016410Y031267D02*
X017040Y031267D01*
X017040Y031365D02*
X016410Y031365D01*
X016410Y031464D02*
X017040Y031464D01*
X017040Y031562D02*
X016410Y031562D01*
X016410Y031661D02*
X017040Y031661D01*
X017040Y031759D02*
X016410Y031759D01*
X016410Y031858D02*
X017040Y031858D01*
X017040Y031956D02*
X016410Y031956D01*
X016410Y032055D02*
X017040Y032055D01*
X017040Y032153D02*
X016410Y032153D01*
X016410Y032252D02*
X017040Y032252D01*
X017040Y032350D02*
X016410Y032350D01*
X016410Y032449D02*
X017040Y032449D01*
X017040Y032547D02*
X016410Y032547D01*
X016410Y032646D02*
X017040Y032646D01*
X017040Y032744D02*
X016410Y032744D01*
X016410Y032843D02*
X017040Y032843D01*
X017040Y032941D02*
X016410Y032941D01*
X016410Y033040D02*
X017040Y033040D01*
X017040Y033138D02*
X016410Y033138D01*
X016410Y033237D02*
X017040Y033237D01*
X017040Y033335D02*
X016410Y033335D01*
X016410Y033434D02*
X017040Y033434D01*
X017019Y033532D02*
X016410Y033532D01*
X016410Y033631D02*
X016995Y033631D01*
X017008Y033729D02*
X016410Y033729D01*
X016410Y033828D02*
X017069Y033828D01*
X017450Y033828D02*
X020760Y033828D01*
X020760Y033926D02*
X016410Y033926D01*
X016410Y034025D02*
X020760Y034025D01*
X020760Y034123D02*
X016410Y034123D01*
X016410Y034222D02*
X020760Y034222D01*
X020760Y034320D02*
X018075Y034320D01*
X018128Y034342D02*
X018311Y034525D01*
X018410Y034764D01*
X018410Y035023D01*
X018311Y035262D01*
X018128Y035444D01*
X017889Y035543D01*
X017630Y035543D01*
X017391Y035444D01*
X017208Y035262D01*
X017110Y035023D01*
X017110Y034764D01*
X017208Y034525D01*
X017391Y034342D01*
X017630Y034243D01*
X017889Y034243D01*
X018128Y034342D01*
X018204Y034419D02*
X020760Y034419D01*
X020760Y034517D02*
X018303Y034517D01*
X018348Y034616D02*
X020760Y034616D01*
X020760Y034714D02*
X018389Y034714D01*
X018410Y034813D02*
X020760Y034813D01*
X020760Y034911D02*
X018410Y034911D01*
X018410Y035010D02*
X020760Y035010D01*
X020760Y035108D02*
X018374Y035108D01*
X018333Y035207D02*
X020760Y035207D01*
X020760Y035305D02*
X018267Y035305D01*
X018168Y035404D02*
X020760Y035404D01*
X020760Y035502D02*
X017988Y035502D01*
X017531Y035502D02*
X016566Y035502D01*
X016511Y035404D02*
X017351Y035404D01*
X017252Y035305D02*
X016484Y035305D01*
X016458Y035207D02*
X017186Y035207D01*
X017145Y035108D02*
X016431Y035108D01*
X016417Y035010D02*
X017110Y035010D01*
X017110Y034911D02*
X016411Y034911D01*
X016410Y034813D02*
X017110Y034813D01*
X017130Y034714D02*
X016410Y034714D01*
X016410Y034616D02*
X017171Y034616D01*
X017216Y034517D02*
X016410Y034517D01*
X016410Y034419D02*
X017315Y034419D01*
X017444Y034320D02*
X016410Y034320D01*
X017511Y033729D02*
X020760Y033729D01*
X020760Y033631D02*
X019442Y033631D01*
X019428Y033645D02*
X019319Y033690D01*
X019200Y033690D01*
X019091Y033645D01*
X019008Y033561D01*
X018963Y033452D01*
X018963Y033334D01*
X019008Y033225D01*
X019091Y033142D01*
X019200Y033096D01*
X019319Y033096D01*
X019428Y033142D01*
X019511Y033225D01*
X019556Y033334D01*
X019556Y033452D01*
X019511Y033561D01*
X019428Y033645D01*
X019523Y033532D02*
X020760Y033532D01*
X020760Y033434D02*
X019556Y033434D01*
X019556Y033335D02*
X020760Y033335D01*
X020760Y033237D02*
X019516Y033237D01*
X019420Y033138D02*
X020760Y033138D01*
X020760Y033040D02*
X017480Y033040D01*
X017480Y033138D02*
X019099Y033138D01*
X019003Y033237D02*
X017480Y033237D01*
X017480Y033335D02*
X018963Y033335D01*
X018963Y033434D02*
X017480Y033434D01*
X017500Y033532D02*
X018996Y033532D01*
X019077Y033631D02*
X017525Y033631D01*
X017480Y032941D02*
X020760Y032941D01*
X020760Y032843D02*
X017480Y032843D01*
X017480Y032744D02*
X020760Y032744D01*
X020760Y032646D02*
X017480Y032646D01*
X017480Y032547D02*
X020760Y032547D01*
X020760Y032449D02*
X017480Y032449D01*
X017480Y032350D02*
X019542Y032350D01*
X019468Y032252D02*
X017480Y032252D01*
X017480Y032153D02*
X019445Y032153D01*
X019459Y032055D02*
X017480Y032055D01*
X017480Y031956D02*
X019522Y031956D01*
X019550Y031858D02*
X017480Y031858D01*
X017480Y031759D02*
X019550Y031759D01*
X019550Y031661D02*
X017480Y031661D01*
X017480Y031562D02*
X019550Y031562D01*
X019550Y031464D02*
X017480Y031464D01*
X017480Y031365D02*
X019550Y031365D01*
X019550Y031267D02*
X017480Y031267D01*
X017480Y031168D02*
X019550Y031168D01*
X019550Y031070D02*
X017480Y031070D01*
X017480Y030971D02*
X019550Y030971D01*
X019550Y030873D02*
X017480Y030873D01*
X017480Y030774D02*
X019550Y030774D01*
X019550Y030676D02*
X017480Y030676D01*
X017480Y030577D02*
X019550Y030577D01*
X019550Y030479D02*
X017480Y030479D01*
X017480Y030380D02*
X019550Y030380D01*
X019550Y030282D02*
X017480Y030282D01*
X017480Y030183D02*
X019550Y030183D01*
X019550Y030085D02*
X017480Y030085D01*
X017480Y029986D02*
X019550Y029986D01*
X019550Y029888D02*
X017480Y029888D01*
X017480Y029789D02*
X019550Y029789D01*
X019550Y029691D02*
X017480Y029691D01*
X017480Y029592D02*
X019550Y029592D01*
X019550Y029494D02*
X017480Y029494D01*
X017480Y029395D02*
X019550Y029395D01*
X019550Y029297D02*
X017480Y029297D01*
X017480Y029198D02*
X019550Y029198D01*
X019550Y029100D02*
X017480Y029100D01*
X017480Y029001D02*
X019550Y029001D01*
X019550Y028903D02*
X017480Y028903D01*
X017480Y028804D02*
X019550Y028804D01*
X019571Y028706D02*
X017480Y028706D01*
X017480Y028607D02*
X019204Y028607D01*
X019315Y028607D02*
X019669Y028607D01*
X019768Y028509D02*
X019469Y028509D01*
X019400Y028115D02*
X021612Y028115D01*
X021710Y028016D02*
X021398Y028016D01*
X021496Y027918D02*
X021809Y027918D01*
X021907Y027819D02*
X021595Y027819D01*
X021680Y027721D02*
X022006Y027721D01*
X022104Y027622D02*
X021680Y027622D01*
X021680Y027524D02*
X022203Y027524D01*
X022295Y027425D02*
X021680Y027425D01*
X021680Y027327D02*
X022300Y027327D01*
X022350Y027228D02*
X021680Y027228D01*
X021680Y027130D02*
X022503Y027130D01*
X022616Y027130D02*
X023847Y027130D01*
X023945Y027031D02*
X021680Y027031D01*
X021680Y026933D02*
X024044Y026933D01*
X024142Y026834D02*
X021680Y026834D01*
X021680Y026736D02*
X024241Y026736D01*
X024339Y026637D02*
X021680Y026637D01*
X021680Y026539D02*
X024438Y026539D01*
X024536Y026440D02*
X021680Y026440D01*
X021707Y026342D02*
X024635Y026342D01*
X024733Y026243D02*
X021775Y026243D01*
X021873Y026145D02*
X024832Y026145D01*
X024930Y026046D02*
X021972Y026046D01*
X022030Y025948D02*
X025029Y025948D01*
X025127Y025849D02*
X022030Y025849D01*
X022030Y025751D02*
X025226Y025751D01*
X025324Y025652D02*
X022030Y025652D01*
X022030Y025554D02*
X025423Y025554D01*
X025521Y025455D02*
X022030Y025455D01*
X022030Y025357D02*
X025620Y025357D01*
X025718Y025258D02*
X022030Y025258D01*
X022030Y025160D02*
X025817Y025160D01*
X025915Y025061D02*
X022030Y025061D01*
X022030Y024963D02*
X026014Y024963D01*
X026112Y024864D02*
X022030Y024864D01*
X022030Y024766D02*
X026211Y024766D01*
X026309Y024667D02*
X022030Y024667D01*
X022030Y024569D02*
X026408Y024569D01*
X026506Y024470D02*
X022030Y024470D01*
X022030Y024372D02*
X026605Y024372D01*
X026703Y024273D02*
X022030Y024273D01*
X022030Y024175D02*
X026802Y024175D01*
X026900Y024076D02*
X024951Y024076D01*
X025011Y023978D02*
X026999Y023978D01*
X027413Y024766D02*
X027462Y024766D01*
X027405Y024864D02*
X027315Y024864D01*
X027395Y024963D02*
X027216Y024963D01*
X027118Y025061D02*
X027422Y025061D01*
X027501Y025160D02*
X027019Y025160D01*
X026921Y025258D02*
X027718Y025258D01*
X027620Y025357D02*
X026822Y025357D01*
X026724Y025455D02*
X027521Y025455D01*
X027423Y025554D02*
X026625Y025554D01*
X026527Y025652D02*
X027324Y025652D01*
X027226Y025751D02*
X026428Y025751D01*
X026330Y025849D02*
X027127Y025849D01*
X027029Y025948D02*
X026231Y025948D01*
X026133Y026046D02*
X026930Y026046D01*
X026482Y026145D02*
X026034Y026145D01*
X025936Y026243D02*
X026383Y026243D01*
X026285Y026342D02*
X025837Y026342D01*
X025739Y026440D02*
X026186Y026440D01*
X026088Y026539D02*
X025640Y026539D01*
X025542Y026637D02*
X025989Y026637D01*
X025891Y026736D02*
X025443Y026736D01*
X025345Y026834D02*
X025792Y026834D01*
X025694Y026933D02*
X025246Y026933D01*
X025148Y027031D02*
X025595Y027031D01*
X025500Y027130D02*
X025049Y027130D01*
X024951Y027228D02*
X025500Y027228D01*
X025500Y027327D02*
X024852Y027327D01*
X024754Y027425D02*
X025500Y027425D01*
X025500Y027524D02*
X024655Y027524D01*
X024557Y027622D02*
X025500Y027622D01*
X025500Y027721D02*
X024458Y027721D01*
X024360Y027819D02*
X025500Y027819D01*
X025500Y027918D02*
X024261Y027918D01*
X024163Y028016D02*
X025500Y028016D01*
X025463Y028115D02*
X023975Y028115D01*
X023947Y028213D02*
X025406Y028213D01*
X025395Y028312D02*
X023866Y028312D01*
X023625Y028410D02*
X025421Y028410D01*
X025500Y028509D02*
X023598Y028509D01*
X023520Y028607D02*
X026876Y028607D01*
X026986Y028607D02*
X028571Y028607D01*
X028509Y028706D02*
X020023Y028706D01*
X019925Y028804D02*
X028495Y028804D01*
X028518Y028903D02*
X019870Y028903D01*
X019870Y029001D02*
X028593Y029001D01*
X027442Y028312D02*
X030430Y028312D01*
X030331Y028410D02*
X027344Y028410D01*
X027140Y028509D02*
X030233Y028509D01*
X030528Y028213D02*
X027470Y028213D01*
X027470Y028115D02*
X030540Y028115D01*
X030540Y028016D02*
X027470Y028016D01*
X027511Y027918D02*
X030540Y027918D01*
X030540Y027819D02*
X027610Y027819D01*
X027708Y027721D02*
X030540Y027721D01*
X030540Y027622D02*
X027807Y027622D01*
X027905Y027524D02*
X030540Y027524D01*
X030540Y027425D02*
X028004Y027425D01*
X028102Y027327D02*
X030540Y027327D01*
X030540Y027228D02*
X028201Y027228D01*
X028299Y027130D02*
X030540Y027130D01*
X030540Y027031D02*
X028398Y027031D01*
X028496Y026933D02*
X030540Y026933D01*
X030540Y026834D02*
X028595Y026834D01*
X028693Y026736D02*
X030606Y026736D01*
X030704Y026637D02*
X028792Y026637D01*
X028890Y026539D02*
X030803Y026539D01*
X030901Y026440D02*
X030287Y026440D01*
X030356Y026342D02*
X031000Y026342D01*
X031098Y026243D02*
X030375Y026243D01*
X030356Y026145D02*
X031197Y026145D01*
X031295Y026046D02*
X030287Y026046D01*
X029932Y026046D02*
X029687Y026046D01*
X029481Y025948D02*
X031394Y025948D01*
X032093Y026736D02*
X038650Y026736D01*
X038650Y026834D02*
X031995Y026834D01*
X031936Y026893D02*
X038650Y026893D01*
X038650Y026060D01*
X038493Y025903D01*
X035570Y025903D01*
X035610Y025943D01*
X035650Y026041D01*
X035650Y026146D01*
X035614Y026233D01*
X036693Y026233D01*
X036843Y026083D01*
X037295Y026083D01*
X037359Y026019D01*
X037457Y025978D01*
X037562Y025978D01*
X037660Y026019D01*
X037734Y026093D01*
X037775Y026191D01*
X037775Y026296D01*
X037734Y026393D01*
X037660Y026468D01*
X037562Y026508D01*
X037457Y026508D01*
X037359Y026468D01*
X037295Y026403D01*
X036976Y026403D01*
X036826Y026553D01*
X032276Y026553D01*
X031936Y026893D01*
X032192Y026637D02*
X038650Y026637D01*
X038650Y026539D02*
X036840Y026539D01*
X036939Y026440D02*
X037332Y026440D01*
X037687Y026440D02*
X038650Y026440D01*
X038650Y026342D02*
X037756Y026342D01*
X037775Y026243D02*
X038650Y026243D01*
X038650Y026145D02*
X037756Y026145D01*
X037687Y026046D02*
X038636Y026046D01*
X038538Y025948D02*
X035612Y025948D01*
X035650Y026046D02*
X037332Y026046D01*
X037225Y025554D02*
X039030Y025554D01*
X039035Y025543D02*
X039109Y025469D01*
X039207Y025428D01*
X039312Y025428D01*
X039410Y025469D01*
X039474Y025533D01*
X039535Y025533D01*
X039535Y025455D01*
X039593Y025396D01*
X041126Y025396D01*
X041185Y025455D01*
X041185Y025932D01*
X041126Y025990D01*
X039593Y025990D01*
X039535Y025932D01*
X039535Y025853D01*
X039474Y025853D01*
X039410Y025918D01*
X039312Y025958D01*
X039207Y025958D01*
X039109Y025918D01*
X039035Y025843D01*
X038995Y025746D01*
X038995Y025641D01*
X039035Y025543D01*
X038995Y025652D02*
X038695Y025652D01*
X038793Y025751D02*
X038997Y025751D01*
X039041Y025849D02*
X038892Y025849D01*
X038970Y025948D02*
X039182Y025948D01*
X039338Y025948D02*
X039551Y025948D01*
X039593Y026396D02*
X041126Y026396D01*
X041185Y026455D01*
X041185Y026932D01*
X041126Y026990D01*
X039593Y026990D01*
X039535Y026932D01*
X039535Y026853D01*
X039474Y026853D01*
X039410Y026918D01*
X039312Y026958D01*
X039207Y026958D01*
X039109Y026918D01*
X039035Y026843D01*
X038995Y026746D01*
X038995Y026641D01*
X039035Y026543D01*
X039109Y026469D01*
X039207Y026428D01*
X039312Y026428D01*
X039410Y026469D01*
X039474Y026533D01*
X039535Y026533D01*
X039535Y026455D01*
X039593Y026396D01*
X039549Y026440D02*
X039341Y026440D01*
X039178Y026440D02*
X038970Y026440D01*
X038970Y026342D02*
X050895Y026342D01*
X050895Y026440D02*
X048341Y026440D01*
X048312Y026428D02*
X048410Y026469D01*
X048484Y026543D01*
X048525Y026641D01*
X048525Y026746D01*
X048484Y026843D01*
X048410Y026918D01*
X048312Y026958D01*
X048207Y026958D01*
X048109Y026918D01*
X048045Y026853D01*
X047985Y026853D01*
X047985Y026932D01*
X047926Y026990D01*
X046393Y026990D01*
X046335Y026932D01*
X046335Y026455D01*
X046393Y026396D01*
X047926Y026396D01*
X047985Y026455D01*
X047985Y026533D01*
X048045Y026533D01*
X048109Y026469D01*
X048207Y026428D01*
X048312Y026428D01*
X048178Y026440D02*
X047970Y026440D01*
X047926Y025990D02*
X046393Y025990D01*
X046335Y025932D01*
X046335Y025455D01*
X046393Y025396D01*
X047926Y025396D01*
X047985Y025455D01*
X047985Y025473D01*
X048105Y025473D01*
X048109Y025469D01*
X048207Y025428D01*
X048312Y025428D01*
X048410Y025469D01*
X048484Y025543D01*
X048525Y025641D01*
X048525Y025746D01*
X048484Y025843D01*
X048410Y025918D01*
X048312Y025958D01*
X048207Y025958D01*
X048109Y025918D01*
X048105Y025913D01*
X047985Y025913D01*
X047985Y025932D01*
X047926Y025990D01*
X047968Y025948D02*
X048182Y025948D01*
X048338Y025948D02*
X051000Y025948D01*
X051000Y026046D02*
X038970Y026046D01*
X038970Y026145D02*
X051000Y026145D01*
X050935Y026243D02*
X038970Y026243D01*
X038970Y026539D02*
X039039Y026539D01*
X038996Y026637D02*
X038970Y026637D01*
X038970Y026736D02*
X038995Y026736D01*
X038970Y026834D02*
X039031Y026834D01*
X038970Y026933D02*
X039145Y026933D01*
X038970Y027031D02*
X051600Y027031D01*
X051600Y026933D02*
X048374Y026933D01*
X048488Y026834D02*
X051600Y026834D01*
X051600Y026736D02*
X048525Y026736D01*
X048523Y026637D02*
X051056Y026637D01*
X050933Y026539D02*
X048480Y026539D01*
X048145Y026933D02*
X047983Y026933D01*
X047904Y027346D02*
X047208Y027346D01*
X047208Y027645D01*
X047208Y027742D01*
X047111Y027742D01*
X047111Y028040D01*
X046415Y028040D01*
X046377Y028030D01*
X046342Y028010D01*
X046314Y027982D01*
X046295Y027948D01*
X046285Y027910D01*
X046285Y027742D01*
X047111Y027742D01*
X047111Y027645D01*
X046285Y027645D01*
X046285Y027477D01*
X046295Y027439D01*
X046314Y027404D01*
X046342Y027376D01*
X046377Y027357D01*
X046415Y027346D01*
X047111Y027346D01*
X047111Y027645D01*
X047208Y027645D01*
X048035Y027645D01*
X048035Y027477D01*
X048024Y027439D01*
X048005Y027404D01*
X047977Y027376D01*
X047942Y027357D01*
X047904Y027346D01*
X048017Y027425D02*
X051600Y027425D01*
X051600Y027327D02*
X038970Y027327D01*
X038970Y027228D02*
X051600Y027228D01*
X051600Y027130D02*
X038970Y027130D01*
X039018Y027425D02*
X039564Y027425D01*
X039535Y027524D02*
X039116Y027524D01*
X038861Y027721D02*
X038760Y027721D01*
X038760Y027819D02*
X038959Y027819D01*
X038760Y027918D02*
X039535Y027918D01*
X038760Y028016D02*
X046353Y028016D01*
X046287Y027918D02*
X046185Y027918D01*
X046185Y027932D02*
X046126Y027990D01*
X044593Y027990D01*
X044535Y027932D01*
X044535Y027853D01*
X044262Y027853D01*
X044197Y027918D01*
X044100Y027958D01*
X043994Y027958D01*
X043897Y027918D01*
X043822Y027843D01*
X043782Y027746D01*
X043782Y027641D01*
X043822Y027543D01*
X043897Y027469D01*
X043994Y027428D01*
X044100Y027428D01*
X044197Y027469D01*
X044262Y027533D01*
X044535Y027533D01*
X044535Y027455D01*
X044593Y027396D01*
X046126Y027396D01*
X046185Y027455D01*
X046185Y027932D01*
X046185Y027819D02*
X046285Y027819D01*
X046185Y027721D02*
X047111Y027721D01*
X047208Y027721D02*
X051600Y027721D01*
X051600Y027819D02*
X048035Y027819D01*
X048035Y027742D02*
X048035Y027910D01*
X048024Y027948D01*
X048005Y027982D01*
X047977Y028010D01*
X047942Y028030D01*
X047904Y028040D01*
X047208Y028040D01*
X047208Y027742D01*
X048035Y027742D01*
X048035Y027622D02*
X051600Y027622D01*
X051600Y027524D02*
X048035Y027524D01*
X048032Y027918D02*
X051600Y027918D01*
X051600Y028016D02*
X047966Y028016D01*
X047208Y028016D02*
X047111Y028016D01*
X047111Y027918D02*
X047208Y027918D01*
X047208Y027819D02*
X047111Y027819D01*
X047111Y027622D02*
X047208Y027622D01*
X047208Y027524D02*
X047111Y027524D01*
X047111Y027425D02*
X047208Y027425D01*
X046302Y027425D02*
X046155Y027425D01*
X046185Y027524D02*
X046285Y027524D01*
X046285Y027622D02*
X046185Y027622D01*
X046126Y026990D02*
X044593Y026990D01*
X044535Y026932D01*
X044535Y026853D01*
X044262Y026853D01*
X044197Y026918D01*
X044100Y026958D01*
X043994Y026958D01*
X043897Y026918D01*
X043822Y026843D01*
X043782Y026746D01*
X043782Y026641D01*
X043822Y026543D01*
X043897Y026469D01*
X043994Y026428D01*
X044100Y026428D01*
X044197Y026469D01*
X044262Y026533D01*
X044535Y026533D01*
X044535Y026455D01*
X044593Y026396D01*
X046126Y026396D01*
X046185Y026455D01*
X046185Y026932D01*
X046126Y026990D01*
X046183Y026933D02*
X046336Y026933D01*
X046335Y026834D02*
X046185Y026834D01*
X046185Y026736D02*
X046335Y026736D01*
X046335Y026637D02*
X046185Y026637D01*
X046185Y026539D02*
X046335Y026539D01*
X046349Y026440D02*
X046170Y026440D01*
X046126Y025990D02*
X044593Y025990D01*
X044535Y025932D01*
X044535Y025853D01*
X044162Y025853D01*
X044097Y025918D01*
X044000Y025958D01*
X043894Y025958D01*
X043797Y025918D01*
X043722Y025843D01*
X043682Y025746D01*
X043682Y025641D01*
X043722Y025543D01*
X043797Y025469D01*
X043894Y025428D01*
X044000Y025428D01*
X044097Y025469D01*
X044162Y025533D01*
X044535Y025533D01*
X044535Y025455D01*
X044593Y025396D01*
X046126Y025396D01*
X046185Y025455D01*
X046185Y025932D01*
X046126Y025990D01*
X046168Y025948D02*
X046351Y025948D01*
X046335Y025849D02*
X046185Y025849D01*
X046185Y025751D02*
X046335Y025751D01*
X046335Y025652D02*
X046185Y025652D01*
X046185Y025554D02*
X046335Y025554D01*
X046335Y025455D02*
X046185Y025455D01*
X044535Y025455D02*
X044065Y025455D01*
X043829Y025455D02*
X042985Y025455D01*
X042985Y025932D01*
X042926Y025990D01*
X041393Y025990D01*
X041335Y025932D01*
X041335Y025455D01*
X041393Y025396D01*
X042926Y025396D01*
X042985Y025455D01*
X042985Y025554D02*
X043718Y025554D01*
X043682Y025652D02*
X042985Y025652D01*
X042985Y025751D02*
X043684Y025751D01*
X043728Y025849D02*
X042985Y025849D01*
X042968Y025948D02*
X043869Y025948D01*
X044025Y025948D02*
X044551Y025948D01*
X044549Y026440D02*
X044129Y026440D01*
X043965Y026440D02*
X042970Y026440D01*
X042985Y026455D02*
X042985Y026932D01*
X042926Y026990D01*
X041393Y026990D01*
X041335Y026932D01*
X041335Y026455D01*
X041393Y026396D01*
X042926Y026396D01*
X042985Y026455D01*
X042985Y026539D02*
X043827Y026539D01*
X043783Y026637D02*
X042985Y026637D01*
X042985Y026736D02*
X043782Y026736D01*
X043818Y026834D02*
X042985Y026834D01*
X042983Y026933D02*
X043933Y026933D01*
X044161Y026933D02*
X044536Y026933D01*
X044564Y027425D02*
X042955Y027425D01*
X042926Y027396D02*
X042985Y027455D01*
X042985Y027473D01*
X043105Y027473D01*
X043109Y027469D01*
X043207Y027428D01*
X043312Y027428D01*
X043410Y027469D01*
X043484Y027543D01*
X043525Y027641D01*
X043525Y027746D01*
X043484Y027843D01*
X043410Y027918D01*
X043897Y027918D01*
X043812Y027819D02*
X043494Y027819D01*
X043525Y027721D02*
X043782Y027721D01*
X043789Y027622D02*
X043517Y027622D01*
X043465Y027524D02*
X043842Y027524D01*
X044252Y027524D02*
X044535Y027524D01*
X044535Y027918D02*
X044197Y027918D01*
X043410Y027918D02*
X043312Y027958D01*
X043207Y027958D01*
X043109Y027918D01*
X042985Y027918D01*
X042985Y027913D02*
X042985Y027932D01*
X042926Y027990D01*
X041393Y027990D01*
X041335Y027932D01*
X041335Y027455D01*
X041393Y027396D01*
X042926Y027396D01*
X042985Y027913D02*
X043105Y027913D01*
X043109Y027918D01*
X041335Y027918D02*
X041185Y027918D01*
X041185Y027819D02*
X041335Y027819D01*
X041335Y027721D02*
X041185Y027721D01*
X041185Y027622D02*
X041335Y027622D01*
X041335Y027524D02*
X041185Y027524D01*
X041155Y027425D02*
X041364Y027425D01*
X041336Y026933D02*
X041183Y026933D01*
X041185Y026834D02*
X041335Y026834D01*
X041335Y026736D02*
X041185Y026736D01*
X041185Y026637D02*
X041335Y026637D01*
X041335Y026539D02*
X041185Y026539D01*
X041170Y026440D02*
X041349Y026440D01*
X041351Y025948D02*
X041168Y025948D01*
X041185Y025849D02*
X041335Y025849D01*
X041335Y025751D02*
X041185Y025751D01*
X041185Y025652D02*
X041335Y025652D01*
X041335Y025554D02*
X041185Y025554D01*
X041185Y025455D02*
X041335Y025455D01*
X039535Y025455D02*
X039377Y025455D01*
X039142Y025455D02*
X037324Y025455D01*
X037422Y025357D02*
X050697Y025357D01*
X050795Y025455D02*
X048377Y025455D01*
X048489Y025554D02*
X050894Y025554D01*
X050992Y025652D02*
X048525Y025652D01*
X048523Y025751D02*
X051000Y025751D01*
X051000Y025849D02*
X048478Y025849D01*
X048142Y025455D02*
X047985Y025455D01*
X048025Y023879D02*
X048097Y023879D01*
X048000Y023781D02*
X048196Y023781D01*
X048250Y023682D02*
X047923Y023682D01*
X047911Y023409D02*
X047911Y023014D01*
X047811Y023014D01*
X047811Y023409D01*
X047605Y023409D01*
X047567Y023399D01*
X047533Y023379D01*
X047505Y023351D01*
X047485Y023317D01*
X047475Y023279D01*
X047475Y023014D01*
X047811Y023014D01*
X047811Y022914D01*
X047475Y022914D01*
X047475Y022649D01*
X047485Y022611D01*
X047505Y022576D01*
X047533Y022548D01*
X047567Y022529D01*
X047605Y022519D01*
X047811Y022519D01*
X047811Y022914D01*
X047911Y022914D01*
X047911Y023014D01*
X048247Y023014D01*
X048247Y023279D01*
X048237Y023317D01*
X048217Y023351D01*
X048189Y023379D01*
X048155Y023399D01*
X048117Y023409D01*
X047911Y023409D01*
X047911Y023387D02*
X047811Y023387D01*
X047811Y023288D02*
X047911Y023288D01*
X047911Y023190D02*
X047811Y023190D01*
X047811Y023091D02*
X047911Y023091D01*
X047911Y022993D02*
X048250Y022993D01*
X048247Y022914D02*
X047911Y022914D01*
X047911Y022519D01*
X048117Y022519D01*
X048155Y022529D01*
X048189Y022548D01*
X048217Y022576D01*
X048237Y022611D01*
X048247Y022649D01*
X048247Y022914D01*
X048247Y022894D02*
X048250Y022894D01*
X048247Y022796D02*
X048250Y022796D01*
X048247Y022697D02*
X048250Y022697D01*
X048250Y022599D02*
X048230Y022599D01*
X048242Y022500D02*
X045905Y022500D01*
X045905Y022404D02*
X045905Y022669D01*
X045895Y022707D01*
X045875Y022741D01*
X045847Y022769D01*
X045813Y022789D01*
X045775Y022799D01*
X045510Y022799D01*
X045510Y022404D01*
X045905Y022404D01*
X045905Y022304D02*
X045510Y022304D01*
X045510Y022404D01*
X045410Y022404D01*
X045410Y022799D01*
X045144Y022799D01*
X045106Y022789D01*
X045072Y022769D01*
X045044Y022741D01*
X045024Y022707D01*
X045014Y022669D01*
X045014Y022404D01*
X045410Y022404D01*
X045410Y022304D01*
X045510Y022304D01*
X045510Y021908D01*
X045775Y021908D01*
X045813Y021918D01*
X045847Y021938D01*
X045875Y021966D01*
X045895Y022000D01*
X045905Y022039D01*
X045905Y022304D01*
X045905Y022303D02*
X048145Y022303D01*
X048159Y022205D02*
X045905Y022205D01*
X045905Y022106D02*
X047551Y022106D01*
X047525Y022008D02*
X045897Y022008D01*
X045778Y021909D02*
X047525Y021909D01*
X047525Y021811D02*
X044570Y021811D01*
X044570Y021909D02*
X045141Y021909D01*
X045144Y021908D02*
X045410Y021908D01*
X045410Y022304D01*
X045014Y022304D01*
X045014Y022039D01*
X045024Y022000D01*
X045044Y021966D01*
X045072Y021938D01*
X045106Y021918D01*
X045144Y021908D01*
X045022Y022008D02*
X044471Y022008D01*
X044476Y022003D02*
X044476Y022003D01*
X044420Y022060D02*
X044420Y022060D01*
X044373Y022106D02*
X045014Y022106D01*
X045014Y022205D02*
X044197Y022205D01*
X044212Y022303D02*
X045014Y022303D01*
X045014Y022500D02*
X044115Y022500D01*
X044189Y022402D02*
X045410Y022402D01*
X045410Y022500D02*
X045510Y022500D01*
X045510Y022402D02*
X048168Y022402D01*
X048171Y022106D02*
X048222Y022106D01*
X048197Y022008D02*
X048550Y022008D01*
X048550Y021909D02*
X048197Y021909D01*
X048197Y021811D02*
X048550Y021811D01*
X048550Y021712D02*
X048197Y021712D01*
X048197Y021614D02*
X048550Y021614D01*
X048611Y021515D02*
X048197Y021515D01*
X047525Y021712D02*
X044615Y021712D01*
X045410Y021515D02*
X045510Y021515D01*
X045510Y021417D02*
X045410Y021417D01*
X045410Y021318D02*
X045510Y021318D01*
X045510Y021220D02*
X045410Y021220D01*
X045410Y020924D02*
X045510Y020924D01*
X045510Y020826D02*
X045410Y020826D01*
X045410Y020727D02*
X045510Y020727D01*
X045510Y021909D02*
X045410Y021909D01*
X045410Y022008D02*
X045510Y022008D01*
X045510Y022106D02*
X045410Y022106D01*
X045410Y022205D02*
X045510Y022205D01*
X045510Y022303D02*
X045410Y022303D01*
X045410Y022599D02*
X045510Y022599D01*
X045510Y022697D02*
X045410Y022697D01*
X045410Y022796D02*
X045510Y022796D01*
X045786Y022796D02*
X047475Y022796D01*
X047475Y022894D02*
X036537Y022894D01*
X036438Y022796D02*
X043487Y022796D01*
X043832Y022796D02*
X045133Y022796D01*
X045022Y022697D02*
X043903Y022697D01*
X043925Y022599D02*
X045014Y022599D01*
X045897Y022697D02*
X047475Y022697D01*
X047492Y022599D02*
X045905Y022599D01*
X045381Y023288D02*
X047477Y023288D01*
X047475Y023190D02*
X036832Y023190D01*
X036734Y023091D02*
X047475Y023091D01*
X047546Y023387D02*
X045479Y023387D01*
X045578Y023485D02*
X048250Y023485D01*
X048250Y023387D02*
X048176Y023387D01*
X048245Y023288D02*
X048250Y023288D01*
X048247Y023190D02*
X048250Y023190D01*
X048247Y023091D02*
X048250Y023091D01*
X047911Y022894D02*
X047811Y022894D01*
X047811Y022796D02*
X047911Y022796D01*
X047911Y022697D02*
X047811Y022697D01*
X047811Y022599D02*
X047911Y022599D01*
X047811Y022993D02*
X036635Y022993D01*
X037521Y025258D02*
X050598Y025258D01*
X050854Y025061D02*
X051248Y025061D01*
X051346Y025160D02*
X050952Y025160D01*
X051051Y025258D02*
X051445Y025258D01*
X051543Y025357D02*
X051149Y025357D01*
X051248Y025455D02*
X051600Y025455D01*
X051600Y025554D02*
X051320Y025554D01*
X051320Y025652D02*
X051600Y025652D01*
X051600Y025751D02*
X051320Y025751D01*
X051320Y025849D02*
X051600Y025849D01*
X051600Y025948D02*
X051320Y025948D01*
X051320Y026046D02*
X051600Y026046D01*
X051600Y026145D02*
X051320Y026145D01*
X051384Y026243D02*
X051600Y026243D01*
X051600Y026342D02*
X051425Y026342D01*
X051425Y026440D02*
X051600Y026440D01*
X051600Y026539D02*
X051386Y026539D01*
X051263Y026637D02*
X051600Y026637D01*
X051920Y026637D02*
X052940Y026637D01*
X052940Y026539D02*
X051920Y026539D01*
X051920Y026440D02*
X052940Y026440D01*
X052940Y026342D02*
X051920Y026342D01*
X051920Y026243D02*
X052940Y026243D01*
X052940Y026145D02*
X051920Y026145D01*
X051920Y026046D02*
X052940Y026046D01*
X052940Y025948D02*
X051920Y025948D01*
X051920Y025849D02*
X052940Y025849D01*
X052940Y025751D02*
X051920Y025751D01*
X051920Y025652D02*
X052940Y025652D01*
X052940Y025554D02*
X051920Y025554D01*
X051920Y025455D02*
X052940Y025455D01*
X052940Y025357D02*
X051920Y025357D01*
X051897Y025258D02*
X052940Y025258D01*
X052940Y025160D02*
X051799Y025160D01*
X051700Y025061D02*
X052940Y025061D01*
X052940Y024963D02*
X051602Y024963D01*
X051503Y024864D02*
X052940Y024864D01*
X052940Y024766D02*
X051405Y024766D01*
X053380Y024766D02*
X054110Y024766D01*
X054110Y024864D02*
X053380Y024864D01*
X053380Y024963D02*
X054110Y024963D01*
X054110Y025061D02*
X053380Y025061D01*
X053380Y025160D02*
X054110Y025160D01*
X054110Y025258D02*
X053380Y025258D01*
X053380Y025357D02*
X054110Y025357D01*
X054110Y025455D02*
X053380Y025455D01*
X053380Y025554D02*
X054110Y025554D01*
X054110Y025652D02*
X053380Y025652D01*
X053380Y025751D02*
X054110Y025751D01*
X054110Y025849D02*
X053380Y025849D01*
X053380Y025948D02*
X054110Y025948D01*
X054110Y026046D02*
X053380Y026046D01*
X053380Y026145D02*
X054110Y026145D01*
X054110Y026243D02*
X053380Y026243D01*
X053380Y026342D02*
X054110Y026342D01*
X054110Y026440D02*
X053380Y026440D01*
X053380Y026539D02*
X054110Y026539D01*
X054110Y026637D02*
X053380Y026637D01*
X053380Y026736D02*
X054110Y026736D01*
X054110Y026834D02*
X053380Y026834D01*
X053380Y026933D02*
X054110Y026933D01*
X054110Y027031D02*
X053380Y027031D01*
X053380Y027130D02*
X054110Y027130D01*
X054110Y027228D02*
X053380Y027228D01*
X053380Y027327D02*
X054110Y027327D01*
X054110Y027425D02*
X053380Y027425D01*
X053380Y027524D02*
X054110Y027524D01*
X054110Y027622D02*
X053380Y027622D01*
X053380Y027721D02*
X054110Y027721D01*
X054110Y027819D02*
X053416Y027819D01*
X053425Y027918D02*
X054110Y027918D01*
X054110Y028016D02*
X053395Y028016D01*
X053380Y028115D02*
X054110Y028115D01*
X054110Y028213D02*
X053380Y028213D01*
X053380Y028312D02*
X054110Y028312D01*
X054110Y028410D02*
X053380Y028410D01*
X053380Y028509D02*
X054110Y028509D01*
X054110Y028607D02*
X053380Y028607D01*
X053380Y028706D02*
X054110Y028706D01*
X054110Y028804D02*
X053380Y028804D01*
X053380Y028903D02*
X054110Y028903D01*
X054110Y029001D02*
X053380Y029001D01*
X053380Y029100D02*
X054110Y029100D01*
X054110Y029198D02*
X053380Y029198D01*
X053380Y029297D02*
X054110Y029297D01*
X054110Y029395D02*
X053380Y029395D01*
X053380Y029494D02*
X054110Y029494D01*
X054110Y029592D02*
X053380Y029592D01*
X053380Y029691D02*
X054110Y029691D01*
X054110Y029789D02*
X053380Y029789D01*
X053380Y029888D02*
X054110Y029888D01*
X054110Y029986D02*
X053380Y029986D01*
X053380Y030085D02*
X054110Y030085D01*
X054110Y030183D02*
X053380Y030183D01*
X053380Y030282D02*
X054110Y030282D01*
X054110Y030380D02*
X053380Y030380D01*
X053380Y030479D02*
X054110Y030479D01*
X054110Y030577D02*
X053380Y030577D01*
X053380Y030676D02*
X054110Y030676D01*
X054110Y030774D02*
X053380Y030774D01*
X053380Y030873D02*
X054110Y030873D01*
X054110Y030971D02*
X053380Y030971D01*
X053380Y031070D02*
X054110Y031070D01*
X054110Y031168D02*
X053380Y031168D01*
X053380Y031267D02*
X054110Y031267D01*
X054110Y031365D02*
X053380Y031365D01*
X053380Y031464D02*
X054110Y031464D01*
X054110Y031562D02*
X053380Y031562D01*
X053380Y031661D02*
X054110Y031661D01*
X054110Y031759D02*
X053380Y031759D01*
X053380Y031858D02*
X054110Y031858D01*
X054110Y031956D02*
X053380Y031956D01*
X053380Y032055D02*
X054110Y032055D01*
X054110Y032153D02*
X053380Y032153D01*
X053380Y032252D02*
X054110Y032252D01*
X054110Y032350D02*
X053380Y032350D01*
X053380Y032449D02*
X054110Y032449D01*
X054110Y032547D02*
X053380Y032547D01*
X053380Y032646D02*
X054110Y032646D01*
X054110Y032744D02*
X053380Y032744D01*
X053380Y032843D02*
X054110Y032843D01*
X054110Y032941D02*
X053380Y032941D01*
X053380Y033040D02*
X054110Y033040D01*
X054110Y033138D02*
X053380Y033138D01*
X053380Y033237D02*
X054110Y033237D01*
X054110Y033335D02*
X053380Y033335D01*
X053380Y033434D02*
X054110Y033434D01*
X054110Y033532D02*
X053400Y033532D01*
X053425Y033631D02*
X054110Y033631D01*
X054110Y033729D02*
X053411Y033729D01*
X053350Y033828D02*
X054110Y033828D01*
X054110Y033926D02*
X049760Y033926D01*
X049760Y033828D02*
X052969Y033828D01*
X052908Y033729D02*
X049760Y033729D01*
X049760Y033631D02*
X052895Y033631D01*
X052919Y033532D02*
X049760Y033532D01*
X049760Y033434D02*
X052940Y033434D01*
X052940Y033335D02*
X049760Y033335D01*
X049760Y033237D02*
X052940Y033237D01*
X052940Y033138D02*
X049760Y033138D01*
X049760Y033040D02*
X052940Y033040D01*
X052940Y032941D02*
X049760Y032941D01*
X049760Y032843D02*
X052940Y032843D01*
X052940Y032744D02*
X049760Y032744D01*
X049760Y032646D02*
X052940Y032646D01*
X052940Y032547D02*
X049760Y032547D01*
X049760Y032449D02*
X052940Y032449D01*
X052940Y032350D02*
X051131Y032350D01*
X050988Y032350D02*
X049760Y032350D01*
X049760Y032252D02*
X050843Y032252D01*
X050798Y032153D02*
X049760Y032153D01*
X049760Y032055D02*
X050795Y032055D01*
X050829Y031956D02*
X049760Y031956D01*
X049760Y031858D02*
X050935Y031858D01*
X051167Y031759D02*
X049760Y031759D01*
X049760Y031661D02*
X051266Y031661D01*
X051364Y031562D02*
X049760Y031562D01*
X049760Y031464D02*
X051463Y031464D01*
X051561Y031365D02*
X049760Y031365D01*
X049760Y031267D02*
X051600Y031267D01*
X051600Y031168D02*
X049760Y031168D01*
X049760Y031070D02*
X051600Y031070D01*
X051600Y030971D02*
X049760Y030971D01*
X049760Y030873D02*
X051600Y030873D01*
X051600Y030774D02*
X049760Y030774D01*
X049760Y030676D02*
X051600Y030676D01*
X051600Y030577D02*
X049760Y030577D01*
X049760Y030479D02*
X051600Y030479D01*
X051600Y030380D02*
X049760Y030380D01*
X049760Y030282D02*
X051600Y030282D01*
X051600Y030183D02*
X049760Y030183D01*
X049760Y030085D02*
X051600Y030085D01*
X051600Y029986D02*
X049760Y029986D01*
X049760Y029888D02*
X051600Y029888D01*
X051600Y029789D02*
X049760Y029789D01*
X049760Y029691D02*
X051600Y029691D01*
X051600Y029592D02*
X049760Y029592D01*
X049760Y029494D02*
X051600Y029494D01*
X051600Y029395D02*
X049760Y029395D01*
X048760Y029893D02*
X038860Y029893D01*
X038260Y029293D01*
X038260Y027393D01*
X037736Y027393D01*
X038076Y027733D01*
X038170Y027827D01*
X038170Y029577D01*
X038576Y029983D01*
X044971Y029983D01*
X045471Y030483D01*
X045565Y030577D01*
X045565Y030679D01*
X045630Y030743D01*
X045670Y030841D01*
X045670Y030946D01*
X045630Y031043D01*
X045555Y031118D01*
X045458Y031158D01*
X045352Y031158D01*
X045255Y031118D01*
X045181Y031043D01*
X045170Y031017D01*
X045170Y031202D01*
X045201Y031233D01*
X045923Y031233D01*
X045954Y031202D01*
X045954Y031108D01*
X045889Y031043D01*
X045849Y030946D01*
X045849Y030841D01*
X045889Y030743D01*
X045964Y030669D01*
X046061Y030628D01*
X046167Y030628D01*
X046264Y030669D01*
X046339Y030743D01*
X046379Y030841D01*
X046379Y030946D01*
X046339Y031043D01*
X046274Y031108D01*
X046274Y031335D01*
X046180Y031428D01*
X046055Y031553D01*
X045068Y031553D01*
X044975Y031460D01*
X044850Y031335D01*
X044850Y030960D01*
X044443Y030553D01*
X038193Y030553D01*
X038100Y030460D01*
X037670Y030030D01*
X037670Y030327D01*
X038076Y030733D01*
X038190Y030733D01*
X038255Y030669D01*
X038352Y030628D01*
X038458Y030628D01*
X038555Y030669D01*
X038630Y030743D01*
X038670Y030841D01*
X038670Y030946D01*
X038630Y031043D01*
X038555Y031118D01*
X038458Y031158D01*
X038352Y031158D01*
X038255Y031118D01*
X038190Y031053D01*
X037943Y031053D01*
X037850Y030960D01*
X037350Y030460D01*
X037350Y028710D01*
X037298Y028658D01*
X037207Y028658D01*
X037109Y028618D01*
X037035Y028543D01*
X036995Y028446D01*
X036995Y028341D01*
X037035Y028243D01*
X037109Y028169D01*
X037207Y028128D01*
X037268Y028128D01*
X037209Y028069D01*
X037160Y028118D01*
X037062Y028158D01*
X036957Y028158D01*
X036859Y028118D01*
X036785Y028043D01*
X036745Y027946D01*
X036745Y027841D01*
X036785Y027743D01*
X036859Y027669D01*
X036957Y027628D01*
X037062Y027628D01*
X037160Y027669D01*
X037224Y027733D01*
X037326Y027733D01*
X037826Y028233D01*
X037850Y028257D01*
X037850Y027960D01*
X037459Y027569D01*
X037410Y027618D01*
X037312Y027658D01*
X037207Y027658D01*
X037109Y027618D01*
X037035Y027543D01*
X036995Y027446D01*
X036995Y027393D01*
X036270Y027393D01*
X036270Y032679D01*
X036334Y032743D01*
X036375Y032841D01*
X036375Y032946D01*
X036334Y033043D01*
X036260Y033118D01*
X036162Y033158D01*
X036057Y033158D01*
X035959Y033118D01*
X035885Y033043D01*
X035845Y032946D01*
X035845Y032841D01*
X035885Y032743D01*
X035950Y032679D01*
X035950Y027393D01*
X033525Y027393D01*
X033525Y027446D01*
X033484Y027543D01*
X033420Y027608D01*
X033420Y028164D01*
X033507Y028128D01*
X033612Y028128D01*
X033710Y028169D01*
X033784Y028243D01*
X033825Y028341D01*
X033825Y028446D01*
X033784Y028543D01*
X033720Y028608D01*
X033720Y030660D01*
X033170Y031210D01*
X033076Y031303D01*
X032329Y031303D01*
X032264Y031368D01*
X032167Y031408D01*
X032061Y031408D01*
X031964Y031368D01*
X031889Y031293D01*
X031849Y031196D01*
X031849Y031091D01*
X031889Y030993D01*
X031964Y030919D01*
X032061Y030878D01*
X032167Y030878D01*
X032264Y030919D01*
X032329Y030983D01*
X032943Y030983D01*
X033400Y030527D01*
X033400Y030230D01*
X032920Y030710D01*
X032826Y030803D01*
X031971Y030803D01*
X031670Y031105D01*
X031670Y031196D01*
X031630Y031293D01*
X031555Y031368D01*
X031458Y031408D01*
X031352Y031408D01*
X031255Y031368D01*
X031181Y031293D01*
X031140Y031196D01*
X031140Y031091D01*
X031181Y030993D01*
X031255Y030919D01*
X031352Y030878D01*
X031444Y030878D01*
X031769Y030553D01*
X025680Y030553D01*
X025379Y030855D01*
X025379Y030946D01*
X025339Y031043D01*
X025264Y031118D01*
X025167Y031158D01*
X025061Y031158D01*
X024964Y031118D01*
X024889Y031043D01*
X024849Y030946D01*
X024849Y030841D01*
X024889Y030743D01*
X024964Y030669D01*
X025061Y030628D01*
X025153Y030628D01*
X025454Y030327D01*
X025478Y030303D01*
X024971Y030303D01*
X024581Y030694D01*
X024630Y030743D01*
X024670Y030841D01*
X024670Y030946D01*
X024630Y031043D01*
X024555Y031118D01*
X024458Y031158D01*
X024352Y031158D01*
X024255Y031118D01*
X024181Y031043D01*
X024140Y030946D01*
X024140Y030841D01*
X024181Y030743D01*
X024245Y030679D01*
X024245Y030577D01*
X024745Y030077D01*
X024839Y029983D01*
X032193Y029983D01*
X032600Y029577D01*
X032600Y028027D01*
X032693Y027933D01*
X032695Y027932D01*
X032695Y027841D01*
X032735Y027743D01*
X032809Y027669D01*
X032907Y027628D01*
X033012Y027628D01*
X033100Y027664D01*
X033100Y027608D01*
X033035Y027543D01*
X032995Y027446D01*
X032995Y027393D01*
X032260Y027393D01*
X032260Y029293D01*
X031660Y029893D01*
X021760Y029893D01*
X021760Y032128D01*
X021812Y032128D01*
X021910Y032169D01*
X021914Y032173D01*
X022351Y032173D01*
X022480Y032302D01*
X022980Y032802D01*
X022980Y034802D01*
X023351Y035173D01*
X028605Y035173D01*
X028609Y035169D01*
X028707Y035128D01*
X028812Y035128D01*
X028910Y035169D01*
X028914Y035173D01*
X034305Y035173D01*
X034309Y035169D01*
X034407Y035128D01*
X034512Y035128D01*
X034610Y035169D01*
X034614Y035173D01*
X042605Y035173D01*
X042609Y035169D01*
X042707Y035128D01*
X042812Y035128D01*
X042910Y035169D01*
X042984Y035243D01*
X043025Y035341D01*
X043025Y035446D01*
X042984Y035543D01*
X042910Y035618D01*
X042812Y035658D01*
X042707Y035658D01*
X042609Y035618D01*
X042605Y035613D01*
X034614Y035613D01*
X034610Y035618D01*
X034512Y035658D01*
X034407Y035658D01*
X034309Y035618D01*
X034305Y035613D01*
X028914Y035613D01*
X028910Y035618D01*
X028812Y035658D01*
X028707Y035658D01*
X028609Y035618D01*
X028605Y035613D01*
X023168Y035613D01*
X022668Y035113D01*
X022540Y034984D01*
X022540Y032984D01*
X022168Y032613D01*
X021914Y032613D01*
X021910Y032618D01*
X021812Y032658D01*
X021760Y032658D01*
X021760Y033302D01*
X021788Y033314D01*
X021941Y033467D01*
X022024Y033667D01*
X022024Y033883D01*
X021941Y034083D01*
X021788Y034236D01*
X021760Y034248D01*
X021760Y036243D01*
X048760Y036243D01*
X048760Y034248D01*
X048731Y034236D01*
X048578Y034083D01*
X048495Y033883D01*
X048495Y033667D01*
X048578Y033467D01*
X048731Y033314D01*
X048760Y033302D01*
X048760Y029893D01*
X048760Y029986D02*
X044974Y029986D01*
X045073Y030085D02*
X048760Y030085D01*
X048760Y030183D02*
X045171Y030183D01*
X045270Y030282D02*
X048760Y030282D01*
X048760Y030380D02*
X045368Y030380D01*
X045467Y030479D02*
X048760Y030479D01*
X048760Y030577D02*
X045565Y030577D01*
X045565Y030676D02*
X045957Y030676D01*
X045876Y030774D02*
X045643Y030774D01*
X045670Y030873D02*
X045849Y030873D01*
X045859Y030971D02*
X045660Y030971D01*
X045603Y031070D02*
X045916Y031070D01*
X045954Y031168D02*
X045170Y031168D01*
X045170Y031070D02*
X045207Y031070D01*
X044850Y031070D02*
X039312Y031070D01*
X039339Y031043D02*
X039264Y031118D01*
X039167Y031158D01*
X039075Y031158D01*
X038680Y031553D01*
X037443Y031553D01*
X037350Y031460D01*
X036850Y030960D01*
X036850Y029108D01*
X036785Y029043D01*
X036745Y028946D01*
X036745Y028841D01*
X036785Y028743D01*
X036859Y028669D01*
X036957Y028628D01*
X037062Y028628D01*
X037160Y028669D01*
X037234Y028743D01*
X037275Y028841D01*
X037275Y028946D01*
X037234Y029043D01*
X037170Y029108D01*
X037170Y030827D01*
X037576Y031233D01*
X038548Y031233D01*
X038849Y030932D01*
X038849Y030841D01*
X038889Y030743D01*
X038964Y030669D01*
X039061Y030628D01*
X039167Y030628D01*
X039264Y030669D01*
X039339Y030743D01*
X039379Y030841D01*
X039379Y030946D01*
X039339Y031043D01*
X039368Y030971D02*
X044850Y030971D01*
X044763Y030873D02*
X039379Y030873D01*
X039351Y030774D02*
X044664Y030774D01*
X044566Y030676D02*
X039271Y030676D01*
X038957Y030676D02*
X038562Y030676D01*
X038643Y030774D02*
X038876Y030774D01*
X038849Y030873D02*
X038670Y030873D01*
X038660Y030971D02*
X038810Y030971D01*
X038711Y031070D02*
X038603Y031070D01*
X038613Y031168D02*
X037511Y031168D01*
X037412Y031070D02*
X038207Y031070D01*
X037861Y030971D02*
X037314Y030971D01*
X037215Y030873D02*
X037763Y030873D01*
X037664Y030774D02*
X037170Y030774D01*
X037170Y030676D02*
X037566Y030676D01*
X037467Y030577D02*
X037170Y030577D01*
X037170Y030479D02*
X037369Y030479D01*
X037350Y030380D02*
X037170Y030380D01*
X037170Y030282D02*
X037350Y030282D01*
X037350Y030183D02*
X037170Y030183D01*
X037170Y030085D02*
X037350Y030085D01*
X037350Y029986D02*
X037170Y029986D01*
X037170Y029888D02*
X037350Y029888D01*
X037350Y029789D02*
X037170Y029789D01*
X037170Y029691D02*
X037350Y029691D01*
X037350Y029592D02*
X037170Y029592D01*
X037170Y029494D02*
X037350Y029494D01*
X037350Y029395D02*
X037170Y029395D01*
X037170Y029297D02*
X037350Y029297D01*
X037350Y029198D02*
X037170Y029198D01*
X037178Y029100D02*
X037350Y029100D01*
X037350Y029001D02*
X037252Y029001D01*
X037275Y028903D02*
X037350Y028903D01*
X037350Y028804D02*
X037259Y028804D01*
X037197Y028706D02*
X037346Y028706D01*
X037099Y028607D02*
X036270Y028607D01*
X036270Y028509D02*
X037021Y028509D01*
X036995Y028410D02*
X036270Y028410D01*
X036270Y028312D02*
X037006Y028312D01*
X037065Y028213D02*
X036270Y028213D01*
X036270Y028115D02*
X036856Y028115D01*
X036774Y028016D02*
X036270Y028016D01*
X036270Y027918D02*
X036745Y027918D01*
X036753Y027819D02*
X036270Y027819D01*
X036270Y027721D02*
X036807Y027721D01*
X037027Y027524D02*
X036270Y027524D01*
X036270Y027622D02*
X037120Y027622D01*
X037212Y027721D02*
X037611Y027721D01*
X037709Y027819D02*
X037412Y027819D01*
X037510Y027918D02*
X037808Y027918D01*
X037850Y028016D02*
X037609Y028016D01*
X037707Y028115D02*
X037850Y028115D01*
X037850Y028213D02*
X037806Y028213D01*
X038170Y028213D02*
X038260Y028213D01*
X038260Y028115D02*
X038170Y028115D01*
X038170Y028016D02*
X038260Y028016D01*
X038260Y027918D02*
X038170Y027918D01*
X038162Y027819D02*
X038260Y027819D01*
X038260Y027721D02*
X038063Y027721D01*
X037965Y027622D02*
X038260Y027622D01*
X038260Y027524D02*
X037866Y027524D01*
X037768Y027425D02*
X038260Y027425D01*
X038760Y027622D02*
X038762Y027622D01*
X038760Y028115D02*
X051600Y028115D01*
X051600Y028213D02*
X038760Y028213D01*
X038760Y028312D02*
X051600Y028312D01*
X051600Y028410D02*
X038760Y028410D01*
X038760Y028509D02*
X051600Y028509D01*
X051600Y028607D02*
X038760Y028607D01*
X038760Y028706D02*
X051600Y028706D01*
X051600Y028804D02*
X038760Y028804D01*
X038760Y028903D02*
X051600Y028903D01*
X051600Y029001D02*
X038768Y029001D01*
X038866Y029100D02*
X051600Y029100D01*
X051600Y029198D02*
X038965Y029198D01*
X039063Y029297D02*
X051600Y029297D01*
X051920Y029297D02*
X052940Y029297D01*
X052940Y029395D02*
X051920Y029395D01*
X051920Y029494D02*
X052940Y029494D01*
X052940Y029592D02*
X051920Y029592D01*
X051920Y029691D02*
X052940Y029691D01*
X052940Y029789D02*
X051920Y029789D01*
X051920Y029888D02*
X052940Y029888D01*
X052940Y029986D02*
X051920Y029986D01*
X051920Y030085D02*
X052940Y030085D01*
X052940Y030183D02*
X051920Y030183D01*
X051920Y030282D02*
X052940Y030282D01*
X052940Y030380D02*
X051920Y030380D01*
X051920Y030479D02*
X052940Y030479D01*
X052940Y030577D02*
X051920Y030577D01*
X051920Y030676D02*
X052940Y030676D01*
X052940Y030774D02*
X051920Y030774D01*
X051920Y030873D02*
X052940Y030873D01*
X052940Y030971D02*
X051920Y030971D01*
X051920Y031070D02*
X052940Y031070D01*
X052940Y031168D02*
X051920Y031168D01*
X051920Y031267D02*
X052940Y031267D01*
X052940Y031365D02*
X051920Y031365D01*
X051915Y031464D02*
X052940Y031464D01*
X052940Y031562D02*
X051817Y031562D01*
X051718Y031661D02*
X052940Y031661D01*
X052940Y031759D02*
X051620Y031759D01*
X051521Y031858D02*
X052940Y031858D01*
X052940Y031956D02*
X051423Y031956D01*
X051325Y032055D02*
X051325Y032146D01*
X051276Y032252D02*
X052940Y032252D01*
X054110Y034025D02*
X049760Y034025D01*
X049760Y034123D02*
X054110Y034123D01*
X054110Y034222D02*
X049760Y034222D01*
X049760Y034320D02*
X052444Y034320D01*
X052391Y034342D02*
X052630Y034243D01*
X052889Y034243D01*
X053128Y034342D01*
X053311Y034525D01*
X053410Y034764D01*
X053410Y035023D01*
X053311Y035262D01*
X053128Y035444D01*
X052889Y035543D01*
X052630Y035543D01*
X052391Y035444D01*
X052208Y035262D01*
X052110Y035023D01*
X052110Y034764D01*
X052208Y034525D01*
X052391Y034342D01*
X052315Y034419D02*
X049760Y034419D01*
X049760Y034517D02*
X052216Y034517D01*
X052171Y034616D02*
X049760Y034616D01*
X049760Y034714D02*
X052130Y034714D01*
X052110Y034813D02*
X049760Y034813D01*
X049760Y034911D02*
X052110Y034911D01*
X052110Y035010D02*
X049760Y035010D01*
X049760Y035108D02*
X052145Y035108D01*
X052186Y035207D02*
X049760Y035207D01*
X049760Y035305D02*
X052252Y035305D01*
X052351Y035404D02*
X049760Y035404D01*
X049760Y035502D02*
X052531Y035502D01*
X052988Y035502D02*
X053953Y035502D01*
X054008Y035404D02*
X053168Y035404D01*
X053267Y035305D02*
X054035Y035305D01*
X054061Y035207D02*
X053333Y035207D01*
X053374Y035108D02*
X054088Y035108D01*
X054102Y035010D02*
X053410Y035010D01*
X053410Y034911D02*
X054108Y034911D01*
X054110Y034813D02*
X053410Y034813D01*
X053389Y034714D02*
X054110Y034714D01*
X054110Y034616D02*
X053348Y034616D01*
X053303Y034517D02*
X054110Y034517D01*
X054110Y034419D02*
X053204Y034419D01*
X053075Y034320D02*
X054110Y034320D01*
X053897Y035601D02*
X049760Y035601D01*
X049760Y035699D02*
X053840Y035699D01*
X053748Y035798D02*
X049760Y035798D01*
X049760Y035896D02*
X053649Y035896D01*
X053528Y035995D02*
X049760Y035995D01*
X049760Y036093D02*
X053358Y036093D01*
X053085Y036192D02*
X049760Y036192D01*
X048760Y036192D02*
X021760Y036192D01*
X021760Y036093D02*
X048760Y036093D01*
X048760Y035995D02*
X021760Y035995D01*
X021760Y035896D02*
X048760Y035896D01*
X048760Y035798D02*
X021760Y035798D01*
X021760Y035699D02*
X048760Y035699D01*
X048760Y035601D02*
X042927Y035601D01*
X043001Y035502D02*
X048760Y035502D01*
X048760Y035404D02*
X043025Y035404D01*
X043010Y035305D02*
X048760Y035305D01*
X048760Y035207D02*
X042948Y035207D01*
X044190Y032243D02*
X044061Y032190D01*
X043963Y032092D01*
X043910Y031963D01*
X043910Y031854D01*
X043713Y031658D01*
X043707Y031658D01*
X043609Y031618D01*
X043535Y031543D01*
X043495Y031446D01*
X043495Y031341D01*
X043535Y031243D01*
X043609Y031169D01*
X043707Y031128D01*
X043812Y031128D01*
X043910Y031169D01*
X043984Y031243D01*
X044025Y031341D01*
X044025Y031347D01*
X044221Y031543D01*
X044329Y031543D01*
X044458Y031597D01*
X044556Y031695D01*
X044610Y031824D01*
X044610Y031963D01*
X044556Y032092D01*
X044458Y032190D01*
X044329Y032243D01*
X044190Y032243D01*
X044025Y032153D02*
X040494Y032153D01*
X040458Y032190D02*
X040329Y032243D01*
X040190Y032243D01*
X040061Y032190D01*
X039963Y032092D01*
X039910Y031963D01*
X039910Y031824D01*
X039963Y031695D01*
X040061Y031597D01*
X040190Y031543D01*
X040298Y031543D01*
X040495Y031347D01*
X040495Y031341D01*
X040535Y031243D01*
X040609Y031169D01*
X040707Y031128D01*
X040812Y031128D01*
X040910Y031169D01*
X040984Y031243D01*
X041025Y031341D01*
X041025Y031446D01*
X040984Y031543D01*
X040910Y031618D01*
X040812Y031658D01*
X040806Y031658D01*
X040610Y031854D01*
X040610Y031963D01*
X040556Y032092D01*
X040458Y032190D01*
X040571Y032055D02*
X043948Y032055D01*
X043910Y031956D02*
X040610Y031956D01*
X040610Y031858D02*
X043910Y031858D01*
X043814Y031759D02*
X040705Y031759D01*
X040803Y031661D02*
X043716Y031661D01*
X043554Y031562D02*
X040965Y031562D01*
X041017Y031464D02*
X043502Y031464D01*
X043495Y031365D02*
X041025Y031365D01*
X040994Y031267D02*
X043525Y031267D01*
X043610Y031168D02*
X040909Y031168D01*
X040610Y031168D02*
X039065Y031168D01*
X038967Y031267D02*
X040525Y031267D01*
X040476Y031365D02*
X038868Y031365D01*
X038770Y031464D02*
X040378Y031464D01*
X040144Y031562D02*
X037375Y031562D01*
X037329Y031543D02*
X037458Y031597D01*
X037556Y031695D01*
X037610Y031824D01*
X037610Y031963D01*
X037556Y032092D01*
X037458Y032190D01*
X037329Y032243D01*
X037190Y032243D01*
X037061Y032190D01*
X036963Y032092D01*
X036910Y031963D01*
X036910Y031854D01*
X036713Y031658D01*
X036707Y031658D01*
X036609Y031618D01*
X036535Y031543D01*
X036495Y031446D01*
X036495Y031341D01*
X036535Y031243D01*
X036609Y031169D01*
X036707Y031128D01*
X036812Y031128D01*
X036910Y031169D01*
X036984Y031243D01*
X037025Y031341D01*
X037025Y031347D01*
X037221Y031543D01*
X037329Y031543D01*
X037354Y031464D02*
X037141Y031464D01*
X037043Y031365D02*
X037255Y031365D01*
X037157Y031267D02*
X036994Y031267D01*
X037058Y031168D02*
X036909Y031168D01*
X036960Y031070D02*
X036270Y031070D01*
X036270Y031168D02*
X036610Y031168D01*
X036525Y031267D02*
X036270Y031267D01*
X036270Y031365D02*
X036495Y031365D01*
X036502Y031464D02*
X036270Y031464D01*
X036270Y031562D02*
X036554Y031562D01*
X036716Y031661D02*
X036270Y031661D01*
X036270Y031759D02*
X036814Y031759D01*
X036910Y031858D02*
X036270Y031858D01*
X036270Y031956D02*
X036910Y031956D01*
X036948Y032055D02*
X036270Y032055D01*
X036270Y032153D02*
X037025Y032153D01*
X037494Y032153D02*
X040025Y032153D01*
X039948Y032055D02*
X037571Y032055D01*
X037610Y031956D02*
X039910Y031956D01*
X039910Y031858D02*
X037610Y031858D01*
X037583Y031759D02*
X039936Y031759D01*
X039997Y031661D02*
X037522Y031661D01*
X036861Y030971D02*
X036270Y030971D01*
X036270Y030873D02*
X036850Y030873D01*
X036850Y030774D02*
X036270Y030774D01*
X036270Y030676D02*
X036850Y030676D01*
X036850Y030577D02*
X036270Y030577D01*
X036270Y030479D02*
X036850Y030479D01*
X036850Y030380D02*
X036270Y030380D01*
X036270Y030282D02*
X036850Y030282D01*
X036850Y030183D02*
X036270Y030183D01*
X036270Y030085D02*
X036850Y030085D01*
X036850Y029986D02*
X036270Y029986D01*
X036270Y029888D02*
X036850Y029888D01*
X036850Y029789D02*
X036270Y029789D01*
X036270Y029691D02*
X036850Y029691D01*
X036850Y029592D02*
X036270Y029592D01*
X036270Y029494D02*
X036850Y029494D01*
X036850Y029395D02*
X036270Y029395D01*
X036270Y029297D02*
X036850Y029297D01*
X036850Y029198D02*
X036270Y029198D01*
X036270Y029100D02*
X036841Y029100D01*
X036767Y029001D02*
X036270Y029001D01*
X036270Y028903D02*
X036745Y028903D01*
X036760Y028804D02*
X036270Y028804D01*
X036270Y028706D02*
X036822Y028706D01*
X037163Y028115D02*
X037255Y028115D01*
X037399Y027622D02*
X037512Y027622D01*
X036995Y027425D02*
X036270Y027425D01*
X035950Y027425D02*
X033525Y027425D01*
X033492Y027524D02*
X035950Y027524D01*
X035950Y027622D02*
X033420Y027622D01*
X033420Y027721D02*
X035950Y027721D01*
X035950Y027819D02*
X033420Y027819D01*
X033420Y027918D02*
X035950Y027918D01*
X035950Y028016D02*
X033420Y028016D01*
X033420Y028115D02*
X035950Y028115D01*
X035950Y028213D02*
X033754Y028213D01*
X033813Y028312D02*
X035950Y028312D01*
X035950Y028410D02*
X033825Y028410D01*
X033798Y028509D02*
X035950Y028509D01*
X035950Y028607D02*
X033720Y028607D01*
X033720Y028706D02*
X035950Y028706D01*
X035950Y028804D02*
X033720Y028804D01*
X033720Y028903D02*
X035274Y028903D01*
X035235Y028919D02*
X035333Y028878D01*
X035438Y028878D01*
X035536Y028919D01*
X035610Y028993D01*
X035650Y029091D01*
X035650Y029196D01*
X035637Y029228D01*
X035736Y029228D01*
X035834Y029269D01*
X035908Y029343D01*
X035949Y029441D01*
X035949Y029546D01*
X035908Y029643D01*
X035834Y029718D01*
X035736Y029758D01*
X035645Y029758D01*
X035594Y029810D01*
X035594Y034327D01*
X035794Y034527D01*
X035794Y034679D01*
X035858Y034743D01*
X035899Y034841D01*
X035899Y034946D01*
X035858Y035043D01*
X035784Y035118D01*
X035686Y035158D01*
X035581Y035158D01*
X035483Y035118D01*
X035409Y035043D01*
X035369Y034946D01*
X035369Y034841D01*
X035409Y034743D01*
X035474Y034679D01*
X035474Y034660D01*
X035367Y034553D01*
X035274Y034460D01*
X035274Y029806D01*
X035245Y029834D01*
X035245Y034460D01*
X035152Y034553D01*
X035152Y034553D01*
X035045Y034660D01*
X035045Y034679D01*
X035110Y034743D01*
X035150Y034841D01*
X035150Y034946D01*
X035110Y035043D01*
X035036Y035118D01*
X034938Y035158D01*
X034833Y035158D01*
X034735Y035118D01*
X034661Y035043D01*
X034620Y034946D01*
X034620Y034841D01*
X034661Y034743D01*
X034725Y034679D01*
X034725Y034527D01*
X034925Y034327D01*
X034925Y029788D01*
X034680Y030034D01*
X034680Y032739D01*
X034684Y032743D01*
X034725Y032841D01*
X034725Y032946D01*
X034684Y033043D01*
X034610Y033118D01*
X034512Y033158D01*
X034407Y033158D01*
X034309Y033118D01*
X034235Y033043D01*
X034195Y032946D01*
X034195Y032841D01*
X034235Y032743D01*
X034240Y032739D01*
X034240Y029852D01*
X034645Y029447D01*
X034645Y029441D01*
X034685Y029343D01*
X034759Y029269D01*
X034857Y029228D01*
X034962Y029228D01*
X035060Y029269D01*
X035134Y029343D01*
X035175Y029441D01*
X035175Y029452D01*
X035225Y029401D01*
X035225Y029358D01*
X035161Y029293D01*
X035120Y029196D01*
X035120Y029091D01*
X035161Y028993D01*
X035235Y028919D01*
X035157Y029001D02*
X033720Y029001D01*
X033720Y029100D02*
X035120Y029100D01*
X035121Y029198D02*
X033720Y029198D01*
X033720Y029297D02*
X034731Y029297D01*
X034663Y029395D02*
X033720Y029395D01*
X033720Y029494D02*
X034598Y029494D01*
X034499Y029592D02*
X033720Y029592D01*
X033720Y029691D02*
X034401Y029691D01*
X034302Y029789D02*
X033720Y029789D01*
X033720Y029888D02*
X034240Y029888D01*
X034240Y029986D02*
X033720Y029986D01*
X033720Y030085D02*
X034240Y030085D01*
X034240Y030183D02*
X033720Y030183D01*
X033720Y030282D02*
X034240Y030282D01*
X034240Y030380D02*
X033720Y030380D01*
X033720Y030479D02*
X034240Y030479D01*
X034240Y030577D02*
X033720Y030577D01*
X033703Y030676D02*
X034240Y030676D01*
X034240Y030774D02*
X033605Y030774D01*
X033506Y030873D02*
X034240Y030873D01*
X034240Y030971D02*
X033408Y030971D01*
X033309Y031070D02*
X034240Y031070D01*
X034240Y031168D02*
X033909Y031168D01*
X033910Y031169D02*
X033812Y031128D01*
X033707Y031128D01*
X033609Y031169D01*
X033535Y031243D01*
X033495Y031341D01*
X033495Y031347D01*
X033298Y031543D01*
X033190Y031543D01*
X033061Y031597D01*
X032963Y031695D01*
X032910Y031824D01*
X032910Y031963D01*
X032963Y032092D01*
X033061Y032190D01*
X033190Y032243D01*
X033329Y032243D01*
X033458Y032190D01*
X033556Y032092D01*
X033610Y031963D01*
X033610Y031854D01*
X033806Y031658D01*
X033812Y031658D01*
X033910Y031618D01*
X033984Y031543D01*
X034025Y031446D01*
X034025Y031341D01*
X033984Y031243D01*
X033910Y031169D01*
X033994Y031267D02*
X034240Y031267D01*
X034240Y031365D02*
X034025Y031365D01*
X034017Y031464D02*
X034240Y031464D01*
X034240Y031562D02*
X033965Y031562D01*
X033803Y031661D02*
X034240Y031661D01*
X034240Y031759D02*
X033705Y031759D01*
X033610Y031858D02*
X034240Y031858D01*
X034240Y031956D02*
X033610Y031956D01*
X033571Y032055D02*
X034240Y032055D01*
X034240Y032153D02*
X033494Y032153D01*
X033025Y032153D02*
X030494Y032153D01*
X030458Y032190D02*
X030329Y032243D01*
X030190Y032243D01*
X030061Y032190D01*
X029963Y032092D01*
X029910Y031963D01*
X029910Y031854D01*
X029713Y031658D01*
X029707Y031658D01*
X029609Y031618D01*
X029535Y031543D01*
X029495Y031446D01*
X029495Y031341D01*
X029535Y031243D01*
X029609Y031169D01*
X029707Y031128D01*
X029812Y031128D01*
X029910Y031169D01*
X029984Y031243D01*
X030025Y031341D01*
X030025Y031347D01*
X030221Y031543D01*
X030329Y031543D01*
X030458Y031597D01*
X030556Y031695D01*
X030610Y031824D01*
X030610Y031963D01*
X030556Y032092D01*
X030458Y032190D01*
X030571Y032055D02*
X032948Y032055D01*
X032910Y031956D02*
X030610Y031956D01*
X030610Y031858D02*
X032910Y031858D01*
X032936Y031759D02*
X030583Y031759D01*
X030522Y031661D02*
X032997Y031661D01*
X033144Y031562D02*
X030375Y031562D01*
X030141Y031464D02*
X033378Y031464D01*
X033476Y031365D02*
X032267Y031365D01*
X031961Y031365D02*
X031558Y031365D01*
X031641Y031267D02*
X031878Y031267D01*
X031849Y031168D02*
X031670Y031168D01*
X031705Y031070D02*
X031857Y031070D01*
X031803Y030971D02*
X031911Y030971D01*
X031902Y030873D02*
X033054Y030873D01*
X033152Y030774D02*
X032855Y030774D01*
X032953Y030676D02*
X033251Y030676D01*
X033349Y030577D02*
X033052Y030577D01*
X033150Y030479D02*
X033400Y030479D01*
X033400Y030380D02*
X033249Y030380D01*
X033347Y030282D02*
X033400Y030282D01*
X032955Y030971D02*
X032317Y030971D01*
X031745Y030577D02*
X025656Y030577D01*
X025558Y030676D02*
X031646Y030676D01*
X031548Y030774D02*
X025459Y030774D01*
X025379Y030873D02*
X031449Y030873D01*
X031202Y030971D02*
X025368Y030971D01*
X025312Y031070D02*
X031149Y031070D01*
X031140Y031168D02*
X029909Y031168D01*
X029994Y031267D02*
X031170Y031267D01*
X031252Y031365D02*
X030043Y031365D01*
X029716Y031661D02*
X026803Y031661D01*
X026806Y031658D02*
X026610Y031854D01*
X026610Y031963D01*
X026556Y032092D01*
X026458Y032190D01*
X026329Y032243D01*
X026190Y032243D01*
X026061Y032190D01*
X025963Y032092D01*
X025910Y031963D01*
X025910Y031824D01*
X025963Y031695D01*
X026061Y031597D01*
X026190Y031543D01*
X026298Y031543D01*
X026495Y031347D01*
X026495Y031341D01*
X026535Y031243D01*
X026609Y031169D01*
X026707Y031128D01*
X026812Y031128D01*
X026910Y031169D01*
X026984Y031243D01*
X027025Y031341D01*
X027025Y031446D01*
X026984Y031543D01*
X026910Y031618D01*
X026812Y031658D01*
X026806Y031658D01*
X026705Y031759D02*
X029814Y031759D01*
X029910Y031858D02*
X026610Y031858D01*
X026610Y031956D02*
X029910Y031956D01*
X029948Y032055D02*
X026571Y032055D01*
X026494Y032153D02*
X030025Y032153D01*
X029554Y031562D02*
X026965Y031562D01*
X027017Y031464D02*
X029502Y031464D01*
X029495Y031365D02*
X027025Y031365D01*
X026994Y031267D02*
X029525Y031267D01*
X029610Y031168D02*
X026909Y031168D01*
X026610Y031168D02*
X022909Y031168D01*
X022910Y031169D02*
X022984Y031243D01*
X023025Y031341D01*
X023025Y031347D01*
X023221Y031543D01*
X023329Y031543D01*
X023458Y031597D01*
X023556Y031695D01*
X023610Y031824D01*
X023610Y031963D01*
X023556Y032092D01*
X023458Y032190D01*
X023329Y032243D01*
X023190Y032243D01*
X023061Y032190D01*
X022963Y032092D01*
X022910Y031963D01*
X022910Y031854D01*
X022713Y031658D01*
X022707Y031658D01*
X022609Y031618D01*
X022535Y031543D01*
X022495Y031446D01*
X022495Y031341D01*
X022535Y031243D01*
X022609Y031169D01*
X022707Y031128D01*
X022812Y031128D01*
X022910Y031169D01*
X022994Y031267D02*
X026525Y031267D01*
X026476Y031365D02*
X023043Y031365D01*
X023141Y031464D02*
X026378Y031464D01*
X026144Y031562D02*
X023375Y031562D01*
X023522Y031661D02*
X025997Y031661D01*
X025936Y031759D02*
X023583Y031759D01*
X023610Y031858D02*
X025910Y031858D01*
X025910Y031956D02*
X023610Y031956D01*
X023571Y032055D02*
X025948Y032055D01*
X026025Y032153D02*
X023494Y032153D01*
X023025Y032153D02*
X021873Y032153D01*
X021760Y032055D02*
X022948Y032055D01*
X022910Y031956D02*
X021760Y031956D01*
X021760Y031858D02*
X022910Y031858D01*
X022814Y031759D02*
X021760Y031759D01*
X021760Y031661D02*
X022716Y031661D01*
X022554Y031562D02*
X021760Y031562D01*
X021760Y031464D02*
X022502Y031464D01*
X022495Y031365D02*
X021760Y031365D01*
X021760Y031267D02*
X022525Y031267D01*
X022610Y031168D02*
X021760Y031168D01*
X021760Y031070D02*
X024207Y031070D01*
X024151Y030971D02*
X021760Y030971D01*
X021760Y030873D02*
X024140Y030873D01*
X024168Y030774D02*
X021760Y030774D01*
X021760Y030676D02*
X024245Y030676D01*
X024245Y030577D02*
X021760Y030577D01*
X021760Y030479D02*
X024343Y030479D01*
X024442Y030380D02*
X021760Y030380D01*
X021760Y030282D02*
X024540Y030282D01*
X024639Y030183D02*
X021760Y030183D01*
X021760Y030085D02*
X024737Y030085D01*
X024745Y030077D02*
X024745Y030077D01*
X024836Y029986D02*
X021760Y029986D01*
X020760Y029986D02*
X019870Y029986D01*
X019870Y029888D02*
X020760Y029888D01*
X020760Y029789D02*
X019870Y029789D01*
X019870Y029691D02*
X020760Y029691D01*
X020760Y029592D02*
X019870Y029592D01*
X019870Y029494D02*
X020760Y029494D01*
X020760Y029395D02*
X019870Y029395D01*
X019870Y029297D02*
X031456Y029297D01*
X031554Y029198D02*
X019870Y029198D01*
X019870Y029100D02*
X031653Y029100D01*
X031751Y029001D02*
X030363Y029001D01*
X030461Y028903D02*
X031760Y028903D01*
X031760Y028804D02*
X030560Y028804D01*
X030658Y028706D02*
X031760Y028706D01*
X031760Y028607D02*
X030757Y028607D01*
X030855Y028509D02*
X031760Y028509D01*
X031760Y028410D02*
X030954Y028410D01*
X030980Y028312D02*
X031303Y028312D01*
X031252Y028213D02*
X030980Y028213D01*
X030980Y028115D02*
X031245Y028115D01*
X031275Y028016D02*
X030980Y028016D01*
X030980Y027918D02*
X031350Y027918D01*
X031011Y027819D02*
X030980Y027819D01*
X031716Y028312D02*
X031760Y028312D01*
X032260Y028312D02*
X032600Y028312D01*
X032600Y028410D02*
X032260Y028410D01*
X032260Y028509D02*
X032600Y028509D01*
X032600Y028607D02*
X032260Y028607D01*
X032260Y028706D02*
X032600Y028706D01*
X032600Y028804D02*
X032260Y028804D01*
X032260Y028903D02*
X032600Y028903D01*
X032600Y029001D02*
X032260Y029001D01*
X032260Y029100D02*
X032600Y029100D01*
X032600Y029198D02*
X032260Y029198D01*
X032256Y029297D02*
X032600Y029297D01*
X032600Y029395D02*
X032157Y029395D01*
X032059Y029494D02*
X032600Y029494D01*
X032584Y029592D02*
X031960Y029592D01*
X031862Y029691D02*
X032486Y029691D01*
X032387Y029789D02*
X031763Y029789D01*
X031665Y029888D02*
X032289Y029888D01*
X033211Y031168D02*
X033610Y031168D01*
X033525Y031267D02*
X033112Y031267D01*
X034240Y032252D02*
X022429Y032252D01*
X022528Y032350D02*
X034240Y032350D01*
X034240Y032449D02*
X022626Y032449D01*
X022725Y032547D02*
X034240Y032547D01*
X034240Y032646D02*
X022823Y032646D01*
X022922Y032744D02*
X034234Y032744D01*
X034195Y032843D02*
X022980Y032843D01*
X022980Y032941D02*
X034195Y032941D01*
X034233Y033040D02*
X022980Y033040D01*
X022980Y033138D02*
X034359Y033138D01*
X034560Y033138D02*
X034925Y033138D01*
X034925Y033040D02*
X034686Y033040D01*
X034725Y032941D02*
X034925Y032941D01*
X034925Y032843D02*
X034725Y032843D01*
X034685Y032744D02*
X034925Y032744D01*
X034925Y032646D02*
X034680Y032646D01*
X034680Y032547D02*
X034925Y032547D01*
X034925Y032449D02*
X034680Y032449D01*
X034680Y032350D02*
X034925Y032350D01*
X034925Y032252D02*
X034680Y032252D01*
X034680Y032153D02*
X034925Y032153D01*
X034925Y032055D02*
X034680Y032055D01*
X034680Y031956D02*
X034925Y031956D01*
X034925Y031858D02*
X034680Y031858D01*
X034680Y031759D02*
X034925Y031759D01*
X034925Y031661D02*
X034680Y031661D01*
X034680Y031562D02*
X034925Y031562D01*
X034925Y031464D02*
X034680Y031464D01*
X034680Y031365D02*
X034925Y031365D01*
X034925Y031267D02*
X034680Y031267D01*
X034680Y031168D02*
X034925Y031168D01*
X034925Y031070D02*
X034680Y031070D01*
X034680Y030971D02*
X034925Y030971D01*
X034925Y030873D02*
X034680Y030873D01*
X034680Y030774D02*
X034925Y030774D01*
X034925Y030676D02*
X034680Y030676D01*
X034680Y030577D02*
X034925Y030577D01*
X034925Y030479D02*
X034680Y030479D01*
X034680Y030380D02*
X034925Y030380D01*
X034925Y030282D02*
X034680Y030282D01*
X034680Y030183D02*
X034925Y030183D01*
X034925Y030085D02*
X034680Y030085D01*
X034728Y029986D02*
X034925Y029986D01*
X034925Y029888D02*
X034826Y029888D01*
X034925Y029789D02*
X034925Y029789D01*
X035245Y029888D02*
X035274Y029888D01*
X035274Y029986D02*
X035245Y029986D01*
X035245Y030085D02*
X035274Y030085D01*
X035274Y030183D02*
X035245Y030183D01*
X035245Y030282D02*
X035274Y030282D01*
X035274Y030380D02*
X035245Y030380D01*
X035245Y030479D02*
X035274Y030479D01*
X035274Y030577D02*
X035245Y030577D01*
X035245Y030676D02*
X035274Y030676D01*
X035274Y030774D02*
X035245Y030774D01*
X035245Y030873D02*
X035274Y030873D01*
X035274Y030971D02*
X035245Y030971D01*
X035245Y031070D02*
X035274Y031070D01*
X035274Y031168D02*
X035245Y031168D01*
X035245Y031267D02*
X035274Y031267D01*
X035274Y031365D02*
X035245Y031365D01*
X035245Y031464D02*
X035274Y031464D01*
X035274Y031562D02*
X035245Y031562D01*
X035245Y031661D02*
X035274Y031661D01*
X035274Y031759D02*
X035245Y031759D01*
X035245Y031858D02*
X035274Y031858D01*
X035274Y031956D02*
X035245Y031956D01*
X035245Y032055D02*
X035274Y032055D01*
X035274Y032153D02*
X035245Y032153D01*
X035245Y032252D02*
X035274Y032252D01*
X035274Y032350D02*
X035245Y032350D01*
X035245Y032449D02*
X035274Y032449D01*
X035274Y032547D02*
X035245Y032547D01*
X035245Y032646D02*
X035274Y032646D01*
X035274Y032744D02*
X035245Y032744D01*
X035245Y032843D02*
X035274Y032843D01*
X035274Y032941D02*
X035245Y032941D01*
X035245Y033040D02*
X035274Y033040D01*
X035274Y033138D02*
X035245Y033138D01*
X035245Y033237D02*
X035274Y033237D01*
X035274Y033335D02*
X035245Y033335D01*
X035245Y033434D02*
X035274Y033434D01*
X035274Y033532D02*
X035245Y033532D01*
X035245Y033631D02*
X035274Y033631D01*
X035274Y033729D02*
X035245Y033729D01*
X035245Y033828D02*
X035274Y033828D01*
X035274Y033926D02*
X035245Y033926D01*
X035245Y034025D02*
X035274Y034025D01*
X035274Y034123D02*
X035245Y034123D01*
X035245Y034222D02*
X035274Y034222D01*
X035274Y034320D02*
X035245Y034320D01*
X035245Y034419D02*
X035274Y034419D01*
X035331Y034517D02*
X035188Y034517D01*
X035089Y034616D02*
X035430Y034616D01*
X035438Y034714D02*
X035081Y034714D01*
X035139Y034813D02*
X035380Y034813D01*
X035369Y034911D02*
X035150Y034911D01*
X035124Y035010D02*
X035395Y035010D01*
X035474Y035108D02*
X035045Y035108D01*
X034726Y035108D02*
X023286Y035108D01*
X023187Y035010D02*
X034647Y035010D01*
X034620Y034911D02*
X023089Y034911D01*
X022990Y034813D02*
X034632Y034813D01*
X034690Y034714D02*
X022980Y034714D01*
X022980Y034616D02*
X034725Y034616D01*
X034735Y034517D02*
X022980Y034517D01*
X022980Y034419D02*
X034834Y034419D01*
X034925Y034320D02*
X022980Y034320D01*
X022980Y034222D02*
X034925Y034222D01*
X034925Y034123D02*
X022980Y034123D01*
X022980Y034025D02*
X034925Y034025D01*
X034925Y033926D02*
X022980Y033926D01*
X022980Y033828D02*
X034925Y033828D01*
X034925Y033729D02*
X022980Y033729D01*
X022980Y033631D02*
X034925Y033631D01*
X034925Y033532D02*
X022980Y033532D01*
X022980Y033434D02*
X034925Y033434D01*
X034925Y033335D02*
X022980Y033335D01*
X022980Y033237D02*
X034925Y033237D01*
X035594Y033237D02*
X048760Y033237D01*
X048760Y033138D02*
X036210Y033138D01*
X036336Y033040D02*
X048760Y033040D01*
X048760Y032941D02*
X036375Y032941D01*
X036375Y032843D02*
X048760Y032843D01*
X048760Y032744D02*
X036335Y032744D01*
X036270Y032646D02*
X048760Y032646D01*
X048760Y032547D02*
X036270Y032547D01*
X036270Y032449D02*
X048760Y032449D01*
X048760Y032350D02*
X036270Y032350D01*
X036270Y032252D02*
X048760Y032252D01*
X048760Y032153D02*
X047494Y032153D01*
X047458Y032190D02*
X047556Y032092D01*
X047610Y031963D01*
X047610Y031854D01*
X047806Y031658D01*
X047812Y031658D01*
X047910Y031618D01*
X047984Y031543D01*
X048025Y031446D01*
X048025Y031341D01*
X047984Y031243D01*
X047910Y031169D01*
X047812Y031128D01*
X047707Y031128D01*
X047609Y031169D01*
X047535Y031243D01*
X047495Y031341D01*
X047495Y031347D01*
X047298Y031543D01*
X047190Y031543D01*
X047061Y031597D01*
X046963Y031695D01*
X046910Y031824D01*
X046910Y031963D01*
X046963Y032092D01*
X047061Y032190D01*
X047190Y032243D01*
X047329Y032243D01*
X047458Y032190D01*
X047571Y032055D02*
X048760Y032055D01*
X048760Y031956D02*
X047610Y031956D01*
X047610Y031858D02*
X048760Y031858D01*
X048760Y031759D02*
X047705Y031759D01*
X047803Y031661D02*
X048760Y031661D01*
X048760Y031562D02*
X047965Y031562D01*
X048017Y031464D02*
X048760Y031464D01*
X048760Y031365D02*
X048025Y031365D01*
X047994Y031267D02*
X048760Y031267D01*
X048760Y031168D02*
X047909Y031168D01*
X047610Y031168D02*
X046274Y031168D01*
X046274Y031267D02*
X047525Y031267D01*
X047476Y031365D02*
X046243Y031365D01*
X046145Y031464D02*
X047378Y031464D01*
X047144Y031562D02*
X044375Y031562D01*
X044522Y031661D02*
X046997Y031661D01*
X046936Y031759D02*
X044583Y031759D01*
X044610Y031858D02*
X046910Y031858D01*
X046910Y031956D02*
X044610Y031956D01*
X044571Y032055D02*
X046948Y032055D01*
X047025Y032153D02*
X044494Y032153D01*
X044141Y031464D02*
X044979Y031464D01*
X044880Y031365D02*
X044043Y031365D01*
X043994Y031267D02*
X044850Y031267D01*
X044850Y031168D02*
X043909Y031168D01*
X044467Y030577D02*
X037920Y030577D01*
X037821Y030479D02*
X038119Y030479D01*
X038020Y030380D02*
X037723Y030380D01*
X037670Y030282D02*
X037922Y030282D01*
X037823Y030183D02*
X037670Y030183D01*
X037670Y030085D02*
X037725Y030085D01*
X038185Y029592D02*
X038559Y029592D01*
X038657Y029691D02*
X038283Y029691D01*
X038382Y029789D02*
X038756Y029789D01*
X038854Y029888D02*
X038480Y029888D01*
X038460Y029494D02*
X038170Y029494D01*
X038170Y029395D02*
X038362Y029395D01*
X038263Y029297D02*
X038170Y029297D01*
X038170Y029198D02*
X038260Y029198D01*
X038260Y029100D02*
X038170Y029100D01*
X038170Y029001D02*
X038260Y029001D01*
X038260Y028903D02*
X038170Y028903D01*
X038170Y028804D02*
X038260Y028804D01*
X038260Y028706D02*
X038170Y028706D01*
X038170Y028607D02*
X038260Y028607D01*
X038260Y028509D02*
X038170Y028509D01*
X038170Y028410D02*
X038260Y028410D01*
X038260Y028312D02*
X038170Y028312D01*
X039374Y026933D02*
X039536Y026933D01*
X036782Y026145D02*
X035650Y026145D01*
X033100Y027622D02*
X032260Y027622D01*
X032260Y027524D02*
X033027Y027524D01*
X032995Y027425D02*
X032260Y027425D01*
X032260Y027721D02*
X032757Y027721D01*
X032703Y027819D02*
X032260Y027819D01*
X032260Y027918D02*
X032695Y027918D01*
X032610Y028016D02*
X032260Y028016D01*
X032260Y028115D02*
X032600Y028115D01*
X032600Y028213D02*
X032260Y028213D01*
X029932Y026440D02*
X029687Y026440D01*
X029332Y026440D02*
X028989Y026440D01*
X029087Y026342D02*
X029263Y026342D01*
X029245Y026243D02*
X029186Y026243D01*
X026722Y028509D02*
X026619Y028509D01*
X026300Y028509D02*
X026219Y028509D01*
X025900Y028509D02*
X025819Y028509D01*
X023448Y027228D02*
X022769Y027228D01*
X022819Y027327D02*
X023350Y027327D01*
X023251Y027425D02*
X022825Y027425D01*
X022792Y027524D02*
X023153Y027524D01*
X022804Y027622D02*
X022699Y027622D01*
X022706Y027721D02*
X022458Y027721D01*
X022360Y027819D02*
X022607Y027819D01*
X022495Y028410D02*
X022369Y028410D01*
X022270Y028509D02*
X022521Y028509D01*
X022599Y028607D02*
X022172Y028607D01*
X022920Y028607D02*
X023199Y028607D01*
X023121Y028509D02*
X022998Y028509D01*
X023025Y028410D02*
X023095Y028410D01*
X024894Y030380D02*
X025401Y030380D01*
X025302Y030479D02*
X024796Y030479D01*
X024697Y030577D02*
X025204Y030577D01*
X024957Y030676D02*
X024599Y030676D01*
X024643Y030774D02*
X024876Y030774D01*
X024849Y030873D02*
X024670Y030873D01*
X024660Y030971D02*
X024859Y030971D01*
X024916Y031070D02*
X024603Y031070D01*
X022201Y032646D02*
X021842Y032646D01*
X021760Y032744D02*
X022299Y032744D01*
X022398Y032843D02*
X021760Y032843D01*
X021760Y032941D02*
X022496Y032941D01*
X022540Y033040D02*
X021760Y033040D01*
X021760Y033138D02*
X022540Y033138D01*
X022540Y033237D02*
X021760Y033237D01*
X021809Y033335D02*
X022540Y033335D01*
X022540Y033434D02*
X021908Y033434D01*
X021968Y033532D02*
X022540Y033532D01*
X022540Y033631D02*
X022009Y033631D01*
X022024Y033729D02*
X022540Y033729D01*
X022540Y033828D02*
X022024Y033828D01*
X022006Y033926D02*
X022540Y033926D01*
X022540Y034025D02*
X021965Y034025D01*
X021901Y034123D02*
X022540Y034123D01*
X022540Y034222D02*
X021802Y034222D01*
X021760Y034320D02*
X022540Y034320D01*
X022540Y034419D02*
X021760Y034419D01*
X021760Y034517D02*
X022540Y034517D01*
X022540Y034616D02*
X021760Y034616D01*
X021760Y034714D02*
X022540Y034714D01*
X022540Y034813D02*
X021760Y034813D01*
X021760Y034911D02*
X022540Y034911D01*
X022565Y035010D02*
X021760Y035010D01*
X021760Y035108D02*
X022663Y035108D01*
X022762Y035207D02*
X021760Y035207D01*
X021760Y035305D02*
X022860Y035305D01*
X022959Y035404D02*
X021760Y035404D01*
X021760Y035502D02*
X023057Y035502D01*
X023156Y035601D02*
X021760Y035601D01*
X020760Y035601D02*
X016623Y035601D01*
X016679Y035699D02*
X020760Y035699D01*
X020760Y035798D02*
X016771Y035798D01*
X016870Y035896D02*
X020760Y035896D01*
X020760Y035995D02*
X016991Y035995D01*
X017161Y036093D02*
X020760Y036093D01*
X020760Y036192D02*
X017434Y036192D01*
X019877Y032350D02*
X020760Y032350D01*
X020760Y032252D02*
X019951Y032252D01*
X019975Y032153D02*
X020760Y032153D01*
X020760Y032055D02*
X019960Y032055D01*
X019897Y031956D02*
X020760Y031956D01*
X020760Y031858D02*
X019870Y031858D01*
X019870Y031759D02*
X020760Y031759D01*
X020760Y031661D02*
X019870Y031661D01*
X019870Y031562D02*
X020760Y031562D01*
X020760Y031464D02*
X019870Y031464D01*
X019870Y031365D02*
X020760Y031365D01*
X020760Y031267D02*
X019870Y031267D01*
X019870Y031168D02*
X020760Y031168D01*
X020760Y031070D02*
X019870Y031070D01*
X019870Y030971D02*
X020760Y030971D01*
X020760Y030873D02*
X019870Y030873D01*
X019870Y030774D02*
X020760Y030774D01*
X020760Y030676D02*
X019870Y030676D01*
X019870Y030577D02*
X020760Y030577D01*
X020760Y030479D02*
X019870Y030479D01*
X019870Y030380D02*
X020760Y030380D01*
X020760Y030282D02*
X019870Y030282D01*
X019870Y030183D02*
X020760Y030183D01*
X020760Y030085D02*
X019870Y030085D01*
X019050Y028509D02*
X017480Y028509D01*
X017480Y028410D02*
X019000Y028410D01*
X018995Y028312D02*
X017480Y028312D01*
X017480Y028213D02*
X019027Y028213D01*
X019119Y028115D02*
X017480Y028115D01*
X022030Y024076D02*
X024568Y024076D01*
X022418Y023978D02*
X022030Y023978D01*
X035088Y029297D02*
X035164Y029297D01*
X035156Y029395D02*
X035225Y029395D01*
X035650Y029198D02*
X035950Y029198D01*
X035950Y029100D02*
X035650Y029100D01*
X035614Y029001D02*
X035950Y029001D01*
X035950Y028903D02*
X035497Y028903D01*
X035862Y029297D02*
X035950Y029297D01*
X035950Y029395D02*
X035930Y029395D01*
X035949Y029494D02*
X035950Y029494D01*
X035950Y029592D02*
X035929Y029592D01*
X035950Y029691D02*
X035861Y029691D01*
X035950Y029789D02*
X035614Y029789D01*
X035594Y029888D02*
X035950Y029888D01*
X035950Y029986D02*
X035594Y029986D01*
X035594Y030085D02*
X035950Y030085D01*
X035950Y030183D02*
X035594Y030183D01*
X035594Y030282D02*
X035950Y030282D01*
X035950Y030380D02*
X035594Y030380D01*
X035594Y030479D02*
X035950Y030479D01*
X035950Y030577D02*
X035594Y030577D01*
X035594Y030676D02*
X035950Y030676D01*
X035950Y030774D02*
X035594Y030774D01*
X035594Y030873D02*
X035950Y030873D01*
X035950Y030971D02*
X035594Y030971D01*
X035594Y031070D02*
X035950Y031070D01*
X035950Y031168D02*
X035594Y031168D01*
X035594Y031267D02*
X035950Y031267D01*
X035950Y031365D02*
X035594Y031365D01*
X035594Y031464D02*
X035950Y031464D01*
X035950Y031562D02*
X035594Y031562D01*
X035594Y031661D02*
X035950Y031661D01*
X035950Y031759D02*
X035594Y031759D01*
X035594Y031858D02*
X035950Y031858D01*
X035950Y031956D02*
X035594Y031956D01*
X035594Y032055D02*
X035950Y032055D01*
X035950Y032153D02*
X035594Y032153D01*
X035594Y032252D02*
X035950Y032252D01*
X035950Y032350D02*
X035594Y032350D01*
X035594Y032449D02*
X035950Y032449D01*
X035950Y032547D02*
X035594Y032547D01*
X035594Y032646D02*
X035950Y032646D01*
X035884Y032744D02*
X035594Y032744D01*
X035594Y032843D02*
X035845Y032843D01*
X035845Y032941D02*
X035594Y032941D01*
X035594Y033040D02*
X035883Y033040D01*
X036009Y033138D02*
X035594Y033138D01*
X035594Y033335D02*
X048710Y033335D01*
X048611Y033434D02*
X035594Y033434D01*
X035594Y033532D02*
X048551Y033532D01*
X048510Y033631D02*
X035594Y033631D01*
X035594Y033729D02*
X048495Y033729D01*
X048495Y033828D02*
X035594Y033828D01*
X035594Y033926D02*
X048513Y033926D01*
X048554Y034025D02*
X035594Y034025D01*
X035594Y034123D02*
X048618Y034123D01*
X048717Y034222D02*
X035594Y034222D01*
X035594Y034320D02*
X048760Y034320D01*
X048760Y034419D02*
X035685Y034419D01*
X035784Y034517D02*
X048760Y034517D01*
X048760Y034616D02*
X035794Y034616D01*
X035829Y034714D02*
X048760Y034714D01*
X048760Y034813D02*
X035887Y034813D01*
X035899Y034911D02*
X048760Y034911D01*
X048760Y035010D02*
X035872Y035010D01*
X035793Y035108D02*
X048760Y035108D01*
X048760Y031070D02*
X046312Y031070D01*
X046368Y030971D02*
X048760Y030971D01*
X048760Y030873D02*
X046379Y030873D01*
X046351Y030774D02*
X048760Y030774D01*
X048760Y030676D02*
X046271Y030676D01*
X051920Y029198D02*
X052940Y029198D01*
X052940Y029100D02*
X051920Y029100D01*
X051920Y029001D02*
X052940Y029001D01*
X052940Y028903D02*
X051920Y028903D01*
X051920Y028804D02*
X052940Y028804D01*
X052940Y028706D02*
X051920Y028706D01*
X051920Y028607D02*
X052940Y028607D01*
X052940Y028509D02*
X051920Y028509D01*
X051920Y028410D02*
X052940Y028410D01*
X052940Y028312D02*
X051920Y028312D01*
X051920Y028213D02*
X052940Y028213D01*
X052940Y028115D02*
X051920Y028115D01*
X051920Y028016D02*
X052924Y028016D01*
X052895Y027918D02*
X051920Y027918D01*
X051920Y027819D02*
X052903Y027819D01*
X052940Y027721D02*
X051920Y027721D01*
X051920Y027622D02*
X052940Y027622D01*
X052940Y027524D02*
X051920Y027524D01*
X051920Y027425D02*
X052940Y027425D01*
X052940Y027327D02*
X051920Y027327D01*
X051920Y027228D02*
X052940Y027228D01*
X052940Y027130D02*
X051920Y027130D01*
X051920Y027031D02*
X052940Y027031D01*
X052940Y026933D02*
X051920Y026933D01*
X051920Y026834D02*
X052940Y026834D01*
X052940Y026736D02*
X051920Y026736D01*
X053380Y024667D02*
X054110Y024667D01*
X054110Y024569D02*
X053380Y024569D01*
X053380Y024470D02*
X054110Y024470D01*
X054110Y024372D02*
X053380Y024372D01*
X053380Y024273D02*
X054110Y024273D01*
X054110Y024175D02*
X053380Y024175D01*
X053380Y024076D02*
X054110Y024076D01*
X054110Y023978D02*
X053380Y023978D01*
X053380Y023879D02*
X054110Y023879D01*
X054110Y023781D02*
X053380Y023781D01*
X053380Y023682D02*
X054110Y023682D01*
X054110Y023584D02*
X053380Y023584D01*
X053380Y023485D02*
X054110Y023485D01*
X054110Y023387D02*
X053380Y023387D01*
X053380Y023288D02*
X054110Y023288D01*
X054110Y023190D02*
X053380Y023190D01*
X053380Y023091D02*
X054110Y023091D01*
X054110Y022993D02*
X053380Y022993D01*
X053380Y022894D02*
X054110Y022894D01*
X054110Y022796D02*
X053380Y022796D01*
X053380Y022697D02*
X054110Y022697D01*
X054110Y022599D02*
X053380Y022599D01*
X053380Y022500D02*
X054110Y022500D01*
X054110Y022402D02*
X053919Y022402D01*
X054018Y022303D02*
X054110Y022303D01*
X054110Y022205D02*
X054059Y022205D01*
X054060Y022106D02*
X054110Y022106D01*
X054110Y022008D02*
X054060Y022008D01*
X054060Y021909D02*
X054110Y021909D01*
X054110Y021811D02*
X054060Y021811D01*
X054060Y021712D02*
X054110Y021712D01*
X054110Y021614D02*
X054060Y021614D01*
X054060Y021515D02*
X054110Y021515D01*
X054110Y021417D02*
X054060Y021417D01*
X054060Y021318D02*
X054110Y021318D01*
X054110Y021220D02*
X054060Y021220D01*
X054060Y021121D02*
X054110Y021121D01*
X054110Y021023D02*
X054060Y021023D01*
X054060Y020924D02*
X054110Y020924D01*
X054110Y020826D02*
X054060Y020826D01*
X054060Y020727D02*
X054110Y020727D01*
X054110Y020629D02*
X054060Y020629D01*
X054060Y020530D02*
X054110Y020530D01*
X054110Y020432D02*
X054060Y020432D01*
X054060Y020333D02*
X054110Y020333D01*
X054110Y020235D02*
X054060Y020235D01*
X054060Y020136D02*
X054110Y020136D01*
X054110Y020038D02*
X054060Y020038D01*
X054060Y019939D02*
X054110Y019939D01*
X054110Y019841D02*
X054060Y019841D01*
X054060Y019742D02*
X054110Y019742D01*
X054110Y019644D02*
X054060Y019644D01*
X054060Y019545D02*
X054110Y019545D01*
X054110Y019447D02*
X054060Y019447D01*
X054060Y019348D02*
X054110Y019348D01*
X054110Y019250D02*
X054060Y019250D01*
X054060Y019151D02*
X054110Y019151D01*
X054110Y019053D02*
X054060Y019053D01*
X054060Y018954D02*
X054110Y018954D01*
X054110Y018856D02*
X054060Y018856D01*
X054060Y018757D02*
X054110Y018757D01*
X054110Y018659D02*
X054060Y018659D01*
X054060Y018560D02*
X054110Y018560D01*
X054110Y018462D02*
X054060Y018462D01*
X054060Y018363D02*
X054110Y018363D01*
X054110Y018265D02*
X054060Y018265D01*
X054060Y018166D02*
X054110Y018166D01*
X054110Y018068D02*
X054060Y018068D01*
X054060Y017969D02*
X054110Y017969D01*
X054108Y017871D02*
X054061Y017871D01*
X054066Y017772D02*
X054102Y017772D01*
X054070Y017696D02*
X054070Y017696D01*
X054063Y017674D02*
X054086Y017674D01*
X054060Y017575D02*
X054036Y017575D01*
X054034Y017477D02*
X054008Y017477D01*
X054007Y017378D02*
X053980Y017378D01*
X053950Y017280D02*
X053951Y017280D01*
X053894Y017181D02*
X053882Y017181D01*
X053837Y017083D02*
X053815Y017083D01*
X053279Y017378D02*
X053164Y017378D01*
X053160Y017280D02*
X052977Y017280D01*
X052958Y017181D02*
X048472Y017181D01*
X048537Y017280D02*
X052542Y017280D01*
X052355Y017378D02*
X048560Y017378D01*
X048550Y017477D02*
X052257Y017477D01*
X052188Y017575D02*
X048502Y017575D01*
X048366Y017674D02*
X052147Y017674D01*
X053262Y017477D02*
X053346Y017477D01*
X053331Y017575D02*
X053403Y017575D01*
X053430Y017674D02*
X053372Y017674D01*
X053410Y017772D02*
X053456Y017772D01*
X053460Y017871D02*
X053410Y017871D01*
X053410Y017969D02*
X053460Y017969D01*
X053460Y018068D02*
X053391Y018068D01*
X053350Y018166D02*
X053460Y018166D01*
X053460Y018265D02*
X053307Y018265D01*
X053209Y018363D02*
X053460Y018363D01*
X053460Y018462D02*
X053086Y018462D01*
X053460Y018560D02*
X049357Y018560D01*
X049455Y018659D02*
X053460Y018659D01*
X053460Y018757D02*
X049522Y018757D01*
X049563Y018856D02*
X053460Y018856D01*
X053460Y018954D02*
X053345Y018954D01*
X053409Y019053D02*
X053460Y019053D01*
X053460Y019151D02*
X053425Y019151D01*
X053402Y019250D02*
X053460Y019250D01*
X053460Y019348D02*
X053380Y019348D01*
X053380Y019447D02*
X053460Y019447D01*
X053460Y019545D02*
X053380Y019545D01*
X053380Y019644D02*
X053460Y019644D01*
X053460Y019742D02*
X053380Y019742D01*
X053380Y019841D02*
X053460Y019841D01*
X053460Y019939D02*
X053380Y019939D01*
X053380Y020038D02*
X053460Y020038D01*
X053460Y020136D02*
X053380Y020136D01*
X053380Y020235D02*
X053460Y020235D01*
X053460Y020333D02*
X053380Y020333D01*
X053380Y020432D02*
X053460Y020432D01*
X053460Y020530D02*
X053380Y020530D01*
X053380Y020629D02*
X053460Y020629D01*
X053460Y020727D02*
X053380Y020727D01*
X053380Y020826D02*
X053460Y020826D01*
X053460Y020924D02*
X053380Y020924D01*
X053380Y021023D02*
X053460Y021023D01*
X053460Y021121D02*
X053380Y021121D01*
X053380Y021220D02*
X053460Y021220D01*
X053460Y021318D02*
X053380Y021318D01*
X053380Y021417D02*
X053460Y021417D01*
X053460Y021515D02*
X053380Y021515D01*
X053380Y021614D02*
X053460Y021614D01*
X053460Y021712D02*
X053380Y021712D01*
X053380Y021811D02*
X053460Y021811D01*
X053460Y021909D02*
X053380Y021909D01*
X053380Y022008D02*
X053460Y022008D01*
X053460Y022106D02*
X053380Y022106D01*
X053380Y022205D02*
X053460Y022205D01*
X053501Y022303D02*
X053380Y022303D01*
X053380Y022402D02*
X053600Y022402D01*
X052940Y019939D02*
X052025Y019939D01*
X052123Y019841D02*
X052940Y019841D01*
X052940Y019742D02*
X052222Y019742D01*
X052320Y019644D02*
X052940Y019644D01*
X052940Y019545D02*
X052419Y019545D01*
X052517Y019447D02*
X052940Y019447D01*
X052387Y018954D02*
X049583Y018954D01*
X049583Y019053D02*
X052289Y019053D01*
X048250Y023584D02*
X045676Y023584D01*
X045775Y023682D02*
X047596Y023682D01*
X038248Y030676D02*
X038018Y030676D01*
D22*
X050364Y021393D02*
X050364Y021023D01*
X049864Y020523D01*
X047861Y020523D01*
X048260Y017393D02*
X023760Y017393D01*
X019760Y017393D01*
X019260Y017893D01*
X019260Y018393D01*
X018760Y018393D02*
X018360Y018793D01*
X018360Y024393D01*
X018760Y018393D02*
X018760Y017393D01*
X021160Y016843D02*
X052760Y016843D01*
X052822Y016845D01*
X052884Y016851D01*
X052946Y016860D01*
X053007Y016874D01*
X053067Y016891D01*
X053125Y016912D01*
X053183Y016937D01*
X053238Y016965D01*
X053292Y016996D01*
X053344Y017031D01*
X053393Y017069D01*
X053440Y017110D01*
X053485Y017154D01*
X053526Y017200D01*
X053565Y017249D01*
X053600Y017300D01*
X053633Y017354D01*
X053662Y017409D01*
X053687Y017466D01*
X053709Y017524D01*
X053727Y017584D01*
X053741Y017645D01*
X053751Y017706D01*
X053758Y017768D01*
X053761Y017830D01*
X053760Y017893D01*
X053760Y022143D01*
M02*
