%
M48
M72
T01C0.0130
T02C0.0787
T03C0.1000
%
T01
X18760Y17393
X53160Y19143
X52010Y18393
X51010Y20643
X50364Y21393
X49655Y21393
X48410Y22293
X49760Y22893
X50260Y24143
X49260Y24143
X47760Y23893
X46760Y22393
X44810Y23793
X43660Y22593
X43947Y22293
X44047Y21693
X44410Y21543
X44360Y21043
X43660Y20393
X42260Y20393
X41960Y21043
X42260Y19393
X41260Y17893
X39760Y17893
X38260Y17893
X36760Y17893
X35260Y17893
X35760Y18893
X35010Y19643
X34260Y18893
X33510Y19643
X34260Y20393
X34860Y21043
X34260Y21543
X35160Y21993
X35460Y21693
X36342Y21043
X35760Y20393
X37260Y20393
X39410Y21993
X39760Y22293
X39260Y22993
X37760Y22993
X36510Y24193
X36110Y23893
X35760Y24193
X35410Y23893
X35385Y26093
X37260Y26743
X37510Y26243
X37260Y27393
X37010Y27893
X37260Y28393
X37010Y28893
X35684Y29493
X35385Y29143
X34910Y29493
X33560Y28393
X33260Y28893
X31510Y28143
X31210Y27643
X31010Y28893
X32960Y27893
X33260Y27393
X31760Y26043
X30760Y26143
X30110Y26243
X29510Y26243
X27660Y24943
X28010Y24643
X26760Y25893
X26960Y27143
X26960Y27543
X26960Y27943
X26931Y28343
X26460Y28293
X26060Y28293
X25660Y28293
X25860Y28693
X24760Y27893
X23710Y28093
X23360Y28393
X23060Y28093
X22760Y28393
X22460Y28093
X22560Y27393
X22560Y26743
X22760Y25893
X21460Y26248
X20760Y24893
X20260Y24393
X19510Y25143
X18360Y24393
X20260Y22393
X20760Y22893
X21260Y23393
X21810Y23193
X22310Y22893
X23260Y23343
X23560Y23093
X23860Y23343
X24760Y23893
X25260Y23593
X26060Y22943
X25760Y21543
X26260Y21043
X26760Y21543
X27760Y21543
X28760Y21543
X29760Y21543
X30760Y21543
X30260Y20393
X31260Y18893
X30760Y17893
X27760Y17893
X27260Y18893
X26760Y20393
X28260Y20393
X25010Y19643
X24760Y17893
X23760Y17393
X22260Y18393
X20260Y18393
X19260Y18393
X20260Y19893
X22060Y19893
X24260Y21543
X19760Y21893
X16760Y20893
X17260Y18893
X21160Y16843
X32260Y21043
X32760Y21543
X32760Y20393
X33760Y17893
X40060Y21693
X40760Y22993
X41460Y23993
X39260Y25693
X39260Y26693
X40260Y28893
X41760Y28893
X43260Y28893
X44760Y28893
X44047Y27693
X43260Y27693
X44047Y26693
X43947Y25693
X48260Y25693
X48260Y26693
X50510Y28143
X49260Y28893
X47760Y28893
X46260Y28893
X46114Y30893
X45405Y30893
X45760Y31893
X45760Y33393
X45760Y34893
X42760Y35393
X42260Y34893
X42260Y33393
X42260Y31893
X43760Y31393
X40760Y31393
X39114Y30893
X38405Y30893
X38760Y31893
X38760Y33393
X38760Y34893
X36110Y32893
X34460Y32893
X33760Y31393
X32114Y31143
X31405Y31143
X31760Y31893
X31760Y33393
X31760Y34893
X34460Y35393
X34885Y34893
X35634Y34893
X36760Y31393
X29760Y31393
X28260Y31893
X26760Y31393
X25114Y30893
X24405Y30893
X24760Y31893
X24760Y33393
X24760Y34893
X28260Y34893
X28760Y35393
X28260Y33393
X22760Y31393
X21760Y32393
X19260Y34393
X18760Y35893
X17260Y33643
X16760Y32143
X16760Y30393
X18260Y30393
X19260Y30393
X20260Y29393
X19260Y28893
X19260Y28343
X18260Y28893
X16760Y28893
X17260Y27893
X16760Y26393
X19260Y26393
X21260Y28893
X22260Y28893
X23260Y28893
X24760Y25893
X28760Y28793
X19710Y32143
X45510Y20393
X46760Y20893
X46760Y19393
X47510Y18643
X46760Y17893
X48260Y17393
X51510Y22143
X52760Y22143
X53760Y22143
X52760Y24693
X53760Y26393
X53160Y27893
X52510Y28643
X53760Y29393
X52510Y30143
X51260Y29393
X50510Y30643
X51060Y32093
X50510Y33643
X51260Y34643
X50510Y35643
X47760Y31393
X53160Y33643
X53760Y32143
X51160Y26393
T02
X49039Y19011
X49039Y33775
X21480Y33775
X21480Y19011
T03
X52760Y17893
X52760Y34893
X17760Y34893
X17760Y17893
M30
