G75*
%MOIN*%
%OFA0B0*%
%FSLAX24Y24*%
%IPPOS*%
%LPD*%
%AMOC8*
5,1,8,0,0,1.08239X$1,22.5*
%
%ADD10C,0.0110*%
%ADD11C,0.0080*%
%ADD12C,0.0050*%
%ADD13C,0.0060*%
%ADD14C,0.0040*%
%ADD15C,0.0059*%
D10*
X045155Y024644D02*
X045254Y024545D01*
X045549Y024545D01*
X045549Y024348D02*
X045549Y024939D01*
X045254Y024939D01*
X045155Y024840D01*
X045155Y024644D01*
X045800Y024545D02*
X045800Y024447D01*
X045898Y024348D01*
X046095Y024348D01*
X046194Y024447D01*
X046095Y024644D02*
X045898Y024644D01*
X045800Y024545D01*
X045800Y024840D02*
X045898Y024939D01*
X046095Y024939D01*
X046194Y024840D01*
X046194Y024742D01*
X046095Y024644D01*
X046444Y024840D02*
X046543Y024939D01*
X046740Y024939D01*
X046838Y024840D01*
X046838Y024447D01*
X046740Y024348D01*
X046543Y024348D01*
X046444Y024447D01*
X047071Y024348D02*
X047268Y024348D01*
X047169Y024348D02*
X047169Y024939D01*
X047071Y024939D02*
X047268Y024939D01*
X044508Y035547D02*
X044508Y035940D01*
X044705Y035744D02*
X044311Y035744D01*
X044060Y035744D02*
X043666Y035744D01*
X043765Y036039D02*
X043765Y035448D01*
X044060Y035744D02*
X043765Y036039D01*
X037705Y035744D02*
X037311Y035744D01*
X037508Y035940D02*
X037508Y035547D01*
X037060Y035547D02*
X036962Y035448D01*
X036765Y035448D01*
X036666Y035547D01*
X036666Y035645D01*
X036765Y035744D01*
X036863Y035744D01*
X036765Y035744D02*
X036666Y035842D01*
X036666Y035940D01*
X036765Y036039D01*
X036962Y036039D01*
X037060Y035940D01*
X030705Y035744D02*
X030311Y035744D01*
X030508Y035940D02*
X030508Y035547D01*
X030060Y035448D02*
X029666Y035842D01*
X029666Y035940D01*
X029765Y036039D01*
X029962Y036039D01*
X030060Y035940D01*
X030060Y035448D02*
X029666Y035448D01*
X023605Y035744D02*
X023211Y035744D01*
X022960Y035842D02*
X022763Y036039D01*
X022763Y035448D01*
X022960Y035448D02*
X022566Y035448D01*
X023408Y035547D02*
X023408Y035940D01*
D11*
X043786Y032984D02*
X043786Y032914D01*
X043856Y032843D01*
X043997Y032843D01*
X044067Y032914D01*
X044067Y032984D01*
X043997Y033054D01*
X043856Y033054D01*
X043786Y032984D01*
X043856Y032843D02*
X043786Y032773D01*
X043786Y032703D01*
X043856Y032633D01*
X043997Y032633D01*
X044067Y032703D01*
X044067Y032773D01*
X043997Y032843D01*
X044227Y032703D02*
X044227Y032633D01*
X044297Y032633D01*
X044297Y032703D01*
X044227Y032703D01*
X044477Y032703D02*
X044477Y032984D01*
X044757Y032703D01*
X044687Y032633D01*
X044547Y032633D01*
X044477Y032703D01*
X044757Y032703D02*
X044757Y032984D01*
X044687Y033054D01*
X044547Y033054D01*
X044477Y032984D01*
X044937Y032914D02*
X045077Y032633D01*
X045218Y032914D01*
X045858Y032984D02*
X046138Y032703D01*
X046068Y032633D01*
X045928Y032633D01*
X045858Y032703D01*
X045858Y032984D01*
X045928Y033054D01*
X046068Y033054D01*
X046138Y032984D01*
X046138Y032703D01*
X046318Y032703D02*
X046318Y032984D01*
X046599Y032703D01*
X046529Y032633D01*
X046389Y032633D01*
X046318Y032703D01*
X046318Y032984D02*
X046389Y033054D01*
X046529Y033054D01*
X046599Y032984D01*
X046599Y032703D01*
X046779Y032843D02*
X047059Y032843D01*
X046849Y033054D01*
X046849Y032633D01*
X047379Y032633D02*
X047379Y033054D01*
X047239Y033054D02*
X047520Y033054D01*
D12*
X047260Y028193D02*
X045260Y028193D01*
X045260Y027943D01*
X044435Y027619D02*
X044309Y027619D01*
X044268Y027577D01*
X044268Y027493D01*
X044309Y027452D01*
X044435Y027452D01*
X044435Y027368D02*
X044435Y027619D01*
X044351Y027452D02*
X044268Y027368D01*
X044158Y027368D02*
X043991Y027368D01*
X043882Y027410D02*
X043840Y027368D01*
X043757Y027368D01*
X043715Y027410D01*
X043715Y027452D01*
X043757Y027493D01*
X043840Y027493D01*
X043882Y027535D01*
X043882Y027577D01*
X043840Y027619D01*
X043757Y027619D01*
X043715Y027577D01*
X043606Y027619D02*
X043606Y027368D01*
X043439Y027368D01*
X043522Y027493D02*
X043606Y027493D01*
X043606Y027619D02*
X043439Y027619D01*
X043330Y027619D02*
X043163Y027619D01*
X043246Y027619D02*
X043246Y027368D01*
X043269Y027019D02*
X043311Y026977D01*
X043311Y026810D01*
X043269Y026768D01*
X043186Y026768D01*
X043144Y026810D01*
X043144Y026977D02*
X043186Y027019D01*
X043269Y027019D01*
X043420Y027019D02*
X043420Y026768D01*
X043587Y027019D01*
X043587Y026768D01*
X043715Y026619D02*
X043882Y026452D01*
X043840Y026493D02*
X043715Y026368D01*
X043882Y026368D02*
X043882Y026619D01*
X043991Y026577D02*
X044033Y026619D01*
X044117Y026619D01*
X044158Y026577D01*
X044158Y026410D01*
X044117Y026368D01*
X044033Y026368D01*
X043991Y026410D01*
X044268Y026410D02*
X044309Y026368D01*
X044393Y026368D01*
X044435Y026410D01*
X044393Y026493D02*
X044309Y026493D01*
X044268Y026452D01*
X044268Y026410D01*
X044393Y026493D02*
X044435Y026535D01*
X044435Y026577D01*
X044393Y026619D01*
X044309Y026619D01*
X044268Y026577D01*
X043587Y026019D02*
X043420Y025768D01*
X043420Y026019D01*
X043311Y025977D02*
X043311Y025810D01*
X043269Y025768D01*
X043186Y025768D01*
X043144Y025810D01*
X043144Y025977D02*
X043186Y026019D01*
X043269Y026019D01*
X043311Y025977D01*
X043587Y026019D02*
X043587Y025768D01*
X043573Y025619D02*
X043531Y025577D01*
X043531Y025410D01*
X043573Y025368D01*
X043656Y025368D01*
X043698Y025410D01*
X043698Y025577D01*
X043656Y025619D01*
X043573Y025619D01*
X043807Y025577D02*
X043849Y025619D01*
X043932Y025619D01*
X043974Y025577D01*
X043974Y025535D01*
X043932Y025493D01*
X043849Y025493D01*
X043807Y025452D01*
X043807Y025410D01*
X043849Y025368D01*
X043932Y025368D01*
X043974Y025410D01*
X044075Y025368D02*
X044158Y025368D01*
X044117Y025368D02*
X044117Y025619D01*
X044158Y025619D02*
X044075Y025619D01*
X044268Y025619D02*
X044268Y025368D01*
X044435Y025368D02*
X044435Y025619D01*
X044351Y025535D01*
X044268Y025619D01*
X044660Y025343D02*
X045160Y025343D01*
X045260Y025443D02*
X045260Y025193D01*
X047260Y025193D01*
X047260Y025443D01*
X047260Y025993D02*
X047260Y026393D01*
X047260Y026993D02*
X047260Y027393D01*
X047260Y027943D02*
X047260Y028193D01*
X048415Y027877D02*
X048457Y027919D01*
X048582Y027919D01*
X048582Y027668D01*
X048457Y027668D01*
X048415Y027710D01*
X048415Y027877D01*
X048691Y027919D02*
X048691Y027668D01*
X048858Y027919D01*
X048858Y027668D01*
X048968Y027710D02*
X048968Y027793D01*
X049051Y027793D01*
X048968Y027710D02*
X049009Y027668D01*
X049093Y027668D01*
X049135Y027710D01*
X049135Y027877D01*
X049093Y027919D01*
X049009Y027919D01*
X048968Y027877D01*
X049035Y026719D02*
X048951Y026635D01*
X048868Y026719D01*
X048868Y026468D01*
X048758Y026510D02*
X048717Y026468D01*
X048633Y026468D01*
X048591Y026510D01*
X048591Y026677D01*
X048633Y026719D01*
X048717Y026719D01*
X048758Y026677D01*
X048758Y026510D01*
X048482Y026510D02*
X048440Y026468D01*
X048357Y026468D01*
X048315Y026510D01*
X048315Y026552D01*
X048357Y026593D01*
X048440Y026593D01*
X048482Y026635D01*
X048482Y026677D01*
X048440Y026719D01*
X048357Y026719D01*
X048315Y026677D01*
X048206Y026719D02*
X048122Y026719D01*
X048164Y026719D02*
X048164Y026468D01*
X048206Y026468D02*
X048122Y026468D01*
X048079Y025919D02*
X048079Y025668D01*
X048245Y025919D01*
X048245Y025668D01*
X048346Y025668D02*
X048430Y025668D01*
X048388Y025668D02*
X048388Y025919D01*
X048430Y025919D02*
X048346Y025919D01*
X048539Y025627D02*
X048706Y025627D01*
X048815Y025710D02*
X048857Y025668D01*
X048982Y025668D01*
X048982Y025919D01*
X048857Y025919D01*
X048815Y025877D01*
X048815Y025835D01*
X048857Y025793D01*
X048982Y025793D01*
X049091Y025752D02*
X049133Y025793D01*
X049217Y025793D01*
X049258Y025835D01*
X049258Y025877D01*
X049217Y025919D01*
X049133Y025919D01*
X049091Y025877D01*
X049091Y025752D02*
X049091Y025710D01*
X049133Y025668D01*
X049217Y025668D01*
X049258Y025710D01*
X049368Y025710D02*
X049368Y025919D01*
X049535Y025919D02*
X049535Y025710D01*
X049493Y025668D01*
X049409Y025668D01*
X049368Y025710D01*
X048857Y025793D02*
X048815Y025752D01*
X048815Y025710D01*
X049035Y026468D02*
X049035Y026719D01*
X045260Y026993D02*
X045260Y027393D01*
X045260Y026343D02*
X045260Y025993D01*
X044158Y027368D02*
X044158Y027619D01*
X043991Y027619D01*
X044075Y027493D02*
X044158Y027493D01*
X043960Y027768D02*
X044001Y027810D01*
X043960Y027768D02*
X043876Y027768D01*
X043835Y027810D01*
X043835Y027852D01*
X043876Y027893D01*
X043918Y027893D01*
X043876Y027893D02*
X043835Y027935D01*
X043835Y027977D01*
X043876Y028019D01*
X043960Y028019D01*
X044001Y027977D01*
X043725Y027810D02*
X043683Y027810D01*
X043683Y027768D01*
X043725Y027768D01*
X043725Y027810D01*
X043587Y027810D02*
X043545Y027768D01*
X043462Y027768D01*
X043420Y027810D01*
X043420Y027852D01*
X043462Y027893D01*
X043504Y027893D01*
X043462Y027893D02*
X043420Y027935D01*
X043420Y027977D01*
X043462Y028019D01*
X043545Y028019D01*
X043587Y027977D01*
X043311Y028019D02*
X043311Y027852D01*
X043227Y027768D01*
X043144Y027852D01*
X043144Y028019D01*
X042860Y028043D02*
X042360Y028043D01*
X042260Y027943D02*
X042260Y028193D01*
X040260Y028193D01*
X040260Y027943D01*
X040260Y027393D02*
X040260Y026993D01*
X040260Y026393D02*
X040260Y025993D01*
X040260Y025443D02*
X040260Y025193D01*
X042260Y025193D01*
X042260Y025443D01*
X042260Y025993D02*
X042260Y026393D01*
X042260Y027043D02*
X042260Y027393D01*
X039435Y027368D02*
X039309Y027368D01*
X039268Y027410D01*
X039268Y027577D01*
X039309Y027619D01*
X039435Y027619D01*
X039435Y027368D01*
X039158Y027368D02*
X039158Y027535D01*
X039075Y027619D01*
X038991Y027535D01*
X038991Y027368D01*
X038991Y027493D02*
X039158Y027493D01*
X038882Y027619D02*
X038715Y027619D01*
X038799Y027619D02*
X038799Y027368D01*
X038606Y027368D02*
X038606Y027535D01*
X038522Y027619D01*
X038439Y027535D01*
X038439Y027368D01*
X038330Y027368D02*
X038163Y027368D01*
X038246Y027368D02*
X038246Y027619D01*
X038330Y027535D01*
X038439Y027493D02*
X038606Y027493D01*
X038882Y026619D02*
X038882Y026368D01*
X038715Y026368D01*
X038991Y026410D02*
X039033Y026368D01*
X039117Y026368D01*
X039158Y026410D01*
X039158Y026577D01*
X039117Y026619D01*
X039033Y026619D01*
X038991Y026577D01*
X039268Y026577D02*
X039309Y026619D01*
X039393Y026619D01*
X039435Y026577D01*
X039435Y026535D01*
X039393Y026493D01*
X039309Y026493D01*
X039268Y026452D01*
X039268Y026410D01*
X039309Y026368D01*
X039393Y026368D01*
X039435Y026410D01*
X039393Y025619D02*
X039435Y025577D01*
X039435Y025535D01*
X039393Y025493D01*
X039309Y025493D01*
X039268Y025452D01*
X039268Y025410D01*
X039309Y025368D01*
X039393Y025368D01*
X039435Y025410D01*
X039393Y025619D02*
X039309Y025619D01*
X039268Y025577D01*
X039158Y025619D02*
X039033Y025619D01*
X038991Y025577D01*
X038991Y025410D01*
X039033Y025368D01*
X039158Y025368D01*
X039158Y025619D01*
X038882Y025535D02*
X038799Y025619D01*
X038715Y025535D01*
X038715Y025368D01*
X038715Y025493D02*
X038882Y025493D01*
X038882Y025535D02*
X038882Y025368D01*
X045893Y023495D02*
X047782Y023495D01*
X047782Y019991D01*
X048215Y019991D01*
X047782Y019991D02*
X045893Y019991D01*
X045893Y023495D01*
D13*
X025651Y017923D02*
X025424Y017923D01*
X025538Y018093D02*
X025651Y018093D01*
X025651Y017923D02*
X025651Y018264D01*
X025424Y018264D01*
X025481Y018523D02*
X025424Y018580D01*
X025424Y018807D01*
X025481Y018864D01*
X025651Y018864D01*
X025651Y018523D01*
X025481Y018523D01*
X025793Y018467D02*
X026020Y018467D01*
X026161Y018523D02*
X026161Y018864D01*
X026388Y018864D02*
X026388Y018523D01*
X026275Y018637D01*
X026161Y018523D01*
X026161Y018264D02*
X026161Y017923D01*
X026275Y018037D01*
X026388Y017923D01*
X026388Y018264D01*
X026529Y018207D02*
X026586Y018264D01*
X026700Y018264D01*
X026756Y018207D01*
X026756Y018150D01*
X026700Y018093D01*
X026586Y018093D01*
X026529Y018037D01*
X026529Y017980D01*
X026586Y017923D01*
X026700Y017923D01*
X026756Y017980D01*
X026700Y018523D02*
X026756Y018580D01*
X026700Y018523D02*
X026586Y018523D01*
X026529Y018580D01*
X026529Y018637D01*
X026586Y018693D01*
X026700Y018693D01*
X026756Y018750D01*
X026756Y018807D01*
X026700Y018864D01*
X026586Y018864D01*
X026529Y018807D01*
X026643Y019123D02*
X026529Y019237D01*
X026529Y019464D01*
X026388Y019464D02*
X026388Y019123D01*
X026218Y019123D01*
X026161Y019180D01*
X026161Y019237D01*
X026218Y019293D01*
X026388Y019293D01*
X026218Y019293D02*
X026161Y019350D01*
X026161Y019407D01*
X026218Y019464D01*
X026388Y019464D01*
X026388Y019723D02*
X026218Y019723D01*
X026161Y019780D01*
X026161Y020007D01*
X026218Y020064D01*
X026388Y020064D01*
X026388Y019723D01*
X026529Y019780D02*
X026586Y019723D01*
X026700Y019723D01*
X026756Y019780D01*
X026700Y019893D02*
X026586Y019893D01*
X026529Y019837D01*
X026529Y019780D01*
X026700Y019893D02*
X026756Y019950D01*
X026756Y020007D01*
X026700Y020064D01*
X026586Y020064D01*
X026529Y020007D01*
X026388Y020323D02*
X026161Y020323D01*
X026020Y020323D02*
X026020Y020550D01*
X025906Y020664D01*
X025793Y020550D01*
X025793Y020323D01*
X025651Y020380D02*
X025595Y020323D01*
X025481Y020323D01*
X025424Y020380D01*
X025424Y020437D01*
X025481Y020493D01*
X025595Y020493D01*
X025651Y020550D01*
X025651Y020607D01*
X025595Y020664D01*
X025481Y020664D01*
X025424Y020607D01*
X025283Y020664D02*
X025283Y020323D01*
X025283Y020493D02*
X025056Y020493D01*
X025056Y020323D02*
X025056Y020664D01*
X025113Y020923D02*
X025056Y020980D01*
X025113Y020923D02*
X025226Y020923D01*
X025283Y020980D01*
X025283Y021207D01*
X025226Y021264D01*
X025113Y021264D01*
X025056Y021207D01*
X024915Y021207D02*
X024915Y021150D01*
X024858Y021093D01*
X024745Y021093D01*
X024688Y021037D01*
X024688Y020980D01*
X024745Y020923D01*
X024858Y020923D01*
X024915Y020980D01*
X024915Y021207D02*
X024858Y021264D01*
X024745Y021264D01*
X024688Y021207D01*
X024688Y021523D02*
X024801Y021637D01*
X024745Y021637D02*
X024915Y021637D01*
X024915Y021523D02*
X024915Y021864D01*
X024745Y021864D01*
X024688Y021807D01*
X024688Y021693D01*
X024745Y021637D01*
X025056Y021523D02*
X025056Y021864D01*
X025283Y021864D02*
X025283Y021523D01*
X025170Y021637D01*
X025056Y021523D01*
X025424Y021693D02*
X025481Y021637D01*
X025651Y021637D01*
X025651Y021523D02*
X025651Y021864D01*
X025481Y021864D01*
X025424Y021807D01*
X025424Y021693D01*
X025793Y021467D02*
X026020Y021467D01*
X026161Y021523D02*
X026161Y021864D01*
X026388Y021864D02*
X026388Y021523D01*
X026275Y021637D01*
X026161Y021523D01*
X026218Y021264D02*
X026331Y021264D01*
X026388Y021207D01*
X026388Y020980D01*
X026331Y020923D01*
X026218Y020923D01*
X026161Y020980D01*
X026020Y020923D02*
X026020Y021264D01*
X025849Y021264D01*
X025793Y021207D01*
X025793Y020980D01*
X025849Y020923D01*
X026020Y020923D01*
X026161Y021207D02*
X026218Y021264D01*
X026529Y021580D02*
X026586Y021523D01*
X026700Y021523D01*
X026756Y021580D01*
X026700Y021693D02*
X026586Y021693D01*
X026529Y021637D01*
X026529Y021580D01*
X026700Y021693D02*
X026756Y021750D01*
X026756Y021807D01*
X026700Y021864D01*
X026586Y021864D01*
X026529Y021807D01*
X026529Y022123D02*
X026529Y022464D01*
X026643Y022350D01*
X026756Y022464D01*
X026756Y022123D01*
X026388Y022180D02*
X026388Y022407D01*
X026331Y022464D01*
X026218Y022464D01*
X026161Y022407D01*
X026161Y022180D01*
X026218Y022123D01*
X026331Y022123D01*
X026388Y022180D01*
X026020Y022180D02*
X025963Y022123D01*
X025849Y022123D01*
X025793Y022180D01*
X025793Y022237D01*
X025849Y022293D01*
X025963Y022293D01*
X026020Y022350D01*
X026020Y022407D01*
X025963Y022464D01*
X025849Y022464D01*
X025793Y022407D01*
X025651Y022464D02*
X025538Y022464D01*
X025595Y022464D02*
X025595Y022123D01*
X025651Y022123D02*
X025538Y022123D01*
X025793Y022723D02*
X025963Y022893D01*
X026020Y022837D02*
X025793Y023064D01*
X026020Y023064D02*
X026020Y022723D01*
X026161Y022780D02*
X026218Y022723D01*
X026331Y022723D01*
X026388Y022780D01*
X026388Y023007D01*
X026331Y023064D01*
X026218Y023064D01*
X026161Y023007D01*
X026086Y023323D02*
X026142Y023380D01*
X026086Y023323D02*
X025972Y023323D01*
X025916Y023380D01*
X025916Y023437D01*
X025972Y023493D01*
X026086Y023493D01*
X026142Y023550D01*
X026142Y023607D01*
X026086Y023664D01*
X025972Y023664D01*
X025916Y023607D01*
X025774Y023607D02*
X025774Y023380D01*
X025717Y023323D01*
X025604Y023323D01*
X025547Y023380D01*
X025547Y023607D01*
X025604Y023664D01*
X025717Y023664D01*
X025774Y023607D01*
X025651Y023867D02*
X025424Y023867D01*
X025283Y023923D02*
X025113Y023923D01*
X025056Y023980D01*
X025056Y024037D01*
X025113Y024093D01*
X025283Y024093D01*
X025283Y023923D02*
X025283Y024264D01*
X025113Y024264D01*
X025056Y024207D01*
X025056Y024150D01*
X025113Y024093D01*
X024915Y023923D02*
X024915Y024264D01*
X024915Y023923D02*
X024688Y023923D01*
X025793Y023980D02*
X025793Y024207D01*
X025849Y024264D01*
X026020Y024264D01*
X026020Y023923D01*
X025849Y023923D01*
X025793Y023980D01*
X026161Y023980D02*
X026218Y023923D01*
X026331Y023923D01*
X026388Y023980D01*
X026388Y024207D01*
X026331Y024264D01*
X026218Y024264D01*
X026161Y024207D01*
X026020Y024467D02*
X025793Y024467D01*
X025651Y024580D02*
X025595Y024523D01*
X025481Y024523D01*
X025424Y024580D01*
X025424Y024807D02*
X025481Y024864D01*
X025595Y024864D01*
X025651Y024807D01*
X025651Y024580D01*
X026161Y024523D02*
X026161Y024864D01*
X026388Y024864D02*
X026388Y024523D01*
X026275Y024637D01*
X026161Y024523D01*
X026529Y024580D02*
X026586Y024523D01*
X026700Y024523D01*
X026756Y024580D01*
X026700Y024693D02*
X026586Y024693D01*
X026529Y024637D01*
X026529Y024580D01*
X026700Y024693D02*
X026756Y024750D01*
X026756Y024807D01*
X026700Y024864D01*
X026586Y024864D01*
X026529Y024807D01*
X026756Y024264D02*
X026756Y023923D01*
X026529Y023923D01*
X026529Y023664D02*
X026529Y023323D01*
X026388Y023323D02*
X026275Y023323D01*
X026331Y023323D02*
X026331Y023664D01*
X026275Y023664D02*
X026388Y023664D01*
X026529Y023664D02*
X026643Y023550D01*
X026756Y023664D01*
X026756Y023323D01*
X026700Y023064D02*
X026756Y023007D01*
X026756Y022950D01*
X026700Y022893D01*
X026586Y022893D01*
X026529Y022837D01*
X026529Y022780D01*
X026586Y022723D01*
X026700Y022723D01*
X026756Y022780D01*
X026700Y023064D02*
X026586Y023064D01*
X026529Y023007D01*
X027266Y023064D02*
X027493Y023064D01*
X027493Y022893D01*
X027379Y022950D01*
X027323Y022950D01*
X027266Y022893D01*
X027266Y022780D01*
X027323Y022723D01*
X027436Y022723D01*
X027493Y022780D01*
X027634Y022723D02*
X027861Y022723D01*
X027748Y022723D02*
X027748Y023064D01*
X027861Y022950D01*
X028003Y023007D02*
X028059Y023064D01*
X028230Y023064D01*
X028230Y022723D01*
X028059Y022723D01*
X028003Y022780D01*
X028003Y023007D01*
X028059Y023323D02*
X028003Y023380D01*
X028003Y023607D01*
X028059Y023664D01*
X028230Y023664D01*
X028230Y023323D01*
X028059Y023323D01*
X027861Y023323D02*
X027634Y023323D01*
X027748Y023323D02*
X027748Y023664D01*
X027861Y023550D01*
X027493Y023493D02*
X027323Y023664D01*
X027323Y023323D01*
X027266Y023493D02*
X027493Y023493D01*
X027436Y023923D02*
X027493Y023980D01*
X027436Y023923D02*
X027323Y023923D01*
X027266Y023980D01*
X027266Y024037D01*
X027323Y024093D01*
X027379Y024093D01*
X027323Y024093D02*
X027266Y024150D01*
X027266Y024207D01*
X027323Y024264D01*
X027436Y024264D01*
X027493Y024207D01*
X027748Y024264D02*
X027748Y023923D01*
X027861Y023923D02*
X027634Y023923D01*
X027861Y024150D02*
X027748Y024264D01*
X027748Y024523D02*
X027748Y024864D01*
X027861Y024750D01*
X028003Y024807D02*
X028059Y024864D01*
X028230Y024864D01*
X028230Y024523D01*
X028059Y024523D01*
X028003Y024580D01*
X028003Y024807D01*
X027861Y024523D02*
X027634Y024523D01*
X027493Y024523D02*
X027266Y024750D01*
X027266Y024807D01*
X027323Y024864D01*
X027436Y024864D01*
X027493Y024807D01*
X027493Y024523D02*
X027266Y024523D01*
X028003Y024207D02*
X028059Y024264D01*
X028230Y024264D01*
X028230Y023923D01*
X028059Y023923D01*
X028003Y023980D01*
X028003Y024207D01*
X028710Y025023D02*
X028880Y025023D01*
X028880Y024910D02*
X028880Y025250D01*
X028710Y025250D01*
X028653Y025193D01*
X028653Y025080D01*
X028710Y025023D01*
X029021Y025023D02*
X029192Y025023D01*
X029248Y025080D01*
X029192Y025137D01*
X029021Y025137D01*
X029021Y025193D02*
X029021Y025023D01*
X029021Y025193D02*
X029078Y025250D01*
X029192Y025250D01*
X029390Y025193D02*
X029390Y025023D01*
X029503Y025023D02*
X029503Y025193D01*
X029447Y025250D01*
X029390Y025193D01*
X029503Y025193D02*
X029560Y025250D01*
X029617Y025250D01*
X029617Y025023D01*
X029820Y024764D02*
X030046Y024764D01*
X029933Y024764D02*
X029933Y024423D01*
X030188Y024480D02*
X030245Y024423D01*
X030358Y024423D01*
X030415Y024480D01*
X030358Y024593D02*
X030245Y024593D01*
X030188Y024537D01*
X030188Y024480D01*
X030358Y024593D02*
X030415Y024650D01*
X030415Y024707D01*
X030358Y024764D01*
X030245Y024764D01*
X030188Y024707D01*
X030126Y025023D02*
X030126Y025193D01*
X030183Y025250D01*
X030353Y025250D01*
X030353Y025023D01*
X030485Y025023D02*
X030599Y025023D01*
X030542Y025023D02*
X030542Y025250D01*
X030599Y025250D01*
X030542Y025364D02*
X030542Y025420D01*
X030740Y025193D02*
X030740Y025080D01*
X030797Y025023D01*
X030967Y025023D01*
X030967Y024910D02*
X030967Y025250D01*
X030797Y025250D01*
X030740Y025193D01*
X030783Y024764D02*
X030613Y024764D01*
X030556Y024707D01*
X030556Y024593D01*
X030613Y024537D01*
X030783Y024537D01*
X030670Y024537D02*
X030556Y024423D01*
X030783Y024423D02*
X030783Y024764D01*
X030924Y024367D02*
X031151Y024367D01*
X031293Y024480D02*
X031349Y024423D01*
X031520Y024423D01*
X031520Y024764D01*
X031349Y024764D01*
X031293Y024707D01*
X031293Y024480D01*
X031349Y024164D02*
X031520Y024164D01*
X031520Y023823D01*
X031349Y023823D01*
X031293Y023880D01*
X031293Y024107D01*
X031349Y024164D01*
X031661Y024107D02*
X031718Y024164D01*
X031831Y024164D01*
X031888Y024107D01*
X031888Y023880D01*
X031831Y023823D01*
X031718Y023823D01*
X031661Y023880D01*
X031718Y023564D02*
X031888Y023564D01*
X031888Y023223D01*
X031718Y023223D01*
X031661Y023280D01*
X031661Y023507D01*
X031718Y023564D01*
X031520Y023450D02*
X031406Y023564D01*
X031293Y023450D01*
X031293Y023223D01*
X031293Y023393D02*
X031520Y023393D01*
X031520Y023450D02*
X031520Y023223D01*
X031520Y022964D02*
X031520Y022623D01*
X031293Y022623D01*
X031349Y022364D02*
X031463Y022364D01*
X031520Y022307D01*
X031520Y022080D01*
X031463Y022023D01*
X031349Y022023D01*
X031293Y022080D01*
X031151Y021967D02*
X030924Y021967D01*
X030783Y022023D02*
X030670Y022023D01*
X030726Y022023D02*
X030726Y022364D01*
X030670Y022364D02*
X030783Y022364D01*
X030537Y022364D02*
X030311Y022023D01*
X030311Y022364D01*
X030169Y022364D02*
X029942Y022364D01*
X030056Y022364D02*
X030056Y022023D01*
X030046Y021764D02*
X029820Y021764D01*
X029933Y021764D02*
X029933Y021423D01*
X029678Y021423D02*
X029678Y021650D01*
X029565Y021764D01*
X029451Y021650D01*
X029451Y021423D01*
X029451Y021593D02*
X029678Y021593D01*
X029310Y021764D02*
X029083Y021764D01*
X029196Y021764D02*
X029196Y021423D01*
X030188Y021480D02*
X030245Y021423D01*
X030358Y021423D01*
X030415Y021480D01*
X030358Y021593D02*
X030245Y021593D01*
X030188Y021537D01*
X030188Y021480D01*
X030358Y021593D02*
X030415Y021650D01*
X030415Y021707D01*
X030358Y021764D01*
X030245Y021764D01*
X030188Y021707D01*
X030537Y022023D02*
X030537Y022364D01*
X031293Y022307D02*
X031349Y022364D01*
X031661Y022364D02*
X031888Y022364D01*
X031775Y022364D02*
X031775Y022023D01*
X032029Y022023D02*
X032143Y022137D01*
X032086Y022137D02*
X032256Y022137D01*
X032256Y022023D02*
X032256Y022364D01*
X032086Y022364D01*
X032029Y022307D01*
X032029Y022193D01*
X032086Y022137D01*
X032086Y021764D02*
X032029Y021707D01*
X032029Y021650D01*
X032086Y021593D01*
X032256Y021593D01*
X032256Y021423D02*
X032086Y021423D01*
X032029Y021480D01*
X032029Y021537D01*
X032086Y021593D01*
X032086Y021764D02*
X032256Y021764D01*
X032256Y021423D01*
X032200Y021164D02*
X032256Y021107D01*
X032256Y021050D01*
X032200Y020993D01*
X032086Y020993D01*
X032029Y020937D01*
X032029Y020880D01*
X032086Y020823D01*
X032200Y020823D01*
X032256Y020880D01*
X032200Y021164D02*
X032086Y021164D01*
X032029Y021107D01*
X031888Y021164D02*
X031888Y020823D01*
X031775Y020937D01*
X031661Y020823D01*
X031661Y021164D01*
X031661Y021423D02*
X031661Y021650D01*
X031775Y021764D01*
X031888Y021650D01*
X031888Y021423D01*
X031888Y021593D02*
X031661Y021593D01*
X031520Y021764D02*
X031293Y021764D01*
X031406Y021764D02*
X031406Y021423D01*
X031038Y021423D02*
X031038Y021764D01*
X031151Y021764D02*
X030924Y021764D01*
X030783Y021367D02*
X030556Y021367D01*
X030924Y021050D02*
X030924Y020823D01*
X030924Y020993D02*
X031151Y020993D01*
X031151Y021050D02*
X031038Y021164D01*
X030924Y021050D01*
X031151Y021050D02*
X031151Y020823D01*
X031293Y020767D02*
X031520Y020767D01*
X031520Y020564D02*
X031293Y020564D01*
X031406Y020564D02*
X031406Y020223D01*
X031151Y020223D02*
X031151Y020450D01*
X031038Y020564D01*
X030924Y020450D01*
X030924Y020223D01*
X030783Y020223D02*
X030556Y020450D01*
X030556Y020507D01*
X030613Y020564D01*
X030726Y020564D01*
X030783Y020507D01*
X030924Y020393D02*
X031151Y020393D01*
X030783Y020223D02*
X030556Y020223D01*
X030924Y019907D02*
X030924Y019850D01*
X030981Y019793D01*
X031151Y019793D01*
X031151Y019623D02*
X031151Y019964D01*
X030981Y019964D01*
X030924Y019907D01*
X030981Y019793D02*
X030924Y019737D01*
X030924Y019680D01*
X030981Y019623D01*
X031151Y019623D01*
X031293Y019567D02*
X031520Y019567D01*
X031661Y019623D02*
X031661Y019964D01*
X031888Y019964D02*
X031888Y019623D01*
X031775Y019737D01*
X031661Y019623D01*
X031775Y019364D02*
X031661Y019250D01*
X031661Y019023D01*
X031661Y019193D02*
X031888Y019193D01*
X031888Y019250D02*
X031888Y019023D01*
X032029Y019080D02*
X032029Y019307D01*
X032086Y019364D01*
X032256Y019364D01*
X032256Y019023D01*
X032086Y019023D01*
X032029Y019080D01*
X031888Y019250D02*
X031775Y019364D01*
X031520Y019364D02*
X031293Y019364D01*
X031406Y019364D02*
X031406Y019023D01*
X031151Y019023D02*
X031151Y019250D01*
X031038Y019364D01*
X030924Y019250D01*
X030924Y019023D01*
X030783Y019023D02*
X030556Y019023D01*
X030670Y019023D02*
X030670Y019364D01*
X030783Y019250D01*
X030924Y019193D02*
X031151Y019193D01*
X031151Y018764D02*
X030924Y018764D01*
X031038Y018764D02*
X031038Y018423D01*
X031293Y018423D02*
X031293Y018650D01*
X031406Y018764D01*
X031520Y018650D01*
X031520Y018423D01*
X031661Y018480D02*
X031718Y018423D01*
X031888Y018423D01*
X031888Y018764D01*
X031718Y018764D01*
X031661Y018707D01*
X031661Y018650D01*
X031718Y018593D01*
X031888Y018593D01*
X032029Y018537D02*
X032029Y018764D01*
X032256Y018764D02*
X032256Y018537D01*
X032143Y018423D01*
X032029Y018537D01*
X031718Y018593D02*
X031661Y018537D01*
X031661Y018480D01*
X031520Y018593D02*
X031293Y018593D01*
X031349Y018164D02*
X031293Y018107D01*
X031293Y017993D01*
X031349Y017937D01*
X031520Y017937D01*
X031520Y017823D02*
X031520Y018164D01*
X031349Y018164D01*
X031406Y017937D02*
X031293Y017823D01*
X031151Y017767D02*
X030924Y017767D01*
X030783Y017880D02*
X030783Y018107D01*
X030726Y018164D01*
X030613Y018164D01*
X030556Y018107D01*
X030556Y017880D01*
X030613Y017823D01*
X030726Y017823D01*
X030783Y017880D01*
X030415Y017823D02*
X030415Y018164D01*
X030188Y017823D01*
X030188Y018164D01*
X030046Y018107D02*
X030046Y017880D01*
X029990Y017823D01*
X029876Y017823D01*
X029820Y017880D01*
X029820Y018107D01*
X029876Y018164D01*
X029990Y018164D01*
X030046Y018107D01*
X029678Y018164D02*
X029451Y018164D01*
X029310Y018164D02*
X029083Y018164D01*
X029196Y017993D02*
X029310Y017993D01*
X029310Y017823D02*
X029310Y018164D01*
X029565Y017993D02*
X029678Y017993D01*
X029678Y017823D02*
X029678Y018164D01*
X028230Y018150D02*
X028116Y018264D01*
X028003Y018150D01*
X028003Y017923D01*
X027861Y017980D02*
X027804Y017923D01*
X027691Y017923D01*
X027634Y017980D01*
X027634Y018093D01*
X027691Y018150D01*
X027748Y018150D01*
X027861Y018093D01*
X027861Y018264D01*
X027634Y018264D01*
X027691Y018523D02*
X027691Y018864D01*
X027861Y018693D01*
X027634Y018693D01*
X028003Y018693D02*
X028230Y018693D01*
X028230Y018750D02*
X028116Y018864D01*
X028003Y018750D01*
X028003Y018523D01*
X028230Y018523D02*
X028230Y018750D01*
X028230Y019123D02*
X028230Y019350D01*
X028116Y019464D01*
X028003Y019350D01*
X028003Y019123D01*
X027861Y019180D02*
X027804Y019123D01*
X027691Y019123D01*
X027634Y019180D01*
X027634Y019237D01*
X027691Y019293D01*
X027748Y019293D01*
X027691Y019293D02*
X027634Y019350D01*
X027634Y019407D01*
X027691Y019464D01*
X027804Y019464D01*
X027861Y019407D01*
X028003Y019293D02*
X028230Y019293D01*
X028230Y019723D02*
X028230Y019950D01*
X028116Y020064D01*
X028003Y019950D01*
X028003Y019723D01*
X027861Y019723D02*
X027634Y019950D01*
X027634Y020007D01*
X027691Y020064D01*
X027804Y020064D01*
X027861Y020007D01*
X028003Y019893D02*
X028230Y019893D01*
X027861Y019723D02*
X027634Y019723D01*
X027634Y020323D02*
X027861Y020323D01*
X027748Y020323D02*
X027748Y020664D01*
X027861Y020550D01*
X028003Y020550D02*
X028003Y020323D01*
X028003Y020493D02*
X028230Y020493D01*
X028230Y020550D02*
X028230Y020323D01*
X028230Y020550D02*
X028116Y020664D01*
X028003Y020550D01*
X028003Y020923D02*
X028003Y021150D01*
X028116Y021264D01*
X028230Y021150D01*
X028230Y020923D01*
X028230Y021093D02*
X028003Y021093D01*
X027861Y020980D02*
X027634Y021207D01*
X027634Y020980D01*
X027691Y020923D01*
X027804Y020923D01*
X027861Y020980D01*
X027861Y021207D01*
X027804Y021264D01*
X027691Y021264D01*
X027634Y021207D01*
X027634Y021523D02*
X027861Y021523D01*
X027748Y021523D02*
X027748Y021864D01*
X027861Y021750D01*
X028003Y021807D02*
X028059Y021864D01*
X028230Y021864D01*
X028230Y021523D01*
X028059Y021523D01*
X028003Y021580D01*
X028003Y021807D01*
X028059Y022123D02*
X028003Y022180D01*
X028003Y022407D01*
X028059Y022464D01*
X028230Y022464D01*
X028230Y022123D01*
X028059Y022123D01*
X027861Y022123D02*
X027634Y022123D01*
X027748Y022123D02*
X027748Y022464D01*
X027861Y022350D01*
X027493Y022293D02*
X027493Y022180D01*
X027436Y022123D01*
X027323Y022123D01*
X027266Y022180D01*
X027266Y022237D01*
X027323Y022293D01*
X027493Y022293D01*
X027379Y022407D01*
X027266Y022464D01*
X027266Y021864D02*
X027266Y021807D01*
X027493Y021580D01*
X027493Y021523D01*
X027493Y021864D02*
X027266Y021864D01*
X026756Y021264D02*
X026756Y020923D01*
X026529Y020923D01*
X026529Y020664D02*
X026756Y020664D01*
X026756Y020323D01*
X026756Y020493D02*
X026643Y020493D01*
X026388Y020323D02*
X026388Y020664D01*
X026020Y020493D02*
X025793Y020493D01*
X025651Y020867D02*
X025424Y020867D01*
X024915Y020267D02*
X024688Y020267D01*
X024546Y020380D02*
X024546Y020607D01*
X024490Y020664D01*
X024376Y020664D01*
X024320Y020607D01*
X024178Y020607D02*
X024178Y020550D01*
X024121Y020493D01*
X024008Y020493D01*
X023951Y020437D01*
X023951Y020380D01*
X024008Y020323D01*
X024121Y020323D01*
X024178Y020380D01*
X024320Y020380D02*
X024376Y020323D01*
X024490Y020323D01*
X024546Y020380D01*
X024178Y020607D02*
X024121Y020664D01*
X024008Y020664D01*
X023951Y020607D01*
X025056Y020007D02*
X025113Y020064D01*
X025226Y020064D01*
X025283Y020007D01*
X025283Y019950D01*
X025226Y019893D01*
X025113Y019893D01*
X025056Y019837D01*
X025056Y019780D01*
X025113Y019723D01*
X025226Y019723D01*
X025283Y019780D01*
X025424Y019780D02*
X025481Y019723D01*
X025595Y019723D01*
X025651Y019780D01*
X025651Y020007D01*
X025595Y020064D01*
X025481Y020064D01*
X025424Y020007D01*
X025793Y019667D02*
X026020Y019667D01*
X025906Y019464D02*
X025793Y019350D01*
X025793Y019123D01*
X025793Y019293D02*
X026020Y019293D01*
X026020Y019350D02*
X025906Y019464D01*
X026020Y019350D02*
X026020Y019123D01*
X025538Y019123D02*
X025538Y019464D01*
X025651Y019464D02*
X025424Y019464D01*
X025283Y019067D02*
X025056Y019067D01*
X024915Y019123D02*
X024688Y019123D01*
X024546Y019123D02*
X024546Y019464D01*
X024320Y019123D01*
X024320Y019464D01*
X024688Y019464D02*
X024915Y019464D01*
X024915Y019123D01*
X024915Y019293D02*
X024801Y019293D01*
X026643Y019123D02*
X026756Y019237D01*
X026756Y019464D01*
X028003Y018093D02*
X028230Y018093D01*
X028230Y018150D02*
X028230Y017923D01*
X026020Y017867D02*
X025793Y017867D01*
X028951Y020337D02*
X028951Y020450D01*
X029064Y020564D01*
X029206Y020507D02*
X029262Y020564D01*
X029376Y020564D01*
X029433Y020507D01*
X029433Y020280D01*
X029376Y020223D01*
X029262Y020223D01*
X029206Y020280D01*
X029064Y020223D02*
X028951Y020337D01*
X029574Y020223D02*
X029574Y020564D01*
X029801Y020564D02*
X029574Y020223D01*
X029801Y020223D02*
X029801Y020564D01*
X029933Y020564D02*
X030046Y020450D01*
X030046Y020337D01*
X029933Y020223D01*
X031661Y020223D02*
X031661Y020450D01*
X031775Y020564D01*
X031888Y020450D01*
X031888Y020223D01*
X032029Y020280D02*
X032029Y020507D01*
X032086Y020564D01*
X032256Y020564D01*
X032256Y020223D01*
X032086Y020223D01*
X032029Y020280D01*
X031888Y020393D02*
X031661Y020393D01*
X032086Y019964D02*
X032029Y019907D01*
X032086Y019964D02*
X032200Y019964D01*
X032256Y019907D01*
X032256Y019850D01*
X032200Y019793D01*
X032086Y019793D01*
X032029Y019737D01*
X032029Y019680D01*
X032086Y019623D01*
X032200Y019623D01*
X032256Y019680D01*
X033134Y019680D02*
X033191Y019623D01*
X033304Y019623D01*
X033361Y019680D01*
X033361Y019737D01*
X033304Y019793D01*
X033191Y019793D01*
X033134Y019737D01*
X033134Y019680D01*
X033191Y019793D02*
X033134Y019850D01*
X033134Y019907D01*
X033191Y019964D01*
X033304Y019964D01*
X033361Y019907D01*
X033361Y019850D01*
X033304Y019793D01*
X033503Y019680D02*
X033503Y019907D01*
X033559Y019964D01*
X033730Y019964D01*
X033730Y019623D01*
X033559Y019623D01*
X033503Y019680D01*
X033559Y019364D02*
X033730Y019364D01*
X033730Y019023D01*
X033559Y019023D01*
X033503Y019080D01*
X033503Y019307D01*
X033559Y019364D01*
X033361Y019307D02*
X033361Y019250D01*
X033304Y019193D01*
X033134Y019193D01*
X033134Y019080D02*
X033134Y019307D01*
X033191Y019364D01*
X033304Y019364D01*
X033361Y019307D01*
X033361Y019080D02*
X033304Y019023D01*
X033191Y019023D01*
X033134Y019080D01*
X033248Y018764D02*
X033248Y018423D01*
X033361Y018423D02*
X033134Y018423D01*
X032993Y018480D02*
X032766Y018707D01*
X032766Y018480D01*
X032823Y018423D01*
X032936Y018423D01*
X032993Y018480D01*
X032993Y018707D01*
X032936Y018764D01*
X032823Y018764D01*
X032766Y018707D01*
X033248Y018764D02*
X033361Y018650D01*
X033503Y018707D02*
X033559Y018764D01*
X033730Y018764D01*
X033730Y018423D01*
X033559Y018423D01*
X033503Y018480D01*
X033503Y018707D01*
X033559Y018164D02*
X033730Y018164D01*
X033730Y017823D01*
X033559Y017823D01*
X033503Y017880D01*
X033503Y018107D01*
X033559Y018164D01*
X033361Y018050D02*
X033248Y018164D01*
X033248Y017823D01*
X033361Y017823D02*
X033134Y017823D01*
X032993Y017823D02*
X032766Y017823D01*
X032879Y017823D02*
X032879Y018164D01*
X032993Y018050D01*
X032256Y017937D02*
X032086Y017937D01*
X032029Y017993D01*
X032029Y018107D01*
X032086Y018164D01*
X032256Y018164D01*
X032256Y017823D01*
X031888Y017823D02*
X031775Y017937D01*
X031661Y017823D01*
X031661Y018164D01*
X031888Y018164D02*
X031888Y017823D01*
X033361Y020223D02*
X033361Y020280D01*
X033134Y020507D01*
X033134Y020564D01*
X033361Y020564D01*
X033503Y020507D02*
X033559Y020564D01*
X033730Y020564D01*
X033730Y020223D01*
X033559Y020223D01*
X033503Y020280D01*
X033503Y020507D01*
X033559Y020823D02*
X033503Y020880D01*
X033503Y021107D01*
X033559Y021164D01*
X033730Y021164D01*
X033730Y020823D01*
X033559Y020823D01*
X033361Y020880D02*
X033304Y020823D01*
X033191Y020823D01*
X033134Y020880D01*
X033134Y020937D01*
X033191Y020993D01*
X033361Y020993D01*
X033361Y020880D01*
X033361Y020993D02*
X033248Y021107D01*
X033134Y021164D01*
X033191Y021423D02*
X033304Y021423D01*
X033361Y021480D01*
X033361Y021593D02*
X033248Y021650D01*
X033191Y021650D01*
X033134Y021593D01*
X033134Y021480D01*
X033191Y021423D01*
X033361Y021593D02*
X033361Y021764D01*
X033134Y021764D01*
X033191Y022023D02*
X033191Y022364D01*
X033361Y022193D01*
X033134Y022193D01*
X033503Y022080D02*
X033503Y022307D01*
X033559Y022364D01*
X033730Y022364D01*
X033730Y022023D01*
X033559Y022023D01*
X033503Y022080D01*
X033559Y021764D02*
X033730Y021764D01*
X033730Y021423D01*
X033559Y021423D01*
X033503Y021480D01*
X033503Y021707D01*
X033559Y021764D01*
X033559Y022623D02*
X033503Y022680D01*
X033503Y022907D01*
X033559Y022964D01*
X033730Y022964D01*
X033730Y022623D01*
X033559Y022623D01*
X033361Y022680D02*
X033304Y022623D01*
X033191Y022623D01*
X033134Y022680D01*
X033134Y022737D01*
X033191Y022793D01*
X033248Y022793D01*
X033191Y022793D02*
X033134Y022850D01*
X033134Y022907D01*
X033191Y022964D01*
X033304Y022964D01*
X033361Y022907D01*
X033361Y023223D02*
X033134Y023450D01*
X033134Y023507D01*
X033191Y023564D01*
X033304Y023564D01*
X033361Y023507D01*
X033503Y023507D02*
X033559Y023564D01*
X033730Y023564D01*
X033730Y023223D01*
X033559Y023223D01*
X033503Y023280D01*
X033503Y023507D01*
X033361Y023223D02*
X033134Y023223D01*
X033134Y023823D02*
X033361Y023823D01*
X033248Y023823D02*
X033248Y024164D01*
X033361Y024050D01*
X033503Y024107D02*
X033559Y024164D01*
X033730Y024164D01*
X033730Y023823D01*
X033559Y023823D01*
X033503Y023880D01*
X033503Y024107D01*
X033559Y024423D02*
X033503Y024480D01*
X033503Y024707D01*
X033559Y024764D01*
X033730Y024764D01*
X033730Y024423D01*
X033559Y024423D01*
X033361Y024480D02*
X033304Y024423D01*
X033191Y024423D01*
X033134Y024480D01*
X033134Y024707D01*
X033361Y024480D01*
X033361Y024707D01*
X033304Y024764D01*
X033191Y024764D01*
X033134Y024707D01*
X032998Y025023D02*
X033054Y025080D01*
X033054Y025193D01*
X032998Y025250D01*
X032827Y025250D01*
X032827Y025364D02*
X032827Y025023D01*
X032998Y025023D01*
X033191Y025250D02*
X033248Y025250D01*
X033361Y025137D01*
X033361Y025250D02*
X033361Y025023D01*
X033503Y025023D02*
X033503Y025250D01*
X033616Y025364D01*
X033730Y025250D01*
X033730Y025023D01*
X033730Y025193D02*
X033503Y025193D01*
X032686Y025250D02*
X032686Y025080D01*
X032629Y025023D01*
X032459Y025023D01*
X032459Y025250D01*
X032318Y025250D02*
X032261Y025250D01*
X032261Y025023D01*
X032318Y025023D02*
X032204Y025023D01*
X032072Y025023D02*
X032072Y025250D01*
X031902Y025250D01*
X031845Y025193D01*
X031845Y025023D01*
X031704Y025080D02*
X031647Y025023D01*
X031534Y025023D01*
X031477Y025080D01*
X031477Y025193D01*
X031534Y025250D01*
X031647Y025250D01*
X031704Y025193D01*
X031704Y025080D01*
X031718Y024764D02*
X031831Y024764D01*
X031888Y024707D01*
X031888Y024480D01*
X031831Y024423D01*
X031718Y024423D01*
X031661Y024480D01*
X031661Y024707D02*
X031718Y024764D01*
X032029Y024423D02*
X032256Y024423D01*
X032256Y024764D01*
X032256Y024164D02*
X032256Y023823D01*
X032029Y023823D01*
X032086Y023564D02*
X032029Y023507D01*
X032086Y023564D02*
X032200Y023564D01*
X032256Y023507D01*
X032256Y023450D01*
X032200Y023393D01*
X032086Y023393D01*
X032029Y023337D01*
X032029Y023280D01*
X032086Y023223D01*
X032200Y023223D01*
X032256Y023280D01*
X032200Y022964D02*
X032256Y022907D01*
X032256Y022850D01*
X032200Y022793D01*
X032086Y022793D01*
X032029Y022737D01*
X032029Y022680D01*
X032086Y022623D01*
X032200Y022623D01*
X032256Y022680D01*
X032200Y022964D02*
X032086Y022964D01*
X032029Y022907D01*
X031888Y022907D02*
X031888Y022680D01*
X031831Y022623D01*
X031718Y022623D01*
X031661Y022680D01*
X031661Y022907D02*
X031718Y022964D01*
X031831Y022964D01*
X031888Y022907D01*
X031151Y023767D02*
X030924Y023767D01*
X030783Y023823D02*
X030783Y024050D01*
X030670Y024164D01*
X030556Y024050D01*
X030556Y023823D01*
X030415Y023880D02*
X030188Y024107D01*
X030188Y023880D01*
X030245Y023823D01*
X030358Y023823D01*
X030415Y023880D01*
X030415Y024107D01*
X030358Y024164D01*
X030245Y024164D01*
X030188Y024107D01*
X030556Y023993D02*
X030783Y023993D01*
X032261Y025364D02*
X032261Y025420D01*
X037978Y020707D02*
X038035Y020764D01*
X038148Y020764D01*
X038205Y020707D01*
X038205Y020650D01*
X038148Y020593D01*
X037978Y020593D01*
X037978Y020480D02*
X037978Y020707D01*
X037978Y020480D02*
X038035Y020423D01*
X038148Y020423D01*
X038205Y020480D01*
X038346Y020480D02*
X038346Y020537D01*
X038403Y020593D01*
X038573Y020593D01*
X038573Y020480D01*
X038516Y020423D01*
X038403Y020423D01*
X038346Y020480D01*
X038573Y020593D02*
X038460Y020707D01*
X038346Y020764D01*
X038715Y020650D02*
X038941Y020423D01*
X039083Y020480D02*
X039140Y020423D01*
X039253Y020423D01*
X039310Y020480D01*
X039083Y020707D01*
X039083Y020480D01*
X038941Y020650D02*
X038715Y020423D01*
X038771Y020164D02*
X038715Y020107D01*
X038941Y019880D01*
X038885Y019823D01*
X038771Y019823D01*
X038715Y019880D01*
X038715Y020107D01*
X038771Y020164D02*
X038885Y020164D01*
X038941Y020107D01*
X038941Y019880D01*
X038573Y019823D02*
X038346Y020050D01*
X038205Y019993D02*
X038035Y020164D01*
X038035Y019823D01*
X037978Y019993D02*
X038205Y019993D01*
X038346Y019823D02*
X038573Y020050D01*
X038516Y019564D02*
X038403Y019564D01*
X038346Y019507D01*
X038346Y019450D01*
X038403Y019393D01*
X038516Y019393D01*
X038573Y019450D01*
X038573Y019507D01*
X038516Y019564D01*
X038516Y019393D02*
X038573Y019337D01*
X038573Y019280D01*
X038516Y019223D01*
X038403Y019223D01*
X038346Y019280D01*
X038346Y019337D01*
X038403Y019393D01*
X038715Y019337D02*
X038771Y019393D01*
X038941Y019393D01*
X038941Y019280D01*
X038885Y019223D01*
X038771Y019223D01*
X038715Y019280D01*
X038715Y019337D01*
X038828Y019507D02*
X038941Y019393D01*
X039083Y019450D02*
X039310Y019223D01*
X039451Y019280D02*
X039508Y019223D01*
X039621Y019223D01*
X039678Y019280D01*
X039451Y019507D01*
X039451Y019280D01*
X039310Y019450D02*
X039083Y019223D01*
X039196Y018964D02*
X039196Y018623D01*
X039083Y018623D02*
X039310Y018623D01*
X039451Y018623D02*
X039678Y018623D01*
X039451Y018850D01*
X039451Y018907D01*
X039508Y018964D01*
X039621Y018964D01*
X039678Y018907D01*
X039820Y018964D02*
X039820Y018680D01*
X039876Y018623D01*
X039990Y018623D01*
X040046Y018680D01*
X040046Y018964D01*
X040188Y018964D02*
X040415Y018964D01*
X040301Y018964D02*
X040301Y018623D01*
X040556Y018623D02*
X040556Y018964D01*
X040556Y018793D02*
X040783Y018793D01*
X040783Y018623D02*
X040783Y018964D01*
X040726Y019223D02*
X040613Y019223D01*
X040556Y019280D01*
X040556Y019337D01*
X040613Y019393D01*
X040670Y019393D01*
X040613Y019393D02*
X040556Y019450D01*
X040556Y019507D01*
X040613Y019564D01*
X040726Y019564D01*
X040783Y019507D01*
X040924Y019507D02*
X040981Y019564D01*
X041095Y019564D01*
X041151Y019507D01*
X041293Y019507D02*
X041293Y019450D01*
X041349Y019393D01*
X041293Y019337D01*
X041293Y019280D01*
X041349Y019223D01*
X041463Y019223D01*
X041520Y019280D01*
X041661Y019280D02*
X041718Y019223D01*
X041831Y019223D01*
X041888Y019280D01*
X041831Y019393D02*
X041718Y019393D01*
X041661Y019337D01*
X041661Y019280D01*
X041831Y019393D02*
X041888Y019450D01*
X041888Y019507D01*
X041831Y019564D01*
X041718Y019564D01*
X041661Y019507D01*
X041520Y019507D02*
X041463Y019564D01*
X041349Y019564D01*
X041293Y019507D01*
X041349Y019393D02*
X041406Y019393D01*
X041151Y019223D02*
X040924Y019450D01*
X040924Y019507D01*
X040783Y019280D02*
X040726Y019223D01*
X040924Y019223D02*
X041151Y019223D01*
X041293Y018850D02*
X041293Y018567D01*
X041349Y018510D01*
X041406Y018510D01*
X041463Y018623D02*
X041293Y018623D01*
X041463Y018623D02*
X041520Y018680D01*
X041520Y018850D01*
X041652Y018850D02*
X041765Y018850D01*
X041708Y018907D02*
X041708Y018680D01*
X041652Y018623D01*
X041897Y018623D02*
X042011Y018623D01*
X041954Y018623D02*
X041954Y018850D01*
X042011Y018850D01*
X041954Y018964D02*
X041954Y019020D01*
X042152Y018964D02*
X042152Y018623D01*
X042322Y018623D01*
X042379Y018680D01*
X042379Y018793D01*
X042322Y018850D01*
X042152Y018850D01*
X042086Y019223D02*
X042029Y019280D01*
X042029Y019507D01*
X042086Y019564D01*
X042256Y019564D01*
X042256Y019223D01*
X042086Y019223D01*
X042568Y019020D02*
X042568Y018964D01*
X042568Y018850D02*
X042568Y018623D01*
X042625Y018623D02*
X042511Y018623D01*
X042568Y018850D02*
X042625Y018850D01*
X042766Y018793D02*
X042766Y018623D01*
X042879Y018623D02*
X042879Y018793D01*
X042823Y018850D01*
X042766Y018793D01*
X042879Y018793D02*
X042936Y018850D01*
X042993Y018850D01*
X042993Y018623D01*
X043134Y018623D02*
X043134Y018850D01*
X043134Y018623D02*
X043304Y018623D01*
X043361Y018680D01*
X043361Y018850D01*
X043503Y018793D02*
X043730Y018793D01*
X043730Y018623D02*
X043730Y018964D01*
X043503Y018964D02*
X043503Y018623D01*
X043559Y018364D02*
X043503Y018307D01*
X043503Y018193D01*
X043559Y018137D01*
X043730Y018137D01*
X043730Y018023D02*
X043730Y018364D01*
X043559Y018364D01*
X043361Y018250D02*
X043361Y018023D01*
X043361Y018137D02*
X043248Y018250D01*
X043191Y018250D01*
X043054Y018193D02*
X042998Y018250D01*
X042884Y018250D01*
X042827Y018193D01*
X042827Y018137D01*
X043054Y018137D01*
X043054Y018193D02*
X043054Y018080D01*
X042998Y018023D01*
X042884Y018023D01*
X042686Y018023D02*
X042516Y018023D01*
X042459Y018080D01*
X042516Y018137D01*
X042629Y018137D01*
X042686Y018193D01*
X042629Y018250D01*
X042459Y018250D01*
X042318Y018193D02*
X042261Y018250D01*
X042091Y018250D01*
X042147Y018137D02*
X042261Y018137D01*
X042318Y018193D01*
X042318Y018023D02*
X042147Y018023D01*
X042091Y018080D01*
X042147Y018137D01*
X041949Y018080D02*
X041893Y018023D01*
X041722Y018023D01*
X041722Y018250D01*
X041581Y018250D02*
X041581Y018023D01*
X041581Y018137D02*
X041468Y018250D01*
X041411Y018250D01*
X041274Y018193D02*
X041217Y018250D01*
X041104Y018250D01*
X041047Y018193D01*
X041047Y018137D01*
X041274Y018137D01*
X041274Y018193D02*
X041274Y018080D01*
X041217Y018023D01*
X041104Y018023D01*
X040537Y018023D02*
X040537Y018364D01*
X040424Y018250D01*
X040311Y018364D01*
X040311Y018023D01*
X040169Y018023D02*
X040169Y018364D01*
X039999Y018364D01*
X039942Y018307D01*
X039942Y018193D01*
X039999Y018137D01*
X040169Y018137D01*
X039801Y018023D02*
X039801Y018364D01*
X039801Y018023D02*
X039574Y018023D01*
X039433Y018080D02*
X039376Y018023D01*
X039262Y018023D01*
X039206Y018080D01*
X039206Y018137D01*
X039262Y018193D01*
X039319Y018193D01*
X039262Y018193D02*
X039206Y018250D01*
X039206Y018307D01*
X039262Y018364D01*
X039376Y018364D01*
X039433Y018307D01*
X039064Y018250D02*
X038951Y018364D01*
X038951Y018023D01*
X039064Y018023D02*
X038837Y018023D01*
X038696Y018023D02*
X038469Y018023D01*
X038582Y018023D02*
X038582Y018364D01*
X038696Y018250D01*
X038328Y018193D02*
X038214Y018250D01*
X038157Y018250D01*
X038101Y018193D01*
X038101Y018080D01*
X038157Y018023D01*
X038271Y018023D01*
X038328Y018080D01*
X038328Y018193D02*
X038328Y018364D01*
X038101Y018364D01*
X037959Y018250D02*
X037846Y018364D01*
X037732Y018250D01*
X037732Y018023D01*
X037591Y018023D02*
X037364Y018250D01*
X037364Y018307D01*
X037421Y018364D01*
X037534Y018364D01*
X037591Y018307D01*
X037732Y018193D02*
X037959Y018193D01*
X037959Y018250D02*
X037959Y018023D01*
X037591Y018023D02*
X037364Y018023D01*
X036854Y018080D02*
X036627Y018307D01*
X036627Y018080D01*
X036684Y018023D01*
X036798Y018023D01*
X036854Y018080D01*
X036854Y018307D01*
X036798Y018364D01*
X036684Y018364D01*
X036627Y018307D01*
X036486Y018250D02*
X036259Y018023D01*
X036118Y018080D02*
X036061Y018023D01*
X035948Y018023D01*
X035891Y018080D01*
X035891Y018137D01*
X035948Y018193D01*
X036118Y018193D01*
X036118Y018080D01*
X036118Y018193D02*
X036004Y018307D01*
X035891Y018364D01*
X035749Y018307D02*
X035693Y018364D01*
X035579Y018364D01*
X035523Y018307D01*
X035749Y018080D01*
X035693Y018023D01*
X035579Y018023D01*
X035523Y018080D01*
X035523Y018307D01*
X035749Y018307D02*
X035749Y018080D01*
X036259Y018250D02*
X036486Y018023D01*
X036930Y018623D02*
X037043Y018623D01*
X037100Y018680D01*
X036873Y018907D01*
X036873Y018680D01*
X036930Y018623D01*
X037100Y018680D02*
X037100Y018907D01*
X037043Y018964D01*
X036930Y018964D01*
X036873Y018907D01*
X037241Y018793D02*
X037468Y018793D01*
X037298Y018964D01*
X037298Y018623D01*
X037610Y018623D02*
X037836Y018850D01*
X037978Y018907D02*
X038205Y018680D01*
X038148Y018623D01*
X038035Y018623D01*
X037978Y018680D01*
X037978Y018907D01*
X038035Y018964D01*
X038148Y018964D01*
X038205Y018907D01*
X038205Y018680D01*
X037836Y018623D02*
X037610Y018850D01*
X038715Y018907D02*
X038715Y018680D01*
X038771Y018623D01*
X038941Y018623D01*
X038941Y018964D01*
X038771Y018964D01*
X038715Y018907D01*
X039196Y018964D02*
X039310Y018850D01*
X039678Y019280D02*
X039678Y019507D01*
X039621Y019564D01*
X039508Y019564D01*
X039451Y019507D01*
X039508Y019823D02*
X039451Y019880D01*
X039451Y020107D01*
X039678Y019880D01*
X039621Y019823D01*
X039508Y019823D01*
X039678Y019880D02*
X039678Y020107D01*
X039621Y020164D01*
X039508Y020164D01*
X039451Y020107D01*
X039820Y020107D02*
X040046Y019880D01*
X039990Y019823D01*
X039876Y019823D01*
X039820Y019880D01*
X039820Y020107D01*
X039876Y020164D01*
X039990Y020164D01*
X040046Y020107D01*
X040046Y019880D01*
X040188Y019880D02*
X040245Y019823D01*
X040358Y019823D01*
X040415Y019880D01*
X040415Y019937D01*
X040358Y019993D01*
X040245Y019993D01*
X040188Y019937D01*
X040188Y019880D01*
X040245Y019993D02*
X040188Y020050D01*
X040188Y020107D01*
X040245Y020164D01*
X040358Y020164D01*
X040415Y020107D01*
X040415Y020050D01*
X040358Y019993D01*
X040556Y019993D02*
X040726Y019993D01*
X040783Y020050D01*
X040783Y020107D01*
X040726Y020164D01*
X040613Y020164D01*
X040556Y020107D01*
X040556Y019880D01*
X040613Y019823D01*
X040726Y019823D01*
X040783Y019880D01*
X040924Y019993D02*
X040981Y019937D01*
X041151Y019937D01*
X041151Y019823D02*
X041151Y020164D01*
X040981Y020164D01*
X040924Y020107D01*
X040924Y019993D01*
X041293Y019880D02*
X041349Y019823D01*
X041463Y019823D01*
X041520Y019880D01*
X041520Y020107D01*
X041463Y020164D01*
X041349Y020164D01*
X041293Y020107D01*
X041661Y020164D02*
X041661Y019823D01*
X041888Y019823D02*
X041888Y020164D01*
X041775Y020050D01*
X041661Y020164D01*
X041718Y020423D02*
X041661Y020480D01*
X041718Y020423D02*
X041831Y020423D01*
X041888Y020480D01*
X041888Y020707D01*
X041831Y020764D01*
X041718Y020764D01*
X041661Y020707D01*
X041520Y020764D02*
X041349Y020764D01*
X041293Y020707D01*
X041293Y020593D01*
X041349Y020537D01*
X041520Y020537D01*
X041520Y020423D02*
X041520Y020764D01*
X041463Y021023D02*
X041293Y021023D01*
X041293Y021364D01*
X041293Y021250D02*
X041463Y021250D01*
X041520Y021193D01*
X041520Y021080D01*
X041463Y021023D01*
X041661Y021023D02*
X041831Y021023D01*
X041888Y021080D01*
X041888Y021193D01*
X041831Y021250D01*
X041661Y021250D01*
X041661Y021364D02*
X041661Y021023D01*
X042029Y021023D02*
X042029Y021250D01*
X042143Y021364D01*
X042256Y021250D01*
X042256Y021023D01*
X042256Y021193D02*
X042029Y021193D01*
X042029Y020764D02*
X042029Y020423D01*
X042256Y020423D02*
X042256Y020764D01*
X042143Y020650D01*
X042029Y020764D01*
X042766Y020707D02*
X042823Y020764D01*
X042936Y020764D01*
X042993Y020707D01*
X042993Y020480D01*
X042936Y020423D01*
X042823Y020423D01*
X042766Y020480D01*
X043134Y020480D02*
X043134Y020707D01*
X043191Y020764D01*
X043361Y020764D01*
X043361Y020423D01*
X043191Y020423D01*
X043134Y020480D01*
X043503Y020423D02*
X043503Y020650D01*
X043616Y020764D01*
X043730Y020650D01*
X043730Y020423D01*
X043730Y020593D02*
X043503Y020593D01*
X043503Y020164D02*
X043730Y020164D01*
X043616Y020164D02*
X043616Y019823D01*
X043361Y019880D02*
X043361Y019993D01*
X043304Y020050D01*
X043191Y020050D01*
X043134Y019993D01*
X043134Y019937D01*
X043361Y019937D01*
X043361Y019880D02*
X043304Y019823D01*
X043191Y019823D01*
X042993Y019823D02*
X042993Y020050D01*
X042936Y020050D01*
X042879Y019993D01*
X042823Y020050D01*
X042766Y019993D01*
X042766Y019823D01*
X042879Y019823D02*
X042879Y019993D01*
X042625Y020050D02*
X042454Y020050D01*
X042398Y019993D01*
X042398Y019880D01*
X042454Y019823D01*
X042625Y019823D01*
X042625Y019710D02*
X042625Y020050D01*
X042823Y019564D02*
X042936Y019564D01*
X042993Y019507D01*
X042993Y019280D01*
X042936Y019223D01*
X042823Y019223D01*
X042766Y019280D01*
X042766Y019507D02*
X042823Y019564D01*
X043134Y019564D02*
X043361Y019564D01*
X043248Y019564D02*
X043248Y019223D01*
X043503Y019223D02*
X043616Y019337D01*
X043559Y019337D02*
X043730Y019337D01*
X043730Y019223D02*
X043730Y019564D01*
X043559Y019564D01*
X043503Y019507D01*
X043503Y019393D01*
X043559Y019337D01*
X041949Y018250D02*
X041949Y018080D01*
X040415Y019223D02*
X040188Y019223D01*
X040301Y019223D02*
X040301Y019564D01*
X040415Y019450D01*
X040415Y020423D02*
X040188Y020650D01*
X040188Y020707D01*
X040245Y020764D01*
X040358Y020764D01*
X040415Y020707D01*
X040556Y020593D02*
X040783Y020593D01*
X040613Y020764D01*
X040613Y020423D01*
X040415Y020423D02*
X040188Y020423D01*
X040046Y020593D02*
X039820Y020593D01*
X039876Y020423D02*
X039876Y020764D01*
X040046Y020593D01*
X040108Y021023D02*
X039938Y021023D01*
X039881Y021080D01*
X039938Y021137D01*
X040051Y021137D01*
X040108Y021193D01*
X040051Y021250D01*
X039881Y021250D01*
X039739Y021193D02*
X039683Y021250D01*
X039569Y021250D01*
X039513Y021193D01*
X039513Y021137D01*
X039739Y021137D01*
X039739Y021193D02*
X039739Y021080D01*
X039683Y021023D01*
X039569Y021023D01*
X039371Y021023D02*
X039201Y021023D01*
X039144Y021080D01*
X039201Y021137D01*
X039314Y021137D01*
X039371Y021193D01*
X039314Y021250D01*
X039144Y021250D01*
X039140Y020764D02*
X039083Y020707D01*
X039140Y020764D02*
X039253Y020764D01*
X039310Y020707D01*
X039310Y020480D01*
X038828Y019507D02*
X038715Y019564D01*
X037836Y019880D02*
X037836Y019937D01*
X037780Y019993D01*
X037666Y019993D01*
X037610Y019937D01*
X037610Y019880D01*
X037666Y019823D01*
X037780Y019823D01*
X037836Y019880D01*
X037780Y019993D02*
X037836Y020050D01*
X037836Y020107D01*
X037780Y020164D01*
X037666Y020164D01*
X037610Y020107D01*
X037610Y020050D01*
X037666Y019993D01*
X040249Y021080D02*
X040306Y021137D01*
X040419Y021137D01*
X040476Y021193D01*
X040419Y021250D01*
X040249Y021250D01*
X040249Y021080D02*
X040306Y021023D01*
X040476Y021023D01*
X040618Y021137D02*
X040844Y021137D01*
X040844Y021193D02*
X040788Y021250D01*
X040674Y021250D01*
X040618Y021193D01*
X040618Y021137D01*
X040674Y021023D02*
X040788Y021023D01*
X040844Y021080D01*
X040844Y021193D01*
X040981Y021250D02*
X041038Y021250D01*
X041151Y021137D01*
X041151Y021250D02*
X041151Y021023D01*
X041095Y020764D02*
X040981Y020764D01*
X040924Y020707D01*
X040924Y020650D01*
X040981Y020593D01*
X040924Y020537D01*
X040924Y020480D01*
X040981Y020423D01*
X041095Y020423D01*
X041151Y020480D01*
X041038Y020593D02*
X040981Y020593D01*
X041151Y020707D02*
X041095Y020764D01*
X042766Y021023D02*
X042936Y021023D01*
X042993Y021080D01*
X042993Y021193D01*
X042936Y021250D01*
X042766Y021250D01*
X043134Y021250D02*
X043134Y021307D01*
X043191Y021364D01*
X043304Y021364D01*
X043361Y021307D01*
X043134Y021250D02*
X043361Y021023D01*
X043134Y021023D01*
X043503Y021023D02*
X043730Y021023D01*
X043616Y021023D02*
X043616Y021364D01*
X043730Y021250D01*
D14*
X050717Y018928D02*
X050787Y018998D01*
X050877Y018963D02*
X050877Y018928D01*
X050912Y018893D01*
X050877Y018858D01*
X050877Y018823D01*
X050912Y018788D01*
X050982Y018788D01*
X051017Y018823D01*
X051098Y018823D02*
X051098Y018788D01*
X051133Y018788D01*
X051133Y018823D01*
X051098Y018823D01*
X051223Y018823D02*
X051258Y018788D01*
X051328Y018788D01*
X051363Y018823D01*
X051223Y018963D01*
X051223Y018823D01*
X051363Y018823D02*
X051363Y018963D01*
X051328Y018998D01*
X051258Y018998D01*
X051223Y018963D01*
X051017Y018963D02*
X050982Y018998D01*
X050912Y018998D01*
X050877Y018963D01*
X050912Y018893D02*
X050947Y018893D01*
X050787Y018788D02*
X050717Y018858D01*
X050717Y018928D01*
X051446Y018823D02*
X051481Y018823D01*
X051481Y018788D01*
X051446Y018788D01*
X051446Y018823D01*
X051446Y018788D02*
X051516Y018718D01*
X051606Y018823D02*
X051641Y018788D01*
X051711Y018788D01*
X051746Y018823D01*
X051827Y018823D02*
X051827Y018788D01*
X051862Y018788D01*
X051862Y018823D01*
X051827Y018823D01*
X051952Y018823D02*
X051987Y018788D01*
X052057Y018788D01*
X052092Y018823D01*
X051952Y018963D01*
X051952Y018823D01*
X052092Y018823D02*
X052092Y018963D01*
X052057Y018998D01*
X051987Y018998D01*
X051952Y018963D01*
X051746Y018963D02*
X051711Y018998D01*
X051641Y018998D01*
X051606Y018963D01*
X051606Y018928D01*
X051641Y018893D01*
X051606Y018858D01*
X051606Y018823D01*
X051641Y018893D02*
X051676Y018893D01*
X052175Y018788D02*
X052245Y018858D01*
X052245Y018928D01*
X052175Y018998D01*
X023940Y023333D02*
X023940Y023574D01*
X023819Y023574D01*
X023779Y023533D01*
X023779Y023453D01*
X023819Y023413D01*
X023940Y023413D01*
X023682Y023333D02*
X023602Y023413D01*
X023522Y023333D01*
X023522Y023574D01*
X023424Y023574D02*
X023424Y023333D01*
X023424Y023413D02*
X023304Y023413D01*
X023264Y023453D01*
X023264Y023533D01*
X023304Y023574D01*
X023424Y023574D01*
X023344Y023413D02*
X023264Y023333D01*
X023166Y023293D02*
X023006Y023293D01*
X022908Y023373D02*
X022868Y023333D01*
X022788Y023333D01*
X022748Y023373D01*
X022748Y023533D01*
X022788Y023574D01*
X022868Y023574D01*
X022908Y023533D01*
X022908Y023373D01*
X022650Y023333D02*
X022650Y023574D01*
X022490Y023333D01*
X022490Y023574D01*
X022393Y023533D02*
X022353Y023574D01*
X022272Y023574D01*
X022232Y023533D01*
X022232Y023373D01*
X022272Y023333D01*
X022353Y023333D01*
X022393Y023373D01*
X022393Y023533D01*
X022135Y023574D02*
X021975Y023574D01*
X021877Y023574D02*
X021717Y023574D01*
X021797Y023453D02*
X021877Y023453D01*
X021877Y023333D02*
X021877Y023574D01*
X022055Y023453D02*
X022135Y023453D01*
X022135Y023333D02*
X022135Y023574D01*
X023682Y023574D02*
X023682Y023333D01*
X020016Y032718D02*
X019946Y032788D01*
X019981Y032788D01*
X019981Y032823D01*
X019946Y032823D01*
X019946Y032788D01*
X019863Y032788D02*
X019723Y032788D01*
X019793Y032788D02*
X019793Y032998D01*
X019863Y032928D01*
X020106Y032893D02*
X020106Y032823D01*
X020141Y032788D01*
X020211Y032788D01*
X020246Y032823D01*
X020246Y032893D02*
X020176Y032928D01*
X020141Y032928D01*
X020106Y032893D01*
X020106Y032998D02*
X020246Y032998D01*
X020246Y032893D01*
X020327Y032823D02*
X020327Y032788D01*
X020362Y032788D01*
X020362Y032823D01*
X020327Y032823D01*
X020452Y032823D02*
X020487Y032788D01*
X020557Y032788D01*
X020592Y032823D01*
X020675Y032788D02*
X020745Y032858D01*
X020745Y032928D01*
X020675Y032998D01*
X020592Y032963D02*
X020557Y032998D01*
X020487Y032998D01*
X020452Y032963D01*
X020452Y032928D01*
X020487Y032893D01*
X020452Y032858D01*
X020452Y032823D01*
X020487Y032893D02*
X020522Y032893D01*
X019633Y032823D02*
X019598Y032823D01*
X019598Y032788D01*
X019633Y032788D01*
X019633Y032823D01*
X019517Y032823D02*
X019517Y032788D01*
X019517Y032823D02*
X019377Y032963D01*
X019377Y032998D01*
X019517Y032998D01*
X019287Y032998D02*
X019217Y032928D01*
X019217Y032858D01*
X019287Y032788D01*
D15*
X034473Y023165D02*
X034473Y023021D01*
X034664Y023002D01*
X034684Y022938D01*
X034715Y022878D01*
X034594Y022730D01*
X034696Y022628D01*
X034844Y022749D01*
X034904Y022718D01*
X034989Y022923D01*
X034950Y022944D01*
X034918Y022975D01*
X034894Y023012D01*
X034564Y023012D01*
X034473Y023070D02*
X034878Y023070D01*
X034879Y023053D02*
X034894Y023012D01*
X034879Y023053D02*
X034875Y023097D01*
X034881Y023141D01*
X034898Y023182D01*
X034923Y023218D01*
X034957Y023247D01*
X034996Y023267D01*
X035039Y023277D01*
X035084Y023276D01*
X035126Y023265D01*
X035165Y023244D01*
X035198Y023215D01*
X035223Y023179D01*
X035239Y023137D01*
X035244Y023093D01*
X035239Y023050D01*
X035224Y023010D01*
X035200Y022973D01*
X035168Y022944D01*
X035130Y022923D01*
X035215Y022718D01*
X035275Y022749D01*
X035423Y022628D01*
X035525Y022730D01*
X035404Y022878D01*
X035435Y022938D01*
X035455Y023002D01*
X035646Y023021D01*
X035646Y023165D01*
X035455Y023185D01*
X035219Y023185D01*
X035240Y023127D02*
X035646Y023127D01*
X035646Y023070D02*
X035241Y023070D01*
X035225Y023012D02*
X035556Y023012D01*
X035440Y022955D02*
X035179Y022955D01*
X035141Y022897D02*
X035414Y022897D01*
X035435Y022840D02*
X035165Y022840D01*
X035188Y022782D02*
X035482Y022782D01*
X035520Y022724D02*
X035305Y022724D01*
X035227Y022724D02*
X035212Y022724D01*
X035375Y022667D02*
X035462Y022667D01*
X034978Y022897D02*
X034705Y022897D01*
X034684Y022840D02*
X034954Y022840D01*
X034931Y022782D02*
X034637Y022782D01*
X034599Y022724D02*
X034814Y022724D01*
X034892Y022724D02*
X034907Y022724D01*
X034744Y022667D02*
X034657Y022667D01*
X034679Y022955D02*
X034940Y022955D01*
X034879Y023127D02*
X034473Y023127D01*
X034473Y023165D02*
X034664Y023185D01*
X034900Y023185D01*
X034952Y023242D02*
X034682Y023242D01*
X034684Y023249D02*
X034715Y023308D01*
X034594Y023457D01*
X034696Y023559D01*
X034844Y023438D01*
X034904Y023468D01*
X034968Y023489D01*
X034988Y023679D01*
X035131Y023679D01*
X035151Y023489D01*
X035215Y023468D01*
X035275Y023438D01*
X035423Y023559D01*
X035525Y023457D01*
X035404Y023308D01*
X035435Y023249D01*
X035455Y023185D01*
X035437Y023242D02*
X035168Y023242D01*
X035202Y023473D02*
X034917Y023473D01*
X034972Y023530D02*
X035147Y023530D01*
X035141Y023588D02*
X034978Y023588D01*
X034984Y023645D02*
X035135Y023645D01*
X035318Y023473D02*
X035509Y023473D01*
X035491Y023415D02*
X034628Y023415D01*
X034610Y023473D02*
X034801Y023473D01*
X034731Y023530D02*
X034667Y023530D01*
X034675Y023358D02*
X035444Y023358D01*
X035408Y023300D02*
X034711Y023300D01*
X034684Y023249D02*
X034664Y023185D01*
X035388Y023530D02*
X035452Y023530D01*
M02*
