G75*
%MOIN*%
%OFA0B0*%
%FSLAX24Y24*%
%IPPOS*%
%LPD*%
%AMOC8*
5,1,8,0,0,1.08239X$1,22.5*
%
%ADD10C,0.0110*%
%ADD11C,0.0080*%
%ADD12C,0.0060*%
%ADD13C,0.0050*%
%ADD14C,0.0100*%
D10*
X017415Y018898D02*
X017415Y019489D01*
X017710Y019489D01*
X017808Y019390D01*
X017808Y019194D01*
X017710Y019095D01*
X017415Y019095D01*
X018059Y018898D02*
X018059Y019489D01*
X018453Y019489D02*
X018453Y018898D01*
X018256Y019095D01*
X018059Y018898D01*
X018704Y018898D02*
X018704Y019489D01*
X018999Y019489D01*
X019097Y019390D01*
X019097Y019194D01*
X018999Y019095D01*
X018704Y019095D01*
X018900Y019095D02*
X019097Y018898D01*
X017408Y027648D02*
X017015Y027648D01*
X017015Y028239D01*
X017408Y028239D01*
X017211Y027944D02*
X017015Y027944D01*
X024015Y031844D02*
X024408Y031844D01*
X024659Y031942D02*
X024856Y032139D01*
X024856Y031548D01*
X024659Y031548D02*
X025053Y031548D01*
X024211Y031647D02*
X024211Y032040D01*
X031015Y031844D02*
X031408Y031844D01*
X031211Y032040D02*
X031211Y031647D01*
X031659Y031548D02*
X032053Y031942D01*
X032053Y032040D01*
X031954Y032139D01*
X031757Y032139D01*
X031659Y032040D01*
X031659Y031548D02*
X032053Y031548D01*
X038015Y031844D02*
X038408Y031844D01*
X038211Y032040D02*
X038211Y031647D01*
X038659Y031647D02*
X038757Y031548D01*
X038954Y031548D01*
X039053Y031647D01*
X039053Y031745D01*
X038954Y031844D01*
X038856Y031844D01*
X038954Y031844D02*
X039053Y031942D01*
X039053Y032040D01*
X038954Y032139D01*
X038757Y032139D01*
X038659Y032040D01*
X045015Y031844D02*
X045408Y031844D01*
X045659Y031844D02*
X045954Y032139D01*
X045954Y031548D01*
X046053Y031844D02*
X045659Y031844D01*
X045211Y032040D02*
X045211Y031647D01*
X053115Y033348D02*
X053115Y033742D01*
X053311Y033939D01*
X053508Y033742D01*
X053508Y033348D01*
X053508Y033644D02*
X053115Y033644D01*
X053115Y028239D02*
X053410Y028239D01*
X053508Y028140D01*
X053508Y028042D01*
X053410Y027944D01*
X053115Y027944D01*
X053410Y027944D02*
X053508Y027845D01*
X053508Y027747D01*
X053410Y027648D01*
X053115Y027648D01*
X053115Y028239D01*
X053213Y022539D02*
X053115Y022440D01*
X053115Y022047D01*
X053213Y021948D01*
X053410Y021948D01*
X053508Y022047D01*
X053508Y022440D02*
X053410Y022539D01*
X053213Y022539D01*
X017408Y033447D02*
X017408Y033840D01*
X017310Y033939D01*
X017015Y033939D01*
X017015Y033348D01*
X017310Y033348D01*
X017408Y033447D01*
D11*
X017253Y033093D02*
X018466Y033093D01*
X018860Y032581D02*
X018860Y031593D01*
X018466Y031093D02*
X017253Y031093D01*
X016860Y031605D02*
X016860Y032581D01*
X017360Y032093D02*
X017362Y032137D01*
X017368Y032181D01*
X017378Y032224D01*
X017391Y032266D01*
X017408Y032307D01*
X017429Y032346D01*
X017453Y032383D01*
X017480Y032418D01*
X017510Y032450D01*
X017543Y032480D01*
X017579Y032506D01*
X017616Y032530D01*
X017656Y032549D01*
X017697Y032566D01*
X017740Y032578D01*
X017783Y032587D01*
X017827Y032592D01*
X017871Y032593D01*
X017915Y032590D01*
X017959Y032583D01*
X018002Y032572D01*
X018044Y032558D01*
X018084Y032540D01*
X018123Y032518D01*
X018159Y032494D01*
X018193Y032466D01*
X018225Y032435D01*
X018254Y032401D01*
X018280Y032365D01*
X018302Y032327D01*
X018321Y032287D01*
X018336Y032245D01*
X018348Y032203D01*
X018356Y032159D01*
X018360Y032115D01*
X018360Y032071D01*
X018356Y032027D01*
X018348Y031983D01*
X018336Y031941D01*
X018321Y031899D01*
X018302Y031859D01*
X018280Y031821D01*
X018254Y031785D01*
X018225Y031751D01*
X018193Y031720D01*
X018159Y031692D01*
X018123Y031668D01*
X018084Y031646D01*
X018044Y031628D01*
X018002Y031614D01*
X017959Y031603D01*
X017915Y031596D01*
X017871Y031593D01*
X017827Y031594D01*
X017783Y031599D01*
X017740Y031608D01*
X017697Y031620D01*
X017656Y031637D01*
X017616Y031656D01*
X017579Y031680D01*
X017543Y031706D01*
X017510Y031736D01*
X017480Y031768D01*
X017453Y031803D01*
X017429Y031840D01*
X017408Y031879D01*
X017391Y031920D01*
X017378Y031962D01*
X017368Y032005D01*
X017362Y032049D01*
X017360Y032093D01*
X017253Y027393D02*
X018466Y027393D01*
X018860Y026881D02*
X018860Y025893D01*
X018466Y025393D02*
X017253Y025393D01*
X016860Y025905D02*
X016860Y026881D01*
X017360Y026393D02*
X017362Y026437D01*
X017368Y026481D01*
X017378Y026524D01*
X017391Y026566D01*
X017408Y026607D01*
X017429Y026646D01*
X017453Y026683D01*
X017480Y026718D01*
X017510Y026750D01*
X017543Y026780D01*
X017579Y026806D01*
X017616Y026830D01*
X017656Y026849D01*
X017697Y026866D01*
X017740Y026878D01*
X017783Y026887D01*
X017827Y026892D01*
X017871Y026893D01*
X017915Y026890D01*
X017959Y026883D01*
X018002Y026872D01*
X018044Y026858D01*
X018084Y026840D01*
X018123Y026818D01*
X018159Y026794D01*
X018193Y026766D01*
X018225Y026735D01*
X018254Y026701D01*
X018280Y026665D01*
X018302Y026627D01*
X018321Y026587D01*
X018336Y026545D01*
X018348Y026503D01*
X018356Y026459D01*
X018360Y026415D01*
X018360Y026371D01*
X018356Y026327D01*
X018348Y026283D01*
X018336Y026241D01*
X018321Y026199D01*
X018302Y026159D01*
X018280Y026121D01*
X018254Y026085D01*
X018225Y026051D01*
X018193Y026020D01*
X018159Y025992D01*
X018123Y025968D01*
X018084Y025946D01*
X018044Y025928D01*
X018002Y025914D01*
X017959Y025903D01*
X017915Y025896D01*
X017871Y025893D01*
X017827Y025894D01*
X017783Y025899D01*
X017740Y025908D01*
X017697Y025920D01*
X017656Y025937D01*
X017616Y025956D01*
X017579Y025980D01*
X017543Y026006D01*
X017510Y026036D01*
X017480Y026068D01*
X017453Y026103D01*
X017429Y026140D01*
X017408Y026179D01*
X017391Y026220D01*
X017378Y026262D01*
X017368Y026305D01*
X017362Y026349D01*
X017360Y026393D01*
X022950Y026033D02*
X022950Y025754D01*
X024648Y024056D02*
X024760Y023945D01*
X025275Y024460D01*
X025977Y023613D02*
X026339Y023975D01*
X027342Y022973D02*
X026980Y022611D01*
X028060Y021193D02*
X030460Y021193D01*
X031660Y019993D01*
X031660Y016993D01*
X031639Y016945D01*
X031615Y016899D01*
X031588Y016855D01*
X031557Y016813D01*
X031523Y016773D01*
X031487Y016736D01*
X031448Y016702D01*
X031406Y016671D01*
X031362Y016643D01*
X031316Y016618D01*
X031269Y016597D01*
X031220Y016579D01*
X031170Y016566D01*
X031118Y016555D01*
X031067Y016549D01*
X031015Y016547D01*
X030963Y016549D01*
X030911Y016554D01*
X030860Y016563D01*
X030809Y016577D01*
X030760Y016593D01*
X030695Y016655D01*
X030627Y016715D01*
X030557Y016771D01*
X030485Y016825D01*
X030410Y016875D01*
X030333Y016922D01*
X030255Y016966D01*
X030174Y017007D01*
X030092Y017044D01*
X030009Y017077D01*
X029924Y017107D01*
X029838Y017134D01*
X029751Y017156D01*
X029663Y017175D01*
X029574Y017191D01*
X029485Y017202D01*
X029395Y017210D01*
X029305Y017214D01*
X029215Y017214D01*
X029125Y017210D01*
X029035Y017202D01*
X028946Y017191D01*
X028857Y017175D01*
X028769Y017156D01*
X028682Y017134D01*
X028596Y017107D01*
X028511Y017077D01*
X028428Y017044D01*
X028346Y017007D01*
X028265Y016966D01*
X028187Y016922D01*
X028110Y016875D01*
X028035Y016825D01*
X027963Y016771D01*
X027893Y016715D01*
X027825Y016655D01*
X027760Y016593D01*
X027711Y016577D01*
X027660Y016563D01*
X027609Y016554D01*
X027557Y016549D01*
X027505Y016547D01*
X027453Y016549D01*
X027402Y016555D01*
X027350Y016566D01*
X027300Y016579D01*
X027251Y016597D01*
X027204Y016618D01*
X027158Y016643D01*
X027114Y016671D01*
X027072Y016702D01*
X027033Y016736D01*
X026997Y016773D01*
X026963Y016813D01*
X026932Y016855D01*
X026905Y016899D01*
X026881Y016945D01*
X026860Y016993D01*
X026860Y019993D01*
X028060Y021193D01*
X024129Y020799D02*
X024129Y020588D01*
X023979Y020133D02*
X023640Y020133D01*
X023640Y021253D02*
X023979Y021253D01*
X022379Y020799D02*
X022379Y020588D01*
X022229Y020133D02*
X021890Y020133D01*
X021890Y021253D02*
X022229Y021253D01*
X018860Y021181D02*
X018860Y020193D01*
X018466Y019693D02*
X017253Y019693D01*
X016860Y020205D02*
X016860Y021181D01*
X017253Y021693D02*
X018466Y021693D01*
X017360Y020693D02*
X017362Y020737D01*
X017368Y020781D01*
X017378Y020824D01*
X017391Y020866D01*
X017408Y020907D01*
X017429Y020946D01*
X017453Y020983D01*
X017480Y021018D01*
X017510Y021050D01*
X017543Y021080D01*
X017579Y021106D01*
X017616Y021130D01*
X017656Y021149D01*
X017697Y021166D01*
X017740Y021178D01*
X017783Y021187D01*
X017827Y021192D01*
X017871Y021193D01*
X017915Y021190D01*
X017959Y021183D01*
X018002Y021172D01*
X018044Y021158D01*
X018084Y021140D01*
X018123Y021118D01*
X018159Y021094D01*
X018193Y021066D01*
X018225Y021035D01*
X018254Y021001D01*
X018280Y020965D01*
X018302Y020927D01*
X018321Y020887D01*
X018336Y020845D01*
X018348Y020803D01*
X018356Y020759D01*
X018360Y020715D01*
X018360Y020671D01*
X018356Y020627D01*
X018348Y020583D01*
X018336Y020541D01*
X018321Y020499D01*
X018302Y020459D01*
X018280Y020421D01*
X018254Y020385D01*
X018225Y020351D01*
X018193Y020320D01*
X018159Y020292D01*
X018123Y020268D01*
X018084Y020246D01*
X018044Y020228D01*
X018002Y020214D01*
X017959Y020203D01*
X017915Y020196D01*
X017871Y020193D01*
X017827Y020194D01*
X017783Y020199D01*
X017740Y020208D01*
X017697Y020220D01*
X017656Y020237D01*
X017616Y020256D01*
X017579Y020280D01*
X017543Y020306D01*
X017510Y020336D01*
X017480Y020368D01*
X017453Y020403D01*
X017429Y020440D01*
X017408Y020479D01*
X017391Y020520D01*
X017378Y020562D01*
X017368Y020605D01*
X017362Y020649D01*
X017360Y020693D01*
X021104Y017964D02*
X022915Y017964D01*
X022915Y017787D01*
X022403Y017787D02*
X022403Y017000D01*
X022915Y017000D02*
X022915Y016822D01*
X021104Y016822D01*
X021104Y017000D01*
X021104Y017787D02*
X021104Y017964D01*
X020010Y017693D02*
X019510Y017693D01*
X019510Y017093D02*
X020010Y017093D01*
X026193Y025378D02*
X026708Y025893D01*
X026193Y026408D01*
X025275Y027327D02*
X024760Y027842D01*
X024244Y027327D01*
X029063Y028103D02*
X029065Y028118D01*
X029071Y028131D01*
X029080Y028143D01*
X029091Y028152D01*
X029105Y028158D01*
X029120Y028160D01*
X029135Y028158D01*
X029148Y028152D01*
X029160Y028143D01*
X029169Y028132D01*
X029175Y028118D01*
X029177Y028103D01*
X029175Y028088D01*
X029169Y028075D01*
X029160Y028063D01*
X029149Y028054D01*
X029135Y028048D01*
X029120Y028046D01*
X029105Y028048D01*
X029092Y028054D01*
X029080Y028063D01*
X029071Y028074D01*
X029065Y028088D01*
X029063Y028103D01*
X029600Y025854D02*
X029810Y025854D01*
X029880Y025784D01*
X029880Y025643D01*
X029810Y025573D01*
X029600Y025573D01*
X029740Y025573D02*
X029880Y025433D01*
X029600Y025433D02*
X029600Y025854D01*
X030060Y025854D02*
X030340Y025854D01*
X030200Y025854D02*
X030200Y025433D01*
X030520Y025503D02*
X030520Y025784D01*
X030590Y025854D01*
X030730Y025854D01*
X030801Y025784D01*
X030801Y025503D02*
X030730Y025433D01*
X030590Y025433D01*
X030520Y025503D01*
X033508Y022563D02*
X033980Y022563D01*
X033508Y022563D02*
X033508Y022484D01*
X033508Y021303D02*
X033508Y021145D01*
X033626Y021145D01*
X036893Y021145D01*
X037011Y021145D01*
X037011Y021303D01*
X036893Y021145D02*
X036893Y021027D01*
X037011Y021027D01*
X037011Y020752D01*
X033508Y020752D01*
X033508Y021027D01*
X033626Y021027D01*
X033626Y021145D01*
X034098Y021027D02*
X034177Y020870D01*
X034256Y021027D01*
X034098Y021027D01*
X034099Y021025D02*
X034254Y021025D01*
X034215Y020946D02*
X034139Y020946D01*
X036539Y022563D02*
X037011Y022563D01*
X037011Y022484D01*
X040093Y019183D02*
X040095Y019198D01*
X040101Y019211D01*
X040110Y019223D01*
X040121Y019232D01*
X040135Y019238D01*
X040150Y019240D01*
X040165Y019238D01*
X040178Y019232D01*
X040190Y019223D01*
X040199Y019212D01*
X040205Y019198D01*
X040207Y019183D01*
X040205Y019168D01*
X040199Y019155D01*
X040190Y019143D01*
X040179Y019134D01*
X040165Y019128D01*
X040150Y019126D01*
X040135Y019128D01*
X040122Y019134D01*
X040110Y019143D01*
X040101Y019154D01*
X040095Y019168D01*
X040093Y019183D01*
X042260Y017930D02*
X042260Y022693D01*
X042535Y022693D01*
X043598Y022693D02*
X044779Y022693D01*
X045842Y022693D02*
X047771Y022693D01*
X047771Y017496D01*
X047181Y016670D02*
X046866Y016670D01*
X046834Y016669D01*
X046803Y016673D01*
X046772Y016680D01*
X046742Y016691D01*
X046714Y016705D01*
X046688Y016723D01*
X046664Y016744D01*
X046643Y016768D01*
X046625Y016794D01*
X046611Y016822D01*
X046600Y016852D01*
X046593Y016883D01*
X046589Y016914D01*
X046590Y016946D01*
X046591Y016945D02*
X046588Y016983D01*
X046582Y017021D01*
X046572Y017058D01*
X046558Y017094D01*
X046542Y017129D01*
X046522Y017161D01*
X046499Y017192D01*
X046473Y017221D01*
X046444Y017247D01*
X046413Y017270D01*
X046381Y017290D01*
X046346Y017306D01*
X046310Y017320D01*
X046273Y017330D01*
X046235Y017336D01*
X046197Y017339D01*
X042889Y017339D01*
X049854Y017000D02*
X049854Y016822D01*
X051665Y016822D01*
X051665Y017000D01*
X051665Y017787D02*
X051665Y017964D01*
X049854Y017964D01*
X049854Y017787D01*
X050366Y017787D02*
X050366Y017000D01*
X050510Y018198D02*
X051010Y018198D01*
X051010Y018798D02*
X050510Y018798D01*
X052053Y019693D02*
X053266Y019693D01*
X053660Y020205D02*
X053660Y021181D01*
X053266Y021693D02*
X052053Y021693D01*
X051660Y021193D02*
X051660Y020205D01*
X052160Y020693D02*
X052162Y020737D01*
X052168Y020781D01*
X052178Y020824D01*
X052191Y020866D01*
X052208Y020907D01*
X052229Y020946D01*
X052253Y020983D01*
X052280Y021018D01*
X052310Y021050D01*
X052343Y021080D01*
X052379Y021106D01*
X052416Y021130D01*
X052456Y021149D01*
X052497Y021166D01*
X052540Y021178D01*
X052583Y021187D01*
X052627Y021192D01*
X052671Y021193D01*
X052715Y021190D01*
X052759Y021183D01*
X052802Y021172D01*
X052844Y021158D01*
X052884Y021140D01*
X052923Y021118D01*
X052959Y021094D01*
X052993Y021066D01*
X053025Y021035D01*
X053054Y021001D01*
X053080Y020965D01*
X053102Y020927D01*
X053121Y020887D01*
X053136Y020845D01*
X053148Y020803D01*
X053156Y020759D01*
X053160Y020715D01*
X053160Y020671D01*
X053156Y020627D01*
X053148Y020583D01*
X053136Y020541D01*
X053121Y020499D01*
X053102Y020459D01*
X053080Y020421D01*
X053054Y020385D01*
X053025Y020351D01*
X052993Y020320D01*
X052959Y020292D01*
X052923Y020268D01*
X052884Y020246D01*
X052844Y020228D01*
X052802Y020214D01*
X052759Y020203D01*
X052715Y020196D01*
X052671Y020193D01*
X052627Y020194D01*
X052583Y020199D01*
X052540Y020208D01*
X052497Y020220D01*
X052456Y020237D01*
X052416Y020256D01*
X052379Y020280D01*
X052343Y020306D01*
X052310Y020336D01*
X052280Y020368D01*
X052253Y020403D01*
X052229Y020440D01*
X052208Y020479D01*
X052191Y020520D01*
X052178Y020562D01*
X052168Y020605D01*
X052162Y020649D01*
X052160Y020693D01*
X052179Y022583D02*
X051840Y022583D01*
X052329Y023038D02*
X052329Y023249D01*
X052179Y023703D02*
X051840Y023703D01*
X052053Y025393D02*
X053266Y025393D01*
X053660Y025893D02*
X053660Y026881D01*
X053266Y027393D02*
X052053Y027393D01*
X051660Y026881D02*
X051660Y025905D01*
X052160Y026393D02*
X052162Y026437D01*
X052168Y026481D01*
X052178Y026524D01*
X052191Y026566D01*
X052208Y026607D01*
X052229Y026646D01*
X052253Y026683D01*
X052280Y026718D01*
X052310Y026750D01*
X052343Y026780D01*
X052379Y026806D01*
X052416Y026830D01*
X052456Y026849D01*
X052497Y026866D01*
X052540Y026878D01*
X052583Y026887D01*
X052627Y026892D01*
X052671Y026893D01*
X052715Y026890D01*
X052759Y026883D01*
X052802Y026872D01*
X052844Y026858D01*
X052884Y026840D01*
X052923Y026818D01*
X052959Y026794D01*
X052993Y026766D01*
X053025Y026735D01*
X053054Y026701D01*
X053080Y026665D01*
X053102Y026627D01*
X053121Y026587D01*
X053136Y026545D01*
X053148Y026503D01*
X053156Y026459D01*
X053160Y026415D01*
X053160Y026371D01*
X053156Y026327D01*
X053148Y026283D01*
X053136Y026241D01*
X053121Y026199D01*
X053102Y026159D01*
X053080Y026121D01*
X053054Y026085D01*
X053025Y026051D01*
X052993Y026020D01*
X052959Y025992D01*
X052923Y025968D01*
X052884Y025946D01*
X052844Y025928D01*
X052802Y025914D01*
X052759Y025903D01*
X052715Y025896D01*
X052671Y025893D01*
X052627Y025894D01*
X052583Y025899D01*
X052540Y025908D01*
X052497Y025920D01*
X052456Y025937D01*
X052416Y025956D01*
X052379Y025980D01*
X052343Y026006D01*
X052310Y026036D01*
X052280Y026068D01*
X052253Y026103D01*
X052229Y026140D01*
X052208Y026179D01*
X052191Y026220D01*
X052178Y026262D01*
X052168Y026305D01*
X052162Y026349D01*
X052160Y026393D01*
X052053Y031093D02*
X053266Y031093D01*
X053660Y031593D02*
X053660Y032581D01*
X053266Y033093D02*
X052053Y033093D01*
X051660Y032581D02*
X051660Y031605D01*
X052160Y032093D02*
X052162Y032137D01*
X052168Y032181D01*
X052178Y032224D01*
X052191Y032266D01*
X052208Y032307D01*
X052229Y032346D01*
X052253Y032383D01*
X052280Y032418D01*
X052310Y032450D01*
X052343Y032480D01*
X052379Y032506D01*
X052416Y032530D01*
X052456Y032549D01*
X052497Y032566D01*
X052540Y032578D01*
X052583Y032587D01*
X052627Y032592D01*
X052671Y032593D01*
X052715Y032590D01*
X052759Y032583D01*
X052802Y032572D01*
X052844Y032558D01*
X052884Y032540D01*
X052923Y032518D01*
X052959Y032494D01*
X052993Y032466D01*
X053025Y032435D01*
X053054Y032401D01*
X053080Y032365D01*
X053102Y032327D01*
X053121Y032287D01*
X053136Y032245D01*
X053148Y032203D01*
X053156Y032159D01*
X053160Y032115D01*
X053160Y032071D01*
X053156Y032027D01*
X053148Y031983D01*
X053136Y031941D01*
X053121Y031899D01*
X053102Y031859D01*
X053080Y031821D01*
X053054Y031785D01*
X053025Y031751D01*
X052993Y031720D01*
X052959Y031692D01*
X052923Y031668D01*
X052884Y031646D01*
X052844Y031628D01*
X052802Y031614D01*
X052759Y031603D01*
X052715Y031596D01*
X052671Y031593D01*
X052627Y031594D01*
X052583Y031599D01*
X052540Y031608D01*
X052497Y031620D01*
X052456Y031637D01*
X052416Y031656D01*
X052379Y031680D01*
X052343Y031706D01*
X052310Y031736D01*
X052280Y031768D01*
X052253Y031803D01*
X052229Y031840D01*
X052208Y031879D01*
X052191Y031920D01*
X052178Y031962D01*
X052168Y032005D01*
X052162Y032049D01*
X052160Y032093D01*
X034813Y028853D02*
X034815Y028868D01*
X034821Y028881D01*
X034830Y028893D01*
X034841Y028902D01*
X034855Y028908D01*
X034870Y028910D01*
X034885Y028908D01*
X034898Y028902D01*
X034910Y028893D01*
X034919Y028882D01*
X034925Y028868D01*
X034927Y028853D01*
X034925Y028838D01*
X034919Y028825D01*
X034910Y028813D01*
X034899Y028804D01*
X034885Y028798D01*
X034870Y028796D01*
X034855Y028798D01*
X034842Y028804D01*
X034830Y028813D01*
X034821Y028824D01*
X034815Y028838D01*
X034813Y028853D01*
D12*
X034550Y029073D02*
X035969Y029073D01*
X036641Y030157D02*
X036878Y030157D01*
X036878Y030630D02*
X036641Y030630D01*
X035996Y030775D02*
X035996Y031011D01*
X035523Y031011D02*
X035523Y030775D01*
X034996Y030775D02*
X034996Y031011D01*
X034523Y031011D02*
X034523Y030775D01*
X033878Y030630D02*
X033641Y030630D01*
X033641Y030157D02*
X033878Y030157D01*
X032996Y030775D02*
X032996Y031011D01*
X032523Y031011D02*
X032523Y030775D01*
X031878Y030630D02*
X031641Y030630D01*
X031641Y030157D02*
X031878Y030157D01*
X030996Y030775D02*
X030996Y031011D01*
X030523Y031011D02*
X030523Y030775D01*
X029878Y030630D02*
X029641Y030630D01*
X029641Y030157D02*
X029878Y030157D01*
X028996Y030775D02*
X028996Y031011D01*
X028523Y031011D02*
X028523Y030775D01*
X027996Y030775D02*
X027996Y031011D01*
X027523Y031011D02*
X027523Y030775D01*
X026878Y030630D02*
X026641Y030630D01*
X026641Y030157D02*
X026878Y030157D01*
X025996Y030775D02*
X025996Y031011D01*
X025523Y031011D02*
X025523Y030775D01*
X024878Y030630D02*
X024641Y030630D01*
X024641Y030157D02*
X024878Y030157D01*
X023996Y030775D02*
X023996Y031011D01*
X023523Y031011D02*
X023523Y030775D01*
X022878Y030630D02*
X022641Y030630D01*
X022641Y030157D02*
X022878Y030157D01*
X021996Y030775D02*
X021996Y031011D01*
X021523Y031011D02*
X021523Y030775D01*
X024641Y028630D02*
X024878Y028630D01*
X024878Y028157D02*
X024641Y028157D01*
X022246Y027511D02*
X022246Y027275D01*
X021773Y027275D02*
X021773Y027511D01*
X021773Y026011D02*
X021773Y025775D01*
X022246Y025775D02*
X022246Y026011D01*
X022328Y024330D02*
X022091Y024330D01*
X022091Y023857D02*
X022328Y023857D01*
X024641Y023280D02*
X024878Y023280D01*
X024878Y022807D02*
X024641Y022807D01*
X024641Y022630D02*
X024878Y022630D01*
X024878Y022157D02*
X024641Y022157D01*
X024773Y020811D02*
X024773Y020575D01*
X025246Y020575D02*
X025246Y020811D01*
X025423Y020811D02*
X025423Y020575D01*
X025896Y020575D02*
X025896Y020811D01*
X024596Y019411D02*
X024596Y019175D01*
X024123Y019175D02*
X024123Y019411D01*
X023528Y019357D02*
X023291Y019357D01*
X023291Y019230D02*
X023528Y019230D01*
X023528Y019830D02*
X023291Y019830D01*
X023291Y018757D02*
X023528Y018757D01*
X023528Y018630D02*
X023291Y018630D01*
X023291Y018157D02*
X023528Y018157D01*
X020996Y020575D02*
X020996Y020811D01*
X020523Y020811D02*
X020523Y020575D01*
X021041Y021407D02*
X021278Y021407D01*
X021278Y021880D02*
X021041Y021880D01*
X022391Y021880D02*
X022628Y021880D01*
X022628Y021407D02*
X022391Y021407D01*
X019378Y022857D02*
X019141Y022857D01*
X019141Y023330D02*
X019378Y023330D01*
X019378Y023657D02*
X019141Y023657D01*
X019141Y024130D02*
X019378Y024130D01*
X018378Y027657D02*
X018141Y027657D01*
X018141Y028130D02*
X018378Y028130D01*
X018378Y033407D02*
X018141Y033407D01*
X018141Y033880D02*
X018378Y033880D01*
X027273Y027611D02*
X027273Y027375D01*
X027746Y027375D02*
X027746Y027611D01*
X028800Y028323D02*
X030219Y028323D01*
X029628Y028557D02*
X029391Y028557D01*
X029391Y029030D02*
X029628Y029030D01*
X030219Y026463D02*
X028800Y026463D01*
X028773Y025661D02*
X028773Y025425D01*
X028646Y025425D02*
X028646Y025661D01*
X028173Y025661D02*
X028173Y025425D01*
X027628Y025657D02*
X027391Y025657D01*
X027391Y026130D02*
X027628Y026130D01*
X029246Y025661D02*
X029246Y025425D01*
X032023Y026275D02*
X032023Y026511D01*
X032496Y026511D02*
X032496Y026275D01*
X032723Y026275D02*
X032723Y026511D01*
X033196Y026511D02*
X033196Y026275D01*
X034550Y025713D02*
X035969Y025713D01*
X036759Y024011D02*
X036759Y023775D01*
X037232Y023775D02*
X037232Y024011D01*
X034996Y024011D02*
X034996Y023775D01*
X034523Y023775D02*
X034523Y024011D01*
X034246Y024011D02*
X034246Y023775D01*
X033773Y023775D02*
X033773Y024011D01*
X037773Y026975D02*
X037773Y027211D01*
X038246Y027211D02*
X038246Y026975D01*
X038641Y030157D02*
X038878Y030157D01*
X038878Y030630D02*
X038641Y030630D01*
X037996Y030775D02*
X037996Y031011D01*
X037523Y031011D02*
X037523Y030775D01*
X035378Y032157D02*
X035141Y032157D01*
X035141Y032630D02*
X035378Y032630D01*
X035428Y033574D02*
X035465Y033574D01*
X035782Y033574D02*
X035819Y033574D01*
X035819Y034212D01*
X035782Y034212D01*
X035465Y034212D02*
X035054Y034212D01*
X034737Y034212D02*
X034700Y034212D01*
X034700Y033574D01*
X034737Y033574D01*
X035054Y033574D02*
X035091Y033574D01*
X039523Y031011D02*
X039523Y030775D01*
X039996Y030775D02*
X039996Y031011D01*
X040641Y030630D02*
X040878Y030630D01*
X040878Y030157D02*
X040641Y030157D01*
X041523Y030775D02*
X041523Y031011D01*
X041996Y031011D02*
X041996Y030775D01*
X042523Y030775D02*
X042523Y031011D01*
X042996Y031011D02*
X042996Y030775D01*
X043641Y030630D02*
X043878Y030630D01*
X043878Y030157D02*
X043641Y030157D01*
X044523Y030775D02*
X044523Y031011D01*
X044996Y031011D02*
X044996Y030775D01*
X045641Y030630D02*
X045878Y030630D01*
X045878Y030157D02*
X045641Y030157D01*
X046523Y030775D02*
X046523Y031011D01*
X046996Y031011D02*
X046996Y030775D01*
X047641Y030630D02*
X047878Y030630D01*
X047878Y030157D02*
X047641Y030157D01*
X048523Y030775D02*
X048523Y031011D01*
X048996Y031011D02*
X048996Y030775D01*
X052141Y033407D02*
X052378Y033407D01*
X052378Y033880D02*
X052141Y033880D01*
X052141Y028130D02*
X052378Y028130D01*
X052378Y027657D02*
X052141Y027657D01*
X052128Y024430D02*
X051891Y024430D01*
X051891Y023957D02*
X052128Y023957D01*
X053023Y023261D02*
X053023Y023025D01*
X053496Y023025D02*
X053496Y023261D01*
X050128Y021030D02*
X049891Y021030D01*
X049891Y020557D02*
X050128Y020557D01*
X050128Y020330D02*
X049891Y020330D01*
X049891Y019857D02*
X050128Y019857D01*
X048878Y019857D02*
X048641Y019857D01*
X048641Y020330D02*
X048878Y020330D01*
X048878Y020557D02*
X048641Y020557D01*
X048641Y021030D02*
X048878Y021030D01*
X048878Y021257D02*
X048641Y021257D01*
X048641Y021730D02*
X048878Y021730D01*
X052141Y019380D02*
X052378Y019380D01*
X052378Y018907D02*
X052141Y018907D01*
X049128Y018180D02*
X048891Y018180D01*
X048891Y017707D02*
X049128Y017707D01*
X040469Y018963D02*
X039050Y018963D01*
X037946Y019275D02*
X037946Y019511D01*
X037473Y019511D02*
X037473Y019275D01*
X039050Y020823D02*
X040469Y020823D01*
D13*
X020043Y016984D02*
X020043Y035803D01*
X050476Y035803D01*
X050476Y016984D01*
X020043Y016984D01*
X037189Y022878D02*
X037897Y022878D01*
X035760Y031393D02*
X035760Y036393D01*
X041760Y036393D01*
X041760Y031393D01*
X035760Y031393D01*
X034760Y031393D02*
X034760Y036393D01*
X028760Y036393D01*
X028760Y031393D01*
X034760Y031393D01*
X027760Y031393D02*
X027760Y036393D01*
X021760Y036393D01*
X021760Y031393D01*
X027760Y031393D01*
X042760Y031393D02*
X042760Y036393D01*
X048760Y036393D01*
X048760Y031393D01*
X042760Y031393D01*
D14*
X019310Y024693D02*
X019210Y024693D01*
X019210Y024493D02*
X019310Y024493D01*
X019310Y022493D02*
X019210Y022493D01*
X019210Y022293D02*
X019310Y022293D01*
M02*
