G75*
%MOIN*%
%OFA0B0*%
%FSLAX24Y24*%
%IPPOS*%
%LPD*%
%AMOC8*
5,1,8,0,0,1.08239X$1,22.5*
%
%ADD10C,0.0000*%
%ADD11R,0.1450X0.0394*%
%ADD12R,0.0472X0.0591*%
%ADD13R,0.0591X0.0591*%
D10*
X017760Y016393D02*
X052760Y016393D01*
X052260Y017893D02*
X052262Y017937D01*
X052268Y017981D01*
X052278Y018024D01*
X052291Y018066D01*
X052308Y018107D01*
X052329Y018146D01*
X052353Y018183D01*
X052380Y018218D01*
X052410Y018250D01*
X052443Y018280D01*
X052479Y018306D01*
X052516Y018330D01*
X052556Y018349D01*
X052597Y018366D01*
X052640Y018378D01*
X052683Y018387D01*
X052727Y018392D01*
X052771Y018393D01*
X052815Y018390D01*
X052859Y018383D01*
X052902Y018372D01*
X052944Y018358D01*
X052984Y018340D01*
X053023Y018318D01*
X053059Y018294D01*
X053093Y018266D01*
X053125Y018235D01*
X053154Y018201D01*
X053180Y018165D01*
X053202Y018127D01*
X053221Y018087D01*
X053236Y018045D01*
X053248Y018003D01*
X053256Y017959D01*
X053260Y017915D01*
X053260Y017871D01*
X053256Y017827D01*
X053248Y017783D01*
X053236Y017741D01*
X053221Y017699D01*
X053202Y017659D01*
X053180Y017621D01*
X053154Y017585D01*
X053125Y017551D01*
X053093Y017520D01*
X053059Y017492D01*
X053023Y017468D01*
X052984Y017446D01*
X052944Y017428D01*
X052902Y017414D01*
X052859Y017403D01*
X052815Y017396D01*
X052771Y017393D01*
X052727Y017394D01*
X052683Y017399D01*
X052640Y017408D01*
X052597Y017420D01*
X052556Y017437D01*
X052516Y017456D01*
X052479Y017480D01*
X052443Y017506D01*
X052410Y017536D01*
X052380Y017568D01*
X052353Y017603D01*
X052329Y017640D01*
X052308Y017679D01*
X052291Y017720D01*
X052278Y017762D01*
X052268Y017805D01*
X052262Y017849D01*
X052260Y017893D01*
X052760Y016393D02*
X052836Y016395D01*
X052912Y016401D01*
X052987Y016410D01*
X053062Y016424D01*
X053136Y016441D01*
X053209Y016462D01*
X053281Y016486D01*
X053352Y016515D01*
X053421Y016546D01*
X053488Y016581D01*
X053553Y016620D01*
X053617Y016662D01*
X053678Y016707D01*
X053737Y016755D01*
X053793Y016806D01*
X053847Y016860D01*
X053898Y016916D01*
X053946Y016975D01*
X053991Y017036D01*
X054033Y017100D01*
X054072Y017165D01*
X054107Y017232D01*
X054138Y017301D01*
X054167Y017372D01*
X054191Y017444D01*
X054212Y017517D01*
X054229Y017591D01*
X054243Y017666D01*
X054252Y017741D01*
X054258Y017817D01*
X054260Y017893D01*
X054260Y034893D01*
X052260Y034893D02*
X052262Y034937D01*
X052268Y034981D01*
X052278Y035024D01*
X052291Y035066D01*
X052308Y035107D01*
X052329Y035146D01*
X052353Y035183D01*
X052380Y035218D01*
X052410Y035250D01*
X052443Y035280D01*
X052479Y035306D01*
X052516Y035330D01*
X052556Y035349D01*
X052597Y035366D01*
X052640Y035378D01*
X052683Y035387D01*
X052727Y035392D01*
X052771Y035393D01*
X052815Y035390D01*
X052859Y035383D01*
X052902Y035372D01*
X052944Y035358D01*
X052984Y035340D01*
X053023Y035318D01*
X053059Y035294D01*
X053093Y035266D01*
X053125Y035235D01*
X053154Y035201D01*
X053180Y035165D01*
X053202Y035127D01*
X053221Y035087D01*
X053236Y035045D01*
X053248Y035003D01*
X053256Y034959D01*
X053260Y034915D01*
X053260Y034871D01*
X053256Y034827D01*
X053248Y034783D01*
X053236Y034741D01*
X053221Y034699D01*
X053202Y034659D01*
X053180Y034621D01*
X053154Y034585D01*
X053125Y034551D01*
X053093Y034520D01*
X053059Y034492D01*
X053023Y034468D01*
X052984Y034446D01*
X052944Y034428D01*
X052902Y034414D01*
X052859Y034403D01*
X052815Y034396D01*
X052771Y034393D01*
X052727Y034394D01*
X052683Y034399D01*
X052640Y034408D01*
X052597Y034420D01*
X052556Y034437D01*
X052516Y034456D01*
X052479Y034480D01*
X052443Y034506D01*
X052410Y034536D01*
X052380Y034568D01*
X052353Y034603D01*
X052329Y034640D01*
X052308Y034679D01*
X052291Y034720D01*
X052278Y034762D01*
X052268Y034805D01*
X052262Y034849D01*
X052260Y034893D01*
X052760Y036393D02*
X052836Y036391D01*
X052912Y036385D01*
X052987Y036376D01*
X053062Y036362D01*
X053136Y036345D01*
X053209Y036324D01*
X053281Y036300D01*
X053352Y036271D01*
X053421Y036240D01*
X053488Y036205D01*
X053553Y036166D01*
X053617Y036124D01*
X053678Y036079D01*
X053737Y036031D01*
X053793Y035980D01*
X053847Y035926D01*
X053898Y035870D01*
X053946Y035811D01*
X053991Y035750D01*
X054033Y035686D01*
X054072Y035621D01*
X054107Y035554D01*
X054138Y035485D01*
X054167Y035414D01*
X054191Y035342D01*
X054212Y035269D01*
X054229Y035195D01*
X054243Y035120D01*
X054252Y035045D01*
X054258Y034969D01*
X054260Y034893D01*
X052760Y036393D02*
X017760Y036393D01*
X017260Y034893D02*
X017262Y034937D01*
X017268Y034981D01*
X017278Y035024D01*
X017291Y035066D01*
X017308Y035107D01*
X017329Y035146D01*
X017353Y035183D01*
X017380Y035218D01*
X017410Y035250D01*
X017443Y035280D01*
X017479Y035306D01*
X017516Y035330D01*
X017556Y035349D01*
X017597Y035366D01*
X017640Y035378D01*
X017683Y035387D01*
X017727Y035392D01*
X017771Y035393D01*
X017815Y035390D01*
X017859Y035383D01*
X017902Y035372D01*
X017944Y035358D01*
X017984Y035340D01*
X018023Y035318D01*
X018059Y035294D01*
X018093Y035266D01*
X018125Y035235D01*
X018154Y035201D01*
X018180Y035165D01*
X018202Y035127D01*
X018221Y035087D01*
X018236Y035045D01*
X018248Y035003D01*
X018256Y034959D01*
X018260Y034915D01*
X018260Y034871D01*
X018256Y034827D01*
X018248Y034783D01*
X018236Y034741D01*
X018221Y034699D01*
X018202Y034659D01*
X018180Y034621D01*
X018154Y034585D01*
X018125Y034551D01*
X018093Y034520D01*
X018059Y034492D01*
X018023Y034468D01*
X017984Y034446D01*
X017944Y034428D01*
X017902Y034414D01*
X017859Y034403D01*
X017815Y034396D01*
X017771Y034393D01*
X017727Y034394D01*
X017683Y034399D01*
X017640Y034408D01*
X017597Y034420D01*
X017556Y034437D01*
X017516Y034456D01*
X017479Y034480D01*
X017443Y034506D01*
X017410Y034536D01*
X017380Y034568D01*
X017353Y034603D01*
X017329Y034640D01*
X017308Y034679D01*
X017291Y034720D01*
X017278Y034762D01*
X017268Y034805D01*
X017262Y034849D01*
X017260Y034893D01*
X016260Y034893D02*
X016262Y034969D01*
X016268Y035045D01*
X016277Y035120D01*
X016291Y035195D01*
X016308Y035269D01*
X016329Y035342D01*
X016353Y035414D01*
X016382Y035485D01*
X016413Y035554D01*
X016448Y035621D01*
X016487Y035686D01*
X016529Y035750D01*
X016574Y035811D01*
X016622Y035870D01*
X016673Y035926D01*
X016727Y035980D01*
X016783Y036031D01*
X016842Y036079D01*
X016903Y036124D01*
X016967Y036166D01*
X017032Y036205D01*
X017099Y036240D01*
X017168Y036271D01*
X017239Y036300D01*
X017311Y036324D01*
X017384Y036345D01*
X017458Y036362D01*
X017533Y036376D01*
X017608Y036385D01*
X017684Y036391D01*
X017760Y036393D01*
X016260Y034893D02*
X016260Y017893D01*
X017260Y017893D02*
X017262Y017937D01*
X017268Y017981D01*
X017278Y018024D01*
X017291Y018066D01*
X017308Y018107D01*
X017329Y018146D01*
X017353Y018183D01*
X017380Y018218D01*
X017410Y018250D01*
X017443Y018280D01*
X017479Y018306D01*
X017516Y018330D01*
X017556Y018349D01*
X017597Y018366D01*
X017640Y018378D01*
X017683Y018387D01*
X017727Y018392D01*
X017771Y018393D01*
X017815Y018390D01*
X017859Y018383D01*
X017902Y018372D01*
X017944Y018358D01*
X017984Y018340D01*
X018023Y018318D01*
X018059Y018294D01*
X018093Y018266D01*
X018125Y018235D01*
X018154Y018201D01*
X018180Y018165D01*
X018202Y018127D01*
X018221Y018087D01*
X018236Y018045D01*
X018248Y018003D01*
X018256Y017959D01*
X018260Y017915D01*
X018260Y017871D01*
X018256Y017827D01*
X018248Y017783D01*
X018236Y017741D01*
X018221Y017699D01*
X018202Y017659D01*
X018180Y017621D01*
X018154Y017585D01*
X018125Y017551D01*
X018093Y017520D01*
X018059Y017492D01*
X018023Y017468D01*
X017984Y017446D01*
X017944Y017428D01*
X017902Y017414D01*
X017859Y017403D01*
X017815Y017396D01*
X017771Y017393D01*
X017727Y017394D01*
X017683Y017399D01*
X017640Y017408D01*
X017597Y017420D01*
X017556Y017437D01*
X017516Y017456D01*
X017479Y017480D01*
X017443Y017506D01*
X017410Y017536D01*
X017380Y017568D01*
X017353Y017603D01*
X017329Y017640D01*
X017308Y017679D01*
X017291Y017720D01*
X017278Y017762D01*
X017268Y017805D01*
X017262Y017849D01*
X017260Y017893D01*
X016260Y017893D02*
X016262Y017817D01*
X016268Y017741D01*
X016277Y017666D01*
X016291Y017591D01*
X016308Y017517D01*
X016329Y017444D01*
X016353Y017372D01*
X016382Y017301D01*
X016413Y017232D01*
X016448Y017165D01*
X016487Y017100D01*
X016529Y017036D01*
X016574Y016975D01*
X016622Y016916D01*
X016673Y016860D01*
X016727Y016806D01*
X016783Y016755D01*
X016842Y016707D01*
X016903Y016662D01*
X016967Y016620D01*
X017032Y016581D01*
X017099Y016546D01*
X017168Y016515D01*
X017239Y016486D01*
X017311Y016462D01*
X017384Y016441D01*
X017458Y016424D01*
X017533Y016410D01*
X017608Y016401D01*
X017684Y016395D01*
X017760Y016393D01*
X021086Y019011D02*
X021088Y019050D01*
X021094Y019089D01*
X021104Y019127D01*
X021117Y019164D01*
X021134Y019199D01*
X021154Y019233D01*
X021178Y019264D01*
X021205Y019293D01*
X021234Y019319D01*
X021266Y019342D01*
X021300Y019362D01*
X021336Y019378D01*
X021373Y019390D01*
X021412Y019399D01*
X021451Y019404D01*
X021490Y019405D01*
X021529Y019402D01*
X021568Y019395D01*
X021605Y019384D01*
X021642Y019370D01*
X021677Y019352D01*
X021710Y019331D01*
X021741Y019306D01*
X021769Y019279D01*
X021794Y019249D01*
X021816Y019216D01*
X021835Y019182D01*
X021850Y019146D01*
X021862Y019108D01*
X021870Y019070D01*
X021874Y019031D01*
X021874Y018991D01*
X021870Y018952D01*
X021862Y018914D01*
X021850Y018876D01*
X021835Y018840D01*
X021816Y018806D01*
X021794Y018773D01*
X021769Y018743D01*
X021741Y018716D01*
X021710Y018691D01*
X021677Y018670D01*
X021642Y018652D01*
X021605Y018638D01*
X021568Y018627D01*
X021529Y018620D01*
X021490Y018617D01*
X021451Y018618D01*
X021412Y018623D01*
X021373Y018632D01*
X021336Y018644D01*
X021300Y018660D01*
X021266Y018680D01*
X021234Y018703D01*
X021205Y018729D01*
X021178Y018758D01*
X021154Y018789D01*
X021134Y018823D01*
X021117Y018858D01*
X021104Y018895D01*
X021094Y018933D01*
X021088Y018972D01*
X021086Y019011D01*
X021086Y033775D02*
X021088Y033814D01*
X021094Y033853D01*
X021104Y033891D01*
X021117Y033928D01*
X021134Y033963D01*
X021154Y033997D01*
X021178Y034028D01*
X021205Y034057D01*
X021234Y034083D01*
X021266Y034106D01*
X021300Y034126D01*
X021336Y034142D01*
X021373Y034154D01*
X021412Y034163D01*
X021451Y034168D01*
X021490Y034169D01*
X021529Y034166D01*
X021568Y034159D01*
X021605Y034148D01*
X021642Y034134D01*
X021677Y034116D01*
X021710Y034095D01*
X021741Y034070D01*
X021769Y034043D01*
X021794Y034013D01*
X021816Y033980D01*
X021835Y033946D01*
X021850Y033910D01*
X021862Y033872D01*
X021870Y033834D01*
X021874Y033795D01*
X021874Y033755D01*
X021870Y033716D01*
X021862Y033678D01*
X021850Y033640D01*
X021835Y033604D01*
X021816Y033570D01*
X021794Y033537D01*
X021769Y033507D01*
X021741Y033480D01*
X021710Y033455D01*
X021677Y033434D01*
X021642Y033416D01*
X021605Y033402D01*
X021568Y033391D01*
X021529Y033384D01*
X021490Y033381D01*
X021451Y033382D01*
X021412Y033387D01*
X021373Y033396D01*
X021336Y033408D01*
X021300Y033424D01*
X021266Y033444D01*
X021234Y033467D01*
X021205Y033493D01*
X021178Y033522D01*
X021154Y033553D01*
X021134Y033587D01*
X021117Y033622D01*
X021104Y033659D01*
X021094Y033697D01*
X021088Y033736D01*
X021086Y033775D01*
X048645Y033775D02*
X048647Y033814D01*
X048653Y033853D01*
X048663Y033891D01*
X048676Y033928D01*
X048693Y033963D01*
X048713Y033997D01*
X048737Y034028D01*
X048764Y034057D01*
X048793Y034083D01*
X048825Y034106D01*
X048859Y034126D01*
X048895Y034142D01*
X048932Y034154D01*
X048971Y034163D01*
X049010Y034168D01*
X049049Y034169D01*
X049088Y034166D01*
X049127Y034159D01*
X049164Y034148D01*
X049201Y034134D01*
X049236Y034116D01*
X049269Y034095D01*
X049300Y034070D01*
X049328Y034043D01*
X049353Y034013D01*
X049375Y033980D01*
X049394Y033946D01*
X049409Y033910D01*
X049421Y033872D01*
X049429Y033834D01*
X049433Y033795D01*
X049433Y033755D01*
X049429Y033716D01*
X049421Y033678D01*
X049409Y033640D01*
X049394Y033604D01*
X049375Y033570D01*
X049353Y033537D01*
X049328Y033507D01*
X049300Y033480D01*
X049269Y033455D01*
X049236Y033434D01*
X049201Y033416D01*
X049164Y033402D01*
X049127Y033391D01*
X049088Y033384D01*
X049049Y033381D01*
X049010Y033382D01*
X048971Y033387D01*
X048932Y033396D01*
X048895Y033408D01*
X048859Y033424D01*
X048825Y033444D01*
X048793Y033467D01*
X048764Y033493D01*
X048737Y033522D01*
X048713Y033553D01*
X048693Y033587D01*
X048676Y033622D01*
X048663Y033659D01*
X048653Y033697D01*
X048647Y033736D01*
X048645Y033775D01*
X048645Y019011D02*
X048647Y019050D01*
X048653Y019089D01*
X048663Y019127D01*
X048676Y019164D01*
X048693Y019199D01*
X048713Y019233D01*
X048737Y019264D01*
X048764Y019293D01*
X048793Y019319D01*
X048825Y019342D01*
X048859Y019362D01*
X048895Y019378D01*
X048932Y019390D01*
X048971Y019399D01*
X049010Y019404D01*
X049049Y019405D01*
X049088Y019402D01*
X049127Y019395D01*
X049164Y019384D01*
X049201Y019370D01*
X049236Y019352D01*
X049269Y019331D01*
X049300Y019306D01*
X049328Y019279D01*
X049353Y019249D01*
X049375Y019216D01*
X049394Y019182D01*
X049409Y019146D01*
X049421Y019108D01*
X049429Y019070D01*
X049433Y019031D01*
X049433Y018991D01*
X049429Y018952D01*
X049421Y018914D01*
X049409Y018876D01*
X049394Y018840D01*
X049375Y018806D01*
X049353Y018773D01*
X049328Y018743D01*
X049300Y018716D01*
X049269Y018691D01*
X049236Y018670D01*
X049201Y018652D01*
X049164Y018638D01*
X049127Y018627D01*
X049088Y018620D01*
X049049Y018617D01*
X049010Y018618D01*
X048971Y018623D01*
X048932Y018632D01*
X048895Y018644D01*
X048859Y018660D01*
X048825Y018680D01*
X048793Y018703D01*
X048764Y018729D01*
X048737Y018758D01*
X048713Y018789D01*
X048693Y018823D01*
X048676Y018858D01*
X048663Y018895D01*
X048653Y018933D01*
X048647Y018972D01*
X048645Y019011D01*
D11*
X047160Y025693D03*
X047160Y026693D03*
X047160Y027693D03*
X045360Y027693D03*
X045360Y026693D03*
X045360Y025693D03*
X042160Y025693D03*
X042160Y026693D03*
X042160Y027693D03*
X040360Y027693D03*
X040360Y026693D03*
X040360Y025693D03*
D12*
X047861Y022964D03*
X047861Y021743D03*
X047861Y020523D03*
D13*
X045460Y021133D03*
X045460Y022354D03*
M02*
