G75*
%MOIN*%
%OFA0B0*%
%FSLAX24Y24*%
%IPPOS*%
%LPD*%
%AMOC8*
5,1,8,0,0,1.08239X$1,22.5*
%
%ADD10C,0.0000*%
%ADD11C,0.1080*%
%ADD12R,0.0356X0.0749*%
%ADD13R,0.0474X0.0789*%
%ADD14R,0.0552X0.0297*%
%ADD15R,0.0552X0.0395*%
%ADD16R,0.0395X0.0552*%
%ADD17R,0.0580X0.0659*%
%ADD18R,0.0950X0.0320*%
%ADD19R,0.0297X0.0552*%
%ADD20R,0.0394X0.0394*%
%ADD21R,0.0631X0.0198*%
%ADD22C,0.0787*%
%ADD23R,0.1460X0.4080*%
%ADD24R,0.0380X0.0380*%
%ADD25R,0.0789X0.0631*%
%ADD26R,0.0631X0.0828*%
%ADD27R,0.0395X0.0671*%
%ADD28R,0.0680X0.0380*%
%ADD29C,0.0867*%
%ADD30R,0.0611X0.0237*%
%ADD31C,0.0341*%
%ADD32R,0.0690X0.0728*%
%ADD33R,0.0690X0.0671*%
%ADD34R,0.1640X0.1640*%
%ADD35R,0.1330X0.1330*%
%ADD36R,0.0157X0.0551*%
%ADD37R,0.0748X0.0925*%
D10*
X017760Y016393D02*
X052760Y016393D01*
X052260Y017893D02*
X052262Y017937D01*
X052268Y017981D01*
X052278Y018024D01*
X052291Y018066D01*
X052308Y018107D01*
X052329Y018146D01*
X052353Y018183D01*
X052380Y018218D01*
X052410Y018250D01*
X052443Y018280D01*
X052479Y018306D01*
X052516Y018330D01*
X052556Y018349D01*
X052597Y018366D01*
X052640Y018378D01*
X052683Y018387D01*
X052727Y018392D01*
X052771Y018393D01*
X052815Y018390D01*
X052859Y018383D01*
X052902Y018372D01*
X052944Y018358D01*
X052984Y018340D01*
X053023Y018318D01*
X053059Y018294D01*
X053093Y018266D01*
X053125Y018235D01*
X053154Y018201D01*
X053180Y018165D01*
X053202Y018127D01*
X053221Y018087D01*
X053236Y018045D01*
X053248Y018003D01*
X053256Y017959D01*
X053260Y017915D01*
X053260Y017871D01*
X053256Y017827D01*
X053248Y017783D01*
X053236Y017741D01*
X053221Y017699D01*
X053202Y017659D01*
X053180Y017621D01*
X053154Y017585D01*
X053125Y017551D01*
X053093Y017520D01*
X053059Y017492D01*
X053023Y017468D01*
X052984Y017446D01*
X052944Y017428D01*
X052902Y017414D01*
X052859Y017403D01*
X052815Y017396D01*
X052771Y017393D01*
X052727Y017394D01*
X052683Y017399D01*
X052640Y017408D01*
X052597Y017420D01*
X052556Y017437D01*
X052516Y017456D01*
X052479Y017480D01*
X052443Y017506D01*
X052410Y017536D01*
X052380Y017568D01*
X052353Y017603D01*
X052329Y017640D01*
X052308Y017679D01*
X052291Y017720D01*
X052278Y017762D01*
X052268Y017805D01*
X052262Y017849D01*
X052260Y017893D01*
X052760Y016393D02*
X052836Y016395D01*
X052912Y016401D01*
X052987Y016410D01*
X053062Y016424D01*
X053136Y016441D01*
X053209Y016462D01*
X053281Y016486D01*
X053352Y016515D01*
X053421Y016546D01*
X053488Y016581D01*
X053553Y016620D01*
X053617Y016662D01*
X053678Y016707D01*
X053737Y016755D01*
X053793Y016806D01*
X053847Y016860D01*
X053898Y016916D01*
X053946Y016975D01*
X053991Y017036D01*
X054033Y017100D01*
X054072Y017165D01*
X054107Y017232D01*
X054138Y017301D01*
X054167Y017372D01*
X054191Y017444D01*
X054212Y017517D01*
X054229Y017591D01*
X054243Y017666D01*
X054252Y017741D01*
X054258Y017817D01*
X054260Y017893D01*
X054260Y034893D01*
X052260Y034893D02*
X052262Y034937D01*
X052268Y034981D01*
X052278Y035024D01*
X052291Y035066D01*
X052308Y035107D01*
X052329Y035146D01*
X052353Y035183D01*
X052380Y035218D01*
X052410Y035250D01*
X052443Y035280D01*
X052479Y035306D01*
X052516Y035330D01*
X052556Y035349D01*
X052597Y035366D01*
X052640Y035378D01*
X052683Y035387D01*
X052727Y035392D01*
X052771Y035393D01*
X052815Y035390D01*
X052859Y035383D01*
X052902Y035372D01*
X052944Y035358D01*
X052984Y035340D01*
X053023Y035318D01*
X053059Y035294D01*
X053093Y035266D01*
X053125Y035235D01*
X053154Y035201D01*
X053180Y035165D01*
X053202Y035127D01*
X053221Y035087D01*
X053236Y035045D01*
X053248Y035003D01*
X053256Y034959D01*
X053260Y034915D01*
X053260Y034871D01*
X053256Y034827D01*
X053248Y034783D01*
X053236Y034741D01*
X053221Y034699D01*
X053202Y034659D01*
X053180Y034621D01*
X053154Y034585D01*
X053125Y034551D01*
X053093Y034520D01*
X053059Y034492D01*
X053023Y034468D01*
X052984Y034446D01*
X052944Y034428D01*
X052902Y034414D01*
X052859Y034403D01*
X052815Y034396D01*
X052771Y034393D01*
X052727Y034394D01*
X052683Y034399D01*
X052640Y034408D01*
X052597Y034420D01*
X052556Y034437D01*
X052516Y034456D01*
X052479Y034480D01*
X052443Y034506D01*
X052410Y034536D01*
X052380Y034568D01*
X052353Y034603D01*
X052329Y034640D01*
X052308Y034679D01*
X052291Y034720D01*
X052278Y034762D01*
X052268Y034805D01*
X052262Y034849D01*
X052260Y034893D01*
X052760Y036393D02*
X052836Y036391D01*
X052912Y036385D01*
X052987Y036376D01*
X053062Y036362D01*
X053136Y036345D01*
X053209Y036324D01*
X053281Y036300D01*
X053352Y036271D01*
X053421Y036240D01*
X053488Y036205D01*
X053553Y036166D01*
X053617Y036124D01*
X053678Y036079D01*
X053737Y036031D01*
X053793Y035980D01*
X053847Y035926D01*
X053898Y035870D01*
X053946Y035811D01*
X053991Y035750D01*
X054033Y035686D01*
X054072Y035621D01*
X054107Y035554D01*
X054138Y035485D01*
X054167Y035414D01*
X054191Y035342D01*
X054212Y035269D01*
X054229Y035195D01*
X054243Y035120D01*
X054252Y035045D01*
X054258Y034969D01*
X054260Y034893D01*
X052760Y036393D02*
X017760Y036393D01*
X017260Y034893D02*
X017262Y034937D01*
X017268Y034981D01*
X017278Y035024D01*
X017291Y035066D01*
X017308Y035107D01*
X017329Y035146D01*
X017353Y035183D01*
X017380Y035218D01*
X017410Y035250D01*
X017443Y035280D01*
X017479Y035306D01*
X017516Y035330D01*
X017556Y035349D01*
X017597Y035366D01*
X017640Y035378D01*
X017683Y035387D01*
X017727Y035392D01*
X017771Y035393D01*
X017815Y035390D01*
X017859Y035383D01*
X017902Y035372D01*
X017944Y035358D01*
X017984Y035340D01*
X018023Y035318D01*
X018059Y035294D01*
X018093Y035266D01*
X018125Y035235D01*
X018154Y035201D01*
X018180Y035165D01*
X018202Y035127D01*
X018221Y035087D01*
X018236Y035045D01*
X018248Y035003D01*
X018256Y034959D01*
X018260Y034915D01*
X018260Y034871D01*
X018256Y034827D01*
X018248Y034783D01*
X018236Y034741D01*
X018221Y034699D01*
X018202Y034659D01*
X018180Y034621D01*
X018154Y034585D01*
X018125Y034551D01*
X018093Y034520D01*
X018059Y034492D01*
X018023Y034468D01*
X017984Y034446D01*
X017944Y034428D01*
X017902Y034414D01*
X017859Y034403D01*
X017815Y034396D01*
X017771Y034393D01*
X017727Y034394D01*
X017683Y034399D01*
X017640Y034408D01*
X017597Y034420D01*
X017556Y034437D01*
X017516Y034456D01*
X017479Y034480D01*
X017443Y034506D01*
X017410Y034536D01*
X017380Y034568D01*
X017353Y034603D01*
X017329Y034640D01*
X017308Y034679D01*
X017291Y034720D01*
X017278Y034762D01*
X017268Y034805D01*
X017262Y034849D01*
X017260Y034893D01*
X016260Y034893D02*
X016262Y034969D01*
X016268Y035045D01*
X016277Y035120D01*
X016291Y035195D01*
X016308Y035269D01*
X016329Y035342D01*
X016353Y035414D01*
X016382Y035485D01*
X016413Y035554D01*
X016448Y035621D01*
X016487Y035686D01*
X016529Y035750D01*
X016574Y035811D01*
X016622Y035870D01*
X016673Y035926D01*
X016727Y035980D01*
X016783Y036031D01*
X016842Y036079D01*
X016903Y036124D01*
X016967Y036166D01*
X017032Y036205D01*
X017099Y036240D01*
X017168Y036271D01*
X017239Y036300D01*
X017311Y036324D01*
X017384Y036345D01*
X017458Y036362D01*
X017533Y036376D01*
X017608Y036385D01*
X017684Y036391D01*
X017760Y036393D01*
X016260Y034893D02*
X016260Y017893D01*
X017260Y017893D02*
X017262Y017937D01*
X017268Y017981D01*
X017278Y018024D01*
X017291Y018066D01*
X017308Y018107D01*
X017329Y018146D01*
X017353Y018183D01*
X017380Y018218D01*
X017410Y018250D01*
X017443Y018280D01*
X017479Y018306D01*
X017516Y018330D01*
X017556Y018349D01*
X017597Y018366D01*
X017640Y018378D01*
X017683Y018387D01*
X017727Y018392D01*
X017771Y018393D01*
X017815Y018390D01*
X017859Y018383D01*
X017902Y018372D01*
X017944Y018358D01*
X017984Y018340D01*
X018023Y018318D01*
X018059Y018294D01*
X018093Y018266D01*
X018125Y018235D01*
X018154Y018201D01*
X018180Y018165D01*
X018202Y018127D01*
X018221Y018087D01*
X018236Y018045D01*
X018248Y018003D01*
X018256Y017959D01*
X018260Y017915D01*
X018260Y017871D01*
X018256Y017827D01*
X018248Y017783D01*
X018236Y017741D01*
X018221Y017699D01*
X018202Y017659D01*
X018180Y017621D01*
X018154Y017585D01*
X018125Y017551D01*
X018093Y017520D01*
X018059Y017492D01*
X018023Y017468D01*
X017984Y017446D01*
X017944Y017428D01*
X017902Y017414D01*
X017859Y017403D01*
X017815Y017396D01*
X017771Y017393D01*
X017727Y017394D01*
X017683Y017399D01*
X017640Y017408D01*
X017597Y017420D01*
X017556Y017437D01*
X017516Y017456D01*
X017479Y017480D01*
X017443Y017506D01*
X017410Y017536D01*
X017380Y017568D01*
X017353Y017603D01*
X017329Y017640D01*
X017308Y017679D01*
X017291Y017720D01*
X017278Y017762D01*
X017268Y017805D01*
X017262Y017849D01*
X017260Y017893D01*
X016260Y017893D02*
X016262Y017817D01*
X016268Y017741D01*
X016277Y017666D01*
X016291Y017591D01*
X016308Y017517D01*
X016329Y017444D01*
X016353Y017372D01*
X016382Y017301D01*
X016413Y017232D01*
X016448Y017165D01*
X016487Y017100D01*
X016529Y017036D01*
X016574Y016975D01*
X016622Y016916D01*
X016673Y016860D01*
X016727Y016806D01*
X016783Y016755D01*
X016842Y016707D01*
X016903Y016662D01*
X016967Y016620D01*
X017032Y016581D01*
X017099Y016546D01*
X017168Y016515D01*
X017239Y016486D01*
X017311Y016462D01*
X017384Y016441D01*
X017458Y016424D01*
X017533Y016410D01*
X017608Y016401D01*
X017684Y016395D01*
X017760Y016393D01*
X021086Y019011D02*
X021088Y019050D01*
X021094Y019089D01*
X021104Y019127D01*
X021117Y019164D01*
X021134Y019199D01*
X021154Y019233D01*
X021178Y019264D01*
X021205Y019293D01*
X021234Y019319D01*
X021266Y019342D01*
X021300Y019362D01*
X021336Y019378D01*
X021373Y019390D01*
X021412Y019399D01*
X021451Y019404D01*
X021490Y019405D01*
X021529Y019402D01*
X021568Y019395D01*
X021605Y019384D01*
X021642Y019370D01*
X021677Y019352D01*
X021710Y019331D01*
X021741Y019306D01*
X021769Y019279D01*
X021794Y019249D01*
X021816Y019216D01*
X021835Y019182D01*
X021850Y019146D01*
X021862Y019108D01*
X021870Y019070D01*
X021874Y019031D01*
X021874Y018991D01*
X021870Y018952D01*
X021862Y018914D01*
X021850Y018876D01*
X021835Y018840D01*
X021816Y018806D01*
X021794Y018773D01*
X021769Y018743D01*
X021741Y018716D01*
X021710Y018691D01*
X021677Y018670D01*
X021642Y018652D01*
X021605Y018638D01*
X021568Y018627D01*
X021529Y018620D01*
X021490Y018617D01*
X021451Y018618D01*
X021412Y018623D01*
X021373Y018632D01*
X021336Y018644D01*
X021300Y018660D01*
X021266Y018680D01*
X021234Y018703D01*
X021205Y018729D01*
X021178Y018758D01*
X021154Y018789D01*
X021134Y018823D01*
X021117Y018858D01*
X021104Y018895D01*
X021094Y018933D01*
X021088Y018972D01*
X021086Y019011D01*
X021086Y033775D02*
X021088Y033814D01*
X021094Y033853D01*
X021104Y033891D01*
X021117Y033928D01*
X021134Y033963D01*
X021154Y033997D01*
X021178Y034028D01*
X021205Y034057D01*
X021234Y034083D01*
X021266Y034106D01*
X021300Y034126D01*
X021336Y034142D01*
X021373Y034154D01*
X021412Y034163D01*
X021451Y034168D01*
X021490Y034169D01*
X021529Y034166D01*
X021568Y034159D01*
X021605Y034148D01*
X021642Y034134D01*
X021677Y034116D01*
X021710Y034095D01*
X021741Y034070D01*
X021769Y034043D01*
X021794Y034013D01*
X021816Y033980D01*
X021835Y033946D01*
X021850Y033910D01*
X021862Y033872D01*
X021870Y033834D01*
X021874Y033795D01*
X021874Y033755D01*
X021870Y033716D01*
X021862Y033678D01*
X021850Y033640D01*
X021835Y033604D01*
X021816Y033570D01*
X021794Y033537D01*
X021769Y033507D01*
X021741Y033480D01*
X021710Y033455D01*
X021677Y033434D01*
X021642Y033416D01*
X021605Y033402D01*
X021568Y033391D01*
X021529Y033384D01*
X021490Y033381D01*
X021451Y033382D01*
X021412Y033387D01*
X021373Y033396D01*
X021336Y033408D01*
X021300Y033424D01*
X021266Y033444D01*
X021234Y033467D01*
X021205Y033493D01*
X021178Y033522D01*
X021154Y033553D01*
X021134Y033587D01*
X021117Y033622D01*
X021104Y033659D01*
X021094Y033697D01*
X021088Y033736D01*
X021086Y033775D01*
X048645Y033775D02*
X048647Y033814D01*
X048653Y033853D01*
X048663Y033891D01*
X048676Y033928D01*
X048693Y033963D01*
X048713Y033997D01*
X048737Y034028D01*
X048764Y034057D01*
X048793Y034083D01*
X048825Y034106D01*
X048859Y034126D01*
X048895Y034142D01*
X048932Y034154D01*
X048971Y034163D01*
X049010Y034168D01*
X049049Y034169D01*
X049088Y034166D01*
X049127Y034159D01*
X049164Y034148D01*
X049201Y034134D01*
X049236Y034116D01*
X049269Y034095D01*
X049300Y034070D01*
X049328Y034043D01*
X049353Y034013D01*
X049375Y033980D01*
X049394Y033946D01*
X049409Y033910D01*
X049421Y033872D01*
X049429Y033834D01*
X049433Y033795D01*
X049433Y033755D01*
X049429Y033716D01*
X049421Y033678D01*
X049409Y033640D01*
X049394Y033604D01*
X049375Y033570D01*
X049353Y033537D01*
X049328Y033507D01*
X049300Y033480D01*
X049269Y033455D01*
X049236Y033434D01*
X049201Y033416D01*
X049164Y033402D01*
X049127Y033391D01*
X049088Y033384D01*
X049049Y033381D01*
X049010Y033382D01*
X048971Y033387D01*
X048932Y033396D01*
X048895Y033408D01*
X048859Y033424D01*
X048825Y033444D01*
X048793Y033467D01*
X048764Y033493D01*
X048737Y033522D01*
X048713Y033553D01*
X048693Y033587D01*
X048676Y033622D01*
X048663Y033659D01*
X048653Y033697D01*
X048647Y033736D01*
X048645Y033775D01*
X048645Y019011D02*
X048647Y019050D01*
X048653Y019089D01*
X048663Y019127D01*
X048676Y019164D01*
X048693Y019199D01*
X048713Y019233D01*
X048737Y019264D01*
X048764Y019293D01*
X048793Y019319D01*
X048825Y019342D01*
X048859Y019362D01*
X048895Y019378D01*
X048932Y019390D01*
X048971Y019399D01*
X049010Y019404D01*
X049049Y019405D01*
X049088Y019402D01*
X049127Y019395D01*
X049164Y019384D01*
X049201Y019370D01*
X049236Y019352D01*
X049269Y019331D01*
X049300Y019306D01*
X049328Y019279D01*
X049353Y019249D01*
X049375Y019216D01*
X049394Y019182D01*
X049409Y019146D01*
X049421Y019108D01*
X049429Y019070D01*
X049433Y019031D01*
X049433Y018991D01*
X049429Y018952D01*
X049421Y018914D01*
X049409Y018876D01*
X049394Y018840D01*
X049375Y018806D01*
X049353Y018773D01*
X049328Y018743D01*
X049300Y018716D01*
X049269Y018691D01*
X049236Y018670D01*
X049201Y018652D01*
X049164Y018638D01*
X049127Y018627D01*
X049088Y018620D01*
X049049Y018617D01*
X049010Y018618D01*
X048971Y018623D01*
X048932Y018632D01*
X048895Y018644D01*
X048859Y018660D01*
X048825Y018680D01*
X048793Y018703D01*
X048764Y018729D01*
X048737Y018758D01*
X048713Y018789D01*
X048693Y018823D01*
X048676Y018858D01*
X048663Y018895D01*
X048653Y018933D01*
X048647Y018972D01*
X048645Y019011D01*
D11*
X052760Y017893D03*
X052760Y034893D03*
X017760Y034893D03*
X017760Y017893D03*
D12*
G36*
X026463Y024017D02*
X026715Y023765D01*
X026187Y023237D01*
X025935Y023489D01*
X026463Y024017D01*
G37*
G36*
X026798Y023683D02*
X027050Y023431D01*
X026522Y022903D01*
X026270Y023155D01*
X026798Y023683D01*
G37*
G36*
X027132Y023349D02*
X027384Y023097D01*
X026856Y022569D01*
X026604Y022821D01*
X027132Y023349D01*
G37*
D13*
X020311Y017393D03*
X019208Y017393D03*
X050208Y018498D03*
X051311Y018498D03*
D14*
X051498Y022769D03*
X051498Y023143D03*
X051498Y023517D03*
X052521Y023517D03*
X052521Y022769D03*
X024321Y021067D03*
X024321Y020319D03*
X023298Y020319D03*
X023298Y020693D03*
X023298Y021067D03*
X022571Y021067D03*
X022571Y020319D03*
X021548Y020319D03*
X021548Y020693D03*
X021548Y021067D03*
D15*
X020760Y021048D03*
X020760Y020339D03*
X024360Y019648D03*
X025010Y020339D03*
X025660Y020339D03*
X025660Y021048D03*
X025010Y021048D03*
X024360Y018939D03*
X028410Y025189D03*
X029010Y025189D03*
X029010Y025898D03*
X028410Y025898D03*
X027510Y027139D03*
X027510Y027848D03*
X027760Y030539D03*
X028760Y030539D03*
X028760Y031248D03*
X027760Y031248D03*
X025760Y031248D03*
X025760Y030539D03*
X023760Y030539D03*
X023760Y031248D03*
X021760Y031248D03*
X021760Y030539D03*
X022010Y027748D03*
X022010Y027039D03*
X022010Y026248D03*
X022010Y025539D03*
X030760Y030539D03*
X030760Y031248D03*
X032760Y031248D03*
X032760Y030539D03*
X034760Y030539D03*
X034760Y031248D03*
X035760Y031248D03*
X035760Y030539D03*
X037760Y030539D03*
X037760Y031248D03*
X039760Y031248D03*
X039760Y030539D03*
X041760Y030539D03*
X041760Y031248D03*
X042760Y031248D03*
X042760Y030539D03*
X044760Y030539D03*
X044760Y031248D03*
X046760Y031248D03*
X046760Y030539D03*
X048760Y030539D03*
X048760Y031248D03*
X053260Y023498D03*
X053260Y022789D03*
X038010Y026739D03*
X038010Y027448D03*
X036995Y024248D03*
X036995Y023539D03*
X034760Y023539D03*
X034010Y023539D03*
X034010Y024248D03*
X034760Y024248D03*
X032960Y026039D03*
X032260Y026039D03*
X032260Y026748D03*
X032960Y026748D03*
X037710Y019748D03*
X037710Y019039D03*
D16*
X027864Y025893D03*
X027155Y025893D03*
X025114Y028393D03*
X024405Y028393D03*
X024405Y030393D03*
X025114Y030393D03*
X026405Y030393D03*
X027114Y030393D03*
X029405Y030393D03*
X030114Y030393D03*
X031405Y030393D03*
X032114Y030393D03*
X033405Y030393D03*
X034114Y030393D03*
X036405Y030393D03*
X037114Y030393D03*
X038405Y030393D03*
X039114Y030393D03*
X040405Y030393D03*
X041114Y030393D03*
X043405Y030393D03*
X044114Y030393D03*
X045405Y030393D03*
X046114Y030393D03*
X047405Y030393D03*
X048114Y030393D03*
X051905Y027893D03*
X052614Y027893D03*
X052364Y024193D03*
X051655Y024193D03*
X049114Y021493D03*
X048405Y021493D03*
X048405Y020793D03*
X048405Y020093D03*
X049114Y020093D03*
X049655Y020093D03*
X049655Y020793D03*
X049114Y020793D03*
X050364Y020793D03*
X050364Y020093D03*
X051905Y019143D03*
X052614Y019143D03*
X049364Y017943D03*
X048655Y017943D03*
X029864Y028793D03*
X029155Y028793D03*
X034905Y032393D03*
X035614Y032393D03*
X023114Y030393D03*
X022405Y030393D03*
X018614Y027893D03*
X017905Y027893D03*
X021855Y024093D03*
X022564Y024093D03*
X024405Y023043D03*
X024405Y022393D03*
X025114Y022393D03*
X025114Y023043D03*
X022864Y021643D03*
X022155Y021643D03*
X021514Y021643D03*
X020805Y021643D03*
X019614Y023093D03*
X018905Y023093D03*
X018905Y023893D03*
X019614Y023893D03*
X023055Y019593D03*
X023055Y018993D03*
X023055Y018393D03*
X023764Y018393D03*
X023764Y018993D03*
X023764Y019593D03*
X018614Y033643D03*
X017905Y033643D03*
X051905Y033643D03*
X052614Y033643D03*
D17*
X051606Y017393D03*
X049913Y017393D03*
X022856Y017393D03*
X021163Y017393D03*
D18*
X034230Y025893D03*
X034230Y026393D03*
X034230Y026893D03*
X034230Y027393D03*
X034230Y027893D03*
X034230Y028393D03*
X034230Y028893D03*
X036290Y028893D03*
X036290Y028393D03*
X036290Y027893D03*
X036290Y027393D03*
X036290Y026893D03*
X036290Y026393D03*
X036290Y025893D03*
X030540Y026643D03*
X030540Y027143D03*
X030540Y027643D03*
X030540Y028143D03*
X028480Y028143D03*
X028480Y027643D03*
X028480Y027143D03*
X028480Y026643D03*
X038730Y020643D03*
X038730Y020143D03*
X038730Y019643D03*
X038730Y019143D03*
X040790Y019143D03*
X040790Y019643D03*
X040790Y020143D03*
X040790Y020643D03*
D19*
X035634Y033381D03*
X035260Y033381D03*
X034885Y033381D03*
X034885Y034405D03*
X035634Y034405D03*
D20*
G36*
X025038Y025893D02*
X024760Y025615D01*
X024482Y025893D01*
X024760Y026171D01*
X025038Y025893D01*
G37*
D21*
G36*
X025777Y025294D02*
X026221Y024850D01*
X026081Y024710D01*
X025637Y025154D01*
X025777Y025294D01*
G37*
G36*
X025916Y025434D02*
X026360Y024990D01*
X026220Y024850D01*
X025776Y025294D01*
X025916Y025434D01*
G37*
G36*
X026055Y025573D02*
X026499Y025129D01*
X026359Y024989D01*
X025915Y025433D01*
X026055Y025573D01*
G37*
G36*
X026194Y025712D02*
X026638Y025268D01*
X026498Y025128D01*
X026054Y025572D01*
X026194Y025712D01*
G37*
G36*
X026334Y025851D02*
X026778Y025407D01*
X026638Y025267D01*
X026194Y025711D01*
X026334Y025851D01*
G37*
G36*
X026778Y026379D02*
X026334Y025935D01*
X026194Y026075D01*
X026638Y026519D01*
X026778Y026379D01*
G37*
G36*
X026638Y026519D02*
X026194Y026075D01*
X026054Y026215D01*
X026498Y026659D01*
X026638Y026519D01*
G37*
G36*
X026499Y026658D02*
X026055Y026214D01*
X025915Y026354D01*
X026359Y026798D01*
X026499Y026658D01*
G37*
G36*
X026360Y026797D02*
X025916Y026353D01*
X025776Y026493D01*
X026220Y026937D01*
X026360Y026797D01*
G37*
G36*
X026221Y026936D02*
X025777Y026492D01*
X025637Y026632D01*
X026081Y027076D01*
X026221Y026936D01*
G37*
G36*
X026082Y027075D02*
X025638Y026631D01*
X025498Y026771D01*
X025942Y027215D01*
X026082Y027075D01*
G37*
G36*
X025358Y026911D02*
X025802Y027355D01*
X025942Y027215D01*
X025498Y026771D01*
X025358Y026911D01*
G37*
G36*
X025219Y027050D02*
X025663Y027494D01*
X025803Y027354D01*
X025359Y026910D01*
X025219Y027050D01*
G37*
G36*
X025080Y027189D02*
X025524Y027633D01*
X025664Y027493D01*
X025220Y027049D01*
X025080Y027189D01*
G37*
G36*
X024941Y027328D02*
X025385Y027772D01*
X025525Y027632D01*
X025081Y027188D01*
X024941Y027328D01*
G37*
G36*
X024802Y027467D02*
X025246Y027911D01*
X025386Y027771D01*
X024942Y027327D01*
X024802Y027467D01*
G37*
G36*
X024273Y027911D02*
X024717Y027467D01*
X024577Y027327D01*
X024133Y027771D01*
X024273Y027911D01*
G37*
G36*
X024134Y027772D02*
X024578Y027328D01*
X024438Y027188D01*
X023994Y027632D01*
X024134Y027772D01*
G37*
G36*
X023995Y027633D02*
X024439Y027189D01*
X024299Y027049D01*
X023855Y027493D01*
X023995Y027633D01*
G37*
G36*
X023856Y027494D02*
X024300Y027050D01*
X024160Y026910D01*
X023716Y027354D01*
X023856Y027494D01*
G37*
G36*
X023717Y027355D02*
X024161Y026911D01*
X024021Y026771D01*
X023577Y027215D01*
X023717Y027355D01*
G37*
G36*
X023577Y027215D02*
X024021Y026771D01*
X023881Y026631D01*
X023437Y027075D01*
X023577Y027215D01*
G37*
G36*
X023742Y026492D02*
X023298Y026936D01*
X023438Y027076D01*
X023882Y026632D01*
X023742Y026492D01*
G37*
G36*
X023603Y026353D02*
X023159Y026797D01*
X023299Y026937D01*
X023743Y026493D01*
X023603Y026353D01*
G37*
G36*
X023464Y026214D02*
X023020Y026658D01*
X023160Y026798D01*
X023604Y026354D01*
X023464Y026214D01*
G37*
G36*
X023325Y026075D02*
X022881Y026519D01*
X023021Y026659D01*
X023465Y026215D01*
X023325Y026075D01*
G37*
G36*
X023186Y025935D02*
X022742Y026379D01*
X022882Y026519D01*
X023326Y026075D01*
X023186Y025935D01*
G37*
G36*
X022742Y025407D02*
X023186Y025851D01*
X023326Y025711D01*
X022882Y025267D01*
X022742Y025407D01*
G37*
G36*
X022881Y025268D02*
X023325Y025712D01*
X023465Y025572D01*
X023021Y025128D01*
X022881Y025268D01*
G37*
G36*
X023020Y025129D02*
X023464Y025573D01*
X023604Y025433D01*
X023160Y024989D01*
X023020Y025129D01*
G37*
G36*
X023159Y024990D02*
X023603Y025434D01*
X023743Y025294D01*
X023299Y024850D01*
X023159Y024990D01*
G37*
G36*
X023298Y024850D02*
X023742Y025294D01*
X023882Y025154D01*
X023438Y024710D01*
X023298Y024850D01*
G37*
G36*
X023437Y024711D02*
X023881Y025155D01*
X024021Y025015D01*
X023577Y024571D01*
X023437Y024711D01*
G37*
G36*
X024161Y024876D02*
X023717Y024432D01*
X023577Y024572D01*
X024021Y025016D01*
X024161Y024876D01*
G37*
G36*
X024300Y024737D02*
X023856Y024293D01*
X023716Y024433D01*
X024160Y024877D01*
X024300Y024737D01*
G37*
G36*
X024439Y024598D02*
X023995Y024154D01*
X023855Y024294D01*
X024299Y024738D01*
X024439Y024598D01*
G37*
G36*
X024578Y024458D02*
X024134Y024014D01*
X023994Y024154D01*
X024438Y024598D01*
X024578Y024458D01*
G37*
G36*
X024717Y024319D02*
X024273Y023875D01*
X024133Y024015D01*
X024577Y024459D01*
X024717Y024319D01*
G37*
G36*
X025246Y023875D02*
X024802Y024319D01*
X024942Y024459D01*
X025386Y024015D01*
X025246Y023875D01*
G37*
G36*
X025385Y024014D02*
X024941Y024458D01*
X025081Y024598D01*
X025525Y024154D01*
X025385Y024014D01*
G37*
G36*
X025524Y024154D02*
X025080Y024598D01*
X025220Y024738D01*
X025664Y024294D01*
X025524Y024154D01*
G37*
G36*
X025663Y024293D02*
X025219Y024737D01*
X025359Y024877D01*
X025803Y024433D01*
X025663Y024293D01*
G37*
G36*
X025802Y024432D02*
X025358Y024876D01*
X025498Y025016D01*
X025942Y024572D01*
X025802Y024432D01*
G37*
G36*
X025942Y024571D02*
X025498Y025015D01*
X025638Y025155D01*
X026082Y024711D01*
X025942Y024571D01*
G37*
D22*
X017466Y026393D02*
X017468Y026432D01*
X017474Y026471D01*
X017484Y026509D01*
X017497Y026546D01*
X017514Y026581D01*
X017534Y026615D01*
X017558Y026646D01*
X017585Y026675D01*
X017614Y026701D01*
X017646Y026724D01*
X017680Y026744D01*
X017716Y026760D01*
X017753Y026772D01*
X017792Y026781D01*
X017831Y026786D01*
X017870Y026787D01*
X017909Y026784D01*
X017948Y026777D01*
X017985Y026766D01*
X018022Y026752D01*
X018057Y026734D01*
X018090Y026713D01*
X018121Y026688D01*
X018149Y026661D01*
X018174Y026631D01*
X018196Y026598D01*
X018215Y026564D01*
X018230Y026528D01*
X018242Y026490D01*
X018250Y026452D01*
X018254Y026413D01*
X018254Y026373D01*
X018250Y026334D01*
X018242Y026296D01*
X018230Y026258D01*
X018215Y026222D01*
X018196Y026188D01*
X018174Y026155D01*
X018149Y026125D01*
X018121Y026098D01*
X018090Y026073D01*
X018057Y026052D01*
X018022Y026034D01*
X017985Y026020D01*
X017948Y026009D01*
X017909Y026002D01*
X017870Y025999D01*
X017831Y026000D01*
X017792Y026005D01*
X017753Y026014D01*
X017716Y026026D01*
X017680Y026042D01*
X017646Y026062D01*
X017614Y026085D01*
X017585Y026111D01*
X017558Y026140D01*
X017534Y026171D01*
X017514Y026205D01*
X017497Y026240D01*
X017484Y026277D01*
X017474Y026315D01*
X017468Y026354D01*
X017466Y026393D01*
X017466Y020693D02*
X017468Y020732D01*
X017474Y020771D01*
X017484Y020809D01*
X017497Y020846D01*
X017514Y020881D01*
X017534Y020915D01*
X017558Y020946D01*
X017585Y020975D01*
X017614Y021001D01*
X017646Y021024D01*
X017680Y021044D01*
X017716Y021060D01*
X017753Y021072D01*
X017792Y021081D01*
X017831Y021086D01*
X017870Y021087D01*
X017909Y021084D01*
X017948Y021077D01*
X017985Y021066D01*
X018022Y021052D01*
X018057Y021034D01*
X018090Y021013D01*
X018121Y020988D01*
X018149Y020961D01*
X018174Y020931D01*
X018196Y020898D01*
X018215Y020864D01*
X018230Y020828D01*
X018242Y020790D01*
X018250Y020752D01*
X018254Y020713D01*
X018254Y020673D01*
X018250Y020634D01*
X018242Y020596D01*
X018230Y020558D01*
X018215Y020522D01*
X018196Y020488D01*
X018174Y020455D01*
X018149Y020425D01*
X018121Y020398D01*
X018090Y020373D01*
X018057Y020352D01*
X018022Y020334D01*
X017985Y020320D01*
X017948Y020309D01*
X017909Y020302D01*
X017870Y020299D01*
X017831Y020300D01*
X017792Y020305D01*
X017753Y020314D01*
X017716Y020326D01*
X017680Y020342D01*
X017646Y020362D01*
X017614Y020385D01*
X017585Y020411D01*
X017558Y020440D01*
X017534Y020471D01*
X017514Y020505D01*
X017497Y020540D01*
X017484Y020577D01*
X017474Y020615D01*
X017468Y020654D01*
X017466Y020693D01*
X017466Y032093D02*
X017468Y032132D01*
X017474Y032171D01*
X017484Y032209D01*
X017497Y032246D01*
X017514Y032281D01*
X017534Y032315D01*
X017558Y032346D01*
X017585Y032375D01*
X017614Y032401D01*
X017646Y032424D01*
X017680Y032444D01*
X017716Y032460D01*
X017753Y032472D01*
X017792Y032481D01*
X017831Y032486D01*
X017870Y032487D01*
X017909Y032484D01*
X017948Y032477D01*
X017985Y032466D01*
X018022Y032452D01*
X018057Y032434D01*
X018090Y032413D01*
X018121Y032388D01*
X018149Y032361D01*
X018174Y032331D01*
X018196Y032298D01*
X018215Y032264D01*
X018230Y032228D01*
X018242Y032190D01*
X018250Y032152D01*
X018254Y032113D01*
X018254Y032073D01*
X018250Y032034D01*
X018242Y031996D01*
X018230Y031958D01*
X018215Y031922D01*
X018196Y031888D01*
X018174Y031855D01*
X018149Y031825D01*
X018121Y031798D01*
X018090Y031773D01*
X018057Y031752D01*
X018022Y031734D01*
X017985Y031720D01*
X017948Y031709D01*
X017909Y031702D01*
X017870Y031699D01*
X017831Y031700D01*
X017792Y031705D01*
X017753Y031714D01*
X017716Y031726D01*
X017680Y031742D01*
X017646Y031762D01*
X017614Y031785D01*
X017585Y031811D01*
X017558Y031840D01*
X017534Y031871D01*
X017514Y031905D01*
X017497Y031940D01*
X017484Y031977D01*
X017474Y032015D01*
X017468Y032054D01*
X017466Y032093D01*
X052266Y032093D02*
X052268Y032132D01*
X052274Y032171D01*
X052284Y032209D01*
X052297Y032246D01*
X052314Y032281D01*
X052334Y032315D01*
X052358Y032346D01*
X052385Y032375D01*
X052414Y032401D01*
X052446Y032424D01*
X052480Y032444D01*
X052516Y032460D01*
X052553Y032472D01*
X052592Y032481D01*
X052631Y032486D01*
X052670Y032487D01*
X052709Y032484D01*
X052748Y032477D01*
X052785Y032466D01*
X052822Y032452D01*
X052857Y032434D01*
X052890Y032413D01*
X052921Y032388D01*
X052949Y032361D01*
X052974Y032331D01*
X052996Y032298D01*
X053015Y032264D01*
X053030Y032228D01*
X053042Y032190D01*
X053050Y032152D01*
X053054Y032113D01*
X053054Y032073D01*
X053050Y032034D01*
X053042Y031996D01*
X053030Y031958D01*
X053015Y031922D01*
X052996Y031888D01*
X052974Y031855D01*
X052949Y031825D01*
X052921Y031798D01*
X052890Y031773D01*
X052857Y031752D01*
X052822Y031734D01*
X052785Y031720D01*
X052748Y031709D01*
X052709Y031702D01*
X052670Y031699D01*
X052631Y031700D01*
X052592Y031705D01*
X052553Y031714D01*
X052516Y031726D01*
X052480Y031742D01*
X052446Y031762D01*
X052414Y031785D01*
X052385Y031811D01*
X052358Y031840D01*
X052334Y031871D01*
X052314Y031905D01*
X052297Y031940D01*
X052284Y031977D01*
X052274Y032015D01*
X052268Y032054D01*
X052266Y032093D01*
X052266Y026393D02*
X052268Y026432D01*
X052274Y026471D01*
X052284Y026509D01*
X052297Y026546D01*
X052314Y026581D01*
X052334Y026615D01*
X052358Y026646D01*
X052385Y026675D01*
X052414Y026701D01*
X052446Y026724D01*
X052480Y026744D01*
X052516Y026760D01*
X052553Y026772D01*
X052592Y026781D01*
X052631Y026786D01*
X052670Y026787D01*
X052709Y026784D01*
X052748Y026777D01*
X052785Y026766D01*
X052822Y026752D01*
X052857Y026734D01*
X052890Y026713D01*
X052921Y026688D01*
X052949Y026661D01*
X052974Y026631D01*
X052996Y026598D01*
X053015Y026564D01*
X053030Y026528D01*
X053042Y026490D01*
X053050Y026452D01*
X053054Y026413D01*
X053054Y026373D01*
X053050Y026334D01*
X053042Y026296D01*
X053030Y026258D01*
X053015Y026222D01*
X052996Y026188D01*
X052974Y026155D01*
X052949Y026125D01*
X052921Y026098D01*
X052890Y026073D01*
X052857Y026052D01*
X052822Y026034D01*
X052785Y026020D01*
X052748Y026009D01*
X052709Y026002D01*
X052670Y025999D01*
X052631Y026000D01*
X052592Y026005D01*
X052553Y026014D01*
X052516Y026026D01*
X052480Y026042D01*
X052446Y026062D01*
X052414Y026085D01*
X052385Y026111D01*
X052358Y026140D01*
X052334Y026171D01*
X052314Y026205D01*
X052297Y026240D01*
X052284Y026277D01*
X052274Y026315D01*
X052268Y026354D01*
X052266Y026393D01*
X052266Y020693D02*
X052268Y020732D01*
X052274Y020771D01*
X052284Y020809D01*
X052297Y020846D01*
X052314Y020881D01*
X052334Y020915D01*
X052358Y020946D01*
X052385Y020975D01*
X052414Y021001D01*
X052446Y021024D01*
X052480Y021044D01*
X052516Y021060D01*
X052553Y021072D01*
X052592Y021081D01*
X052631Y021086D01*
X052670Y021087D01*
X052709Y021084D01*
X052748Y021077D01*
X052785Y021066D01*
X052822Y021052D01*
X052857Y021034D01*
X052890Y021013D01*
X052921Y020988D01*
X052949Y020961D01*
X052974Y020931D01*
X052996Y020898D01*
X053015Y020864D01*
X053030Y020828D01*
X053042Y020790D01*
X053050Y020752D01*
X053054Y020713D01*
X053054Y020673D01*
X053050Y020634D01*
X053042Y020596D01*
X053030Y020558D01*
X053015Y020522D01*
X052996Y020488D01*
X052974Y020455D01*
X052949Y020425D01*
X052921Y020398D01*
X052890Y020373D01*
X052857Y020352D01*
X052822Y020334D01*
X052785Y020320D01*
X052748Y020309D01*
X052709Y020302D01*
X052670Y020299D01*
X052631Y020300D01*
X052592Y020305D01*
X052553Y020314D01*
X052516Y020326D01*
X052480Y020342D01*
X052446Y020362D01*
X052414Y020385D01*
X052385Y020411D01*
X052358Y020440D01*
X052334Y020471D01*
X052314Y020505D01*
X052297Y020540D01*
X052284Y020577D01*
X052274Y020615D01*
X052268Y020654D01*
X052266Y020693D01*
D23*
X047360Y033893D03*
X044160Y033893D03*
X040360Y033893D03*
X037160Y033893D03*
X033360Y033893D03*
X030160Y033893D03*
X026360Y033893D03*
X023160Y033893D03*
D24*
X019560Y024593D03*
X018960Y024593D03*
X018960Y022393D03*
X019560Y022393D03*
D25*
X043067Y022536D03*
X045311Y022536D03*
D26*
X042437Y017359D03*
X047614Y016965D03*
D27*
X045779Y018481D03*
X045346Y018638D03*
X044913Y018481D03*
X044480Y018402D03*
X044047Y018481D03*
X043614Y018402D03*
X043181Y018481D03*
X042748Y018481D03*
D28*
X051660Y019943D03*
X051660Y021443D03*
X053660Y021443D03*
X053660Y019943D03*
X053660Y025643D03*
X053660Y027143D03*
X051660Y027143D03*
X051660Y025643D03*
X051660Y031343D03*
X051660Y032843D03*
X053660Y032843D03*
X053660Y031343D03*
X018860Y031343D03*
X016860Y031343D03*
X016860Y032843D03*
X018860Y032843D03*
X018860Y027143D03*
X016860Y027143D03*
X016860Y025643D03*
X018860Y025643D03*
X018860Y021443D03*
X016860Y021443D03*
X016860Y019943D03*
X018860Y019943D03*
D29*
X021480Y019011D03*
X021480Y033775D03*
X049039Y033775D03*
X049039Y019011D03*
D30*
X017823Y023081D03*
X017823Y023337D03*
X017823Y023593D03*
X017823Y023849D03*
X017823Y024105D03*
D31*
X017766Y024462D02*
X017766Y024694D01*
X017880Y024694D01*
X017880Y024462D01*
X017766Y024462D01*
X017766Y022725D02*
X017766Y022493D01*
X017766Y022725D02*
X017880Y022725D01*
X017880Y022493D01*
X017766Y022493D01*
D32*
X016760Y022364D03*
X016760Y024823D03*
D33*
X016760Y023987D03*
X016760Y023200D03*
D34*
X029260Y018693D03*
D35*
X032360Y018693D03*
X026160Y018693D03*
D36*
X034177Y022858D03*
X034374Y022858D03*
X034571Y022858D03*
X034767Y022858D03*
X034964Y022858D03*
X035161Y022858D03*
X035358Y022858D03*
X035555Y022858D03*
X035752Y022858D03*
X035948Y022858D03*
X036145Y022858D03*
X036342Y022858D03*
D37*
X037090Y021893D03*
X033429Y021893D03*
M02*
