%
M48
M72
T01C0.0130
T02C0.0236
T03C0.0350
T04C0.0787
T05C0.1772
%
T01
X19760Y16893
X21010Y17893
X21510Y17893
X22438Y17677
X23385Y18956
X23260Y19643
X22322Y19393
X19510Y20393
X18385Y19306
X17860Y20693
X17760Y21956
X19010Y22393
X19510Y21893
X20010Y22393
X20885Y22201
X21760Y20643
X23260Y20643
X24010Y21268
X24310Y20956
X24635Y21268
X24960Y20956
X25760Y20768
X26760Y20706
X27085Y20956
X27510Y21643
X27510Y22268
X28635Y23018
X28947Y23331
X31135Y24768
X31447Y24456
X32347Y25543
X31135Y26059
X31597Y26793
X32822Y27393
X32510Y27893
X31597Y28293
X33260Y28893
X34260Y29393
X36260Y29393
X36260Y30393
X36260Y31103
X34885Y31103
X34260Y32393
X34260Y33393
X34260Y34393
X34260Y35393
X36260Y35393
X36260Y34393
X35260Y32893
X38760Y32893
X38760Y31893
X39925Y30268
X41260Y30393
X42260Y30393
X43260Y30393
X43260Y31103
X42760Y31893
X43260Y32393
X42760Y32893
X43260Y33393
X42760Y33893
X43260Y34393
X42760Y34893
X42260Y34393
X41760Y33893
X42260Y33393
X41760Y32893
X42260Y32393
X41760Y31893
X41260Y32393
X41260Y33393
X41260Y34393
X41760Y34893
X42260Y35393
X42760Y35893
X43260Y35393
X41760Y35893
X41260Y35393
X38760Y34893
X38760Y33893
X38760Y35893
X31760Y35893
X31760Y34893
X31760Y33893
X31760Y32893
X31760Y31893
X30594Y30268
X29260Y30393
X29260Y31103
X28760Y31893
X29260Y32393
X28760Y32893
X29260Y33393
X28760Y33893
X29260Y34393
X28760Y34893
X28260Y34393
X27760Y33893
X28260Y33393
X27760Y32893
X28260Y32393
X27760Y31893
X27260Y32393
X27260Y33393
X27260Y34393
X27760Y34893
X28260Y35393
X28760Y35893
X29260Y35393
X27760Y35893
X27260Y35393
X24760Y34893
X24760Y33893
X24760Y32893
X24760Y31893
X25925Y30268
X27260Y30393
X28260Y30393
X29572Y28331
X29260Y28018
X29572Y27706
X29260Y27393
X29572Y27081
X29260Y26768
X29572Y26456
X29260Y26143
X25760Y24893
X23760Y22893
X22884Y22206
X22510Y24143
X22760Y24893
X20260Y24893
X19510Y26393
X17860Y26393
X17760Y25206
X18385Y24393
X24635Y27831
X25010Y28706
X25760Y27768
X23594Y30268
X22260Y30393
X22260Y31103
X22260Y32393
X22260Y33393
X22260Y34393
X22260Y35393
X24760Y35893
X19510Y32143
X17860Y32093
X17525Y31018
X19010Y28893
X20510Y28893
X20760Y29893
X35510Y27143
X35510Y25893
X36260Y25543
X37035Y26231
X37697Y27393
X38010Y27893
X37260Y28893
X39510Y28381
X41010Y28381
X42510Y28381
X44010Y28381
X45510Y28381
X46260Y27268
X46260Y26206
X47635Y25881
X48635Y25881
X49947Y24706
X50282Y24393
X49947Y24081
X49197Y23893
X47947Y23643
X46510Y22143
X47010Y21175
X44976Y19893
X44110Y19593
X43697Y20193
X43243Y20193
X43243Y21143
X44110Y21143
X43260Y22643
X44543Y23393
X43166Y25081
X43885Y25881
X44885Y25881
X42010Y25631
X40844Y25081
X39072Y25643
X38572Y25643
X38135Y25081
X38572Y23393
X39072Y23393
X40010Y22643
X39535Y22143
X39072Y22018
X38572Y22018
X38010Y22518
X37425Y22518
X36244Y22518
X35850Y22518
X36137Y23518
X34669Y22518
X37760Y21268
X39535Y20518
X40035Y20193
X41035Y19593
X41535Y19893
X42760Y18381
X44010Y17756
X44010Y18381
X45260Y18381
X45260Y17756
X46510Y18381
X47760Y18881
X49760Y19643
X51385Y19268
X52660Y20693
X51510Y22131
X52325Y22893
X51760Y24006
X52325Y24143
X50282Y25081
X52510Y25893
X52994Y27643
X51760Y27643
X50010Y27643
X48260Y27893
X48260Y28381
X48260Y30393
X46925Y30268
X45760Y31893
X45760Y32893
X45760Y33893
X45760Y34893
X45760Y35893
X48260Y35393
X48260Y34393
X48260Y33393
X48260Y32393
X51010Y32143
X52660Y32093
X44594Y30268
X40760Y27143
X40260Y27143
X31385Y21643
X29707Y20831
X29510Y18518
X29510Y17731
X32010Y18643
X32260Y17881
X33260Y17881
X34260Y17881
X35260Y17881
X36260Y17881
X37260Y17881
X39072Y18643
X35456Y19593
X35063Y19893
X26260Y18518
X26260Y17731
X24760Y17731
X48635Y16893
X49635Y21175
X50010Y22131
T02
X23510Y21768
X19646Y25143
X22157Y26893
X22697Y27393
X35260Y35643
X46260Y27893
X43416Y23393
X41760Y23393
X40010Y23393
X37760Y23393
X38285Y18168
X45409Y19393
X49385Y20309
X50884Y22043
X50135Y18018
T03
X43086Y17729
X46235Y17729
T04
X21480Y19011
X21480Y33775
X49039Y19011
X49039Y33775
T05
X52760Y17893
X52760Y34893
X17760Y17893
X17760Y34893
M30
