G75*
%MOIN*%
%OFA0B0*%
%FSLAX24Y24*%
%IPPOS*%
%LPD*%
%AMOC8*
5,1,8,0,0,1.08239X$1,22.5*
%
%ADD10C,0.0080*%
%ADD11C,0.0060*%
%ADD12C,0.0110*%
%ADD13C,0.0020*%
%ADD14C,0.0050*%
%ADD15C,0.0059*%
%ADD16R,0.0160X0.0010*%
%ADD17R,0.0360X0.0010*%
%ADD18R,0.0480X0.0010*%
%ADD19R,0.0580X0.0010*%
%ADD20R,0.0660X0.0010*%
%ADD21R,0.0730X0.0010*%
%ADD22R,0.0800X0.0010*%
%ADD23R,0.0860X0.0010*%
%ADD24R,0.0910X0.0010*%
%ADD25R,0.0960X0.0010*%
%ADD26R,0.1010X0.0010*%
%ADD27R,0.1060X0.0010*%
%ADD28R,0.1100X0.0010*%
%ADD29R,0.1140X0.0010*%
%ADD30R,0.1180X0.0010*%
%ADD31R,0.1220X0.0010*%
%ADD32R,0.1260X0.0010*%
%ADD33R,0.1290X0.0010*%
%ADD34R,0.1320X0.0010*%
%ADD35R,0.1360X0.0010*%
%ADD36R,0.1380X0.0010*%
%ADD37R,0.1420X0.0010*%
%ADD38R,0.1440X0.0010*%
%ADD39R,0.1480X0.0010*%
%ADD40R,0.1500X0.0010*%
%ADD41R,0.1530X0.0010*%
%ADD42R,0.1560X0.0010*%
%ADD43R,0.1580X0.0010*%
%ADD44R,0.1610X0.0010*%
%ADD45R,0.1640X0.0010*%
%ADD46R,0.1660X0.0010*%
%ADD47R,0.1680X0.0010*%
%ADD48R,0.1700X0.0010*%
%ADD49R,0.1720X0.0010*%
%ADD50R,0.1750X0.0010*%
%ADD51R,0.1770X0.0010*%
%ADD52R,0.1790X0.0010*%
%ADD53R,0.1810X0.0010*%
%ADD54R,0.1830X0.0010*%
%ADD55R,0.1850X0.0010*%
%ADD56R,0.1870X0.0010*%
%ADD57R,0.1890X0.0010*%
%ADD58R,0.1900X0.0010*%
%ADD59R,0.0490X0.0010*%
%ADD60R,0.0930X0.0010*%
%ADD61R,0.0500X0.0010*%
%ADD62R,0.0940X0.0010*%
%ADD63R,0.0510X0.0010*%
%ADD64R,0.0950X0.0010*%
%ADD65R,0.0520X0.0010*%
%ADD66R,0.0530X0.0010*%
%ADD67R,0.0970X0.0010*%
%ADD68R,0.0980X0.0010*%
%ADD69R,0.0540X0.0010*%
%ADD70R,0.0550X0.0010*%
%ADD71R,0.0990X0.0010*%
%ADD72R,0.0560X0.0010*%
%ADD73R,0.1000X0.0010*%
%ADD74R,0.0570X0.0010*%
%ADD75R,0.1020X0.0010*%
%ADD76R,0.0690X0.0010*%
%ADD77R,0.1130X0.0010*%
%ADD78R,0.0720X0.0010*%
%ADD79R,0.1160X0.0010*%
%ADD80R,0.0740X0.0010*%
%ADD81R,0.0750X0.0010*%
%ADD82R,0.1190X0.0010*%
%ADD83R,0.0770X0.0010*%
%ADD84R,0.1200X0.0010*%
%ADD85R,0.0780X0.0010*%
%ADD86R,0.0790X0.0010*%
%ADD87R,0.1230X0.0010*%
%ADD88R,0.1240X0.0010*%
%ADD89R,0.1250X0.0010*%
%ADD90R,0.0810X0.0010*%
%ADD91R,0.0820X0.0010*%
%ADD92R,0.0830X0.0010*%
%ADD93R,0.1270X0.0010*%
%ADD94R,0.0840X0.0010*%
%ADD95R,0.1280X0.0010*%
%ADD96R,0.0850X0.0010*%
%ADD97R,0.1300X0.0010*%
%ADD98R,0.1310X0.0010*%
%ADD99R,0.0870X0.0010*%
%ADD100R,0.0880X0.0010*%
%ADD101R,0.0890X0.0010*%
%ADD102R,0.1330X0.0010*%
%ADD103R,0.1340X0.0010*%
%ADD104R,0.0900X0.0010*%
%ADD105R,0.1350X0.0010*%
%ADD106R,0.0920X0.0010*%
%ADD107R,0.1370X0.0010*%
%ADD108R,0.0110X0.0010*%
%ADD109R,0.1080X0.0010*%
%ADD110R,0.0060X0.0010*%
%ADD111R,0.1040X0.0010*%
%ADD112R,0.0030X0.0010*%
%ADD113R,0.0070X0.0010*%
%ADD114R,0.0180X0.0010*%
%ADD115R,0.0240X0.0010*%
%ADD116R,0.0280X0.0010*%
%ADD117R,0.0320X0.0010*%
%ADD118R,0.0390X0.0010*%
%ADD119R,0.0410X0.0010*%
%ADD120R,0.0760X0.0010*%
%ADD121R,0.0420X0.0010*%
%ADD122R,0.0430X0.0010*%
%ADD123R,0.0440X0.0010*%
%ADD124R,0.0450X0.0010*%
%ADD125R,0.0460X0.0010*%
%ADD126R,0.0470X0.0010*%
%ADD127R,0.0710X0.0010*%
%ADD128R,0.0700X0.0010*%
%ADD129R,0.0370X0.0010*%
%ADD130R,0.0380X0.0010*%
%ADD131R,0.0680X0.0010*%
%ADD132R,0.1690X0.0010*%
%ADD133R,0.0670X0.0010*%
%ADD134R,0.1670X0.0010*%
%ADD135R,0.1650X0.0010*%
%ADD136R,0.1170X0.0010*%
%ADD137R,0.1150X0.0010*%
%ADD138R,0.1120X0.0010*%
%ADD139R,0.1110X0.0010*%
%ADD140R,0.1090X0.0010*%
%ADD141R,0.1070X0.0010*%
%ADD142R,0.1050X0.0010*%
%ADD143R,0.0400X0.0010*%
%ADD144R,0.0050X0.0010*%
%ADD145R,0.0290X0.0010*%
%ADD146R,0.0270X0.0010*%
%ADD147R,0.0250X0.0010*%
%ADD148R,0.0230X0.0010*%
%ADD149R,0.0220X0.0010*%
%ADD150R,0.0200X0.0010*%
%ADD151R,0.0170X0.0010*%
%ADD152R,0.0150X0.0010*%
%ADD153R,0.0130X0.0010*%
%ADD154R,0.1030X0.0010*%
%ADD155R,0.0080X0.0010*%
%ADD156R,0.0020X0.0010*%
%ADD157R,0.1620X0.0010*%
%ADD158R,0.1600X0.0010*%
%ADD159R,0.1550X0.0010*%
%ADD160R,0.1520X0.0010*%
%ADD161R,0.1470X0.0010*%
%ADD162R,0.1410X0.0010*%
%ADD163R,0.0640X0.0010*%
%ADD164R,0.0310X0.0010*%
D10*
X035860Y026818D02*
X035860Y027468D01*
X035862Y027485D01*
X035866Y027502D01*
X035873Y027518D01*
X035883Y027532D01*
X035896Y027545D01*
X035910Y027555D01*
X035926Y027562D01*
X035943Y027566D01*
X035960Y027568D01*
X036560Y027568D02*
X036577Y027566D01*
X036594Y027562D01*
X036610Y027555D01*
X036624Y027545D01*
X036637Y027532D01*
X036647Y027518D01*
X036654Y027502D01*
X036658Y027485D01*
X036660Y027468D01*
X036660Y026818D01*
X036658Y026801D01*
X036654Y026784D01*
X036647Y026768D01*
X036637Y026754D01*
X036624Y026741D01*
X036610Y026731D01*
X036594Y026724D01*
X036577Y026720D01*
X036560Y026718D01*
X035960Y026718D02*
X035943Y026720D01*
X035926Y026724D01*
X035910Y026731D01*
X035896Y026741D01*
X035883Y026754D01*
X035873Y026768D01*
X035866Y026784D01*
X035862Y026801D01*
X035860Y026818D01*
X043326Y032633D02*
X043606Y032633D01*
X043466Y032633D02*
X043466Y033054D01*
X043606Y032914D01*
X043786Y032633D02*
X044067Y032633D01*
X043926Y032633D02*
X043926Y033054D01*
X044067Y032914D01*
X044227Y032703D02*
X044227Y032633D01*
X044297Y032633D01*
X044297Y032703D01*
X044227Y032703D01*
X044477Y032703D02*
X044477Y032984D01*
X044757Y032703D01*
X044687Y032633D01*
X044547Y032633D01*
X044477Y032703D01*
X044757Y032703D02*
X044757Y032984D01*
X044687Y033054D01*
X044547Y033054D01*
X044477Y032984D01*
X044937Y032914D02*
X045077Y032633D01*
X045218Y032914D01*
X045858Y032984D02*
X046138Y032703D01*
X046068Y032633D01*
X045928Y032633D01*
X045858Y032703D01*
X045858Y032984D01*
X045928Y033054D01*
X046068Y033054D01*
X046138Y032984D01*
X046138Y032703D01*
X046318Y032703D02*
X046318Y032984D01*
X046599Y032703D01*
X046529Y032633D01*
X046389Y032633D01*
X046318Y032703D01*
X046318Y032984D02*
X046389Y033054D01*
X046529Y033054D01*
X046599Y032984D01*
X046599Y032703D01*
X046779Y032843D02*
X047059Y032843D01*
X046849Y033054D01*
X046849Y032633D01*
X047379Y032633D02*
X047379Y033054D01*
X047239Y033054D02*
X047520Y033054D01*
X047512Y028287D02*
X046882Y028287D01*
X046866Y028282D01*
X046850Y028274D01*
X046836Y028264D01*
X046824Y028252D01*
X046814Y028237D01*
X046807Y028221D01*
X046803Y028204D01*
X046802Y028187D01*
X046804Y028169D01*
X046804Y027618D02*
X046802Y027600D01*
X046803Y027583D01*
X046807Y027566D01*
X046814Y027550D01*
X046824Y027535D01*
X046836Y027523D01*
X046850Y027513D01*
X046866Y027505D01*
X046882Y027500D01*
X047512Y027500D01*
X047528Y027505D01*
X047544Y027513D01*
X047558Y027523D01*
X047570Y027535D01*
X047580Y027550D01*
X047587Y027566D01*
X047591Y027583D01*
X047592Y027600D01*
X047590Y027618D01*
X047590Y028169D02*
X047592Y028187D01*
X047591Y028204D01*
X047587Y028221D01*
X047580Y028237D01*
X047570Y028252D01*
X047558Y028264D01*
X047544Y028274D01*
X047528Y028282D01*
X047512Y028287D01*
X048372Y020709D02*
X049022Y020709D01*
X049039Y020707D01*
X049056Y020703D01*
X049072Y020696D01*
X049086Y020686D01*
X049099Y020673D01*
X049109Y020659D01*
X049116Y020643D01*
X049120Y020626D01*
X049122Y020609D01*
X048372Y020709D02*
X048355Y020707D01*
X048338Y020703D01*
X048322Y020696D01*
X048308Y020686D01*
X048295Y020673D01*
X048285Y020659D01*
X048278Y020643D01*
X048274Y020626D01*
X048272Y020609D01*
X048272Y020009D02*
X048274Y019992D01*
X048278Y019975D01*
X048285Y019959D01*
X048295Y019945D01*
X048308Y019932D01*
X048322Y019922D01*
X048338Y019915D01*
X048355Y019911D01*
X048372Y019909D01*
X049022Y019909D01*
X049039Y019911D01*
X049056Y019915D01*
X049072Y019922D01*
X049086Y019932D01*
X049099Y019945D01*
X049109Y019959D01*
X049116Y019975D01*
X049120Y019992D01*
X049122Y020009D01*
D11*
X027178Y017764D02*
X026951Y017764D01*
X027065Y017593D02*
X027178Y017593D01*
X027178Y017423D02*
X027178Y017764D01*
X027320Y017764D02*
X027546Y017764D01*
X027546Y017423D01*
X027688Y017480D02*
X027688Y017707D01*
X027745Y017764D01*
X027858Y017764D01*
X027915Y017707D01*
X027915Y017480D01*
X027858Y017423D01*
X027745Y017423D01*
X027688Y017480D01*
X027546Y017593D02*
X027433Y017593D01*
X027688Y018023D02*
X027801Y018137D01*
X027745Y018137D02*
X027915Y018137D01*
X027915Y018023D02*
X027915Y018364D01*
X027745Y018364D01*
X027688Y018307D01*
X027688Y018193D01*
X027745Y018137D01*
X028056Y018023D02*
X028056Y018364D01*
X028283Y018364D02*
X028283Y018023D01*
X028170Y018137D01*
X028056Y018023D01*
X028056Y017764D02*
X028056Y017423D01*
X028283Y017764D01*
X028283Y017423D01*
X028424Y017480D02*
X028424Y017707D01*
X028481Y017764D01*
X028595Y017764D01*
X028651Y017707D01*
X028651Y017480D01*
X028595Y017423D01*
X028481Y017423D01*
X028424Y017480D01*
X028793Y017367D02*
X029020Y017367D01*
X029161Y017423D02*
X029275Y017537D01*
X029218Y017537D02*
X029388Y017537D01*
X029388Y017423D02*
X029388Y017764D01*
X029218Y017764D01*
X029161Y017707D01*
X029161Y017593D01*
X029218Y017537D01*
X029529Y017423D02*
X029529Y017764D01*
X029756Y017764D02*
X029756Y017423D01*
X029643Y017537D01*
X029529Y017423D01*
X029898Y017593D02*
X029954Y017537D01*
X030125Y017537D01*
X030125Y017423D02*
X030125Y017764D01*
X029954Y017764D01*
X029898Y017707D01*
X029898Y017593D01*
X029700Y018023D02*
X029586Y018023D01*
X029529Y018080D01*
X029529Y018137D01*
X029586Y018193D01*
X029700Y018193D01*
X029756Y018250D01*
X029756Y018307D01*
X029700Y018364D01*
X029586Y018364D01*
X029529Y018307D01*
X029388Y018364D02*
X029388Y018023D01*
X029275Y018137D01*
X029161Y018023D01*
X029161Y018364D01*
X029020Y018567D02*
X028793Y018567D01*
X028651Y018623D02*
X028424Y018623D01*
X028538Y018793D02*
X028651Y018793D01*
X028651Y018623D02*
X028651Y018964D01*
X028424Y018964D01*
X028481Y019223D02*
X028424Y019280D01*
X028424Y019507D01*
X028481Y019564D01*
X028651Y019564D01*
X028651Y019223D01*
X028481Y019223D01*
X028793Y019167D02*
X029020Y019167D01*
X029161Y019223D02*
X029161Y019564D01*
X029388Y019564D02*
X029388Y019223D01*
X029275Y019337D01*
X029161Y019223D01*
X029161Y018964D02*
X029161Y018623D01*
X029275Y018737D01*
X029388Y018623D01*
X029388Y018964D01*
X029529Y018907D02*
X029586Y018964D01*
X029700Y018964D01*
X029756Y018907D01*
X029756Y018850D01*
X029700Y018793D01*
X029586Y018793D01*
X029529Y018737D01*
X029529Y018680D01*
X029586Y018623D01*
X029700Y018623D01*
X029756Y018680D01*
X029756Y018080D02*
X029700Y018023D01*
X029020Y017967D02*
X028793Y017967D01*
X028651Y018023D02*
X028651Y018364D01*
X028481Y018364D01*
X028424Y018307D01*
X028424Y018193D01*
X028481Y018137D01*
X028651Y018137D01*
X029586Y019223D02*
X029700Y019223D01*
X029756Y019280D01*
X029700Y019393D02*
X029586Y019393D01*
X029529Y019337D01*
X029529Y019280D01*
X029586Y019223D01*
X029700Y019393D02*
X029756Y019450D01*
X029756Y019507D01*
X029700Y019564D01*
X029586Y019564D01*
X029529Y019507D01*
X029586Y019823D02*
X029529Y019880D01*
X029529Y020107D01*
X029586Y020164D01*
X029756Y020164D01*
X029756Y019823D01*
X029586Y019823D01*
X029388Y019823D02*
X029388Y020050D01*
X029275Y020164D01*
X029161Y020050D01*
X029161Y019823D01*
X029161Y019993D02*
X029388Y019993D01*
X029020Y020164D02*
X028793Y020164D01*
X028906Y020164D02*
X028906Y019823D01*
X028651Y019823D02*
X028651Y020050D01*
X028538Y020164D01*
X028424Y020050D01*
X028424Y019823D01*
X028283Y019823D02*
X028056Y019823D01*
X028170Y019823D02*
X028170Y020164D01*
X028283Y020050D01*
X028424Y019993D02*
X028651Y019993D01*
X028651Y020423D02*
X028651Y020650D01*
X028538Y020764D01*
X028424Y020650D01*
X028424Y020423D01*
X028283Y020423D02*
X028056Y020650D01*
X028056Y020707D01*
X028113Y020764D01*
X028226Y020764D01*
X028283Y020707D01*
X028424Y020593D02*
X028651Y020593D01*
X028793Y020764D02*
X029020Y020764D01*
X028906Y020764D02*
X028906Y020423D01*
X029161Y020423D02*
X029161Y020650D01*
X029275Y020764D01*
X029388Y020650D01*
X029388Y020423D01*
X029529Y020480D02*
X029529Y020707D01*
X029586Y020764D01*
X029756Y020764D01*
X029756Y020423D01*
X029586Y020423D01*
X029529Y020480D01*
X029388Y020593D02*
X029161Y020593D01*
X029020Y020967D02*
X028793Y020967D01*
X028651Y021080D02*
X028595Y021023D01*
X028481Y021023D01*
X028424Y021080D01*
X028283Y021080D02*
X028226Y021023D01*
X028113Y021023D01*
X028056Y021080D01*
X028056Y021137D01*
X028113Y021193D01*
X028226Y021193D01*
X028283Y021250D01*
X028283Y021307D01*
X028226Y021364D01*
X028113Y021364D01*
X028056Y021307D01*
X028424Y021307D02*
X028481Y021364D01*
X028595Y021364D01*
X028651Y021307D01*
X028651Y021080D01*
X029161Y021080D02*
X029161Y021307D01*
X029218Y021364D01*
X029388Y021364D01*
X029388Y021023D01*
X029218Y021023D01*
X029161Y021080D01*
X029529Y021080D02*
X029586Y021023D01*
X029700Y021023D01*
X029756Y021080D01*
X029700Y021193D02*
X029586Y021193D01*
X029529Y021137D01*
X029529Y021080D01*
X029700Y021193D02*
X029756Y021250D01*
X029756Y021307D01*
X029700Y021364D01*
X029586Y021364D01*
X029529Y021307D01*
X029529Y021623D02*
X029529Y021964D01*
X029643Y021850D01*
X029756Y021964D01*
X029756Y021623D01*
X029388Y021680D02*
X029388Y021907D01*
X029331Y021964D01*
X029218Y021964D01*
X029161Y021907D01*
X029161Y021680D01*
X029218Y021623D01*
X029331Y021623D01*
X029388Y021680D01*
X029020Y021680D02*
X028963Y021623D01*
X028849Y021623D01*
X028793Y021680D01*
X028793Y021737D01*
X028849Y021793D01*
X028963Y021793D01*
X029020Y021850D01*
X029020Y021907D01*
X028963Y021964D01*
X028849Y021964D01*
X028793Y021907D01*
X028651Y021964D02*
X028538Y021964D01*
X028595Y021964D02*
X028595Y021623D01*
X028651Y021623D02*
X028538Y021623D01*
X028793Y022223D02*
X028963Y022393D01*
X029020Y022337D02*
X028793Y022564D01*
X029020Y022564D02*
X029020Y022223D01*
X029161Y022280D02*
X029218Y022223D01*
X029331Y022223D01*
X029388Y022280D01*
X029388Y022507D01*
X029331Y022564D01*
X029218Y022564D01*
X029161Y022507D01*
X029086Y022823D02*
X028972Y022823D01*
X028916Y022880D01*
X028916Y022937D01*
X028972Y022993D01*
X029086Y022993D01*
X029142Y023050D01*
X029142Y023107D01*
X029086Y023164D01*
X028972Y023164D01*
X028916Y023107D01*
X028774Y023107D02*
X028774Y022880D01*
X028717Y022823D01*
X028604Y022823D01*
X028547Y022880D01*
X028547Y023107D01*
X028604Y023164D01*
X028717Y023164D01*
X028774Y023107D01*
X028793Y023367D02*
X029020Y023367D01*
X029161Y023423D02*
X029161Y023764D01*
X029388Y023764D02*
X029388Y023423D01*
X029275Y023537D01*
X029161Y023423D01*
X029275Y023164D02*
X029388Y023164D01*
X029331Y023164D02*
X029331Y022823D01*
X029275Y022823D02*
X029388Y022823D01*
X029529Y022823D02*
X029529Y023164D01*
X029643Y023050D01*
X029756Y023164D01*
X029756Y022823D01*
X029700Y022564D02*
X029586Y022564D01*
X029529Y022507D01*
X029586Y022393D02*
X029529Y022337D01*
X029529Y022280D01*
X029586Y022223D01*
X029700Y022223D01*
X029756Y022280D01*
X029700Y022393D02*
X029586Y022393D01*
X029700Y022393D02*
X029756Y022450D01*
X029756Y022507D01*
X029700Y022564D01*
X030266Y022564D02*
X030493Y022564D01*
X030493Y022393D01*
X030379Y022450D01*
X030323Y022450D01*
X030266Y022393D01*
X030266Y022280D01*
X030323Y022223D01*
X030436Y022223D01*
X030493Y022280D01*
X030634Y022223D02*
X030861Y022223D01*
X030748Y022223D02*
X030748Y022564D01*
X030861Y022450D01*
X031003Y022507D02*
X031059Y022564D01*
X031230Y022564D01*
X031230Y022223D01*
X031059Y022223D01*
X031003Y022280D01*
X031003Y022507D01*
X031059Y022823D02*
X031003Y022880D01*
X031003Y023107D01*
X031059Y023164D01*
X031230Y023164D01*
X031230Y022823D01*
X031059Y022823D01*
X030861Y022823D02*
X030634Y022823D01*
X030748Y022823D02*
X030748Y023164D01*
X030861Y023050D01*
X030493Y022993D02*
X030323Y023164D01*
X030323Y022823D01*
X030266Y022993D02*
X030493Y022993D01*
X030436Y023423D02*
X030493Y023480D01*
X030436Y023423D02*
X030323Y023423D01*
X030266Y023480D01*
X030266Y023537D01*
X030323Y023593D01*
X030379Y023593D01*
X030323Y023593D02*
X030266Y023650D01*
X030266Y023707D01*
X030323Y023764D01*
X030436Y023764D01*
X030493Y023707D01*
X030748Y023764D02*
X030748Y023423D01*
X030861Y023423D02*
X030634Y023423D01*
X030861Y023650D02*
X030748Y023764D01*
X030748Y024023D02*
X030748Y024364D01*
X030861Y024250D01*
X031003Y024307D02*
X031059Y024364D01*
X031230Y024364D01*
X031230Y024023D01*
X031059Y024023D01*
X031003Y024080D01*
X031003Y024307D01*
X030861Y024023D02*
X030634Y024023D01*
X030493Y024023D02*
X030266Y024250D01*
X030266Y024307D01*
X030323Y024364D01*
X030436Y024364D01*
X030493Y024307D01*
X030493Y024023D02*
X030266Y024023D01*
X029756Y024023D02*
X029529Y024023D01*
X029388Y024080D02*
X029331Y024023D01*
X029218Y024023D01*
X029161Y024080D01*
X029020Y024023D02*
X028849Y024023D01*
X028793Y024080D01*
X028793Y024307D01*
X028849Y024364D01*
X029020Y024364D01*
X029020Y024023D01*
X029161Y024307D02*
X029218Y024364D01*
X029331Y024364D01*
X029388Y024307D01*
X029388Y024080D01*
X029756Y024023D02*
X029756Y024364D01*
X029700Y023764D02*
X029586Y023764D01*
X029529Y023707D01*
X029586Y023593D02*
X029529Y023537D01*
X029529Y023480D01*
X029586Y023423D01*
X029700Y023423D01*
X029756Y023480D01*
X029700Y023593D02*
X029586Y023593D01*
X029700Y023593D02*
X029756Y023650D01*
X029756Y023707D01*
X029700Y023764D01*
X029142Y022880D02*
X029086Y022823D01*
X028595Y023423D02*
X028481Y023423D01*
X028424Y023480D01*
X028595Y023423D02*
X028651Y023480D01*
X028651Y023707D01*
X028595Y023764D01*
X028481Y023764D01*
X028424Y023707D01*
X028424Y023967D02*
X028651Y023967D01*
X028283Y024023D02*
X028283Y024364D01*
X028113Y024364D01*
X028056Y024307D01*
X028056Y024193D01*
X028113Y024137D01*
X028283Y024137D01*
X028170Y024137D02*
X028056Y024023D01*
X027915Y024080D02*
X027858Y024023D01*
X027745Y024023D01*
X027688Y024080D01*
X027688Y024137D01*
X027745Y024193D01*
X027858Y024193D01*
X027915Y024250D01*
X027915Y024307D01*
X027858Y024364D01*
X027745Y024364D01*
X027688Y024307D01*
X027546Y024364D02*
X027320Y024364D01*
X027433Y024364D02*
X027433Y024023D01*
X030266Y021964D02*
X030379Y021907D01*
X030493Y021793D01*
X030323Y021793D01*
X030266Y021737D01*
X030266Y021680D01*
X030323Y021623D01*
X030436Y021623D01*
X030493Y021680D01*
X030493Y021793D01*
X030634Y021623D02*
X030861Y021623D01*
X030748Y021623D02*
X030748Y021964D01*
X030861Y021850D01*
X031003Y021907D02*
X031059Y021964D01*
X031230Y021964D01*
X031230Y021623D01*
X031059Y021623D01*
X031003Y021680D01*
X031003Y021907D01*
X031059Y021364D02*
X031230Y021364D01*
X031230Y021023D01*
X031059Y021023D01*
X031003Y021080D01*
X031003Y021307D01*
X031059Y021364D01*
X030861Y021250D02*
X030748Y021364D01*
X030748Y021023D01*
X030861Y021023D02*
X030634Y021023D01*
X030493Y021023D02*
X030493Y021080D01*
X030266Y021307D01*
X030266Y021364D01*
X030493Y021364D01*
X030691Y020764D02*
X030634Y020707D01*
X030861Y020480D01*
X030804Y020423D01*
X030691Y020423D01*
X030634Y020480D01*
X030634Y020707D01*
X030691Y020764D02*
X030804Y020764D01*
X030861Y020707D01*
X030861Y020480D01*
X031003Y020423D02*
X031003Y020650D01*
X031116Y020764D01*
X031230Y020650D01*
X031230Y020423D01*
X031230Y020593D02*
X031003Y020593D01*
X031116Y020164D02*
X031003Y020050D01*
X031003Y019823D01*
X030861Y019823D02*
X030634Y019823D01*
X030748Y019823D02*
X030748Y020164D01*
X030861Y020050D01*
X031003Y019993D02*
X031230Y019993D01*
X031230Y020050D02*
X031116Y020164D01*
X031230Y020050D02*
X031230Y019823D01*
X031116Y019564D02*
X031003Y019450D01*
X031003Y019223D01*
X030861Y019223D02*
X030634Y019450D01*
X030634Y019507D01*
X030691Y019564D01*
X030804Y019564D01*
X030861Y019507D01*
X031003Y019393D02*
X031230Y019393D01*
X031230Y019450D02*
X031116Y019564D01*
X031230Y019450D02*
X031230Y019223D01*
X031116Y018964D02*
X031003Y018850D01*
X031003Y018623D01*
X030861Y018680D02*
X030804Y018623D01*
X030691Y018623D01*
X030634Y018680D01*
X030634Y018737D01*
X030691Y018793D01*
X030748Y018793D01*
X030691Y018793D02*
X030634Y018850D01*
X030634Y018907D01*
X030691Y018964D01*
X030804Y018964D01*
X030861Y018907D01*
X031003Y018793D02*
X031230Y018793D01*
X031230Y018850D02*
X031116Y018964D01*
X031230Y018850D02*
X031230Y018623D01*
X031116Y018364D02*
X031003Y018250D01*
X031003Y018023D01*
X031003Y018193D02*
X031230Y018193D01*
X031230Y018250D02*
X031116Y018364D01*
X031230Y018250D02*
X031230Y018023D01*
X031116Y017764D02*
X031003Y017650D01*
X031003Y017423D01*
X030861Y017480D02*
X030804Y017423D01*
X030691Y017423D01*
X030634Y017480D01*
X030634Y017593D01*
X030691Y017650D01*
X030748Y017650D01*
X030861Y017593D01*
X030861Y017764D01*
X030634Y017764D01*
X030691Y018023D02*
X030691Y018364D01*
X030861Y018193D01*
X030634Y018193D01*
X031116Y017764D02*
X031230Y017650D01*
X031230Y017423D01*
X031230Y017593D02*
X031003Y017593D01*
X031965Y017986D02*
X032191Y017986D01*
X032191Y018326D01*
X031965Y018326D01*
X032078Y018156D02*
X032191Y018156D01*
X032333Y018099D02*
X032333Y018043D01*
X032390Y017986D01*
X032503Y017986D01*
X032560Y018043D01*
X032503Y018156D02*
X032390Y018156D01*
X032333Y018099D01*
X032333Y018269D02*
X032390Y018326D01*
X032503Y018326D01*
X032560Y018269D01*
X032560Y018213D01*
X032503Y018156D01*
X032701Y017986D02*
X032701Y018326D01*
X032928Y018326D02*
X032701Y017986D01*
X032928Y017986D02*
X032928Y018326D01*
X033070Y018326D02*
X033296Y018326D01*
X033296Y017986D01*
X033070Y017986D01*
X033183Y018156D02*
X033296Y018156D01*
X033438Y018099D02*
X033438Y018043D01*
X033495Y017986D01*
X033608Y017986D01*
X033665Y018043D01*
X033608Y018156D02*
X033495Y018156D01*
X033438Y018099D01*
X033438Y018269D02*
X033495Y018326D01*
X033608Y018326D01*
X033665Y018269D01*
X033665Y018213D01*
X033608Y018156D01*
X033806Y017929D02*
X034033Y017929D01*
X034033Y017726D02*
X034033Y017386D01*
X034174Y017443D02*
X034231Y017386D01*
X034345Y017386D01*
X034401Y017443D01*
X034345Y017556D02*
X034231Y017556D01*
X034174Y017499D01*
X034174Y017443D01*
X034033Y017556D02*
X033806Y017556D01*
X033806Y017726D02*
X033806Y017386D01*
X033665Y017329D02*
X033438Y017329D01*
X033296Y017443D02*
X033240Y017386D01*
X033126Y017386D01*
X033070Y017443D01*
X032928Y017443D02*
X032871Y017386D01*
X032758Y017386D01*
X032701Y017443D01*
X032701Y017499D01*
X032758Y017556D01*
X032871Y017556D01*
X032928Y017613D01*
X032928Y017669D01*
X032871Y017726D01*
X032758Y017726D01*
X032701Y017669D01*
X033070Y017669D02*
X033126Y017726D01*
X033240Y017726D01*
X033296Y017669D01*
X033296Y017443D01*
X034174Y017669D02*
X034231Y017726D01*
X034345Y017726D01*
X034401Y017669D01*
X034401Y017613D01*
X034345Y017556D01*
X034543Y017556D02*
X034770Y017556D01*
X034770Y017613D02*
X034656Y017726D01*
X034543Y017613D01*
X034543Y017386D01*
X034770Y017386D02*
X034770Y017613D01*
X034911Y017386D02*
X035138Y017386D01*
X035138Y017726D01*
X035279Y017726D02*
X035506Y017726D01*
X035506Y017386D01*
X035506Y017556D02*
X035393Y017556D01*
X035393Y017986D02*
X035279Y018099D01*
X035279Y018326D01*
X035138Y018326D02*
X034968Y018326D01*
X034911Y018269D01*
X034911Y018213D01*
X034968Y018156D01*
X035138Y018156D01*
X035138Y017986D02*
X035138Y018326D01*
X034968Y018156D02*
X034911Y018099D01*
X034911Y018043D01*
X034968Y017986D01*
X035138Y017986D01*
X035393Y017986D02*
X035506Y018099D01*
X035506Y018326D01*
X035393Y018586D02*
X035279Y018699D01*
X035279Y018926D01*
X035138Y018926D02*
X035138Y018586D01*
X034968Y018586D01*
X034911Y018643D01*
X034911Y018699D01*
X034968Y018756D01*
X035138Y018756D01*
X035138Y018926D02*
X034968Y018926D01*
X034911Y018869D01*
X034911Y018813D01*
X034968Y018756D01*
X034770Y018756D02*
X034543Y018756D01*
X034543Y018813D02*
X034543Y018586D01*
X034770Y018586D02*
X034770Y018813D01*
X034656Y018926D01*
X034543Y018813D01*
X034401Y018926D02*
X034174Y018926D01*
X034288Y018926D02*
X034288Y018586D01*
X034288Y018326D02*
X034288Y017986D01*
X034543Y017986D02*
X034543Y018213D01*
X034656Y018326D01*
X034770Y018213D01*
X034770Y017986D01*
X034770Y018156D02*
X034543Y018156D01*
X034401Y018326D02*
X034174Y018326D01*
X034033Y018529D02*
X033806Y018529D01*
X033665Y018586D02*
X033438Y018586D01*
X033296Y018586D02*
X033296Y018926D01*
X033070Y018586D01*
X033070Y018926D01*
X033438Y018926D02*
X033665Y018926D01*
X033665Y018586D01*
X033665Y018756D02*
X033551Y018756D01*
X033495Y019186D02*
X033608Y019186D01*
X033665Y019243D01*
X033608Y019356D02*
X033495Y019356D01*
X033438Y019299D01*
X033438Y019243D01*
X033495Y019186D01*
X033608Y019356D02*
X033665Y019413D01*
X033665Y019469D01*
X033608Y019526D01*
X033495Y019526D01*
X033438Y019469D01*
X033561Y019786D02*
X033561Y020126D01*
X033419Y020126D02*
X033192Y020126D01*
X033306Y020126D02*
X033306Y019786D01*
X033561Y019786D02*
X033787Y020126D01*
X033787Y019786D01*
X033920Y019786D02*
X034033Y019786D01*
X033976Y019786D02*
X033976Y020126D01*
X033920Y020126D02*
X034033Y020126D01*
X034174Y020329D02*
X034401Y020329D01*
X034543Y020443D02*
X034543Y020669D01*
X034599Y020726D01*
X034770Y020726D01*
X034770Y020386D01*
X034599Y020386D01*
X034543Y020443D01*
X034599Y020126D02*
X034713Y020126D01*
X034770Y020069D01*
X034770Y019843D01*
X034713Y019786D01*
X034599Y019786D01*
X034543Y019843D01*
X034401Y019729D02*
X034174Y019729D01*
X033976Y019526D02*
X033863Y019526D01*
X033806Y019469D01*
X033976Y019526D02*
X034033Y019469D01*
X034033Y019243D01*
X033976Y019186D01*
X033863Y019186D01*
X033806Y019243D01*
X034174Y019129D02*
X034401Y019129D01*
X034543Y019243D02*
X034543Y019469D01*
X034599Y019526D01*
X034770Y019526D01*
X034770Y019186D01*
X034599Y019186D01*
X034543Y019243D01*
X034911Y019243D02*
X034968Y019186D01*
X035081Y019186D01*
X035138Y019243D01*
X035138Y019469D01*
X035081Y019526D01*
X034968Y019526D01*
X034911Y019469D01*
X035025Y019786D02*
X035025Y020126D01*
X035138Y020126D02*
X034911Y020126D01*
X034968Y020386D02*
X034911Y020443D01*
X034968Y020386D02*
X035081Y020386D01*
X035138Y020443D01*
X035138Y020669D01*
X035081Y020726D01*
X034968Y020726D01*
X034911Y020669D01*
X034911Y020986D02*
X034911Y021213D01*
X035025Y021326D01*
X035138Y021213D01*
X035138Y020986D01*
X035279Y021043D02*
X035336Y020986D01*
X035506Y020986D01*
X035506Y021326D01*
X035336Y021326D01*
X035279Y021269D01*
X035279Y021213D01*
X035336Y021156D01*
X035506Y021156D01*
X035336Y021156D02*
X035279Y021099D01*
X035279Y021043D01*
X035138Y021156D02*
X034911Y021156D01*
X034770Y021326D02*
X034543Y021326D01*
X034656Y021326D02*
X034656Y020986D01*
X034288Y020986D02*
X034288Y021326D01*
X034401Y021326D02*
X034174Y021326D01*
X034174Y021529D02*
X034401Y021529D01*
X034543Y021643D02*
X034543Y021869D01*
X034599Y021926D01*
X034770Y021926D01*
X034770Y021586D01*
X034599Y021586D01*
X034543Y021643D01*
X034911Y021643D02*
X034968Y021586D01*
X035081Y021586D01*
X035138Y021643D01*
X035138Y021869D01*
X035081Y021926D01*
X034968Y021926D01*
X034911Y021869D01*
X034968Y022186D02*
X034911Y022243D01*
X034968Y022186D02*
X035081Y022186D01*
X035138Y022243D01*
X035138Y022469D01*
X035081Y022526D01*
X034968Y022526D01*
X034911Y022469D01*
X034770Y022526D02*
X034770Y022186D01*
X034543Y022186D01*
X034033Y021813D02*
X033920Y021926D01*
X033806Y021813D01*
X033806Y021586D01*
X033665Y021643D02*
X033438Y021869D01*
X033438Y021643D01*
X033495Y021586D01*
X033608Y021586D01*
X033665Y021643D01*
X033665Y021869D01*
X033608Y021926D01*
X033495Y021926D01*
X033438Y021869D01*
X033806Y021756D02*
X034033Y021756D01*
X034033Y021813D02*
X034033Y021586D01*
X033665Y021269D02*
X033665Y021213D01*
X033608Y021156D01*
X033495Y021156D01*
X033438Y021099D01*
X033438Y021043D01*
X033495Y020986D01*
X033608Y020986D01*
X033665Y021043D01*
X033806Y020929D02*
X034033Y020929D01*
X034033Y020726D02*
X033863Y020726D01*
X033806Y020669D01*
X033806Y020613D01*
X033863Y020556D01*
X034033Y020556D01*
X034033Y020386D02*
X034033Y020726D01*
X033863Y020556D02*
X033806Y020499D01*
X033806Y020443D01*
X033863Y020386D01*
X034033Y020386D01*
X033665Y020386D02*
X033665Y020726D01*
X033665Y020386D02*
X033438Y020386D01*
X033183Y020986D02*
X033183Y021326D01*
X033296Y021326D02*
X033070Y021326D01*
X032928Y021213D02*
X032815Y021326D01*
X032701Y021213D01*
X032701Y020986D01*
X032701Y021156D02*
X032928Y021156D01*
X032928Y021213D02*
X032928Y020986D01*
X032446Y020986D02*
X032446Y021326D01*
X032333Y021326D02*
X032560Y021326D01*
X033438Y021269D02*
X033495Y021326D01*
X033608Y021326D01*
X033665Y021269D01*
X034599Y020126D02*
X034543Y020069D01*
X035279Y020069D02*
X035336Y020126D01*
X035506Y020126D01*
X035506Y019786D01*
X035506Y019899D02*
X035336Y019899D01*
X035279Y019956D01*
X035279Y020069D01*
X035393Y019899D02*
X035279Y019786D01*
X035506Y019526D02*
X035506Y019186D01*
X035279Y019186D01*
X035506Y018926D02*
X035506Y018699D01*
X035393Y018586D01*
X036016Y018269D02*
X036243Y018043D01*
X036186Y017986D01*
X036073Y017986D01*
X036016Y018043D01*
X036016Y018269D01*
X036073Y018326D01*
X036186Y018326D01*
X036243Y018269D01*
X036243Y018043D01*
X036384Y017986D02*
X036611Y017986D01*
X036498Y017986D02*
X036498Y018326D01*
X036611Y018213D01*
X036753Y018269D02*
X036809Y018326D01*
X036980Y018326D01*
X036980Y017986D01*
X036809Y017986D01*
X036753Y018043D01*
X036753Y018269D01*
X036809Y018586D02*
X036753Y018643D01*
X036753Y018869D01*
X036809Y018926D01*
X036980Y018926D01*
X036980Y018586D01*
X036809Y018586D01*
X036611Y018643D02*
X036554Y018586D01*
X036441Y018586D01*
X036384Y018643D01*
X036384Y018869D01*
X036441Y018926D01*
X036554Y018926D01*
X036611Y018869D01*
X036611Y018813D01*
X036554Y018756D01*
X036384Y018756D01*
X036441Y019186D02*
X036554Y019186D01*
X036611Y019243D01*
X036611Y019299D01*
X036554Y019356D01*
X036441Y019356D01*
X036384Y019299D01*
X036384Y019243D01*
X036441Y019186D01*
X036441Y019356D02*
X036384Y019413D01*
X036384Y019469D01*
X036441Y019526D01*
X036554Y019526D01*
X036611Y019469D01*
X036611Y019413D01*
X036554Y019356D01*
X036753Y019469D02*
X036809Y019526D01*
X036980Y019526D01*
X036980Y019186D01*
X036809Y019186D01*
X036753Y019243D01*
X036753Y019469D01*
X036809Y019786D02*
X036753Y019843D01*
X036753Y020069D01*
X036809Y020126D01*
X036980Y020126D01*
X036980Y019786D01*
X036809Y019786D01*
X036611Y019786D02*
X036611Y019843D01*
X036384Y020069D01*
X036384Y020126D01*
X036611Y020126D01*
X036554Y020386D02*
X036441Y020386D01*
X036384Y020443D01*
X036384Y020499D01*
X036441Y020556D01*
X036611Y020556D01*
X036611Y020443D01*
X036554Y020386D01*
X036611Y020556D02*
X036498Y020669D01*
X036384Y020726D01*
X036441Y020986D02*
X036554Y020986D01*
X036611Y021043D01*
X036611Y021156D02*
X036498Y021213D01*
X036441Y021213D01*
X036384Y021156D01*
X036384Y021043D01*
X036441Y020986D01*
X036611Y021156D02*
X036611Y021326D01*
X036384Y021326D01*
X036441Y021586D02*
X036441Y021926D01*
X036611Y021756D01*
X036384Y021756D01*
X036753Y021643D02*
X036753Y021869D01*
X036809Y021926D01*
X036980Y021926D01*
X036980Y021586D01*
X036809Y021586D01*
X036753Y021643D01*
X036809Y021326D02*
X036980Y021326D01*
X036980Y020986D01*
X036809Y020986D01*
X036753Y021043D01*
X036753Y021269D01*
X036809Y021326D01*
X036809Y020726D02*
X036980Y020726D01*
X036980Y020386D01*
X036809Y020386D01*
X036753Y020443D01*
X036753Y020669D01*
X036809Y020726D01*
X035506Y020726D02*
X035506Y020386D01*
X035279Y020386D01*
X035279Y021586D02*
X035506Y021586D01*
X035506Y021926D01*
X035450Y022186D02*
X035506Y022243D01*
X035450Y022186D02*
X035336Y022186D01*
X035279Y022243D01*
X035279Y022299D01*
X035336Y022356D01*
X035450Y022356D01*
X035506Y022413D01*
X035506Y022469D01*
X035450Y022526D01*
X035336Y022526D01*
X035279Y022469D01*
X035336Y022786D02*
X035450Y022786D01*
X035506Y022843D01*
X035450Y022956D02*
X035336Y022956D01*
X035279Y022899D01*
X035279Y022843D01*
X035336Y022786D01*
X035138Y022786D02*
X034968Y022786D01*
X034911Y022843D01*
X034911Y023069D01*
X034968Y023126D01*
X035138Y023126D01*
X035138Y022786D01*
X035279Y023069D02*
X035336Y023126D01*
X035450Y023126D01*
X035506Y023069D01*
X035506Y023013D01*
X035450Y022956D01*
X035450Y023386D02*
X035506Y023443D01*
X035450Y023386D02*
X035336Y023386D01*
X035279Y023443D01*
X035279Y023499D01*
X035336Y023556D01*
X035450Y023556D01*
X035506Y023613D01*
X035506Y023669D01*
X035450Y023726D01*
X035336Y023726D01*
X035279Y023669D01*
X035138Y023726D02*
X035138Y023386D01*
X035025Y023499D01*
X034911Y023386D01*
X034911Y023726D01*
X034770Y023929D02*
X034543Y023929D01*
X034401Y023986D02*
X034401Y024326D01*
X034231Y024326D01*
X034174Y024269D01*
X034174Y024213D01*
X034231Y024156D01*
X034401Y024156D01*
X034231Y024156D02*
X034174Y024099D01*
X034174Y024043D01*
X034231Y023986D01*
X034401Y023986D01*
X034288Y023726D02*
X034174Y023613D01*
X034174Y023386D01*
X034174Y023556D02*
X034401Y023556D01*
X034401Y023613D02*
X034401Y023386D01*
X034543Y023329D02*
X034770Y023329D01*
X034656Y023126D02*
X034543Y023013D01*
X034543Y022786D01*
X034543Y022956D02*
X034770Y022956D01*
X034770Y023013D02*
X034656Y023126D01*
X034770Y023013D02*
X034770Y022786D01*
X034401Y023613D02*
X034288Y023726D01*
X034911Y023986D02*
X034911Y024326D01*
X035138Y024326D02*
X035138Y023986D01*
X035025Y024099D01*
X034911Y023986D01*
X035279Y024043D02*
X035336Y023986D01*
X035450Y023986D01*
X035506Y024043D01*
X035450Y024156D02*
X035336Y024156D01*
X035279Y024099D01*
X035279Y024043D01*
X035450Y024156D02*
X035506Y024213D01*
X035506Y024269D01*
X035450Y024326D01*
X035336Y024326D01*
X035279Y024269D01*
X035322Y024586D02*
X035322Y024813D01*
X035152Y024813D01*
X035095Y024756D01*
X035095Y024586D01*
X034954Y024643D02*
X034897Y024586D01*
X034784Y024586D01*
X034727Y024643D01*
X034727Y024756D01*
X034784Y024813D01*
X034897Y024813D01*
X034954Y024756D01*
X034954Y024643D01*
X035454Y024586D02*
X035568Y024586D01*
X035511Y024586D02*
X035511Y024813D01*
X035568Y024813D01*
X035511Y024926D02*
X035511Y024983D01*
X035709Y024813D02*
X035709Y024586D01*
X035879Y024586D01*
X035936Y024643D01*
X035936Y024813D01*
X036077Y024813D02*
X036248Y024813D01*
X036304Y024756D01*
X036304Y024643D01*
X036248Y024586D01*
X036077Y024586D01*
X036077Y024926D01*
X036441Y024813D02*
X036498Y024813D01*
X036611Y024699D01*
X036611Y024586D02*
X036611Y024813D01*
X036753Y024813D02*
X036753Y024586D01*
X036753Y024756D02*
X036980Y024756D01*
X036980Y024813D02*
X036866Y024926D01*
X036753Y024813D01*
X036980Y024813D02*
X036980Y024586D01*
X036980Y024326D02*
X036809Y024326D01*
X036753Y024269D01*
X036753Y024043D01*
X036809Y023986D01*
X036980Y023986D01*
X036980Y024326D01*
X036611Y024269D02*
X036554Y024326D01*
X036441Y024326D01*
X036384Y024269D01*
X036611Y024043D01*
X036554Y023986D01*
X036441Y023986D01*
X036384Y024043D01*
X036384Y024269D01*
X036611Y024269D02*
X036611Y024043D01*
X036498Y023726D02*
X036498Y023386D01*
X036611Y023386D02*
X036384Y023386D01*
X036441Y023126D02*
X036554Y023126D01*
X036611Y023069D01*
X036753Y023069D02*
X036809Y023126D01*
X036980Y023126D01*
X036980Y022786D01*
X036809Y022786D01*
X036753Y022843D01*
X036753Y023069D01*
X036611Y022786D02*
X036384Y023013D01*
X036384Y023069D01*
X036441Y023126D01*
X036384Y022786D02*
X036611Y022786D01*
X036554Y022526D02*
X036441Y022526D01*
X036384Y022469D01*
X036384Y022413D01*
X036441Y022356D01*
X036384Y022299D01*
X036384Y022243D01*
X036441Y022186D01*
X036554Y022186D01*
X036611Y022243D01*
X036753Y022243D02*
X036753Y022469D01*
X036809Y022526D01*
X036980Y022526D01*
X036980Y022186D01*
X036809Y022186D01*
X036753Y022243D01*
X036611Y022469D02*
X036554Y022526D01*
X036498Y022356D02*
X036441Y022356D01*
X036809Y023386D02*
X036753Y023443D01*
X036753Y023669D01*
X036809Y023726D01*
X036980Y023726D01*
X036980Y023386D01*
X036809Y023386D01*
X036611Y023613D02*
X036498Y023726D01*
X034217Y024472D02*
X034217Y024813D01*
X034047Y024813D01*
X033990Y024756D01*
X033990Y024643D01*
X034047Y024586D01*
X034217Y024586D01*
X033849Y024586D02*
X033735Y024586D01*
X033792Y024586D02*
X033792Y024813D01*
X033849Y024813D01*
X033792Y024926D02*
X033792Y024983D01*
X033603Y024813D02*
X033433Y024813D01*
X033376Y024756D01*
X033376Y024586D01*
X033603Y024586D02*
X033603Y024813D01*
X032867Y024813D02*
X032810Y024813D01*
X032753Y024756D01*
X032697Y024813D01*
X032640Y024756D01*
X032640Y024586D01*
X032753Y024586D02*
X032753Y024756D01*
X032867Y024813D02*
X032867Y024586D01*
X032498Y024643D02*
X032442Y024699D01*
X032271Y024699D01*
X032271Y024756D02*
X032271Y024586D01*
X032442Y024586D01*
X032498Y024643D01*
X032442Y024813D02*
X032328Y024813D01*
X032271Y024756D01*
X032130Y024813D02*
X031960Y024813D01*
X031903Y024756D01*
X031903Y024643D01*
X031960Y024586D01*
X032130Y024586D01*
X032130Y024472D02*
X032130Y024813D01*
X031230Y023764D02*
X031059Y023764D01*
X031003Y023707D01*
X031003Y023480D01*
X031059Y023423D01*
X031230Y023423D01*
X031230Y023764D01*
X028283Y020423D02*
X028056Y020423D01*
X030634Y019223D02*
X030861Y019223D01*
X036016Y017386D02*
X036243Y017386D01*
X036129Y017386D02*
X036129Y017726D01*
X036243Y017613D01*
X036384Y017386D02*
X036611Y017386D01*
X036498Y017386D02*
X036498Y017726D01*
X036611Y017613D01*
X036753Y017669D02*
X036809Y017726D01*
X036980Y017726D01*
X036980Y017386D01*
X036809Y017386D01*
X036753Y017443D01*
X036753Y017669D01*
X039523Y025706D02*
X039636Y025706D01*
X039693Y025762D01*
X039693Y025819D01*
X039636Y025876D01*
X039523Y025876D01*
X039466Y025819D01*
X039466Y025762D01*
X039523Y025706D01*
X039523Y025876D02*
X039466Y025932D01*
X039466Y025989D01*
X039523Y026046D01*
X039636Y026046D01*
X039693Y025989D01*
X039693Y025932D01*
X039636Y025876D01*
X039834Y025819D02*
X039891Y025876D01*
X040061Y025876D01*
X040061Y025762D01*
X040004Y025706D01*
X039891Y025706D01*
X039834Y025762D01*
X039834Y025819D01*
X039948Y025989D02*
X040061Y025876D01*
X040203Y025932D02*
X040429Y025706D01*
X040571Y025762D02*
X040628Y025706D01*
X040741Y025706D01*
X040798Y025762D01*
X040571Y025989D01*
X040571Y025762D01*
X040429Y025932D02*
X040203Y025706D01*
X039948Y025989D02*
X039834Y026046D01*
X039891Y026306D02*
X040004Y026306D01*
X040061Y026362D01*
X039834Y026589D01*
X039834Y026362D01*
X039891Y026306D01*
X040061Y026362D02*
X040061Y026589D01*
X040004Y026646D01*
X039891Y026646D01*
X039834Y026589D01*
X039693Y026532D02*
X039466Y026306D01*
X039324Y026476D02*
X039154Y026646D01*
X039154Y026306D01*
X039098Y026476D02*
X039324Y026476D01*
X039466Y026532D02*
X039693Y026306D01*
X039636Y026906D02*
X039523Y026906D01*
X039466Y026962D01*
X039466Y027019D01*
X039523Y027076D01*
X039693Y027076D01*
X039693Y026962D01*
X039636Y026906D01*
X039693Y027076D02*
X039579Y027189D01*
X039466Y027246D01*
X039324Y027189D02*
X039324Y027132D01*
X039268Y027076D01*
X039098Y027076D01*
X039098Y027189D02*
X039154Y027246D01*
X039268Y027246D01*
X039324Y027189D01*
X039098Y027189D02*
X039098Y026962D01*
X039154Y026906D01*
X039268Y026906D01*
X039324Y026962D01*
X039834Y026906D02*
X040061Y027132D01*
X040203Y027189D02*
X040429Y026962D01*
X040373Y026906D01*
X040259Y026906D01*
X040203Y026962D01*
X040203Y027189D01*
X040259Y027246D01*
X040373Y027246D01*
X040429Y027189D01*
X040429Y026962D01*
X040061Y026906D02*
X039834Y027132D01*
X040571Y026589D02*
X040628Y026646D01*
X040741Y026646D01*
X040798Y026589D01*
X040798Y026362D01*
X040571Y026589D01*
X040571Y026362D01*
X040628Y026306D01*
X040741Y026306D01*
X040798Y026362D01*
X040939Y026362D02*
X040996Y026306D01*
X041109Y026306D01*
X041166Y026362D01*
X040939Y026589D01*
X040939Y026362D01*
X041166Y026362D02*
X041166Y026589D01*
X041109Y026646D01*
X040996Y026646D01*
X040939Y026589D01*
X040996Y026906D02*
X040996Y027246D01*
X041166Y027076D01*
X040939Y027076D01*
X041307Y027132D02*
X041534Y026906D01*
X041307Y026906D01*
X041307Y027132D02*
X041307Y027189D01*
X041364Y027246D01*
X041478Y027246D01*
X041534Y027189D01*
X041676Y027076D02*
X041903Y027076D01*
X041733Y027246D01*
X041733Y026906D01*
X041733Y026646D02*
X041846Y026646D01*
X041903Y026589D01*
X041903Y026532D01*
X041846Y026476D01*
X041676Y026476D01*
X041676Y026589D02*
X041733Y026646D01*
X041676Y026589D02*
X041676Y026362D01*
X041733Y026306D01*
X041846Y026306D01*
X041903Y026362D01*
X042044Y026476D02*
X042101Y026419D01*
X042271Y026419D01*
X042271Y026306D02*
X042271Y026646D01*
X042101Y026646D01*
X042044Y026589D01*
X042044Y026476D01*
X042412Y026589D02*
X042469Y026646D01*
X042583Y026646D01*
X042639Y026589D01*
X042639Y026362D01*
X042583Y026306D01*
X042469Y026306D01*
X042412Y026362D01*
X042469Y026046D02*
X042412Y025989D01*
X042412Y025932D01*
X042469Y025876D01*
X042412Y025819D01*
X042412Y025762D01*
X042469Y025706D01*
X042583Y025706D01*
X042639Y025762D01*
X042781Y025762D02*
X042837Y025706D01*
X042951Y025706D01*
X043008Y025762D01*
X042951Y025876D02*
X042837Y025876D01*
X042781Y025819D01*
X042781Y025762D01*
X042951Y025876D02*
X043008Y025932D01*
X043008Y025989D01*
X042951Y026046D01*
X042837Y026046D01*
X042781Y025989D01*
X042639Y025989D02*
X042583Y026046D01*
X042469Y026046D01*
X042469Y025876D02*
X042526Y025876D01*
X042271Y025989D02*
X042214Y026046D01*
X042101Y026046D01*
X042044Y025989D01*
X042044Y025932D01*
X042271Y025706D01*
X042044Y025706D01*
X041903Y025762D02*
X041846Y025706D01*
X041733Y025706D01*
X041676Y025762D01*
X041676Y025819D01*
X041733Y025876D01*
X041789Y025876D01*
X041733Y025876D02*
X041676Y025932D01*
X041676Y025989D01*
X041733Y026046D01*
X041846Y026046D01*
X041903Y025989D01*
X041534Y025932D02*
X041421Y026046D01*
X041421Y025706D01*
X041534Y025706D02*
X041307Y025706D01*
X040798Y025762D02*
X040798Y025989D01*
X040741Y026046D01*
X040628Y026046D01*
X040571Y025989D01*
X041307Y026362D02*
X041364Y026306D01*
X041478Y026306D01*
X041534Y026362D01*
X041534Y026419D01*
X041478Y026476D01*
X041364Y026476D01*
X041307Y026419D01*
X041307Y026362D01*
X041364Y026476D02*
X041307Y026532D01*
X041307Y026589D01*
X041364Y026646D01*
X041478Y026646D01*
X041534Y026589D01*
X041534Y026532D01*
X041478Y026476D01*
X042044Y026962D02*
X042101Y026906D01*
X042214Y026906D01*
X042271Y026962D01*
X042158Y027076D02*
X042101Y027076D01*
X042044Y027019D01*
X042044Y026962D01*
X042101Y027076D02*
X042044Y027132D01*
X042044Y027189D01*
X042101Y027246D01*
X042214Y027246D01*
X042271Y027189D01*
X042412Y027189D02*
X042412Y027076D01*
X042469Y027019D01*
X042639Y027019D01*
X042639Y026906D02*
X042639Y027246D01*
X042469Y027246D01*
X042412Y027189D01*
X042332Y027506D02*
X042162Y027506D01*
X042106Y027562D01*
X042162Y027619D01*
X042276Y027619D01*
X042332Y027676D01*
X042276Y027732D01*
X042106Y027732D01*
X041964Y027676D02*
X041907Y027732D01*
X041737Y027732D01*
X041794Y027619D02*
X041907Y027619D01*
X041964Y027676D01*
X041964Y027506D02*
X041794Y027506D01*
X041737Y027562D01*
X041794Y027619D01*
X041596Y027619D02*
X041369Y027619D01*
X041369Y027676D01*
X041426Y027732D01*
X041539Y027732D01*
X041596Y027676D01*
X041596Y027562D01*
X041539Y027506D01*
X041426Y027506D01*
X041227Y027506D02*
X041057Y027506D01*
X041001Y027562D01*
X041057Y027619D01*
X041171Y027619D01*
X041227Y027676D01*
X041171Y027732D01*
X041001Y027732D01*
X040859Y027732D02*
X040859Y027676D01*
X040802Y027676D01*
X040802Y027732D01*
X040859Y027732D01*
X040859Y027562D02*
X040859Y027506D01*
X040802Y027506D01*
X040802Y027562D01*
X040859Y027562D01*
X042474Y027619D02*
X042701Y027619D01*
X042701Y027562D02*
X042701Y027676D01*
X042644Y027732D01*
X042531Y027732D01*
X042474Y027676D01*
X042474Y027619D01*
X042531Y027506D02*
X042644Y027506D01*
X042701Y027562D01*
X042837Y027732D02*
X042894Y027732D01*
X043008Y027619D01*
X043008Y027506D02*
X043008Y027732D01*
X043149Y027732D02*
X043319Y027732D01*
X043376Y027676D01*
X043376Y027562D01*
X043319Y027506D01*
X043149Y027506D01*
X043149Y027846D01*
X043517Y027846D02*
X043517Y027506D01*
X043688Y027506D01*
X043744Y027562D01*
X043744Y027676D01*
X043688Y027732D01*
X043517Y027732D01*
X043886Y027732D02*
X043886Y027506D01*
X043886Y027676D02*
X044113Y027676D01*
X044113Y027732D02*
X043999Y027846D01*
X043886Y027732D01*
X044113Y027732D02*
X044113Y027506D01*
X044056Y027246D02*
X044113Y027189D01*
X044113Y026962D01*
X044056Y026906D01*
X043942Y026906D01*
X043886Y026962D01*
X043886Y027189D02*
X043942Y027246D01*
X044056Y027246D01*
X044254Y027189D02*
X044311Y027246D01*
X044481Y027246D01*
X044481Y026906D01*
X044311Y026906D01*
X044254Y026962D01*
X044254Y027189D01*
X044622Y027132D02*
X044622Y026906D01*
X044622Y027076D02*
X044849Y027076D01*
X044849Y027132D02*
X044736Y027246D01*
X044622Y027132D01*
X044849Y027132D02*
X044849Y026906D01*
X044849Y026646D02*
X044622Y026646D01*
X044736Y026646D02*
X044736Y026306D01*
X044481Y026362D02*
X044481Y026476D01*
X044424Y026532D01*
X044311Y026532D01*
X044254Y026476D01*
X044254Y026419D01*
X044481Y026419D01*
X044481Y026362D02*
X044424Y026306D01*
X044311Y026306D01*
X044113Y026306D02*
X044113Y026532D01*
X044056Y026532D01*
X043999Y026476D01*
X043942Y026532D01*
X043886Y026476D01*
X043886Y026306D01*
X043999Y026306D02*
X043999Y026476D01*
X043744Y026532D02*
X043574Y026532D01*
X043517Y026476D01*
X043517Y026362D01*
X043574Y026306D01*
X043744Y026306D01*
X043744Y026192D02*
X043744Y026532D01*
X043376Y026906D02*
X043376Y027246D01*
X043262Y027132D01*
X043149Y027246D01*
X043149Y026906D01*
X043008Y026962D02*
X042951Y026906D01*
X042837Y026906D01*
X042781Y026962D01*
X043008Y026962D02*
X043008Y027189D01*
X042951Y027246D01*
X042837Y027246D01*
X042781Y027189D01*
X042781Y026646D02*
X042781Y026306D01*
X043008Y026306D02*
X043008Y026646D01*
X042894Y026532D01*
X042781Y026646D01*
X043206Y026046D02*
X043149Y025989D01*
X043149Y025762D01*
X043206Y025706D01*
X043376Y025706D01*
X043376Y026046D01*
X043206Y026046D01*
X043886Y025989D02*
X043942Y026046D01*
X044056Y026046D01*
X044113Y025989D01*
X044113Y025762D01*
X044056Y025706D01*
X043942Y025706D01*
X043886Y025762D01*
X044254Y026046D02*
X044481Y026046D01*
X044367Y026046D02*
X044367Y025706D01*
X044622Y025706D02*
X044736Y025819D01*
X044679Y025819D02*
X044849Y025819D01*
X044849Y025706D02*
X044849Y026046D01*
X044679Y026046D01*
X044622Y025989D01*
X044622Y025876D01*
X044679Y025819D01*
X045359Y025876D02*
X045586Y025876D01*
X045586Y026476D02*
X045359Y026476D01*
X045359Y027076D02*
X045586Y027076D01*
X045586Y027506D02*
X045359Y027506D01*
X045472Y027506D02*
X045472Y027846D01*
X045586Y027732D01*
X045217Y027789D02*
X045161Y027846D01*
X045047Y027846D01*
X044991Y027789D01*
X044991Y027732D01*
X045217Y027506D01*
X044991Y027506D01*
X044849Y027562D02*
X044792Y027506D01*
X044622Y027506D01*
X044622Y027732D02*
X044792Y027732D01*
X044849Y027676D01*
X044849Y027562D01*
X038956Y026589D02*
X038956Y026532D01*
X038899Y026476D01*
X038786Y026476D01*
X038729Y026419D01*
X038729Y026362D01*
X038786Y026306D01*
X038899Y026306D01*
X038956Y026362D01*
X038956Y026419D01*
X038899Y026476D01*
X038786Y026476D02*
X038729Y026532D01*
X038729Y026589D01*
X038786Y026646D01*
X038899Y026646D01*
X038956Y026589D01*
D12*
X037508Y035047D02*
X037508Y035440D01*
X037705Y035244D02*
X037311Y035244D01*
X037060Y035440D02*
X036962Y035539D01*
X036765Y035539D01*
X036666Y035440D01*
X036666Y035342D01*
X036765Y035244D01*
X036666Y035145D01*
X036666Y035047D01*
X036765Y034948D01*
X036962Y034948D01*
X037060Y035047D01*
X036863Y035244D02*
X036765Y035244D01*
X030705Y035244D02*
X030311Y035244D01*
X030508Y035440D02*
X030508Y035047D01*
X030060Y034948D02*
X029666Y035342D01*
X029666Y035440D01*
X029765Y035539D01*
X029962Y035539D01*
X030060Y035440D01*
X030060Y034948D02*
X029666Y034948D01*
X023605Y035244D02*
X023211Y035244D01*
X022960Y035342D02*
X022763Y035539D01*
X022763Y034948D01*
X022960Y034948D02*
X022566Y034948D01*
X023408Y035047D02*
X023408Y035440D01*
X043666Y035244D02*
X044060Y035244D01*
X043765Y035539D01*
X043765Y034948D01*
X044311Y035244D02*
X044705Y035244D01*
X044508Y035440D02*
X044508Y035047D01*
D13*
X048998Y030963D02*
X049091Y030963D01*
X049044Y030963D02*
X049044Y030823D01*
X049145Y030823D02*
X049238Y030823D01*
X049238Y030963D01*
X049145Y030963D01*
X049192Y030893D02*
X049238Y030893D01*
X049292Y030870D02*
X049292Y030847D01*
X049316Y030823D01*
X049362Y030823D01*
X049386Y030847D01*
X049362Y030893D02*
X049316Y030893D01*
X049292Y030870D01*
X049292Y030940D02*
X049316Y030963D01*
X049362Y030963D01*
X049386Y030940D01*
X049386Y030917D01*
X049362Y030893D01*
X049440Y030823D02*
X049533Y030823D01*
X049533Y030963D01*
X049440Y030963D01*
X049486Y030893D02*
X049533Y030893D01*
X049587Y030893D02*
X049610Y030870D01*
X049680Y030870D01*
X049634Y030870D02*
X049587Y030823D01*
X049587Y030893D02*
X049587Y030940D01*
X049610Y030963D01*
X049680Y030963D01*
X049680Y030823D01*
X049510Y029963D02*
X049533Y029940D01*
X049533Y029917D01*
X049510Y029893D01*
X049463Y029893D01*
X049440Y029870D01*
X049440Y029847D01*
X049463Y029823D01*
X049510Y029823D01*
X049533Y029847D01*
X049510Y029963D02*
X049463Y029963D01*
X049440Y029940D01*
X049386Y029940D02*
X049386Y029847D01*
X049362Y029823D01*
X049316Y029823D01*
X049292Y029847D01*
X049238Y029870D02*
X049145Y029963D01*
X049238Y029963D02*
X049238Y029823D01*
X049215Y029893D02*
X049145Y029823D01*
X049292Y029940D02*
X049316Y029963D01*
X049362Y029963D01*
X049386Y029940D01*
X049388Y028963D02*
X049435Y028963D01*
X049411Y028963D02*
X049411Y028823D01*
X049388Y028823D02*
X049435Y028823D01*
X049489Y028823D02*
X049489Y028963D01*
X049535Y028917D01*
X049582Y028963D01*
X049582Y028823D01*
X049337Y028847D02*
X049313Y028823D01*
X049267Y028823D01*
X049243Y028847D01*
X049243Y028870D01*
X049267Y028893D01*
X049313Y028893D01*
X049337Y028917D01*
X049337Y028940D01*
X049313Y028963D01*
X049267Y028963D01*
X049243Y028940D01*
X049189Y028940D02*
X049189Y028847D01*
X049166Y028823D01*
X049119Y028823D01*
X049096Y028847D01*
X049096Y028940D01*
X049119Y028963D01*
X049166Y028963D01*
X049189Y028940D01*
X046691Y028315D02*
X046668Y028338D01*
X046621Y028338D01*
X046598Y028315D01*
X046598Y028292D01*
X046621Y028268D01*
X046598Y028245D01*
X046598Y028222D01*
X046621Y028198D01*
X046668Y028198D01*
X046691Y028222D01*
X046645Y028268D02*
X046621Y028268D01*
X046544Y028245D02*
X046497Y028198D01*
X046451Y028245D01*
X046451Y028338D01*
X046397Y028315D02*
X046373Y028338D01*
X046327Y028338D01*
X046303Y028315D01*
X046303Y028292D01*
X046327Y028268D01*
X046303Y028245D01*
X046303Y028222D01*
X046327Y028198D01*
X046373Y028198D01*
X046397Y028222D01*
X046350Y028268D02*
X046327Y028268D01*
X046250Y028175D02*
X046156Y028175D01*
X046102Y028198D02*
X046009Y028198D01*
X045955Y028198D02*
X045955Y028338D01*
X045861Y028198D01*
X045861Y028338D01*
X046009Y028338D02*
X046102Y028338D01*
X046102Y028198D01*
X046102Y028268D02*
X046055Y028268D01*
X046544Y028245D02*
X046544Y028338D01*
X051824Y028823D02*
X051824Y028963D01*
X051917Y028963D02*
X051824Y028823D01*
X051917Y028823D02*
X051917Y028963D01*
X051968Y028963D02*
X052015Y028963D01*
X051992Y028963D02*
X051992Y028823D01*
X052015Y028823D02*
X051968Y028823D01*
X052069Y028800D02*
X052162Y028800D01*
X052216Y028847D02*
X052240Y028823D01*
X052286Y028823D01*
X052310Y028847D01*
X052286Y028893D02*
X052240Y028893D01*
X052216Y028870D01*
X052216Y028847D01*
X052286Y028893D02*
X052310Y028917D01*
X052310Y028940D01*
X052286Y028963D01*
X052240Y028963D01*
X052216Y028940D01*
X052364Y028940D02*
X052364Y028917D01*
X052387Y028893D01*
X052457Y028893D01*
X052511Y028870D02*
X052511Y028963D01*
X052457Y028963D02*
X052387Y028963D01*
X052364Y028940D01*
X052387Y028893D02*
X052364Y028870D01*
X052364Y028847D01*
X052387Y028823D01*
X052457Y028823D01*
X052457Y028963D01*
X052511Y028870D02*
X052558Y028823D01*
X052604Y028870D01*
X052604Y028963D01*
X052457Y029823D02*
X052457Y029963D01*
X052410Y029917D01*
X052364Y029963D01*
X052364Y029823D01*
X052310Y029847D02*
X052286Y029823D01*
X052240Y029823D01*
X052216Y029847D01*
X052216Y029940D01*
X052240Y029963D01*
X052286Y029963D01*
X052310Y029940D01*
X052310Y029847D01*
X052162Y029847D02*
X052139Y029823D01*
X052092Y029823D01*
X052069Y029847D01*
X052069Y029870D01*
X052092Y029893D01*
X052139Y029893D01*
X052162Y029917D01*
X052162Y029940D01*
X052139Y029963D01*
X052092Y029963D01*
X052069Y029940D01*
X052015Y029963D02*
X051968Y029963D01*
X051992Y029963D02*
X051992Y029823D01*
X052015Y029823D02*
X051968Y029823D01*
X052043Y030823D02*
X052020Y030847D01*
X052020Y030940D01*
X052043Y030963D01*
X052113Y030963D01*
X052113Y030823D01*
X052043Y030823D01*
X052167Y030823D02*
X052167Y030963D01*
X052261Y030963D02*
X052167Y030823D01*
X052261Y030823D02*
X052261Y030963D01*
X052315Y030940D02*
X052338Y030963D01*
X052385Y030963D01*
X052408Y030940D01*
X052408Y030847D01*
X052385Y030823D01*
X052338Y030823D01*
X052315Y030847D01*
X052315Y030893D01*
X052361Y030893D01*
X043695Y023815D02*
X043671Y023838D01*
X043625Y023838D01*
X043601Y023815D01*
X043601Y023792D01*
X043625Y023768D01*
X043601Y023745D01*
X043601Y023722D01*
X043625Y023698D01*
X043671Y023698D01*
X043695Y023722D01*
X043648Y023768D02*
X043625Y023768D01*
X043548Y023722D02*
X043524Y023722D01*
X043524Y023698D01*
X043548Y023698D01*
X043548Y023722D01*
X043474Y023722D02*
X043450Y023698D01*
X043404Y023698D01*
X043380Y023722D01*
X043380Y023745D01*
X043404Y023768D01*
X043427Y023768D01*
X043404Y023768D02*
X043380Y023792D01*
X043380Y023815D01*
X043404Y023838D01*
X043450Y023838D01*
X043474Y023815D01*
X043327Y023838D02*
X043327Y023745D01*
X043280Y023698D01*
X043233Y023745D01*
X043233Y023838D01*
X041971Y023815D02*
X041971Y023722D01*
X041947Y023698D01*
X041900Y023698D01*
X041877Y023722D01*
X041877Y023768D01*
X041924Y023768D01*
X041971Y023815D02*
X041947Y023838D01*
X041900Y023838D01*
X041877Y023815D01*
X041823Y023838D02*
X041730Y023698D01*
X041730Y023838D01*
X041676Y023838D02*
X041606Y023838D01*
X041582Y023815D01*
X041582Y023722D01*
X041606Y023698D01*
X041676Y023698D01*
X041676Y023838D01*
X041823Y023838D02*
X041823Y023698D01*
X040736Y023745D02*
X040689Y023698D01*
X040643Y023745D01*
X040643Y023838D01*
X040589Y023838D02*
X040519Y023838D01*
X040495Y023815D01*
X040495Y023792D01*
X040519Y023768D01*
X040589Y023768D01*
X040589Y023698D02*
X040519Y023698D01*
X040495Y023722D01*
X040495Y023745D01*
X040519Y023768D01*
X040441Y023768D02*
X040348Y023768D01*
X040348Y023792D02*
X040348Y023698D01*
X040441Y023698D02*
X040441Y023792D01*
X040395Y023838D01*
X040348Y023792D01*
X040294Y023838D02*
X040201Y023838D01*
X040247Y023838D02*
X040247Y023698D01*
X040147Y023675D02*
X040053Y023675D01*
X040000Y023722D02*
X039976Y023698D01*
X039929Y023698D01*
X039906Y023722D01*
X039906Y023745D01*
X039929Y023768D01*
X039976Y023768D01*
X040000Y023792D01*
X040000Y023815D01*
X039976Y023838D01*
X039929Y023838D01*
X039906Y023815D01*
X039852Y023838D02*
X039852Y023698D01*
X039759Y023698D01*
X039705Y023698D02*
X039705Y023838D01*
X039611Y023698D01*
X039611Y023838D01*
X039558Y023815D02*
X039558Y023792D01*
X039534Y023768D01*
X039487Y023768D01*
X039464Y023745D01*
X039464Y023722D01*
X039487Y023698D01*
X039534Y023698D01*
X039558Y023722D01*
X039558Y023815D02*
X039534Y023838D01*
X039487Y023838D01*
X039464Y023815D01*
X039410Y023838D02*
X039410Y023698D01*
X039317Y023698D01*
X039364Y023768D02*
X039410Y023768D01*
X039410Y023838D02*
X039317Y023838D01*
X039759Y023838D02*
X039852Y023838D01*
X039852Y023768D02*
X039805Y023768D01*
X040589Y023698D02*
X040589Y023838D01*
X040736Y023838D02*
X040736Y023745D01*
X038191Y023698D02*
X038098Y023698D01*
X038044Y023722D02*
X038021Y023698D01*
X037974Y023698D01*
X037951Y023722D01*
X037897Y023698D02*
X037827Y023698D01*
X037803Y023722D01*
X037803Y023815D01*
X037827Y023838D01*
X037897Y023838D01*
X037897Y023698D01*
X037951Y023815D02*
X037974Y023838D01*
X038021Y023838D01*
X038044Y023815D01*
X038044Y023722D01*
X038191Y023698D02*
X038191Y023838D01*
X037750Y023675D02*
X037656Y023675D01*
X037602Y023698D02*
X037532Y023698D01*
X037509Y023722D01*
X037509Y023745D01*
X037532Y023768D01*
X037602Y023768D01*
X037602Y023698D02*
X037602Y023838D01*
X037532Y023838D01*
X037509Y023815D01*
X037509Y023792D01*
X037532Y023768D01*
X037455Y023698D02*
X037361Y023698D01*
X037455Y023698D02*
X037455Y023838D01*
X045060Y019003D02*
X045083Y019026D01*
X045130Y019026D01*
X045154Y019003D01*
X045154Y018979D01*
X045130Y018956D01*
X045083Y018956D01*
X045060Y018933D01*
X045060Y018909D01*
X045083Y018886D01*
X045130Y018886D01*
X045154Y018909D01*
X045207Y018909D02*
X045231Y018886D01*
X045278Y018886D01*
X045301Y018909D01*
X045301Y019003D01*
X045278Y019026D01*
X045231Y019026D01*
X045207Y019003D01*
X045355Y018862D02*
X045448Y018862D01*
X045502Y018909D02*
X045502Y019003D01*
X045525Y019026D01*
X045596Y019026D01*
X045596Y018886D01*
X045525Y018886D01*
X045502Y018909D01*
X045649Y018909D02*
X045673Y018886D01*
X045719Y018886D01*
X045743Y018909D01*
X045719Y018956D02*
X045673Y018956D01*
X045649Y018933D01*
X045649Y018909D01*
X045719Y018956D02*
X045743Y018979D01*
X045743Y019003D01*
X045719Y019026D01*
X045673Y019026D01*
X045649Y019003D01*
X049134Y019963D02*
X049227Y019963D01*
X049180Y019963D02*
X049180Y019823D01*
X049281Y019823D02*
X049281Y019917D01*
X049328Y019963D01*
X049375Y019917D01*
X049375Y019823D01*
X049428Y019847D02*
X049452Y019823D01*
X049522Y019823D01*
X049522Y019963D01*
X049452Y019963D01*
X049428Y019940D01*
X049428Y019917D01*
X049452Y019893D01*
X049522Y019893D01*
X049576Y019870D02*
X049576Y019963D01*
X049576Y019870D02*
X049622Y019823D01*
X049669Y019870D01*
X049669Y019963D01*
X049452Y019893D02*
X049428Y019870D01*
X049428Y019847D01*
X049375Y019893D02*
X049281Y019893D01*
X050502Y018528D02*
X050642Y018528D01*
X050642Y018435D02*
X050502Y018528D01*
X050502Y018435D02*
X050642Y018435D01*
X050642Y018383D02*
X050642Y018336D01*
X050642Y018360D02*
X050502Y018360D01*
X050502Y018383D02*
X050502Y018336D01*
X050479Y018282D02*
X050479Y018189D01*
X050525Y018135D02*
X050502Y018112D01*
X050502Y018065D01*
X050525Y018042D01*
X050572Y018065D02*
X050572Y018112D01*
X050549Y018135D01*
X050525Y018135D01*
X050572Y018065D02*
X050595Y018042D01*
X050619Y018042D01*
X050642Y018065D01*
X050642Y018112D01*
X050619Y018135D01*
X050642Y017988D02*
X050525Y017988D01*
X050502Y017964D01*
X050502Y017918D01*
X050525Y017894D01*
X050642Y017894D01*
X050619Y017840D02*
X050595Y017840D01*
X050572Y017817D01*
X050572Y017747D01*
X050549Y017693D02*
X050642Y017693D01*
X050642Y017747D02*
X050642Y017817D01*
X050619Y017840D01*
X050572Y017817D02*
X050549Y017840D01*
X050525Y017840D01*
X050502Y017817D01*
X050502Y017747D01*
X050642Y017747D01*
X050549Y017693D02*
X050502Y017646D01*
X050549Y017600D01*
X050642Y017600D01*
X050655Y022323D02*
X050725Y022323D01*
X050725Y022463D01*
X050655Y022463D01*
X050632Y022440D01*
X050632Y022417D01*
X050655Y022393D01*
X050725Y022393D01*
X050655Y022393D02*
X050632Y022370D01*
X050632Y022347D01*
X050655Y022323D01*
X050578Y022323D02*
X050578Y022417D01*
X050531Y022463D01*
X050484Y022417D01*
X050484Y022323D01*
X050484Y022393D02*
X050578Y022393D01*
X050430Y022463D02*
X050337Y022463D01*
X050384Y022463D02*
X050384Y022323D01*
X050236Y022323D02*
X050236Y022463D01*
X050190Y022463D02*
X050283Y022463D01*
X050136Y022300D02*
X050042Y022300D01*
X049988Y022347D02*
X049965Y022323D01*
X049918Y022323D01*
X049895Y022347D01*
X049895Y022370D01*
X049918Y022393D01*
X049965Y022393D01*
X049988Y022417D01*
X049988Y022440D01*
X049965Y022463D01*
X049918Y022463D01*
X049895Y022440D01*
X049841Y022463D02*
X049748Y022463D01*
X049794Y022463D02*
X049794Y022323D01*
X049694Y022323D02*
X049694Y022417D01*
X049647Y022463D01*
X049600Y022417D01*
X049600Y022323D01*
X049600Y022393D02*
X049694Y022393D01*
X049546Y022463D02*
X049453Y022463D01*
X049500Y022463D02*
X049500Y022323D01*
X038839Y017713D02*
X038745Y017713D01*
X038691Y017713D02*
X038691Y017573D01*
X038598Y017573D01*
X038544Y017573D02*
X038544Y017667D01*
X038497Y017713D01*
X038451Y017667D01*
X038451Y017573D01*
X038397Y017597D02*
X038373Y017573D01*
X038327Y017573D01*
X038303Y017597D01*
X038303Y017620D01*
X038327Y017643D01*
X038373Y017643D01*
X038397Y017667D01*
X038397Y017690D01*
X038373Y017713D01*
X038327Y017713D01*
X038303Y017690D01*
X038250Y017713D02*
X038250Y017573D01*
X038250Y017643D02*
X038156Y017643D01*
X038156Y017713D02*
X038156Y017573D01*
X038102Y017550D02*
X038009Y017550D01*
X037955Y017597D02*
X037932Y017573D01*
X037885Y017573D01*
X037861Y017597D01*
X037808Y017597D02*
X037784Y017573D01*
X037737Y017573D01*
X037714Y017597D01*
X037714Y017620D01*
X037737Y017643D01*
X037784Y017643D01*
X037808Y017667D01*
X037808Y017690D01*
X037784Y017713D01*
X037737Y017713D01*
X037714Y017690D01*
X037861Y017690D02*
X037885Y017713D01*
X037932Y017713D01*
X037955Y017690D01*
X037955Y017597D01*
X038451Y017643D02*
X038544Y017643D01*
X038792Y017643D02*
X038839Y017643D01*
X038839Y017573D02*
X038839Y017713D01*
X023794Y022183D02*
X023747Y022136D01*
X023701Y022183D01*
X023701Y022276D01*
X023647Y022276D02*
X023577Y022276D01*
X023553Y022253D01*
X023553Y022229D01*
X023577Y022206D01*
X023647Y022206D01*
X023647Y022136D02*
X023647Y022276D01*
X023577Y022206D02*
X023553Y022183D01*
X023553Y022159D01*
X023577Y022136D01*
X023647Y022136D01*
X023500Y022159D02*
X023476Y022136D01*
X023429Y022136D01*
X023406Y022159D01*
X023406Y022276D01*
X023352Y022253D02*
X023329Y022276D01*
X023282Y022276D01*
X023259Y022253D01*
X023282Y022206D02*
X023259Y022183D01*
X023259Y022159D01*
X023282Y022136D01*
X023329Y022136D01*
X023352Y022159D01*
X023329Y022206D02*
X023282Y022206D01*
X023329Y022206D02*
X023352Y022229D01*
X023352Y022253D01*
X023500Y022276D02*
X023500Y022159D01*
X023794Y022183D02*
X023794Y022276D01*
X020066Y024722D02*
X020043Y024698D01*
X019996Y024698D01*
X019973Y024722D01*
X019973Y024838D01*
X019919Y024815D02*
X019919Y024792D01*
X019896Y024768D01*
X019849Y024768D01*
X019826Y024745D01*
X019826Y024722D01*
X019849Y024698D01*
X019896Y024698D01*
X019919Y024722D01*
X019919Y024815D02*
X019896Y024838D01*
X019849Y024838D01*
X019826Y024815D01*
X019772Y024838D02*
X019702Y024838D01*
X019678Y024815D01*
X019678Y024792D01*
X019702Y024768D01*
X019772Y024768D01*
X019772Y024698D02*
X019702Y024698D01*
X019678Y024722D01*
X019678Y024745D01*
X019702Y024768D01*
X019625Y024745D02*
X019578Y024698D01*
X019531Y024745D01*
X019531Y024838D01*
X019477Y024815D02*
X019477Y024722D01*
X019454Y024698D01*
X019407Y024698D01*
X019384Y024722D01*
X019330Y024722D02*
X019307Y024698D01*
X019260Y024698D01*
X019236Y024722D01*
X019236Y024815D02*
X019260Y024838D01*
X019307Y024838D01*
X019330Y024815D01*
X019330Y024722D01*
X019384Y024815D02*
X019407Y024838D01*
X019454Y024838D01*
X019477Y024815D01*
X019625Y024838D02*
X019625Y024745D01*
X019772Y024698D02*
X019772Y024838D01*
X020066Y024838D02*
X020066Y024722D01*
X022598Y026886D02*
X022598Y027026D01*
X022504Y027026D01*
X022551Y026956D02*
X022598Y026956D01*
X022652Y027026D02*
X022745Y027026D01*
X022745Y026886D01*
X022799Y026909D02*
X022799Y027003D01*
X022822Y027026D01*
X022869Y027026D01*
X022892Y027003D01*
X022892Y026909D01*
X022869Y026886D01*
X022822Y026886D01*
X022799Y026909D01*
X022745Y026956D02*
X022698Y026956D01*
X022946Y027026D02*
X023040Y026886D01*
X023094Y026886D02*
X023094Y027026D01*
X023187Y027026D02*
X023094Y026886D01*
X023187Y026886D02*
X023187Y027026D01*
X023241Y027003D02*
X023264Y027026D01*
X023311Y027026D01*
X023334Y027003D01*
X023334Y026909D01*
X023311Y026886D01*
X023264Y026886D01*
X023241Y026909D01*
X023241Y027003D01*
X023388Y026862D02*
X023482Y026862D01*
X023536Y026886D02*
X023582Y026933D01*
X023559Y026933D02*
X023629Y026933D01*
X023629Y026886D02*
X023629Y027026D01*
X023559Y027026D01*
X023536Y027003D01*
X023536Y026956D01*
X023559Y026933D01*
X023683Y026886D02*
X023683Y027026D01*
X023776Y027026D02*
X023776Y026886D01*
X023730Y026933D01*
X023683Y026886D01*
X023830Y026956D02*
X023854Y026933D01*
X023924Y026933D01*
X023924Y026886D02*
X023924Y027026D01*
X023854Y027026D01*
X023830Y027003D01*
X023830Y026956D01*
X023809Y027323D02*
X023856Y027323D01*
X023879Y027347D01*
X023856Y027393D02*
X023809Y027393D01*
X023786Y027370D01*
X023786Y027347D01*
X023809Y027323D01*
X023732Y027323D02*
X023685Y027370D01*
X023638Y027323D01*
X023638Y027463D01*
X023732Y027463D02*
X023732Y027323D01*
X023786Y027440D02*
X023809Y027463D01*
X023856Y027463D01*
X023879Y027440D01*
X023879Y027417D01*
X023856Y027393D01*
X023584Y027300D02*
X023491Y027300D01*
X023437Y027323D02*
X023437Y027463D01*
X023367Y027463D01*
X023344Y027440D01*
X023344Y027393D01*
X023367Y027370D01*
X023437Y027370D01*
X023290Y027323D02*
X023243Y027370D01*
X023196Y027323D01*
X023196Y027463D01*
X023142Y027463D02*
X023072Y027463D01*
X023049Y027440D01*
X023049Y027393D01*
X023072Y027370D01*
X023142Y027370D01*
X023096Y027370D02*
X023049Y027323D01*
X023142Y027323D02*
X023142Y027463D01*
X023290Y027463D02*
X023290Y027323D01*
X021408Y028847D02*
X021385Y028823D01*
X021338Y028823D01*
X021315Y028847D01*
X021315Y028870D01*
X021338Y028893D01*
X021385Y028893D01*
X021408Y028917D01*
X021408Y028940D01*
X021385Y028963D01*
X021338Y028963D01*
X021315Y028940D01*
X021261Y028963D02*
X021191Y028963D01*
X021167Y028940D01*
X021167Y028847D01*
X021191Y028823D01*
X021261Y028823D01*
X021261Y028963D01*
X021113Y028917D02*
X021067Y028963D01*
X021020Y028917D01*
X021020Y028823D01*
X021020Y028893D02*
X021113Y028893D01*
X021113Y028917D02*
X021113Y028823D01*
X021113Y029823D02*
X021113Y029917D01*
X021067Y029963D01*
X021020Y029917D01*
X021020Y029823D01*
X020966Y029823D02*
X020873Y029917D01*
X020873Y029940D01*
X020896Y029963D01*
X020943Y029963D01*
X020966Y029940D01*
X021020Y029893D02*
X021113Y029893D01*
X021167Y029963D02*
X021261Y029963D01*
X021214Y029963D02*
X021214Y029823D01*
X021315Y029823D02*
X021315Y029917D01*
X021361Y029963D01*
X021408Y029917D01*
X021408Y029823D01*
X021462Y029847D02*
X021462Y029940D01*
X021485Y029963D01*
X021555Y029963D01*
X021555Y029823D01*
X021485Y029823D01*
X021462Y029847D01*
X021408Y029893D02*
X021315Y029893D01*
X020966Y029823D02*
X020873Y029823D01*
X021030Y030823D02*
X020983Y030870D01*
X020983Y030963D01*
X021077Y030963D02*
X021077Y030870D01*
X021030Y030823D01*
X021130Y030847D02*
X021154Y030823D01*
X021200Y030823D01*
X021224Y030847D01*
X021274Y030847D02*
X021274Y030823D01*
X021298Y030823D01*
X021298Y030847D01*
X021274Y030847D01*
X021351Y030847D02*
X021375Y030823D01*
X021421Y030823D01*
X021445Y030847D01*
X021398Y030893D02*
X021375Y030893D01*
X021351Y030870D01*
X021351Y030847D01*
X021375Y030893D02*
X021351Y030917D01*
X021351Y030940D01*
X021375Y030963D01*
X021421Y030963D01*
X021445Y030940D01*
X021224Y030940D02*
X021200Y030963D01*
X021154Y030963D01*
X021130Y030940D01*
X021130Y030917D01*
X021154Y030893D01*
X021130Y030870D01*
X021130Y030847D01*
X021154Y030893D02*
X021177Y030893D01*
X018533Y030847D02*
X018510Y030823D01*
X018463Y030823D01*
X018440Y030847D01*
X018440Y030893D01*
X018486Y030893D01*
X018533Y030847D02*
X018533Y030940D01*
X018510Y030963D01*
X018463Y030963D01*
X018440Y030940D01*
X018386Y030963D02*
X018292Y030823D01*
X018292Y030963D01*
X018238Y030963D02*
X018168Y030963D01*
X018145Y030940D01*
X018145Y030847D01*
X018168Y030823D01*
X018238Y030823D01*
X018238Y030963D01*
X018386Y030963D02*
X018386Y030823D01*
X018386Y029963D02*
X018292Y029963D01*
X018339Y029963D02*
X018339Y029823D01*
X018440Y029823D02*
X018440Y029917D01*
X018486Y029963D01*
X018533Y029917D01*
X018533Y029823D01*
X018587Y029847D02*
X018587Y029940D01*
X018610Y029963D01*
X018680Y029963D01*
X018680Y029823D01*
X018610Y029823D01*
X018587Y029847D01*
X018533Y029893D02*
X018440Y029893D01*
X018238Y029893D02*
X018145Y029893D01*
X018145Y029917D02*
X018145Y029823D01*
X018091Y029823D02*
X017998Y029823D01*
X018044Y029823D02*
X018044Y029963D01*
X018091Y029917D01*
X018145Y029917D02*
X018192Y029963D01*
X018238Y029917D01*
X018238Y029823D01*
X018238Y028963D02*
X018238Y028823D01*
X018145Y028823D01*
X018292Y028847D02*
X018316Y028823D01*
X018362Y028823D01*
X018386Y028847D01*
X018386Y028940D01*
X018362Y028963D01*
X018316Y028963D01*
X018292Y028940D01*
X018440Y028940D02*
X018463Y028963D01*
X018510Y028963D01*
X018533Y028940D01*
X018533Y028917D01*
X018510Y028893D01*
X018463Y028893D01*
X018440Y028870D01*
X018440Y028847D01*
X018463Y028823D01*
X018510Y028823D01*
X018533Y028847D01*
D14*
X018760Y028693D02*
X018760Y029043D01*
X018760Y029693D02*
X018760Y030093D01*
X018760Y030643D02*
X018760Y030893D01*
X020760Y030893D01*
X020760Y030643D01*
X020760Y030093D02*
X020760Y029693D01*
X020760Y029093D02*
X020760Y028693D01*
X020760Y028143D02*
X020760Y027893D01*
X018760Y027893D01*
X018760Y028143D01*
X019010Y027768D02*
X019210Y027518D01*
X018810Y027518D01*
X019010Y027768D01*
X046071Y022673D02*
X046071Y019169D01*
X047960Y019169D01*
X047960Y022673D01*
X046071Y022673D01*
X049810Y027518D02*
X050210Y027518D01*
X050010Y027768D01*
X049810Y027518D01*
X049760Y027893D02*
X049760Y028143D01*
X049760Y027893D02*
X051760Y027893D01*
X051760Y028143D01*
X051760Y028693D02*
X051760Y029093D01*
X051760Y029693D02*
X051760Y030093D01*
X051760Y030643D02*
X051760Y030893D01*
X049760Y030893D01*
X049760Y030643D01*
X049760Y030093D02*
X049760Y029693D01*
X049760Y029043D02*
X049760Y028693D01*
D15*
X035846Y035571D02*
X035655Y035552D01*
X035635Y035488D01*
X035604Y035428D01*
X035725Y035280D01*
X035623Y035178D01*
X035475Y035299D01*
X035415Y035268D01*
X035330Y035473D01*
X035368Y035494D01*
X035400Y035523D01*
X035424Y035560D01*
X035439Y035600D01*
X035444Y035643D01*
X035439Y035687D01*
X035423Y035729D01*
X035398Y035765D01*
X035365Y035794D01*
X035326Y035815D01*
X035284Y035826D01*
X035239Y035827D01*
X035196Y035817D01*
X035157Y035797D01*
X035123Y035768D01*
X035098Y035732D01*
X035081Y035691D01*
X035075Y035647D01*
X035079Y035603D01*
X035094Y035562D01*
X035118Y035525D01*
X035150Y035494D01*
X035189Y035473D01*
X035104Y035268D01*
X035044Y035299D01*
X034896Y035178D01*
X034794Y035280D01*
X034915Y035428D01*
X034884Y035488D01*
X034864Y035552D01*
X034673Y035571D01*
X034673Y035715D01*
X034864Y035735D01*
X034884Y035799D01*
X034915Y035858D01*
X034794Y036007D01*
X034896Y036109D01*
X035044Y035988D01*
X035104Y036018D01*
X035168Y036039D01*
X035188Y036229D01*
X035331Y036229D01*
X035351Y036039D01*
X035415Y036018D01*
X035475Y035988D01*
X035623Y036109D01*
X035725Y036007D01*
X035604Y035858D01*
X035635Y035799D01*
X035655Y035735D01*
X035846Y035715D01*
X035846Y035571D01*
X035846Y035617D02*
X035441Y035617D01*
X035440Y035674D02*
X035846Y035674D01*
X035727Y035559D02*
X035424Y035559D01*
X035376Y035502D02*
X035639Y035502D01*
X035612Y035444D02*
X035342Y035444D01*
X035366Y035387D02*
X035638Y035387D01*
X035685Y035329D02*
X035390Y035329D01*
X035414Y035271D02*
X035421Y035271D01*
X035508Y035271D02*
X035717Y035271D01*
X035659Y035214D02*
X035579Y035214D01*
X035153Y035387D02*
X034881Y035387D01*
X034907Y035444D02*
X035177Y035444D01*
X035143Y035502D02*
X034880Y035502D01*
X034792Y035559D02*
X035096Y035559D01*
X035078Y035617D02*
X034673Y035617D01*
X034673Y035674D02*
X035079Y035674D01*
X035098Y035732D02*
X034837Y035732D01*
X034881Y035789D02*
X035149Y035789D01*
X035371Y035789D02*
X035638Y035789D01*
X035610Y035847D02*
X034909Y035847D01*
X034878Y035905D02*
X035641Y035905D01*
X035688Y035962D02*
X034831Y035962D01*
X034807Y036020D02*
X035005Y036020D01*
X034934Y036077D02*
X034865Y036077D01*
X035108Y036020D02*
X035411Y036020D01*
X035347Y036077D02*
X035172Y036077D01*
X035178Y036135D02*
X035341Y036135D01*
X035335Y036192D02*
X035184Y036192D01*
X035514Y036020D02*
X035712Y036020D01*
X035655Y036077D02*
X035585Y036077D01*
X035682Y035732D02*
X035421Y035732D01*
X035129Y035329D02*
X034834Y035329D01*
X034802Y035271D02*
X035011Y035271D01*
X035098Y035271D02*
X035105Y035271D01*
X034940Y035214D02*
X034860Y035214D01*
D16*
X042165Y019453D03*
D17*
X042165Y019463D03*
X042085Y020653D03*
X041955Y020803D03*
X041955Y020813D03*
X041955Y020823D03*
D18*
X042165Y019473D03*
D19*
X042165Y019483D03*
D20*
X042165Y019493D03*
X042875Y019983D03*
X041235Y020983D03*
X041245Y021033D03*
X041245Y021043D03*
X041255Y021073D03*
X041255Y021083D03*
X041265Y021103D03*
X041265Y021113D03*
X041275Y021133D03*
X041285Y021163D03*
D21*
X041380Y021323D03*
X041390Y021333D03*
X041500Y021503D03*
X041620Y021643D03*
X041630Y021653D03*
X041240Y020753D03*
X041240Y020743D03*
X041240Y020733D03*
X042160Y019503D03*
D22*
X042165Y019513D03*
X042885Y020103D03*
X042885Y020113D03*
X041285Y020603D03*
X041465Y021403D03*
X041495Y021453D03*
D23*
X041325Y020533D03*
X042915Y020233D03*
X042915Y020223D03*
X042165Y019523D03*
D24*
X042160Y019533D03*
X042940Y020353D03*
X042940Y020363D03*
X042940Y020373D03*
X041360Y020493D03*
X042580Y021683D03*
X042590Y021673D03*
X042600Y021663D03*
D25*
X042695Y021533D03*
X042705Y021523D03*
X042705Y021513D03*
X042715Y021503D03*
X042735Y021473D03*
X042975Y020753D03*
X042975Y020743D03*
X042975Y020733D03*
X042965Y020703D03*
X042965Y020693D03*
X042965Y020683D03*
X042965Y020673D03*
X042965Y020663D03*
X042965Y020653D03*
X042965Y020643D03*
X042965Y020633D03*
X042965Y020623D03*
X042965Y020613D03*
X042965Y020603D03*
X042965Y020593D03*
X042965Y020583D03*
X041655Y019913D03*
X042165Y019543D03*
D26*
X042160Y019553D03*
X041420Y020443D03*
X042840Y021243D03*
D27*
X042825Y021213D03*
X042835Y021193D03*
X042845Y021183D03*
X042845Y021173D03*
X042855Y021153D03*
X042165Y019563D03*
D28*
X042165Y019573D03*
X041675Y019983D03*
D29*
X042165Y019583D03*
D30*
X042165Y019593D03*
X041685Y020023D03*
D31*
X041675Y020063D03*
X041675Y020073D03*
X042165Y019603D03*
D32*
X042165Y019613D03*
X041655Y020133D03*
X041655Y020143D03*
D33*
X041640Y020193D03*
X041640Y020203D03*
X042160Y019623D03*
D34*
X042165Y019633D03*
X041625Y020263D03*
X041625Y020273D03*
X041625Y020283D03*
X042165Y021843D03*
D35*
X041605Y020403D03*
X041605Y020393D03*
X041605Y020383D03*
X041605Y020373D03*
X042165Y019643D03*
D36*
X042165Y019653D03*
X042165Y021823D03*
D37*
X042165Y019663D03*
D38*
X042165Y019673D03*
X042165Y021803D03*
D39*
X042165Y019683D03*
D40*
X042165Y019693D03*
X042165Y021783D03*
D41*
X042160Y019703D03*
D42*
X042165Y019713D03*
D43*
X042165Y019723D03*
X042165Y021753D03*
D44*
X042160Y019733D03*
D45*
X042165Y019743D03*
D46*
X042165Y019753D03*
X042595Y021013D03*
D47*
X042595Y020953D03*
X042595Y020943D03*
X042595Y020933D03*
X042595Y020923D03*
X042595Y020913D03*
X042595Y020903D03*
X042165Y021713D03*
X042165Y019763D03*
D48*
X042165Y019773D03*
X042165Y021703D03*
D49*
X042165Y019783D03*
D50*
X042160Y019793D03*
D51*
X042160Y019803D03*
D52*
X042160Y019813D03*
D53*
X042160Y019823D03*
D54*
X042160Y019833D03*
D55*
X042160Y019843D03*
D56*
X042160Y019853D03*
D57*
X042160Y019863D03*
D58*
X042165Y019873D03*
D59*
X042880Y019883D03*
D60*
X042950Y020423D03*
X042950Y020433D03*
X042950Y020443D03*
X042950Y020453D03*
X041670Y019883D03*
X041370Y020483D03*
X042620Y021633D03*
X042630Y021623D03*
D61*
X042885Y019893D03*
D62*
X042955Y020463D03*
X042955Y020473D03*
X042955Y020483D03*
X042955Y020493D03*
X042955Y020503D03*
X042975Y020773D03*
X042655Y021593D03*
X042645Y021603D03*
X042635Y021613D03*
X042165Y021933D03*
X041665Y019893D03*
D63*
X042890Y019903D03*
D64*
X042960Y020513D03*
X042960Y020523D03*
X042960Y020533D03*
X042960Y020543D03*
X042960Y020553D03*
X042960Y020563D03*
X042960Y020573D03*
X042980Y020763D03*
X042690Y021543D03*
X042680Y021553D03*
X042670Y021563D03*
X042670Y021573D03*
X042660Y021583D03*
X041380Y020473D03*
X041660Y019903D03*
D65*
X042895Y019913D03*
D66*
X042900Y019923D03*
X042900Y019933D03*
D67*
X042970Y020713D03*
X042970Y020723D03*
X042840Y021283D03*
X042840Y021293D03*
X042830Y021303D03*
X042830Y021313D03*
X042820Y021323D03*
X042820Y021333D03*
X042810Y021343D03*
X042800Y021363D03*
X042790Y021383D03*
X042780Y021403D03*
X042770Y021413D03*
X042760Y021433D03*
X042750Y021443D03*
X042750Y021453D03*
X042740Y021463D03*
X042730Y021483D03*
X042720Y021493D03*
X041390Y020463D03*
X041650Y019923D03*
D68*
X041645Y019933D03*
X041645Y019943D03*
X042845Y021273D03*
X042805Y021353D03*
X042795Y021373D03*
X042785Y021393D03*
X042765Y021423D03*
D69*
X042905Y019943D03*
D70*
X042910Y019953D03*
D71*
X041640Y019953D03*
X041400Y020453D03*
X042840Y021263D03*
D72*
X042165Y021993D03*
X042915Y019963D03*
D73*
X041635Y019963D03*
X042845Y021253D03*
X042165Y021923D03*
D74*
X042910Y019973D03*
D75*
X041635Y019973D03*
D76*
X041230Y020823D03*
X041230Y020833D03*
X041230Y020843D03*
X041230Y020853D03*
X041230Y020863D03*
X041230Y020873D03*
X041320Y021233D03*
X041330Y021253D03*
X041510Y021543D03*
X041510Y021553D03*
X041520Y021563D03*
X041550Y021593D03*
X042870Y019993D03*
D77*
X041680Y019993D03*
D78*
X041235Y020763D03*
X041235Y020773D03*
X041365Y021303D03*
X041375Y021313D03*
X041495Y021513D03*
X041605Y021633D03*
X042865Y020013D03*
X042865Y020003D03*
D79*
X041685Y020003D03*
X041685Y020013D03*
D80*
X041245Y020713D03*
X041245Y020723D03*
X041395Y021343D03*
X041405Y021353D03*
X041495Y021493D03*
X041645Y021663D03*
X042865Y020023D03*
D81*
X042870Y020033D03*
X042870Y020043D03*
X041250Y020693D03*
X041250Y020703D03*
X041420Y021363D03*
X041660Y021673D03*
X041670Y021683D03*
D82*
X041680Y020043D03*
X041680Y020033D03*
D83*
X041270Y020643D03*
X041270Y020653D03*
X041260Y020663D03*
X041440Y021383D03*
X041690Y021693D03*
X042870Y020053D03*
D84*
X041675Y020053D03*
X042165Y021873D03*
D85*
X042165Y021963D03*
X041495Y021473D03*
X041495Y021463D03*
X041275Y020633D03*
X042875Y020073D03*
X042875Y020063D03*
D86*
X042880Y020083D03*
X042880Y020093D03*
X041280Y020613D03*
X041280Y020623D03*
X041450Y021393D03*
D87*
X041670Y020083D03*
D88*
X041665Y020093D03*
X041665Y020103D03*
X042165Y021863D03*
D89*
X041660Y020123D03*
X041660Y020113D03*
D90*
X041290Y020593D03*
X041490Y021443D03*
X043040Y020883D03*
X043040Y020873D03*
X043040Y020863D03*
X043040Y020853D03*
X043040Y020843D03*
X043040Y020833D03*
X043040Y020823D03*
X043040Y020813D03*
X043040Y020803D03*
X042890Y020133D03*
X042890Y020123D03*
D91*
X042895Y020143D03*
X041295Y020583D03*
X041475Y021413D03*
X041495Y021433D03*
D92*
X041490Y021423D03*
X041300Y020573D03*
X042900Y020163D03*
X042900Y020153D03*
D93*
X041650Y020153D03*
X041650Y020163D03*
D94*
X041315Y020553D03*
X041305Y020563D03*
X042165Y021953D03*
X042905Y020183D03*
X042905Y020173D03*
D95*
X041645Y020173D03*
X041645Y020183D03*
X042165Y021853D03*
D96*
X041320Y020543D03*
X042910Y020213D03*
X042910Y020203D03*
X042910Y020193D03*
D97*
X041635Y020213D03*
X041635Y020223D03*
D98*
X041630Y020233D03*
X041630Y020243D03*
X041630Y020253D03*
D99*
X042920Y020253D03*
X042920Y020243D03*
D100*
X042925Y020263D03*
X042925Y020273D03*
X042925Y020283D03*
X041335Y020523D03*
D101*
X041340Y020513D03*
X042930Y020313D03*
X042930Y020303D03*
X042930Y020293D03*
X043000Y020793D03*
D102*
X041620Y020303D03*
X041620Y020293D03*
D103*
X041615Y020313D03*
X041615Y020323D03*
X041615Y020333D03*
X042165Y021833D03*
D104*
X042165Y021943D03*
X041345Y020503D03*
X042935Y020343D03*
X042935Y020333D03*
X042935Y020323D03*
D105*
X041610Y020343D03*
X041610Y020353D03*
X041610Y020363D03*
D106*
X042945Y020383D03*
X042945Y020393D03*
X042945Y020403D03*
X042945Y020413D03*
X042985Y020783D03*
X042615Y021643D03*
X042605Y021653D03*
X042565Y021693D03*
D107*
X041600Y020413D03*
D108*
X042230Y020423D03*
X041970Y021223D03*
D109*
X042165Y021903D03*
X041455Y020423D03*
D110*
X042255Y020433D03*
X041985Y021243D03*
D111*
X042835Y021223D03*
X042875Y021113D03*
X042165Y021913D03*
X041435Y020433D03*
D112*
X042270Y020443D03*
X042170Y021133D03*
D113*
X042090Y020603D03*
D114*
X042085Y020613D03*
X041955Y021183D03*
D115*
X042085Y020623D03*
D116*
X042085Y020633D03*
D117*
X042085Y020643D03*
D118*
X042090Y020663D03*
X042000Y021113D03*
D119*
X042000Y021093D03*
X042080Y020673D03*
D120*
X041425Y021373D03*
X041495Y021483D03*
X041255Y020683D03*
X041255Y020673D03*
D121*
X042075Y020683D03*
D122*
X042070Y020693D03*
X042000Y020793D03*
X042000Y021073D03*
X042000Y021083D03*
D123*
X042055Y020713D03*
X042065Y020703D03*
X042165Y022003D03*
D124*
X042000Y021063D03*
X042000Y021053D03*
X042050Y020733D03*
X042050Y020723D03*
D125*
X042045Y020743D03*
X042035Y020763D03*
X042025Y020773D03*
X042015Y020783D03*
X042005Y021043D03*
D126*
X042040Y020753D03*
D127*
X041360Y021293D03*
X041350Y021283D03*
X041500Y021523D03*
X041590Y021623D03*
X042160Y021973D03*
X041230Y020803D03*
X041230Y020793D03*
X041230Y020783D03*
D128*
X041235Y020813D03*
X041335Y021263D03*
X041345Y021273D03*
X041505Y021533D03*
X041565Y021603D03*
X041575Y021613D03*
D129*
X041950Y020863D03*
X041950Y020853D03*
X041950Y020843D03*
X041950Y020833D03*
D130*
X041945Y020873D03*
X041945Y020883D03*
D131*
X041315Y021223D03*
X041305Y021213D03*
X041305Y021203D03*
X041295Y021183D03*
X041325Y021243D03*
X041225Y020903D03*
X041225Y020893D03*
X041225Y020883D03*
X041525Y021573D03*
X041535Y021583D03*
D132*
X042600Y020893D03*
D133*
X041300Y021193D03*
X041290Y021173D03*
X041280Y021153D03*
X041280Y021143D03*
X041270Y021123D03*
X041260Y021093D03*
X041250Y021063D03*
X041250Y021053D03*
X041240Y021023D03*
X041240Y021013D03*
X041240Y021003D03*
X041240Y020993D03*
X041230Y020973D03*
X041230Y020963D03*
X041230Y020953D03*
X041230Y020943D03*
X041230Y020933D03*
X041230Y020923D03*
X041230Y020913D03*
D134*
X042590Y020963D03*
X042590Y020973D03*
X042590Y020983D03*
X042590Y020993D03*
X042590Y021003D03*
D135*
X042590Y021023D03*
X042590Y021033D03*
X042160Y021723D03*
D136*
X042160Y021883D03*
X042830Y021043D03*
D137*
X042840Y021053D03*
D138*
X042845Y021063D03*
X042165Y021893D03*
D139*
X042850Y021073D03*
D140*
X042860Y021083D03*
D141*
X042870Y021093D03*
X042830Y021203D03*
D142*
X042850Y021163D03*
X042860Y021143D03*
X042860Y021133D03*
X042870Y021123D03*
X042870Y021103D03*
D143*
X041995Y021103D03*
D144*
X042160Y021123D03*
D145*
X041960Y021123D03*
D146*
X041950Y021133D03*
D147*
X041950Y021143D03*
D148*
X041950Y021153D03*
D149*
X041955Y021163D03*
D150*
X041955Y021173D03*
D151*
X041960Y021193D03*
D152*
X041960Y021203D03*
D153*
X041970Y021213D03*
D154*
X042840Y021233D03*
D155*
X041975Y021233D03*
D156*
X041995Y021253D03*
X042165Y022023D03*
D157*
X042165Y021733D03*
D158*
X042165Y021743D03*
D159*
X042160Y021763D03*
D160*
X042165Y021773D03*
D161*
X042160Y021793D03*
D162*
X042160Y021813D03*
D163*
X042165Y021983D03*
D164*
X042160Y022013D03*
M02*
