G75*
%MOIN*%
%OFA0B0*%
%FSLAX24Y24*%
%IPPOS*%
%LPD*%
%AMOC8*
5,1,8,0,0,1.08239X$1,22.5*
%
%ADD10C,0.0080*%
%ADD11C,0.0110*%
%ADD12C,0.0050*%
%ADD13C,0.0020*%
%ADD14C,0.0220*%
%ADD15R,0.0180X0.0300*%
%ADD16R,0.0300X0.0180*%
%ADD17C,0.0060*%
%ADD18R,0.0193X0.0598*%
%ADD19C,0.0100*%
%ADD20C,0.0079*%
D10*
X022271Y017330D02*
X023373Y017330D01*
X023373Y018023D01*
X022271Y018023D01*
X022271Y017330D01*
X025485Y016943D02*
X025485Y019943D01*
X026685Y021143D01*
X029085Y021143D01*
X030285Y019943D01*
X030285Y016943D01*
X030264Y016895D01*
X030240Y016849D01*
X030213Y016805D01*
X030182Y016763D01*
X030148Y016723D01*
X030112Y016686D01*
X030073Y016652D01*
X030031Y016621D01*
X029987Y016593D01*
X029941Y016568D01*
X029894Y016547D01*
X029845Y016529D01*
X029795Y016516D01*
X029743Y016505D01*
X029692Y016499D01*
X029640Y016497D01*
X029588Y016499D01*
X029536Y016504D01*
X029485Y016513D01*
X029434Y016527D01*
X029385Y016543D01*
X029320Y016605D01*
X029252Y016665D01*
X029182Y016721D01*
X029110Y016775D01*
X029035Y016825D01*
X028958Y016872D01*
X028880Y016916D01*
X028799Y016957D01*
X028717Y016994D01*
X028634Y017027D01*
X028549Y017057D01*
X028463Y017084D01*
X028376Y017106D01*
X028288Y017125D01*
X028199Y017141D01*
X028110Y017152D01*
X028020Y017160D01*
X027930Y017164D01*
X027840Y017164D01*
X027750Y017160D01*
X027660Y017152D01*
X027571Y017141D01*
X027482Y017125D01*
X027394Y017106D01*
X027307Y017084D01*
X027221Y017057D01*
X027136Y017027D01*
X027053Y016994D01*
X026971Y016957D01*
X026890Y016916D01*
X026812Y016872D01*
X026735Y016825D01*
X026660Y016775D01*
X026588Y016721D01*
X026518Y016665D01*
X026450Y016605D01*
X026385Y016543D01*
X026336Y016527D01*
X026285Y016513D01*
X026234Y016504D01*
X026182Y016499D01*
X026130Y016497D01*
X026078Y016499D01*
X026027Y016505D01*
X025975Y016516D01*
X025925Y016529D01*
X025876Y016547D01*
X025829Y016568D01*
X025783Y016593D01*
X025739Y016621D01*
X025697Y016652D01*
X025658Y016686D01*
X025622Y016723D01*
X025588Y016763D01*
X025557Y016805D01*
X025530Y016849D01*
X025506Y016895D01*
X025485Y016943D01*
X032189Y019439D02*
X038330Y019439D01*
X038330Y019714D01*
X038212Y019714D01*
X038212Y019832D01*
X032307Y019832D01*
X032307Y019714D01*
X032189Y019714D01*
X032189Y019439D01*
X032189Y019832D02*
X032189Y020490D01*
X032189Y019832D02*
X032307Y019832D01*
X033015Y019714D02*
X033094Y019557D01*
X033173Y019714D01*
X033015Y019714D01*
X033027Y019690D02*
X033161Y019690D01*
X033122Y019612D02*
X033067Y019612D01*
X032858Y021565D02*
X032189Y021565D01*
X029468Y021950D02*
X029468Y022462D01*
X028051Y022462D02*
X028051Y021950D01*
X026275Y023460D02*
X025760Y022945D01*
X025648Y023056D01*
X025648Y022332D02*
X023198Y024782D01*
X023198Y025005D01*
X025648Y027454D01*
X025871Y027454D01*
X028321Y025005D01*
X028321Y024782D01*
X025871Y022332D01*
X025648Y022332D01*
X027193Y024378D02*
X027708Y024893D01*
X027193Y025408D01*
X026275Y026327D02*
X025760Y026842D01*
X025244Y026327D01*
X023950Y025033D02*
X023950Y024754D01*
X018860Y025893D02*
X018860Y026881D01*
X018466Y027393D02*
X017253Y027393D01*
X016860Y026881D02*
X016860Y025905D01*
X017253Y025393D02*
X018466Y025393D01*
X017360Y026393D02*
X017362Y026437D01*
X017368Y026481D01*
X017378Y026524D01*
X017391Y026566D01*
X017408Y026607D01*
X017429Y026646D01*
X017453Y026683D01*
X017480Y026718D01*
X017510Y026750D01*
X017543Y026780D01*
X017579Y026806D01*
X017616Y026830D01*
X017656Y026849D01*
X017697Y026866D01*
X017740Y026878D01*
X017783Y026887D01*
X017827Y026892D01*
X017871Y026893D01*
X017915Y026890D01*
X017959Y026883D01*
X018002Y026872D01*
X018044Y026858D01*
X018084Y026840D01*
X018123Y026818D01*
X018159Y026794D01*
X018193Y026766D01*
X018225Y026735D01*
X018254Y026701D01*
X018280Y026665D01*
X018302Y026627D01*
X018321Y026587D01*
X018336Y026545D01*
X018348Y026503D01*
X018356Y026459D01*
X018360Y026415D01*
X018360Y026371D01*
X018356Y026327D01*
X018348Y026283D01*
X018336Y026241D01*
X018321Y026199D01*
X018302Y026159D01*
X018280Y026121D01*
X018254Y026085D01*
X018225Y026051D01*
X018193Y026020D01*
X018159Y025992D01*
X018123Y025968D01*
X018084Y025946D01*
X018044Y025928D01*
X018002Y025914D01*
X017959Y025903D01*
X017915Y025896D01*
X017871Y025893D01*
X017827Y025894D01*
X017783Y025899D01*
X017740Y025908D01*
X017697Y025920D01*
X017656Y025937D01*
X017616Y025956D01*
X017579Y025980D01*
X017543Y026006D01*
X017510Y026036D01*
X017480Y026068D01*
X017453Y026103D01*
X017429Y026140D01*
X017408Y026179D01*
X017391Y026220D01*
X017378Y026262D01*
X017368Y026305D01*
X017362Y026349D01*
X017360Y026393D01*
X017253Y021693D02*
X018466Y021693D01*
X018860Y021181D02*
X018860Y020193D01*
X018466Y019693D02*
X017253Y019693D01*
X016860Y020205D02*
X016860Y021181D01*
X017360Y020693D02*
X017362Y020737D01*
X017368Y020781D01*
X017378Y020824D01*
X017391Y020866D01*
X017408Y020907D01*
X017429Y020946D01*
X017453Y020983D01*
X017480Y021018D01*
X017510Y021050D01*
X017543Y021080D01*
X017579Y021106D01*
X017616Y021130D01*
X017656Y021149D01*
X017697Y021166D01*
X017740Y021178D01*
X017783Y021187D01*
X017827Y021192D01*
X017871Y021193D01*
X017915Y021190D01*
X017959Y021183D01*
X018002Y021172D01*
X018044Y021158D01*
X018084Y021140D01*
X018123Y021118D01*
X018159Y021094D01*
X018193Y021066D01*
X018225Y021035D01*
X018254Y021001D01*
X018280Y020965D01*
X018302Y020927D01*
X018321Y020887D01*
X018336Y020845D01*
X018348Y020803D01*
X018356Y020759D01*
X018360Y020715D01*
X018360Y020671D01*
X018356Y020627D01*
X018348Y020583D01*
X018336Y020541D01*
X018321Y020499D01*
X018302Y020459D01*
X018280Y020421D01*
X018254Y020385D01*
X018225Y020351D01*
X018193Y020320D01*
X018159Y020292D01*
X018123Y020268D01*
X018084Y020246D01*
X018044Y020228D01*
X018002Y020214D01*
X017959Y020203D01*
X017915Y020196D01*
X017871Y020193D01*
X017827Y020194D01*
X017783Y020199D01*
X017740Y020208D01*
X017697Y020220D01*
X017656Y020237D01*
X017616Y020256D01*
X017579Y020280D01*
X017543Y020306D01*
X017510Y020336D01*
X017480Y020368D01*
X017453Y020403D01*
X017429Y020440D01*
X017408Y020479D01*
X017391Y020520D01*
X017378Y020562D01*
X017368Y020605D01*
X017362Y020649D01*
X017360Y020693D01*
X017253Y031093D02*
X018466Y031093D01*
X018860Y031605D02*
X018860Y032581D01*
X018466Y033093D02*
X017253Y033093D01*
X016860Y032593D02*
X016860Y031605D01*
X017360Y032093D02*
X017362Y032137D01*
X017368Y032181D01*
X017378Y032224D01*
X017391Y032266D01*
X017408Y032307D01*
X017429Y032346D01*
X017453Y032383D01*
X017480Y032418D01*
X017510Y032450D01*
X017543Y032480D01*
X017579Y032506D01*
X017616Y032530D01*
X017656Y032549D01*
X017697Y032566D01*
X017740Y032578D01*
X017783Y032587D01*
X017827Y032592D01*
X017871Y032593D01*
X017915Y032590D01*
X017959Y032583D01*
X018002Y032572D01*
X018044Y032558D01*
X018084Y032540D01*
X018123Y032518D01*
X018159Y032494D01*
X018193Y032466D01*
X018225Y032435D01*
X018254Y032401D01*
X018280Y032365D01*
X018302Y032327D01*
X018321Y032287D01*
X018336Y032245D01*
X018348Y032203D01*
X018356Y032159D01*
X018360Y032115D01*
X018360Y032071D01*
X018356Y032027D01*
X018348Y031983D01*
X018336Y031941D01*
X018321Y031899D01*
X018302Y031859D01*
X018280Y031821D01*
X018254Y031785D01*
X018225Y031751D01*
X018193Y031720D01*
X018159Y031692D01*
X018123Y031668D01*
X018084Y031646D01*
X018044Y031628D01*
X018002Y031614D01*
X017959Y031603D01*
X017915Y031596D01*
X017871Y031593D01*
X017827Y031594D01*
X017783Y031599D01*
X017740Y031608D01*
X017697Y031620D01*
X017656Y031637D01*
X017616Y031656D01*
X017579Y031680D01*
X017543Y031706D01*
X017510Y031736D01*
X017480Y031768D01*
X017453Y031803D01*
X017429Y031840D01*
X017408Y031879D01*
X017391Y031920D01*
X017378Y031962D01*
X017368Y032005D01*
X017362Y032049D01*
X017360Y032093D01*
X024187Y031368D02*
X024467Y031368D01*
X024647Y031439D02*
X024788Y031579D01*
X024788Y031158D01*
X024928Y031158D02*
X024647Y031158D01*
X024327Y031228D02*
X024327Y031509D01*
X031187Y031368D02*
X031467Y031368D01*
X031327Y031228D02*
X031327Y031509D01*
X031647Y031509D02*
X031717Y031579D01*
X031858Y031579D01*
X031928Y031509D01*
X031928Y031439D01*
X031647Y031158D01*
X031928Y031158D01*
X034813Y028853D02*
X034815Y028868D01*
X034821Y028881D01*
X034830Y028893D01*
X034841Y028902D01*
X034855Y028908D01*
X034870Y028910D01*
X034885Y028908D01*
X034898Y028902D01*
X034910Y028893D01*
X034919Y028882D01*
X034925Y028868D01*
X034927Y028853D01*
X034925Y028838D01*
X034919Y028825D01*
X034910Y028813D01*
X034899Y028804D01*
X034885Y028798D01*
X034870Y028796D01*
X034855Y028798D01*
X034842Y028804D01*
X034830Y028813D01*
X034821Y028824D01*
X034815Y028838D01*
X034813Y028853D01*
X038187Y031368D02*
X038467Y031368D01*
X038327Y031228D02*
X038327Y031509D01*
X038647Y031509D02*
X038717Y031579D01*
X038858Y031579D01*
X038928Y031509D01*
X038928Y031439D01*
X038858Y031368D01*
X038928Y031298D01*
X038928Y031228D01*
X038858Y031158D01*
X038717Y031158D01*
X038647Y031228D01*
X038788Y031368D02*
X038858Y031368D01*
X045187Y031368D02*
X045467Y031368D01*
X045647Y031368D02*
X045858Y031579D01*
X045858Y031158D01*
X045928Y031368D02*
X045647Y031368D01*
X045327Y031509D02*
X045327Y031228D01*
X045429Y027453D02*
X045090Y027453D01*
X044940Y026999D02*
X044940Y026788D01*
X045090Y026333D02*
X045429Y026333D01*
X040843Y026183D02*
X040845Y026198D01*
X040851Y026211D01*
X040860Y026223D01*
X040871Y026232D01*
X040885Y026238D01*
X040900Y026240D01*
X040915Y026238D01*
X040928Y026232D01*
X040940Y026223D01*
X040949Y026212D01*
X040955Y026198D01*
X040957Y026183D01*
X040955Y026168D01*
X040949Y026155D01*
X040940Y026143D01*
X040929Y026134D01*
X040915Y026128D01*
X040900Y026126D01*
X040885Y026128D01*
X040872Y026134D01*
X040860Y026143D01*
X040851Y026154D01*
X040845Y026168D01*
X040843Y026183D01*
X038330Y021565D02*
X037661Y021565D01*
X039340Y020825D02*
X039340Y019108D01*
X041229Y019108D01*
X041229Y018912D01*
X041229Y019108D02*
X041229Y020825D01*
X039340Y019108D02*
X039340Y018912D01*
X038330Y019832D02*
X038212Y019832D01*
X038330Y019832D02*
X038330Y020490D01*
X049950Y019312D02*
X049950Y018974D01*
X050404Y018824D02*
X050615Y018824D01*
X051070Y018974D02*
X051070Y019312D01*
X052053Y019693D02*
X053266Y019693D01*
X053660Y020205D02*
X053660Y021181D01*
X053266Y021693D02*
X052053Y021693D01*
X051660Y021193D02*
X051660Y020205D01*
X052160Y020693D02*
X052162Y020737D01*
X052168Y020781D01*
X052178Y020824D01*
X052191Y020866D01*
X052208Y020907D01*
X052229Y020946D01*
X052253Y020983D01*
X052280Y021018D01*
X052310Y021050D01*
X052343Y021080D01*
X052379Y021106D01*
X052416Y021130D01*
X052456Y021149D01*
X052497Y021166D01*
X052540Y021178D01*
X052583Y021187D01*
X052627Y021192D01*
X052671Y021193D01*
X052715Y021190D01*
X052759Y021183D01*
X052802Y021172D01*
X052844Y021158D01*
X052884Y021140D01*
X052923Y021118D01*
X052959Y021094D01*
X052993Y021066D01*
X053025Y021035D01*
X053054Y021001D01*
X053080Y020965D01*
X053102Y020927D01*
X053121Y020887D01*
X053136Y020845D01*
X053148Y020803D01*
X053156Y020759D01*
X053160Y020715D01*
X053160Y020671D01*
X053156Y020627D01*
X053148Y020583D01*
X053136Y020541D01*
X053121Y020499D01*
X053102Y020459D01*
X053080Y020421D01*
X053054Y020385D01*
X053025Y020351D01*
X052993Y020320D01*
X052959Y020292D01*
X052923Y020268D01*
X052884Y020246D01*
X052844Y020228D01*
X052802Y020214D01*
X052759Y020203D01*
X052715Y020196D01*
X052671Y020193D01*
X052627Y020194D01*
X052583Y020199D01*
X052540Y020208D01*
X052497Y020220D01*
X052456Y020237D01*
X052416Y020256D01*
X052379Y020280D01*
X052343Y020306D01*
X052310Y020336D01*
X052280Y020368D01*
X052253Y020403D01*
X052229Y020440D01*
X052208Y020479D01*
X052191Y020520D01*
X052178Y020562D01*
X052168Y020605D01*
X052162Y020649D01*
X052160Y020693D01*
X052053Y025393D02*
X053266Y025393D01*
X053660Y025905D02*
X053660Y026881D01*
X053266Y027393D02*
X052053Y027393D01*
X051660Y026893D02*
X051660Y025905D01*
X052160Y026393D02*
X052162Y026437D01*
X052168Y026481D01*
X052178Y026524D01*
X052191Y026566D01*
X052208Y026607D01*
X052229Y026646D01*
X052253Y026683D01*
X052280Y026718D01*
X052310Y026750D01*
X052343Y026780D01*
X052379Y026806D01*
X052416Y026830D01*
X052456Y026849D01*
X052497Y026866D01*
X052540Y026878D01*
X052583Y026887D01*
X052627Y026892D01*
X052671Y026893D01*
X052715Y026890D01*
X052759Y026883D01*
X052802Y026872D01*
X052844Y026858D01*
X052884Y026840D01*
X052923Y026818D01*
X052959Y026794D01*
X052993Y026766D01*
X053025Y026735D01*
X053054Y026701D01*
X053080Y026665D01*
X053102Y026627D01*
X053121Y026587D01*
X053136Y026545D01*
X053148Y026503D01*
X053156Y026459D01*
X053160Y026415D01*
X053160Y026371D01*
X053156Y026327D01*
X053148Y026283D01*
X053136Y026241D01*
X053121Y026199D01*
X053102Y026159D01*
X053080Y026121D01*
X053054Y026085D01*
X053025Y026051D01*
X052993Y026020D01*
X052959Y025992D01*
X052923Y025968D01*
X052884Y025946D01*
X052844Y025928D01*
X052802Y025914D01*
X052759Y025903D01*
X052715Y025896D01*
X052671Y025893D01*
X052627Y025894D01*
X052583Y025899D01*
X052540Y025908D01*
X052497Y025920D01*
X052456Y025937D01*
X052416Y025956D01*
X052379Y025980D01*
X052343Y026006D01*
X052310Y026036D01*
X052280Y026068D01*
X052253Y026103D01*
X052229Y026140D01*
X052208Y026179D01*
X052191Y026220D01*
X052178Y026262D01*
X052168Y026305D01*
X052162Y026349D01*
X052160Y026393D01*
X052053Y031093D02*
X053266Y031093D01*
X053660Y031605D02*
X053660Y032581D01*
X053266Y033093D02*
X052053Y033093D01*
X051660Y032593D02*
X051660Y031605D01*
X052160Y032093D02*
X052162Y032137D01*
X052168Y032181D01*
X052178Y032224D01*
X052191Y032266D01*
X052208Y032307D01*
X052229Y032346D01*
X052253Y032383D01*
X052280Y032418D01*
X052310Y032450D01*
X052343Y032480D01*
X052379Y032506D01*
X052416Y032530D01*
X052456Y032549D01*
X052497Y032566D01*
X052540Y032578D01*
X052583Y032587D01*
X052627Y032592D01*
X052671Y032593D01*
X052715Y032590D01*
X052759Y032583D01*
X052802Y032572D01*
X052844Y032558D01*
X052884Y032540D01*
X052923Y032518D01*
X052959Y032494D01*
X052993Y032466D01*
X053025Y032435D01*
X053054Y032401D01*
X053080Y032365D01*
X053102Y032327D01*
X053121Y032287D01*
X053136Y032245D01*
X053148Y032203D01*
X053156Y032159D01*
X053160Y032115D01*
X053160Y032071D01*
X053156Y032027D01*
X053148Y031983D01*
X053136Y031941D01*
X053121Y031899D01*
X053102Y031859D01*
X053080Y031821D01*
X053054Y031785D01*
X053025Y031751D01*
X052993Y031720D01*
X052959Y031692D01*
X052923Y031668D01*
X052884Y031646D01*
X052844Y031628D01*
X052802Y031614D01*
X052759Y031603D01*
X052715Y031596D01*
X052671Y031593D01*
X052627Y031594D01*
X052583Y031599D01*
X052540Y031608D01*
X052497Y031620D01*
X052456Y031637D01*
X052416Y031656D01*
X052379Y031680D01*
X052343Y031706D01*
X052310Y031736D01*
X052280Y031768D01*
X052253Y031803D01*
X052229Y031840D01*
X052208Y031879D01*
X052191Y031920D01*
X052178Y031962D01*
X052168Y032005D01*
X052162Y032049D01*
X052160Y032093D01*
D11*
X053115Y033348D02*
X053115Y033742D01*
X053311Y033939D01*
X053508Y033742D01*
X053508Y033348D01*
X053508Y033644D02*
X053115Y033644D01*
X053115Y028239D02*
X053410Y028239D01*
X053508Y028140D01*
X053508Y028042D01*
X053410Y027944D01*
X053115Y027944D01*
X053410Y027944D02*
X053508Y027845D01*
X053508Y027747D01*
X053410Y027648D01*
X053115Y027648D01*
X053115Y028239D01*
X053213Y022539D02*
X053115Y022440D01*
X053115Y022047D01*
X053213Y021948D01*
X053410Y021948D01*
X053508Y022047D01*
X053508Y022440D02*
X053410Y022539D01*
X053213Y022539D01*
X018597Y019390D02*
X018597Y019194D01*
X018499Y019095D01*
X018204Y019095D01*
X018400Y019095D02*
X018597Y018898D01*
X018204Y018898D02*
X018204Y019489D01*
X018499Y019489D01*
X018597Y019390D01*
X017953Y019489D02*
X017953Y018898D01*
X017756Y019095D01*
X017559Y018898D01*
X017559Y019489D01*
X017308Y019390D02*
X017308Y019194D01*
X017210Y019095D01*
X016915Y019095D01*
X016915Y018898D02*
X016915Y019489D01*
X017210Y019489D01*
X017308Y019390D01*
X017408Y027648D02*
X017015Y027648D01*
X017015Y028239D01*
X017408Y028239D01*
X017211Y027944D02*
X017015Y027944D01*
X017015Y033348D02*
X017310Y033348D01*
X017408Y033447D01*
X017408Y033840D01*
X017310Y033939D01*
X017015Y033939D01*
X017015Y033348D01*
D12*
X020043Y035803D02*
X020043Y016984D01*
X050476Y016984D01*
X050476Y035803D01*
X020043Y035803D01*
X021760Y036393D02*
X027760Y036393D01*
X027760Y031393D01*
X021760Y031393D01*
X021760Y036393D01*
X028760Y036393D02*
X034760Y036393D01*
X034760Y031393D01*
X028760Y031393D01*
X028760Y036393D01*
X035760Y036393D02*
X035760Y031393D01*
X041760Y031393D01*
X041760Y036393D01*
X035760Y036393D01*
X042760Y036393D02*
X048760Y036393D01*
X048760Y031393D01*
X042760Y031393D01*
X042760Y036393D01*
X035729Y029468D02*
X035684Y029514D01*
X035594Y029514D01*
X035549Y029468D01*
X035549Y029288D01*
X035594Y029243D01*
X035684Y029243D01*
X035729Y029288D01*
X035434Y029288D02*
X035434Y029468D01*
X035389Y029514D01*
X035254Y029514D01*
X035254Y029243D01*
X035389Y029243D01*
X035434Y029288D01*
X035140Y029243D02*
X035140Y029423D01*
X035050Y029514D01*
X034960Y029423D01*
X034960Y029243D01*
X034960Y029378D02*
X035140Y029378D01*
X040147Y028264D02*
X040282Y028264D01*
X040327Y028218D01*
X040327Y028128D01*
X040282Y028083D01*
X040147Y028083D01*
X040147Y027993D02*
X040147Y028264D01*
X040237Y028083D02*
X040327Y027993D01*
X040532Y027993D02*
X040532Y028264D01*
X040442Y028264D02*
X040622Y028264D01*
X040736Y028218D02*
X040736Y028038D01*
X040781Y027993D01*
X040871Y027993D01*
X040916Y028038D01*
X040916Y028218D02*
X040871Y028264D01*
X040781Y028264D01*
X040736Y028218D01*
X045942Y022764D02*
X045897Y022718D01*
X045897Y022673D01*
X045942Y022628D01*
X046032Y022628D01*
X046077Y022583D01*
X046077Y022538D01*
X046032Y022493D01*
X045942Y022493D01*
X045897Y022538D01*
X045942Y022764D02*
X046032Y022764D01*
X046077Y022718D01*
X046192Y022764D02*
X046327Y022764D01*
X046372Y022718D01*
X046372Y022538D01*
X046327Y022493D01*
X046192Y022493D01*
X046192Y022764D01*
X046486Y022448D02*
X046666Y022448D01*
X046781Y022538D02*
X046826Y022493D01*
X046916Y022493D01*
X046961Y022538D01*
X047076Y022493D02*
X047076Y022673D01*
X047166Y022764D01*
X047256Y022673D01*
X047256Y022493D01*
X047370Y022493D02*
X047370Y022764D01*
X047505Y022764D01*
X047550Y022718D01*
X047550Y022628D01*
X047505Y022583D01*
X047370Y022583D01*
X047460Y022583D02*
X047550Y022493D01*
X047665Y022493D02*
X047800Y022493D01*
X047845Y022538D01*
X047845Y022718D01*
X047800Y022764D01*
X047665Y022764D01*
X047665Y022493D01*
X047256Y022628D02*
X047076Y022628D01*
X046961Y022718D02*
X046916Y022764D01*
X046826Y022764D01*
X046781Y022718D01*
X046781Y022538D01*
X047410Y022020D02*
X047410Y021570D01*
X047960Y021570D01*
X047960Y016120D01*
X046963Y016120D01*
X046906Y016121D01*
X046848Y016126D01*
X046791Y016133D01*
X046735Y016144D01*
X046679Y016157D01*
X046624Y016173D01*
X046569Y016192D01*
X044789Y016520D02*
X042060Y016520D01*
X042060Y022020D01*
X047410Y022020D01*
X041381Y022066D02*
X041201Y022066D01*
X041086Y022021D02*
X041086Y021976D01*
X041041Y021931D01*
X040951Y021931D01*
X040906Y021976D01*
X040951Y022066D02*
X041041Y022066D01*
X041086Y022021D01*
X041086Y022156D02*
X041041Y022201D01*
X040951Y022201D01*
X040906Y022156D01*
X040906Y022111D01*
X040951Y022066D01*
X040791Y022066D02*
X040611Y022066D01*
X040611Y022111D02*
X040701Y022201D01*
X040791Y022111D01*
X040791Y021931D01*
X040611Y021931D02*
X040611Y022111D01*
X040497Y021931D02*
X040317Y021931D01*
X040317Y022201D01*
X040202Y022201D02*
X040022Y022201D01*
X040022Y021931D01*
X040022Y022066D02*
X040112Y022066D01*
X041201Y021931D02*
X041201Y022201D01*
X041381Y022201D02*
X041381Y021931D01*
X038229Y019218D02*
X038184Y019264D01*
X038049Y019264D01*
X038049Y018993D01*
X038184Y018993D01*
X038229Y019038D01*
X038229Y019218D01*
X037934Y019218D02*
X037889Y019264D01*
X037799Y019264D01*
X037754Y019218D01*
X037754Y019038D01*
X037799Y018993D01*
X037889Y018993D01*
X037934Y019038D01*
X037640Y018993D02*
X037460Y018993D01*
X037460Y019264D01*
X044789Y016520D02*
X044929Y016518D01*
X045069Y016512D01*
X045208Y016502D01*
X045348Y016489D01*
X045487Y016471D01*
X045625Y016450D01*
X045763Y016424D01*
X045900Y016395D01*
X046036Y016362D01*
X046171Y016325D01*
X046305Y016285D01*
X046437Y016240D01*
X046569Y016192D01*
X020535Y017256D02*
X019235Y017256D01*
X019235Y019656D01*
X020535Y019656D01*
X020535Y017256D01*
D13*
X023272Y022136D02*
X023318Y022183D01*
X023318Y022276D01*
X023372Y022276D02*
X023442Y022276D01*
X023466Y022253D01*
X023466Y022229D01*
X023442Y022206D01*
X023372Y022206D01*
X023372Y022136D02*
X023372Y022276D01*
X023442Y022206D02*
X023466Y022183D01*
X023466Y022159D01*
X023442Y022136D01*
X023372Y022136D01*
X023272Y022136D02*
X023225Y022183D01*
X023225Y022276D01*
X023520Y022276D02*
X023520Y022159D01*
X023543Y022136D01*
X023590Y022136D01*
X023613Y022159D01*
X023613Y022276D01*
X023667Y022253D02*
X023690Y022276D01*
X023737Y022276D01*
X023760Y022253D01*
X023737Y022206D02*
X023760Y022183D01*
X023760Y022159D01*
X023737Y022136D01*
X023690Y022136D01*
X023667Y022159D01*
X023690Y022206D02*
X023737Y022206D01*
X023690Y022206D02*
X023667Y022229D01*
X023667Y022253D01*
X020033Y024722D02*
X020009Y024698D01*
X019963Y024698D01*
X019939Y024722D01*
X019939Y024815D01*
X019963Y024838D01*
X020009Y024838D01*
X020033Y024815D01*
X019885Y024815D02*
X019862Y024838D01*
X019815Y024838D01*
X019792Y024815D01*
X019792Y024722D01*
X019815Y024698D01*
X019862Y024698D01*
X019885Y024722D01*
X019738Y024745D02*
X019738Y024838D01*
X019738Y024745D02*
X019691Y024698D01*
X019645Y024745D01*
X019645Y024838D01*
X019591Y024815D02*
X019591Y024792D01*
X019567Y024768D01*
X019497Y024768D01*
X019443Y024745D02*
X019443Y024722D01*
X019420Y024698D01*
X019373Y024698D01*
X019350Y024722D01*
X019373Y024768D02*
X019420Y024768D01*
X019443Y024745D01*
X019443Y024815D02*
X019420Y024838D01*
X019373Y024838D01*
X019350Y024815D01*
X019350Y024792D01*
X019373Y024768D01*
X019296Y024722D02*
X019296Y024838D01*
X019203Y024838D02*
X019203Y024722D01*
X019226Y024698D01*
X019273Y024698D01*
X019296Y024722D01*
X019497Y024698D02*
X019567Y024698D01*
X019591Y024722D01*
X019591Y024745D01*
X019567Y024768D01*
X019591Y024815D02*
X019567Y024838D01*
X019497Y024838D01*
X019497Y024698D01*
X022470Y026886D02*
X022470Y027026D01*
X022540Y027026D01*
X022564Y027003D01*
X022564Y026956D01*
X022540Y026933D01*
X022470Y026933D01*
X022618Y026886D02*
X022664Y026933D01*
X022711Y026886D01*
X022711Y027026D01*
X022765Y027026D02*
X022835Y027026D01*
X022858Y027003D01*
X022858Y026956D01*
X022835Y026933D01*
X022765Y026933D01*
X022812Y026933D02*
X022858Y026886D01*
X022912Y026862D02*
X023006Y026862D01*
X023060Y026909D02*
X023083Y026886D01*
X023130Y026886D01*
X023153Y026909D01*
X023153Y027003D01*
X023130Y027026D01*
X023083Y027026D01*
X023060Y027003D01*
X023060Y026909D01*
X023207Y026886D02*
X023207Y027026D01*
X023300Y026886D01*
X023300Y027026D01*
X023448Y027026D02*
X023354Y026886D01*
X023502Y026909D02*
X023525Y026886D01*
X023572Y026886D01*
X023595Y026909D01*
X023595Y027003D01*
X023572Y027026D01*
X023525Y027026D01*
X023502Y027003D01*
X023502Y026909D01*
X023649Y026886D02*
X023649Y027026D01*
X023742Y027026D01*
X023796Y027026D02*
X023890Y027026D01*
X023843Y026956D02*
X023796Y026956D01*
X023796Y026886D02*
X023796Y027026D01*
X023696Y026956D02*
X023649Y026956D01*
X023604Y027323D02*
X023651Y027370D01*
X023698Y027323D01*
X023698Y027463D01*
X023752Y027463D02*
X023822Y027463D01*
X023845Y027440D01*
X023845Y027393D01*
X023822Y027370D01*
X023752Y027370D01*
X023798Y027370D02*
X023845Y027323D01*
X023752Y027323D02*
X023752Y027463D01*
X023604Y027463D02*
X023604Y027323D01*
X023550Y027393D02*
X023527Y027370D01*
X023457Y027370D01*
X023457Y027323D02*
X023457Y027463D01*
X023527Y027463D01*
X023550Y027440D01*
X023550Y027393D01*
X023403Y027300D02*
X023310Y027300D01*
X023256Y027323D02*
X023256Y027463D01*
X023162Y027463D02*
X023162Y027323D01*
X023209Y027370D01*
X023256Y027323D01*
X023108Y027347D02*
X023085Y027323D01*
X023038Y027323D01*
X023015Y027347D01*
X023038Y027393D02*
X023085Y027393D01*
X023108Y027370D01*
X023108Y027347D01*
X023038Y027393D02*
X023015Y027417D01*
X023015Y027440D01*
X023038Y027463D01*
X023085Y027463D01*
X023108Y027440D01*
X022765Y027026D02*
X022765Y026886D01*
X022618Y026886D02*
X022618Y027026D01*
X034620Y036073D02*
X034667Y036073D01*
X034643Y036073D02*
X034643Y036213D01*
X034620Y036213D02*
X034667Y036213D01*
X034718Y036190D02*
X034718Y036167D01*
X034742Y036143D01*
X034788Y036143D01*
X034812Y036120D01*
X034812Y036097D01*
X034788Y036073D01*
X034742Y036073D01*
X034718Y036097D01*
X034718Y036190D02*
X034742Y036213D01*
X034788Y036213D01*
X034812Y036190D01*
X034865Y036190D02*
X034865Y036097D01*
X034889Y036073D01*
X034936Y036073D01*
X034959Y036097D01*
X034959Y036190D01*
X034936Y036213D01*
X034889Y036213D01*
X034865Y036190D01*
X035013Y036213D02*
X035106Y036213D01*
X035060Y036213D02*
X035060Y036073D01*
X035160Y036073D02*
X035160Y036213D01*
X035160Y036143D02*
X035254Y036143D01*
X035307Y036143D02*
X035354Y036143D01*
X035307Y036073D02*
X035401Y036073D01*
X035455Y036073D02*
X035455Y036213D01*
X035525Y036213D01*
X035548Y036190D01*
X035548Y036143D01*
X035525Y036120D01*
X035455Y036120D01*
X035501Y036120D02*
X035548Y036073D01*
X035602Y036073D02*
X035602Y036213D01*
X035649Y036167D01*
X035696Y036213D01*
X035696Y036073D01*
X035749Y036073D02*
X035749Y036167D01*
X035796Y036213D01*
X035843Y036167D01*
X035843Y036073D01*
X035897Y036073D02*
X035990Y036073D01*
X035897Y036073D02*
X035897Y036213D01*
X035843Y036143D02*
X035749Y036143D01*
X035401Y036213D02*
X035307Y036213D01*
X035307Y036073D01*
X035254Y036073D02*
X035254Y036213D01*
X045828Y028315D02*
X045851Y028338D01*
X045898Y028338D01*
X045921Y028315D01*
X045921Y028292D01*
X045898Y028268D01*
X045921Y028245D01*
X045921Y028222D01*
X045898Y028198D01*
X045851Y028198D01*
X045828Y028222D01*
X045874Y028268D02*
X045898Y028268D01*
X045975Y028245D02*
X046022Y028198D01*
X046068Y028245D01*
X046068Y028338D01*
X046122Y028315D02*
X046146Y028338D01*
X046192Y028338D01*
X046216Y028315D01*
X046216Y028292D01*
X046192Y028268D01*
X046216Y028245D01*
X046216Y028222D01*
X046192Y028198D01*
X046146Y028198D01*
X046122Y028222D01*
X046169Y028268D02*
X046192Y028268D01*
X046270Y028175D02*
X046363Y028175D01*
X046417Y028198D02*
X046510Y028198D01*
X046564Y028198D02*
X046564Y028338D01*
X046658Y028198D01*
X046658Y028338D01*
X046510Y028338D02*
X046417Y028338D01*
X046417Y028198D01*
X046417Y028268D02*
X046464Y028268D01*
X045975Y028245D02*
X045975Y028338D01*
X043661Y023838D02*
X043661Y023745D01*
X043614Y023698D01*
X043568Y023745D01*
X043568Y023838D01*
X043514Y023815D02*
X043514Y023792D01*
X043490Y023768D01*
X043514Y023745D01*
X043514Y023722D01*
X043490Y023698D01*
X043444Y023698D01*
X043420Y023722D01*
X043370Y023722D02*
X043370Y023698D01*
X043347Y023698D01*
X043347Y023722D01*
X043370Y023722D01*
X043293Y023722D02*
X043269Y023698D01*
X043223Y023698D01*
X043199Y023722D01*
X043246Y023768D02*
X043269Y023768D01*
X043293Y023745D01*
X043293Y023722D01*
X043269Y023768D02*
X043293Y023792D01*
X043293Y023815D01*
X043269Y023838D01*
X043223Y023838D01*
X043199Y023815D01*
X043420Y023815D02*
X043444Y023838D01*
X043490Y023838D01*
X043514Y023815D01*
X043490Y023768D02*
X043467Y023768D01*
X041937Y023722D02*
X041937Y023815D01*
X041913Y023838D01*
X041843Y023838D01*
X041843Y023698D01*
X041913Y023698D01*
X041937Y023722D01*
X041937Y023815D01*
X041913Y023838D01*
X041843Y023838D01*
X041843Y023698D01*
X041913Y023698D01*
X041937Y023722D01*
X041789Y023698D02*
X041789Y023838D01*
X041789Y023698D01*
X041696Y023838D01*
X041696Y023698D01*
X041696Y023838D01*
X041789Y023698D01*
X041642Y023722D02*
X041642Y023768D01*
X041595Y023768D01*
X041642Y023768D01*
X041642Y023722D01*
X041619Y023698D01*
X041572Y023698D01*
X041549Y023722D01*
X041549Y023815D01*
X041572Y023838D01*
X041619Y023838D01*
X041642Y023815D01*
X041619Y023838D01*
X041572Y023838D01*
X041549Y023815D01*
X041549Y023722D01*
X041572Y023698D01*
X041619Y023698D01*
X041642Y023722D01*
X040702Y023698D02*
X040609Y023698D01*
X040609Y023838D01*
X040702Y023838D01*
X040656Y023768D02*
X040609Y023768D01*
X040555Y023745D02*
X040555Y023722D01*
X040532Y023698D01*
X040485Y023698D01*
X040461Y023722D01*
X040485Y023768D02*
X040532Y023768D01*
X040555Y023745D01*
X040555Y023815D02*
X040532Y023838D01*
X040485Y023838D01*
X040461Y023815D01*
X040461Y023792D01*
X040485Y023768D01*
X040408Y023698D02*
X040408Y023838D01*
X040314Y023838D02*
X040408Y023698D01*
X040314Y023698D02*
X040314Y023838D01*
X040260Y023838D02*
X040167Y023838D01*
X040167Y023698D01*
X040260Y023698D01*
X040214Y023768D02*
X040167Y023768D01*
X040113Y023745D02*
X040113Y023722D01*
X040090Y023698D01*
X040043Y023698D01*
X040020Y023722D01*
X040043Y023768D02*
X040090Y023768D01*
X040113Y023745D01*
X040113Y023815D02*
X040090Y023838D01*
X040043Y023838D01*
X040020Y023815D01*
X040020Y023792D01*
X040043Y023768D01*
X039966Y023675D02*
X039872Y023675D01*
X039772Y023698D02*
X039772Y023838D01*
X039818Y023838D02*
X039725Y023838D01*
X039671Y023792D02*
X039671Y023698D01*
X039671Y023768D02*
X039578Y023768D01*
X039578Y023792D02*
X039624Y023838D01*
X039671Y023792D01*
X039578Y023792D02*
X039578Y023698D01*
X039524Y023722D02*
X039500Y023698D01*
X039430Y023698D01*
X039430Y023838D01*
X039500Y023838D01*
X039524Y023815D01*
X039524Y023792D01*
X039500Y023768D01*
X039430Y023768D01*
X039376Y023745D02*
X039376Y023838D01*
X039376Y023745D02*
X039330Y023698D01*
X039283Y023745D01*
X039283Y023838D01*
X039500Y023768D02*
X039524Y023745D01*
X039524Y023722D01*
X038158Y023698D02*
X038064Y023698D01*
X038064Y023838D01*
X038010Y023815D02*
X038010Y023792D01*
X037987Y023768D01*
X037917Y023768D01*
X037917Y023698D02*
X037987Y023698D01*
X038010Y023722D01*
X038010Y023745D01*
X037987Y023768D01*
X038010Y023815D02*
X037987Y023838D01*
X037917Y023838D01*
X037917Y023698D01*
X037863Y023675D02*
X037770Y023675D01*
X037716Y023722D02*
X037716Y023815D01*
X037692Y023838D01*
X037622Y023838D01*
X037622Y023698D01*
X037692Y023698D01*
X037716Y023722D01*
X037568Y023722D02*
X037545Y023698D01*
X037498Y023698D01*
X037475Y023722D01*
X037475Y023815D01*
X037498Y023838D01*
X037545Y023838D01*
X037568Y023815D01*
X037421Y023698D02*
X037328Y023698D01*
X037328Y023838D01*
X045026Y019003D02*
X045026Y018979D01*
X045050Y018956D01*
X045096Y018956D01*
X045120Y018933D01*
X045120Y018909D01*
X045096Y018886D01*
X045050Y018886D01*
X045026Y018909D01*
X045026Y019003D02*
X045050Y019026D01*
X045096Y019026D01*
X045120Y019003D01*
X045174Y019026D02*
X045244Y019026D01*
X045267Y019003D01*
X045267Y018909D01*
X045244Y018886D01*
X045174Y018886D01*
X045174Y019026D01*
X045321Y018862D02*
X045414Y018862D01*
X045468Y018909D02*
X045492Y018886D01*
X045538Y018886D01*
X045562Y018909D01*
X045616Y018909D02*
X045639Y018886D01*
X045686Y018886D01*
X045709Y018909D01*
X045709Y018933D01*
X045686Y018956D01*
X045639Y018956D01*
X045616Y018979D01*
X045616Y019003D01*
X045639Y019026D01*
X045686Y019026D01*
X045709Y019003D01*
X045562Y019003D02*
X045538Y019026D01*
X045492Y019026D01*
X045468Y019003D01*
X045468Y018909D01*
X049100Y019870D02*
X049147Y019823D01*
X049193Y019870D01*
X049193Y019963D01*
X049247Y019963D02*
X049317Y019963D01*
X049341Y019940D01*
X049341Y019917D01*
X049317Y019893D01*
X049247Y019893D01*
X049247Y019823D02*
X049317Y019823D01*
X049341Y019847D01*
X049341Y019870D01*
X049317Y019893D01*
X049395Y019893D02*
X049488Y019893D01*
X049488Y019917D02*
X049488Y019823D01*
X049395Y019823D02*
X049395Y019917D01*
X049441Y019963D01*
X049488Y019917D01*
X049542Y019963D02*
X049635Y019963D01*
X049589Y019963D02*
X049589Y019823D01*
X049247Y019823D02*
X049247Y019963D01*
X049100Y019963D02*
X049100Y019870D01*
X050502Y018528D02*
X050642Y018528D01*
X050502Y018435D01*
X050642Y018435D01*
X050642Y018383D02*
X050642Y018336D01*
X050642Y018360D02*
X050502Y018360D01*
X050502Y018383D02*
X050502Y018336D01*
X050665Y018282D02*
X050665Y018189D01*
X050619Y018135D02*
X050642Y018112D01*
X050642Y018065D01*
X050619Y018042D01*
X050572Y018065D02*
X050572Y018112D01*
X050595Y018135D01*
X050619Y018135D01*
X050572Y018065D02*
X050549Y018042D01*
X050525Y018042D01*
X050502Y018065D01*
X050502Y018112D01*
X050525Y018135D01*
X050502Y017988D02*
X050619Y017988D01*
X050642Y017964D01*
X050642Y017918D01*
X050619Y017894D01*
X050502Y017894D01*
X050525Y017840D02*
X050549Y017840D01*
X050572Y017817D01*
X050572Y017747D01*
X050595Y017693D02*
X050502Y017693D01*
X050502Y017747D02*
X050502Y017817D01*
X050525Y017840D01*
X050572Y017817D02*
X050595Y017840D01*
X050619Y017840D01*
X050642Y017817D01*
X050642Y017747D01*
X050502Y017747D01*
X050595Y017693D02*
X050642Y017646D01*
X050595Y017600D01*
X050502Y017600D01*
X050102Y022300D02*
X050008Y022300D01*
X049908Y022323D02*
X049908Y022463D01*
X049954Y022463D02*
X049861Y022463D01*
X049807Y022463D02*
X049714Y022463D01*
X049760Y022463D02*
X049760Y022323D01*
X049660Y022323D02*
X049660Y022417D01*
X049613Y022463D01*
X049566Y022417D01*
X049566Y022323D01*
X049512Y022347D02*
X049489Y022323D01*
X049419Y022323D01*
X049419Y022463D01*
X049489Y022463D01*
X049512Y022440D01*
X049512Y022417D01*
X049489Y022393D01*
X049419Y022393D01*
X049489Y022393D02*
X049512Y022370D01*
X049512Y022347D01*
X049566Y022393D02*
X049660Y022393D01*
X050156Y022417D02*
X050179Y022393D01*
X050226Y022393D01*
X050249Y022370D01*
X050249Y022347D01*
X050226Y022323D01*
X050179Y022323D01*
X050156Y022347D01*
X050156Y022417D02*
X050156Y022440D01*
X050179Y022463D01*
X050226Y022463D01*
X050249Y022440D01*
X050303Y022463D02*
X050396Y022463D01*
X050350Y022463D02*
X050350Y022323D01*
X050450Y022323D02*
X050450Y022417D01*
X050497Y022463D01*
X050544Y022417D01*
X050544Y022323D01*
X050544Y022393D02*
X050450Y022393D01*
X050598Y022463D02*
X050691Y022463D01*
X050644Y022463D02*
X050644Y022323D01*
X038867Y017690D02*
X038844Y017713D01*
X038797Y017713D01*
X038774Y017690D01*
X038774Y017667D01*
X038797Y017643D01*
X038844Y017643D01*
X038867Y017620D01*
X038867Y017597D01*
X038844Y017573D01*
X038797Y017573D01*
X038774Y017597D01*
X038720Y017597D02*
X038697Y017573D01*
X038650Y017573D01*
X038627Y017597D01*
X038627Y017690D01*
X038650Y017713D01*
X038697Y017713D01*
X038720Y017690D01*
X038573Y017550D02*
X038479Y017550D01*
X038425Y017573D02*
X038425Y017713D01*
X038425Y017643D02*
X038332Y017643D01*
X038278Y017620D02*
X038278Y017597D01*
X038255Y017573D01*
X038208Y017573D01*
X038185Y017597D01*
X038208Y017643D02*
X038255Y017643D01*
X038278Y017620D01*
X038278Y017690D02*
X038255Y017713D01*
X038208Y017713D01*
X038185Y017690D01*
X038185Y017667D01*
X038208Y017643D01*
X038131Y017643D02*
X038037Y017643D01*
X038037Y017667D02*
X038084Y017713D01*
X038131Y017667D01*
X038131Y017573D01*
X038037Y017573D02*
X038037Y017667D01*
X037983Y017573D02*
X037890Y017573D01*
X037890Y017713D01*
X037836Y017713D02*
X037743Y017713D01*
X037743Y017573D01*
X037743Y017643D02*
X037789Y017643D01*
X038332Y017573D02*
X038332Y017713D01*
D14*
X040760Y017555D02*
X040760Y017531D01*
X044110Y022881D02*
X044110Y022905D01*
X040510Y025631D02*
X040510Y025655D01*
X043154Y026893D02*
X043178Y026893D01*
X043904Y026893D02*
X043928Y026893D01*
X045260Y027881D02*
X045260Y027905D01*
X046748Y026893D02*
X046772Y026893D01*
X047435Y026893D02*
X047459Y026893D01*
X048091Y026893D02*
X048115Y026893D01*
X045760Y029756D02*
X045760Y029780D01*
X046248Y030768D02*
X046272Y030768D01*
X045272Y030768D02*
X045248Y030768D01*
X039272Y030768D02*
X039248Y030768D01*
X038272Y030768D02*
X038248Y030768D01*
X038760Y029780D02*
X038760Y029756D01*
X035260Y032381D02*
X035260Y032405D01*
X032272Y030768D02*
X032248Y030768D01*
X031272Y030768D02*
X031248Y030768D01*
X031760Y029780D02*
X031760Y029756D01*
X032248Y026393D02*
X032272Y026393D01*
X032948Y026393D02*
X032972Y026393D01*
X029272Y024893D02*
X029248Y024893D01*
X033082Y023268D02*
X033106Y023268D01*
X033870Y023268D02*
X033894Y023268D01*
X030622Y021655D02*
X030622Y021631D01*
X023772Y017342D02*
X023748Y017342D01*
X022885Y022881D02*
X022885Y022905D01*
X021885Y024881D02*
X021885Y024905D01*
X021822Y026256D02*
X021822Y026280D01*
X025760Y028319D02*
X025760Y028343D01*
X024760Y029756D02*
X024760Y029780D01*
X025248Y030768D02*
X025272Y030768D01*
X024272Y030768D02*
X024248Y030768D01*
X050123Y021143D02*
X050147Y021143D01*
X051218Y022631D02*
X051218Y022655D01*
X050147Y017143D02*
X050123Y017143D01*
D15*
X048760Y021893D03*
X051218Y023393D03*
X052660Y022143D03*
X052660Y024893D03*
X047260Y029768D03*
X044260Y029768D03*
X040260Y029768D03*
X037260Y029768D03*
X033260Y029768D03*
X030260Y029768D03*
X026260Y029768D03*
X023260Y029768D03*
X021822Y027456D03*
X017860Y027893D03*
X017860Y030593D03*
X019260Y024361D03*
X019260Y023081D03*
X020978Y023275D03*
X020978Y023849D03*
X020885Y020143D03*
X022510Y020143D03*
X030622Y020831D03*
X052660Y030643D03*
D16*
X047760Y030768D03*
X043760Y030768D03*
X040760Y030768D03*
X036760Y030768D03*
X033760Y030768D03*
X029760Y030768D03*
X026760Y030768D03*
X022760Y030768D03*
X037510Y025893D03*
X038135Y025893D03*
X037031Y023268D03*
X042385Y026893D03*
X048760Y026893D03*
X049697Y023331D03*
X050322Y023331D03*
X050884Y021143D03*
X050885Y017143D03*
D17*
X049695Y017066D02*
X048575Y017066D01*
X048575Y017586D01*
X049695Y017586D01*
X049695Y017066D01*
X049320Y020482D02*
X048200Y020482D01*
X048200Y021002D01*
X049320Y021002D01*
X049320Y020482D01*
X049320Y022821D02*
X048200Y022821D01*
X048200Y023341D01*
X049320Y023341D01*
X049320Y022821D01*
X049320Y024633D02*
X048200Y024633D01*
X048200Y025153D01*
X049320Y025153D01*
X049320Y024633D01*
X041219Y025963D02*
X039800Y025963D01*
X039800Y027823D02*
X041219Y027823D01*
X035969Y029073D02*
X034550Y029073D01*
X034550Y025713D02*
X035969Y025713D01*
X035819Y033574D02*
X035782Y033574D01*
X035819Y033574D02*
X035819Y034212D01*
X035782Y034212D01*
X035465Y034212D02*
X035054Y034212D01*
X034737Y034212D02*
X034700Y034212D01*
X034700Y033574D01*
X034737Y033574D01*
X035054Y033574D02*
X035091Y033574D01*
X035428Y033574D02*
X035465Y033574D01*
X023070Y021528D02*
X021950Y021528D01*
X021950Y021008D01*
X023070Y021008D01*
X023070Y021528D01*
X021445Y021528D02*
X021445Y021008D01*
X020325Y021008D01*
X020325Y021528D01*
X021445Y021528D01*
D18*
X039535Y021164D03*
X040035Y021164D03*
X040535Y021164D03*
X041035Y021164D03*
X041035Y018573D03*
X040535Y018573D03*
X040035Y018573D03*
X039535Y018573D03*
D19*
X023421Y024893D02*
X023423Y024913D01*
X023428Y024933D01*
X023438Y024951D01*
X023450Y024968D01*
X023465Y024982D01*
X023483Y024992D01*
X023502Y025000D01*
X023522Y025004D01*
X023542Y025004D01*
X023562Y025000D01*
X023581Y024992D01*
X023599Y024982D01*
X023614Y024968D01*
X023626Y024951D01*
X023636Y024933D01*
X023641Y024913D01*
X023643Y024893D01*
X023641Y024873D01*
X023636Y024853D01*
X023626Y024835D01*
X023614Y024818D01*
X023599Y024804D01*
X023581Y024794D01*
X023562Y024786D01*
X023542Y024782D01*
X023522Y024782D01*
X023502Y024786D01*
X023483Y024794D01*
X023465Y024804D01*
X023450Y024818D01*
X023438Y024835D01*
X023428Y024853D01*
X023423Y024873D01*
X023421Y024893D01*
D20*
X022438Y017480D03*
M02*
