G75*
%MOIN*%
%OFA0B0*%
%FSLAX24Y24*%
%IPPOS*%
%LPD*%
%AMOC8*
5,1,8,0,0,1.08239X$1,22.5*
%
%ADD10C,0.0050*%
%ADD11C,0.0000*%
%ADD12R,0.0276X0.0669*%
%ADD13R,0.0472X0.0217*%
%ADD14R,0.0400X0.0370*%
%ADD15R,0.0217X0.0472*%
%ADD16R,0.0370X0.0400*%
%ADD17R,0.0870X0.0240*%
%ADD18R,0.1969X0.4567*%
%ADD19R,0.0600X0.0300*%
%ADD20R,0.0551X0.0551*%
%ADD21R,0.0531X0.0157*%
%ADD22C,0.0281*%
%ADD23R,0.0610X0.0648*%
%ADD24R,0.0610X0.0591*%
%ADD25R,0.1560X0.1560*%
%ADD26R,0.1250X0.1250*%
%ADD27R,0.0236X0.0866*%
%ADD28R,0.0315X0.0118*%
%ADD29R,0.0500X0.0500*%
%ADD30R,0.0300X0.0600*%
%ADD31R,0.0400X0.0600*%
%ADD32R,0.0600X0.0800*%
%ADD33R,0.0600X0.0600*%
%ADD34R,0.0394X0.0551*%
%ADD35R,0.0197X0.0591*%
%ADD36R,0.0866X0.0866*%
%ADD37R,0.0591X0.0197*%
%ADD38R,0.0138X0.0472*%
%ADD39R,0.1200X0.0500*%
D10*
X017760Y016393D02*
X052760Y016393D01*
X052836Y016395D01*
X052912Y016401D01*
X052987Y016410D01*
X053062Y016424D01*
X053136Y016441D01*
X053209Y016462D01*
X053281Y016486D01*
X053352Y016515D01*
X053421Y016546D01*
X053488Y016581D01*
X053553Y016620D01*
X053617Y016662D01*
X053678Y016707D01*
X053737Y016755D01*
X053793Y016806D01*
X053847Y016860D01*
X053898Y016916D01*
X053946Y016975D01*
X053991Y017036D01*
X054033Y017100D01*
X054072Y017165D01*
X054107Y017232D01*
X054138Y017301D01*
X054167Y017372D01*
X054191Y017444D01*
X054212Y017517D01*
X054229Y017591D01*
X054243Y017666D01*
X054252Y017741D01*
X054258Y017817D01*
X054260Y017893D01*
X054260Y030200D01*
X053649Y030200D01*
X053649Y030201D02*
X053624Y030203D01*
X053599Y030208D01*
X053575Y030217D01*
X053553Y030229D01*
X053533Y030244D01*
X053515Y030262D01*
X053500Y030282D01*
X053488Y030304D01*
X053479Y030328D01*
X053474Y030353D01*
X053472Y030378D01*
X053474Y030403D01*
X053479Y030428D01*
X053488Y030452D01*
X053500Y030474D01*
X053515Y030494D01*
X053533Y030512D01*
X053553Y030527D01*
X053575Y030539D01*
X053599Y030548D01*
X053624Y030553D01*
X053649Y030555D01*
X054260Y030555D01*
X054260Y034893D01*
X054258Y034969D01*
X054252Y035045D01*
X054243Y035120D01*
X054229Y035195D01*
X054212Y035269D01*
X054191Y035342D01*
X054167Y035414D01*
X054138Y035485D01*
X054107Y035554D01*
X054072Y035621D01*
X054033Y035686D01*
X053991Y035750D01*
X053946Y035811D01*
X053898Y035870D01*
X053847Y035926D01*
X053793Y035980D01*
X053737Y036031D01*
X053678Y036079D01*
X053617Y036124D01*
X053553Y036166D01*
X053488Y036205D01*
X053421Y036240D01*
X053352Y036271D01*
X053281Y036300D01*
X053209Y036324D01*
X053136Y036345D01*
X053062Y036362D01*
X052987Y036376D01*
X052912Y036385D01*
X052836Y036391D01*
X052760Y036393D01*
X017760Y036393D01*
X017684Y036391D01*
X017608Y036385D01*
X017533Y036376D01*
X017458Y036362D01*
X017384Y036345D01*
X017311Y036324D01*
X017239Y036300D01*
X017168Y036271D01*
X017099Y036240D01*
X017032Y036205D01*
X016967Y036166D01*
X016903Y036124D01*
X016842Y036079D01*
X016783Y036031D01*
X016727Y035980D01*
X016673Y035926D01*
X016622Y035870D01*
X016574Y035811D01*
X016529Y035750D01*
X016487Y035686D01*
X016448Y035621D01*
X016413Y035554D01*
X016382Y035485D01*
X016353Y035414D01*
X016329Y035342D01*
X016308Y035269D01*
X016291Y035195D01*
X016277Y035120D01*
X016268Y035045D01*
X016262Y034969D01*
X016260Y034893D01*
X016260Y030555D01*
X016870Y030555D01*
X016895Y030553D01*
X016920Y030548D01*
X016944Y030539D01*
X016966Y030527D01*
X016986Y030512D01*
X017004Y030494D01*
X017019Y030474D01*
X017031Y030452D01*
X017040Y030428D01*
X017045Y030403D01*
X017047Y030378D01*
X017045Y030353D01*
X017040Y030328D01*
X017031Y030304D01*
X017019Y030282D01*
X017004Y030262D01*
X016986Y030244D01*
X016966Y030229D01*
X016944Y030217D01*
X016920Y030208D01*
X016895Y030203D01*
X016870Y030201D01*
X016870Y030200D02*
X016260Y030200D01*
X016260Y017893D01*
X016262Y017817D01*
X016268Y017741D01*
X016277Y017666D01*
X016291Y017591D01*
X016308Y017517D01*
X016329Y017444D01*
X016353Y017372D01*
X016382Y017301D01*
X016413Y017232D01*
X016448Y017165D01*
X016487Y017100D01*
X016529Y017036D01*
X016574Y016975D01*
X016622Y016916D01*
X016673Y016860D01*
X016727Y016806D01*
X016783Y016755D01*
X016842Y016707D01*
X016903Y016662D01*
X016967Y016620D01*
X017032Y016581D01*
X017099Y016546D01*
X017168Y016515D01*
X017239Y016486D01*
X017311Y016462D01*
X017384Y016441D01*
X017458Y016424D01*
X017533Y016410D01*
X017608Y016401D01*
X017684Y016395D01*
X017760Y016393D01*
D11*
X016874Y017893D02*
X016876Y017952D01*
X016882Y018011D01*
X016892Y018069D01*
X016905Y018127D01*
X016923Y018184D01*
X016944Y018239D01*
X016969Y018293D01*
X016998Y018345D01*
X017030Y018394D01*
X017065Y018442D01*
X017103Y018487D01*
X017144Y018530D01*
X017188Y018570D01*
X017234Y018606D01*
X017283Y018640D01*
X017334Y018670D01*
X017387Y018697D01*
X017442Y018720D01*
X017497Y018739D01*
X017555Y018755D01*
X017613Y018767D01*
X017671Y018775D01*
X017730Y018779D01*
X017790Y018779D01*
X017849Y018775D01*
X017907Y018767D01*
X017965Y018755D01*
X018023Y018739D01*
X018078Y018720D01*
X018133Y018697D01*
X018186Y018670D01*
X018237Y018640D01*
X018286Y018606D01*
X018332Y018570D01*
X018376Y018530D01*
X018417Y018487D01*
X018455Y018442D01*
X018490Y018394D01*
X018522Y018345D01*
X018551Y018293D01*
X018576Y018239D01*
X018597Y018184D01*
X018615Y018127D01*
X018628Y018069D01*
X018638Y018011D01*
X018644Y017952D01*
X018646Y017893D01*
X018644Y017834D01*
X018638Y017775D01*
X018628Y017717D01*
X018615Y017659D01*
X018597Y017602D01*
X018576Y017547D01*
X018551Y017493D01*
X018522Y017441D01*
X018490Y017392D01*
X018455Y017344D01*
X018417Y017299D01*
X018376Y017256D01*
X018332Y017216D01*
X018286Y017180D01*
X018237Y017146D01*
X018186Y017116D01*
X018133Y017089D01*
X018078Y017066D01*
X018023Y017047D01*
X017965Y017031D01*
X017907Y017019D01*
X017849Y017011D01*
X017790Y017007D01*
X017730Y017007D01*
X017671Y017011D01*
X017613Y017019D01*
X017555Y017031D01*
X017497Y017047D01*
X017442Y017066D01*
X017387Y017089D01*
X017334Y017116D01*
X017283Y017146D01*
X017234Y017180D01*
X017188Y017216D01*
X017144Y017256D01*
X017103Y017299D01*
X017065Y017344D01*
X017030Y017392D01*
X016998Y017441D01*
X016969Y017493D01*
X016944Y017547D01*
X016923Y017602D01*
X016905Y017659D01*
X016892Y017717D01*
X016882Y017775D01*
X016876Y017834D01*
X016874Y017893D01*
X021086Y019011D02*
X021088Y019050D01*
X021094Y019089D01*
X021104Y019127D01*
X021117Y019164D01*
X021134Y019199D01*
X021154Y019233D01*
X021178Y019264D01*
X021205Y019293D01*
X021234Y019319D01*
X021266Y019342D01*
X021300Y019362D01*
X021336Y019378D01*
X021373Y019390D01*
X021412Y019399D01*
X021451Y019404D01*
X021490Y019405D01*
X021529Y019402D01*
X021568Y019395D01*
X021605Y019384D01*
X021642Y019370D01*
X021677Y019352D01*
X021710Y019331D01*
X021741Y019306D01*
X021769Y019279D01*
X021794Y019249D01*
X021816Y019216D01*
X021835Y019182D01*
X021850Y019146D01*
X021862Y019108D01*
X021870Y019070D01*
X021874Y019031D01*
X021874Y018991D01*
X021870Y018952D01*
X021862Y018914D01*
X021850Y018876D01*
X021835Y018840D01*
X021816Y018806D01*
X021794Y018773D01*
X021769Y018743D01*
X021741Y018716D01*
X021710Y018691D01*
X021677Y018670D01*
X021642Y018652D01*
X021605Y018638D01*
X021568Y018627D01*
X021529Y018620D01*
X021490Y018617D01*
X021451Y018618D01*
X021412Y018623D01*
X021373Y018632D01*
X021336Y018644D01*
X021300Y018660D01*
X021266Y018680D01*
X021234Y018703D01*
X021205Y018729D01*
X021178Y018758D01*
X021154Y018789D01*
X021134Y018823D01*
X021117Y018858D01*
X021104Y018895D01*
X021094Y018933D01*
X021088Y018972D01*
X021086Y019011D01*
X021086Y033775D02*
X021088Y033814D01*
X021094Y033853D01*
X021104Y033891D01*
X021117Y033928D01*
X021134Y033963D01*
X021154Y033997D01*
X021178Y034028D01*
X021205Y034057D01*
X021234Y034083D01*
X021266Y034106D01*
X021300Y034126D01*
X021336Y034142D01*
X021373Y034154D01*
X021412Y034163D01*
X021451Y034168D01*
X021490Y034169D01*
X021529Y034166D01*
X021568Y034159D01*
X021605Y034148D01*
X021642Y034134D01*
X021677Y034116D01*
X021710Y034095D01*
X021741Y034070D01*
X021769Y034043D01*
X021794Y034013D01*
X021816Y033980D01*
X021835Y033946D01*
X021850Y033910D01*
X021862Y033872D01*
X021870Y033834D01*
X021874Y033795D01*
X021874Y033755D01*
X021870Y033716D01*
X021862Y033678D01*
X021850Y033640D01*
X021835Y033604D01*
X021816Y033570D01*
X021794Y033537D01*
X021769Y033507D01*
X021741Y033480D01*
X021710Y033455D01*
X021677Y033434D01*
X021642Y033416D01*
X021605Y033402D01*
X021568Y033391D01*
X021529Y033384D01*
X021490Y033381D01*
X021451Y033382D01*
X021412Y033387D01*
X021373Y033396D01*
X021336Y033408D01*
X021300Y033424D01*
X021266Y033444D01*
X021234Y033467D01*
X021205Y033493D01*
X021178Y033522D01*
X021154Y033553D01*
X021134Y033587D01*
X021117Y033622D01*
X021104Y033659D01*
X021094Y033697D01*
X021088Y033736D01*
X021086Y033775D01*
X016874Y034893D02*
X016876Y034952D01*
X016882Y035011D01*
X016892Y035069D01*
X016905Y035127D01*
X016923Y035184D01*
X016944Y035239D01*
X016969Y035293D01*
X016998Y035345D01*
X017030Y035394D01*
X017065Y035442D01*
X017103Y035487D01*
X017144Y035530D01*
X017188Y035570D01*
X017234Y035606D01*
X017283Y035640D01*
X017334Y035670D01*
X017387Y035697D01*
X017442Y035720D01*
X017497Y035739D01*
X017555Y035755D01*
X017613Y035767D01*
X017671Y035775D01*
X017730Y035779D01*
X017790Y035779D01*
X017849Y035775D01*
X017907Y035767D01*
X017965Y035755D01*
X018023Y035739D01*
X018078Y035720D01*
X018133Y035697D01*
X018186Y035670D01*
X018237Y035640D01*
X018286Y035606D01*
X018332Y035570D01*
X018376Y035530D01*
X018417Y035487D01*
X018455Y035442D01*
X018490Y035394D01*
X018522Y035345D01*
X018551Y035293D01*
X018576Y035239D01*
X018597Y035184D01*
X018615Y035127D01*
X018628Y035069D01*
X018638Y035011D01*
X018644Y034952D01*
X018646Y034893D01*
X018644Y034834D01*
X018638Y034775D01*
X018628Y034717D01*
X018615Y034659D01*
X018597Y034602D01*
X018576Y034547D01*
X018551Y034493D01*
X018522Y034441D01*
X018490Y034392D01*
X018455Y034344D01*
X018417Y034299D01*
X018376Y034256D01*
X018332Y034216D01*
X018286Y034180D01*
X018237Y034146D01*
X018186Y034116D01*
X018133Y034089D01*
X018078Y034066D01*
X018023Y034047D01*
X017965Y034031D01*
X017907Y034019D01*
X017849Y034011D01*
X017790Y034007D01*
X017730Y034007D01*
X017671Y034011D01*
X017613Y034019D01*
X017555Y034031D01*
X017497Y034047D01*
X017442Y034066D01*
X017387Y034089D01*
X017334Y034116D01*
X017283Y034146D01*
X017234Y034180D01*
X017188Y034216D01*
X017144Y034256D01*
X017103Y034299D01*
X017065Y034344D01*
X017030Y034392D01*
X016998Y034441D01*
X016969Y034493D01*
X016944Y034547D01*
X016923Y034602D01*
X016905Y034659D01*
X016892Y034717D01*
X016882Y034775D01*
X016876Y034834D01*
X016874Y034893D01*
X042911Y017729D02*
X042913Y017755D01*
X042919Y017781D01*
X042928Y017805D01*
X042941Y017828D01*
X042958Y017848D01*
X042977Y017866D01*
X042999Y017881D01*
X043022Y017892D01*
X043047Y017900D01*
X043073Y017904D01*
X043099Y017904D01*
X043125Y017900D01*
X043150Y017892D01*
X043174Y017881D01*
X043195Y017866D01*
X043214Y017848D01*
X043231Y017828D01*
X043244Y017805D01*
X043253Y017781D01*
X043259Y017755D01*
X043261Y017729D01*
X043259Y017703D01*
X043253Y017677D01*
X043244Y017653D01*
X043231Y017630D01*
X043214Y017610D01*
X043195Y017592D01*
X043173Y017577D01*
X043150Y017566D01*
X043125Y017558D01*
X043099Y017554D01*
X043073Y017554D01*
X043047Y017558D01*
X043022Y017566D01*
X042998Y017577D01*
X042977Y017592D01*
X042958Y017610D01*
X042941Y017630D01*
X042928Y017653D01*
X042919Y017677D01*
X042913Y017703D01*
X042911Y017729D01*
X046060Y017729D02*
X046062Y017755D01*
X046068Y017781D01*
X046077Y017805D01*
X046090Y017828D01*
X046107Y017848D01*
X046126Y017866D01*
X046148Y017881D01*
X046171Y017892D01*
X046196Y017900D01*
X046222Y017904D01*
X046248Y017904D01*
X046274Y017900D01*
X046299Y017892D01*
X046323Y017881D01*
X046344Y017866D01*
X046363Y017848D01*
X046380Y017828D01*
X046393Y017805D01*
X046402Y017781D01*
X046408Y017755D01*
X046410Y017729D01*
X046408Y017703D01*
X046402Y017677D01*
X046393Y017653D01*
X046380Y017630D01*
X046363Y017610D01*
X046344Y017592D01*
X046322Y017577D01*
X046299Y017566D01*
X046274Y017558D01*
X046248Y017554D01*
X046222Y017554D01*
X046196Y017558D01*
X046171Y017566D01*
X046147Y017577D01*
X046126Y017592D01*
X046107Y017610D01*
X046090Y017630D01*
X046077Y017653D01*
X046068Y017677D01*
X046062Y017703D01*
X046060Y017729D01*
X048645Y019011D02*
X048647Y019050D01*
X048653Y019089D01*
X048663Y019127D01*
X048676Y019164D01*
X048693Y019199D01*
X048713Y019233D01*
X048737Y019264D01*
X048764Y019293D01*
X048793Y019319D01*
X048825Y019342D01*
X048859Y019362D01*
X048895Y019378D01*
X048932Y019390D01*
X048971Y019399D01*
X049010Y019404D01*
X049049Y019405D01*
X049088Y019402D01*
X049127Y019395D01*
X049164Y019384D01*
X049201Y019370D01*
X049236Y019352D01*
X049269Y019331D01*
X049300Y019306D01*
X049328Y019279D01*
X049353Y019249D01*
X049375Y019216D01*
X049394Y019182D01*
X049409Y019146D01*
X049421Y019108D01*
X049429Y019070D01*
X049433Y019031D01*
X049433Y018991D01*
X049429Y018952D01*
X049421Y018914D01*
X049409Y018876D01*
X049394Y018840D01*
X049375Y018806D01*
X049353Y018773D01*
X049328Y018743D01*
X049300Y018716D01*
X049269Y018691D01*
X049236Y018670D01*
X049201Y018652D01*
X049164Y018638D01*
X049127Y018627D01*
X049088Y018620D01*
X049049Y018617D01*
X049010Y018618D01*
X048971Y018623D01*
X048932Y018632D01*
X048895Y018644D01*
X048859Y018660D01*
X048825Y018680D01*
X048793Y018703D01*
X048764Y018729D01*
X048737Y018758D01*
X048713Y018789D01*
X048693Y018823D01*
X048676Y018858D01*
X048663Y018895D01*
X048653Y018933D01*
X048647Y018972D01*
X048645Y019011D01*
X051874Y017893D02*
X051876Y017952D01*
X051882Y018011D01*
X051892Y018069D01*
X051905Y018127D01*
X051923Y018184D01*
X051944Y018239D01*
X051969Y018293D01*
X051998Y018345D01*
X052030Y018394D01*
X052065Y018442D01*
X052103Y018487D01*
X052144Y018530D01*
X052188Y018570D01*
X052234Y018606D01*
X052283Y018640D01*
X052334Y018670D01*
X052387Y018697D01*
X052442Y018720D01*
X052497Y018739D01*
X052555Y018755D01*
X052613Y018767D01*
X052671Y018775D01*
X052730Y018779D01*
X052790Y018779D01*
X052849Y018775D01*
X052907Y018767D01*
X052965Y018755D01*
X053023Y018739D01*
X053078Y018720D01*
X053133Y018697D01*
X053186Y018670D01*
X053237Y018640D01*
X053286Y018606D01*
X053332Y018570D01*
X053376Y018530D01*
X053417Y018487D01*
X053455Y018442D01*
X053490Y018394D01*
X053522Y018345D01*
X053551Y018293D01*
X053576Y018239D01*
X053597Y018184D01*
X053615Y018127D01*
X053628Y018069D01*
X053638Y018011D01*
X053644Y017952D01*
X053646Y017893D01*
X053644Y017834D01*
X053638Y017775D01*
X053628Y017717D01*
X053615Y017659D01*
X053597Y017602D01*
X053576Y017547D01*
X053551Y017493D01*
X053522Y017441D01*
X053490Y017392D01*
X053455Y017344D01*
X053417Y017299D01*
X053376Y017256D01*
X053332Y017216D01*
X053286Y017180D01*
X053237Y017146D01*
X053186Y017116D01*
X053133Y017089D01*
X053078Y017066D01*
X053023Y017047D01*
X052965Y017031D01*
X052907Y017019D01*
X052849Y017011D01*
X052790Y017007D01*
X052730Y017007D01*
X052671Y017011D01*
X052613Y017019D01*
X052555Y017031D01*
X052497Y017047D01*
X052442Y017066D01*
X052387Y017089D01*
X052334Y017116D01*
X052283Y017146D01*
X052234Y017180D01*
X052188Y017216D01*
X052144Y017256D01*
X052103Y017299D01*
X052065Y017344D01*
X052030Y017392D01*
X051998Y017441D01*
X051969Y017493D01*
X051944Y017547D01*
X051923Y017602D01*
X051905Y017659D01*
X051892Y017717D01*
X051882Y017775D01*
X051876Y017834D01*
X051874Y017893D01*
X048645Y033775D02*
X048647Y033814D01*
X048653Y033853D01*
X048663Y033891D01*
X048676Y033928D01*
X048693Y033963D01*
X048713Y033997D01*
X048737Y034028D01*
X048764Y034057D01*
X048793Y034083D01*
X048825Y034106D01*
X048859Y034126D01*
X048895Y034142D01*
X048932Y034154D01*
X048971Y034163D01*
X049010Y034168D01*
X049049Y034169D01*
X049088Y034166D01*
X049127Y034159D01*
X049164Y034148D01*
X049201Y034134D01*
X049236Y034116D01*
X049269Y034095D01*
X049300Y034070D01*
X049328Y034043D01*
X049353Y034013D01*
X049375Y033980D01*
X049394Y033946D01*
X049409Y033910D01*
X049421Y033872D01*
X049429Y033834D01*
X049433Y033795D01*
X049433Y033755D01*
X049429Y033716D01*
X049421Y033678D01*
X049409Y033640D01*
X049394Y033604D01*
X049375Y033570D01*
X049353Y033537D01*
X049328Y033507D01*
X049300Y033480D01*
X049269Y033455D01*
X049236Y033434D01*
X049201Y033416D01*
X049164Y033402D01*
X049127Y033391D01*
X049088Y033384D01*
X049049Y033381D01*
X049010Y033382D01*
X048971Y033387D01*
X048932Y033396D01*
X048895Y033408D01*
X048859Y033424D01*
X048825Y033444D01*
X048793Y033467D01*
X048764Y033493D01*
X048737Y033522D01*
X048713Y033553D01*
X048693Y033587D01*
X048676Y033622D01*
X048663Y033659D01*
X048653Y033697D01*
X048647Y033736D01*
X048645Y033775D01*
X051874Y034893D02*
X051876Y034952D01*
X051882Y035011D01*
X051892Y035069D01*
X051905Y035127D01*
X051923Y035184D01*
X051944Y035239D01*
X051969Y035293D01*
X051998Y035345D01*
X052030Y035394D01*
X052065Y035442D01*
X052103Y035487D01*
X052144Y035530D01*
X052188Y035570D01*
X052234Y035606D01*
X052283Y035640D01*
X052334Y035670D01*
X052387Y035697D01*
X052442Y035720D01*
X052497Y035739D01*
X052555Y035755D01*
X052613Y035767D01*
X052671Y035775D01*
X052730Y035779D01*
X052790Y035779D01*
X052849Y035775D01*
X052907Y035767D01*
X052965Y035755D01*
X053023Y035739D01*
X053078Y035720D01*
X053133Y035697D01*
X053186Y035670D01*
X053237Y035640D01*
X053286Y035606D01*
X053332Y035570D01*
X053376Y035530D01*
X053417Y035487D01*
X053455Y035442D01*
X053490Y035394D01*
X053522Y035345D01*
X053551Y035293D01*
X053576Y035239D01*
X053597Y035184D01*
X053615Y035127D01*
X053628Y035069D01*
X053638Y035011D01*
X053644Y034952D01*
X053646Y034893D01*
X053644Y034834D01*
X053638Y034775D01*
X053628Y034717D01*
X053615Y034659D01*
X053597Y034602D01*
X053576Y034547D01*
X053551Y034493D01*
X053522Y034441D01*
X053490Y034392D01*
X053455Y034344D01*
X053417Y034299D01*
X053376Y034256D01*
X053332Y034216D01*
X053286Y034180D01*
X053237Y034146D01*
X053186Y034116D01*
X053133Y034089D01*
X053078Y034066D01*
X053023Y034047D01*
X052965Y034031D01*
X052907Y034019D01*
X052849Y034011D01*
X052790Y034007D01*
X052730Y034007D01*
X052671Y034011D01*
X052613Y034019D01*
X052555Y034031D01*
X052497Y034047D01*
X052442Y034066D01*
X052387Y034089D01*
X052334Y034116D01*
X052283Y034146D01*
X052234Y034180D01*
X052188Y034216D01*
X052144Y034256D01*
X052103Y034299D01*
X052065Y034344D01*
X052030Y034392D01*
X051998Y034441D01*
X051969Y034493D01*
X051944Y034547D01*
X051923Y034602D01*
X051905Y034659D01*
X051892Y034717D01*
X051882Y034775D01*
X051876Y034834D01*
X051874Y034893D01*
D12*
X029232Y022206D03*
X028760Y022206D03*
X028287Y022206D03*
D13*
X044748Y026519D03*
X044748Y027267D03*
X045771Y027267D03*
X045771Y026893D03*
X045771Y026519D03*
D14*
X046760Y026559D03*
X047447Y026559D03*
X048103Y026559D03*
X048760Y026559D03*
X048760Y027228D03*
X048103Y027228D03*
X047447Y027228D03*
X046760Y027228D03*
X043916Y027228D03*
X043166Y027228D03*
X043166Y026559D03*
X043916Y026559D03*
X042385Y026559D03*
X042385Y027228D03*
X043760Y030434D03*
X043760Y031103D03*
X045260Y031103D03*
X045260Y030434D03*
X046260Y030434D03*
X046260Y031103D03*
X047760Y031103D03*
X047760Y030434D03*
X040760Y030434D03*
X040760Y031103D03*
X039260Y031103D03*
X038260Y031103D03*
X038260Y030434D03*
X039260Y030434D03*
X036760Y030434D03*
X036760Y031103D03*
X033760Y031103D03*
X033760Y030434D03*
X032260Y030434D03*
X032260Y031103D03*
X031260Y031103D03*
X031260Y030434D03*
X029760Y030434D03*
X029760Y031103D03*
X026760Y031103D03*
X026760Y030434D03*
X025260Y030434D03*
X024260Y030434D03*
X024260Y031103D03*
X025260Y031103D03*
X022760Y031103D03*
X022760Y030434D03*
X029260Y025228D03*
X029260Y024559D03*
X032260Y026059D03*
X032960Y026059D03*
X032960Y026728D03*
X032260Y026728D03*
X033094Y023603D03*
X033882Y023603D03*
X033882Y022934D03*
X033094Y022934D03*
X037031Y022934D03*
X037031Y023603D03*
X037510Y025559D03*
X038135Y025559D03*
X038135Y026228D03*
X037510Y026228D03*
X049697Y023665D03*
X050322Y023665D03*
X050322Y022996D03*
X049697Y022996D03*
X050135Y021478D03*
X050884Y021478D03*
X050884Y020809D03*
X050135Y020809D03*
X050135Y017478D03*
X050885Y017478D03*
X050885Y016809D03*
X050135Y016809D03*
X023760Y017007D03*
X023760Y017677D03*
D15*
X034885Y033381D03*
X035260Y033381D03*
X035634Y033381D03*
X035634Y034405D03*
X034885Y034405D03*
X050135Y019655D03*
X050510Y019655D03*
X050884Y019655D03*
X050884Y018631D03*
X050135Y018631D03*
D16*
X049094Y021893D03*
X048425Y021893D03*
X050884Y022643D03*
X051553Y022643D03*
X052325Y022143D03*
X052994Y022143D03*
X051553Y023393D03*
X050884Y023393D03*
X052325Y024893D03*
X052994Y024893D03*
X047594Y029768D03*
X046925Y029768D03*
X046094Y029768D03*
X045425Y029768D03*
X044594Y029768D03*
X043925Y029768D03*
X044925Y027893D03*
X045594Y027893D03*
X040844Y025643D03*
X040175Y025643D03*
X043775Y022893D03*
X044444Y022893D03*
X041094Y017543D03*
X040425Y017543D03*
X030957Y020831D03*
X030287Y020831D03*
X030287Y021643D03*
X030957Y021643D03*
X023219Y022893D03*
X022550Y022893D03*
X021313Y023275D03*
X021313Y023849D03*
X020644Y023849D03*
X020644Y023275D03*
X019594Y023081D03*
X018925Y023081D03*
X018925Y024361D03*
X019594Y024361D03*
X021550Y024893D03*
X022219Y024893D03*
X022157Y026268D03*
X021487Y026268D03*
X021487Y027456D03*
X022157Y027456D03*
X022925Y029768D03*
X023594Y029768D03*
X024425Y029768D03*
X025094Y029768D03*
X025925Y029768D03*
X026594Y029768D03*
X026094Y028331D03*
X025425Y028331D03*
X029925Y029768D03*
X030594Y029768D03*
X031425Y029768D03*
X032094Y029768D03*
X032925Y029768D03*
X033594Y029768D03*
X036925Y029768D03*
X037594Y029768D03*
X038425Y029768D03*
X039094Y029768D03*
X039925Y029768D03*
X040594Y029768D03*
X035594Y032393D03*
X034925Y032393D03*
X018194Y030593D03*
X017525Y030593D03*
X017525Y027893D03*
X018194Y027893D03*
X020550Y020143D03*
X021219Y020143D03*
X022175Y020143D03*
X022844Y020143D03*
X052325Y030643D03*
X052994Y030643D03*
D17*
X041540Y027643D03*
X041540Y027143D03*
X041540Y026643D03*
X041540Y026143D03*
X039480Y026143D03*
X039480Y026643D03*
X039480Y027143D03*
X039480Y027643D03*
X036290Y027393D03*
X036290Y026893D03*
X036290Y026393D03*
X036290Y025893D03*
X034230Y025893D03*
X034230Y026393D03*
X034230Y026893D03*
X034230Y027393D03*
X034230Y027893D03*
X034230Y028393D03*
X034230Y028893D03*
X036290Y028893D03*
X036290Y028393D03*
X036290Y027893D03*
D18*
X037480Y033893D03*
X040039Y033893D03*
X044480Y033893D03*
X047039Y033893D03*
X033039Y033893D03*
X030480Y033893D03*
X026039Y033893D03*
X023480Y033893D03*
D19*
X018860Y032843D03*
X016860Y032843D03*
X016860Y031343D03*
X018860Y031343D03*
X018860Y027143D03*
X016860Y027143D03*
X016860Y025643D03*
X018860Y025643D03*
X018860Y021443D03*
X016860Y021443D03*
X016860Y019943D03*
X018860Y019943D03*
X051660Y019943D03*
X051660Y021443D03*
X053660Y021443D03*
X053660Y019943D03*
X053660Y025643D03*
X053660Y027143D03*
X051660Y027143D03*
X051660Y025643D03*
X051660Y031343D03*
X051660Y032843D03*
X053660Y032843D03*
X053660Y031343D03*
D20*
X021914Y016893D03*
X020418Y016893D03*
D21*
X017823Y023081D03*
X017823Y023337D03*
X017823Y023593D03*
X017823Y023849D03*
X017823Y024105D03*
D22*
X017776Y024472D02*
X017776Y024684D01*
X017870Y024684D01*
X017870Y024472D01*
X017776Y024472D01*
X017776Y022715D02*
X017776Y022503D01*
X017776Y022715D02*
X017870Y022715D01*
X017870Y022503D01*
X017776Y022503D01*
D23*
X016760Y022364D03*
X016760Y024823D03*
D24*
X016760Y023987D03*
X016760Y023200D03*
D25*
X027885Y018643D03*
D26*
X030985Y018643D03*
X024785Y018643D03*
D27*
X039535Y018557D03*
X040035Y018557D03*
X040535Y018557D03*
X041035Y018557D03*
X041035Y021179D03*
X040535Y021179D03*
X040035Y021179D03*
X039535Y021179D03*
D28*
G36*
X027333Y024795D02*
X027554Y024574D01*
X027471Y024491D01*
X027250Y024712D01*
X027333Y024795D01*
G37*
G36*
X027194Y024656D02*
X027415Y024435D01*
X027332Y024352D01*
X027111Y024573D01*
X027194Y024656D01*
G37*
G36*
X027055Y024516D02*
X027276Y024295D01*
X027193Y024212D01*
X026972Y024433D01*
X027055Y024516D01*
G37*
G36*
X026915Y024377D02*
X027136Y024156D01*
X027053Y024073D01*
X026832Y024294D01*
X026915Y024377D01*
G37*
G36*
X026776Y024238D02*
X026997Y024017D01*
X026914Y023934D01*
X026693Y024155D01*
X026776Y024238D01*
G37*
G36*
X026775Y023795D02*
X026554Y024016D01*
X026637Y024099D01*
X026858Y023878D01*
X026775Y023795D01*
G37*
G36*
X026636Y023656D02*
X026415Y023877D01*
X026498Y023960D01*
X026719Y023739D01*
X026636Y023656D01*
G37*
G36*
X026497Y023516D02*
X026276Y023737D01*
X026359Y023820D01*
X026580Y023599D01*
X026497Y023516D01*
G37*
G36*
X026357Y023377D02*
X026136Y023598D01*
X026219Y023681D01*
X026440Y023460D01*
X026357Y023377D01*
G37*
G36*
X026218Y023238D02*
X025997Y023459D01*
X026080Y023542D01*
X026301Y023321D01*
X026218Y023238D01*
G37*
G36*
X026079Y023099D02*
X025858Y023320D01*
X025941Y023403D01*
X026162Y023182D01*
X026079Y023099D01*
G37*
G36*
X025661Y023320D02*
X025440Y023099D01*
X025357Y023182D01*
X025578Y023403D01*
X025661Y023320D01*
G37*
G36*
X025522Y023459D02*
X025301Y023238D01*
X025218Y023321D01*
X025439Y023542D01*
X025522Y023459D01*
G37*
G36*
X025383Y023598D02*
X025162Y023377D01*
X025079Y023460D01*
X025300Y023681D01*
X025383Y023598D01*
G37*
G36*
X025243Y023737D02*
X025022Y023516D01*
X024939Y023599D01*
X025160Y023820D01*
X025243Y023737D01*
G37*
G36*
X025104Y023877D02*
X024883Y023656D01*
X024800Y023739D01*
X025021Y023960D01*
X025104Y023877D01*
G37*
G36*
X024661Y023878D02*
X024882Y024099D01*
X024965Y024016D01*
X024744Y023795D01*
X024661Y023878D01*
G37*
G36*
X024522Y024017D02*
X024743Y024238D01*
X024826Y024155D01*
X024605Y023934D01*
X024522Y024017D01*
G37*
G36*
X024383Y024156D02*
X024604Y024377D01*
X024687Y024294D01*
X024466Y024073D01*
X024383Y024156D01*
G37*
G36*
X024243Y024295D02*
X024464Y024516D01*
X024547Y024433D01*
X024326Y024212D01*
X024243Y024295D01*
G37*
G36*
X024104Y024435D02*
X024325Y024656D01*
X024408Y024573D01*
X024187Y024352D01*
X024104Y024435D01*
G37*
G36*
X023965Y024574D02*
X024186Y024795D01*
X024269Y024712D01*
X024048Y024491D01*
X023965Y024574D01*
G37*
G36*
X024186Y024992D02*
X023965Y025213D01*
X024048Y025296D01*
X024269Y025075D01*
X024186Y024992D01*
G37*
G36*
X024325Y025131D02*
X024104Y025352D01*
X024187Y025435D01*
X024408Y025214D01*
X024325Y025131D01*
G37*
G36*
X024464Y025270D02*
X024243Y025491D01*
X024326Y025574D01*
X024547Y025353D01*
X024464Y025270D01*
G37*
G36*
X024604Y025409D02*
X024383Y025630D01*
X024466Y025713D01*
X024687Y025492D01*
X024604Y025409D01*
G37*
G36*
X024743Y025549D02*
X024522Y025770D01*
X024605Y025853D01*
X024826Y025632D01*
X024743Y025549D01*
G37*
G36*
X024744Y025992D02*
X024965Y025771D01*
X024882Y025688D01*
X024661Y025909D01*
X024744Y025992D01*
G37*
G36*
X024883Y026131D02*
X025104Y025910D01*
X025021Y025827D01*
X024800Y026048D01*
X024883Y026131D01*
G37*
G36*
X025022Y026270D02*
X025243Y026049D01*
X025160Y025966D01*
X024939Y026187D01*
X025022Y026270D01*
G37*
G36*
X025162Y026409D02*
X025383Y026188D01*
X025300Y026105D01*
X025079Y026326D01*
X025162Y026409D01*
G37*
G36*
X025301Y026549D02*
X025522Y026328D01*
X025439Y026245D01*
X025218Y026466D01*
X025301Y026549D01*
G37*
G36*
X025440Y026688D02*
X025661Y026467D01*
X025578Y026384D01*
X025357Y026605D01*
X025440Y026688D01*
G37*
G36*
X025858Y026467D02*
X026079Y026688D01*
X026162Y026605D01*
X025941Y026384D01*
X025858Y026467D01*
G37*
G36*
X025997Y026328D02*
X026218Y026549D01*
X026301Y026466D01*
X026080Y026245D01*
X025997Y026328D01*
G37*
G36*
X026136Y026188D02*
X026357Y026409D01*
X026440Y026326D01*
X026219Y026105D01*
X026136Y026188D01*
G37*
G36*
X026276Y026049D02*
X026497Y026270D01*
X026580Y026187D01*
X026359Y025966D01*
X026276Y026049D01*
G37*
G36*
X026415Y025910D02*
X026636Y026131D01*
X026719Y026048D01*
X026498Y025827D01*
X026415Y025910D01*
G37*
G36*
X026858Y025909D02*
X026637Y025688D01*
X026554Y025771D01*
X026775Y025992D01*
X026858Y025909D01*
G37*
G36*
X026997Y025770D02*
X026776Y025549D01*
X026693Y025632D01*
X026914Y025853D01*
X026997Y025770D01*
G37*
G36*
X027136Y025630D02*
X026915Y025409D01*
X026832Y025492D01*
X027053Y025713D01*
X027136Y025630D01*
G37*
G36*
X027276Y025491D02*
X027055Y025270D01*
X026972Y025353D01*
X027193Y025574D01*
X027276Y025491D01*
G37*
G36*
X027415Y025352D02*
X027194Y025131D01*
X027111Y025214D01*
X027332Y025435D01*
X027415Y025352D01*
G37*
G36*
X027554Y025213D02*
X027333Y024992D01*
X027250Y025075D01*
X027471Y025296D01*
X027554Y025213D01*
G37*
D29*
G36*
X026996Y024893D02*
X026643Y024540D01*
X026290Y024893D01*
X026643Y025246D01*
X026996Y024893D01*
G37*
G36*
X026554Y024451D02*
X026201Y024098D01*
X025848Y024451D01*
X026201Y024804D01*
X026554Y024451D01*
G37*
G36*
X026113Y024009D02*
X025760Y023656D01*
X025407Y024009D01*
X025760Y024362D01*
X026113Y024009D01*
G37*
G36*
X025671Y024451D02*
X025318Y024098D01*
X024965Y024451D01*
X025318Y024804D01*
X025671Y024451D01*
G37*
G36*
X026113Y024893D02*
X025760Y024540D01*
X025407Y024893D01*
X025760Y025246D01*
X026113Y024893D01*
G37*
G36*
X026554Y025335D02*
X026201Y024982D01*
X025848Y025335D01*
X026201Y025688D01*
X026554Y025335D01*
G37*
G36*
X026113Y025777D02*
X025760Y025424D01*
X025407Y025777D01*
X025760Y026130D01*
X026113Y025777D01*
G37*
G36*
X025671Y025335D02*
X025318Y024982D01*
X024965Y025335D01*
X025318Y025688D01*
X025671Y025335D01*
G37*
G36*
X025229Y024893D02*
X024876Y024540D01*
X024523Y024893D01*
X024876Y025246D01*
X025229Y024893D01*
G37*
D30*
X042377Y022020D03*
X042810Y022020D03*
X043243Y022020D03*
X043676Y022020D03*
X044110Y022020D03*
X044543Y022020D03*
X044976Y022020D03*
X045409Y022020D03*
X045842Y022020D03*
D31*
X041847Y021784D03*
D32*
X041984Y017937D03*
X048047Y017937D03*
D33*
X047724Y021866D03*
D34*
X048385Y022648D03*
X049134Y022648D03*
X048760Y023514D03*
X049134Y024460D03*
X048385Y024460D03*
X048760Y025326D03*
X049134Y021175D03*
X048385Y021175D03*
X048760Y020309D03*
X048760Y017759D03*
X049509Y017759D03*
X049135Y016893D03*
X022884Y021701D03*
X022135Y021701D03*
X022510Y020835D03*
X021259Y020835D03*
X020510Y020835D03*
X020885Y021701D03*
D35*
G36*
X023308Y025255D02*
X023170Y025117D01*
X022754Y025533D01*
X022892Y025671D01*
X023308Y025255D01*
G37*
G36*
X023531Y025478D02*
X023393Y025340D01*
X022977Y025756D01*
X023115Y025894D01*
X023531Y025478D01*
G37*
G36*
X023754Y025701D02*
X023616Y025563D01*
X023200Y025979D01*
X023338Y026117D01*
X023754Y025701D01*
G37*
G36*
X023976Y025924D02*
X023838Y025786D01*
X023422Y026202D01*
X023560Y026340D01*
X023976Y025924D01*
G37*
G36*
X024199Y026146D02*
X024061Y026008D01*
X023645Y026424D01*
X023783Y026562D01*
X024199Y026146D01*
G37*
G36*
X024422Y026369D02*
X024284Y026231D01*
X023868Y026647D01*
X024006Y026785D01*
X024422Y026369D01*
G37*
G36*
X024645Y026592D02*
X024507Y026454D01*
X024091Y026870D01*
X024229Y027008D01*
X024645Y026592D01*
G37*
G36*
X024867Y026814D02*
X024729Y026676D01*
X024313Y027092D01*
X024451Y027230D01*
X024867Y026814D01*
G37*
G36*
X025090Y027037D02*
X024952Y026899D01*
X024536Y027315D01*
X024674Y027453D01*
X025090Y027037D01*
G37*
G36*
X025313Y027260D02*
X025175Y027122D01*
X024759Y027538D01*
X024897Y027676D01*
X025313Y027260D01*
G37*
G36*
X025535Y027483D02*
X025397Y027345D01*
X024981Y027761D01*
X025119Y027899D01*
X025535Y027483D01*
G37*
G36*
X028765Y024253D02*
X028627Y024115D01*
X028211Y024531D01*
X028349Y024669D01*
X028765Y024253D01*
G37*
G36*
X028542Y024030D02*
X028404Y023892D01*
X027988Y024308D01*
X028126Y024446D01*
X028542Y024030D01*
G37*
G36*
X028319Y023808D02*
X028181Y023670D01*
X027765Y024086D01*
X027903Y024224D01*
X028319Y023808D01*
G37*
G36*
X028097Y023585D02*
X027959Y023447D01*
X027543Y023863D01*
X027681Y024001D01*
X028097Y023585D01*
G37*
G36*
X027874Y023362D02*
X027736Y023224D01*
X027320Y023640D01*
X027458Y023778D01*
X027874Y023362D01*
G37*
G36*
X027651Y023140D02*
X027513Y023002D01*
X027097Y023418D01*
X027235Y023556D01*
X027651Y023140D01*
G37*
G36*
X027428Y022917D02*
X027290Y022779D01*
X026874Y023195D01*
X027012Y023333D01*
X027428Y022917D01*
G37*
G36*
X027206Y022694D02*
X027068Y022556D01*
X026652Y022972D01*
X026790Y023110D01*
X027206Y022694D01*
G37*
G36*
X026983Y022472D02*
X026845Y022334D01*
X026429Y022750D01*
X026567Y022888D01*
X026983Y022472D01*
G37*
G36*
X026760Y022249D02*
X026622Y022111D01*
X026206Y022527D01*
X026344Y022665D01*
X026760Y022249D01*
G37*
G36*
X026538Y022026D02*
X026400Y021888D01*
X025984Y022304D01*
X026122Y022442D01*
X026538Y022026D01*
G37*
X033094Y021985D03*
X033488Y021985D03*
X033882Y021985D03*
X034275Y021985D03*
X034669Y021985D03*
X035063Y021985D03*
X035456Y021985D03*
X035850Y021985D03*
X036244Y021985D03*
X036637Y021985D03*
X037031Y021985D03*
X037425Y021985D03*
D36*
X038488Y021080D03*
X032031Y021080D03*
D37*
G36*
X028765Y025533D02*
X028349Y025117D01*
X028211Y025255D01*
X028627Y025671D01*
X028765Y025533D01*
G37*
G36*
X028542Y025756D02*
X028126Y025340D01*
X027988Y025478D01*
X028404Y025894D01*
X028542Y025756D01*
G37*
G36*
X028319Y025979D02*
X027903Y025563D01*
X027765Y025701D01*
X028181Y026117D01*
X028319Y025979D01*
G37*
G36*
X028097Y026202D02*
X027681Y025786D01*
X027543Y025924D01*
X027959Y026340D01*
X028097Y026202D01*
G37*
G36*
X027874Y026424D02*
X027458Y026008D01*
X027320Y026146D01*
X027736Y026562D01*
X027874Y026424D01*
G37*
G36*
X027651Y026647D02*
X027235Y026231D01*
X027097Y026369D01*
X027513Y026785D01*
X027651Y026647D01*
G37*
G36*
X027428Y026870D02*
X027012Y026454D01*
X026874Y026592D01*
X027290Y027008D01*
X027428Y026870D01*
G37*
G36*
X027206Y027092D02*
X026790Y026676D01*
X026652Y026814D01*
X027068Y027230D01*
X027206Y027092D01*
G37*
G36*
X026983Y027315D02*
X026567Y026899D01*
X026429Y027037D01*
X026845Y027453D01*
X026983Y027315D01*
G37*
G36*
X026760Y027538D02*
X026344Y027122D01*
X026206Y027260D01*
X026622Y027676D01*
X026760Y027538D01*
G37*
G36*
X026538Y027761D02*
X026122Y027345D01*
X025984Y027483D01*
X026400Y027899D01*
X026538Y027761D01*
G37*
G36*
X023308Y024531D02*
X022892Y024115D01*
X022754Y024253D01*
X023170Y024669D01*
X023308Y024531D01*
G37*
G36*
X023531Y024308D02*
X023115Y023892D01*
X022977Y024030D01*
X023393Y024446D01*
X023531Y024308D01*
G37*
G36*
X023754Y024086D02*
X023338Y023670D01*
X023200Y023808D01*
X023616Y024224D01*
X023754Y024086D01*
G37*
G36*
X023976Y023863D02*
X023560Y023447D01*
X023422Y023585D01*
X023838Y024001D01*
X023976Y023863D01*
G37*
G36*
X024199Y023640D02*
X023783Y023224D01*
X023645Y023362D01*
X024061Y023778D01*
X024199Y023640D01*
G37*
G36*
X024422Y023418D02*
X024006Y023002D01*
X023868Y023140D01*
X024284Y023556D01*
X024422Y023418D01*
G37*
G36*
X024645Y023195D02*
X024229Y022779D01*
X024091Y022917D01*
X024507Y023333D01*
X024645Y023195D01*
G37*
G36*
X024867Y022972D02*
X024451Y022556D01*
X024313Y022694D01*
X024729Y023110D01*
X024867Y022972D01*
G37*
G36*
X025090Y022750D02*
X024674Y022334D01*
X024536Y022472D01*
X024952Y022888D01*
X025090Y022750D01*
G37*
G36*
X025313Y022527D02*
X024897Y022111D01*
X024759Y022249D01*
X025175Y022665D01*
X025313Y022527D01*
G37*
G36*
X025535Y022304D02*
X025119Y021888D01*
X024981Y022026D01*
X025397Y022442D01*
X025535Y022304D01*
G37*
D38*
X023206Y018346D03*
X022950Y018346D03*
X022694Y018346D03*
X022438Y018346D03*
X022438Y017007D03*
X022694Y017007D03*
X022950Y017007D03*
X023206Y017007D03*
D39*
X019885Y017606D03*
X019885Y019306D03*
M02*
