G75*
%MOIN*%
%OFA0B0*%
%FSLAX24Y24*%
%IPPOS*%
%LPD*%
%AMOC8*
5,1,8,0,0,1.08239X$1,22.5*
%
%ADD10C,0.0050*%
%ADD11C,0.0000*%
%ADD12C,0.1852*%
%ADD13R,0.0356X0.0749*%
%ADD14R,0.0552X0.0297*%
%ADD15R,0.0480X0.0450*%
%ADD16R,0.0297X0.0552*%
%ADD17R,0.0450X0.0480*%
%ADD18R,0.0950X0.0320*%
%ADD19R,0.2049X0.4647*%
%ADD20R,0.0680X0.0380*%
%ADD21C,0.0867*%
%ADD22R,0.0631X0.0631*%
%ADD23R,0.0611X0.0237*%
%ADD24C,0.0341*%
%ADD25R,0.0690X0.0728*%
%ADD26R,0.0690X0.0671*%
%ADD27C,0.0556*%
%ADD28R,0.1640X0.1640*%
%ADD29R,0.1330X0.1330*%
%ADD30R,0.0316X0.0946*%
%ADD31R,0.0395X0.0198*%
%ADD32R,0.2080X0.2080*%
%ADD33R,0.0380X0.0680*%
%ADD34R,0.0480X0.0680*%
%ADD35R,0.0680X0.0880*%
%ADD36R,0.0680X0.0680*%
%ADD37C,0.0430*%
%ADD38R,0.0474X0.0631*%
%ADD39R,0.0277X0.0671*%
%ADD40R,0.0709X0.0866*%
%ADD41R,0.0671X0.0277*%
%ADD42R,0.0218X0.0552*%
%ADD43R,0.1280X0.0580*%
D10*
X017760Y016393D02*
X052760Y016393D01*
X052836Y016395D01*
X052912Y016401D01*
X052987Y016410D01*
X053062Y016424D01*
X053136Y016441D01*
X053209Y016462D01*
X053281Y016486D01*
X053352Y016515D01*
X053421Y016546D01*
X053488Y016581D01*
X053553Y016620D01*
X053617Y016662D01*
X053678Y016707D01*
X053737Y016755D01*
X053793Y016806D01*
X053847Y016860D01*
X053898Y016916D01*
X053946Y016975D01*
X053991Y017036D01*
X054033Y017100D01*
X054072Y017165D01*
X054107Y017232D01*
X054138Y017301D01*
X054167Y017372D01*
X054191Y017444D01*
X054212Y017517D01*
X054229Y017591D01*
X054243Y017666D01*
X054252Y017741D01*
X054258Y017817D01*
X054260Y017893D01*
X054260Y030200D01*
X053649Y030200D01*
X053649Y030201D02*
X053624Y030203D01*
X053599Y030208D01*
X053575Y030217D01*
X053553Y030229D01*
X053533Y030244D01*
X053515Y030262D01*
X053500Y030282D01*
X053488Y030304D01*
X053479Y030328D01*
X053474Y030353D01*
X053472Y030378D01*
X053474Y030403D01*
X053479Y030428D01*
X053488Y030452D01*
X053500Y030474D01*
X053515Y030494D01*
X053533Y030512D01*
X053553Y030527D01*
X053575Y030539D01*
X053599Y030548D01*
X053624Y030553D01*
X053649Y030555D01*
X054260Y030555D01*
X054260Y034893D01*
X054258Y034969D01*
X054252Y035045D01*
X054243Y035120D01*
X054229Y035195D01*
X054212Y035269D01*
X054191Y035342D01*
X054167Y035414D01*
X054138Y035485D01*
X054107Y035554D01*
X054072Y035621D01*
X054033Y035686D01*
X053991Y035750D01*
X053946Y035811D01*
X053898Y035870D01*
X053847Y035926D01*
X053793Y035980D01*
X053737Y036031D01*
X053678Y036079D01*
X053617Y036124D01*
X053553Y036166D01*
X053488Y036205D01*
X053421Y036240D01*
X053352Y036271D01*
X053281Y036300D01*
X053209Y036324D01*
X053136Y036345D01*
X053062Y036362D01*
X052987Y036376D01*
X052912Y036385D01*
X052836Y036391D01*
X052760Y036393D01*
X017760Y036393D01*
X017684Y036391D01*
X017608Y036385D01*
X017533Y036376D01*
X017458Y036362D01*
X017384Y036345D01*
X017311Y036324D01*
X017239Y036300D01*
X017168Y036271D01*
X017099Y036240D01*
X017032Y036205D01*
X016967Y036166D01*
X016903Y036124D01*
X016842Y036079D01*
X016783Y036031D01*
X016727Y035980D01*
X016673Y035926D01*
X016622Y035870D01*
X016574Y035811D01*
X016529Y035750D01*
X016487Y035686D01*
X016448Y035621D01*
X016413Y035554D01*
X016382Y035485D01*
X016353Y035414D01*
X016329Y035342D01*
X016308Y035269D01*
X016291Y035195D01*
X016277Y035120D01*
X016268Y035045D01*
X016262Y034969D01*
X016260Y034893D01*
X016260Y030555D01*
X016870Y030555D01*
X016895Y030553D01*
X016920Y030548D01*
X016944Y030539D01*
X016966Y030527D01*
X016986Y030512D01*
X017004Y030494D01*
X017019Y030474D01*
X017031Y030452D01*
X017040Y030428D01*
X017045Y030403D01*
X017047Y030378D01*
X017045Y030353D01*
X017040Y030328D01*
X017031Y030304D01*
X017019Y030282D01*
X017004Y030262D01*
X016986Y030244D01*
X016966Y030229D01*
X016944Y030217D01*
X016920Y030208D01*
X016895Y030203D01*
X016870Y030201D01*
X016870Y030200D02*
X016260Y030200D01*
X016260Y017893D01*
X016262Y017817D01*
X016268Y017741D01*
X016277Y017666D01*
X016291Y017591D01*
X016308Y017517D01*
X016329Y017444D01*
X016353Y017372D01*
X016382Y017301D01*
X016413Y017232D01*
X016448Y017165D01*
X016487Y017100D01*
X016529Y017036D01*
X016574Y016975D01*
X016622Y016916D01*
X016673Y016860D01*
X016727Y016806D01*
X016783Y016755D01*
X016842Y016707D01*
X016903Y016662D01*
X016967Y016620D01*
X017032Y016581D01*
X017099Y016546D01*
X017168Y016515D01*
X017239Y016486D01*
X017311Y016462D01*
X017384Y016441D01*
X017458Y016424D01*
X017533Y016410D01*
X017608Y016401D01*
X017684Y016395D01*
X017760Y016393D01*
D11*
X016874Y017893D02*
X016876Y017952D01*
X016882Y018011D01*
X016892Y018069D01*
X016905Y018127D01*
X016923Y018184D01*
X016944Y018239D01*
X016969Y018293D01*
X016998Y018345D01*
X017030Y018394D01*
X017065Y018442D01*
X017103Y018487D01*
X017144Y018530D01*
X017188Y018570D01*
X017234Y018606D01*
X017283Y018640D01*
X017334Y018670D01*
X017387Y018697D01*
X017442Y018720D01*
X017497Y018739D01*
X017555Y018755D01*
X017613Y018767D01*
X017671Y018775D01*
X017730Y018779D01*
X017790Y018779D01*
X017849Y018775D01*
X017907Y018767D01*
X017965Y018755D01*
X018023Y018739D01*
X018078Y018720D01*
X018133Y018697D01*
X018186Y018670D01*
X018237Y018640D01*
X018286Y018606D01*
X018332Y018570D01*
X018376Y018530D01*
X018417Y018487D01*
X018455Y018442D01*
X018490Y018394D01*
X018522Y018345D01*
X018551Y018293D01*
X018576Y018239D01*
X018597Y018184D01*
X018615Y018127D01*
X018628Y018069D01*
X018638Y018011D01*
X018644Y017952D01*
X018646Y017893D01*
X018644Y017834D01*
X018638Y017775D01*
X018628Y017717D01*
X018615Y017659D01*
X018597Y017602D01*
X018576Y017547D01*
X018551Y017493D01*
X018522Y017441D01*
X018490Y017392D01*
X018455Y017344D01*
X018417Y017299D01*
X018376Y017256D01*
X018332Y017216D01*
X018286Y017180D01*
X018237Y017146D01*
X018186Y017116D01*
X018133Y017089D01*
X018078Y017066D01*
X018023Y017047D01*
X017965Y017031D01*
X017907Y017019D01*
X017849Y017011D01*
X017790Y017007D01*
X017730Y017007D01*
X017671Y017011D01*
X017613Y017019D01*
X017555Y017031D01*
X017497Y017047D01*
X017442Y017066D01*
X017387Y017089D01*
X017334Y017116D01*
X017283Y017146D01*
X017234Y017180D01*
X017188Y017216D01*
X017144Y017256D01*
X017103Y017299D01*
X017065Y017344D01*
X017030Y017392D01*
X016998Y017441D01*
X016969Y017493D01*
X016944Y017547D01*
X016923Y017602D01*
X016905Y017659D01*
X016892Y017717D01*
X016882Y017775D01*
X016876Y017834D01*
X016874Y017893D01*
X021086Y019011D02*
X021088Y019050D01*
X021094Y019089D01*
X021104Y019127D01*
X021117Y019164D01*
X021134Y019199D01*
X021154Y019233D01*
X021178Y019264D01*
X021205Y019293D01*
X021234Y019319D01*
X021266Y019342D01*
X021300Y019362D01*
X021336Y019378D01*
X021373Y019390D01*
X021412Y019399D01*
X021451Y019404D01*
X021490Y019405D01*
X021529Y019402D01*
X021568Y019395D01*
X021605Y019384D01*
X021642Y019370D01*
X021677Y019352D01*
X021710Y019331D01*
X021741Y019306D01*
X021769Y019279D01*
X021794Y019249D01*
X021816Y019216D01*
X021835Y019182D01*
X021850Y019146D01*
X021862Y019108D01*
X021870Y019070D01*
X021874Y019031D01*
X021874Y018991D01*
X021870Y018952D01*
X021862Y018914D01*
X021850Y018876D01*
X021835Y018840D01*
X021816Y018806D01*
X021794Y018773D01*
X021769Y018743D01*
X021741Y018716D01*
X021710Y018691D01*
X021677Y018670D01*
X021642Y018652D01*
X021605Y018638D01*
X021568Y018627D01*
X021529Y018620D01*
X021490Y018617D01*
X021451Y018618D01*
X021412Y018623D01*
X021373Y018632D01*
X021336Y018644D01*
X021300Y018660D01*
X021266Y018680D01*
X021234Y018703D01*
X021205Y018729D01*
X021178Y018758D01*
X021154Y018789D01*
X021134Y018823D01*
X021117Y018858D01*
X021104Y018895D01*
X021094Y018933D01*
X021088Y018972D01*
X021086Y019011D01*
X021086Y033775D02*
X021088Y033814D01*
X021094Y033853D01*
X021104Y033891D01*
X021117Y033928D01*
X021134Y033963D01*
X021154Y033997D01*
X021178Y034028D01*
X021205Y034057D01*
X021234Y034083D01*
X021266Y034106D01*
X021300Y034126D01*
X021336Y034142D01*
X021373Y034154D01*
X021412Y034163D01*
X021451Y034168D01*
X021490Y034169D01*
X021529Y034166D01*
X021568Y034159D01*
X021605Y034148D01*
X021642Y034134D01*
X021677Y034116D01*
X021710Y034095D01*
X021741Y034070D01*
X021769Y034043D01*
X021794Y034013D01*
X021816Y033980D01*
X021835Y033946D01*
X021850Y033910D01*
X021862Y033872D01*
X021870Y033834D01*
X021874Y033795D01*
X021874Y033755D01*
X021870Y033716D01*
X021862Y033678D01*
X021850Y033640D01*
X021835Y033604D01*
X021816Y033570D01*
X021794Y033537D01*
X021769Y033507D01*
X021741Y033480D01*
X021710Y033455D01*
X021677Y033434D01*
X021642Y033416D01*
X021605Y033402D01*
X021568Y033391D01*
X021529Y033384D01*
X021490Y033381D01*
X021451Y033382D01*
X021412Y033387D01*
X021373Y033396D01*
X021336Y033408D01*
X021300Y033424D01*
X021266Y033444D01*
X021234Y033467D01*
X021205Y033493D01*
X021178Y033522D01*
X021154Y033553D01*
X021134Y033587D01*
X021117Y033622D01*
X021104Y033659D01*
X021094Y033697D01*
X021088Y033736D01*
X021086Y033775D01*
X016874Y034893D02*
X016876Y034952D01*
X016882Y035011D01*
X016892Y035069D01*
X016905Y035127D01*
X016923Y035184D01*
X016944Y035239D01*
X016969Y035293D01*
X016998Y035345D01*
X017030Y035394D01*
X017065Y035442D01*
X017103Y035487D01*
X017144Y035530D01*
X017188Y035570D01*
X017234Y035606D01*
X017283Y035640D01*
X017334Y035670D01*
X017387Y035697D01*
X017442Y035720D01*
X017497Y035739D01*
X017555Y035755D01*
X017613Y035767D01*
X017671Y035775D01*
X017730Y035779D01*
X017790Y035779D01*
X017849Y035775D01*
X017907Y035767D01*
X017965Y035755D01*
X018023Y035739D01*
X018078Y035720D01*
X018133Y035697D01*
X018186Y035670D01*
X018237Y035640D01*
X018286Y035606D01*
X018332Y035570D01*
X018376Y035530D01*
X018417Y035487D01*
X018455Y035442D01*
X018490Y035394D01*
X018522Y035345D01*
X018551Y035293D01*
X018576Y035239D01*
X018597Y035184D01*
X018615Y035127D01*
X018628Y035069D01*
X018638Y035011D01*
X018644Y034952D01*
X018646Y034893D01*
X018644Y034834D01*
X018638Y034775D01*
X018628Y034717D01*
X018615Y034659D01*
X018597Y034602D01*
X018576Y034547D01*
X018551Y034493D01*
X018522Y034441D01*
X018490Y034392D01*
X018455Y034344D01*
X018417Y034299D01*
X018376Y034256D01*
X018332Y034216D01*
X018286Y034180D01*
X018237Y034146D01*
X018186Y034116D01*
X018133Y034089D01*
X018078Y034066D01*
X018023Y034047D01*
X017965Y034031D01*
X017907Y034019D01*
X017849Y034011D01*
X017790Y034007D01*
X017730Y034007D01*
X017671Y034011D01*
X017613Y034019D01*
X017555Y034031D01*
X017497Y034047D01*
X017442Y034066D01*
X017387Y034089D01*
X017334Y034116D01*
X017283Y034146D01*
X017234Y034180D01*
X017188Y034216D01*
X017144Y034256D01*
X017103Y034299D01*
X017065Y034344D01*
X017030Y034392D01*
X016998Y034441D01*
X016969Y034493D01*
X016944Y034547D01*
X016923Y034602D01*
X016905Y034659D01*
X016892Y034717D01*
X016882Y034775D01*
X016876Y034834D01*
X016874Y034893D01*
X042911Y017729D02*
X042913Y017755D01*
X042919Y017781D01*
X042928Y017805D01*
X042941Y017828D01*
X042958Y017848D01*
X042977Y017866D01*
X042999Y017881D01*
X043022Y017892D01*
X043047Y017900D01*
X043073Y017904D01*
X043099Y017904D01*
X043125Y017900D01*
X043150Y017892D01*
X043174Y017881D01*
X043195Y017866D01*
X043214Y017848D01*
X043231Y017828D01*
X043244Y017805D01*
X043253Y017781D01*
X043259Y017755D01*
X043261Y017729D01*
X043259Y017703D01*
X043253Y017677D01*
X043244Y017653D01*
X043231Y017630D01*
X043214Y017610D01*
X043195Y017592D01*
X043173Y017577D01*
X043150Y017566D01*
X043125Y017558D01*
X043099Y017554D01*
X043073Y017554D01*
X043047Y017558D01*
X043022Y017566D01*
X042998Y017577D01*
X042977Y017592D01*
X042958Y017610D01*
X042941Y017630D01*
X042928Y017653D01*
X042919Y017677D01*
X042913Y017703D01*
X042911Y017729D01*
X046060Y017729D02*
X046062Y017755D01*
X046068Y017781D01*
X046077Y017805D01*
X046090Y017828D01*
X046107Y017848D01*
X046126Y017866D01*
X046148Y017881D01*
X046171Y017892D01*
X046196Y017900D01*
X046222Y017904D01*
X046248Y017904D01*
X046274Y017900D01*
X046299Y017892D01*
X046323Y017881D01*
X046344Y017866D01*
X046363Y017848D01*
X046380Y017828D01*
X046393Y017805D01*
X046402Y017781D01*
X046408Y017755D01*
X046410Y017729D01*
X046408Y017703D01*
X046402Y017677D01*
X046393Y017653D01*
X046380Y017630D01*
X046363Y017610D01*
X046344Y017592D01*
X046322Y017577D01*
X046299Y017566D01*
X046274Y017558D01*
X046248Y017554D01*
X046222Y017554D01*
X046196Y017558D01*
X046171Y017566D01*
X046147Y017577D01*
X046126Y017592D01*
X046107Y017610D01*
X046090Y017630D01*
X046077Y017653D01*
X046068Y017677D01*
X046062Y017703D01*
X046060Y017729D01*
X048645Y019011D02*
X048647Y019050D01*
X048653Y019089D01*
X048663Y019127D01*
X048676Y019164D01*
X048693Y019199D01*
X048713Y019233D01*
X048737Y019264D01*
X048764Y019293D01*
X048793Y019319D01*
X048825Y019342D01*
X048859Y019362D01*
X048895Y019378D01*
X048932Y019390D01*
X048971Y019399D01*
X049010Y019404D01*
X049049Y019405D01*
X049088Y019402D01*
X049127Y019395D01*
X049164Y019384D01*
X049201Y019370D01*
X049236Y019352D01*
X049269Y019331D01*
X049300Y019306D01*
X049328Y019279D01*
X049353Y019249D01*
X049375Y019216D01*
X049394Y019182D01*
X049409Y019146D01*
X049421Y019108D01*
X049429Y019070D01*
X049433Y019031D01*
X049433Y018991D01*
X049429Y018952D01*
X049421Y018914D01*
X049409Y018876D01*
X049394Y018840D01*
X049375Y018806D01*
X049353Y018773D01*
X049328Y018743D01*
X049300Y018716D01*
X049269Y018691D01*
X049236Y018670D01*
X049201Y018652D01*
X049164Y018638D01*
X049127Y018627D01*
X049088Y018620D01*
X049049Y018617D01*
X049010Y018618D01*
X048971Y018623D01*
X048932Y018632D01*
X048895Y018644D01*
X048859Y018660D01*
X048825Y018680D01*
X048793Y018703D01*
X048764Y018729D01*
X048737Y018758D01*
X048713Y018789D01*
X048693Y018823D01*
X048676Y018858D01*
X048663Y018895D01*
X048653Y018933D01*
X048647Y018972D01*
X048645Y019011D01*
X051874Y017893D02*
X051876Y017952D01*
X051882Y018011D01*
X051892Y018069D01*
X051905Y018127D01*
X051923Y018184D01*
X051944Y018239D01*
X051969Y018293D01*
X051998Y018345D01*
X052030Y018394D01*
X052065Y018442D01*
X052103Y018487D01*
X052144Y018530D01*
X052188Y018570D01*
X052234Y018606D01*
X052283Y018640D01*
X052334Y018670D01*
X052387Y018697D01*
X052442Y018720D01*
X052497Y018739D01*
X052555Y018755D01*
X052613Y018767D01*
X052671Y018775D01*
X052730Y018779D01*
X052790Y018779D01*
X052849Y018775D01*
X052907Y018767D01*
X052965Y018755D01*
X053023Y018739D01*
X053078Y018720D01*
X053133Y018697D01*
X053186Y018670D01*
X053237Y018640D01*
X053286Y018606D01*
X053332Y018570D01*
X053376Y018530D01*
X053417Y018487D01*
X053455Y018442D01*
X053490Y018394D01*
X053522Y018345D01*
X053551Y018293D01*
X053576Y018239D01*
X053597Y018184D01*
X053615Y018127D01*
X053628Y018069D01*
X053638Y018011D01*
X053644Y017952D01*
X053646Y017893D01*
X053644Y017834D01*
X053638Y017775D01*
X053628Y017717D01*
X053615Y017659D01*
X053597Y017602D01*
X053576Y017547D01*
X053551Y017493D01*
X053522Y017441D01*
X053490Y017392D01*
X053455Y017344D01*
X053417Y017299D01*
X053376Y017256D01*
X053332Y017216D01*
X053286Y017180D01*
X053237Y017146D01*
X053186Y017116D01*
X053133Y017089D01*
X053078Y017066D01*
X053023Y017047D01*
X052965Y017031D01*
X052907Y017019D01*
X052849Y017011D01*
X052790Y017007D01*
X052730Y017007D01*
X052671Y017011D01*
X052613Y017019D01*
X052555Y017031D01*
X052497Y017047D01*
X052442Y017066D01*
X052387Y017089D01*
X052334Y017116D01*
X052283Y017146D01*
X052234Y017180D01*
X052188Y017216D01*
X052144Y017256D01*
X052103Y017299D01*
X052065Y017344D01*
X052030Y017392D01*
X051998Y017441D01*
X051969Y017493D01*
X051944Y017547D01*
X051923Y017602D01*
X051905Y017659D01*
X051892Y017717D01*
X051882Y017775D01*
X051876Y017834D01*
X051874Y017893D01*
X048645Y033775D02*
X048647Y033814D01*
X048653Y033853D01*
X048663Y033891D01*
X048676Y033928D01*
X048693Y033963D01*
X048713Y033997D01*
X048737Y034028D01*
X048764Y034057D01*
X048793Y034083D01*
X048825Y034106D01*
X048859Y034126D01*
X048895Y034142D01*
X048932Y034154D01*
X048971Y034163D01*
X049010Y034168D01*
X049049Y034169D01*
X049088Y034166D01*
X049127Y034159D01*
X049164Y034148D01*
X049201Y034134D01*
X049236Y034116D01*
X049269Y034095D01*
X049300Y034070D01*
X049328Y034043D01*
X049353Y034013D01*
X049375Y033980D01*
X049394Y033946D01*
X049409Y033910D01*
X049421Y033872D01*
X049429Y033834D01*
X049433Y033795D01*
X049433Y033755D01*
X049429Y033716D01*
X049421Y033678D01*
X049409Y033640D01*
X049394Y033604D01*
X049375Y033570D01*
X049353Y033537D01*
X049328Y033507D01*
X049300Y033480D01*
X049269Y033455D01*
X049236Y033434D01*
X049201Y033416D01*
X049164Y033402D01*
X049127Y033391D01*
X049088Y033384D01*
X049049Y033381D01*
X049010Y033382D01*
X048971Y033387D01*
X048932Y033396D01*
X048895Y033408D01*
X048859Y033424D01*
X048825Y033444D01*
X048793Y033467D01*
X048764Y033493D01*
X048737Y033522D01*
X048713Y033553D01*
X048693Y033587D01*
X048676Y033622D01*
X048663Y033659D01*
X048653Y033697D01*
X048647Y033736D01*
X048645Y033775D01*
X051874Y034893D02*
X051876Y034952D01*
X051882Y035011D01*
X051892Y035069D01*
X051905Y035127D01*
X051923Y035184D01*
X051944Y035239D01*
X051969Y035293D01*
X051998Y035345D01*
X052030Y035394D01*
X052065Y035442D01*
X052103Y035487D01*
X052144Y035530D01*
X052188Y035570D01*
X052234Y035606D01*
X052283Y035640D01*
X052334Y035670D01*
X052387Y035697D01*
X052442Y035720D01*
X052497Y035739D01*
X052555Y035755D01*
X052613Y035767D01*
X052671Y035775D01*
X052730Y035779D01*
X052790Y035779D01*
X052849Y035775D01*
X052907Y035767D01*
X052965Y035755D01*
X053023Y035739D01*
X053078Y035720D01*
X053133Y035697D01*
X053186Y035670D01*
X053237Y035640D01*
X053286Y035606D01*
X053332Y035570D01*
X053376Y035530D01*
X053417Y035487D01*
X053455Y035442D01*
X053490Y035394D01*
X053522Y035345D01*
X053551Y035293D01*
X053576Y035239D01*
X053597Y035184D01*
X053615Y035127D01*
X053628Y035069D01*
X053638Y035011D01*
X053644Y034952D01*
X053646Y034893D01*
X053644Y034834D01*
X053638Y034775D01*
X053628Y034717D01*
X053615Y034659D01*
X053597Y034602D01*
X053576Y034547D01*
X053551Y034493D01*
X053522Y034441D01*
X053490Y034392D01*
X053455Y034344D01*
X053417Y034299D01*
X053376Y034256D01*
X053332Y034216D01*
X053286Y034180D01*
X053237Y034146D01*
X053186Y034116D01*
X053133Y034089D01*
X053078Y034066D01*
X053023Y034047D01*
X052965Y034031D01*
X052907Y034019D01*
X052849Y034011D01*
X052790Y034007D01*
X052730Y034007D01*
X052671Y034011D01*
X052613Y034019D01*
X052555Y034031D01*
X052497Y034047D01*
X052442Y034066D01*
X052387Y034089D01*
X052334Y034116D01*
X052283Y034146D01*
X052234Y034180D01*
X052188Y034216D01*
X052144Y034256D01*
X052103Y034299D01*
X052065Y034344D01*
X052030Y034392D01*
X051998Y034441D01*
X051969Y034493D01*
X051944Y034547D01*
X051923Y034602D01*
X051905Y034659D01*
X051892Y034717D01*
X051882Y034775D01*
X051876Y034834D01*
X051874Y034893D01*
D12*
X052760Y034893D03*
X052760Y017893D03*
X017760Y017893D03*
X017760Y034893D03*
D13*
X028287Y022206D03*
X028760Y022206D03*
X029232Y022206D03*
D14*
X044748Y026519D03*
X044748Y027267D03*
X045771Y027267D03*
X045771Y026893D03*
X045771Y026519D03*
D15*
X046760Y026559D03*
X047447Y026559D03*
X048103Y026559D03*
X048760Y026559D03*
X048760Y027228D03*
X048103Y027228D03*
X047447Y027228D03*
X046760Y027228D03*
X043916Y027228D03*
X043166Y027228D03*
X043166Y026559D03*
X043916Y026559D03*
X042385Y026559D03*
X042385Y027228D03*
X043760Y030434D03*
X043760Y031103D03*
X045260Y031103D03*
X045260Y030434D03*
X046260Y030434D03*
X046260Y031103D03*
X047760Y031103D03*
X047760Y030434D03*
X040760Y030434D03*
X040760Y031103D03*
X039260Y031103D03*
X038260Y031103D03*
X038260Y030434D03*
X039260Y030434D03*
X036760Y030434D03*
X036760Y031103D03*
X033760Y031103D03*
X033760Y030434D03*
X032260Y030434D03*
X032260Y031103D03*
X031260Y031103D03*
X031260Y030434D03*
X029760Y030434D03*
X029760Y031103D03*
X026760Y031103D03*
X026760Y030434D03*
X025260Y030434D03*
X024260Y030434D03*
X024260Y031103D03*
X025260Y031103D03*
X022760Y031103D03*
X022760Y030434D03*
X029260Y025228D03*
X029260Y024559D03*
X032260Y026059D03*
X032960Y026059D03*
X032960Y026728D03*
X032260Y026728D03*
X033094Y023603D03*
X033882Y023603D03*
X033882Y022934D03*
X033094Y022934D03*
X037031Y022934D03*
X037031Y023603D03*
X037510Y025559D03*
X038135Y025559D03*
X038135Y026228D03*
X037510Y026228D03*
X049697Y023665D03*
X050322Y023665D03*
X050322Y022996D03*
X049697Y022996D03*
X050135Y021478D03*
X050884Y021478D03*
X050884Y020809D03*
X050135Y020809D03*
X050135Y017478D03*
X050885Y017478D03*
X050885Y016809D03*
X050135Y016809D03*
X023760Y017007D03*
X023760Y017677D03*
D16*
X034885Y033381D03*
X035260Y033381D03*
X035634Y033381D03*
X035634Y034405D03*
X034885Y034405D03*
X050135Y019655D03*
X050510Y019655D03*
X050884Y019655D03*
X050884Y018631D03*
X050135Y018631D03*
D17*
X049094Y021893D03*
X048425Y021893D03*
X050884Y022643D03*
X051553Y022643D03*
X052325Y022143D03*
X052994Y022143D03*
X051553Y023393D03*
X050884Y023393D03*
X052325Y024893D03*
X052994Y024893D03*
X047594Y029768D03*
X046925Y029768D03*
X046094Y029768D03*
X045425Y029768D03*
X044594Y029768D03*
X043925Y029768D03*
X044925Y027893D03*
X045594Y027893D03*
X040844Y025643D03*
X040175Y025643D03*
X043775Y022893D03*
X044444Y022893D03*
X041094Y017543D03*
X040425Y017543D03*
X030957Y020831D03*
X030287Y020831D03*
X030287Y021643D03*
X030957Y021643D03*
X023219Y022893D03*
X022550Y022893D03*
X021313Y023275D03*
X021313Y023849D03*
X020644Y023849D03*
X020644Y023275D03*
X019594Y023081D03*
X018925Y023081D03*
X018925Y024361D03*
X019594Y024361D03*
X021550Y024893D03*
X022219Y024893D03*
X022157Y026268D03*
X021487Y026268D03*
X021487Y027456D03*
X022157Y027456D03*
X022925Y029768D03*
X023594Y029768D03*
X024425Y029768D03*
X025094Y029768D03*
X025925Y029768D03*
X026594Y029768D03*
X026094Y028331D03*
X025425Y028331D03*
X029925Y029768D03*
X030594Y029768D03*
X031425Y029768D03*
X032094Y029768D03*
X032925Y029768D03*
X033594Y029768D03*
X036925Y029768D03*
X037594Y029768D03*
X038425Y029768D03*
X039094Y029768D03*
X039925Y029768D03*
X040594Y029768D03*
X035594Y032393D03*
X034925Y032393D03*
X018194Y030593D03*
X017525Y030593D03*
X017525Y027893D03*
X018194Y027893D03*
X020550Y020143D03*
X021219Y020143D03*
X022175Y020143D03*
X022844Y020143D03*
X052325Y030643D03*
X052994Y030643D03*
D18*
X041540Y027643D03*
X041540Y027143D03*
X041540Y026643D03*
X041540Y026143D03*
X039480Y026143D03*
X039480Y026643D03*
X039480Y027143D03*
X039480Y027643D03*
X036290Y027393D03*
X036290Y026893D03*
X036290Y026393D03*
X036290Y025893D03*
X034230Y025893D03*
X034230Y026393D03*
X034230Y026893D03*
X034230Y027393D03*
X034230Y027893D03*
X034230Y028393D03*
X034230Y028893D03*
X036290Y028893D03*
X036290Y028393D03*
X036290Y027893D03*
D19*
X037480Y033893D03*
X040039Y033893D03*
X044480Y033893D03*
X047039Y033893D03*
X033039Y033893D03*
X030480Y033893D03*
X026039Y033893D03*
X023480Y033893D03*
D20*
X018860Y032843D03*
X016860Y032843D03*
X016860Y031343D03*
X018860Y031343D03*
X018860Y027143D03*
X016860Y027143D03*
X016860Y025643D03*
X018860Y025643D03*
X018860Y021443D03*
X016860Y021443D03*
X016860Y019943D03*
X018860Y019943D03*
X051660Y019943D03*
X051660Y021443D03*
X053660Y021443D03*
X053660Y019943D03*
X053660Y025643D03*
X053660Y027143D03*
X051660Y027143D03*
X051660Y025643D03*
X051660Y031343D03*
X051660Y032843D03*
X053660Y032843D03*
X053660Y031343D03*
D21*
X049039Y033775D03*
X049039Y019011D03*
X021480Y019011D03*
X021480Y033775D03*
D22*
X021914Y016893D03*
X020418Y016893D03*
D23*
X017823Y023081D03*
X017823Y023337D03*
X017823Y023593D03*
X017823Y023849D03*
X017823Y024105D03*
D24*
X017766Y024462D02*
X017766Y024694D01*
X017880Y024694D01*
X017880Y024462D01*
X017766Y024462D01*
X017766Y022725D02*
X017766Y022493D01*
X017766Y022725D02*
X017880Y022725D01*
X017880Y022493D01*
X017766Y022493D01*
D25*
X016760Y022364D03*
X016760Y024823D03*
D26*
X016760Y023987D03*
X016760Y023200D03*
D27*
X019646Y025143D03*
X022157Y026893D03*
X022697Y027393D03*
X023510Y021768D03*
X037760Y023393D03*
X040010Y023393D03*
X041760Y023393D03*
X043416Y023393D03*
X045409Y019393D03*
X049385Y020309D03*
X050884Y022043D03*
X050135Y018018D03*
X038285Y018168D03*
X046260Y027893D03*
X035260Y035643D03*
D28*
X027885Y018643D03*
D29*
X030985Y018643D03*
X024785Y018643D03*
D30*
X039535Y018557D03*
X040035Y018557D03*
X040535Y018557D03*
X041035Y018557D03*
X041035Y021179D03*
X040535Y021179D03*
X040035Y021179D03*
X039535Y021179D03*
D31*
G36*
X027333Y024852D02*
X027611Y024574D01*
X027471Y024434D01*
X027193Y024712D01*
X027333Y024852D01*
G37*
G36*
X027611Y025213D02*
X027333Y024935D01*
X027193Y025075D01*
X027471Y025353D01*
X027611Y025213D01*
G37*
G36*
X027472Y025352D02*
X027194Y025074D01*
X027054Y025214D01*
X027332Y025492D01*
X027472Y025352D01*
G37*
G36*
X027333Y025491D02*
X027055Y025213D01*
X026915Y025353D01*
X027193Y025631D01*
X027333Y025491D01*
G37*
G36*
X027193Y025630D02*
X026915Y025352D01*
X026775Y025492D01*
X027053Y025770D01*
X027193Y025630D01*
G37*
G36*
X027054Y025770D02*
X026776Y025492D01*
X026636Y025632D01*
X026914Y025910D01*
X027054Y025770D01*
G37*
G36*
X026915Y025909D02*
X026637Y025631D01*
X026497Y025771D01*
X026775Y026049D01*
X026915Y025909D01*
G37*
G36*
X026358Y025910D02*
X026636Y026188D01*
X026776Y026048D01*
X026498Y025770D01*
X026358Y025910D01*
G37*
G36*
X026219Y026049D02*
X026497Y026327D01*
X026637Y026187D01*
X026359Y025909D01*
X026219Y026049D01*
G37*
G36*
X026079Y026188D02*
X026357Y026466D01*
X026497Y026326D01*
X026219Y026048D01*
X026079Y026188D01*
G37*
G36*
X025940Y026328D02*
X026218Y026606D01*
X026358Y026466D01*
X026080Y026188D01*
X025940Y026328D01*
G37*
G36*
X025801Y026467D02*
X026079Y026745D01*
X026219Y026605D01*
X025941Y026327D01*
X025801Y026467D01*
G37*
G36*
X025440Y026745D02*
X025718Y026467D01*
X025578Y026327D01*
X025300Y026605D01*
X025440Y026745D01*
G37*
G36*
X025301Y026606D02*
X025579Y026328D01*
X025439Y026188D01*
X025161Y026466D01*
X025301Y026606D01*
G37*
G36*
X025162Y026466D02*
X025440Y026188D01*
X025300Y026048D01*
X025022Y026326D01*
X025162Y026466D01*
G37*
G36*
X025022Y026327D02*
X025300Y026049D01*
X025160Y025909D01*
X024882Y026187D01*
X025022Y026327D01*
G37*
G36*
X024883Y026188D02*
X025161Y025910D01*
X025021Y025770D01*
X024743Y026048D01*
X024883Y026188D01*
G37*
G36*
X024744Y026049D02*
X025022Y025771D01*
X024882Y025631D01*
X024604Y025909D01*
X024744Y026049D01*
G37*
G36*
X024743Y025492D02*
X024465Y025770D01*
X024605Y025910D01*
X024883Y025632D01*
X024743Y025492D01*
G37*
G36*
X024604Y025352D02*
X024326Y025630D01*
X024466Y025770D01*
X024744Y025492D01*
X024604Y025352D01*
G37*
G36*
X024464Y025213D02*
X024186Y025491D01*
X024326Y025631D01*
X024604Y025353D01*
X024464Y025213D01*
G37*
G36*
X024325Y025074D02*
X024047Y025352D01*
X024187Y025492D01*
X024465Y025214D01*
X024325Y025074D01*
G37*
G36*
X024186Y024935D02*
X023908Y025213D01*
X024048Y025353D01*
X024326Y025075D01*
X024186Y024935D01*
G37*
G36*
X023908Y024574D02*
X024186Y024852D01*
X024326Y024712D01*
X024048Y024434D01*
X023908Y024574D01*
G37*
G36*
X024047Y024435D02*
X024325Y024713D01*
X024465Y024573D01*
X024187Y024295D01*
X024047Y024435D01*
G37*
G36*
X024186Y024295D02*
X024464Y024573D01*
X024604Y024433D01*
X024326Y024155D01*
X024186Y024295D01*
G37*
G36*
X024326Y024156D02*
X024604Y024434D01*
X024744Y024294D01*
X024466Y024016D01*
X024326Y024156D01*
G37*
G36*
X024465Y024017D02*
X024743Y024295D01*
X024883Y024155D01*
X024605Y023877D01*
X024465Y024017D01*
G37*
G36*
X024604Y023878D02*
X024882Y024156D01*
X025022Y024016D01*
X024744Y023738D01*
X024604Y023878D01*
G37*
G36*
X025161Y023877D02*
X024883Y023599D01*
X024743Y023739D01*
X025021Y024017D01*
X025161Y023877D01*
G37*
G36*
X025300Y023737D02*
X025022Y023459D01*
X024882Y023599D01*
X025160Y023877D01*
X025300Y023737D01*
G37*
G36*
X025440Y023598D02*
X025162Y023320D01*
X025022Y023460D01*
X025300Y023738D01*
X025440Y023598D01*
G37*
G36*
X025579Y023459D02*
X025301Y023181D01*
X025161Y023321D01*
X025439Y023599D01*
X025579Y023459D01*
G37*
G36*
X025718Y023320D02*
X025440Y023042D01*
X025300Y023182D01*
X025578Y023460D01*
X025718Y023320D01*
G37*
G36*
X026079Y023042D02*
X025801Y023320D01*
X025941Y023460D01*
X026219Y023182D01*
X026079Y023042D01*
G37*
G36*
X026218Y023181D02*
X025940Y023459D01*
X026080Y023599D01*
X026358Y023321D01*
X026218Y023181D01*
G37*
G36*
X026357Y023320D02*
X026079Y023598D01*
X026219Y023738D01*
X026497Y023460D01*
X026357Y023320D01*
G37*
G36*
X026497Y023459D02*
X026219Y023737D01*
X026359Y023877D01*
X026637Y023599D01*
X026497Y023459D01*
G37*
G36*
X026636Y023599D02*
X026358Y023877D01*
X026498Y024017D01*
X026776Y023739D01*
X026636Y023599D01*
G37*
G36*
X026775Y023738D02*
X026497Y024016D01*
X026637Y024156D01*
X026915Y023878D01*
X026775Y023738D01*
G37*
G36*
X026776Y024295D02*
X027054Y024017D01*
X026914Y023877D01*
X026636Y024155D01*
X026776Y024295D01*
G37*
G36*
X026915Y024434D02*
X027193Y024156D01*
X027053Y024016D01*
X026775Y024294D01*
X026915Y024434D01*
G37*
G36*
X027055Y024573D02*
X027333Y024295D01*
X027193Y024155D01*
X026915Y024433D01*
X027055Y024573D01*
G37*
G36*
X027194Y024713D02*
X027472Y024435D01*
X027332Y024295D01*
X027054Y024573D01*
X027194Y024713D01*
G37*
D32*
G36*
X027230Y024893D02*
X025760Y023423D01*
X024290Y024893D01*
X025760Y026363D01*
X027230Y024893D01*
G37*
D33*
X042377Y022020D03*
X042810Y022020D03*
X043243Y022020D03*
X043676Y022020D03*
X044110Y022020D03*
X044543Y022020D03*
X044976Y022020D03*
X045409Y022020D03*
X045842Y022020D03*
D34*
X041847Y021784D03*
D35*
X041984Y017937D03*
X048047Y017937D03*
D36*
X047724Y021866D03*
D37*
X046235Y017729D03*
X043086Y017729D03*
D38*
X048385Y021175D03*
X049134Y021175D03*
X048760Y020309D03*
X049134Y022648D03*
X048385Y022648D03*
X048760Y023514D03*
X049134Y024460D03*
X048385Y024460D03*
X048760Y025326D03*
X048760Y017759D03*
X049509Y017759D03*
X049135Y016893D03*
X022884Y021701D03*
X022135Y021701D03*
X022510Y020835D03*
X021259Y020835D03*
X020510Y020835D03*
X020885Y021701D03*
D39*
G36*
X023365Y025255D02*
X023170Y025060D01*
X022697Y025533D01*
X022892Y025728D01*
X023365Y025255D01*
G37*
G36*
X023588Y025478D02*
X023393Y025283D01*
X022920Y025756D01*
X023115Y025951D01*
X023588Y025478D01*
G37*
G36*
X023811Y025701D02*
X023616Y025506D01*
X023143Y025979D01*
X023338Y026174D01*
X023811Y025701D01*
G37*
G36*
X024033Y025924D02*
X023838Y025729D01*
X023365Y026202D01*
X023560Y026397D01*
X024033Y025924D01*
G37*
G36*
X024256Y026146D02*
X024061Y025951D01*
X023588Y026424D01*
X023783Y026619D01*
X024256Y026146D01*
G37*
G36*
X024479Y026369D02*
X024284Y026174D01*
X023811Y026647D01*
X024006Y026842D01*
X024479Y026369D01*
G37*
G36*
X024702Y026592D02*
X024507Y026397D01*
X024034Y026870D01*
X024229Y027065D01*
X024702Y026592D01*
G37*
G36*
X024924Y026814D02*
X024729Y026619D01*
X024256Y027092D01*
X024451Y027287D01*
X024924Y026814D01*
G37*
G36*
X025147Y027037D02*
X024952Y026842D01*
X024479Y027315D01*
X024674Y027510D01*
X025147Y027037D01*
G37*
G36*
X025370Y027260D02*
X025175Y027065D01*
X024702Y027538D01*
X024897Y027733D01*
X025370Y027260D01*
G37*
G36*
X025592Y027483D02*
X025397Y027288D01*
X024924Y027761D01*
X025119Y027956D01*
X025592Y027483D01*
G37*
G36*
X028822Y024253D02*
X028627Y024058D01*
X028154Y024531D01*
X028349Y024726D01*
X028822Y024253D01*
G37*
G36*
X028599Y024030D02*
X028404Y023835D01*
X027931Y024308D01*
X028126Y024503D01*
X028599Y024030D01*
G37*
G36*
X028376Y023808D02*
X028181Y023613D01*
X027708Y024086D01*
X027903Y024281D01*
X028376Y023808D01*
G37*
G36*
X028154Y023585D02*
X027959Y023390D01*
X027486Y023863D01*
X027681Y024058D01*
X028154Y023585D01*
G37*
G36*
X027931Y023362D02*
X027736Y023167D01*
X027263Y023640D01*
X027458Y023835D01*
X027931Y023362D01*
G37*
G36*
X027708Y023140D02*
X027513Y022945D01*
X027040Y023418D01*
X027235Y023613D01*
X027708Y023140D01*
G37*
G36*
X027485Y022917D02*
X027290Y022722D01*
X026817Y023195D01*
X027012Y023390D01*
X027485Y022917D01*
G37*
G36*
X027263Y022694D02*
X027068Y022499D01*
X026595Y022972D01*
X026790Y023167D01*
X027263Y022694D01*
G37*
G36*
X027040Y022472D02*
X026845Y022277D01*
X026372Y022750D01*
X026567Y022945D01*
X027040Y022472D01*
G37*
G36*
X026817Y022249D02*
X026622Y022054D01*
X026149Y022527D01*
X026344Y022722D01*
X026817Y022249D01*
G37*
G36*
X026595Y022026D02*
X026400Y021831D01*
X025927Y022304D01*
X026122Y022499D01*
X026595Y022026D01*
G37*
X033094Y021985D03*
X033488Y021985D03*
X033882Y021985D03*
X034275Y021985D03*
X034669Y021985D03*
X035063Y021985D03*
X035456Y021985D03*
X035850Y021985D03*
X036244Y021985D03*
X036637Y021985D03*
X037031Y021985D03*
X037425Y021985D03*
D40*
X038409Y021080D03*
X032110Y021080D03*
D41*
G36*
X028822Y025533D02*
X028349Y025060D01*
X028154Y025255D01*
X028627Y025728D01*
X028822Y025533D01*
G37*
G36*
X028599Y025756D02*
X028126Y025283D01*
X027931Y025478D01*
X028404Y025951D01*
X028599Y025756D01*
G37*
G36*
X028376Y025979D02*
X027903Y025506D01*
X027708Y025701D01*
X028181Y026174D01*
X028376Y025979D01*
G37*
G36*
X028154Y026202D02*
X027681Y025729D01*
X027486Y025924D01*
X027959Y026397D01*
X028154Y026202D01*
G37*
G36*
X027931Y026424D02*
X027458Y025951D01*
X027263Y026146D01*
X027736Y026619D01*
X027931Y026424D01*
G37*
G36*
X027708Y026647D02*
X027235Y026174D01*
X027040Y026369D01*
X027513Y026842D01*
X027708Y026647D01*
G37*
G36*
X027485Y026870D02*
X027012Y026397D01*
X026817Y026592D01*
X027290Y027065D01*
X027485Y026870D01*
G37*
G36*
X027263Y027092D02*
X026790Y026619D01*
X026595Y026814D01*
X027068Y027287D01*
X027263Y027092D01*
G37*
G36*
X027040Y027315D02*
X026567Y026842D01*
X026372Y027037D01*
X026845Y027510D01*
X027040Y027315D01*
G37*
G36*
X026817Y027538D02*
X026344Y027065D01*
X026149Y027260D01*
X026622Y027733D01*
X026817Y027538D01*
G37*
G36*
X026595Y027761D02*
X026122Y027288D01*
X025927Y027483D01*
X026400Y027956D01*
X026595Y027761D01*
G37*
G36*
X023365Y024531D02*
X022892Y024058D01*
X022697Y024253D01*
X023170Y024726D01*
X023365Y024531D01*
G37*
G36*
X023588Y024308D02*
X023115Y023835D01*
X022920Y024030D01*
X023393Y024503D01*
X023588Y024308D01*
G37*
G36*
X023811Y024086D02*
X023338Y023613D01*
X023143Y023808D01*
X023616Y024281D01*
X023811Y024086D01*
G37*
G36*
X024033Y023863D02*
X023560Y023390D01*
X023365Y023585D01*
X023838Y024058D01*
X024033Y023863D01*
G37*
G36*
X024256Y023640D02*
X023783Y023167D01*
X023588Y023362D01*
X024061Y023835D01*
X024256Y023640D01*
G37*
G36*
X024479Y023418D02*
X024006Y022945D01*
X023811Y023140D01*
X024284Y023613D01*
X024479Y023418D01*
G37*
G36*
X024702Y023195D02*
X024229Y022722D01*
X024034Y022917D01*
X024507Y023390D01*
X024702Y023195D01*
G37*
G36*
X024924Y022972D02*
X024451Y022499D01*
X024256Y022694D01*
X024729Y023167D01*
X024924Y022972D01*
G37*
G36*
X025147Y022750D02*
X024674Y022277D01*
X024479Y022472D01*
X024952Y022945D01*
X025147Y022750D01*
G37*
G36*
X025370Y022527D02*
X024897Y022054D01*
X024702Y022249D01*
X025175Y022722D01*
X025370Y022527D01*
G37*
G36*
X025592Y022304D02*
X025119Y021831D01*
X024924Y022026D01*
X025397Y022499D01*
X025592Y022304D01*
G37*
D42*
X023206Y018346D03*
X022950Y018346D03*
X022694Y018346D03*
X022438Y018346D03*
X022438Y017007D03*
X022694Y017007D03*
X022950Y017007D03*
X023206Y017007D03*
D43*
X019885Y017606D03*
X019885Y019306D03*
M02*
