G75*
%MOIN*%
%OFA0B0*%
%FSLAX24Y24*%
%IPPOS*%
%LPD*%
%AMOC8*
5,1,8,0,0,1.08239X$1,22.5*
%
%ADD10C,0.0050*%
%ADD11C,0.0000*%
%ADD12R,0.1260X0.0500*%
%ADD13R,0.1800X0.0550*%
%ADD14C,0.0281*%
%ADD15C,0.0354*%
%ADD16C,0.0476*%
%ADD17R,0.0472X0.0591*%
%ADD18R,0.0591X0.0591*%
%ADD19R,0.0250X0.0500*%
%ADD20C,0.0080*%
%ADD21R,0.2000X0.2000*%
%ADD22R,0.0500X0.0250*%
%ADD23C,0.0330*%
%ADD24C,0.0120*%
%ADD25C,0.0240*%
%ADD26C,0.0400*%
%ADD27C,0.0320*%
D10*
X017760Y016393D02*
X052760Y016393D01*
X052836Y016395D01*
X052912Y016401D01*
X052987Y016410D01*
X053062Y016424D01*
X053136Y016441D01*
X053209Y016462D01*
X053281Y016486D01*
X053352Y016515D01*
X053421Y016546D01*
X053488Y016581D01*
X053553Y016620D01*
X053617Y016662D01*
X053678Y016707D01*
X053737Y016755D01*
X053793Y016806D01*
X053847Y016860D01*
X053898Y016916D01*
X053946Y016975D01*
X053991Y017036D01*
X054033Y017100D01*
X054072Y017165D01*
X054107Y017232D01*
X054138Y017301D01*
X054167Y017372D01*
X054191Y017444D01*
X054212Y017517D01*
X054229Y017591D01*
X054243Y017666D01*
X054252Y017741D01*
X054258Y017817D01*
X054260Y017893D01*
X054260Y034893D01*
X054258Y034969D01*
X054252Y035045D01*
X054243Y035120D01*
X054229Y035195D01*
X054212Y035269D01*
X054191Y035342D01*
X054167Y035414D01*
X054138Y035485D01*
X054107Y035554D01*
X054072Y035621D01*
X054033Y035686D01*
X053991Y035750D01*
X053946Y035811D01*
X053898Y035870D01*
X053847Y035926D01*
X053793Y035980D01*
X053737Y036031D01*
X053678Y036079D01*
X053617Y036124D01*
X053553Y036166D01*
X053488Y036205D01*
X053421Y036240D01*
X053352Y036271D01*
X053281Y036300D01*
X053209Y036324D01*
X053136Y036345D01*
X053062Y036362D01*
X052987Y036376D01*
X052912Y036385D01*
X052836Y036391D01*
X052760Y036393D01*
X017760Y036393D01*
X017684Y036391D01*
X017608Y036385D01*
X017533Y036376D01*
X017458Y036362D01*
X017384Y036345D01*
X017311Y036324D01*
X017239Y036300D01*
X017168Y036271D01*
X017099Y036240D01*
X017032Y036205D01*
X016967Y036166D01*
X016903Y036124D01*
X016842Y036079D01*
X016783Y036031D01*
X016727Y035980D01*
X016673Y035926D01*
X016622Y035870D01*
X016574Y035811D01*
X016529Y035750D01*
X016487Y035686D01*
X016448Y035621D01*
X016413Y035554D01*
X016382Y035485D01*
X016353Y035414D01*
X016329Y035342D01*
X016308Y035269D01*
X016291Y035195D01*
X016277Y035120D01*
X016268Y035045D01*
X016262Y034969D01*
X016260Y034893D01*
X016260Y017893D01*
X016262Y017817D01*
X016268Y017741D01*
X016277Y017666D01*
X016291Y017591D01*
X016308Y017517D01*
X016329Y017444D01*
X016353Y017372D01*
X016382Y017301D01*
X016413Y017232D01*
X016448Y017165D01*
X016487Y017100D01*
X016529Y017036D01*
X016574Y016975D01*
X016622Y016916D01*
X016673Y016860D01*
X016727Y016806D01*
X016783Y016755D01*
X016842Y016707D01*
X016903Y016662D01*
X016967Y016620D01*
X017032Y016581D01*
X017099Y016546D01*
X017168Y016515D01*
X017239Y016486D01*
X017311Y016462D01*
X017384Y016441D01*
X017458Y016424D01*
X017533Y016410D01*
X017608Y016401D01*
X017684Y016395D01*
X017760Y016393D01*
D11*
X016874Y017893D02*
X016876Y017952D01*
X016882Y018011D01*
X016892Y018069D01*
X016905Y018127D01*
X016923Y018184D01*
X016944Y018239D01*
X016969Y018293D01*
X016998Y018345D01*
X017030Y018394D01*
X017065Y018442D01*
X017103Y018487D01*
X017144Y018530D01*
X017188Y018570D01*
X017234Y018606D01*
X017283Y018640D01*
X017334Y018670D01*
X017387Y018697D01*
X017442Y018720D01*
X017497Y018739D01*
X017555Y018755D01*
X017613Y018767D01*
X017671Y018775D01*
X017730Y018779D01*
X017790Y018779D01*
X017849Y018775D01*
X017907Y018767D01*
X017965Y018755D01*
X018023Y018739D01*
X018078Y018720D01*
X018133Y018697D01*
X018186Y018670D01*
X018237Y018640D01*
X018286Y018606D01*
X018332Y018570D01*
X018376Y018530D01*
X018417Y018487D01*
X018455Y018442D01*
X018490Y018394D01*
X018522Y018345D01*
X018551Y018293D01*
X018576Y018239D01*
X018597Y018184D01*
X018615Y018127D01*
X018628Y018069D01*
X018638Y018011D01*
X018644Y017952D01*
X018646Y017893D01*
X018644Y017834D01*
X018638Y017775D01*
X018628Y017717D01*
X018615Y017659D01*
X018597Y017602D01*
X018576Y017547D01*
X018551Y017493D01*
X018522Y017441D01*
X018490Y017392D01*
X018455Y017344D01*
X018417Y017299D01*
X018376Y017256D01*
X018332Y017216D01*
X018286Y017180D01*
X018237Y017146D01*
X018186Y017116D01*
X018133Y017089D01*
X018078Y017066D01*
X018023Y017047D01*
X017965Y017031D01*
X017907Y017019D01*
X017849Y017011D01*
X017790Y017007D01*
X017730Y017007D01*
X017671Y017011D01*
X017613Y017019D01*
X017555Y017031D01*
X017497Y017047D01*
X017442Y017066D01*
X017387Y017089D01*
X017334Y017116D01*
X017283Y017146D01*
X017234Y017180D01*
X017188Y017216D01*
X017144Y017256D01*
X017103Y017299D01*
X017065Y017344D01*
X017030Y017392D01*
X016998Y017441D01*
X016969Y017493D01*
X016944Y017547D01*
X016923Y017602D01*
X016905Y017659D01*
X016892Y017717D01*
X016882Y017775D01*
X016876Y017834D01*
X016874Y017893D01*
X021086Y019011D02*
X021088Y019050D01*
X021094Y019089D01*
X021104Y019127D01*
X021117Y019164D01*
X021134Y019199D01*
X021154Y019233D01*
X021178Y019264D01*
X021205Y019293D01*
X021234Y019319D01*
X021266Y019342D01*
X021300Y019362D01*
X021336Y019378D01*
X021373Y019390D01*
X021412Y019399D01*
X021451Y019404D01*
X021490Y019405D01*
X021529Y019402D01*
X021568Y019395D01*
X021605Y019384D01*
X021642Y019370D01*
X021677Y019352D01*
X021710Y019331D01*
X021741Y019306D01*
X021769Y019279D01*
X021794Y019249D01*
X021816Y019216D01*
X021835Y019182D01*
X021850Y019146D01*
X021862Y019108D01*
X021870Y019070D01*
X021874Y019031D01*
X021874Y018991D01*
X021870Y018952D01*
X021862Y018914D01*
X021850Y018876D01*
X021835Y018840D01*
X021816Y018806D01*
X021794Y018773D01*
X021769Y018743D01*
X021741Y018716D01*
X021710Y018691D01*
X021677Y018670D01*
X021642Y018652D01*
X021605Y018638D01*
X021568Y018627D01*
X021529Y018620D01*
X021490Y018617D01*
X021451Y018618D01*
X021412Y018623D01*
X021373Y018632D01*
X021336Y018644D01*
X021300Y018660D01*
X021266Y018680D01*
X021234Y018703D01*
X021205Y018729D01*
X021178Y018758D01*
X021154Y018789D01*
X021134Y018823D01*
X021117Y018858D01*
X021104Y018895D01*
X021094Y018933D01*
X021088Y018972D01*
X021086Y019011D01*
X021086Y033775D02*
X021088Y033814D01*
X021094Y033853D01*
X021104Y033891D01*
X021117Y033928D01*
X021134Y033963D01*
X021154Y033997D01*
X021178Y034028D01*
X021205Y034057D01*
X021234Y034083D01*
X021266Y034106D01*
X021300Y034126D01*
X021336Y034142D01*
X021373Y034154D01*
X021412Y034163D01*
X021451Y034168D01*
X021490Y034169D01*
X021529Y034166D01*
X021568Y034159D01*
X021605Y034148D01*
X021642Y034134D01*
X021677Y034116D01*
X021710Y034095D01*
X021741Y034070D01*
X021769Y034043D01*
X021794Y034013D01*
X021816Y033980D01*
X021835Y033946D01*
X021850Y033910D01*
X021862Y033872D01*
X021870Y033834D01*
X021874Y033795D01*
X021874Y033755D01*
X021870Y033716D01*
X021862Y033678D01*
X021850Y033640D01*
X021835Y033604D01*
X021816Y033570D01*
X021794Y033537D01*
X021769Y033507D01*
X021741Y033480D01*
X021710Y033455D01*
X021677Y033434D01*
X021642Y033416D01*
X021605Y033402D01*
X021568Y033391D01*
X021529Y033384D01*
X021490Y033381D01*
X021451Y033382D01*
X021412Y033387D01*
X021373Y033396D01*
X021336Y033408D01*
X021300Y033424D01*
X021266Y033444D01*
X021234Y033467D01*
X021205Y033493D01*
X021178Y033522D01*
X021154Y033553D01*
X021134Y033587D01*
X021117Y033622D01*
X021104Y033659D01*
X021094Y033697D01*
X021088Y033736D01*
X021086Y033775D01*
X016874Y034893D02*
X016876Y034952D01*
X016882Y035011D01*
X016892Y035069D01*
X016905Y035127D01*
X016923Y035184D01*
X016944Y035239D01*
X016969Y035293D01*
X016998Y035345D01*
X017030Y035394D01*
X017065Y035442D01*
X017103Y035487D01*
X017144Y035530D01*
X017188Y035570D01*
X017234Y035606D01*
X017283Y035640D01*
X017334Y035670D01*
X017387Y035697D01*
X017442Y035720D01*
X017497Y035739D01*
X017555Y035755D01*
X017613Y035767D01*
X017671Y035775D01*
X017730Y035779D01*
X017790Y035779D01*
X017849Y035775D01*
X017907Y035767D01*
X017965Y035755D01*
X018023Y035739D01*
X018078Y035720D01*
X018133Y035697D01*
X018186Y035670D01*
X018237Y035640D01*
X018286Y035606D01*
X018332Y035570D01*
X018376Y035530D01*
X018417Y035487D01*
X018455Y035442D01*
X018490Y035394D01*
X018522Y035345D01*
X018551Y035293D01*
X018576Y035239D01*
X018597Y035184D01*
X018615Y035127D01*
X018628Y035069D01*
X018638Y035011D01*
X018644Y034952D01*
X018646Y034893D01*
X018644Y034834D01*
X018638Y034775D01*
X018628Y034717D01*
X018615Y034659D01*
X018597Y034602D01*
X018576Y034547D01*
X018551Y034493D01*
X018522Y034441D01*
X018490Y034392D01*
X018455Y034344D01*
X018417Y034299D01*
X018376Y034256D01*
X018332Y034216D01*
X018286Y034180D01*
X018237Y034146D01*
X018186Y034116D01*
X018133Y034089D01*
X018078Y034066D01*
X018023Y034047D01*
X017965Y034031D01*
X017907Y034019D01*
X017849Y034011D01*
X017790Y034007D01*
X017730Y034007D01*
X017671Y034011D01*
X017613Y034019D01*
X017555Y034031D01*
X017497Y034047D01*
X017442Y034066D01*
X017387Y034089D01*
X017334Y034116D01*
X017283Y034146D01*
X017234Y034180D01*
X017188Y034216D01*
X017144Y034256D01*
X017103Y034299D01*
X017065Y034344D01*
X017030Y034392D01*
X016998Y034441D01*
X016969Y034493D01*
X016944Y034547D01*
X016923Y034602D01*
X016905Y034659D01*
X016892Y034717D01*
X016882Y034775D01*
X016876Y034834D01*
X016874Y034893D01*
X042911Y017435D02*
X042913Y017461D01*
X042919Y017487D01*
X042928Y017511D01*
X042941Y017534D01*
X042958Y017554D01*
X042977Y017572D01*
X042999Y017587D01*
X043022Y017598D01*
X043047Y017606D01*
X043073Y017610D01*
X043099Y017610D01*
X043125Y017606D01*
X043150Y017598D01*
X043174Y017587D01*
X043195Y017572D01*
X043214Y017554D01*
X043231Y017534D01*
X043244Y017511D01*
X043253Y017487D01*
X043259Y017461D01*
X043261Y017435D01*
X043259Y017409D01*
X043253Y017383D01*
X043244Y017359D01*
X043231Y017336D01*
X043214Y017316D01*
X043195Y017298D01*
X043173Y017283D01*
X043150Y017272D01*
X043125Y017264D01*
X043099Y017260D01*
X043073Y017260D01*
X043047Y017264D01*
X043022Y017272D01*
X042998Y017283D01*
X042977Y017298D01*
X042958Y017316D01*
X042941Y017336D01*
X042928Y017359D01*
X042919Y017383D01*
X042913Y017409D01*
X042911Y017435D01*
X046060Y017435D02*
X046062Y017461D01*
X046068Y017487D01*
X046077Y017511D01*
X046090Y017534D01*
X046107Y017554D01*
X046126Y017572D01*
X046148Y017587D01*
X046171Y017598D01*
X046196Y017606D01*
X046222Y017610D01*
X046248Y017610D01*
X046274Y017606D01*
X046299Y017598D01*
X046323Y017587D01*
X046344Y017572D01*
X046363Y017554D01*
X046380Y017534D01*
X046393Y017511D01*
X046402Y017487D01*
X046408Y017461D01*
X046410Y017435D01*
X046408Y017409D01*
X046402Y017383D01*
X046393Y017359D01*
X046380Y017336D01*
X046363Y017316D01*
X046344Y017298D01*
X046322Y017283D01*
X046299Y017272D01*
X046274Y017264D01*
X046248Y017260D01*
X046222Y017260D01*
X046196Y017264D01*
X046171Y017272D01*
X046147Y017283D01*
X046126Y017298D01*
X046107Y017316D01*
X046090Y017336D01*
X046077Y017359D01*
X046068Y017383D01*
X046062Y017409D01*
X046060Y017435D01*
X048645Y019011D02*
X048647Y019050D01*
X048653Y019089D01*
X048663Y019127D01*
X048676Y019164D01*
X048693Y019199D01*
X048713Y019233D01*
X048737Y019264D01*
X048764Y019293D01*
X048793Y019319D01*
X048825Y019342D01*
X048859Y019362D01*
X048895Y019378D01*
X048932Y019390D01*
X048971Y019399D01*
X049010Y019404D01*
X049049Y019405D01*
X049088Y019402D01*
X049127Y019395D01*
X049164Y019384D01*
X049201Y019370D01*
X049236Y019352D01*
X049269Y019331D01*
X049300Y019306D01*
X049328Y019279D01*
X049353Y019249D01*
X049375Y019216D01*
X049394Y019182D01*
X049409Y019146D01*
X049421Y019108D01*
X049429Y019070D01*
X049433Y019031D01*
X049433Y018991D01*
X049429Y018952D01*
X049421Y018914D01*
X049409Y018876D01*
X049394Y018840D01*
X049375Y018806D01*
X049353Y018773D01*
X049328Y018743D01*
X049300Y018716D01*
X049269Y018691D01*
X049236Y018670D01*
X049201Y018652D01*
X049164Y018638D01*
X049127Y018627D01*
X049088Y018620D01*
X049049Y018617D01*
X049010Y018618D01*
X048971Y018623D01*
X048932Y018632D01*
X048895Y018644D01*
X048859Y018660D01*
X048825Y018680D01*
X048793Y018703D01*
X048764Y018729D01*
X048737Y018758D01*
X048713Y018789D01*
X048693Y018823D01*
X048676Y018858D01*
X048663Y018895D01*
X048653Y018933D01*
X048647Y018972D01*
X048645Y019011D01*
X051874Y017893D02*
X051876Y017952D01*
X051882Y018011D01*
X051892Y018069D01*
X051905Y018127D01*
X051923Y018184D01*
X051944Y018239D01*
X051969Y018293D01*
X051998Y018345D01*
X052030Y018394D01*
X052065Y018442D01*
X052103Y018487D01*
X052144Y018530D01*
X052188Y018570D01*
X052234Y018606D01*
X052283Y018640D01*
X052334Y018670D01*
X052387Y018697D01*
X052442Y018720D01*
X052497Y018739D01*
X052555Y018755D01*
X052613Y018767D01*
X052671Y018775D01*
X052730Y018779D01*
X052790Y018779D01*
X052849Y018775D01*
X052907Y018767D01*
X052965Y018755D01*
X053023Y018739D01*
X053078Y018720D01*
X053133Y018697D01*
X053186Y018670D01*
X053237Y018640D01*
X053286Y018606D01*
X053332Y018570D01*
X053376Y018530D01*
X053417Y018487D01*
X053455Y018442D01*
X053490Y018394D01*
X053522Y018345D01*
X053551Y018293D01*
X053576Y018239D01*
X053597Y018184D01*
X053615Y018127D01*
X053628Y018069D01*
X053638Y018011D01*
X053644Y017952D01*
X053646Y017893D01*
X053644Y017834D01*
X053638Y017775D01*
X053628Y017717D01*
X053615Y017659D01*
X053597Y017602D01*
X053576Y017547D01*
X053551Y017493D01*
X053522Y017441D01*
X053490Y017392D01*
X053455Y017344D01*
X053417Y017299D01*
X053376Y017256D01*
X053332Y017216D01*
X053286Y017180D01*
X053237Y017146D01*
X053186Y017116D01*
X053133Y017089D01*
X053078Y017066D01*
X053023Y017047D01*
X052965Y017031D01*
X052907Y017019D01*
X052849Y017011D01*
X052790Y017007D01*
X052730Y017007D01*
X052671Y017011D01*
X052613Y017019D01*
X052555Y017031D01*
X052497Y017047D01*
X052442Y017066D01*
X052387Y017089D01*
X052334Y017116D01*
X052283Y017146D01*
X052234Y017180D01*
X052188Y017216D01*
X052144Y017256D01*
X052103Y017299D01*
X052065Y017344D01*
X052030Y017392D01*
X051998Y017441D01*
X051969Y017493D01*
X051944Y017547D01*
X051923Y017602D01*
X051905Y017659D01*
X051892Y017717D01*
X051882Y017775D01*
X051876Y017834D01*
X051874Y017893D01*
X048645Y033775D02*
X048647Y033814D01*
X048653Y033853D01*
X048663Y033891D01*
X048676Y033928D01*
X048693Y033963D01*
X048713Y033997D01*
X048737Y034028D01*
X048764Y034057D01*
X048793Y034083D01*
X048825Y034106D01*
X048859Y034126D01*
X048895Y034142D01*
X048932Y034154D01*
X048971Y034163D01*
X049010Y034168D01*
X049049Y034169D01*
X049088Y034166D01*
X049127Y034159D01*
X049164Y034148D01*
X049201Y034134D01*
X049236Y034116D01*
X049269Y034095D01*
X049300Y034070D01*
X049328Y034043D01*
X049353Y034013D01*
X049375Y033980D01*
X049394Y033946D01*
X049409Y033910D01*
X049421Y033872D01*
X049429Y033834D01*
X049433Y033795D01*
X049433Y033755D01*
X049429Y033716D01*
X049421Y033678D01*
X049409Y033640D01*
X049394Y033604D01*
X049375Y033570D01*
X049353Y033537D01*
X049328Y033507D01*
X049300Y033480D01*
X049269Y033455D01*
X049236Y033434D01*
X049201Y033416D01*
X049164Y033402D01*
X049127Y033391D01*
X049088Y033384D01*
X049049Y033381D01*
X049010Y033382D01*
X048971Y033387D01*
X048932Y033396D01*
X048895Y033408D01*
X048859Y033424D01*
X048825Y033444D01*
X048793Y033467D01*
X048764Y033493D01*
X048737Y033522D01*
X048713Y033553D01*
X048693Y033587D01*
X048676Y033622D01*
X048663Y033659D01*
X048653Y033697D01*
X048647Y033736D01*
X048645Y033775D01*
X051874Y034893D02*
X051876Y034952D01*
X051882Y035011D01*
X051892Y035069D01*
X051905Y035127D01*
X051923Y035184D01*
X051944Y035239D01*
X051969Y035293D01*
X051998Y035345D01*
X052030Y035394D01*
X052065Y035442D01*
X052103Y035487D01*
X052144Y035530D01*
X052188Y035570D01*
X052234Y035606D01*
X052283Y035640D01*
X052334Y035670D01*
X052387Y035697D01*
X052442Y035720D01*
X052497Y035739D01*
X052555Y035755D01*
X052613Y035767D01*
X052671Y035775D01*
X052730Y035779D01*
X052790Y035779D01*
X052849Y035775D01*
X052907Y035767D01*
X052965Y035755D01*
X053023Y035739D01*
X053078Y035720D01*
X053133Y035697D01*
X053186Y035670D01*
X053237Y035640D01*
X053286Y035606D01*
X053332Y035570D01*
X053376Y035530D01*
X053417Y035487D01*
X053455Y035442D01*
X053490Y035394D01*
X053522Y035345D01*
X053551Y035293D01*
X053576Y035239D01*
X053597Y035184D01*
X053615Y035127D01*
X053628Y035069D01*
X053638Y035011D01*
X053644Y034952D01*
X053646Y034893D01*
X053644Y034834D01*
X053638Y034775D01*
X053628Y034717D01*
X053615Y034659D01*
X053597Y034602D01*
X053576Y034547D01*
X053551Y034493D01*
X053522Y034441D01*
X053490Y034392D01*
X053455Y034344D01*
X053417Y034299D01*
X053376Y034256D01*
X053332Y034216D01*
X053286Y034180D01*
X053237Y034146D01*
X053186Y034116D01*
X053133Y034089D01*
X053078Y034066D01*
X053023Y034047D01*
X052965Y034031D01*
X052907Y034019D01*
X052849Y034011D01*
X052790Y034007D01*
X052730Y034007D01*
X052671Y034011D01*
X052613Y034019D01*
X052555Y034031D01*
X052497Y034047D01*
X052442Y034066D01*
X052387Y034089D01*
X052334Y034116D01*
X052283Y034146D01*
X052234Y034180D01*
X052188Y034216D01*
X052144Y034256D01*
X052103Y034299D01*
X052065Y034344D01*
X052030Y034392D01*
X051998Y034441D01*
X051969Y034493D01*
X051944Y034547D01*
X051923Y034602D01*
X051905Y034659D01*
X051892Y034717D01*
X051882Y034775D01*
X051876Y034834D01*
X051874Y034893D01*
D12*
X051752Y030393D03*
X051752Y029393D03*
X051752Y028393D03*
X049767Y028393D03*
X049767Y029393D03*
X049767Y030393D03*
X020752Y030393D03*
X020752Y029393D03*
X020752Y028393D03*
X018767Y028393D03*
X018767Y029393D03*
X018767Y030393D03*
D13*
X023480Y031918D03*
X026039Y031918D03*
X030480Y031918D03*
X033039Y031918D03*
X037480Y031918D03*
X040039Y031918D03*
X044480Y031918D03*
X047039Y031918D03*
X047039Y035868D03*
X044480Y035868D03*
X040039Y035868D03*
X037480Y035868D03*
X033039Y035868D03*
X030480Y035868D03*
X026039Y035868D03*
X023480Y035868D03*
D14*
X017776Y024684D02*
X017776Y024472D01*
X017776Y024684D02*
X017870Y024684D01*
X017870Y024472D01*
X017776Y024472D01*
X017776Y022715D02*
X017776Y022503D01*
X017776Y022715D02*
X017870Y022715D01*
X017870Y022503D01*
X017776Y022503D01*
D15*
X016888Y022215D02*
X016632Y022215D01*
X016632Y024971D02*
X016888Y024971D01*
D16*
X019646Y025143D03*
X022032Y026893D03*
X022510Y027393D03*
X022782Y022268D03*
X037785Y023393D03*
X040010Y023393D03*
X041760Y023393D03*
X043416Y023393D03*
X045409Y019268D03*
X049385Y020309D03*
X050884Y022043D03*
X050135Y018018D03*
X039535Y017418D03*
X046510Y027143D03*
X035260Y035643D03*
D17*
X048039Y022141D03*
X048039Y020921D03*
X048039Y019700D03*
D18*
X045637Y020311D03*
X045637Y021531D03*
D19*
X048497Y020309D03*
X048897Y020309D03*
X022437Y025643D03*
X022082Y025643D03*
D20*
X036260Y026993D02*
X036260Y027293D01*
X048547Y020309D02*
X048847Y020309D01*
D21*
G36*
X027174Y024893D02*
X025760Y023479D01*
X024346Y024893D01*
X025760Y026307D01*
X027174Y024893D01*
G37*
D22*
X036260Y026943D03*
X036260Y027343D03*
D23*
X037035Y026231D03*
X036260Y025543D03*
X035510Y025893D03*
X035010Y025893D03*
X034885Y026643D03*
X032822Y027393D03*
X032510Y027893D03*
X031597Y028293D03*
X033260Y028893D03*
X034260Y030393D03*
X034760Y031103D03*
X035760Y031103D03*
X036260Y030393D03*
X037260Y028893D03*
X038010Y027893D03*
X037697Y027393D03*
X039510Y028393D03*
X040760Y028393D03*
X042010Y028393D03*
X043260Y028393D03*
X043260Y027643D03*
X044510Y027643D03*
X044510Y028393D03*
X045760Y028393D03*
X045760Y027643D03*
X047010Y027643D03*
X047010Y028393D03*
X048260Y028393D03*
X048260Y027643D03*
X050010Y027643D03*
X051760Y027643D03*
X052994Y027643D03*
X052510Y025893D03*
X050157Y025081D03*
X049572Y024706D03*
X049572Y024081D03*
X049050Y023893D03*
X050157Y023643D03*
X050157Y024393D03*
X051635Y023768D03*
X051635Y023018D03*
X051635Y022268D03*
X049635Y021175D03*
X049760Y019643D03*
X051385Y019268D03*
X052660Y020693D03*
X048010Y018893D03*
X047135Y018768D03*
X045635Y018768D03*
X044976Y019893D03*
X044110Y019593D03*
X043697Y020193D03*
X043243Y020193D03*
X043243Y021143D03*
X044110Y021143D03*
X043260Y022643D03*
X044543Y023393D03*
X046510Y022143D03*
X047135Y022018D03*
X047135Y020268D03*
X044135Y018768D03*
X042760Y018768D03*
X041535Y019893D03*
X041035Y019593D03*
X040035Y020193D03*
X039535Y020518D03*
X038572Y021268D03*
X038572Y022018D03*
X039010Y022018D03*
X039535Y022143D03*
X040010Y022643D03*
X039010Y023393D03*
X038572Y023393D03*
X037760Y022643D03*
X037425Y022143D03*
X036244Y022143D03*
X035850Y022393D03*
X034669Y022143D03*
X036637Y023518D03*
X038135Y025081D03*
X038572Y025643D03*
X039010Y025643D03*
X040844Y025081D03*
X042010Y025643D03*
X043416Y025081D03*
X046510Y025456D03*
X046510Y026518D03*
X046925Y030268D03*
X044594Y030268D03*
X043260Y031103D03*
X042260Y030393D03*
X039925Y030268D03*
X042260Y032393D03*
X042260Y034893D03*
X045760Y033893D03*
X051010Y032143D03*
X052660Y032093D03*
X040760Y027143D03*
X040260Y027143D03*
X032347Y025543D03*
X031135Y026059D03*
X031597Y026793D03*
X029572Y027081D03*
X029260Y027393D03*
X029572Y027706D03*
X029260Y028018D03*
X029572Y028331D03*
X029260Y026768D03*
X029572Y026456D03*
X029260Y026143D03*
X031135Y024768D03*
X031447Y024456D03*
X028947Y023331D03*
X028635Y023018D03*
X027510Y022268D03*
X027510Y021643D03*
X027085Y020956D03*
X026760Y020706D03*
X025760Y020768D03*
X024960Y020956D03*
X024635Y021268D03*
X024310Y020956D03*
X024010Y021268D03*
X021760Y021393D03*
X021760Y020893D03*
X020657Y019943D03*
X019422Y019943D03*
X017860Y020693D03*
X018385Y022268D03*
X018385Y024393D03*
X020760Y024893D03*
X022510Y024143D03*
X022760Y024893D03*
X023510Y022893D03*
X019510Y026393D03*
X017860Y026393D03*
X019010Y028893D03*
X020510Y028893D03*
X020760Y029893D03*
X022260Y031103D03*
X023594Y030268D03*
X025010Y028706D03*
X024635Y027831D03*
X025760Y027768D03*
X025925Y030268D03*
X028260Y030393D03*
X029260Y031103D03*
X030594Y030268D03*
X028260Y032393D03*
X028260Y034893D03*
X024760Y033893D03*
X019510Y032143D03*
X017860Y032093D03*
X017525Y031018D03*
X031760Y033893D03*
X034885Y034905D03*
X035634Y034893D03*
X038760Y033893D03*
X031760Y021643D03*
X029957Y020831D03*
X029510Y018768D03*
X029510Y017393D03*
X032010Y018643D03*
X032760Y017393D03*
X035260Y017393D03*
X037760Y017393D03*
X039010Y018643D03*
X035456Y019593D03*
X035063Y019893D03*
X026260Y018768D03*
X026260Y017393D03*
X023271Y018268D03*
X022782Y017871D03*
X019936Y016893D03*
X044135Y017393D03*
X045635Y017393D03*
X048635Y016893D03*
D24*
X049825Y017203D02*
X049825Y017857D01*
X049786Y017949D01*
X049786Y018088D01*
X049839Y018215D01*
X049937Y018313D01*
X050065Y018366D01*
X050204Y018366D01*
X050332Y018313D01*
X050430Y018215D01*
X050483Y018088D01*
X050483Y017949D01*
X050445Y017857D01*
X050445Y017203D01*
X050510Y017203D01*
X050617Y017212D01*
X050823Y017279D01*
X050997Y017405D01*
X051124Y017580D01*
X051191Y017785D01*
X051200Y017893D01*
X051200Y018099D01*
X051306Y018495D01*
X051511Y018851D01*
X051511Y018851D01*
X051802Y019142D01*
X051802Y019142D01*
X052157Y019347D01*
X052157Y019347D01*
X052554Y019453D01*
X052760Y019453D01*
X052867Y019462D01*
X053073Y019529D01*
X053247Y019655D01*
X053374Y019830D01*
X049962Y019830D01*
X049993Y019799D02*
X049930Y019862D01*
X049930Y020714D01*
X049830Y020813D01*
X049805Y020839D01*
X049805Y020956D01*
X049868Y021019D01*
X049910Y021120D01*
X049910Y021230D01*
X049868Y021331D01*
X049790Y021408D01*
X049689Y021450D01*
X049580Y021450D01*
X049479Y021408D01*
X049401Y021331D01*
X049360Y021230D01*
X049360Y021120D01*
X049401Y021019D01*
X049465Y020956D01*
X049465Y020698D01*
X049542Y020620D01*
X049454Y020657D01*
X049315Y020657D01*
X049187Y020604D01*
X049132Y020548D01*
X049132Y020604D01*
X049068Y020669D01*
X048726Y020669D01*
X048697Y020639D01*
X048668Y020669D01*
X048385Y020669D01*
X048385Y021262D01*
X048321Y021326D01*
X047757Y021326D01*
X047693Y021262D01*
X047693Y020580D01*
X047757Y020516D01*
X048046Y020516D01*
X047944Y020414D01*
X047809Y020279D01*
X047809Y020106D01*
X047757Y020106D01*
X047693Y020041D01*
X047693Y019360D01*
X047757Y019295D01*
X048321Y019295D01*
X048385Y019360D01*
X048385Y019949D01*
X048668Y019949D01*
X048697Y019978D01*
X048726Y019949D01*
X049068Y019949D01*
X049132Y020013D01*
X049132Y020069D01*
X049187Y020014D01*
X049315Y019961D01*
X049454Y019961D01*
X049582Y020014D01*
X049590Y020021D01*
X049590Y019862D01*
X049526Y019799D01*
X049485Y019698D01*
X049485Y019589D01*
X049526Y019488D01*
X049604Y019410D01*
X049705Y019368D01*
X049814Y019368D01*
X049915Y019410D01*
X049993Y019488D01*
X050035Y019589D01*
X050035Y019698D01*
X049993Y019799D01*
X050029Y019711D02*
X053288Y019711D01*
X053374Y019830D02*
X053441Y020035D01*
X053450Y020143D01*
X053450Y028015D01*
X053381Y028083D01*
X052477Y028083D01*
X052427Y028033D01*
X051235Y028033D01*
X051267Y028001D01*
X051367Y027901D01*
X051367Y022948D01*
X051117Y022698D01*
X051017Y022598D01*
X045892Y022598D01*
X045255Y021961D01*
X045280Y021975D01*
X045321Y021986D01*
X045577Y021986D01*
X045577Y021591D01*
X045577Y021471D01*
X045182Y021471D01*
X045182Y021215D01*
X045193Y021174D01*
X045214Y021138D01*
X045244Y021108D01*
X045280Y021087D01*
X045321Y021076D01*
X045577Y021076D01*
X045577Y021471D01*
X045697Y021471D01*
X045697Y021076D01*
X045954Y021076D01*
X045994Y021087D01*
X046031Y021108D01*
X046061Y021138D01*
X046082Y021174D01*
X046093Y021215D01*
X046093Y021471D01*
X045697Y021471D01*
X045697Y021591D01*
X045577Y021591D01*
X045182Y021591D01*
X045182Y021847D01*
X045193Y021888D01*
X045208Y021914D01*
X045146Y021852D01*
X045146Y020112D01*
X045182Y020076D01*
X045182Y020251D01*
X045577Y020251D01*
X045577Y020371D01*
X045182Y020371D01*
X045182Y020627D01*
X045193Y020668D01*
X045214Y020704D01*
X045244Y020734D01*
X045280Y020755D01*
X045321Y020766D01*
X045577Y020766D01*
X045577Y020371D01*
X045697Y020371D01*
X045697Y020766D01*
X045954Y020766D01*
X045994Y020755D01*
X046031Y020734D01*
X046061Y020704D01*
X046082Y020668D01*
X046093Y020627D01*
X046093Y020371D01*
X045697Y020371D01*
X045697Y020251D01*
X045697Y019855D01*
X045954Y019855D01*
X045994Y019866D01*
X046031Y019887D01*
X046061Y019917D01*
X046082Y019954D01*
X046093Y019994D01*
X046093Y020251D01*
X045697Y020251D01*
X045577Y020251D01*
X045577Y019855D01*
X045321Y019855D01*
X045280Y019866D01*
X045251Y019883D01*
X045251Y019839D01*
X045209Y019738D01*
X045131Y019660D01*
X045030Y019618D01*
X044921Y019618D01*
X044820Y019660D01*
X044757Y019723D01*
X044353Y019723D01*
X044385Y019648D01*
X044385Y019539D01*
X044343Y019438D01*
X045102Y019438D01*
X045114Y019465D01*
X045212Y019563D01*
X045339Y019616D01*
X045478Y019616D01*
X045606Y019563D01*
X045704Y019465D01*
X045757Y019338D01*
X045757Y019199D01*
X045704Y019071D01*
X045606Y018973D01*
X045478Y018920D01*
X045339Y018920D01*
X045212Y018973D01*
X045114Y019071D01*
X045102Y019098D01*
X024189Y019098D01*
X024090Y019198D01*
X023840Y019448D01*
X023840Y021049D01*
X023776Y021113D01*
X023735Y021214D01*
X023735Y021323D01*
X023776Y021424D01*
X023854Y021501D01*
X023955Y021543D01*
X024064Y021543D01*
X024165Y021501D01*
X024243Y021424D01*
X024285Y021323D01*
X024285Y021231D01*
X024360Y021231D01*
X024360Y021323D01*
X024401Y021424D01*
X024479Y021501D01*
X024580Y021543D01*
X024689Y021543D01*
X024790Y021501D01*
X024868Y021424D01*
X024910Y021323D01*
X024910Y021231D01*
X025014Y021231D01*
X025115Y021189D01*
X025193Y021112D01*
X025235Y021011D01*
X025235Y020901D01*
X025193Y020800D01*
X025130Y020737D01*
X025130Y020514D01*
X025280Y020363D01*
X026862Y020363D01*
X026794Y020431D01*
X026705Y020431D01*
X026604Y020473D01*
X026526Y020550D01*
X026485Y020651D01*
X026485Y020761D01*
X026526Y020862D01*
X026604Y020939D01*
X026705Y020981D01*
X026810Y020981D01*
X026810Y021011D01*
X026846Y021098D01*
X025689Y021098D01*
X025590Y021198D01*
X024439Y022348D01*
X023314Y022348D01*
X023215Y022448D01*
X022340Y023323D01*
X022340Y023924D01*
X022276Y023988D01*
X022235Y024089D01*
X022235Y024198D01*
X022276Y024299D01*
X022354Y024376D01*
X022455Y024418D01*
X022564Y024418D01*
X022665Y024376D01*
X022743Y024299D01*
X022785Y024198D01*
X022785Y024089D01*
X022743Y023988D01*
X022680Y023924D01*
X022680Y023464D01*
X023235Y022909D01*
X023235Y022948D01*
X023276Y023049D01*
X023354Y023126D01*
X023455Y023168D01*
X023544Y023168D01*
X023727Y023351D01*
X022530Y024548D01*
X022530Y024734D01*
X022526Y024738D01*
X022485Y024839D01*
X022485Y024948D01*
X022526Y025049D01*
X022604Y025126D01*
X022705Y025168D01*
X022814Y025168D01*
X022915Y025126D01*
X022993Y025049D01*
X023035Y024948D01*
X023035Y024839D01*
X022993Y024738D01*
X022992Y024736D01*
X024105Y023623D01*
X025855Y021873D01*
X027351Y021873D01*
X027354Y021876D01*
X027455Y021918D01*
X027564Y021918D01*
X027665Y021876D01*
X027668Y021873D01*
X031601Y021873D01*
X031604Y021876D01*
X031705Y021918D01*
X031814Y021918D01*
X031915Y021876D01*
X031918Y021873D01*
X034499Y021873D01*
X034499Y021924D01*
X034436Y021988D01*
X034394Y022089D01*
X034394Y022198D01*
X034436Y022299D01*
X034513Y022376D01*
X034614Y022418D01*
X034724Y022418D01*
X034825Y022376D01*
X034902Y022299D01*
X034944Y022198D01*
X034944Y022089D01*
X034902Y021988D01*
X034839Y021924D01*
X034839Y021873D01*
X036177Y021873D01*
X036088Y021910D01*
X036011Y021988D01*
X035969Y022089D01*
X035969Y022145D01*
X035905Y022118D01*
X035795Y022118D01*
X035694Y022160D01*
X035617Y022238D01*
X035575Y022339D01*
X035575Y022448D01*
X035617Y022549D01*
X035629Y022561D01*
X035530Y022661D01*
X029439Y022661D01*
X029189Y022911D01*
X028888Y022911D01*
X028868Y022863D02*
X028910Y022964D01*
X028910Y023056D01*
X029002Y023056D01*
X029090Y023092D01*
X029090Y023010D01*
X029189Y022911D01*
X029090Y023029D02*
X028910Y023029D01*
X028868Y022863D02*
X028790Y022785D01*
X028689Y022743D01*
X028580Y022743D01*
X028479Y022785D01*
X028401Y022863D01*
X028360Y022964D01*
X028360Y023073D01*
X028401Y023174D01*
X028465Y023237D01*
X028465Y027823D01*
X028314Y027973D01*
X021830Y027973D01*
X021680Y027823D01*
X021580Y027723D01*
X020002Y027723D01*
X019507Y028218D01*
X019507Y028098D01*
X019443Y028033D01*
X018092Y028033D01*
X018027Y028098D01*
X018027Y028689D01*
X018092Y028753D01*
X018770Y028753D01*
X018735Y028839D01*
X018735Y028948D01*
X018770Y029033D01*
X018092Y029033D01*
X018027Y029098D01*
X018027Y029689D01*
X018092Y029753D01*
X019443Y029753D01*
X019507Y029689D01*
X019507Y029098D01*
X019443Y029033D01*
X019249Y029033D01*
X019285Y028948D01*
X019285Y028839D01*
X019249Y028753D01*
X019443Y028753D01*
X019507Y028689D01*
X019507Y028563D01*
X019642Y028563D01*
X020012Y028194D01*
X020012Y028689D01*
X020076Y028753D01*
X020270Y028753D01*
X020235Y028839D01*
X020235Y028948D01*
X020270Y029033D01*
X020076Y029033D01*
X020012Y029098D01*
X020012Y029689D01*
X020076Y029753D01*
X020520Y029753D01*
X020485Y029839D01*
X020485Y029948D01*
X020520Y030033D01*
X020076Y030033D01*
X020012Y030098D01*
X020012Y030689D01*
X020076Y030753D01*
X020526Y030753D01*
X020431Y030848D01*
X017744Y030848D01*
X017681Y030785D01*
X017580Y030743D01*
X017470Y030743D01*
X017369Y030785D01*
X017292Y030863D01*
X017250Y030964D01*
X017250Y031073D01*
X017292Y031174D01*
X017369Y031251D01*
X017470Y031293D01*
X017580Y031293D01*
X017681Y031251D01*
X017744Y031188D01*
X020572Y031188D01*
X020672Y031089D01*
X020922Y030839D01*
X020922Y030753D01*
X021427Y030753D01*
X021492Y030689D01*
X021492Y030098D01*
X021427Y030033D01*
X020999Y030033D01*
X021035Y029948D01*
X021035Y029839D01*
X020999Y029753D01*
X021427Y029753D01*
X021492Y029689D01*
X021492Y029098D01*
X021427Y029033D01*
X020749Y029033D01*
X020785Y028948D01*
X020785Y028839D01*
X020749Y028753D01*
X021427Y028753D01*
X021492Y028689D01*
X021492Y028563D01*
X024771Y028563D01*
X024735Y028651D01*
X024735Y028761D01*
X024776Y028862D01*
X024808Y028893D01*
X021510Y028893D01*
X021510Y033221D01*
X021370Y033221D01*
X021166Y033306D01*
X021011Y033462D01*
X020926Y033665D01*
X020926Y033885D01*
X021011Y034089D01*
X021166Y034245D01*
X021370Y034329D01*
X021510Y034329D01*
X021510Y036208D01*
X017760Y036208D01*
X017588Y036197D01*
X017256Y036108D01*
X016959Y035937D01*
X016716Y035694D01*
X016545Y035397D01*
X016456Y035065D01*
X016445Y034893D01*
X016445Y017893D01*
X016456Y017722D01*
X016545Y017390D01*
X016716Y017093D01*
X016959Y016850D01*
X017256Y016678D01*
X017588Y016590D01*
X017760Y016578D01*
X052760Y016578D01*
X052931Y016590D01*
X053263Y016678D01*
X053560Y016850D01*
X053803Y017093D01*
X053974Y017390D01*
X054063Y017722D01*
X054063Y017722D01*
X054075Y017893D01*
X054075Y034893D01*
X054063Y035065D01*
X053974Y035397D01*
X053803Y035694D01*
X053560Y035937D01*
X053263Y036108D01*
X052931Y036197D01*
X052760Y036208D01*
X049010Y036208D01*
X049010Y034329D01*
X049149Y034329D01*
X049353Y034245D01*
X049508Y034089D01*
X049593Y033885D01*
X049593Y033665D01*
X049508Y033462D01*
X049353Y033306D01*
X049149Y033221D01*
X049010Y033221D01*
X049010Y028893D01*
X038760Y028893D01*
X038760Y027259D01*
X039090Y027589D01*
X039189Y027688D01*
X040455Y027688D01*
X040725Y027418D01*
X040814Y027418D01*
X040915Y027376D01*
X040993Y027299D01*
X041035Y027198D01*
X041035Y027089D01*
X040993Y026988D01*
X040915Y026910D01*
X040814Y026868D01*
X040705Y026868D01*
X040604Y026910D01*
X040526Y026988D01*
X040510Y027028D01*
X040493Y026988D01*
X040415Y026910D01*
X040314Y026868D01*
X040205Y026868D01*
X040104Y026910D01*
X040041Y026973D01*
X039330Y026973D01*
X039180Y026823D01*
X039180Y025862D01*
X039243Y025799D01*
X039285Y025698D01*
X039285Y025589D01*
X039243Y025488D01*
X039165Y025410D01*
X039064Y025368D01*
X038955Y025368D01*
X038854Y025410D01*
X038791Y025473D01*
X038728Y025410D01*
X038627Y025368D01*
X038517Y025368D01*
X038416Y025410D01*
X038339Y025488D01*
X038297Y025589D01*
X038297Y025698D01*
X038339Y025799D01*
X038402Y025862D01*
X038402Y026893D01*
X036670Y026893D01*
X036670Y026797D01*
X036659Y026757D01*
X036638Y026720D01*
X036608Y026690D01*
X036571Y026669D01*
X036531Y026658D01*
X036262Y026658D01*
X036262Y026843D01*
X036257Y026843D01*
X036257Y026658D01*
X035988Y026658D01*
X035948Y026669D01*
X035911Y026690D01*
X035881Y026720D01*
X035860Y026757D01*
X035850Y026797D01*
X035850Y026893D01*
X035555Y026893D01*
X035555Y026168D01*
X035564Y026168D01*
X035665Y026126D01*
X035743Y026049D01*
X035785Y025948D01*
X035785Y025839D01*
X035743Y025738D01*
X035665Y025660D01*
X035564Y025618D01*
X035455Y025618D01*
X035354Y025660D01*
X035276Y025738D01*
X035260Y025778D01*
X035243Y025738D01*
X035165Y025660D01*
X035064Y025618D01*
X034955Y025618D01*
X034854Y025660D01*
X034776Y025738D01*
X034735Y025839D01*
X034735Y025948D01*
X034776Y026049D01*
X034854Y026126D01*
X034955Y026168D01*
X035027Y026168D01*
X035027Y026405D01*
X034939Y026368D01*
X034830Y026368D01*
X034729Y026410D01*
X034651Y026488D01*
X034610Y026589D01*
X034610Y026698D01*
X034651Y026799D01*
X034655Y026802D01*
X034655Y026893D01*
X031760Y026893D01*
X031760Y028893D01*
X031022Y028893D01*
X031115Y028801D01*
X031365Y028551D01*
X031365Y026218D01*
X031368Y026214D01*
X031410Y026113D01*
X031410Y026004D01*
X031368Y025903D01*
X031365Y025900D01*
X031365Y025801D01*
X031855Y025311D01*
X037976Y025311D01*
X037979Y025314D01*
X038080Y025356D01*
X038189Y025356D01*
X038290Y025314D01*
X038293Y025311D01*
X040685Y025311D01*
X040688Y025314D01*
X040789Y025356D01*
X040899Y025356D01*
X041000Y025314D01*
X041003Y025311D01*
X043257Y025311D01*
X043260Y025314D01*
X043361Y025356D01*
X043470Y025356D01*
X043572Y025314D01*
X043575Y025311D01*
X046272Y025311D01*
X046235Y025401D01*
X046235Y025511D01*
X046276Y025612D01*
X046340Y025675D01*
X046340Y026299D01*
X046276Y026363D01*
X046235Y026464D01*
X046235Y026573D01*
X046276Y026674D01*
X046354Y026751D01*
X046455Y026793D01*
X046564Y026793D01*
X046665Y026751D01*
X046743Y026674D01*
X046785Y026573D01*
X046785Y026464D01*
X046743Y026363D01*
X046680Y026299D01*
X046680Y025675D01*
X046743Y025612D01*
X046785Y025511D01*
X046785Y025401D01*
X046747Y025311D01*
X048852Y025311D01*
X048905Y025364D01*
X048905Y027489D01*
X049039Y027623D01*
X049289Y027873D01*
X049851Y027873D01*
X049854Y027876D01*
X049955Y027918D01*
X050064Y027918D01*
X050165Y027876D01*
X050215Y027827D01*
X050215Y028033D01*
X049092Y028033D01*
X049027Y028098D01*
X049027Y028689D01*
X049092Y028753D01*
X049909Y028753D01*
X049840Y028823D01*
X049629Y029033D01*
X049092Y029033D01*
X049027Y029098D01*
X049027Y029689D01*
X049092Y029753D01*
X050443Y029753D01*
X050507Y029689D01*
X050507Y029098D01*
X050443Y029033D01*
X050422Y029033D01*
X050590Y028866D01*
X050590Y030073D01*
X050507Y030155D01*
X050507Y030098D01*
X050443Y030033D01*
X049092Y030033D01*
X049027Y030098D01*
X049027Y030689D01*
X049092Y030753D01*
X050443Y030753D01*
X050507Y030689D01*
X050507Y030563D01*
X050580Y030563D01*
X050830Y030313D01*
X050930Y030214D01*
X050930Y028866D01*
X051097Y029033D01*
X051076Y029033D01*
X051012Y029098D01*
X051012Y029689D01*
X051076Y029753D01*
X052427Y029753D01*
X052492Y029689D01*
X052492Y029098D01*
X052427Y029033D01*
X051882Y029033D01*
X051672Y028823D01*
X051602Y028753D01*
X052427Y028753D01*
X052477Y028703D01*
X053571Y028703D01*
X053685Y028656D01*
X053772Y028569D01*
X054022Y028319D01*
X054070Y028205D01*
X054070Y019936D01*
X053941Y019541D01*
X053941Y019541D01*
X053697Y019205D01*
X053697Y019205D01*
X053362Y018962D01*
X053362Y018962D01*
X053114Y018881D01*
X053163Y018868D01*
X053402Y018730D01*
X053596Y018535D01*
X053734Y018297D01*
X053805Y018031D01*
X053805Y017756D01*
X053734Y017490D01*
X053596Y017251D01*
X053402Y017056D01*
X053163Y016919D01*
X052897Y016847D01*
X052622Y016847D01*
X052356Y016919D01*
X052117Y017056D01*
X051923Y017251D01*
X051785Y017490D01*
X051772Y017539D01*
X051691Y017291D01*
X051691Y017291D01*
X051447Y016955D01*
X051447Y016955D01*
X051112Y016712D01*
X051112Y016712D01*
X050717Y016583D01*
X019874Y016583D01*
X019760Y016631D01*
X019673Y016718D01*
X019626Y016832D01*
X019626Y016955D01*
X019673Y017069D01*
X019760Y017156D01*
X019874Y017203D01*
X039257Y017203D01*
X039239Y017221D01*
X039186Y017349D01*
X039186Y017488D01*
X039239Y017615D01*
X039247Y017623D01*
X022902Y017623D01*
X022836Y017596D01*
X022727Y017596D01*
X022626Y017638D01*
X022549Y017715D01*
X022507Y017816D01*
X022507Y017926D01*
X022512Y017938D01*
X022512Y017947D01*
X022553Y018046D01*
X022629Y018122D01*
X022728Y018163D01*
X023017Y018163D01*
X022996Y018214D01*
X022996Y018323D01*
X023038Y018424D01*
X023116Y018501D01*
X023217Y018543D01*
X023326Y018543D01*
X023427Y018501D01*
X023490Y018438D01*
X031826Y018438D01*
X031776Y018488D01*
X031735Y018589D01*
X031735Y018698D01*
X031776Y018799D01*
X031854Y018876D01*
X031955Y018918D01*
X032064Y018918D01*
X032165Y018876D01*
X032228Y018813D01*
X038791Y018813D01*
X038854Y018876D01*
X038955Y018918D01*
X039064Y018918D01*
X039165Y018876D01*
X039243Y018799D01*
X039285Y018698D01*
X039285Y018589D01*
X039243Y018488D01*
X039193Y018438D01*
X045939Y018438D01*
X046340Y018839D01*
X046340Y021924D01*
X046276Y021988D01*
X046235Y022089D01*
X046235Y022198D01*
X046276Y022299D01*
X046354Y022376D01*
X046455Y022418D01*
X046564Y022418D01*
X046665Y022376D01*
X046743Y022299D01*
X046785Y022198D01*
X046785Y022089D01*
X046743Y021988D01*
X046680Y021924D01*
X046680Y018698D01*
X046580Y018598D01*
X046145Y018163D01*
X047398Y018163D01*
X047740Y018505D01*
X047740Y018827D01*
X047735Y018839D01*
X047735Y018948D01*
X047776Y019049D01*
X047854Y019126D01*
X047955Y019168D01*
X048064Y019168D01*
X048165Y019126D01*
X048243Y019049D01*
X048285Y018948D01*
X048285Y018839D01*
X048280Y018827D01*
X048280Y018340D01*
X048238Y018240D01*
X048162Y018164D01*
X047662Y017664D01*
X047563Y017623D01*
X046520Y017623D01*
X046570Y017502D01*
X046570Y017368D01*
X046519Y017245D01*
X046478Y017203D01*
X049825Y017203D01*
X049825Y017223D02*
X046497Y017223D01*
X046559Y017341D02*
X049825Y017341D01*
X049825Y017460D02*
X046570Y017460D01*
X046539Y017578D02*
X049825Y017578D01*
X049825Y017697D02*
X047695Y017697D01*
X047813Y017815D02*
X049825Y017815D01*
X049793Y017934D02*
X047932Y017934D01*
X048050Y018052D02*
X049786Y018052D01*
X049821Y018171D02*
X048169Y018171D01*
X048259Y018289D02*
X049913Y018289D01*
X050356Y018289D02*
X051251Y018289D01*
X051219Y018171D02*
X050448Y018171D01*
X050483Y018052D02*
X051200Y018052D01*
X051200Y017934D02*
X050476Y017934D01*
X050445Y017815D02*
X051193Y017815D01*
X051162Y017697D02*
X050445Y017697D01*
X050445Y017578D02*
X051123Y017578D01*
X051037Y017460D02*
X050445Y017460D01*
X050445Y017341D02*
X050909Y017341D01*
X050651Y017223D02*
X050445Y017223D01*
X050862Y016630D02*
X053083Y016630D01*
X052971Y016867D02*
X053577Y016867D01*
X053696Y016986D02*
X053279Y016986D01*
X053450Y017104D02*
X053809Y017104D01*
X053878Y017223D02*
X053568Y017223D01*
X053648Y017341D02*
X053946Y017341D01*
X053993Y017460D02*
X053717Y017460D01*
X053758Y017578D02*
X054025Y017578D01*
X054057Y017697D02*
X053790Y017697D01*
X053805Y017815D02*
X054069Y017815D01*
X054075Y017934D02*
X053805Y017934D01*
X053800Y018052D02*
X054075Y018052D01*
X054075Y018171D02*
X053768Y018171D01*
X053736Y018289D02*
X054075Y018289D01*
X054075Y018408D02*
X053670Y018408D01*
X053602Y018526D02*
X054075Y018526D01*
X054075Y018645D02*
X053487Y018645D01*
X053344Y018763D02*
X054075Y018763D01*
X054075Y018882D02*
X053116Y018882D01*
X053415Y019000D02*
X054075Y019000D01*
X054075Y019119D02*
X053578Y019119D01*
X053697Y019205D02*
X053697Y019205D01*
X053721Y019237D02*
X054075Y019237D01*
X054075Y019356D02*
X053807Y019356D01*
X053893Y019474D02*
X054075Y019474D01*
X054075Y019593D02*
X053958Y019593D01*
X053997Y019711D02*
X054075Y019711D01*
X054075Y019830D02*
X054035Y019830D01*
X054070Y019948D02*
X054075Y019948D01*
X054070Y020067D02*
X054075Y020067D01*
X054070Y020185D02*
X054075Y020185D01*
X054070Y020304D02*
X054075Y020304D01*
X054070Y020422D02*
X054075Y020422D01*
X054070Y020541D02*
X054075Y020541D01*
X054070Y020659D02*
X054075Y020659D01*
X054070Y020778D02*
X054075Y020778D01*
X054070Y020896D02*
X054075Y020896D01*
X054070Y021015D02*
X054075Y021015D01*
X054070Y021133D02*
X054075Y021133D01*
X054070Y021252D02*
X054075Y021252D01*
X054070Y021370D02*
X054075Y021370D01*
X054070Y021489D02*
X054075Y021489D01*
X054070Y021607D02*
X054075Y021607D01*
X054070Y021726D02*
X054075Y021726D01*
X054070Y021844D02*
X054075Y021844D01*
X054070Y021963D02*
X054075Y021963D01*
X054070Y022081D02*
X054075Y022081D01*
X054070Y022200D02*
X054075Y022200D01*
X054070Y022318D02*
X054075Y022318D01*
X054070Y022437D02*
X054075Y022437D01*
X054070Y022555D02*
X054075Y022555D01*
X054070Y022674D02*
X054075Y022674D01*
X054070Y022792D02*
X054075Y022792D01*
X054070Y022911D02*
X054075Y022911D01*
X054070Y023029D02*
X054075Y023029D01*
X054070Y023148D02*
X054075Y023148D01*
X054070Y023266D02*
X054075Y023266D01*
X054070Y023385D02*
X054075Y023385D01*
X054070Y023503D02*
X054075Y023503D01*
X054070Y023622D02*
X054075Y023622D01*
X054070Y023740D02*
X054075Y023740D01*
X054070Y023859D02*
X054075Y023859D01*
X054070Y023977D02*
X054075Y023977D01*
X054070Y024096D02*
X054075Y024096D01*
X054070Y024214D02*
X054075Y024214D01*
X054070Y024333D02*
X054075Y024333D01*
X054070Y024451D02*
X054075Y024451D01*
X054070Y024570D02*
X054075Y024570D01*
X054070Y024688D02*
X054075Y024688D01*
X054070Y024807D02*
X054075Y024807D01*
X054070Y024925D02*
X054075Y024925D01*
X054070Y025044D02*
X054075Y025044D01*
X054070Y025162D02*
X054075Y025162D01*
X054070Y025281D02*
X054075Y025281D01*
X054070Y025399D02*
X054075Y025399D01*
X054070Y025518D02*
X054075Y025518D01*
X054070Y025636D02*
X054075Y025636D01*
X054070Y025755D02*
X054075Y025755D01*
X054070Y025873D02*
X054075Y025873D01*
X054070Y025992D02*
X054075Y025992D01*
X054070Y026110D02*
X054075Y026110D01*
X054070Y026229D02*
X054075Y026229D01*
X054070Y026347D02*
X054075Y026347D01*
X054070Y026466D02*
X054075Y026466D01*
X054070Y026584D02*
X054075Y026584D01*
X054070Y026703D02*
X054075Y026703D01*
X054070Y026821D02*
X054075Y026821D01*
X054070Y026940D02*
X054075Y026940D01*
X054070Y027058D02*
X054075Y027058D01*
X054070Y027177D02*
X054075Y027177D01*
X054070Y027295D02*
X054075Y027295D01*
X054070Y027414D02*
X054075Y027414D01*
X054070Y027532D02*
X054075Y027532D01*
X054070Y027651D02*
X054075Y027651D01*
X054070Y027769D02*
X054075Y027769D01*
X054070Y027888D02*
X054075Y027888D01*
X054070Y028006D02*
X054075Y028006D01*
X054070Y028125D02*
X054075Y028125D01*
X054075Y028243D02*
X054054Y028243D01*
X054075Y028362D02*
X053979Y028362D01*
X054075Y028480D02*
X053861Y028480D01*
X053742Y028599D02*
X054075Y028599D01*
X054075Y028717D02*
X052463Y028717D01*
X052467Y029073D02*
X054075Y029073D01*
X054075Y029191D02*
X052492Y029191D01*
X052492Y029310D02*
X054075Y029310D01*
X054075Y029428D02*
X052492Y029428D01*
X052492Y029547D02*
X054075Y029547D01*
X054075Y029665D02*
X052492Y029665D01*
X052403Y029983D02*
X052443Y029994D01*
X052480Y030015D01*
X052510Y030045D01*
X052531Y030082D01*
X052542Y030122D01*
X052542Y030333D01*
X051812Y030333D01*
X051812Y030453D01*
X052542Y030453D01*
X052542Y030664D01*
X052531Y030705D01*
X052510Y030742D01*
X052480Y030771D01*
X052443Y030792D01*
X052403Y030803D01*
X051812Y030803D01*
X051812Y030453D01*
X051692Y030453D01*
X051692Y030333D01*
X051812Y030333D01*
X051812Y029983D01*
X052403Y029983D01*
X052485Y030021D02*
X054075Y030021D01*
X054075Y030139D02*
X052542Y030139D01*
X052542Y030258D02*
X054075Y030258D01*
X054075Y030376D02*
X051812Y030376D01*
X051812Y030258D02*
X051692Y030258D01*
X051692Y030333D02*
X051692Y029983D01*
X051101Y029983D01*
X051060Y029994D01*
X051023Y030015D01*
X050994Y030045D01*
X050973Y030082D01*
X050962Y030122D01*
X050962Y030333D01*
X051692Y030333D01*
X051692Y030376D02*
X050767Y030376D01*
X050885Y030258D02*
X050962Y030258D01*
X050962Y030139D02*
X050930Y030139D01*
X050930Y030021D02*
X051018Y030021D01*
X050930Y029902D02*
X054075Y029902D01*
X054075Y029784D02*
X050930Y029784D01*
X050930Y029665D02*
X051012Y029665D01*
X051012Y029547D02*
X050930Y029547D01*
X050930Y029428D02*
X051012Y029428D01*
X051012Y029310D02*
X050930Y029310D01*
X050930Y029191D02*
X051012Y029191D01*
X051037Y029073D02*
X050930Y029073D01*
X050930Y028954D02*
X051018Y028954D01*
X051197Y028893D02*
X050947Y028643D01*
X050947Y028081D01*
X051197Y027831D01*
X051197Y023018D01*
X050947Y022768D01*
X045822Y022768D01*
X044976Y021922D01*
X044976Y019893D01*
X041535Y019893D01*
X035063Y019893D01*
X024885Y019893D01*
X024635Y020143D01*
X024635Y021268D01*
X024890Y021370D02*
X025417Y021370D01*
X025536Y021252D02*
X024910Y021252D01*
X024803Y021489D02*
X025299Y021489D01*
X025180Y021607D02*
X021934Y021607D01*
X021930Y021612D02*
X021930Y025283D01*
X022195Y025283D01*
X022213Y025265D01*
X022250Y025244D01*
X022291Y025233D01*
X022434Y025233D01*
X022434Y025641D01*
X022439Y025641D01*
X022439Y025646D01*
X022434Y025646D01*
X022434Y026053D01*
X022291Y026053D01*
X022250Y026042D01*
X022213Y026021D01*
X022195Y026003D01*
X021930Y026003D01*
X021930Y026551D01*
X021935Y026556D01*
X021962Y026545D01*
X022101Y026545D01*
X022229Y026598D01*
X022327Y026696D01*
X022380Y026824D01*
X022380Y026963D01*
X022327Y027090D01*
X022324Y027093D01*
X022440Y027045D01*
X022579Y027045D01*
X022707Y027098D01*
X022805Y027196D01*
X022858Y027324D01*
X022858Y027463D01*
X022805Y027590D01*
X022707Y027688D01*
X022579Y027741D01*
X022440Y027741D01*
X022312Y027688D01*
X022214Y027590D01*
X022203Y027563D01*
X021689Y027563D01*
X021590Y027464D01*
X021277Y027151D01*
X021277Y021135D01*
X021377Y021036D01*
X021485Y020928D01*
X021485Y020839D01*
X021526Y020738D01*
X021604Y020660D01*
X021705Y020618D01*
X021814Y020618D01*
X021915Y020660D01*
X021993Y020738D01*
X022035Y020839D01*
X022035Y020948D01*
X021993Y021049D01*
X021915Y021126D01*
X021875Y021143D01*
X021915Y021160D01*
X021993Y021238D01*
X022035Y021339D01*
X022035Y021448D01*
X021993Y021549D01*
X021930Y021612D01*
X021930Y021726D02*
X025062Y021726D01*
X024943Y021844D02*
X021930Y021844D01*
X021930Y021963D02*
X022610Y021963D01*
X022584Y021973D02*
X022712Y021920D01*
X022851Y021920D01*
X022979Y021973D01*
X023077Y022071D01*
X023130Y022199D01*
X023130Y022338D01*
X023077Y022465D01*
X022979Y022563D01*
X022851Y022616D01*
X022712Y022616D01*
X022584Y022563D01*
X022487Y022465D01*
X022434Y022338D01*
X022434Y022199D01*
X022487Y022071D01*
X022584Y021973D01*
X022482Y022081D02*
X021930Y022081D01*
X021930Y022200D02*
X022434Y022200D01*
X022434Y022318D02*
X021930Y022318D01*
X021930Y022437D02*
X022475Y022437D01*
X022576Y022555D02*
X021930Y022555D01*
X021930Y022674D02*
X022989Y022674D01*
X022987Y022555D02*
X023107Y022555D01*
X023089Y022437D02*
X023226Y022437D01*
X023130Y022318D02*
X024469Y022318D01*
X024588Y022200D02*
X023130Y022200D01*
X023081Y022081D02*
X024706Y022081D01*
X024825Y021963D02*
X022954Y021963D01*
X023385Y022518D02*
X024510Y022518D01*
X025760Y021268D01*
X038572Y021268D01*
X038679Y021015D02*
X042999Y021015D01*
X043005Y021001D02*
X038645Y021001D01*
X038728Y021035D01*
X038805Y021113D01*
X038847Y021214D01*
X038847Y021323D01*
X038810Y021413D01*
X039439Y021413D01*
X041761Y021413D01*
X043393Y023045D01*
X043485Y023045D01*
X043613Y023098D01*
X043678Y023163D01*
X044384Y023163D01*
X044387Y023160D01*
X044488Y023118D01*
X044597Y023118D01*
X044698Y023160D01*
X044776Y023238D01*
X044818Y023339D01*
X044818Y023448D01*
X044776Y023549D01*
X044698Y023626D01*
X044615Y023661D01*
X047564Y023661D01*
X047724Y023501D01*
X045564Y023501D01*
X045465Y023401D01*
X043627Y021563D01*
X043173Y021563D01*
X043073Y021464D01*
X043073Y021362D01*
X043010Y021299D01*
X042968Y021198D01*
X042968Y021089D01*
X043005Y021001D01*
X042968Y021133D02*
X038814Y021133D01*
X038847Y021252D02*
X042991Y021252D01*
X043073Y021370D02*
X038827Y021370D01*
X039010Y022018D02*
X039010Y023393D01*
X039285Y023385D02*
X039661Y023385D01*
X039661Y023324D02*
X039714Y023196D01*
X039812Y023098D01*
X039940Y023045D01*
X040079Y023045D01*
X040207Y023098D01*
X040305Y023196D01*
X040358Y023324D01*
X040358Y023463D01*
X040305Y023590D01*
X040234Y023661D01*
X041464Y023661D01*
X041450Y023647D01*
X041407Y023582D01*
X041377Y023509D01*
X041361Y023433D01*
X041361Y023393D01*
X041361Y023354D01*
X041377Y023277D01*
X041407Y023205D01*
X041450Y023140D01*
X041506Y023084D01*
X041571Y023041D01*
X041643Y023010D01*
X041720Y022995D01*
X041760Y022995D01*
X041799Y022995D01*
X041876Y023010D01*
X041948Y023041D01*
X042013Y023084D01*
X042069Y023140D01*
X042112Y023205D01*
X042142Y023277D01*
X042158Y023354D01*
X042158Y023393D01*
X041760Y023393D01*
X041760Y023393D01*
X041760Y022995D01*
X041760Y023393D01*
X041760Y023393D01*
X042158Y023393D01*
X042158Y023433D01*
X042142Y023509D01*
X042112Y023582D01*
X042069Y023647D01*
X042055Y023661D01*
X043191Y023661D01*
X043121Y023590D01*
X043068Y023463D01*
X043068Y023370D01*
X041570Y021873D01*
X039705Y021873D01*
X039705Y021924D01*
X039768Y021988D01*
X039810Y022089D01*
X039810Y022198D01*
X039768Y022299D01*
X039690Y022376D01*
X039589Y022418D01*
X039480Y022418D01*
X039379Y022376D01*
X039301Y022299D01*
X039260Y022198D01*
X039260Y022133D01*
X039243Y022174D01*
X039180Y022237D01*
X039180Y023174D01*
X039243Y023238D01*
X039285Y023339D01*
X039285Y023448D01*
X039243Y023549D01*
X039165Y023626D01*
X039082Y023661D01*
X039785Y023661D01*
X039714Y023590D01*
X039661Y023463D01*
X039661Y023324D01*
X039685Y023266D02*
X039255Y023266D01*
X039180Y023148D02*
X039763Y023148D01*
X040010Y023393D02*
X040010Y023831D01*
X032197Y023831D01*
X031947Y023581D01*
X030510Y023581D01*
X030260Y023831D01*
X030260Y027143D01*
X030010Y027393D01*
X029260Y027393D01*
X029572Y027081D02*
X029822Y027081D01*
X030072Y026831D01*
X030072Y023643D01*
X030322Y023393D01*
X036512Y023393D01*
X036637Y023518D01*
X036217Y023036D02*
X037667Y023036D01*
X037688Y023056D01*
X037715Y023045D01*
X037854Y023045D01*
X037982Y023098D01*
X038080Y023196D01*
X038133Y023324D01*
X038133Y023463D01*
X038080Y023590D01*
X038009Y023661D01*
X038499Y023661D01*
X038416Y023626D01*
X038339Y023549D01*
X038297Y023448D01*
X038297Y023339D01*
X038339Y023238D01*
X038402Y023174D01*
X038402Y022237D01*
X038339Y022174D01*
X038297Y022073D01*
X038297Y021964D01*
X038334Y021873D01*
X037595Y021873D01*
X037595Y021924D01*
X037658Y021988D01*
X037700Y022089D01*
X037700Y022198D01*
X037658Y022299D01*
X037581Y022376D01*
X037480Y022418D01*
X037370Y022418D01*
X037269Y022376D01*
X037192Y022299D01*
X037150Y022198D01*
X037150Y022089D01*
X037192Y021988D01*
X037255Y021924D01*
X037255Y021873D01*
X036311Y021873D01*
X036400Y021910D01*
X036477Y021988D01*
X036519Y022089D01*
X036519Y022198D01*
X036477Y022299D01*
X036414Y022362D01*
X036414Y022839D01*
X036314Y022938D01*
X036217Y023036D01*
X036223Y023029D02*
X038402Y023029D01*
X038402Y022911D02*
X036342Y022911D01*
X036414Y022792D02*
X038402Y022792D01*
X038402Y022674D02*
X036414Y022674D01*
X036414Y022555D02*
X038402Y022555D01*
X038402Y022437D02*
X036414Y022437D01*
X036458Y022318D02*
X037211Y022318D01*
X037151Y022200D02*
X036518Y022200D01*
X036516Y022081D02*
X037153Y022081D01*
X037216Y021963D02*
X036452Y021963D01*
X036244Y022143D02*
X036244Y022768D01*
X035994Y023018D01*
X029822Y023018D01*
X029572Y023268D01*
X029572Y026456D01*
X029760Y026768D02*
X029260Y026768D01*
X029760Y026768D02*
X029885Y026643D01*
X029885Y023456D01*
X030135Y023206D01*
X037597Y023206D01*
X037785Y023393D01*
X038031Y023148D02*
X038402Y023148D01*
X038327Y023266D02*
X038109Y023266D01*
X038133Y023385D02*
X038297Y023385D01*
X038320Y023503D02*
X038116Y023503D01*
X038048Y023622D02*
X038412Y023622D01*
X038572Y023393D02*
X038572Y022018D01*
X038365Y022200D02*
X037699Y022200D01*
X037697Y022081D02*
X038300Y022081D01*
X038297Y021963D02*
X037633Y021963D01*
X037425Y022143D02*
X037425Y021643D01*
X037639Y022318D02*
X038402Y022318D01*
X039180Y022318D02*
X039321Y022318D01*
X039260Y022200D02*
X039217Y022200D01*
X039180Y022437D02*
X042134Y022437D01*
X042253Y022555D02*
X039180Y022555D01*
X039180Y022674D02*
X042371Y022674D01*
X042490Y022792D02*
X039180Y022792D01*
X039180Y022911D02*
X042608Y022911D01*
X042727Y023029D02*
X041921Y023029D01*
X041760Y023029D02*
X041760Y023029D01*
X041760Y023148D02*
X041760Y023148D01*
X041760Y023266D02*
X041760Y023266D01*
X041760Y023385D02*
X041760Y023385D01*
X041760Y023393D02*
X041361Y023393D01*
X041760Y023393D01*
X041760Y023393D01*
X042158Y023385D02*
X043068Y023385D01*
X043085Y023503D02*
X042144Y023503D01*
X042086Y023622D02*
X043152Y023622D01*
X042964Y023266D02*
X042138Y023266D01*
X042074Y023148D02*
X042845Y023148D01*
X043140Y022792D02*
X044856Y022792D01*
X044974Y022911D02*
X043259Y022911D01*
X043377Y023029D02*
X045093Y023029D01*
X045211Y023148D02*
X044669Y023148D01*
X044788Y023266D02*
X045330Y023266D01*
X045448Y023385D02*
X044818Y023385D01*
X044795Y023503D02*
X047722Y023503D01*
X047603Y023622D02*
X044703Y023622D01*
X044417Y023148D02*
X043663Y023148D01*
X043022Y022674D02*
X044737Y022674D01*
X044619Y022555D02*
X042903Y022555D01*
X042785Y022437D02*
X044500Y022437D01*
X044382Y022318D02*
X042666Y022318D01*
X042548Y022200D02*
X044263Y022200D01*
X044145Y022081D02*
X042429Y022081D01*
X042311Y021963D02*
X044026Y021963D01*
X043908Y021844D02*
X042192Y021844D01*
X042074Y021726D02*
X043789Y021726D01*
X043671Y021607D02*
X041955Y021607D01*
X041837Y021489D02*
X043098Y021489D01*
X043243Y021393D02*
X043243Y021143D01*
X043243Y021393D02*
X043697Y021393D01*
X045635Y023331D01*
X050385Y023331D01*
X050635Y023581D01*
X050635Y027643D01*
X050385Y027893D01*
X050385Y028143D01*
X050135Y028393D01*
X049767Y028393D01*
X049827Y028836D02*
X038760Y028836D01*
X038760Y028717D02*
X049056Y028717D01*
X049027Y028599D02*
X038760Y028599D01*
X038760Y028480D02*
X049027Y028480D01*
X049027Y028362D02*
X038760Y028362D01*
X038760Y028243D02*
X049027Y028243D01*
X049027Y028125D02*
X038760Y028125D01*
X038760Y028006D02*
X050215Y028006D01*
X050215Y027888D02*
X050138Y027888D01*
X049881Y027888D02*
X038760Y027888D01*
X038760Y027769D02*
X049185Y027769D01*
X049067Y027651D02*
X040492Y027651D01*
X040611Y027532D02*
X048948Y027532D01*
X048905Y027414D02*
X046731Y027414D01*
X046707Y027438D02*
X046579Y027491D01*
X046440Y027491D01*
X046312Y027438D01*
X046214Y027340D01*
X046161Y027213D01*
X046161Y027074D01*
X046214Y026946D01*
X046312Y026848D01*
X046440Y026795D01*
X046579Y026795D01*
X046707Y026848D01*
X046805Y026946D01*
X046858Y027074D01*
X046858Y027213D01*
X046805Y027340D01*
X046707Y027438D01*
X046823Y027295D02*
X048905Y027295D01*
X048905Y027177D02*
X046858Y027177D01*
X046851Y027058D02*
X048905Y027058D01*
X048905Y026940D02*
X046798Y026940D01*
X046642Y026821D02*
X048905Y026821D01*
X048905Y026703D02*
X046714Y026703D01*
X046780Y026584D02*
X048905Y026584D01*
X048905Y026466D02*
X046785Y026466D01*
X046727Y026347D02*
X048905Y026347D01*
X048905Y026229D02*
X046680Y026229D01*
X046680Y026110D02*
X048905Y026110D01*
X048905Y025992D02*
X046680Y025992D01*
X046680Y025873D02*
X048905Y025873D01*
X048905Y025755D02*
X046680Y025755D01*
X046718Y025636D02*
X048905Y025636D01*
X048905Y025518D02*
X046781Y025518D01*
X046784Y025399D02*
X048905Y025399D01*
X049447Y025081D02*
X050157Y025081D01*
X049572Y024706D02*
X049385Y024706D01*
X049260Y024581D01*
X031572Y024581D01*
X031447Y024456D01*
X031572Y024143D02*
X031072Y024143D01*
X030822Y024393D01*
X030822Y028081D01*
X030572Y028331D01*
X029572Y028331D01*
X029260Y028018D02*
X030385Y028018D01*
X030635Y027768D01*
X030635Y024206D01*
X030885Y023956D01*
X031697Y023956D01*
X031947Y024206D01*
X049197Y024206D01*
X049322Y024081D01*
X049572Y024081D01*
X049447Y023643D02*
X050157Y023643D01*
X050572Y023143D02*
X050822Y023393D01*
X050822Y027706D01*
X050572Y027956D01*
X050572Y028643D01*
X050322Y028893D01*
X050010Y028893D01*
X049760Y029143D01*
X049760Y029385D01*
X049767Y029393D01*
X049708Y028954D02*
X049010Y028954D01*
X049010Y029073D02*
X049052Y029073D01*
X049027Y029191D02*
X049010Y029191D01*
X049010Y029310D02*
X049027Y029310D01*
X049027Y029428D02*
X049010Y029428D01*
X049010Y029547D02*
X049027Y029547D01*
X049027Y029665D02*
X049010Y029665D01*
X049010Y029784D02*
X050590Y029784D01*
X050590Y029902D02*
X049010Y029902D01*
X049010Y030021D02*
X050590Y030021D01*
X050523Y030139D02*
X050507Y030139D01*
X050760Y030143D02*
X050510Y030393D01*
X049767Y030393D01*
X049027Y030376D02*
X049010Y030376D01*
X049010Y030258D02*
X049027Y030258D01*
X049027Y030139D02*
X049010Y030139D01*
X049010Y030495D02*
X049027Y030495D01*
X049027Y030613D02*
X049010Y030613D01*
X049010Y030732D02*
X049070Y030732D01*
X049010Y030850D02*
X054075Y030850D01*
X054075Y030732D02*
X052515Y030732D01*
X052542Y030613D02*
X054075Y030613D01*
X054075Y030495D02*
X052542Y030495D01*
X051812Y030495D02*
X051692Y030495D01*
X051692Y030453D02*
X051692Y030803D01*
X051101Y030803D01*
X051060Y030792D01*
X051023Y030771D01*
X050994Y030742D01*
X050973Y030705D01*
X050962Y030664D01*
X050962Y030453D01*
X051692Y030453D01*
X051692Y030613D02*
X051812Y030613D01*
X051812Y030732D02*
X051692Y030732D01*
X051692Y030139D02*
X051812Y030139D01*
X051812Y030021D02*
X051692Y030021D01*
X051752Y029393D02*
X051752Y029143D01*
X051502Y028893D01*
X051197Y028893D01*
X051685Y028836D02*
X054075Y028836D01*
X054075Y028954D02*
X051803Y028954D01*
X051262Y028006D02*
X053450Y028006D01*
X053450Y027888D02*
X053122Y027888D01*
X053150Y027876D02*
X053049Y027918D01*
X052939Y027918D01*
X052838Y027876D01*
X052835Y027873D01*
X051918Y027873D01*
X051915Y027876D01*
X051814Y027918D01*
X051705Y027918D01*
X051604Y027876D01*
X051526Y027799D01*
X051485Y027698D01*
X051485Y027589D01*
X051526Y027488D01*
X051604Y027410D01*
X051705Y027368D01*
X051814Y027368D01*
X051915Y027410D01*
X051918Y027413D01*
X052835Y027413D01*
X052838Y027410D01*
X052939Y027368D01*
X053049Y027368D01*
X053150Y027410D01*
X053227Y027488D01*
X053269Y027589D01*
X053269Y027698D01*
X053227Y027799D01*
X053150Y027876D01*
X053240Y027769D02*
X053450Y027769D01*
X053450Y027651D02*
X053269Y027651D01*
X053246Y027532D02*
X053450Y027532D01*
X053450Y027414D02*
X053154Y027414D01*
X053450Y027295D02*
X051367Y027295D01*
X051367Y027177D02*
X053450Y027177D01*
X053450Y027058D02*
X051367Y027058D01*
X051367Y026940D02*
X053450Y026940D01*
X053450Y026821D02*
X051367Y026821D01*
X051367Y026703D02*
X053450Y026703D01*
X053450Y026584D02*
X051367Y026584D01*
X051367Y026466D02*
X053450Y026466D01*
X053450Y026347D02*
X051367Y026347D01*
X051367Y026229D02*
X053450Y026229D01*
X053450Y026110D02*
X051367Y026110D01*
X051367Y025992D02*
X053450Y025992D01*
X053450Y025873D02*
X051367Y025873D01*
X051367Y025755D02*
X053450Y025755D01*
X053450Y025636D02*
X051367Y025636D01*
X051367Y025518D02*
X053450Y025518D01*
X053450Y025399D02*
X051367Y025399D01*
X051367Y025281D02*
X053450Y025281D01*
X053450Y025162D02*
X051367Y025162D01*
X051367Y025044D02*
X053450Y025044D01*
X053450Y024925D02*
X051367Y024925D01*
X051367Y024807D02*
X053450Y024807D01*
X053450Y024688D02*
X051367Y024688D01*
X051367Y024570D02*
X053450Y024570D01*
X053450Y024451D02*
X051367Y024451D01*
X051367Y024333D02*
X053450Y024333D01*
X053450Y024214D02*
X051367Y024214D01*
X051367Y024096D02*
X053450Y024096D01*
X053450Y023977D02*
X051367Y023977D01*
X051367Y023859D02*
X053450Y023859D01*
X053450Y023740D02*
X051367Y023740D01*
X051367Y023622D02*
X053450Y023622D01*
X053450Y023503D02*
X051367Y023503D01*
X051367Y023385D02*
X053450Y023385D01*
X053450Y023266D02*
X051367Y023266D01*
X051367Y023148D02*
X053450Y023148D01*
X053450Y023029D02*
X051367Y023029D01*
X051330Y022911D02*
X053450Y022911D01*
X053450Y022792D02*
X051211Y022792D01*
X051093Y022674D02*
X053450Y022674D01*
X053450Y022555D02*
X048383Y022555D01*
X048374Y022565D02*
X048337Y022586D01*
X048296Y022597D01*
X048097Y022597D01*
X048097Y022199D01*
X048435Y022199D01*
X048435Y022458D01*
X048424Y022498D01*
X048403Y022535D01*
X048374Y022565D01*
X048435Y022437D02*
X053450Y022437D01*
X053450Y022318D02*
X051101Y022318D01*
X051081Y022338D02*
X050953Y022391D01*
X050814Y022391D01*
X050686Y022338D01*
X050588Y022240D01*
X050535Y022113D01*
X050535Y021974D01*
X050588Y021846D01*
X050686Y021748D01*
X050814Y021695D01*
X050953Y021695D01*
X051081Y021748D01*
X051179Y021846D01*
X051232Y021974D01*
X051232Y022113D01*
X051179Y022240D01*
X051081Y022338D01*
X051195Y022200D02*
X053450Y022200D01*
X053450Y022081D02*
X051232Y022081D01*
X051227Y021963D02*
X053450Y021963D01*
X053450Y021844D02*
X051177Y021844D01*
X051027Y021726D02*
X053450Y021726D01*
X053450Y021607D02*
X046680Y021607D01*
X046680Y021489D02*
X053450Y021489D01*
X053450Y021370D02*
X049828Y021370D01*
X049900Y021252D02*
X053450Y021252D01*
X053450Y021133D02*
X049910Y021133D01*
X049863Y021015D02*
X053450Y021015D01*
X053450Y020896D02*
X049805Y020896D01*
X049865Y020778D02*
X053450Y020778D01*
X053450Y020659D02*
X049930Y020659D01*
X049930Y020541D02*
X053450Y020541D01*
X053450Y020422D02*
X049930Y020422D01*
X049930Y020304D02*
X053450Y020304D01*
X053450Y020185D02*
X049930Y020185D01*
X049930Y020067D02*
X053443Y020067D01*
X053413Y019948D02*
X049930Y019948D01*
X049590Y019948D02*
X048385Y019948D01*
X048385Y019830D02*
X049557Y019830D01*
X049490Y019711D02*
X048385Y019711D01*
X048385Y019593D02*
X049485Y019593D01*
X049540Y019474D02*
X049359Y019474D01*
X049353Y019481D02*
X049149Y019565D01*
X048929Y019565D01*
X048725Y019481D01*
X048570Y019325D01*
X048485Y019122D01*
X048485Y018901D01*
X048570Y018698D01*
X048725Y018542D01*
X048929Y018458D01*
X049149Y018458D01*
X049353Y018542D01*
X049508Y018698D01*
X049593Y018901D01*
X049593Y019122D01*
X049508Y019325D01*
X049353Y019481D01*
X049478Y019356D02*
X052190Y019356D01*
X051967Y019237D02*
X049545Y019237D01*
X049593Y019119D02*
X051779Y019119D01*
X051660Y019000D02*
X049593Y019000D01*
X049585Y018882D02*
X051542Y018882D01*
X051460Y018763D02*
X049536Y018763D01*
X049455Y018645D02*
X051392Y018645D01*
X051324Y018526D02*
X049315Y018526D01*
X048763Y018526D02*
X048280Y018526D01*
X048280Y018408D02*
X051282Y018408D01*
X049979Y019474D02*
X052906Y019474D01*
X053161Y019593D02*
X050035Y019593D01*
X049760Y019643D02*
X049760Y020643D01*
X049635Y020768D01*
X049635Y021175D01*
X049441Y021370D02*
X046680Y021370D01*
X046680Y021252D02*
X047693Y021252D01*
X047693Y021133D02*
X046680Y021133D01*
X046680Y021015D02*
X047693Y021015D01*
X047693Y020896D02*
X046680Y020896D01*
X046680Y020778D02*
X047693Y020778D01*
X047693Y020659D02*
X046680Y020659D01*
X046680Y020541D02*
X047732Y020541D01*
X047952Y020422D02*
X046680Y020422D01*
X046680Y020304D02*
X047834Y020304D01*
X047809Y020185D02*
X046680Y020185D01*
X046680Y020067D02*
X047718Y020067D01*
X047693Y019948D02*
X046680Y019948D01*
X046680Y019830D02*
X047693Y019830D01*
X047693Y019711D02*
X046680Y019711D01*
X046680Y019593D02*
X047693Y019593D01*
X047693Y019474D02*
X046680Y019474D01*
X046680Y019356D02*
X047697Y019356D01*
X047846Y019119D02*
X046680Y019119D01*
X046680Y019237D02*
X048533Y019237D01*
X048485Y019119D02*
X048173Y019119D01*
X048263Y019000D02*
X048485Y019000D01*
X048493Y018882D02*
X048285Y018882D01*
X048280Y018763D02*
X048542Y018763D01*
X048623Y018645D02*
X048280Y018645D01*
X047740Y018645D02*
X046626Y018645D01*
X046680Y018763D02*
X047740Y018763D01*
X047735Y018882D02*
X046680Y018882D01*
X046680Y019000D02*
X047756Y019000D01*
X047740Y018526D02*
X046508Y018526D01*
X046389Y018408D02*
X047642Y018408D01*
X047524Y018289D02*
X046271Y018289D01*
X046152Y018171D02*
X047405Y018171D01*
X046510Y018768D02*
X046510Y022143D01*
X046718Y021963D02*
X047643Y021963D01*
X047643Y022081D02*
X046781Y022081D01*
X046784Y022200D02*
X047643Y022200D01*
X047643Y022199D02*
X047643Y022458D01*
X047654Y022498D01*
X047675Y022535D01*
X047705Y022565D01*
X047741Y022586D01*
X047782Y022597D01*
X047981Y022597D01*
X047981Y022199D01*
X047981Y022083D01*
X048097Y022083D01*
X048097Y021686D01*
X048296Y021686D01*
X048337Y021697D01*
X048374Y021718D01*
X048403Y021748D01*
X048424Y021784D01*
X048435Y021825D01*
X048435Y022083D01*
X048097Y022083D01*
X048097Y022199D01*
X047981Y022199D01*
X047643Y022199D01*
X047643Y022083D02*
X047643Y021825D01*
X047654Y021784D01*
X047675Y021748D01*
X047705Y021718D01*
X047741Y021697D01*
X047782Y021686D01*
X047981Y021686D01*
X047981Y022083D01*
X047643Y022083D01*
X047643Y022318D02*
X046723Y022318D01*
X046296Y022318D02*
X045612Y022318D01*
X045494Y022200D02*
X046235Y022200D01*
X046238Y022081D02*
X045375Y022081D01*
X045259Y021963D02*
X045257Y021963D01*
X045182Y021844D02*
X045146Y021844D01*
X045146Y021726D02*
X045182Y021726D01*
X045182Y021607D02*
X045146Y021607D01*
X045146Y021489D02*
X045577Y021489D01*
X045577Y021607D02*
X045697Y021607D01*
X045697Y021591D02*
X045697Y021986D01*
X045954Y021986D01*
X045994Y021975D01*
X046031Y021954D01*
X046061Y021925D01*
X046082Y021888D01*
X046093Y021847D01*
X046093Y021591D01*
X045697Y021591D01*
X045697Y021489D02*
X046340Y021489D01*
X046340Y021607D02*
X046093Y021607D01*
X046093Y021726D02*
X046340Y021726D01*
X046340Y021844D02*
X046093Y021844D01*
X046016Y021963D02*
X046301Y021963D01*
X046680Y021844D02*
X047643Y021844D01*
X047697Y021726D02*
X046680Y021726D01*
X046340Y021370D02*
X046093Y021370D01*
X046093Y021252D02*
X046340Y021252D01*
X046340Y021133D02*
X046057Y021133D01*
X046340Y021015D02*
X045146Y021015D01*
X045146Y021133D02*
X045218Y021133D01*
X045182Y021252D02*
X045146Y021252D01*
X045146Y021370D02*
X045182Y021370D01*
X044806Y021370D02*
X044742Y021370D01*
X044742Y021252D02*
X044806Y021252D01*
X044806Y021133D02*
X044742Y021133D01*
X044742Y021015D02*
X044806Y021015D01*
X044806Y020896D02*
X044742Y020896D01*
X044742Y020885D02*
X044742Y021698D01*
X044806Y021762D01*
X044806Y020112D01*
X044757Y020063D01*
X043487Y020063D01*
X043518Y020139D01*
X043518Y020248D01*
X043477Y020349D01*
X043399Y020426D01*
X043298Y020468D01*
X043189Y020468D01*
X043088Y020426D01*
X043024Y020363D01*
X040253Y020363D01*
X040190Y020426D01*
X040089Y020468D01*
X039980Y020468D01*
X039879Y020426D01*
X039816Y020363D01*
X039768Y020363D01*
X039810Y020464D01*
X039810Y020573D01*
X039773Y020661D01*
X044517Y020661D01*
X044617Y020760D01*
X044742Y020885D01*
X044806Y020778D02*
X044634Y020778D01*
X044572Y020956D02*
X044447Y020831D01*
X029957Y020831D01*
X027210Y020831D01*
X027085Y020956D01*
X026811Y021015D02*
X025233Y021015D01*
X025233Y020896D02*
X026561Y020896D01*
X026492Y020778D02*
X025170Y020778D01*
X025130Y020659D02*
X026485Y020659D01*
X026536Y020541D02*
X025130Y020541D01*
X025221Y020422D02*
X026803Y020422D01*
X026947Y020518D02*
X039535Y020518D01*
X039792Y020422D02*
X039875Y020422D01*
X039810Y020541D02*
X044806Y020541D01*
X044806Y020659D02*
X039774Y020659D01*
X040194Y020422D02*
X043083Y020422D01*
X043243Y020193D02*
X040035Y020193D01*
X025210Y020193D01*
X024960Y020443D01*
X024960Y020956D01*
X025171Y021133D02*
X025654Y021133D01*
X025765Y021963D02*
X034461Y021963D01*
X034397Y022081D02*
X025647Y022081D01*
X025528Y022200D02*
X034395Y022200D01*
X034455Y022318D02*
X025410Y022318D01*
X025291Y022437D02*
X035575Y022437D01*
X035583Y022318D02*
X034883Y022318D01*
X034943Y022200D02*
X035655Y022200D01*
X035850Y022393D02*
X035850Y022581D01*
X035600Y022831D01*
X029510Y022831D01*
X029260Y023081D01*
X029260Y026143D01*
X028465Y026110D02*
X026183Y026110D01*
X026301Y025992D02*
X028465Y025992D01*
X028465Y025873D02*
X026420Y025873D01*
X026538Y025755D02*
X028465Y025755D01*
X028465Y025636D02*
X026657Y025636D01*
X026580Y025714D02*
X025760Y024893D01*
X026580Y024073D01*
X027302Y024795D01*
X027323Y024832D01*
X027334Y024872D01*
X027334Y024914D01*
X027323Y024955D01*
X027302Y024992D01*
X026580Y025714D01*
X025858Y026436D01*
X025821Y026457D01*
X025781Y026468D01*
X025738Y026468D01*
X025698Y026457D01*
X025661Y026436D01*
X024939Y025714D01*
X025760Y024893D01*
X025760Y024893D01*
X026580Y024073D01*
X025858Y023351D01*
X025821Y023330D01*
X025781Y023319D01*
X025738Y023319D01*
X025698Y023330D01*
X025661Y023351D01*
X024939Y024073D01*
X025759Y024893D01*
X025760Y024893D01*
X025760Y024893D01*
X024939Y024073D01*
X024217Y024795D01*
X024196Y024832D01*
X024185Y024872D01*
X024185Y024914D01*
X024196Y024955D01*
X024217Y024992D01*
X024939Y025714D01*
X025759Y024893D01*
X025760Y024893D01*
X026580Y025714D01*
X026503Y025636D02*
X026503Y025636D01*
X026384Y025518D02*
X026384Y025518D01*
X026266Y025399D02*
X026266Y025399D01*
X026147Y025281D02*
X026147Y025281D01*
X026029Y025162D02*
X026029Y025162D01*
X025910Y025044D02*
X025910Y025044D01*
X025792Y024925D02*
X025792Y024925D01*
X025728Y024925D02*
X025727Y024925D01*
X025673Y024807D02*
X025673Y024807D01*
X025555Y024688D02*
X025555Y024688D01*
X025436Y024570D02*
X025436Y024570D01*
X025318Y024451D02*
X025318Y024451D01*
X025199Y024333D02*
X025199Y024333D01*
X025081Y024214D02*
X025081Y024214D01*
X024962Y024096D02*
X024962Y024096D01*
X024917Y024096D02*
X023632Y024096D01*
X023514Y024214D02*
X024798Y024214D01*
X024680Y024333D02*
X023395Y024333D01*
X023277Y024451D02*
X024561Y024451D01*
X024443Y024570D02*
X023158Y024570D01*
X023040Y024688D02*
X024324Y024688D01*
X024210Y024807D02*
X023021Y024807D01*
X023035Y024925D02*
X024188Y024925D01*
X024270Y025044D02*
X022995Y025044D01*
X022829Y025162D02*
X024388Y025162D01*
X024507Y025281D02*
X022675Y025281D01*
X022690Y025295D02*
X022711Y025332D01*
X022722Y025372D01*
X022722Y025641D01*
X022439Y025641D01*
X022439Y025233D01*
X022583Y025233D01*
X022623Y025244D01*
X022660Y025265D01*
X022690Y025295D01*
X022722Y025399D02*
X024625Y025399D01*
X024744Y025518D02*
X022722Y025518D01*
X022722Y025636D02*
X024862Y025636D01*
X025016Y025636D02*
X025017Y025636D01*
X024981Y025755D02*
X022722Y025755D01*
X022722Y025646D02*
X022722Y025914D01*
X022711Y025955D01*
X022690Y025992D01*
X022660Y026021D01*
X022623Y026042D01*
X022583Y026053D01*
X022439Y026053D01*
X022439Y025646D01*
X022722Y025646D01*
X022722Y025873D02*
X025099Y025873D01*
X025218Y025992D02*
X022689Y025992D01*
X022439Y025992D02*
X022434Y025992D01*
X022434Y025873D02*
X022439Y025873D01*
X022434Y025755D02*
X022439Y025755D01*
X022434Y025636D02*
X022439Y025636D01*
X022434Y025518D02*
X022439Y025518D01*
X022434Y025399D02*
X022439Y025399D01*
X022434Y025281D02*
X022439Y025281D01*
X022198Y025281D02*
X021930Y025281D01*
X021930Y025162D02*
X022690Y025162D01*
X022524Y025044D02*
X021930Y025044D01*
X021930Y024925D02*
X022485Y024925D01*
X022498Y024807D02*
X021930Y024807D01*
X021930Y024688D02*
X022530Y024688D01*
X022530Y024570D02*
X021930Y024570D01*
X021930Y024451D02*
X022626Y024451D01*
X022709Y024333D02*
X022745Y024333D01*
X022778Y024214D02*
X022863Y024214D01*
X022785Y024096D02*
X022982Y024096D01*
X023100Y023977D02*
X022732Y023977D01*
X022680Y023859D02*
X023219Y023859D01*
X023337Y023740D02*
X022680Y023740D01*
X022680Y023622D02*
X023456Y023622D01*
X023574Y023503D02*
X022680Y023503D01*
X022758Y023385D02*
X023693Y023385D01*
X023642Y023266D02*
X022877Y023266D01*
X022995Y023148D02*
X023405Y023148D01*
X023268Y023029D02*
X023114Y023029D01*
X023232Y022911D02*
X023235Y022911D01*
X023510Y022893D02*
X024010Y023393D01*
X024225Y023503D02*
X025509Y023503D01*
X025628Y023385D02*
X024343Y023385D01*
X024462Y023266D02*
X028465Y023266D01*
X028465Y023385D02*
X025892Y023385D01*
X026010Y023503D02*
X028465Y023503D01*
X028465Y023622D02*
X026129Y023622D01*
X026247Y023740D02*
X028465Y023740D01*
X028465Y023859D02*
X026366Y023859D01*
X026484Y023977D02*
X028465Y023977D01*
X028465Y024096D02*
X026603Y024096D01*
X026557Y024096D02*
X026557Y024096D01*
X026439Y024214D02*
X026438Y024214D01*
X026320Y024333D02*
X026320Y024333D01*
X026202Y024451D02*
X026201Y024451D01*
X026083Y024570D02*
X026083Y024570D01*
X025965Y024688D02*
X025964Y024688D01*
X025846Y024807D02*
X025846Y024807D01*
X025609Y025044D02*
X025609Y025044D01*
X025491Y025162D02*
X025490Y025162D01*
X025372Y025281D02*
X025372Y025281D01*
X025254Y025399D02*
X025253Y025399D01*
X025135Y025518D02*
X025135Y025518D01*
X025336Y026110D02*
X021930Y026110D01*
X021930Y026229D02*
X025455Y026229D01*
X025573Y026347D02*
X021930Y026347D01*
X021930Y026466D02*
X025732Y026466D01*
X025787Y026466D02*
X028465Y026466D01*
X028465Y026584D02*
X022195Y026584D01*
X022330Y026703D02*
X028465Y026703D01*
X028465Y026821D02*
X022379Y026821D01*
X022380Y026940D02*
X028465Y026940D01*
X028465Y027058D02*
X022610Y027058D01*
X022409Y027058D02*
X022340Y027058D01*
X022032Y026893D02*
X021760Y026621D01*
X021760Y025643D01*
X022082Y025643D01*
X021760Y025643D02*
X021760Y021393D01*
X022018Y021489D02*
X023841Y021489D01*
X023754Y021370D02*
X022035Y021370D01*
X021999Y021252D02*
X023735Y021252D01*
X023768Y021133D02*
X021899Y021133D01*
X022007Y021015D02*
X023840Y021015D01*
X023840Y020896D02*
X022035Y020896D01*
X022009Y020778D02*
X023840Y020778D01*
X023840Y020659D02*
X021913Y020659D01*
X021760Y020893D02*
X021447Y021206D01*
X021447Y027081D01*
X021760Y027393D01*
X022510Y027393D01*
X022829Y027532D02*
X028465Y027532D01*
X028465Y027414D02*
X022858Y027414D01*
X022846Y027295D02*
X028465Y027295D01*
X028465Y027177D02*
X022785Y027177D01*
X022744Y027651D02*
X028465Y027651D01*
X028465Y027769D02*
X021626Y027769D01*
X021744Y027888D02*
X028400Y027888D01*
X028635Y027893D02*
X028385Y028143D01*
X021760Y028143D01*
X021510Y027893D01*
X020072Y027893D01*
X019572Y028393D01*
X018767Y028393D01*
X018736Y028836D02*
X016445Y028836D01*
X016445Y028954D02*
X018737Y028954D01*
X019010Y028893D02*
X019010Y029151D01*
X018767Y029393D01*
X018707Y029983D02*
X018116Y029983D01*
X018076Y029994D01*
X018039Y030015D01*
X018009Y030045D01*
X017988Y030082D01*
X017977Y030122D01*
X017977Y030333D01*
X018707Y030333D01*
X018707Y030453D01*
X017977Y030453D01*
X017977Y030664D01*
X017988Y030705D01*
X018009Y030742D01*
X018039Y030771D01*
X018076Y030792D01*
X018116Y030803D01*
X018707Y030803D01*
X018707Y030453D01*
X018827Y030453D01*
X018827Y030803D01*
X019418Y030803D01*
X019459Y030792D01*
X019496Y030771D01*
X019525Y030742D01*
X019546Y030705D01*
X019557Y030664D01*
X019557Y030453D01*
X018827Y030453D01*
X018827Y030333D01*
X018827Y029983D01*
X019418Y029983D01*
X019459Y029994D01*
X019496Y030015D01*
X019525Y030045D01*
X019546Y030082D01*
X019557Y030122D01*
X019557Y030333D01*
X018827Y030333D01*
X018707Y030333D01*
X018707Y029983D01*
X018707Y030021D02*
X018827Y030021D01*
X018827Y030139D02*
X018707Y030139D01*
X018707Y030258D02*
X018827Y030258D01*
X018827Y030376D02*
X020012Y030376D01*
X020012Y030258D02*
X019557Y030258D01*
X019557Y030139D02*
X020012Y030139D01*
X020012Y030495D02*
X019557Y030495D01*
X019557Y030613D02*
X020012Y030613D01*
X020055Y030732D02*
X019531Y030732D01*
X018827Y030732D02*
X018707Y030732D01*
X018707Y030613D02*
X018827Y030613D01*
X018827Y030495D02*
X018707Y030495D01*
X018707Y030376D02*
X016445Y030376D01*
X016445Y030258D02*
X017977Y030258D01*
X017977Y030139D02*
X016445Y030139D01*
X016445Y030021D02*
X018034Y030021D01*
X018027Y029665D02*
X016445Y029665D01*
X016445Y029547D02*
X018027Y029547D01*
X018027Y029428D02*
X016445Y029428D01*
X016445Y029310D02*
X018027Y029310D01*
X018027Y029191D02*
X016445Y029191D01*
X016445Y029073D02*
X018052Y029073D01*
X018056Y028717D02*
X016445Y028717D01*
X016445Y028599D02*
X018027Y028599D01*
X018027Y028480D02*
X016445Y028480D01*
X016445Y028362D02*
X018027Y028362D01*
X018027Y028243D02*
X016445Y028243D01*
X016445Y028125D02*
X018027Y028125D01*
X019283Y028836D02*
X020236Y028836D01*
X020237Y028954D02*
X019282Y028954D01*
X019482Y029073D02*
X020037Y029073D01*
X020012Y029191D02*
X019507Y029191D01*
X019507Y029310D02*
X020012Y029310D01*
X020012Y029428D02*
X019507Y029428D01*
X019507Y029547D02*
X020012Y029547D01*
X020012Y029665D02*
X019507Y029665D01*
X019501Y030021D02*
X020515Y030021D01*
X020485Y029902D02*
X016445Y029902D01*
X016445Y029784D02*
X020507Y029784D01*
X020752Y029901D02*
X020760Y029893D01*
X020752Y029901D02*
X020752Y030393D01*
X020752Y030768D01*
X020502Y031018D01*
X017525Y031018D01*
X017726Y031206D02*
X021510Y031206D01*
X021510Y031324D02*
X016445Y031324D01*
X016445Y031206D02*
X017323Y031206D01*
X017256Y031087D02*
X016445Y031087D01*
X016445Y030969D02*
X017250Y030969D01*
X017304Y030850D02*
X016445Y030850D01*
X016445Y030732D02*
X018004Y030732D01*
X017977Y030613D02*
X016445Y030613D01*
X016445Y030495D02*
X017977Y030495D01*
X016445Y031443D02*
X021510Y031443D01*
X021510Y031561D02*
X016445Y031561D01*
X016445Y031680D02*
X021510Y031680D01*
X021510Y031798D02*
X016445Y031798D01*
X016445Y031917D02*
X021510Y031917D01*
X021510Y032035D02*
X016445Y032035D01*
X016445Y032154D02*
X021510Y032154D01*
X021510Y032272D02*
X016445Y032272D01*
X016445Y032391D02*
X021510Y032391D01*
X021510Y032509D02*
X016445Y032509D01*
X016445Y032628D02*
X021510Y032628D01*
X021510Y032746D02*
X016445Y032746D01*
X016445Y032865D02*
X021510Y032865D01*
X021510Y032983D02*
X016445Y032983D01*
X016445Y033102D02*
X021510Y033102D01*
X021510Y033220D02*
X016445Y033220D01*
X016445Y033339D02*
X021133Y033339D01*
X021015Y033457D02*
X016445Y033457D01*
X016445Y033576D02*
X020963Y033576D01*
X020926Y033694D02*
X016445Y033694D01*
X016445Y033813D02*
X020926Y033813D01*
X020945Y033931D02*
X018185Y033931D01*
X018163Y033919D02*
X018402Y034056D01*
X018596Y034251D01*
X018734Y034490D01*
X018805Y034756D01*
X018805Y035031D01*
X018734Y035297D01*
X018596Y035535D01*
X018402Y035730D01*
X018163Y035868D01*
X017897Y035939D01*
X017622Y035939D01*
X017356Y035868D01*
X017117Y035730D01*
X016923Y035535D01*
X016785Y035297D01*
X016714Y035031D01*
X016714Y034756D01*
X016785Y034490D01*
X016923Y034251D01*
X017117Y034056D01*
X017356Y033919D01*
X017622Y033847D01*
X017897Y033847D01*
X018163Y033919D01*
X018390Y034050D02*
X020994Y034050D01*
X021090Y034168D02*
X018514Y034168D01*
X018617Y034287D02*
X021268Y034287D01*
X021510Y034405D02*
X018685Y034405D01*
X018743Y034524D02*
X021510Y034524D01*
X021510Y034642D02*
X018775Y034642D01*
X018805Y034761D02*
X021510Y034761D01*
X021510Y034879D02*
X018805Y034879D01*
X018805Y034998D02*
X021510Y034998D01*
X021510Y035116D02*
X018782Y035116D01*
X018751Y035235D02*
X021510Y035235D01*
X021510Y035353D02*
X018702Y035353D01*
X018633Y035472D02*
X021510Y035472D01*
X021510Y035590D02*
X018541Y035590D01*
X018423Y035709D02*
X021510Y035709D01*
X021510Y035827D02*
X018233Y035827D01*
X017535Y036183D02*
X021510Y036183D01*
X021510Y036064D02*
X017180Y036064D01*
X016975Y035946D02*
X021510Y035946D01*
X022010Y035946D02*
X022470Y035946D01*
X022470Y036064D02*
X022010Y036064D01*
X022010Y036183D02*
X022470Y036183D01*
X022470Y036189D02*
X022470Y035548D01*
X022534Y035483D01*
X024426Y035483D01*
X024490Y035548D01*
X024490Y036189D01*
X024471Y036208D01*
X025048Y036208D01*
X025029Y036189D01*
X025029Y035548D01*
X025093Y035483D01*
X026985Y035483D01*
X027049Y035548D01*
X027049Y036189D01*
X027030Y036208D01*
X029489Y036208D01*
X029470Y036189D01*
X029470Y035548D01*
X029534Y035483D01*
X031426Y035483D01*
X031490Y035548D01*
X031490Y036189D01*
X031471Y036208D01*
X032048Y036208D01*
X032029Y036189D01*
X032029Y035548D01*
X032093Y035483D01*
X033985Y035483D01*
X034049Y035548D01*
X034049Y036189D01*
X034030Y036208D01*
X036489Y036208D01*
X036470Y036189D01*
X036470Y035548D01*
X036534Y035483D01*
X038426Y035483D01*
X038490Y035548D01*
X038490Y036189D01*
X038471Y036208D01*
X039048Y036208D01*
X039029Y036189D01*
X039029Y035548D01*
X039093Y035483D01*
X040985Y035483D01*
X041049Y035548D01*
X041049Y036189D01*
X041030Y036208D01*
X043489Y036208D01*
X043470Y036189D01*
X043470Y035548D01*
X043534Y035483D01*
X045426Y035483D01*
X045490Y035548D01*
X045490Y036189D01*
X045471Y036208D01*
X046048Y036208D01*
X046029Y036189D01*
X046029Y035548D01*
X046093Y035483D01*
X047985Y035483D01*
X048049Y035548D01*
X048049Y036189D01*
X048030Y036208D01*
X048510Y036208D01*
X048510Y033944D01*
X048485Y033885D01*
X048485Y033665D01*
X048510Y033607D01*
X048510Y029393D01*
X046853Y029393D01*
X047095Y029635D01*
X047095Y030049D01*
X047158Y030113D01*
X047200Y030214D01*
X047200Y030323D01*
X047158Y030424D01*
X047081Y030501D01*
X046980Y030543D01*
X046870Y030543D01*
X046769Y030501D01*
X046692Y030424D01*
X046650Y030323D01*
X046650Y030214D01*
X046692Y030113D01*
X046755Y030049D01*
X046755Y029776D01*
X046604Y029626D01*
X044567Y029626D01*
X044665Y029723D01*
X044764Y029823D01*
X044764Y030049D01*
X044827Y030113D01*
X044869Y030214D01*
X044869Y030323D01*
X044827Y030424D01*
X044750Y030501D01*
X044649Y030543D01*
X044539Y030543D01*
X044438Y030501D01*
X044361Y030424D01*
X044319Y030323D01*
X044319Y030214D01*
X044361Y030113D01*
X044424Y030049D01*
X044424Y029964D01*
X044274Y029813D01*
X039835Y029813D01*
X039845Y029823D01*
X040041Y030019D01*
X040081Y030035D01*
X040158Y030113D01*
X040200Y030214D01*
X040200Y030323D01*
X040158Y030424D01*
X040081Y030501D01*
X039980Y030543D01*
X039870Y030543D01*
X039769Y030501D01*
X039692Y030424D01*
X039650Y030323D01*
X039650Y030214D01*
X039681Y030139D01*
X039604Y030063D01*
X037439Y030063D01*
X037189Y029813D01*
X037090Y029714D01*
X037090Y029112D01*
X037026Y029049D01*
X036985Y028948D01*
X036985Y028839D01*
X037026Y028738D01*
X037104Y028660D01*
X037205Y028618D01*
X037314Y028618D01*
X037415Y028660D01*
X037493Y028738D01*
X037527Y028821D01*
X037527Y027612D01*
X037464Y027549D01*
X037422Y027448D01*
X037422Y027393D01*
X036670Y027393D01*
X036670Y027489D01*
X036659Y027530D01*
X036638Y027567D01*
X036608Y027596D01*
X036571Y027617D01*
X036531Y027628D01*
X036262Y027628D01*
X036262Y027443D01*
X036257Y027443D01*
X036257Y027628D01*
X035988Y027628D01*
X035948Y027617D01*
X035911Y027596D01*
X035881Y027567D01*
X035860Y027530D01*
X035850Y027489D01*
X035850Y027393D01*
X035555Y027393D01*
X035555Y030919D01*
X035604Y030870D01*
X035705Y030828D01*
X035814Y030828D01*
X035915Y030870D01*
X035918Y030873D01*
X043101Y030873D01*
X043104Y030870D01*
X043205Y030828D01*
X043314Y030828D01*
X043415Y030870D01*
X043493Y030947D01*
X043535Y031048D01*
X043535Y031158D01*
X043493Y031259D01*
X043415Y031336D01*
X043314Y031378D01*
X043205Y031378D01*
X043104Y031336D01*
X043101Y031333D01*
X035918Y031333D01*
X035915Y031336D01*
X035814Y031378D01*
X035705Y031378D01*
X035604Y031336D01*
X035555Y031287D01*
X035555Y034574D01*
X035599Y034618D01*
X035688Y034618D01*
X035789Y034660D01*
X035867Y034738D01*
X035909Y034839D01*
X035909Y034948D01*
X035867Y035049D01*
X035789Y035126D01*
X035688Y035168D01*
X035579Y035168D01*
X035478Y035126D01*
X035400Y035049D01*
X035359Y034948D01*
X035359Y034859D01*
X035314Y034814D01*
X035296Y034796D01*
X035160Y034932D01*
X035160Y034960D01*
X035119Y035061D01*
X035041Y035138D01*
X034940Y035180D01*
X034831Y035180D01*
X034730Y035138D01*
X034652Y035061D01*
X034610Y034960D01*
X034610Y034850D01*
X034652Y034749D01*
X034730Y034672D01*
X034831Y034630D01*
X034940Y034630D01*
X034969Y034642D01*
X035027Y034585D01*
X035027Y031178D01*
X034994Y031259D01*
X034916Y031336D01*
X034815Y031378D01*
X034706Y031378D01*
X034605Y031336D01*
X034602Y031333D01*
X029418Y031333D01*
X029415Y031336D01*
X029314Y031378D01*
X029205Y031378D01*
X029104Y031336D01*
X029101Y031333D01*
X022418Y031333D01*
X022415Y031336D01*
X022314Y031378D01*
X022205Y031378D01*
X022104Y031336D01*
X022026Y031259D01*
X022010Y031218D01*
X022010Y033607D01*
X022034Y033665D01*
X022034Y033885D01*
X022010Y033944D01*
X022010Y036208D01*
X022489Y036208D01*
X022470Y036189D01*
X022470Y035827D02*
X022010Y035827D01*
X022010Y035709D02*
X022470Y035709D01*
X022470Y035590D02*
X022010Y035590D01*
X022010Y035472D02*
X034900Y035472D01*
X034907Y035455D02*
X034950Y035390D01*
X035006Y035334D01*
X035071Y035291D01*
X035143Y035260D01*
X035220Y035245D01*
X035260Y035245D01*
X035299Y035245D01*
X035376Y035260D01*
X035448Y035291D01*
X035513Y035334D01*
X035569Y035390D01*
X035612Y035455D01*
X035642Y035527D01*
X035658Y035604D01*
X035658Y035643D01*
X035260Y035643D01*
X035260Y035643D01*
X035260Y035245D01*
X035260Y035643D01*
X035260Y035643D01*
X035658Y035643D01*
X035658Y035683D01*
X035642Y035759D01*
X035612Y035832D01*
X035569Y035897D01*
X035513Y035953D01*
X035448Y035996D01*
X035376Y036026D01*
X035299Y036041D01*
X035260Y036041D01*
X035260Y035643D01*
X035260Y035643D01*
X034861Y035643D01*
X034861Y035604D01*
X034877Y035527D01*
X034907Y035455D01*
X034986Y035353D02*
X022010Y035353D01*
X022010Y035235D02*
X048510Y035235D01*
X048510Y035353D02*
X035533Y035353D01*
X035619Y035472D02*
X048510Y035472D01*
X048510Y035590D02*
X048049Y035590D01*
X048049Y035709D02*
X048510Y035709D01*
X048510Y035827D02*
X048049Y035827D01*
X048049Y035946D02*
X048510Y035946D01*
X048510Y036064D02*
X048049Y036064D01*
X048049Y036183D02*
X048510Y036183D01*
X049010Y036183D02*
X052984Y036183D01*
X052897Y035939D02*
X052622Y035939D01*
X052356Y035868D01*
X052117Y035730D01*
X051923Y035535D01*
X051785Y035297D01*
X051714Y035031D01*
X051714Y034756D01*
X051785Y034490D01*
X051923Y034251D01*
X052117Y034056D01*
X052356Y033919D01*
X052622Y033847D01*
X052897Y033847D01*
X053163Y033919D01*
X053402Y034056D01*
X053596Y034251D01*
X053734Y034490D01*
X053805Y034756D01*
X053805Y035031D01*
X053734Y035297D01*
X053596Y035535D01*
X053402Y035730D01*
X053163Y035868D01*
X052897Y035939D01*
X053233Y035827D02*
X053669Y035827D01*
X053788Y035709D02*
X053423Y035709D01*
X053541Y035590D02*
X053863Y035590D01*
X053931Y035472D02*
X053633Y035472D01*
X053702Y035353D02*
X053986Y035353D01*
X054018Y035235D02*
X053751Y035235D01*
X053782Y035116D02*
X054049Y035116D01*
X054068Y034998D02*
X053805Y034998D01*
X053805Y034879D02*
X054075Y034879D01*
X054075Y034761D02*
X053805Y034761D01*
X053775Y034642D02*
X054075Y034642D01*
X054075Y034524D02*
X053743Y034524D01*
X053685Y034405D02*
X054075Y034405D01*
X054075Y034287D02*
X053617Y034287D01*
X053514Y034168D02*
X054075Y034168D01*
X054075Y034050D02*
X053390Y034050D01*
X053185Y033931D02*
X054075Y033931D01*
X054075Y033813D02*
X049593Y033813D01*
X049593Y033694D02*
X054075Y033694D01*
X054075Y033576D02*
X049556Y033576D01*
X049504Y033457D02*
X054075Y033457D01*
X054075Y033339D02*
X049386Y033339D01*
X049010Y033220D02*
X054075Y033220D01*
X054075Y033102D02*
X049010Y033102D01*
X049010Y032983D02*
X054075Y032983D01*
X054075Y032865D02*
X049010Y032865D01*
X049010Y032746D02*
X054075Y032746D01*
X054075Y032628D02*
X049010Y032628D01*
X049010Y032509D02*
X054075Y032509D01*
X054075Y032391D02*
X049010Y032391D01*
X049010Y032272D02*
X054075Y032272D01*
X054075Y032154D02*
X049010Y032154D01*
X049010Y032035D02*
X054075Y032035D01*
X054075Y031917D02*
X049010Y031917D01*
X049010Y031798D02*
X054075Y031798D01*
X054075Y031680D02*
X049010Y031680D01*
X049010Y031561D02*
X054075Y031561D01*
X054075Y031443D02*
X049010Y031443D01*
X049010Y031324D02*
X054075Y031324D01*
X054075Y031206D02*
X049010Y031206D01*
X049010Y031087D02*
X054075Y031087D01*
X054075Y030969D02*
X049010Y030969D01*
X048510Y030969D02*
X043502Y030969D01*
X043535Y031087D02*
X048510Y031087D01*
X048510Y031206D02*
X043515Y031206D01*
X043427Y031324D02*
X048510Y031324D01*
X048510Y031443D02*
X035555Y031443D01*
X035555Y031561D02*
X036506Y031561D01*
X036534Y031533D02*
X038426Y031533D01*
X038490Y031598D01*
X038490Y032239D01*
X038426Y032303D01*
X036534Y032303D01*
X036470Y032239D01*
X036470Y031598D01*
X036534Y031533D01*
X036470Y031680D02*
X035555Y031680D01*
X035555Y031798D02*
X036470Y031798D01*
X036470Y031917D02*
X035555Y031917D01*
X035555Y032035D02*
X036470Y032035D01*
X036470Y032154D02*
X035555Y032154D01*
X035555Y032272D02*
X036503Y032272D01*
X035555Y032391D02*
X048510Y032391D01*
X048510Y032509D02*
X035555Y032509D01*
X035555Y032628D02*
X048510Y032628D01*
X048510Y032746D02*
X035555Y032746D01*
X035555Y032865D02*
X048510Y032865D01*
X048510Y032983D02*
X035555Y032983D01*
X035555Y033102D02*
X048510Y033102D01*
X048510Y033220D02*
X035555Y033220D01*
X035555Y033339D02*
X048510Y033339D01*
X048510Y033457D02*
X035555Y033457D01*
X035555Y033576D02*
X048510Y033576D01*
X048485Y033694D02*
X035555Y033694D01*
X035555Y033813D02*
X048485Y033813D01*
X048504Y033931D02*
X035555Y033931D01*
X035555Y034050D02*
X048510Y034050D01*
X048510Y034168D02*
X035555Y034168D01*
X035555Y034287D02*
X048510Y034287D01*
X048510Y034405D02*
X035555Y034405D01*
X035555Y034524D02*
X048510Y034524D01*
X048510Y034642D02*
X035746Y034642D01*
X035876Y034761D02*
X048510Y034761D01*
X048510Y034879D02*
X035909Y034879D01*
X035888Y034998D02*
X048510Y034998D01*
X048510Y035116D02*
X035799Y035116D01*
X035634Y034893D02*
X035385Y034644D01*
X035385Y026018D01*
X035510Y025893D01*
X035608Y025636D02*
X038297Y025636D01*
X038321Y025755D02*
X035750Y025755D01*
X035785Y025873D02*
X038402Y025873D01*
X038402Y025992D02*
X035766Y025992D01*
X035681Y026110D02*
X038402Y026110D01*
X038402Y026229D02*
X035555Y026229D01*
X035555Y026347D02*
X038402Y026347D01*
X038402Y026466D02*
X035555Y026466D01*
X035555Y026584D02*
X038402Y026584D01*
X038402Y026703D02*
X036620Y026703D01*
X036670Y026821D02*
X038402Y026821D01*
X038572Y026831D02*
X038572Y025643D01*
X038326Y025518D02*
X031648Y025518D01*
X031766Y025399D02*
X038442Y025399D01*
X038702Y025399D02*
X038880Y025399D01*
X039139Y025399D02*
X046235Y025399D01*
X046238Y025518D02*
X039255Y025518D01*
X039285Y025636D02*
X046301Y025636D01*
X046340Y025755D02*
X039261Y025755D01*
X039180Y025873D02*
X046340Y025873D01*
X046340Y025992D02*
X039180Y025992D01*
X039180Y026110D02*
X046340Y026110D01*
X046340Y026229D02*
X039180Y026229D01*
X039180Y026347D02*
X046292Y026347D01*
X046235Y026466D02*
X039180Y026466D01*
X039180Y026584D02*
X046239Y026584D01*
X046305Y026703D02*
X039180Y026703D01*
X039180Y026821D02*
X046377Y026821D01*
X046221Y026940D02*
X040945Y026940D01*
X041022Y027058D02*
X046168Y027058D01*
X046161Y027177D02*
X041035Y027177D01*
X040994Y027295D02*
X046196Y027295D01*
X046288Y027414D02*
X040825Y027414D01*
X040760Y027143D02*
X040385Y027518D01*
X039260Y027518D01*
X038572Y026831D01*
X039010Y026893D02*
X039260Y027143D01*
X040260Y027143D01*
X040445Y026940D02*
X040574Y026940D01*
X040074Y026940D02*
X039296Y026940D01*
X039010Y026893D02*
X039010Y025643D01*
X038796Y027295D02*
X038760Y027295D01*
X038760Y027414D02*
X038915Y027414D01*
X039033Y027532D02*
X038760Y027532D01*
X038760Y027651D02*
X039152Y027651D01*
X038010Y027893D02*
X038010Y029206D01*
X038260Y029456D01*
X046675Y029456D01*
X046925Y029706D01*
X046925Y030268D01*
X047178Y030376D02*
X048510Y030376D01*
X048510Y030258D02*
X047200Y030258D01*
X047169Y030139D02*
X048510Y030139D01*
X048510Y030021D02*
X047095Y030021D01*
X047095Y029902D02*
X048510Y029902D01*
X048510Y029784D02*
X047095Y029784D01*
X047095Y029665D02*
X048510Y029665D01*
X048510Y029547D02*
X047006Y029547D01*
X046888Y029428D02*
X048510Y029428D01*
X048510Y030495D02*
X047087Y030495D01*
X046762Y030495D02*
X044757Y030495D01*
X044847Y030376D02*
X046672Y030376D01*
X046650Y030258D02*
X044869Y030258D01*
X044838Y030139D02*
X046681Y030139D01*
X046755Y030021D02*
X044764Y030021D01*
X044764Y029902D02*
X046755Y029902D01*
X046755Y029784D02*
X044725Y029784D01*
X044607Y029665D02*
X046644Y029665D01*
X044594Y029893D02*
X044594Y030268D01*
X044341Y030376D02*
X040178Y030376D01*
X040200Y030258D02*
X044319Y030258D01*
X044350Y030139D02*
X040169Y030139D01*
X040046Y030021D02*
X044424Y030021D01*
X044363Y029902D02*
X039924Y029902D01*
X039925Y030143D02*
X039675Y029893D01*
X037510Y029893D01*
X037260Y029643D01*
X037260Y028893D01*
X037472Y028717D02*
X037527Y028717D01*
X037527Y028599D02*
X035555Y028599D01*
X035555Y028717D02*
X037047Y028717D01*
X036986Y028836D02*
X035555Y028836D01*
X035555Y028954D02*
X036987Y028954D01*
X037050Y029073D02*
X035555Y029073D01*
X035555Y029191D02*
X037090Y029191D01*
X037090Y029310D02*
X035555Y029310D01*
X035555Y029428D02*
X037090Y029428D01*
X037090Y029547D02*
X035555Y029547D01*
X035555Y029665D02*
X037090Y029665D01*
X037160Y029784D02*
X035555Y029784D01*
X035555Y029902D02*
X037278Y029902D01*
X037397Y030021D02*
X035555Y030021D01*
X035555Y030139D02*
X039680Y030139D01*
X039650Y030258D02*
X035555Y030258D01*
X035555Y030376D02*
X039672Y030376D01*
X039762Y030495D02*
X035555Y030495D01*
X035555Y030613D02*
X048510Y030613D01*
X048510Y030732D02*
X035555Y030732D01*
X035555Y030850D02*
X035651Y030850D01*
X035868Y030850D02*
X043151Y030850D01*
X043368Y030850D02*
X048510Y030850D01*
X048510Y031561D02*
X048013Y031561D01*
X047985Y031533D02*
X048049Y031598D01*
X048049Y032239D01*
X047985Y032303D01*
X046093Y032303D01*
X046029Y032239D01*
X046029Y031598D01*
X046093Y031533D01*
X047985Y031533D01*
X048049Y031680D02*
X048510Y031680D01*
X048510Y031798D02*
X048049Y031798D01*
X048049Y031917D02*
X048510Y031917D01*
X048510Y032035D02*
X048049Y032035D01*
X048049Y032154D02*
X048510Y032154D01*
X048510Y032272D02*
X048016Y032272D01*
X046063Y032272D02*
X045457Y032272D01*
X045426Y032303D02*
X045490Y032239D01*
X045490Y031598D01*
X045426Y031533D01*
X043534Y031533D01*
X043470Y031598D01*
X043470Y032239D01*
X043534Y032303D01*
X045426Y032303D01*
X045490Y032154D02*
X046029Y032154D01*
X046029Y032035D02*
X045490Y032035D01*
X045490Y031917D02*
X046029Y031917D01*
X046029Y031798D02*
X045490Y031798D01*
X045490Y031680D02*
X046029Y031680D01*
X046065Y031561D02*
X045454Y031561D01*
X044432Y030495D02*
X040087Y030495D01*
X039925Y030268D02*
X039925Y030143D01*
X039093Y031533D02*
X040985Y031533D01*
X041049Y031598D01*
X041049Y032239D01*
X040985Y032303D01*
X039093Y032303D01*
X039029Y032239D01*
X039029Y031598D01*
X039093Y031533D01*
X039065Y031561D02*
X038454Y031561D01*
X038490Y031680D02*
X039029Y031680D01*
X039029Y031798D02*
X038490Y031798D01*
X038490Y031917D02*
X039029Y031917D01*
X039029Y032035D02*
X038490Y032035D01*
X038490Y032154D02*
X039029Y032154D01*
X039063Y032272D02*
X038457Y032272D01*
X041016Y032272D02*
X043503Y032272D01*
X043470Y032154D02*
X041049Y032154D01*
X041049Y032035D02*
X043470Y032035D01*
X043470Y031917D02*
X041049Y031917D01*
X041049Y031798D02*
X043470Y031798D01*
X043470Y031680D02*
X041049Y031680D01*
X041013Y031561D02*
X043506Y031561D01*
X044594Y029893D02*
X044344Y029643D01*
X037947Y029643D01*
X037697Y029393D01*
X037697Y027393D01*
X037422Y027414D02*
X036670Y027414D01*
X036657Y027532D02*
X037457Y027532D01*
X037527Y027651D02*
X035555Y027651D01*
X035555Y027769D02*
X037527Y027769D01*
X037527Y027888D02*
X035555Y027888D01*
X035555Y028006D02*
X037527Y028006D01*
X037527Y028125D02*
X035555Y028125D01*
X035555Y028243D02*
X037527Y028243D01*
X037527Y028362D02*
X035555Y028362D01*
X035555Y028480D02*
X037527Y028480D01*
X036262Y027532D02*
X036257Y027532D01*
X035862Y027532D02*
X035555Y027532D01*
X035555Y027414D02*
X035850Y027414D01*
X035850Y026821D02*
X035555Y026821D01*
X035555Y026703D02*
X035899Y026703D01*
X036257Y026703D02*
X036262Y026703D01*
X036257Y026821D02*
X036262Y026821D01*
X035197Y026081D02*
X035010Y025893D01*
X035197Y026081D02*
X035197Y034655D01*
X034947Y034905D01*
X034885Y034905D01*
X034626Y034998D02*
X022010Y034998D01*
X022010Y035116D02*
X034708Y035116D01*
X034610Y034879D02*
X022010Y034879D01*
X022010Y034761D02*
X034648Y034761D01*
X034801Y034642D02*
X022010Y034642D01*
X022010Y034524D02*
X035027Y034524D01*
X035027Y034405D02*
X022010Y034405D01*
X022010Y034287D02*
X035027Y034287D01*
X035027Y034168D02*
X022010Y034168D01*
X022010Y034050D02*
X035027Y034050D01*
X035027Y033931D02*
X022015Y033931D01*
X022034Y033813D02*
X035027Y033813D01*
X035027Y033694D02*
X022034Y033694D01*
X022010Y033576D02*
X035027Y033576D01*
X035027Y033457D02*
X022010Y033457D01*
X022010Y033339D02*
X035027Y033339D01*
X035027Y033220D02*
X022010Y033220D01*
X022010Y033102D02*
X035027Y033102D01*
X035027Y032983D02*
X022010Y032983D01*
X022010Y032865D02*
X035027Y032865D01*
X035027Y032746D02*
X022010Y032746D01*
X022010Y032628D02*
X035027Y032628D01*
X035027Y032509D02*
X022010Y032509D01*
X022010Y032391D02*
X035027Y032391D01*
X035027Y032272D02*
X034016Y032272D01*
X033985Y032303D02*
X034049Y032239D01*
X034049Y031598D01*
X033985Y031533D01*
X032093Y031533D01*
X032029Y031598D01*
X032029Y032239D01*
X032093Y032303D01*
X033985Y032303D01*
X034049Y032154D02*
X035027Y032154D01*
X035027Y032035D02*
X034049Y032035D01*
X034049Y031917D02*
X035027Y031917D01*
X035027Y031798D02*
X034049Y031798D01*
X034049Y031680D02*
X035027Y031680D01*
X035027Y031561D02*
X034013Y031561D01*
X034928Y031324D02*
X035027Y031324D01*
X035016Y031206D02*
X035027Y031206D01*
X035027Y031443D02*
X022010Y031443D01*
X022010Y031561D02*
X022506Y031561D01*
X022534Y031533D02*
X024426Y031533D01*
X024490Y031598D01*
X024490Y032239D01*
X024426Y032303D01*
X022534Y032303D01*
X022470Y032239D01*
X022470Y031598D01*
X022534Y031533D01*
X022470Y031680D02*
X022010Y031680D01*
X022010Y031798D02*
X022470Y031798D01*
X022470Y031917D02*
X022010Y031917D01*
X022010Y032035D02*
X022470Y032035D01*
X022470Y032154D02*
X022010Y032154D01*
X022010Y032272D02*
X022503Y032272D01*
X022092Y031324D02*
X022010Y031324D01*
X022010Y030988D02*
X022026Y030947D01*
X022104Y030870D01*
X022205Y030828D01*
X022314Y030828D01*
X022415Y030870D01*
X022418Y030873D01*
X029101Y030873D01*
X029104Y030870D01*
X029205Y030828D01*
X029314Y030828D01*
X029415Y030870D01*
X029418Y030873D01*
X034530Y030873D01*
X034530Y030548D01*
X034655Y030423D01*
X034655Y027393D01*
X033097Y027393D01*
X033097Y027448D01*
X033055Y027549D01*
X032992Y027612D01*
X032992Y028821D01*
X033026Y028738D01*
X033104Y028660D01*
X033205Y028618D01*
X033314Y028618D01*
X033415Y028660D01*
X033493Y028738D01*
X033535Y028839D01*
X033535Y028948D01*
X033493Y029049D01*
X033430Y029112D01*
X033430Y029651D01*
X033330Y029751D01*
X033080Y030001D01*
X030915Y030001D01*
X030815Y030100D01*
X030827Y030113D01*
X030869Y030214D01*
X030869Y030323D01*
X030827Y030424D01*
X030750Y030501D01*
X030649Y030543D01*
X030539Y030543D01*
X030438Y030501D01*
X030361Y030424D01*
X030319Y030323D01*
X030319Y030214D01*
X030361Y030113D01*
X030424Y030049D01*
X030424Y030010D01*
X030621Y029813D01*
X026245Y029813D01*
X026095Y029964D01*
X026095Y030049D01*
X026158Y030113D01*
X026200Y030214D01*
X026200Y030323D01*
X026158Y030424D01*
X026081Y030501D01*
X025980Y030543D01*
X025870Y030543D01*
X025769Y030501D01*
X025692Y030424D01*
X025650Y030323D01*
X025650Y030214D01*
X025692Y030113D01*
X025755Y030049D01*
X025755Y029823D01*
X025952Y029626D01*
X023915Y029626D01*
X023764Y029776D01*
X023764Y030049D01*
X023827Y030113D01*
X023869Y030214D01*
X023869Y030323D01*
X023827Y030424D01*
X023750Y030501D01*
X023649Y030543D01*
X023539Y030543D01*
X023438Y030501D01*
X023361Y030424D01*
X023319Y030323D01*
X023319Y030214D01*
X023361Y030113D01*
X023424Y030049D01*
X023424Y029635D01*
X023666Y029393D01*
X022010Y029393D01*
X022010Y030988D01*
X022010Y030969D02*
X022017Y030969D01*
X022010Y030850D02*
X022151Y030850D01*
X022010Y030732D02*
X034530Y030732D01*
X034530Y030850D02*
X029368Y030850D01*
X029151Y030850D02*
X022368Y030850D01*
X022010Y030613D02*
X034530Y030613D01*
X034583Y030495D02*
X030757Y030495D01*
X030847Y030376D02*
X034655Y030376D01*
X034655Y030258D02*
X030869Y030258D01*
X030838Y030139D02*
X034655Y030139D01*
X034655Y030021D02*
X030895Y030021D01*
X030844Y029831D02*
X033010Y029831D01*
X033260Y029581D01*
X033260Y028893D01*
X033469Y029073D02*
X034655Y029073D01*
X034655Y029191D02*
X033430Y029191D01*
X033430Y029310D02*
X034655Y029310D01*
X034655Y029428D02*
X033430Y029428D01*
X033430Y029547D02*
X034655Y029547D01*
X034655Y029665D02*
X033415Y029665D01*
X033297Y029784D02*
X034655Y029784D01*
X034655Y029902D02*
X033178Y029902D01*
X032822Y029393D02*
X032572Y029643D01*
X026175Y029643D01*
X025925Y029893D01*
X025925Y030268D01*
X026178Y030376D02*
X030341Y030376D01*
X030319Y030258D02*
X026200Y030258D01*
X026169Y030139D02*
X030350Y030139D01*
X030424Y030021D02*
X026095Y030021D01*
X026156Y029902D02*
X030532Y029902D01*
X030594Y030081D02*
X030844Y029831D01*
X030594Y030081D02*
X030594Y030268D01*
X030432Y030495D02*
X026087Y030495D01*
X025762Y030495D02*
X023757Y030495D01*
X023847Y030376D02*
X025672Y030376D01*
X025650Y030258D02*
X023869Y030258D01*
X023838Y030139D02*
X025681Y030139D01*
X025755Y030021D02*
X023764Y030021D01*
X023764Y029902D02*
X025755Y029902D01*
X025794Y029784D02*
X023764Y029784D01*
X023875Y029665D02*
X025912Y029665D01*
X024766Y028836D02*
X020783Y028836D01*
X020782Y028954D02*
X021510Y028954D01*
X021510Y029073D02*
X021467Y029073D01*
X021492Y029191D02*
X021510Y029191D01*
X021510Y029310D02*
X021492Y029310D01*
X021492Y029428D02*
X021510Y029428D01*
X021510Y029547D02*
X021492Y029547D01*
X021492Y029665D02*
X021510Y029665D01*
X021510Y029784D02*
X021012Y029784D01*
X021035Y029902D02*
X021510Y029902D01*
X021510Y030021D02*
X021004Y030021D01*
X021492Y030139D02*
X021510Y030139D01*
X021510Y030258D02*
X021492Y030258D01*
X021492Y030376D02*
X021510Y030376D01*
X021510Y030495D02*
X021492Y030495D01*
X021492Y030613D02*
X021510Y030613D01*
X021510Y030732D02*
X021449Y030732D01*
X021510Y030850D02*
X020910Y030850D01*
X020792Y030969D02*
X021510Y030969D01*
X021510Y031087D02*
X020673Y031087D01*
X022010Y030495D02*
X023432Y030495D01*
X023341Y030376D02*
X022010Y030376D01*
X022010Y030258D02*
X023319Y030258D01*
X023350Y030139D02*
X022010Y030139D01*
X022010Y030021D02*
X023424Y030021D01*
X023424Y029902D02*
X022010Y029902D01*
X022010Y029784D02*
X023424Y029784D01*
X023424Y029665D02*
X022010Y029665D01*
X022010Y029547D02*
X023513Y029547D01*
X023631Y029428D02*
X022010Y029428D01*
X021463Y028717D02*
X024735Y028717D01*
X024756Y028599D02*
X021492Y028599D01*
X020752Y028393D02*
X028697Y028393D01*
X028947Y028143D01*
X028947Y023331D01*
X028635Y023018D02*
X028635Y027893D01*
X029572Y027706D02*
X030197Y027706D01*
X030447Y027456D01*
X030447Y024018D01*
X030697Y023768D01*
X031822Y023768D01*
X032072Y024018D01*
X047760Y024018D01*
X047885Y023893D01*
X049050Y023893D01*
X049322Y023518D02*
X049447Y023643D01*
X049322Y023518D02*
X047947Y023518D01*
X047635Y023831D01*
X040010Y023831D01*
X040273Y023622D02*
X041433Y023622D01*
X041375Y023503D02*
X040341Y023503D01*
X040358Y023385D02*
X041361Y023385D01*
X041381Y023266D02*
X040334Y023266D01*
X040256Y023148D02*
X041445Y023148D01*
X041598Y023029D02*
X039180Y023029D01*
X039262Y023503D02*
X039678Y023503D01*
X039746Y023622D02*
X039170Y023622D01*
X039748Y022318D02*
X042016Y022318D01*
X041897Y022200D02*
X039809Y022200D01*
X039806Y022081D02*
X041779Y022081D01*
X041660Y021963D02*
X039743Y021963D01*
X039535Y022143D02*
X039535Y021643D01*
X041035Y019593D02*
X044110Y019593D01*
X044385Y019593D02*
X045283Y019593D01*
X045183Y019711D02*
X046340Y019711D01*
X046340Y019593D02*
X045535Y019593D01*
X045695Y019474D02*
X046340Y019474D01*
X046340Y019356D02*
X045749Y019356D01*
X045757Y019237D02*
X046340Y019237D01*
X046340Y019119D02*
X045724Y019119D01*
X045633Y019000D02*
X046340Y019000D01*
X046340Y018882D02*
X039152Y018882D01*
X039257Y018763D02*
X046264Y018763D01*
X046146Y018645D02*
X039285Y018645D01*
X039259Y018526D02*
X046027Y018526D01*
X046010Y018268D02*
X046510Y018768D01*
X046010Y018268D02*
X023271Y018268D01*
X023014Y018171D02*
X018768Y018171D01*
X018736Y018289D02*
X022996Y018289D01*
X023031Y018408D02*
X018670Y018408D01*
X018734Y018297D02*
X018596Y018535D01*
X018402Y018730D01*
X018163Y018868D01*
X017897Y018939D01*
X017622Y018939D01*
X017356Y018868D01*
X017117Y018730D01*
X016923Y018535D01*
X016785Y018297D01*
X016714Y018031D01*
X016714Y017756D01*
X016785Y017490D01*
X016923Y017251D01*
X017117Y017056D01*
X017356Y016919D01*
X017622Y016847D01*
X017897Y016847D01*
X018163Y016919D01*
X018402Y017056D01*
X018596Y017251D01*
X018734Y017490D01*
X018805Y017756D01*
X018805Y018031D01*
X018734Y018297D01*
X018800Y018052D02*
X022559Y018052D01*
X022510Y017934D02*
X018805Y017934D01*
X018805Y017815D02*
X022507Y017815D01*
X022567Y017697D02*
X018790Y017697D01*
X018758Y017578D02*
X039224Y017578D01*
X039186Y017460D02*
X018717Y017460D01*
X018648Y017341D02*
X039190Y017341D01*
X039239Y017223D02*
X018568Y017223D01*
X018450Y017104D02*
X019708Y017104D01*
X019638Y016986D02*
X018279Y016986D01*
X017971Y016867D02*
X019626Y016867D01*
X019660Y016749D02*
X017134Y016749D01*
X016942Y016867D02*
X017548Y016867D01*
X017436Y016630D02*
X019761Y016630D01*
X018602Y018526D02*
X021204Y018526D01*
X021166Y018542D02*
X021370Y018458D01*
X021590Y018458D01*
X021794Y018542D01*
X021949Y018698D01*
X022034Y018901D01*
X022034Y019122D01*
X021949Y019325D01*
X021794Y019481D01*
X021590Y019565D01*
X021370Y019565D01*
X021166Y019481D01*
X021011Y019325D01*
X020926Y019122D01*
X020926Y018901D01*
X021011Y018698D01*
X021166Y018542D01*
X021064Y018645D02*
X018487Y018645D01*
X018344Y018763D02*
X020983Y018763D01*
X020934Y018882D02*
X018111Y018882D01*
X017408Y018882D02*
X016445Y018882D01*
X016445Y019000D02*
X020926Y019000D01*
X020926Y019119D02*
X016445Y019119D01*
X016445Y019237D02*
X020974Y019237D01*
X021041Y019356D02*
X016445Y019356D01*
X016445Y019474D02*
X021160Y019474D01*
X020890Y019788D02*
X020932Y019889D01*
X020932Y019998D01*
X020890Y020099D01*
X020812Y020176D01*
X020711Y020218D01*
X020602Y020218D01*
X020501Y020176D01*
X020438Y020113D01*
X019641Y020113D01*
X019578Y020176D01*
X019477Y020218D01*
X019367Y020218D01*
X019266Y020176D01*
X019189Y020099D01*
X019147Y019998D01*
X019147Y019889D01*
X019189Y019788D01*
X019266Y019710D01*
X019367Y019668D01*
X019477Y019668D01*
X019578Y019710D01*
X019641Y019773D01*
X020438Y019773D01*
X020501Y019710D01*
X020602Y019668D01*
X020711Y019668D01*
X020812Y019710D01*
X020890Y019788D01*
X020907Y019830D02*
X023840Y019830D01*
X023840Y019948D02*
X020932Y019948D01*
X020903Y020067D02*
X023840Y020067D01*
X023840Y020185D02*
X020791Y020185D01*
X020522Y020185D02*
X019556Y020185D01*
X019288Y020185D02*
X016445Y020185D01*
X016445Y020067D02*
X019176Y020067D01*
X019147Y019948D02*
X016445Y019948D01*
X016445Y019830D02*
X019171Y019830D01*
X019265Y019711D02*
X016445Y019711D01*
X016445Y019593D02*
X023840Y019593D01*
X023840Y019711D02*
X020814Y019711D01*
X020657Y019943D02*
X019422Y019943D01*
X019579Y019711D02*
X020500Y019711D01*
X021800Y019474D02*
X023840Y019474D01*
X023932Y019356D02*
X021919Y019356D01*
X021986Y019237D02*
X024050Y019237D01*
X024169Y019119D02*
X022034Y019119D01*
X022034Y019000D02*
X045184Y019000D01*
X045409Y019268D02*
X024260Y019268D01*
X024010Y019518D01*
X024010Y021268D01*
X024265Y021370D02*
X024379Y021370D01*
X024360Y021252D02*
X024285Y021252D01*
X024178Y021489D02*
X024466Y021489D01*
X024310Y020956D02*
X024310Y019843D01*
X024560Y019593D01*
X035456Y019593D01*
X041035Y019593D01*
X039010Y018643D02*
X032010Y018643D01*
X031735Y018645D02*
X021896Y018645D01*
X021977Y018763D02*
X031762Y018763D01*
X031867Y018882D02*
X022026Y018882D01*
X021756Y018526D02*
X023176Y018526D01*
X023367Y018526D02*
X031760Y018526D01*
X032152Y018882D02*
X038867Y018882D01*
X036035Y021963D02*
X034877Y021963D01*
X034941Y022081D02*
X035972Y022081D01*
X035623Y022555D02*
X025173Y022555D01*
X025054Y022674D02*
X029426Y022674D01*
X029308Y022792D02*
X028797Y022792D01*
X028472Y022792D02*
X024936Y022792D01*
X024817Y022911D02*
X028381Y022911D01*
X028360Y023029D02*
X024699Y023029D01*
X024580Y023148D02*
X028391Y023148D01*
X028465Y024214D02*
X026721Y024214D01*
X026840Y024333D02*
X028465Y024333D01*
X028465Y024451D02*
X026958Y024451D01*
X027077Y024570D02*
X028465Y024570D01*
X028465Y024688D02*
X027195Y024688D01*
X027309Y024807D02*
X028465Y024807D01*
X028465Y024925D02*
X027331Y024925D01*
X027249Y025044D02*
X028465Y025044D01*
X028465Y025162D02*
X027131Y025162D01*
X027012Y025281D02*
X028465Y025281D01*
X028465Y025399D02*
X026894Y025399D01*
X026775Y025518D02*
X028465Y025518D01*
X028465Y026229D02*
X026064Y026229D01*
X025946Y026347D02*
X028465Y026347D01*
X031365Y026347D02*
X035027Y026347D01*
X035027Y026229D02*
X031365Y026229D01*
X031410Y026110D02*
X034838Y026110D01*
X034753Y025992D02*
X031404Y025992D01*
X031365Y025873D02*
X034735Y025873D01*
X034769Y025755D02*
X031411Y025755D01*
X031529Y025636D02*
X034911Y025636D01*
X035108Y025636D02*
X035411Y025636D01*
X035269Y025755D02*
X035250Y025755D01*
X034673Y026466D02*
X031365Y026466D01*
X031365Y026584D02*
X034611Y026584D01*
X034612Y026703D02*
X031365Y026703D01*
X031365Y026821D02*
X034655Y026821D01*
X034655Y027414D02*
X033097Y027414D01*
X033062Y027532D02*
X034655Y027532D01*
X034655Y027651D02*
X032992Y027651D01*
X032992Y027769D02*
X034655Y027769D01*
X034655Y027888D02*
X032992Y027888D01*
X032992Y028006D02*
X034655Y028006D01*
X034655Y028125D02*
X032992Y028125D01*
X032992Y028243D02*
X034655Y028243D01*
X034655Y028362D02*
X032992Y028362D01*
X032992Y028480D02*
X034655Y028480D01*
X034655Y028599D02*
X032992Y028599D01*
X032992Y028717D02*
X033047Y028717D01*
X033472Y028717D02*
X034655Y028717D01*
X034655Y028836D02*
X033533Y028836D01*
X033532Y028954D02*
X034655Y028954D01*
X032822Y029393D02*
X032822Y027393D01*
X032510Y027893D02*
X032510Y029206D01*
X032260Y029456D01*
X023844Y029456D01*
X023594Y029706D01*
X023594Y030268D01*
X024454Y031561D02*
X025065Y031561D01*
X025093Y031533D02*
X026985Y031533D01*
X027049Y031598D01*
X027049Y032239D01*
X026985Y032303D01*
X025093Y032303D01*
X025029Y032239D01*
X025029Y031598D01*
X025093Y031533D01*
X025029Y031680D02*
X024490Y031680D01*
X024490Y031798D02*
X025029Y031798D01*
X025029Y031917D02*
X024490Y031917D01*
X024490Y032035D02*
X025029Y032035D01*
X025029Y032154D02*
X024490Y032154D01*
X024457Y032272D02*
X025063Y032272D01*
X027016Y032272D02*
X029503Y032272D01*
X029534Y032303D02*
X029470Y032239D01*
X029470Y031598D01*
X029534Y031533D01*
X031426Y031533D01*
X031490Y031598D01*
X031490Y032239D01*
X031426Y032303D01*
X029534Y032303D01*
X029470Y032154D02*
X027049Y032154D01*
X027049Y032035D02*
X029470Y032035D01*
X029470Y031917D02*
X027049Y031917D01*
X027049Y031798D02*
X029470Y031798D01*
X029470Y031680D02*
X027049Y031680D01*
X027013Y031561D02*
X029506Y031561D01*
X031454Y031561D02*
X032065Y031561D01*
X032029Y031680D02*
X031490Y031680D01*
X031490Y031798D02*
X032029Y031798D01*
X032029Y031917D02*
X031490Y031917D01*
X031490Y032035D02*
X032029Y032035D01*
X032029Y032154D02*
X031490Y032154D01*
X031457Y032272D02*
X032063Y032272D01*
X035555Y031324D02*
X035592Y031324D01*
X031760Y028836D02*
X031080Y028836D01*
X031198Y028717D02*
X031760Y028717D01*
X031760Y028599D02*
X031317Y028599D01*
X031365Y028480D02*
X031760Y028480D01*
X031760Y028362D02*
X031365Y028362D01*
X031365Y028243D02*
X031760Y028243D01*
X031760Y028125D02*
X031365Y028125D01*
X031365Y028006D02*
X031760Y028006D01*
X031760Y027888D02*
X031365Y027888D01*
X031365Y027769D02*
X031760Y027769D01*
X031760Y027651D02*
X031365Y027651D01*
X031365Y027532D02*
X031760Y027532D01*
X031760Y027414D02*
X031365Y027414D01*
X031365Y027295D02*
X031760Y027295D01*
X031760Y027177D02*
X031365Y027177D01*
X031365Y027058D02*
X031760Y027058D01*
X031760Y026940D02*
X031365Y026940D01*
X031135Y024768D02*
X049135Y024768D01*
X049447Y025081D01*
X050157Y024393D02*
X031822Y024393D01*
X031572Y024143D01*
X034669Y022143D02*
X034669Y021643D01*
X026947Y020518D02*
X026760Y020706D01*
X023840Y020541D02*
X016445Y020541D01*
X016445Y020659D02*
X021606Y020659D01*
X021510Y020778D02*
X016445Y020778D01*
X016445Y020896D02*
X021485Y020896D01*
X021398Y021015D02*
X016445Y021015D01*
X016445Y021133D02*
X021279Y021133D01*
X021277Y021252D02*
X016445Y021252D01*
X016445Y021370D02*
X021277Y021370D01*
X021277Y021489D02*
X016445Y021489D01*
X016445Y021607D02*
X021277Y021607D01*
X021277Y021726D02*
X016445Y021726D01*
X016445Y021844D02*
X021277Y021844D01*
X021277Y021963D02*
X018457Y021963D01*
X018446Y021958D02*
X018560Y022006D01*
X018647Y022093D01*
X018695Y022207D01*
X018695Y024455D01*
X018647Y024569D01*
X018560Y024656D01*
X018446Y024703D01*
X018323Y024703D01*
X018209Y024656D01*
X018122Y024569D01*
X018075Y024455D01*
X018075Y022207D01*
X018122Y022093D01*
X018209Y022006D01*
X018323Y021958D01*
X018446Y021958D01*
X018312Y021963D02*
X016445Y021963D01*
X016445Y022081D02*
X018133Y022081D01*
X018077Y022200D02*
X016445Y022200D01*
X016445Y022318D02*
X018075Y022318D01*
X018075Y022437D02*
X016445Y022437D01*
X016445Y022555D02*
X018075Y022555D01*
X018075Y022674D02*
X016445Y022674D01*
X016445Y022792D02*
X018075Y022792D01*
X018075Y022911D02*
X016445Y022911D01*
X016445Y023029D02*
X018075Y023029D01*
X018075Y023148D02*
X016445Y023148D01*
X016445Y023266D02*
X018075Y023266D01*
X018075Y023385D02*
X016445Y023385D01*
X016445Y023503D02*
X018075Y023503D01*
X018075Y023622D02*
X016445Y023622D01*
X016445Y023740D02*
X018075Y023740D01*
X018075Y023859D02*
X016445Y023859D01*
X016445Y023977D02*
X018075Y023977D01*
X018075Y024096D02*
X016445Y024096D01*
X016445Y024214D02*
X018075Y024214D01*
X018075Y024333D02*
X016445Y024333D01*
X016445Y024451D02*
X018075Y024451D01*
X018123Y024570D02*
X016445Y024570D01*
X016445Y024688D02*
X018287Y024688D01*
X018482Y024688D02*
X021277Y024688D01*
X021277Y024570D02*
X018646Y024570D01*
X018695Y024451D02*
X021277Y024451D01*
X021277Y024333D02*
X018695Y024333D01*
X018695Y024214D02*
X021277Y024214D01*
X021277Y024096D02*
X018695Y024096D01*
X018695Y023977D02*
X021277Y023977D01*
X021277Y023859D02*
X018695Y023859D01*
X018695Y023740D02*
X021277Y023740D01*
X021277Y023622D02*
X018695Y023622D01*
X018695Y023503D02*
X021277Y023503D01*
X021277Y023385D02*
X018695Y023385D01*
X018695Y023266D02*
X021277Y023266D01*
X021277Y023148D02*
X018695Y023148D01*
X018695Y023029D02*
X021277Y023029D01*
X021277Y022911D02*
X018695Y022911D01*
X018695Y022792D02*
X021277Y022792D01*
X021277Y022674D02*
X018695Y022674D01*
X018695Y022555D02*
X021277Y022555D01*
X021277Y022437D02*
X018695Y022437D01*
X018695Y022318D02*
X021277Y022318D01*
X021277Y022200D02*
X018692Y022200D01*
X018636Y022081D02*
X021277Y022081D01*
X021930Y022792D02*
X022870Y022792D01*
X022752Y022911D02*
X021930Y022911D01*
X021930Y023029D02*
X022633Y023029D01*
X022515Y023148D02*
X021930Y023148D01*
X021930Y023266D02*
X022396Y023266D01*
X022340Y023385D02*
X021930Y023385D01*
X021930Y023503D02*
X022340Y023503D01*
X022340Y023622D02*
X021930Y023622D01*
X021930Y023740D02*
X022340Y023740D01*
X022340Y023859D02*
X021930Y023859D01*
X021930Y023977D02*
X022287Y023977D01*
X022235Y024096D02*
X021930Y024096D01*
X021930Y024214D02*
X022241Y024214D01*
X022310Y024333D02*
X021930Y024333D01*
X022510Y024143D02*
X022510Y023393D01*
X023385Y022518D01*
X024106Y023622D02*
X025391Y023622D01*
X025272Y023740D02*
X023988Y023740D01*
X023869Y023859D02*
X025154Y023859D01*
X025035Y023977D02*
X023751Y023977D01*
X021277Y024807D02*
X019743Y024807D01*
X019715Y024795D02*
X019843Y024848D01*
X019941Y024946D01*
X019994Y025074D01*
X019994Y025213D01*
X019941Y025340D01*
X019843Y025438D01*
X019715Y025491D01*
X019577Y025491D01*
X019449Y025438D01*
X019351Y025340D01*
X019298Y025213D01*
X019298Y025074D01*
X019351Y024946D01*
X019449Y024848D01*
X019577Y024795D01*
X019715Y024795D01*
X019549Y024807D02*
X016445Y024807D01*
X016445Y024925D02*
X019372Y024925D01*
X019310Y025044D02*
X016445Y025044D01*
X016445Y025162D02*
X019298Y025162D01*
X019326Y025281D02*
X016445Y025281D01*
X016445Y025399D02*
X019410Y025399D01*
X019882Y025399D02*
X021277Y025399D01*
X021277Y025281D02*
X019966Y025281D01*
X019994Y025162D02*
X021277Y025162D01*
X021277Y025044D02*
X019981Y025044D01*
X019920Y024925D02*
X021277Y024925D01*
X021277Y025518D02*
X016445Y025518D01*
X016445Y025636D02*
X021277Y025636D01*
X021277Y025755D02*
X016445Y025755D01*
X016445Y025873D02*
X021277Y025873D01*
X021277Y025992D02*
X016445Y025992D01*
X016445Y026110D02*
X021277Y026110D01*
X021277Y026229D02*
X016445Y026229D01*
X016445Y026347D02*
X021277Y026347D01*
X021277Y026466D02*
X016445Y026466D01*
X016445Y026584D02*
X021277Y026584D01*
X021277Y026703D02*
X016445Y026703D01*
X016445Y026821D02*
X021277Y026821D01*
X021277Y026940D02*
X016445Y026940D01*
X016445Y027058D02*
X021277Y027058D01*
X021303Y027177D02*
X016445Y027177D01*
X016445Y027295D02*
X021421Y027295D01*
X021540Y027414D02*
X016445Y027414D01*
X016445Y027532D02*
X021658Y027532D01*
X022275Y027651D02*
X016445Y027651D01*
X016445Y027769D02*
X019956Y027769D01*
X019837Y027888D02*
X016445Y027888D01*
X016445Y028006D02*
X019719Y028006D01*
X019600Y028125D02*
X019507Y028125D01*
X019844Y028362D02*
X020012Y028362D01*
X020012Y028480D02*
X019725Y028480D01*
X019507Y028599D02*
X020012Y028599D01*
X020040Y028717D02*
X019479Y028717D01*
X019962Y028243D02*
X020012Y028243D01*
X020510Y028893D02*
X020510Y029151D01*
X020752Y029393D01*
X017334Y033931D02*
X016445Y033931D01*
X016445Y034050D02*
X017129Y034050D01*
X017005Y034168D02*
X016445Y034168D01*
X016445Y034287D02*
X016902Y034287D01*
X016834Y034405D02*
X016445Y034405D01*
X016445Y034524D02*
X016776Y034524D01*
X016744Y034642D02*
X016445Y034642D01*
X016445Y034761D02*
X016714Y034761D01*
X016714Y034879D02*
X016445Y034879D01*
X016451Y034998D02*
X016714Y034998D01*
X016737Y035116D02*
X016470Y035116D01*
X016501Y035235D02*
X016768Y035235D01*
X016818Y035353D02*
X016533Y035353D01*
X016588Y035472D02*
X016886Y035472D01*
X016978Y035590D02*
X016657Y035590D01*
X016731Y035709D02*
X017096Y035709D01*
X017286Y035827D02*
X016850Y035827D01*
X024490Y035827D02*
X025029Y035827D01*
X025029Y035709D02*
X024490Y035709D01*
X024490Y035590D02*
X025029Y035590D01*
X025029Y035946D02*
X024490Y035946D01*
X024490Y036064D02*
X025029Y036064D01*
X025029Y036183D02*
X024490Y036183D01*
X027049Y036183D02*
X029470Y036183D01*
X029470Y036064D02*
X027049Y036064D01*
X027049Y035946D02*
X029470Y035946D01*
X029470Y035827D02*
X027049Y035827D01*
X027049Y035709D02*
X029470Y035709D01*
X029470Y035590D02*
X027049Y035590D01*
X031490Y035590D02*
X032029Y035590D01*
X032029Y035709D02*
X031490Y035709D01*
X031490Y035827D02*
X032029Y035827D01*
X032029Y035946D02*
X031490Y035946D01*
X031490Y036064D02*
X032029Y036064D01*
X032029Y036183D02*
X031490Y036183D01*
X034049Y036183D02*
X036470Y036183D01*
X036470Y036064D02*
X034049Y036064D01*
X034049Y035946D02*
X034999Y035946D01*
X035006Y035953D02*
X034950Y035897D01*
X034907Y035832D01*
X034877Y035759D01*
X034861Y035683D01*
X034861Y035643D01*
X035260Y035643D01*
X035260Y035643D01*
X035260Y036041D01*
X035220Y036041D01*
X035143Y036026D01*
X035071Y035996D01*
X035006Y035953D01*
X034905Y035827D02*
X034049Y035827D01*
X034049Y035709D02*
X034867Y035709D01*
X034864Y035590D02*
X034049Y035590D01*
X035063Y035116D02*
X035468Y035116D01*
X035379Y034998D02*
X035145Y034998D01*
X035213Y034879D02*
X035359Y034879D01*
X035260Y035353D02*
X035260Y035353D01*
X035260Y035472D02*
X035260Y035472D01*
X035260Y035590D02*
X035260Y035590D01*
X035260Y035709D02*
X035260Y035709D01*
X035260Y035827D02*
X035260Y035827D01*
X035260Y035946D02*
X035260Y035946D01*
X035520Y035946D02*
X036470Y035946D01*
X036470Y035827D02*
X035614Y035827D01*
X035652Y035709D02*
X036470Y035709D01*
X036470Y035590D02*
X035655Y035590D01*
X038490Y035590D02*
X039029Y035590D01*
X039029Y035709D02*
X038490Y035709D01*
X038490Y035827D02*
X039029Y035827D01*
X039029Y035946D02*
X038490Y035946D01*
X038490Y036064D02*
X039029Y036064D01*
X039029Y036183D02*
X038490Y036183D01*
X041049Y036183D02*
X043470Y036183D01*
X043470Y036064D02*
X041049Y036064D01*
X041049Y035946D02*
X043470Y035946D01*
X043470Y035827D02*
X041049Y035827D01*
X041049Y035709D02*
X043470Y035709D01*
X043470Y035590D02*
X041049Y035590D01*
X045490Y035590D02*
X046029Y035590D01*
X046029Y035709D02*
X045490Y035709D01*
X045490Y035827D02*
X046029Y035827D01*
X046029Y035946D02*
X045490Y035946D01*
X045490Y036064D02*
X046029Y036064D01*
X046029Y036183D02*
X045490Y036183D01*
X049010Y036064D02*
X053339Y036064D01*
X053544Y035946D02*
X049010Y035946D01*
X049010Y035827D02*
X052286Y035827D01*
X052096Y035709D02*
X049010Y035709D01*
X049010Y035590D02*
X051978Y035590D01*
X051886Y035472D02*
X049010Y035472D01*
X049010Y035353D02*
X051818Y035353D01*
X051768Y035235D02*
X049010Y035235D01*
X049010Y035116D02*
X051737Y035116D01*
X051714Y034998D02*
X049010Y034998D01*
X049010Y034879D02*
X051714Y034879D01*
X051714Y034761D02*
X049010Y034761D01*
X049010Y034642D02*
X051744Y034642D01*
X051776Y034524D02*
X049010Y034524D01*
X049010Y034405D02*
X051834Y034405D01*
X051902Y034287D02*
X049251Y034287D01*
X049429Y034168D02*
X052005Y034168D01*
X052129Y034050D02*
X049525Y034050D01*
X049574Y033931D02*
X052334Y033931D01*
X050988Y030732D02*
X050464Y030732D01*
X050507Y030613D02*
X050962Y030613D01*
X050962Y030495D02*
X050648Y030495D01*
X050760Y030143D02*
X050760Y028018D01*
X051010Y027768D01*
X051010Y023206D01*
X050760Y022956D01*
X045760Y022956D01*
X044572Y021768D01*
X044572Y020956D01*
X044110Y021143D02*
X044110Y021556D01*
X045697Y023143D01*
X050572Y023143D01*
X050666Y022318D02*
X048435Y022318D01*
X048435Y022200D02*
X050572Y022200D01*
X050535Y022081D02*
X048435Y022081D01*
X048435Y021963D02*
X050540Y021963D01*
X050590Y021844D02*
X048435Y021844D01*
X048381Y021726D02*
X050740Y021726D01*
X049369Y021252D02*
X048385Y021252D01*
X048385Y021133D02*
X049360Y021133D01*
X049406Y021015D02*
X048385Y021015D01*
X048385Y020896D02*
X049465Y020896D01*
X049465Y020778D02*
X048385Y020778D01*
X048677Y020659D02*
X048717Y020659D01*
X049077Y020659D02*
X049503Y020659D01*
X049134Y020067D02*
X049132Y020067D01*
X048719Y019474D02*
X048385Y019474D01*
X048382Y019356D02*
X048600Y019356D01*
X046340Y019830D02*
X045247Y019830D01*
X045577Y019948D02*
X045697Y019948D01*
X045697Y020067D02*
X045577Y020067D01*
X045577Y020185D02*
X045697Y020185D01*
X045697Y020304D02*
X046340Y020304D01*
X046340Y020422D02*
X046093Y020422D01*
X046093Y020541D02*
X046340Y020541D01*
X046340Y020659D02*
X046084Y020659D01*
X046340Y020778D02*
X045146Y020778D01*
X045146Y020896D02*
X046340Y020896D01*
X045697Y020659D02*
X045577Y020659D01*
X045577Y020541D02*
X045697Y020541D01*
X045697Y020422D02*
X045577Y020422D01*
X045577Y020304D02*
X045146Y020304D01*
X045146Y020422D02*
X045182Y020422D01*
X045182Y020541D02*
X045146Y020541D01*
X045146Y020659D02*
X045191Y020659D01*
X044806Y020422D02*
X043403Y020422D01*
X043495Y020304D02*
X044806Y020304D01*
X044806Y020185D02*
X043518Y020185D01*
X043489Y020067D02*
X044760Y020067D01*
X044769Y019711D02*
X044358Y019711D01*
X044358Y019474D02*
X045122Y019474D01*
X046079Y019948D02*
X046340Y019948D01*
X046340Y020067D02*
X046093Y020067D01*
X046093Y020185D02*
X046340Y020185D01*
X045697Y021133D02*
X045577Y021133D01*
X045577Y021252D02*
X045697Y021252D01*
X045697Y021370D02*
X045577Y021370D01*
X045577Y021726D02*
X045697Y021726D01*
X045697Y021844D02*
X045577Y021844D01*
X045577Y021963D02*
X045697Y021963D01*
X045731Y022437D02*
X047643Y022437D01*
X047695Y022555D02*
X045849Y022555D01*
X045465Y023401D02*
X045465Y023401D01*
X044806Y021726D02*
X044770Y021726D01*
X044742Y021607D02*
X044806Y021607D01*
X044806Y021489D02*
X044742Y021489D01*
X045146Y020185D02*
X045182Y020185D01*
X047981Y021726D02*
X048097Y021726D01*
X048097Y021844D02*
X047981Y021844D01*
X047981Y021963D02*
X048097Y021963D01*
X048097Y022081D02*
X047981Y022081D01*
X047981Y022200D02*
X048097Y022200D01*
X048097Y022318D02*
X047981Y022318D01*
X047981Y022437D02*
X048097Y022437D01*
X048097Y022555D02*
X047981Y022555D01*
X046510Y025456D02*
X046510Y026518D01*
X050501Y028954D02*
X050590Y028954D01*
X050590Y029073D02*
X050482Y029073D01*
X050507Y029191D02*
X050590Y029191D01*
X050590Y029310D02*
X050507Y029310D01*
X050507Y029428D02*
X050590Y029428D01*
X050590Y029547D02*
X050507Y029547D01*
X050507Y029665D02*
X050590Y029665D01*
X051367Y027888D02*
X051631Y027888D01*
X051514Y027769D02*
X051367Y027769D01*
X051367Y027651D02*
X051485Y027651D01*
X051508Y027532D02*
X051367Y027532D01*
X051367Y027414D02*
X051600Y027414D01*
X051888Y027888D02*
X052866Y027888D01*
X045951Y017623D02*
X043371Y017623D01*
X043421Y017502D01*
X043421Y017368D01*
X043370Y017245D01*
X043328Y017203D01*
X045993Y017203D01*
X045951Y017245D01*
X045900Y017368D01*
X045900Y017502D01*
X045951Y017623D01*
X045932Y017578D02*
X043389Y017578D01*
X043421Y017460D02*
X045900Y017460D01*
X045912Y017341D02*
X043410Y017341D01*
X043347Y017223D02*
X045974Y017223D01*
X051163Y016749D02*
X053385Y016749D01*
X052548Y016867D02*
X051326Y016867D01*
X051447Y016955D02*
X051447Y016955D01*
X051469Y016986D02*
X052240Y016986D01*
X052069Y017104D02*
X051556Y017104D01*
X051642Y017223D02*
X051951Y017223D01*
X051871Y017341D02*
X051708Y017341D01*
X051746Y017460D02*
X051802Y017460D01*
X023840Y020304D02*
X016445Y020304D01*
X016445Y020422D02*
X023840Y020422D01*
X017175Y018763D02*
X016445Y018763D01*
X016445Y018645D02*
X017032Y018645D01*
X016917Y018526D02*
X016445Y018526D01*
X016445Y018408D02*
X016849Y018408D01*
X016783Y018289D02*
X016445Y018289D01*
X016445Y018171D02*
X016751Y018171D01*
X016719Y018052D02*
X016445Y018052D01*
X016445Y017934D02*
X016714Y017934D01*
X016714Y017815D02*
X016450Y017815D01*
X016462Y017697D02*
X016729Y017697D01*
X016761Y017578D02*
X016494Y017578D01*
X016526Y017460D02*
X016802Y017460D01*
X016871Y017341D02*
X016573Y017341D01*
X016641Y017223D02*
X016951Y017223D01*
X017069Y017104D02*
X016710Y017104D01*
X016823Y016986D02*
X017240Y016986D01*
D25*
X024010Y023393D02*
X025760Y021643D01*
X027510Y021643D01*
X031760Y021643D01*
X034669Y021643D01*
X037425Y021643D01*
X039535Y021643D01*
X041666Y021643D01*
X043416Y023393D01*
X044543Y023393D01*
X043416Y025081D02*
X048947Y025081D01*
X049135Y025268D01*
X049135Y027393D01*
X049385Y027643D01*
X050010Y027643D01*
X051760Y027643D02*
X052994Y027643D01*
X043416Y025081D02*
X040844Y025081D01*
X038135Y025081D01*
X031760Y025081D01*
X031135Y025706D01*
X031135Y026059D01*
X031135Y028456D01*
X030885Y028706D01*
X025010Y028706D01*
X022260Y031103D02*
X029260Y031103D01*
X034760Y031103D01*
X034760Y031102D01*
X034760Y030643D01*
X034885Y030518D01*
X034885Y026643D01*
X035760Y031103D02*
X043260Y031103D01*
X048164Y020309D02*
X048039Y020184D01*
X048039Y019700D01*
X048164Y020309D02*
X048497Y020309D01*
X048897Y020309D02*
X049385Y020309D01*
X024010Y023393D02*
X022760Y024643D01*
X022760Y024893D01*
D26*
X018385Y024393D02*
X018385Y022268D01*
X019936Y016893D02*
X048635Y016893D01*
X050135Y016893D01*
X050135Y018018D01*
X050510Y016893D02*
X050570Y016895D01*
X050631Y016900D01*
X050690Y016909D01*
X050749Y016922D01*
X050808Y016938D01*
X050865Y016958D01*
X050920Y016981D01*
X050975Y017008D01*
X051027Y017037D01*
X051078Y017070D01*
X051127Y017106D01*
X051173Y017144D01*
X051217Y017186D01*
X051259Y017230D01*
X051297Y017276D01*
X051333Y017325D01*
X051366Y017376D01*
X051395Y017428D01*
X051422Y017483D01*
X051445Y017538D01*
X051465Y017595D01*
X051481Y017654D01*
X051494Y017713D01*
X051503Y017772D01*
X051508Y017833D01*
X051510Y017893D01*
X051512Y017961D01*
X051517Y018028D01*
X051526Y018095D01*
X051539Y018162D01*
X051556Y018227D01*
X051575Y018292D01*
X051599Y018356D01*
X051626Y018418D01*
X051656Y018479D01*
X051689Y018537D01*
X051725Y018594D01*
X051765Y018649D01*
X051807Y018702D01*
X051853Y018753D01*
X051900Y018800D01*
X051951Y018846D01*
X052004Y018888D01*
X052059Y018928D01*
X052116Y018964D01*
X052174Y018997D01*
X052235Y019027D01*
X052297Y019054D01*
X052361Y019078D01*
X052426Y019097D01*
X052491Y019114D01*
X052558Y019127D01*
X052625Y019136D01*
X052692Y019141D01*
X052760Y019143D01*
X052820Y019145D01*
X052881Y019150D01*
X052940Y019159D01*
X052999Y019172D01*
X053058Y019188D01*
X053115Y019208D01*
X053170Y019231D01*
X053225Y019258D01*
X053277Y019287D01*
X053328Y019320D01*
X053377Y019356D01*
X053423Y019394D01*
X053467Y019436D01*
X053509Y019480D01*
X053547Y019526D01*
X053583Y019575D01*
X053616Y019626D01*
X053645Y019678D01*
X053672Y019733D01*
X053695Y019788D01*
X053715Y019845D01*
X053731Y019904D01*
X053744Y019963D01*
X053753Y020022D01*
X053758Y020083D01*
X053760Y020143D01*
X053760Y028143D01*
X053510Y028393D01*
X051752Y028393D01*
X050510Y016893D02*
X050135Y016893D01*
D27*
X048010Y018393D02*
X048010Y018893D01*
X048010Y018393D02*
X047510Y017893D01*
X022782Y017893D01*
X022782Y017871D01*
M02*
