%
M48
M72
T01C0.0130
T02C0.0236
T03C0.0350
T04C0.0787
T05C0.1772
%
T01
X19936Y16893
X22782Y17871
X23271Y18268
X20657Y19943
X19422Y19943
X17860Y20693
X18385Y22268
X18385Y24393
X20760Y24893
X22510Y24143
X22760Y24893
X23510Y22893
X21760Y21393
X21760Y20893
X24010Y21268
X24310Y20956
X24635Y21268
X24960Y20956
X25760Y20768
X26760Y20706
X27085Y20956
X27510Y21643
X27510Y22268
X28635Y23018
X28947Y23331
X31135Y24768
X31447Y24456
X32347Y25543
X31135Y26059
X31597Y26793
X32822Y27393
X32510Y27893
X31597Y28293
X33260Y28893
X34260Y30393
X34760Y31103
X35760Y31103
X36260Y30393
X37260Y28893
X38010Y27893
X37697Y27393
X37035Y26231
X36260Y25543
X35510Y25893
X35010Y25893
X34885Y26643
X38135Y25081
X38572Y25643
X39010Y25643
X40844Y25081
X42010Y25643
X43416Y25081
X44543Y23393
X43260Y22643
X43243Y21143
X44110Y21143
X43697Y20193
X43243Y20193
X44110Y19593
X44976Y19893
X45635Y18768
X47135Y18768
X48010Y18893
X49760Y19643
X51385Y19268
X52660Y20693
X51635Y22268
X51635Y23018
X51635Y23768
X50157Y23643
X49572Y24081
X49050Y23893
X49572Y24706
X50157Y24393
X50157Y25081
X52510Y25893
X52994Y27643
X51760Y27643
X50010Y27643
X48260Y27643
X48260Y28393
X47010Y28393
X47010Y27643
X45760Y27643
X45760Y28393
X44510Y28393
X44510Y27643
X43260Y27643
X43260Y28393
X42010Y28393
X40760Y28393
X39510Y28393
X40260Y27143
X40760Y27143
X39925Y30268
X42260Y30393
X43260Y31103
X44594Y30268
X46925Y30268
X51010Y32143
X52660Y32093
X45760Y33893
X42260Y34893
X42260Y32393
X38760Y33893
X35634Y34893
X34885Y34905
X31760Y33893
X28260Y34893
X28260Y32393
X29260Y31103
X28260Y30393
X25925Y30268
X25010Y28706
X24635Y27831
X25760Y27768
X25760Y24893
X29260Y26143
X29572Y26456
X29260Y26768
X29572Y27081
X29260Y27393
X29572Y27706
X29260Y28018
X29572Y28331
X30594Y30268
X24760Y33893
X19510Y32143
X17860Y32093
X17525Y31018
X19010Y28893
X20510Y28893
X20760Y29893
X22260Y31103
X23594Y30268
X19510Y26393
X17860Y26393
X26260Y18768
X26260Y17393
X29510Y17393
X29510Y18768
X32010Y18643
X32760Y17393
X35260Y17393
X37760Y17393
X39010Y18643
X41035Y19593
X41535Y19893
X40035Y20193
X39535Y20518
X38572Y21268
X38572Y22018
X39010Y22018
X39535Y22143
X40010Y22643
X39010Y23393
X38572Y23393
X37760Y22643
X37425Y22143
X36244Y22143
X35850Y22393
X34669Y22143
X36637Y23518
X35063Y19893
X35456Y19593
X31760Y21643
X29957Y20831
X42760Y18768
X44135Y18768
X44135Y17393
X45635Y17393
X48635Y16893
X47135Y20268
X47135Y22018
X46510Y22143
X49635Y21175
X46510Y25456
X46510Y26518
T02
X22782Y22268
X19646Y25143
X22032Y26893
X22510Y27393
X35260Y35643
X46510Y27143
X43416Y23393
X41760Y23393
X40010Y23393
X37785Y23393
X45409Y19268
X39535Y17418
X49385Y20309
X50884Y22043
X50135Y18018
T03
X43086Y17435
X46235Y17435
T04
X21480Y19011
X21480Y33775
X49039Y19011
X49039Y33775
T05
X52760Y17893
X52760Y34893
X17760Y17893
X17760Y34893
M30
