G75*
%MOIN*%
%OFA0B0*%
%FSLAX24Y24*%
%IPPOS*%
%LPD*%
%AMOC8*
5,1,8,0,0,1.08239X$1,22.5*
%
%ADD10C,0.0050*%
%ADD11C,0.0320*%
%ADD12C,0.0000*%
D10*
X017760Y016393D02*
X052760Y016393D01*
X052836Y016395D01*
X052912Y016401D01*
X052987Y016410D01*
X053062Y016424D01*
X053136Y016441D01*
X053209Y016462D01*
X053281Y016486D01*
X053352Y016515D01*
X053421Y016546D01*
X053488Y016581D01*
X053553Y016620D01*
X053617Y016662D01*
X053678Y016707D01*
X053737Y016755D01*
X053793Y016806D01*
X053847Y016860D01*
X053898Y016916D01*
X053946Y016975D01*
X053991Y017036D01*
X054033Y017100D01*
X054072Y017165D01*
X054107Y017232D01*
X054138Y017301D01*
X054167Y017372D01*
X054191Y017444D01*
X054212Y017517D01*
X054229Y017591D01*
X054243Y017666D01*
X054252Y017741D01*
X054258Y017817D01*
X054260Y017893D01*
X054260Y034893D01*
X054258Y034969D01*
X054252Y035045D01*
X054243Y035120D01*
X054229Y035195D01*
X054212Y035269D01*
X054191Y035342D01*
X054167Y035414D01*
X054138Y035485D01*
X054107Y035554D01*
X054072Y035621D01*
X054033Y035686D01*
X053991Y035750D01*
X053946Y035811D01*
X053898Y035870D01*
X053847Y035926D01*
X053793Y035980D01*
X053737Y036031D01*
X053678Y036079D01*
X053617Y036124D01*
X053553Y036166D01*
X053488Y036205D01*
X053421Y036240D01*
X053352Y036271D01*
X053281Y036300D01*
X053209Y036324D01*
X053136Y036345D01*
X053062Y036362D01*
X052987Y036376D01*
X052912Y036385D01*
X052836Y036391D01*
X052760Y036393D01*
X017760Y036393D01*
X017684Y036391D01*
X017608Y036385D01*
X017533Y036376D01*
X017458Y036362D01*
X017384Y036345D01*
X017311Y036324D01*
X017239Y036300D01*
X017168Y036271D01*
X017099Y036240D01*
X017032Y036205D01*
X016967Y036166D01*
X016903Y036124D01*
X016842Y036079D01*
X016783Y036031D01*
X016727Y035980D01*
X016673Y035926D01*
X016622Y035870D01*
X016574Y035811D01*
X016529Y035750D01*
X016487Y035686D01*
X016448Y035621D01*
X016413Y035554D01*
X016382Y035485D01*
X016353Y035414D01*
X016329Y035342D01*
X016308Y035269D01*
X016291Y035195D01*
X016277Y035120D01*
X016268Y035045D01*
X016262Y034969D01*
X016260Y034893D01*
X016260Y017893D01*
X016262Y017817D01*
X016268Y017741D01*
X016277Y017666D01*
X016291Y017591D01*
X016308Y017517D01*
X016329Y017444D01*
X016353Y017372D01*
X016382Y017301D01*
X016413Y017232D01*
X016448Y017165D01*
X016487Y017100D01*
X016529Y017036D01*
X016574Y016975D01*
X016622Y016916D01*
X016673Y016860D01*
X016727Y016806D01*
X016783Y016755D01*
X016842Y016707D01*
X016903Y016662D01*
X016967Y016620D01*
X017032Y016581D01*
X017099Y016546D01*
X017168Y016515D01*
X017239Y016486D01*
X017311Y016462D01*
X017384Y016441D01*
X017458Y016424D01*
X017533Y016410D01*
X017608Y016401D01*
X017684Y016395D01*
X017760Y016393D01*
X016235Y021593D02*
X015260Y021593D01*
X015260Y025593D01*
X016235Y025593D01*
X016235Y021593D01*
X016632Y022117D02*
X016887Y022117D01*
X016904Y022118D01*
X016921Y022123D01*
X016936Y022130D01*
X016950Y022140D01*
X016962Y022152D01*
X016972Y022166D01*
X016979Y022181D01*
X016984Y022198D01*
X016985Y022215D01*
X016984Y022232D01*
X016979Y022249D01*
X016972Y022264D01*
X016962Y022278D01*
X016950Y022290D01*
X016936Y022300D01*
X016921Y022307D01*
X016904Y022312D01*
X016887Y022313D01*
X016887Y022314D02*
X016632Y022314D01*
X016534Y022215D02*
X016535Y022198D01*
X016540Y022181D01*
X016547Y022166D01*
X016557Y022152D01*
X016569Y022140D01*
X016583Y022130D01*
X016598Y022123D01*
X016615Y022118D01*
X016632Y022117D01*
X016534Y022215D02*
X016535Y022232D01*
X016540Y022249D01*
X016547Y022264D01*
X016557Y022278D01*
X016569Y022290D01*
X016583Y022300D01*
X016598Y022307D01*
X016615Y022312D01*
X016632Y022313D01*
X017714Y022550D02*
X017714Y022668D01*
X017823Y022776D02*
X017842Y022774D01*
X017860Y022769D01*
X017877Y022762D01*
X017892Y022751D01*
X017906Y022737D01*
X017917Y022722D01*
X017924Y022705D01*
X017929Y022687D01*
X017931Y022668D01*
X017931Y022550D01*
X017823Y022442D02*
X017804Y022444D01*
X017786Y022449D01*
X017769Y022456D01*
X017754Y022467D01*
X017740Y022481D01*
X017729Y022496D01*
X017722Y022513D01*
X017717Y022531D01*
X017715Y022550D01*
X017823Y022442D02*
X017842Y022444D01*
X017860Y022449D01*
X017877Y022456D01*
X017892Y022467D01*
X017906Y022481D01*
X017917Y022496D01*
X017924Y022513D01*
X017929Y022531D01*
X017931Y022550D01*
X017715Y022668D02*
X017717Y022687D01*
X017722Y022705D01*
X017729Y022722D01*
X017740Y022737D01*
X017754Y022751D01*
X017769Y022762D01*
X017786Y022769D01*
X017804Y022774D01*
X017823Y022776D01*
X017832Y024410D02*
X017823Y024410D01*
X017823Y024411D02*
X017804Y024413D01*
X017786Y024418D01*
X017769Y024425D01*
X017754Y024436D01*
X017740Y024450D01*
X017729Y024465D01*
X017722Y024482D01*
X017717Y024500D01*
X017715Y024519D01*
X017714Y024519D02*
X017714Y024637D01*
X017715Y024637D02*
X017717Y024656D01*
X017722Y024674D01*
X017729Y024691D01*
X017740Y024706D01*
X017754Y024720D01*
X017769Y024731D01*
X017786Y024738D01*
X017804Y024743D01*
X017823Y024745D01*
X017832Y024745D01*
X017851Y024743D01*
X017869Y024738D01*
X017886Y024731D01*
X017901Y024720D01*
X017915Y024706D01*
X017926Y024691D01*
X017933Y024674D01*
X017938Y024656D01*
X017940Y024637D01*
X017941Y024637D02*
X017941Y024519D01*
X017940Y024519D02*
X017938Y024500D01*
X017933Y024482D01*
X017926Y024465D01*
X017915Y024450D01*
X017901Y024436D01*
X017886Y024425D01*
X017869Y024418D01*
X017851Y024413D01*
X017832Y024411D01*
X016887Y024873D02*
X016632Y024873D01*
X016534Y024971D02*
X016535Y024988D01*
X016540Y025005D01*
X016547Y025020D01*
X016557Y025034D01*
X016569Y025046D01*
X016583Y025056D01*
X016598Y025063D01*
X016615Y025068D01*
X016632Y025069D01*
X016632Y025070D02*
X016887Y025070D01*
X016985Y024971D02*
X016984Y024954D01*
X016979Y024937D01*
X016972Y024922D01*
X016962Y024908D01*
X016950Y024896D01*
X016936Y024886D01*
X016921Y024879D01*
X016904Y024874D01*
X016887Y024873D01*
X016985Y024971D02*
X016984Y024988D01*
X016979Y025005D01*
X016972Y025020D01*
X016962Y025034D01*
X016950Y025046D01*
X016936Y025056D01*
X016921Y025063D01*
X016904Y025068D01*
X016887Y025069D01*
X016632Y024873D02*
X016615Y024874D01*
X016598Y024879D01*
X016583Y024886D01*
X016569Y024896D01*
X016557Y024908D01*
X016547Y024922D01*
X016540Y024937D01*
X016535Y024954D01*
X016534Y024971D01*
X020043Y025393D02*
X020043Y027393D01*
X021130Y027393D01*
X021130Y025393D01*
X020043Y025393D01*
X022827Y031728D02*
X024133Y031728D01*
X024159Y031730D01*
X024184Y031735D01*
X024208Y031743D01*
X024232Y031754D01*
X024253Y031769D01*
X024272Y031786D01*
X024289Y031805D01*
X024304Y031827D01*
X024315Y031850D01*
X024323Y031874D01*
X024328Y031899D01*
X024330Y031925D01*
X024328Y031951D01*
X024323Y031976D01*
X024315Y032000D01*
X024304Y032024D01*
X024289Y032045D01*
X024272Y032064D01*
X024253Y032081D01*
X024232Y032096D01*
X024208Y032107D01*
X024184Y032115D01*
X024159Y032120D01*
X024133Y032122D01*
X022827Y032122D01*
X022630Y031925D02*
X022632Y031899D01*
X022637Y031874D01*
X022645Y031850D01*
X022656Y031827D01*
X022671Y031805D01*
X022688Y031786D01*
X022707Y031769D01*
X022729Y031754D01*
X022752Y031743D01*
X022776Y031735D01*
X022801Y031730D01*
X022827Y031728D01*
X022630Y031925D02*
X022632Y031951D01*
X022637Y031976D01*
X022645Y032000D01*
X022656Y032024D01*
X022671Y032045D01*
X022688Y032064D01*
X022707Y032081D01*
X022729Y032096D01*
X022752Y032107D01*
X022776Y032115D01*
X022801Y032120D01*
X022827Y032122D01*
X025386Y032122D02*
X026692Y032122D01*
X026889Y031925D02*
X026887Y031899D01*
X026882Y031874D01*
X026874Y031850D01*
X026863Y031827D01*
X026848Y031805D01*
X026831Y031786D01*
X026812Y031769D01*
X026791Y031754D01*
X026767Y031743D01*
X026743Y031735D01*
X026718Y031730D01*
X026692Y031728D01*
X025386Y031728D01*
X025189Y031925D02*
X025191Y031951D01*
X025196Y031976D01*
X025204Y032000D01*
X025215Y032024D01*
X025230Y032045D01*
X025247Y032064D01*
X025266Y032081D01*
X025288Y032096D01*
X025311Y032107D01*
X025335Y032115D01*
X025360Y032120D01*
X025386Y032122D01*
X025189Y031925D02*
X025191Y031899D01*
X025196Y031874D01*
X025204Y031850D01*
X025215Y031827D01*
X025230Y031805D01*
X025247Y031786D01*
X025266Y031769D01*
X025288Y031754D01*
X025311Y031743D01*
X025335Y031735D01*
X025360Y031730D01*
X025386Y031728D01*
X026692Y032122D02*
X026718Y032120D01*
X026743Y032115D01*
X026767Y032107D01*
X026791Y032096D01*
X026812Y032081D01*
X026831Y032064D01*
X026848Y032045D01*
X026863Y032024D01*
X026874Y032000D01*
X026882Y031976D01*
X026887Y031951D01*
X026889Y031925D01*
X029630Y031925D02*
X029632Y031899D01*
X029637Y031874D01*
X029645Y031850D01*
X029656Y031827D01*
X029671Y031805D01*
X029688Y031786D01*
X029707Y031769D01*
X029729Y031754D01*
X029752Y031743D01*
X029776Y031735D01*
X029801Y031730D01*
X029827Y031728D01*
X031133Y031728D01*
X031159Y031730D01*
X031184Y031735D01*
X031208Y031743D01*
X031232Y031754D01*
X031253Y031769D01*
X031272Y031786D01*
X031289Y031805D01*
X031304Y031827D01*
X031315Y031850D01*
X031323Y031874D01*
X031328Y031899D01*
X031330Y031925D01*
X031328Y031951D01*
X031323Y031976D01*
X031315Y032000D01*
X031304Y032024D01*
X031289Y032045D01*
X031272Y032064D01*
X031253Y032081D01*
X031232Y032096D01*
X031208Y032107D01*
X031184Y032115D01*
X031159Y032120D01*
X031133Y032122D01*
X029827Y032122D01*
X029801Y032120D01*
X029776Y032115D01*
X029752Y032107D01*
X029729Y032096D01*
X029707Y032081D01*
X029688Y032064D01*
X029671Y032045D01*
X029656Y032024D01*
X029645Y032000D01*
X029637Y031976D01*
X029632Y031951D01*
X029630Y031925D01*
X032189Y031925D02*
X032191Y031951D01*
X032196Y031976D01*
X032204Y032000D01*
X032215Y032024D01*
X032230Y032045D01*
X032247Y032064D01*
X032266Y032081D01*
X032288Y032096D01*
X032311Y032107D01*
X032335Y032115D01*
X032360Y032120D01*
X032386Y032122D01*
X033692Y032122D01*
X033889Y031925D02*
X033887Y031899D01*
X033882Y031874D01*
X033874Y031850D01*
X033863Y031827D01*
X033848Y031805D01*
X033831Y031786D01*
X033812Y031769D01*
X033791Y031754D01*
X033767Y031743D01*
X033743Y031735D01*
X033718Y031730D01*
X033692Y031728D01*
X032386Y031728D01*
X032360Y031730D01*
X032335Y031735D01*
X032311Y031743D01*
X032288Y031754D01*
X032266Y031769D01*
X032247Y031786D01*
X032230Y031805D01*
X032215Y031827D01*
X032204Y031850D01*
X032196Y031874D01*
X032191Y031899D01*
X032189Y031925D01*
X033692Y032122D02*
X033718Y032120D01*
X033743Y032115D01*
X033767Y032107D01*
X033791Y032096D01*
X033812Y032081D01*
X033831Y032064D01*
X033848Y032045D01*
X033863Y032024D01*
X033874Y032000D01*
X033882Y031976D01*
X033887Y031951D01*
X033889Y031925D01*
X036630Y031925D02*
X036632Y031899D01*
X036637Y031874D01*
X036645Y031850D01*
X036656Y031827D01*
X036671Y031805D01*
X036688Y031786D01*
X036707Y031769D01*
X036729Y031754D01*
X036752Y031743D01*
X036776Y031735D01*
X036801Y031730D01*
X036827Y031728D01*
X038133Y031728D01*
X038159Y031730D01*
X038184Y031735D01*
X038208Y031743D01*
X038232Y031754D01*
X038253Y031769D01*
X038272Y031786D01*
X038289Y031805D01*
X038304Y031827D01*
X038315Y031850D01*
X038323Y031874D01*
X038328Y031899D01*
X038330Y031925D01*
X038328Y031951D01*
X038323Y031976D01*
X038315Y032000D01*
X038304Y032024D01*
X038289Y032045D01*
X038272Y032064D01*
X038253Y032081D01*
X038232Y032096D01*
X038208Y032107D01*
X038184Y032115D01*
X038159Y032120D01*
X038133Y032122D01*
X036827Y032122D01*
X036801Y032120D01*
X036776Y032115D01*
X036752Y032107D01*
X036729Y032096D01*
X036707Y032081D01*
X036688Y032064D01*
X036671Y032045D01*
X036656Y032024D01*
X036645Y032000D01*
X036637Y031976D01*
X036632Y031951D01*
X036630Y031925D01*
X039189Y031925D02*
X039191Y031951D01*
X039196Y031976D01*
X039204Y032000D01*
X039215Y032024D01*
X039230Y032045D01*
X039247Y032064D01*
X039266Y032081D01*
X039288Y032096D01*
X039311Y032107D01*
X039335Y032115D01*
X039360Y032120D01*
X039386Y032122D01*
X040692Y032122D01*
X040889Y031925D02*
X040887Y031899D01*
X040882Y031874D01*
X040874Y031850D01*
X040863Y031827D01*
X040848Y031805D01*
X040831Y031786D01*
X040812Y031769D01*
X040791Y031754D01*
X040767Y031743D01*
X040743Y031735D01*
X040718Y031730D01*
X040692Y031728D01*
X039386Y031728D01*
X039360Y031730D01*
X039335Y031735D01*
X039311Y031743D01*
X039288Y031754D01*
X039266Y031769D01*
X039247Y031786D01*
X039230Y031805D01*
X039215Y031827D01*
X039204Y031850D01*
X039196Y031874D01*
X039191Y031899D01*
X039189Y031925D01*
X040692Y032122D02*
X040718Y032120D01*
X040743Y032115D01*
X040767Y032107D01*
X040791Y032096D01*
X040812Y032081D01*
X040831Y032064D01*
X040848Y032045D01*
X040863Y032024D01*
X040874Y032000D01*
X040882Y031976D01*
X040887Y031951D01*
X040889Y031925D01*
X043630Y031925D02*
X043632Y031899D01*
X043637Y031874D01*
X043645Y031850D01*
X043656Y031827D01*
X043671Y031805D01*
X043688Y031786D01*
X043707Y031769D01*
X043729Y031754D01*
X043752Y031743D01*
X043776Y031735D01*
X043801Y031730D01*
X043827Y031728D01*
X045133Y031728D01*
X045159Y031730D01*
X045184Y031735D01*
X045208Y031743D01*
X045232Y031754D01*
X045253Y031769D01*
X045272Y031786D01*
X045289Y031805D01*
X045304Y031827D01*
X045315Y031850D01*
X045323Y031874D01*
X045328Y031899D01*
X045330Y031925D01*
X045328Y031951D01*
X045323Y031976D01*
X045315Y032000D01*
X045304Y032024D01*
X045289Y032045D01*
X045272Y032064D01*
X045253Y032081D01*
X045232Y032096D01*
X045208Y032107D01*
X045184Y032115D01*
X045159Y032120D01*
X045133Y032122D01*
X043827Y032122D01*
X043801Y032120D01*
X043776Y032115D01*
X043752Y032107D01*
X043729Y032096D01*
X043707Y032081D01*
X043688Y032064D01*
X043671Y032045D01*
X043656Y032024D01*
X043645Y032000D01*
X043637Y031976D01*
X043632Y031951D01*
X043630Y031925D01*
X046189Y031925D02*
X046191Y031951D01*
X046196Y031976D01*
X046204Y032000D01*
X046215Y032024D01*
X046230Y032045D01*
X046247Y032064D01*
X046266Y032081D01*
X046288Y032096D01*
X046311Y032107D01*
X046335Y032115D01*
X046360Y032120D01*
X046386Y032122D01*
X047692Y032122D01*
X047889Y031925D02*
X047887Y031899D01*
X047882Y031874D01*
X047874Y031850D01*
X047863Y031827D01*
X047848Y031805D01*
X047831Y031786D01*
X047812Y031769D01*
X047791Y031754D01*
X047767Y031743D01*
X047743Y031735D01*
X047718Y031730D01*
X047692Y031728D01*
X046386Y031728D01*
X046360Y031730D01*
X046335Y031735D01*
X046311Y031743D01*
X046288Y031754D01*
X046266Y031769D01*
X046247Y031786D01*
X046230Y031805D01*
X046215Y031827D01*
X046204Y031850D01*
X046196Y031874D01*
X046191Y031899D01*
X046189Y031925D01*
X047692Y032122D02*
X047718Y032120D01*
X047743Y032115D01*
X047767Y032107D01*
X047791Y032096D01*
X047812Y032081D01*
X047831Y032064D01*
X047848Y032045D01*
X047863Y032024D01*
X047874Y032000D01*
X047882Y031976D01*
X047887Y031951D01*
X047889Y031925D01*
X047692Y035665D02*
X046386Y035665D01*
X046189Y035862D02*
X046191Y035888D01*
X046196Y035913D01*
X046204Y035937D01*
X046215Y035961D01*
X046230Y035982D01*
X046247Y036001D01*
X046266Y036018D01*
X046288Y036033D01*
X046311Y036044D01*
X046335Y036052D01*
X046360Y036057D01*
X046386Y036059D01*
X047692Y036059D01*
X047718Y036057D01*
X047743Y036052D01*
X047767Y036044D01*
X047791Y036033D01*
X047812Y036018D01*
X047831Y036001D01*
X047848Y035982D01*
X047863Y035961D01*
X047874Y035937D01*
X047882Y035913D01*
X047887Y035888D01*
X047889Y035862D01*
X047887Y035836D01*
X047882Y035811D01*
X047874Y035787D01*
X047863Y035764D01*
X047848Y035742D01*
X047831Y035723D01*
X047812Y035706D01*
X047791Y035691D01*
X047767Y035680D01*
X047743Y035672D01*
X047718Y035667D01*
X047692Y035665D01*
X046386Y035665D02*
X046360Y035667D01*
X046335Y035672D01*
X046311Y035680D01*
X046288Y035691D01*
X046266Y035706D01*
X046247Y035723D01*
X046230Y035742D01*
X046215Y035764D01*
X046204Y035787D01*
X046196Y035811D01*
X046191Y035836D01*
X046189Y035862D01*
X045330Y035862D02*
X045328Y035836D01*
X045323Y035811D01*
X045315Y035787D01*
X045304Y035764D01*
X045289Y035742D01*
X045272Y035723D01*
X045253Y035706D01*
X045232Y035691D01*
X045208Y035680D01*
X045184Y035672D01*
X045159Y035667D01*
X045133Y035665D01*
X043827Y035665D01*
X043630Y035862D02*
X043632Y035888D01*
X043637Y035913D01*
X043645Y035937D01*
X043656Y035961D01*
X043671Y035982D01*
X043688Y036001D01*
X043707Y036018D01*
X043729Y036033D01*
X043752Y036044D01*
X043776Y036052D01*
X043801Y036057D01*
X043827Y036059D01*
X045133Y036059D01*
X045159Y036057D01*
X045184Y036052D01*
X045208Y036044D01*
X045232Y036033D01*
X045253Y036018D01*
X045272Y036001D01*
X045289Y035982D01*
X045304Y035961D01*
X045315Y035937D01*
X045323Y035913D01*
X045328Y035888D01*
X045330Y035862D01*
X043827Y035665D02*
X043801Y035667D01*
X043776Y035672D01*
X043752Y035680D01*
X043729Y035691D01*
X043707Y035706D01*
X043688Y035723D01*
X043671Y035742D01*
X043656Y035764D01*
X043645Y035787D01*
X043637Y035811D01*
X043632Y035836D01*
X043630Y035862D01*
X040889Y035862D02*
X040887Y035888D01*
X040882Y035913D01*
X040874Y035937D01*
X040863Y035961D01*
X040848Y035982D01*
X040831Y036001D01*
X040812Y036018D01*
X040791Y036033D01*
X040767Y036044D01*
X040743Y036052D01*
X040718Y036057D01*
X040692Y036059D01*
X039386Y036059D01*
X039360Y036057D01*
X039335Y036052D01*
X039311Y036044D01*
X039288Y036033D01*
X039266Y036018D01*
X039247Y036001D01*
X039230Y035982D01*
X039215Y035961D01*
X039204Y035937D01*
X039196Y035913D01*
X039191Y035888D01*
X039189Y035862D01*
X039191Y035836D01*
X039196Y035811D01*
X039204Y035787D01*
X039215Y035764D01*
X039230Y035742D01*
X039247Y035723D01*
X039266Y035706D01*
X039288Y035691D01*
X039311Y035680D01*
X039335Y035672D01*
X039360Y035667D01*
X039386Y035665D01*
X040692Y035665D01*
X040718Y035667D01*
X040743Y035672D01*
X040767Y035680D01*
X040791Y035691D01*
X040812Y035706D01*
X040831Y035723D01*
X040848Y035742D01*
X040863Y035764D01*
X040874Y035787D01*
X040882Y035811D01*
X040887Y035836D01*
X040889Y035862D01*
X038330Y035862D02*
X038328Y035836D01*
X038323Y035811D01*
X038315Y035787D01*
X038304Y035764D01*
X038289Y035742D01*
X038272Y035723D01*
X038253Y035706D01*
X038232Y035691D01*
X038208Y035680D01*
X038184Y035672D01*
X038159Y035667D01*
X038133Y035665D01*
X036827Y035665D01*
X036630Y035862D02*
X036632Y035888D01*
X036637Y035913D01*
X036645Y035937D01*
X036656Y035961D01*
X036671Y035982D01*
X036688Y036001D01*
X036707Y036018D01*
X036729Y036033D01*
X036752Y036044D01*
X036776Y036052D01*
X036801Y036057D01*
X036827Y036059D01*
X038133Y036059D01*
X038159Y036057D01*
X038184Y036052D01*
X038208Y036044D01*
X038232Y036033D01*
X038253Y036018D01*
X038272Y036001D01*
X038289Y035982D01*
X038304Y035961D01*
X038315Y035937D01*
X038323Y035913D01*
X038328Y035888D01*
X038330Y035862D01*
X036827Y035665D02*
X036801Y035667D01*
X036776Y035672D01*
X036752Y035680D01*
X036729Y035691D01*
X036707Y035706D01*
X036688Y035723D01*
X036671Y035742D01*
X036656Y035764D01*
X036645Y035787D01*
X036637Y035811D01*
X036632Y035836D01*
X036630Y035862D01*
X033889Y035862D02*
X033887Y035888D01*
X033882Y035913D01*
X033874Y035937D01*
X033863Y035961D01*
X033848Y035982D01*
X033831Y036001D01*
X033812Y036018D01*
X033791Y036033D01*
X033767Y036044D01*
X033743Y036052D01*
X033718Y036057D01*
X033692Y036059D01*
X032386Y036059D01*
X032360Y036057D01*
X032335Y036052D01*
X032311Y036044D01*
X032288Y036033D01*
X032266Y036018D01*
X032247Y036001D01*
X032230Y035982D01*
X032215Y035961D01*
X032204Y035937D01*
X032196Y035913D01*
X032191Y035888D01*
X032189Y035862D01*
X032191Y035836D01*
X032196Y035811D01*
X032204Y035787D01*
X032215Y035764D01*
X032230Y035742D01*
X032247Y035723D01*
X032266Y035706D01*
X032288Y035691D01*
X032311Y035680D01*
X032335Y035672D01*
X032360Y035667D01*
X032386Y035665D01*
X033692Y035665D01*
X033718Y035667D01*
X033743Y035672D01*
X033767Y035680D01*
X033791Y035691D01*
X033812Y035706D01*
X033831Y035723D01*
X033848Y035742D01*
X033863Y035764D01*
X033874Y035787D01*
X033882Y035811D01*
X033887Y035836D01*
X033889Y035862D01*
X031330Y035862D02*
X031328Y035836D01*
X031323Y035811D01*
X031315Y035787D01*
X031304Y035764D01*
X031289Y035742D01*
X031272Y035723D01*
X031253Y035706D01*
X031232Y035691D01*
X031208Y035680D01*
X031184Y035672D01*
X031159Y035667D01*
X031133Y035665D01*
X029827Y035665D01*
X029630Y035862D02*
X029632Y035888D01*
X029637Y035913D01*
X029645Y035937D01*
X029656Y035961D01*
X029671Y035982D01*
X029688Y036001D01*
X029707Y036018D01*
X029729Y036033D01*
X029752Y036044D01*
X029776Y036052D01*
X029801Y036057D01*
X029827Y036059D01*
X031133Y036059D01*
X031159Y036057D01*
X031184Y036052D01*
X031208Y036044D01*
X031232Y036033D01*
X031253Y036018D01*
X031272Y036001D01*
X031289Y035982D01*
X031304Y035961D01*
X031315Y035937D01*
X031323Y035913D01*
X031328Y035888D01*
X031330Y035862D01*
X029827Y035665D02*
X029801Y035667D01*
X029776Y035672D01*
X029752Y035680D01*
X029729Y035691D01*
X029707Y035706D01*
X029688Y035723D01*
X029671Y035742D01*
X029656Y035764D01*
X029645Y035787D01*
X029637Y035811D01*
X029632Y035836D01*
X029630Y035862D01*
X026889Y035862D02*
X026887Y035888D01*
X026882Y035913D01*
X026874Y035937D01*
X026863Y035961D01*
X026848Y035982D01*
X026831Y036001D01*
X026812Y036018D01*
X026791Y036033D01*
X026767Y036044D01*
X026743Y036052D01*
X026718Y036057D01*
X026692Y036059D01*
X025386Y036059D01*
X025360Y036057D01*
X025335Y036052D01*
X025311Y036044D01*
X025288Y036033D01*
X025266Y036018D01*
X025247Y036001D01*
X025230Y035982D01*
X025215Y035961D01*
X025204Y035937D01*
X025196Y035913D01*
X025191Y035888D01*
X025189Y035862D01*
X025191Y035836D01*
X025196Y035811D01*
X025204Y035787D01*
X025215Y035764D01*
X025230Y035742D01*
X025247Y035723D01*
X025266Y035706D01*
X025288Y035691D01*
X025311Y035680D01*
X025335Y035672D01*
X025360Y035667D01*
X025386Y035665D01*
X026692Y035665D01*
X026718Y035667D01*
X026743Y035672D01*
X026767Y035680D01*
X026791Y035691D01*
X026812Y035706D01*
X026831Y035723D01*
X026848Y035742D01*
X026863Y035764D01*
X026874Y035787D01*
X026882Y035811D01*
X026887Y035836D01*
X026889Y035862D01*
X024330Y035862D02*
X024328Y035836D01*
X024323Y035811D01*
X024315Y035787D01*
X024304Y035764D01*
X024289Y035742D01*
X024272Y035723D01*
X024253Y035706D01*
X024232Y035691D01*
X024208Y035680D01*
X024184Y035672D01*
X024159Y035667D01*
X024133Y035665D01*
X022827Y035665D01*
X022630Y035862D02*
X022632Y035888D01*
X022637Y035913D01*
X022645Y035937D01*
X022656Y035961D01*
X022671Y035982D01*
X022688Y036001D01*
X022707Y036018D01*
X022729Y036033D01*
X022752Y036044D01*
X022776Y036052D01*
X022801Y036057D01*
X022827Y036059D01*
X024133Y036059D01*
X024159Y036057D01*
X024184Y036052D01*
X024208Y036044D01*
X024232Y036033D01*
X024253Y036018D01*
X024272Y036001D01*
X024289Y035982D01*
X024304Y035961D01*
X024315Y035937D01*
X024323Y035913D01*
X024328Y035888D01*
X024330Y035862D01*
X022827Y035665D02*
X022801Y035667D01*
X022776Y035672D01*
X022752Y035680D01*
X022729Y035691D01*
X022707Y035706D01*
X022688Y035723D01*
X022671Y035742D01*
X022656Y035764D01*
X022645Y035787D01*
X022637Y035811D01*
X022632Y035836D01*
X022630Y035862D01*
X049389Y027393D02*
X049389Y025393D01*
X050476Y025393D01*
X050476Y027393D01*
X049389Y027393D01*
D11*
X048760Y029143D02*
X048760Y032393D01*
X048760Y029143D02*
X038510Y029143D01*
X038510Y027843D01*
X032010Y027843D02*
X032010Y029143D01*
X021760Y029143D01*
X021760Y032393D01*
D12*
X021086Y033775D02*
X021088Y033814D01*
X021094Y033853D01*
X021104Y033891D01*
X021117Y033928D01*
X021134Y033963D01*
X021154Y033997D01*
X021178Y034028D01*
X021205Y034057D01*
X021234Y034083D01*
X021266Y034106D01*
X021300Y034126D01*
X021336Y034142D01*
X021373Y034154D01*
X021412Y034163D01*
X021451Y034168D01*
X021490Y034169D01*
X021529Y034166D01*
X021568Y034159D01*
X021605Y034148D01*
X021642Y034134D01*
X021677Y034116D01*
X021710Y034095D01*
X021741Y034070D01*
X021769Y034043D01*
X021794Y034013D01*
X021816Y033980D01*
X021835Y033946D01*
X021850Y033910D01*
X021862Y033872D01*
X021870Y033834D01*
X021874Y033795D01*
X021874Y033755D01*
X021870Y033716D01*
X021862Y033678D01*
X021850Y033640D01*
X021835Y033604D01*
X021816Y033570D01*
X021794Y033537D01*
X021769Y033507D01*
X021741Y033480D01*
X021710Y033455D01*
X021677Y033434D01*
X021642Y033416D01*
X021605Y033402D01*
X021568Y033391D01*
X021529Y033384D01*
X021490Y033381D01*
X021451Y033382D01*
X021412Y033387D01*
X021373Y033396D01*
X021336Y033408D01*
X021300Y033424D01*
X021266Y033444D01*
X021234Y033467D01*
X021205Y033493D01*
X021178Y033522D01*
X021154Y033553D01*
X021134Y033587D01*
X021117Y033622D01*
X021104Y033659D01*
X021094Y033697D01*
X021088Y033736D01*
X021086Y033775D01*
X016874Y034893D02*
X016876Y034952D01*
X016882Y035011D01*
X016892Y035069D01*
X016905Y035127D01*
X016923Y035184D01*
X016944Y035239D01*
X016969Y035293D01*
X016998Y035345D01*
X017030Y035394D01*
X017065Y035442D01*
X017103Y035487D01*
X017144Y035530D01*
X017188Y035570D01*
X017234Y035606D01*
X017283Y035640D01*
X017334Y035670D01*
X017387Y035697D01*
X017442Y035720D01*
X017497Y035739D01*
X017555Y035755D01*
X017613Y035767D01*
X017671Y035775D01*
X017730Y035779D01*
X017790Y035779D01*
X017849Y035775D01*
X017907Y035767D01*
X017965Y035755D01*
X018023Y035739D01*
X018078Y035720D01*
X018133Y035697D01*
X018186Y035670D01*
X018237Y035640D01*
X018286Y035606D01*
X018332Y035570D01*
X018376Y035530D01*
X018417Y035487D01*
X018455Y035442D01*
X018490Y035394D01*
X018522Y035345D01*
X018551Y035293D01*
X018576Y035239D01*
X018597Y035184D01*
X018615Y035127D01*
X018628Y035069D01*
X018638Y035011D01*
X018644Y034952D01*
X018646Y034893D01*
X018644Y034834D01*
X018638Y034775D01*
X018628Y034717D01*
X018615Y034659D01*
X018597Y034602D01*
X018576Y034547D01*
X018551Y034493D01*
X018522Y034441D01*
X018490Y034392D01*
X018455Y034344D01*
X018417Y034299D01*
X018376Y034256D01*
X018332Y034216D01*
X018286Y034180D01*
X018237Y034146D01*
X018186Y034116D01*
X018133Y034089D01*
X018078Y034066D01*
X018023Y034047D01*
X017965Y034031D01*
X017907Y034019D01*
X017849Y034011D01*
X017790Y034007D01*
X017730Y034007D01*
X017671Y034011D01*
X017613Y034019D01*
X017555Y034031D01*
X017497Y034047D01*
X017442Y034066D01*
X017387Y034089D01*
X017334Y034116D01*
X017283Y034146D01*
X017234Y034180D01*
X017188Y034216D01*
X017144Y034256D01*
X017103Y034299D01*
X017065Y034344D01*
X017030Y034392D01*
X016998Y034441D01*
X016969Y034493D01*
X016944Y034547D01*
X016923Y034602D01*
X016905Y034659D01*
X016892Y034717D01*
X016882Y034775D01*
X016876Y034834D01*
X016874Y034893D01*
X021086Y019011D02*
X021088Y019050D01*
X021094Y019089D01*
X021104Y019127D01*
X021117Y019164D01*
X021134Y019199D01*
X021154Y019233D01*
X021178Y019264D01*
X021205Y019293D01*
X021234Y019319D01*
X021266Y019342D01*
X021300Y019362D01*
X021336Y019378D01*
X021373Y019390D01*
X021412Y019399D01*
X021451Y019404D01*
X021490Y019405D01*
X021529Y019402D01*
X021568Y019395D01*
X021605Y019384D01*
X021642Y019370D01*
X021677Y019352D01*
X021710Y019331D01*
X021741Y019306D01*
X021769Y019279D01*
X021794Y019249D01*
X021816Y019216D01*
X021835Y019182D01*
X021850Y019146D01*
X021862Y019108D01*
X021870Y019070D01*
X021874Y019031D01*
X021874Y018991D01*
X021870Y018952D01*
X021862Y018914D01*
X021850Y018876D01*
X021835Y018840D01*
X021816Y018806D01*
X021794Y018773D01*
X021769Y018743D01*
X021741Y018716D01*
X021710Y018691D01*
X021677Y018670D01*
X021642Y018652D01*
X021605Y018638D01*
X021568Y018627D01*
X021529Y018620D01*
X021490Y018617D01*
X021451Y018618D01*
X021412Y018623D01*
X021373Y018632D01*
X021336Y018644D01*
X021300Y018660D01*
X021266Y018680D01*
X021234Y018703D01*
X021205Y018729D01*
X021178Y018758D01*
X021154Y018789D01*
X021134Y018823D01*
X021117Y018858D01*
X021104Y018895D01*
X021094Y018933D01*
X021088Y018972D01*
X021086Y019011D01*
X016874Y017893D02*
X016876Y017952D01*
X016882Y018011D01*
X016892Y018069D01*
X016905Y018127D01*
X016923Y018184D01*
X016944Y018239D01*
X016969Y018293D01*
X016998Y018345D01*
X017030Y018394D01*
X017065Y018442D01*
X017103Y018487D01*
X017144Y018530D01*
X017188Y018570D01*
X017234Y018606D01*
X017283Y018640D01*
X017334Y018670D01*
X017387Y018697D01*
X017442Y018720D01*
X017497Y018739D01*
X017555Y018755D01*
X017613Y018767D01*
X017671Y018775D01*
X017730Y018779D01*
X017790Y018779D01*
X017849Y018775D01*
X017907Y018767D01*
X017965Y018755D01*
X018023Y018739D01*
X018078Y018720D01*
X018133Y018697D01*
X018186Y018670D01*
X018237Y018640D01*
X018286Y018606D01*
X018332Y018570D01*
X018376Y018530D01*
X018417Y018487D01*
X018455Y018442D01*
X018490Y018394D01*
X018522Y018345D01*
X018551Y018293D01*
X018576Y018239D01*
X018597Y018184D01*
X018615Y018127D01*
X018628Y018069D01*
X018638Y018011D01*
X018644Y017952D01*
X018646Y017893D01*
X018644Y017834D01*
X018638Y017775D01*
X018628Y017717D01*
X018615Y017659D01*
X018597Y017602D01*
X018576Y017547D01*
X018551Y017493D01*
X018522Y017441D01*
X018490Y017392D01*
X018455Y017344D01*
X018417Y017299D01*
X018376Y017256D01*
X018332Y017216D01*
X018286Y017180D01*
X018237Y017146D01*
X018186Y017116D01*
X018133Y017089D01*
X018078Y017066D01*
X018023Y017047D01*
X017965Y017031D01*
X017907Y017019D01*
X017849Y017011D01*
X017790Y017007D01*
X017730Y017007D01*
X017671Y017011D01*
X017613Y017019D01*
X017555Y017031D01*
X017497Y017047D01*
X017442Y017066D01*
X017387Y017089D01*
X017334Y017116D01*
X017283Y017146D01*
X017234Y017180D01*
X017188Y017216D01*
X017144Y017256D01*
X017103Y017299D01*
X017065Y017344D01*
X017030Y017392D01*
X016998Y017441D01*
X016969Y017493D01*
X016944Y017547D01*
X016923Y017602D01*
X016905Y017659D01*
X016892Y017717D01*
X016882Y017775D01*
X016876Y017834D01*
X016874Y017893D01*
X042911Y017435D02*
X042913Y017461D01*
X042919Y017487D01*
X042928Y017511D01*
X042941Y017534D01*
X042958Y017554D01*
X042977Y017572D01*
X042999Y017587D01*
X043022Y017598D01*
X043047Y017606D01*
X043073Y017610D01*
X043099Y017610D01*
X043125Y017606D01*
X043150Y017598D01*
X043174Y017587D01*
X043195Y017572D01*
X043214Y017554D01*
X043231Y017534D01*
X043244Y017511D01*
X043253Y017487D01*
X043259Y017461D01*
X043261Y017435D01*
X043259Y017409D01*
X043253Y017383D01*
X043244Y017359D01*
X043231Y017336D01*
X043214Y017316D01*
X043195Y017298D01*
X043173Y017283D01*
X043150Y017272D01*
X043125Y017264D01*
X043099Y017260D01*
X043073Y017260D01*
X043047Y017264D01*
X043022Y017272D01*
X042998Y017283D01*
X042977Y017298D01*
X042958Y017316D01*
X042941Y017336D01*
X042928Y017359D01*
X042919Y017383D01*
X042913Y017409D01*
X042911Y017435D01*
X046060Y017435D02*
X046062Y017461D01*
X046068Y017487D01*
X046077Y017511D01*
X046090Y017534D01*
X046107Y017554D01*
X046126Y017572D01*
X046148Y017587D01*
X046171Y017598D01*
X046196Y017606D01*
X046222Y017610D01*
X046248Y017610D01*
X046274Y017606D01*
X046299Y017598D01*
X046323Y017587D01*
X046344Y017572D01*
X046363Y017554D01*
X046380Y017534D01*
X046393Y017511D01*
X046402Y017487D01*
X046408Y017461D01*
X046410Y017435D01*
X046408Y017409D01*
X046402Y017383D01*
X046393Y017359D01*
X046380Y017336D01*
X046363Y017316D01*
X046344Y017298D01*
X046322Y017283D01*
X046299Y017272D01*
X046274Y017264D01*
X046248Y017260D01*
X046222Y017260D01*
X046196Y017264D01*
X046171Y017272D01*
X046147Y017283D01*
X046126Y017298D01*
X046107Y017316D01*
X046090Y017336D01*
X046077Y017359D01*
X046068Y017383D01*
X046062Y017409D01*
X046060Y017435D01*
X048645Y019011D02*
X048647Y019050D01*
X048653Y019089D01*
X048663Y019127D01*
X048676Y019164D01*
X048693Y019199D01*
X048713Y019233D01*
X048737Y019264D01*
X048764Y019293D01*
X048793Y019319D01*
X048825Y019342D01*
X048859Y019362D01*
X048895Y019378D01*
X048932Y019390D01*
X048971Y019399D01*
X049010Y019404D01*
X049049Y019405D01*
X049088Y019402D01*
X049127Y019395D01*
X049164Y019384D01*
X049201Y019370D01*
X049236Y019352D01*
X049269Y019331D01*
X049300Y019306D01*
X049328Y019279D01*
X049353Y019249D01*
X049375Y019216D01*
X049394Y019182D01*
X049409Y019146D01*
X049421Y019108D01*
X049429Y019070D01*
X049433Y019031D01*
X049433Y018991D01*
X049429Y018952D01*
X049421Y018914D01*
X049409Y018876D01*
X049394Y018840D01*
X049375Y018806D01*
X049353Y018773D01*
X049328Y018743D01*
X049300Y018716D01*
X049269Y018691D01*
X049236Y018670D01*
X049201Y018652D01*
X049164Y018638D01*
X049127Y018627D01*
X049088Y018620D01*
X049049Y018617D01*
X049010Y018618D01*
X048971Y018623D01*
X048932Y018632D01*
X048895Y018644D01*
X048859Y018660D01*
X048825Y018680D01*
X048793Y018703D01*
X048764Y018729D01*
X048737Y018758D01*
X048713Y018789D01*
X048693Y018823D01*
X048676Y018858D01*
X048663Y018895D01*
X048653Y018933D01*
X048647Y018972D01*
X048645Y019011D01*
X051874Y017893D02*
X051876Y017952D01*
X051882Y018011D01*
X051892Y018069D01*
X051905Y018127D01*
X051923Y018184D01*
X051944Y018239D01*
X051969Y018293D01*
X051998Y018345D01*
X052030Y018394D01*
X052065Y018442D01*
X052103Y018487D01*
X052144Y018530D01*
X052188Y018570D01*
X052234Y018606D01*
X052283Y018640D01*
X052334Y018670D01*
X052387Y018697D01*
X052442Y018720D01*
X052497Y018739D01*
X052555Y018755D01*
X052613Y018767D01*
X052671Y018775D01*
X052730Y018779D01*
X052790Y018779D01*
X052849Y018775D01*
X052907Y018767D01*
X052965Y018755D01*
X053023Y018739D01*
X053078Y018720D01*
X053133Y018697D01*
X053186Y018670D01*
X053237Y018640D01*
X053286Y018606D01*
X053332Y018570D01*
X053376Y018530D01*
X053417Y018487D01*
X053455Y018442D01*
X053490Y018394D01*
X053522Y018345D01*
X053551Y018293D01*
X053576Y018239D01*
X053597Y018184D01*
X053615Y018127D01*
X053628Y018069D01*
X053638Y018011D01*
X053644Y017952D01*
X053646Y017893D01*
X053644Y017834D01*
X053638Y017775D01*
X053628Y017717D01*
X053615Y017659D01*
X053597Y017602D01*
X053576Y017547D01*
X053551Y017493D01*
X053522Y017441D01*
X053490Y017392D01*
X053455Y017344D01*
X053417Y017299D01*
X053376Y017256D01*
X053332Y017216D01*
X053286Y017180D01*
X053237Y017146D01*
X053186Y017116D01*
X053133Y017089D01*
X053078Y017066D01*
X053023Y017047D01*
X052965Y017031D01*
X052907Y017019D01*
X052849Y017011D01*
X052790Y017007D01*
X052730Y017007D01*
X052671Y017011D01*
X052613Y017019D01*
X052555Y017031D01*
X052497Y017047D01*
X052442Y017066D01*
X052387Y017089D01*
X052334Y017116D01*
X052283Y017146D01*
X052234Y017180D01*
X052188Y017216D01*
X052144Y017256D01*
X052103Y017299D01*
X052065Y017344D01*
X052030Y017392D01*
X051998Y017441D01*
X051969Y017493D01*
X051944Y017547D01*
X051923Y017602D01*
X051905Y017659D01*
X051892Y017717D01*
X051882Y017775D01*
X051876Y017834D01*
X051874Y017893D01*
X048645Y033775D02*
X048647Y033814D01*
X048653Y033853D01*
X048663Y033891D01*
X048676Y033928D01*
X048693Y033963D01*
X048713Y033997D01*
X048737Y034028D01*
X048764Y034057D01*
X048793Y034083D01*
X048825Y034106D01*
X048859Y034126D01*
X048895Y034142D01*
X048932Y034154D01*
X048971Y034163D01*
X049010Y034168D01*
X049049Y034169D01*
X049088Y034166D01*
X049127Y034159D01*
X049164Y034148D01*
X049201Y034134D01*
X049236Y034116D01*
X049269Y034095D01*
X049300Y034070D01*
X049328Y034043D01*
X049353Y034013D01*
X049375Y033980D01*
X049394Y033946D01*
X049409Y033910D01*
X049421Y033872D01*
X049429Y033834D01*
X049433Y033795D01*
X049433Y033755D01*
X049429Y033716D01*
X049421Y033678D01*
X049409Y033640D01*
X049394Y033604D01*
X049375Y033570D01*
X049353Y033537D01*
X049328Y033507D01*
X049300Y033480D01*
X049269Y033455D01*
X049236Y033434D01*
X049201Y033416D01*
X049164Y033402D01*
X049127Y033391D01*
X049088Y033384D01*
X049049Y033381D01*
X049010Y033382D01*
X048971Y033387D01*
X048932Y033396D01*
X048895Y033408D01*
X048859Y033424D01*
X048825Y033444D01*
X048793Y033467D01*
X048764Y033493D01*
X048737Y033522D01*
X048713Y033553D01*
X048693Y033587D01*
X048676Y033622D01*
X048663Y033659D01*
X048653Y033697D01*
X048647Y033736D01*
X048645Y033775D01*
X051874Y034893D02*
X051876Y034952D01*
X051882Y035011D01*
X051892Y035069D01*
X051905Y035127D01*
X051923Y035184D01*
X051944Y035239D01*
X051969Y035293D01*
X051998Y035345D01*
X052030Y035394D01*
X052065Y035442D01*
X052103Y035487D01*
X052144Y035530D01*
X052188Y035570D01*
X052234Y035606D01*
X052283Y035640D01*
X052334Y035670D01*
X052387Y035697D01*
X052442Y035720D01*
X052497Y035739D01*
X052555Y035755D01*
X052613Y035767D01*
X052671Y035775D01*
X052730Y035779D01*
X052790Y035779D01*
X052849Y035775D01*
X052907Y035767D01*
X052965Y035755D01*
X053023Y035739D01*
X053078Y035720D01*
X053133Y035697D01*
X053186Y035670D01*
X053237Y035640D01*
X053286Y035606D01*
X053332Y035570D01*
X053376Y035530D01*
X053417Y035487D01*
X053455Y035442D01*
X053490Y035394D01*
X053522Y035345D01*
X053551Y035293D01*
X053576Y035239D01*
X053597Y035184D01*
X053615Y035127D01*
X053628Y035069D01*
X053638Y035011D01*
X053644Y034952D01*
X053646Y034893D01*
X053644Y034834D01*
X053638Y034775D01*
X053628Y034717D01*
X053615Y034659D01*
X053597Y034602D01*
X053576Y034547D01*
X053551Y034493D01*
X053522Y034441D01*
X053490Y034392D01*
X053455Y034344D01*
X053417Y034299D01*
X053376Y034256D01*
X053332Y034216D01*
X053286Y034180D01*
X053237Y034146D01*
X053186Y034116D01*
X053133Y034089D01*
X053078Y034066D01*
X053023Y034047D01*
X052965Y034031D01*
X052907Y034019D01*
X052849Y034011D01*
X052790Y034007D01*
X052730Y034007D01*
X052671Y034011D01*
X052613Y034019D01*
X052555Y034031D01*
X052497Y034047D01*
X052442Y034066D01*
X052387Y034089D01*
X052334Y034116D01*
X052283Y034146D01*
X052234Y034180D01*
X052188Y034216D01*
X052144Y034256D01*
X052103Y034299D01*
X052065Y034344D01*
X052030Y034392D01*
X051998Y034441D01*
X051969Y034493D01*
X051944Y034547D01*
X051923Y034602D01*
X051905Y034659D01*
X051892Y034717D01*
X051882Y034775D01*
X051876Y034834D01*
X051874Y034893D01*
M02*
