G75*
%MOIN*%
%OFA0B0*%
%FSLAX24Y24*%
%IPPOS*%
%LPD*%
%AMOC8*
5,1,8,0,0,1.08239X$1,22.5*
%
%ADD10C,0.0050*%
%ADD11C,0.0000*%
%ADD12R,0.1260X0.0500*%
%ADD13R,0.0472X0.0591*%
%ADD14R,0.0591X0.0591*%
D10*
X017760Y016393D02*
X052760Y016393D01*
X052836Y016395D01*
X052912Y016401D01*
X052987Y016410D01*
X053062Y016424D01*
X053136Y016441D01*
X053209Y016462D01*
X053281Y016486D01*
X053352Y016515D01*
X053421Y016546D01*
X053488Y016581D01*
X053553Y016620D01*
X053617Y016662D01*
X053678Y016707D01*
X053737Y016755D01*
X053793Y016806D01*
X053847Y016860D01*
X053898Y016916D01*
X053946Y016975D01*
X053991Y017036D01*
X054033Y017100D01*
X054072Y017165D01*
X054107Y017232D01*
X054138Y017301D01*
X054167Y017372D01*
X054191Y017444D01*
X054212Y017517D01*
X054229Y017591D01*
X054243Y017666D01*
X054252Y017741D01*
X054258Y017817D01*
X054260Y017893D01*
X054260Y034893D01*
X054258Y034969D01*
X054252Y035045D01*
X054243Y035120D01*
X054229Y035195D01*
X054212Y035269D01*
X054191Y035342D01*
X054167Y035414D01*
X054138Y035485D01*
X054107Y035554D01*
X054072Y035621D01*
X054033Y035686D01*
X053991Y035750D01*
X053946Y035811D01*
X053898Y035870D01*
X053847Y035926D01*
X053793Y035980D01*
X053737Y036031D01*
X053678Y036079D01*
X053617Y036124D01*
X053553Y036166D01*
X053488Y036205D01*
X053421Y036240D01*
X053352Y036271D01*
X053281Y036300D01*
X053209Y036324D01*
X053136Y036345D01*
X053062Y036362D01*
X052987Y036376D01*
X052912Y036385D01*
X052836Y036391D01*
X052760Y036393D01*
X017760Y036393D01*
X017684Y036391D01*
X017608Y036385D01*
X017533Y036376D01*
X017458Y036362D01*
X017384Y036345D01*
X017311Y036324D01*
X017239Y036300D01*
X017168Y036271D01*
X017099Y036240D01*
X017032Y036205D01*
X016967Y036166D01*
X016903Y036124D01*
X016842Y036079D01*
X016783Y036031D01*
X016727Y035980D01*
X016673Y035926D01*
X016622Y035870D01*
X016574Y035811D01*
X016529Y035750D01*
X016487Y035686D01*
X016448Y035621D01*
X016413Y035554D01*
X016382Y035485D01*
X016353Y035414D01*
X016329Y035342D01*
X016308Y035269D01*
X016291Y035195D01*
X016277Y035120D01*
X016268Y035045D01*
X016262Y034969D01*
X016260Y034893D01*
X016260Y017893D01*
X016262Y017817D01*
X016268Y017741D01*
X016277Y017666D01*
X016291Y017591D01*
X016308Y017517D01*
X016329Y017444D01*
X016353Y017372D01*
X016382Y017301D01*
X016413Y017232D01*
X016448Y017165D01*
X016487Y017100D01*
X016529Y017036D01*
X016574Y016975D01*
X016622Y016916D01*
X016673Y016860D01*
X016727Y016806D01*
X016783Y016755D01*
X016842Y016707D01*
X016903Y016662D01*
X016967Y016620D01*
X017032Y016581D01*
X017099Y016546D01*
X017168Y016515D01*
X017239Y016486D01*
X017311Y016462D01*
X017384Y016441D01*
X017458Y016424D01*
X017533Y016410D01*
X017608Y016401D01*
X017684Y016395D01*
X017760Y016393D01*
D11*
X016874Y017893D02*
X016876Y017952D01*
X016882Y018011D01*
X016892Y018069D01*
X016905Y018127D01*
X016923Y018184D01*
X016944Y018239D01*
X016969Y018293D01*
X016998Y018345D01*
X017030Y018394D01*
X017065Y018442D01*
X017103Y018487D01*
X017144Y018530D01*
X017188Y018570D01*
X017234Y018606D01*
X017283Y018640D01*
X017334Y018670D01*
X017387Y018697D01*
X017442Y018720D01*
X017497Y018739D01*
X017555Y018755D01*
X017613Y018767D01*
X017671Y018775D01*
X017730Y018779D01*
X017790Y018779D01*
X017849Y018775D01*
X017907Y018767D01*
X017965Y018755D01*
X018023Y018739D01*
X018078Y018720D01*
X018133Y018697D01*
X018186Y018670D01*
X018237Y018640D01*
X018286Y018606D01*
X018332Y018570D01*
X018376Y018530D01*
X018417Y018487D01*
X018455Y018442D01*
X018490Y018394D01*
X018522Y018345D01*
X018551Y018293D01*
X018576Y018239D01*
X018597Y018184D01*
X018615Y018127D01*
X018628Y018069D01*
X018638Y018011D01*
X018644Y017952D01*
X018646Y017893D01*
X018644Y017834D01*
X018638Y017775D01*
X018628Y017717D01*
X018615Y017659D01*
X018597Y017602D01*
X018576Y017547D01*
X018551Y017493D01*
X018522Y017441D01*
X018490Y017392D01*
X018455Y017344D01*
X018417Y017299D01*
X018376Y017256D01*
X018332Y017216D01*
X018286Y017180D01*
X018237Y017146D01*
X018186Y017116D01*
X018133Y017089D01*
X018078Y017066D01*
X018023Y017047D01*
X017965Y017031D01*
X017907Y017019D01*
X017849Y017011D01*
X017790Y017007D01*
X017730Y017007D01*
X017671Y017011D01*
X017613Y017019D01*
X017555Y017031D01*
X017497Y017047D01*
X017442Y017066D01*
X017387Y017089D01*
X017334Y017116D01*
X017283Y017146D01*
X017234Y017180D01*
X017188Y017216D01*
X017144Y017256D01*
X017103Y017299D01*
X017065Y017344D01*
X017030Y017392D01*
X016998Y017441D01*
X016969Y017493D01*
X016944Y017547D01*
X016923Y017602D01*
X016905Y017659D01*
X016892Y017717D01*
X016882Y017775D01*
X016876Y017834D01*
X016874Y017893D01*
X021086Y019011D02*
X021088Y019050D01*
X021094Y019089D01*
X021104Y019127D01*
X021117Y019164D01*
X021134Y019199D01*
X021154Y019233D01*
X021178Y019264D01*
X021205Y019293D01*
X021234Y019319D01*
X021266Y019342D01*
X021300Y019362D01*
X021336Y019378D01*
X021373Y019390D01*
X021412Y019399D01*
X021451Y019404D01*
X021490Y019405D01*
X021529Y019402D01*
X021568Y019395D01*
X021605Y019384D01*
X021642Y019370D01*
X021677Y019352D01*
X021710Y019331D01*
X021741Y019306D01*
X021769Y019279D01*
X021794Y019249D01*
X021816Y019216D01*
X021835Y019182D01*
X021850Y019146D01*
X021862Y019108D01*
X021870Y019070D01*
X021874Y019031D01*
X021874Y018991D01*
X021870Y018952D01*
X021862Y018914D01*
X021850Y018876D01*
X021835Y018840D01*
X021816Y018806D01*
X021794Y018773D01*
X021769Y018743D01*
X021741Y018716D01*
X021710Y018691D01*
X021677Y018670D01*
X021642Y018652D01*
X021605Y018638D01*
X021568Y018627D01*
X021529Y018620D01*
X021490Y018617D01*
X021451Y018618D01*
X021412Y018623D01*
X021373Y018632D01*
X021336Y018644D01*
X021300Y018660D01*
X021266Y018680D01*
X021234Y018703D01*
X021205Y018729D01*
X021178Y018758D01*
X021154Y018789D01*
X021134Y018823D01*
X021117Y018858D01*
X021104Y018895D01*
X021094Y018933D01*
X021088Y018972D01*
X021086Y019011D01*
X021086Y033775D02*
X021088Y033814D01*
X021094Y033853D01*
X021104Y033891D01*
X021117Y033928D01*
X021134Y033963D01*
X021154Y033997D01*
X021178Y034028D01*
X021205Y034057D01*
X021234Y034083D01*
X021266Y034106D01*
X021300Y034126D01*
X021336Y034142D01*
X021373Y034154D01*
X021412Y034163D01*
X021451Y034168D01*
X021490Y034169D01*
X021529Y034166D01*
X021568Y034159D01*
X021605Y034148D01*
X021642Y034134D01*
X021677Y034116D01*
X021710Y034095D01*
X021741Y034070D01*
X021769Y034043D01*
X021794Y034013D01*
X021816Y033980D01*
X021835Y033946D01*
X021850Y033910D01*
X021862Y033872D01*
X021870Y033834D01*
X021874Y033795D01*
X021874Y033755D01*
X021870Y033716D01*
X021862Y033678D01*
X021850Y033640D01*
X021835Y033604D01*
X021816Y033570D01*
X021794Y033537D01*
X021769Y033507D01*
X021741Y033480D01*
X021710Y033455D01*
X021677Y033434D01*
X021642Y033416D01*
X021605Y033402D01*
X021568Y033391D01*
X021529Y033384D01*
X021490Y033381D01*
X021451Y033382D01*
X021412Y033387D01*
X021373Y033396D01*
X021336Y033408D01*
X021300Y033424D01*
X021266Y033444D01*
X021234Y033467D01*
X021205Y033493D01*
X021178Y033522D01*
X021154Y033553D01*
X021134Y033587D01*
X021117Y033622D01*
X021104Y033659D01*
X021094Y033697D01*
X021088Y033736D01*
X021086Y033775D01*
X016874Y034893D02*
X016876Y034952D01*
X016882Y035011D01*
X016892Y035069D01*
X016905Y035127D01*
X016923Y035184D01*
X016944Y035239D01*
X016969Y035293D01*
X016998Y035345D01*
X017030Y035394D01*
X017065Y035442D01*
X017103Y035487D01*
X017144Y035530D01*
X017188Y035570D01*
X017234Y035606D01*
X017283Y035640D01*
X017334Y035670D01*
X017387Y035697D01*
X017442Y035720D01*
X017497Y035739D01*
X017555Y035755D01*
X017613Y035767D01*
X017671Y035775D01*
X017730Y035779D01*
X017790Y035779D01*
X017849Y035775D01*
X017907Y035767D01*
X017965Y035755D01*
X018023Y035739D01*
X018078Y035720D01*
X018133Y035697D01*
X018186Y035670D01*
X018237Y035640D01*
X018286Y035606D01*
X018332Y035570D01*
X018376Y035530D01*
X018417Y035487D01*
X018455Y035442D01*
X018490Y035394D01*
X018522Y035345D01*
X018551Y035293D01*
X018576Y035239D01*
X018597Y035184D01*
X018615Y035127D01*
X018628Y035069D01*
X018638Y035011D01*
X018644Y034952D01*
X018646Y034893D01*
X018644Y034834D01*
X018638Y034775D01*
X018628Y034717D01*
X018615Y034659D01*
X018597Y034602D01*
X018576Y034547D01*
X018551Y034493D01*
X018522Y034441D01*
X018490Y034392D01*
X018455Y034344D01*
X018417Y034299D01*
X018376Y034256D01*
X018332Y034216D01*
X018286Y034180D01*
X018237Y034146D01*
X018186Y034116D01*
X018133Y034089D01*
X018078Y034066D01*
X018023Y034047D01*
X017965Y034031D01*
X017907Y034019D01*
X017849Y034011D01*
X017790Y034007D01*
X017730Y034007D01*
X017671Y034011D01*
X017613Y034019D01*
X017555Y034031D01*
X017497Y034047D01*
X017442Y034066D01*
X017387Y034089D01*
X017334Y034116D01*
X017283Y034146D01*
X017234Y034180D01*
X017188Y034216D01*
X017144Y034256D01*
X017103Y034299D01*
X017065Y034344D01*
X017030Y034392D01*
X016998Y034441D01*
X016969Y034493D01*
X016944Y034547D01*
X016923Y034602D01*
X016905Y034659D01*
X016892Y034717D01*
X016882Y034775D01*
X016876Y034834D01*
X016874Y034893D01*
X042911Y017435D02*
X042913Y017461D01*
X042919Y017487D01*
X042928Y017511D01*
X042941Y017534D01*
X042958Y017554D01*
X042977Y017572D01*
X042999Y017587D01*
X043022Y017598D01*
X043047Y017606D01*
X043073Y017610D01*
X043099Y017610D01*
X043125Y017606D01*
X043150Y017598D01*
X043174Y017587D01*
X043195Y017572D01*
X043214Y017554D01*
X043231Y017534D01*
X043244Y017511D01*
X043253Y017487D01*
X043259Y017461D01*
X043261Y017435D01*
X043259Y017409D01*
X043253Y017383D01*
X043244Y017359D01*
X043231Y017336D01*
X043214Y017316D01*
X043195Y017298D01*
X043173Y017283D01*
X043150Y017272D01*
X043125Y017264D01*
X043099Y017260D01*
X043073Y017260D01*
X043047Y017264D01*
X043022Y017272D01*
X042998Y017283D01*
X042977Y017298D01*
X042958Y017316D01*
X042941Y017336D01*
X042928Y017359D01*
X042919Y017383D01*
X042913Y017409D01*
X042911Y017435D01*
X046060Y017435D02*
X046062Y017461D01*
X046068Y017487D01*
X046077Y017511D01*
X046090Y017534D01*
X046107Y017554D01*
X046126Y017572D01*
X046148Y017587D01*
X046171Y017598D01*
X046196Y017606D01*
X046222Y017610D01*
X046248Y017610D01*
X046274Y017606D01*
X046299Y017598D01*
X046323Y017587D01*
X046344Y017572D01*
X046363Y017554D01*
X046380Y017534D01*
X046393Y017511D01*
X046402Y017487D01*
X046408Y017461D01*
X046410Y017435D01*
X046408Y017409D01*
X046402Y017383D01*
X046393Y017359D01*
X046380Y017336D01*
X046363Y017316D01*
X046344Y017298D01*
X046322Y017283D01*
X046299Y017272D01*
X046274Y017264D01*
X046248Y017260D01*
X046222Y017260D01*
X046196Y017264D01*
X046171Y017272D01*
X046147Y017283D01*
X046126Y017298D01*
X046107Y017316D01*
X046090Y017336D01*
X046077Y017359D01*
X046068Y017383D01*
X046062Y017409D01*
X046060Y017435D01*
X048645Y019011D02*
X048647Y019050D01*
X048653Y019089D01*
X048663Y019127D01*
X048676Y019164D01*
X048693Y019199D01*
X048713Y019233D01*
X048737Y019264D01*
X048764Y019293D01*
X048793Y019319D01*
X048825Y019342D01*
X048859Y019362D01*
X048895Y019378D01*
X048932Y019390D01*
X048971Y019399D01*
X049010Y019404D01*
X049049Y019405D01*
X049088Y019402D01*
X049127Y019395D01*
X049164Y019384D01*
X049201Y019370D01*
X049236Y019352D01*
X049269Y019331D01*
X049300Y019306D01*
X049328Y019279D01*
X049353Y019249D01*
X049375Y019216D01*
X049394Y019182D01*
X049409Y019146D01*
X049421Y019108D01*
X049429Y019070D01*
X049433Y019031D01*
X049433Y018991D01*
X049429Y018952D01*
X049421Y018914D01*
X049409Y018876D01*
X049394Y018840D01*
X049375Y018806D01*
X049353Y018773D01*
X049328Y018743D01*
X049300Y018716D01*
X049269Y018691D01*
X049236Y018670D01*
X049201Y018652D01*
X049164Y018638D01*
X049127Y018627D01*
X049088Y018620D01*
X049049Y018617D01*
X049010Y018618D01*
X048971Y018623D01*
X048932Y018632D01*
X048895Y018644D01*
X048859Y018660D01*
X048825Y018680D01*
X048793Y018703D01*
X048764Y018729D01*
X048737Y018758D01*
X048713Y018789D01*
X048693Y018823D01*
X048676Y018858D01*
X048663Y018895D01*
X048653Y018933D01*
X048647Y018972D01*
X048645Y019011D01*
X051874Y017893D02*
X051876Y017952D01*
X051882Y018011D01*
X051892Y018069D01*
X051905Y018127D01*
X051923Y018184D01*
X051944Y018239D01*
X051969Y018293D01*
X051998Y018345D01*
X052030Y018394D01*
X052065Y018442D01*
X052103Y018487D01*
X052144Y018530D01*
X052188Y018570D01*
X052234Y018606D01*
X052283Y018640D01*
X052334Y018670D01*
X052387Y018697D01*
X052442Y018720D01*
X052497Y018739D01*
X052555Y018755D01*
X052613Y018767D01*
X052671Y018775D01*
X052730Y018779D01*
X052790Y018779D01*
X052849Y018775D01*
X052907Y018767D01*
X052965Y018755D01*
X053023Y018739D01*
X053078Y018720D01*
X053133Y018697D01*
X053186Y018670D01*
X053237Y018640D01*
X053286Y018606D01*
X053332Y018570D01*
X053376Y018530D01*
X053417Y018487D01*
X053455Y018442D01*
X053490Y018394D01*
X053522Y018345D01*
X053551Y018293D01*
X053576Y018239D01*
X053597Y018184D01*
X053615Y018127D01*
X053628Y018069D01*
X053638Y018011D01*
X053644Y017952D01*
X053646Y017893D01*
X053644Y017834D01*
X053638Y017775D01*
X053628Y017717D01*
X053615Y017659D01*
X053597Y017602D01*
X053576Y017547D01*
X053551Y017493D01*
X053522Y017441D01*
X053490Y017392D01*
X053455Y017344D01*
X053417Y017299D01*
X053376Y017256D01*
X053332Y017216D01*
X053286Y017180D01*
X053237Y017146D01*
X053186Y017116D01*
X053133Y017089D01*
X053078Y017066D01*
X053023Y017047D01*
X052965Y017031D01*
X052907Y017019D01*
X052849Y017011D01*
X052790Y017007D01*
X052730Y017007D01*
X052671Y017011D01*
X052613Y017019D01*
X052555Y017031D01*
X052497Y017047D01*
X052442Y017066D01*
X052387Y017089D01*
X052334Y017116D01*
X052283Y017146D01*
X052234Y017180D01*
X052188Y017216D01*
X052144Y017256D01*
X052103Y017299D01*
X052065Y017344D01*
X052030Y017392D01*
X051998Y017441D01*
X051969Y017493D01*
X051944Y017547D01*
X051923Y017602D01*
X051905Y017659D01*
X051892Y017717D01*
X051882Y017775D01*
X051876Y017834D01*
X051874Y017893D01*
X048645Y033775D02*
X048647Y033814D01*
X048653Y033853D01*
X048663Y033891D01*
X048676Y033928D01*
X048693Y033963D01*
X048713Y033997D01*
X048737Y034028D01*
X048764Y034057D01*
X048793Y034083D01*
X048825Y034106D01*
X048859Y034126D01*
X048895Y034142D01*
X048932Y034154D01*
X048971Y034163D01*
X049010Y034168D01*
X049049Y034169D01*
X049088Y034166D01*
X049127Y034159D01*
X049164Y034148D01*
X049201Y034134D01*
X049236Y034116D01*
X049269Y034095D01*
X049300Y034070D01*
X049328Y034043D01*
X049353Y034013D01*
X049375Y033980D01*
X049394Y033946D01*
X049409Y033910D01*
X049421Y033872D01*
X049429Y033834D01*
X049433Y033795D01*
X049433Y033755D01*
X049429Y033716D01*
X049421Y033678D01*
X049409Y033640D01*
X049394Y033604D01*
X049375Y033570D01*
X049353Y033537D01*
X049328Y033507D01*
X049300Y033480D01*
X049269Y033455D01*
X049236Y033434D01*
X049201Y033416D01*
X049164Y033402D01*
X049127Y033391D01*
X049088Y033384D01*
X049049Y033381D01*
X049010Y033382D01*
X048971Y033387D01*
X048932Y033396D01*
X048895Y033408D01*
X048859Y033424D01*
X048825Y033444D01*
X048793Y033467D01*
X048764Y033493D01*
X048737Y033522D01*
X048713Y033553D01*
X048693Y033587D01*
X048676Y033622D01*
X048663Y033659D01*
X048653Y033697D01*
X048647Y033736D01*
X048645Y033775D01*
X051874Y034893D02*
X051876Y034952D01*
X051882Y035011D01*
X051892Y035069D01*
X051905Y035127D01*
X051923Y035184D01*
X051944Y035239D01*
X051969Y035293D01*
X051998Y035345D01*
X052030Y035394D01*
X052065Y035442D01*
X052103Y035487D01*
X052144Y035530D01*
X052188Y035570D01*
X052234Y035606D01*
X052283Y035640D01*
X052334Y035670D01*
X052387Y035697D01*
X052442Y035720D01*
X052497Y035739D01*
X052555Y035755D01*
X052613Y035767D01*
X052671Y035775D01*
X052730Y035779D01*
X052790Y035779D01*
X052849Y035775D01*
X052907Y035767D01*
X052965Y035755D01*
X053023Y035739D01*
X053078Y035720D01*
X053133Y035697D01*
X053186Y035670D01*
X053237Y035640D01*
X053286Y035606D01*
X053332Y035570D01*
X053376Y035530D01*
X053417Y035487D01*
X053455Y035442D01*
X053490Y035394D01*
X053522Y035345D01*
X053551Y035293D01*
X053576Y035239D01*
X053597Y035184D01*
X053615Y035127D01*
X053628Y035069D01*
X053638Y035011D01*
X053644Y034952D01*
X053646Y034893D01*
X053644Y034834D01*
X053638Y034775D01*
X053628Y034717D01*
X053615Y034659D01*
X053597Y034602D01*
X053576Y034547D01*
X053551Y034493D01*
X053522Y034441D01*
X053490Y034392D01*
X053455Y034344D01*
X053417Y034299D01*
X053376Y034256D01*
X053332Y034216D01*
X053286Y034180D01*
X053237Y034146D01*
X053186Y034116D01*
X053133Y034089D01*
X053078Y034066D01*
X053023Y034047D01*
X052965Y034031D01*
X052907Y034019D01*
X052849Y034011D01*
X052790Y034007D01*
X052730Y034007D01*
X052671Y034011D01*
X052613Y034019D01*
X052555Y034031D01*
X052497Y034047D01*
X052442Y034066D01*
X052387Y034089D01*
X052334Y034116D01*
X052283Y034146D01*
X052234Y034180D01*
X052188Y034216D01*
X052144Y034256D01*
X052103Y034299D01*
X052065Y034344D01*
X052030Y034392D01*
X051998Y034441D01*
X051969Y034493D01*
X051944Y034547D01*
X051923Y034602D01*
X051905Y034659D01*
X051892Y034717D01*
X051882Y034775D01*
X051876Y034834D01*
X051874Y034893D01*
D12*
X051752Y030393D03*
X051752Y029393D03*
X051752Y028393D03*
X049767Y028393D03*
X049767Y029393D03*
X049767Y030393D03*
X020752Y030393D03*
X020752Y029393D03*
X020752Y028393D03*
X018767Y028393D03*
X018767Y029393D03*
X018767Y030393D03*
D13*
X048039Y022141D03*
X048039Y020921D03*
X048039Y019700D03*
D14*
X045637Y020311D03*
X045637Y021531D03*
M02*
