G75*
%MOIN*%
%OFA0B0*%
%FSLAX24Y24*%
%IPPOS*%
%LPD*%
%AMOC8*
5,1,8,0,0,1.08239X$1,22.5*
%
%ADD10C,0.0050*%
%ADD11C,0.0000*%
%ADD12R,0.0394X0.1450*%
%ADD13C,0.0394*%
%ADD14C,0.0281*%
%ADD15C,0.0354*%
%ADD16C,0.0476*%
%ADD17R,0.0472X0.0591*%
%ADD18R,0.0591X0.0591*%
%ADD19R,0.0250X0.0500*%
%ADD20C,0.0080*%
%ADD21R,0.0500X0.0250*%
%ADD22R,0.2000X0.2000*%
%ADD23C,0.0330*%
%ADD24C,0.0120*%
%ADD25C,0.0240*%
%ADD26C,0.0100*%
%ADD27C,0.0320*%
D10*
X017760Y016393D02*
X032760Y016393D01*
X033260Y016893D01*
X037260Y016893D01*
X037760Y016393D01*
X052760Y016393D01*
X052836Y016395D01*
X052912Y016401D01*
X052987Y016410D01*
X053062Y016424D01*
X053136Y016441D01*
X053209Y016462D01*
X053281Y016486D01*
X053352Y016515D01*
X053421Y016546D01*
X053488Y016581D01*
X053553Y016620D01*
X053617Y016662D01*
X053678Y016707D01*
X053737Y016755D01*
X053793Y016806D01*
X053847Y016860D01*
X053898Y016916D01*
X053946Y016975D01*
X053991Y017036D01*
X054033Y017100D01*
X054072Y017165D01*
X054107Y017232D01*
X054138Y017301D01*
X054167Y017372D01*
X054191Y017444D01*
X054212Y017517D01*
X054229Y017591D01*
X054243Y017666D01*
X054252Y017741D01*
X054258Y017817D01*
X054260Y017893D01*
X054260Y034893D01*
X054258Y034969D01*
X054252Y035045D01*
X054243Y035120D01*
X054229Y035195D01*
X054212Y035269D01*
X054191Y035342D01*
X054167Y035414D01*
X054138Y035485D01*
X054107Y035554D01*
X054072Y035621D01*
X054033Y035686D01*
X053991Y035750D01*
X053946Y035811D01*
X053898Y035870D01*
X053847Y035926D01*
X053793Y035980D01*
X053737Y036031D01*
X053678Y036079D01*
X053617Y036124D01*
X053553Y036166D01*
X053488Y036205D01*
X053421Y036240D01*
X053352Y036271D01*
X053281Y036300D01*
X053209Y036324D01*
X053136Y036345D01*
X053062Y036362D01*
X052987Y036376D01*
X052912Y036385D01*
X052836Y036391D01*
X052760Y036393D01*
X017760Y036393D01*
X017684Y036391D01*
X017608Y036385D01*
X017533Y036376D01*
X017458Y036362D01*
X017384Y036345D01*
X017311Y036324D01*
X017239Y036300D01*
X017168Y036271D01*
X017099Y036240D01*
X017032Y036205D01*
X016967Y036166D01*
X016903Y036124D01*
X016842Y036079D01*
X016783Y036031D01*
X016727Y035980D01*
X016673Y035926D01*
X016622Y035870D01*
X016574Y035811D01*
X016529Y035750D01*
X016487Y035686D01*
X016448Y035621D01*
X016413Y035554D01*
X016382Y035485D01*
X016353Y035414D01*
X016329Y035342D01*
X016308Y035269D01*
X016291Y035195D01*
X016277Y035120D01*
X016268Y035045D01*
X016262Y034969D01*
X016260Y034893D01*
X016260Y017893D01*
X016262Y017817D01*
X016268Y017741D01*
X016277Y017666D01*
X016291Y017591D01*
X016308Y017517D01*
X016329Y017444D01*
X016353Y017372D01*
X016382Y017301D01*
X016413Y017232D01*
X016448Y017165D01*
X016487Y017100D01*
X016529Y017036D01*
X016574Y016975D01*
X016622Y016916D01*
X016673Y016860D01*
X016727Y016806D01*
X016783Y016755D01*
X016842Y016707D01*
X016903Y016662D01*
X016967Y016620D01*
X017032Y016581D01*
X017099Y016546D01*
X017168Y016515D01*
X017239Y016486D01*
X017311Y016462D01*
X017384Y016441D01*
X017458Y016424D01*
X017533Y016410D01*
X017608Y016401D01*
X017684Y016395D01*
X017760Y016393D01*
D11*
X017260Y017893D02*
X017262Y017937D01*
X017268Y017981D01*
X017278Y018024D01*
X017291Y018066D01*
X017308Y018107D01*
X017329Y018146D01*
X017353Y018183D01*
X017380Y018218D01*
X017410Y018250D01*
X017443Y018280D01*
X017479Y018306D01*
X017516Y018330D01*
X017556Y018349D01*
X017597Y018366D01*
X017640Y018378D01*
X017683Y018387D01*
X017727Y018392D01*
X017771Y018393D01*
X017815Y018390D01*
X017859Y018383D01*
X017902Y018372D01*
X017944Y018358D01*
X017984Y018340D01*
X018023Y018318D01*
X018059Y018294D01*
X018093Y018266D01*
X018125Y018235D01*
X018154Y018201D01*
X018180Y018165D01*
X018202Y018127D01*
X018221Y018087D01*
X018236Y018045D01*
X018248Y018003D01*
X018256Y017959D01*
X018260Y017915D01*
X018260Y017871D01*
X018256Y017827D01*
X018248Y017783D01*
X018236Y017741D01*
X018221Y017699D01*
X018202Y017659D01*
X018180Y017621D01*
X018154Y017585D01*
X018125Y017551D01*
X018093Y017520D01*
X018059Y017492D01*
X018023Y017468D01*
X017984Y017446D01*
X017944Y017428D01*
X017902Y017414D01*
X017859Y017403D01*
X017815Y017396D01*
X017771Y017393D01*
X017727Y017394D01*
X017683Y017399D01*
X017640Y017408D01*
X017597Y017420D01*
X017556Y017437D01*
X017516Y017456D01*
X017479Y017480D01*
X017443Y017506D01*
X017410Y017536D01*
X017380Y017568D01*
X017353Y017603D01*
X017329Y017640D01*
X017308Y017679D01*
X017291Y017720D01*
X017278Y017762D01*
X017268Y017805D01*
X017262Y017849D01*
X017260Y017893D01*
X021086Y019011D02*
X021088Y019050D01*
X021094Y019089D01*
X021104Y019127D01*
X021117Y019164D01*
X021134Y019199D01*
X021154Y019233D01*
X021178Y019264D01*
X021205Y019293D01*
X021234Y019319D01*
X021266Y019342D01*
X021300Y019362D01*
X021336Y019378D01*
X021373Y019390D01*
X021412Y019399D01*
X021451Y019404D01*
X021490Y019405D01*
X021529Y019402D01*
X021568Y019395D01*
X021605Y019384D01*
X021642Y019370D01*
X021677Y019352D01*
X021710Y019331D01*
X021741Y019306D01*
X021769Y019279D01*
X021794Y019249D01*
X021816Y019216D01*
X021835Y019182D01*
X021850Y019146D01*
X021862Y019108D01*
X021870Y019070D01*
X021874Y019031D01*
X021874Y018991D01*
X021870Y018952D01*
X021862Y018914D01*
X021850Y018876D01*
X021835Y018840D01*
X021816Y018806D01*
X021794Y018773D01*
X021769Y018743D01*
X021741Y018716D01*
X021710Y018691D01*
X021677Y018670D01*
X021642Y018652D01*
X021605Y018638D01*
X021568Y018627D01*
X021529Y018620D01*
X021490Y018617D01*
X021451Y018618D01*
X021412Y018623D01*
X021373Y018632D01*
X021336Y018644D01*
X021300Y018660D01*
X021266Y018680D01*
X021234Y018703D01*
X021205Y018729D01*
X021178Y018758D01*
X021154Y018789D01*
X021134Y018823D01*
X021117Y018858D01*
X021104Y018895D01*
X021094Y018933D01*
X021088Y018972D01*
X021086Y019011D01*
X021086Y033775D02*
X021088Y033814D01*
X021094Y033853D01*
X021104Y033891D01*
X021117Y033928D01*
X021134Y033963D01*
X021154Y033997D01*
X021178Y034028D01*
X021205Y034057D01*
X021234Y034083D01*
X021266Y034106D01*
X021300Y034126D01*
X021336Y034142D01*
X021373Y034154D01*
X021412Y034163D01*
X021451Y034168D01*
X021490Y034169D01*
X021529Y034166D01*
X021568Y034159D01*
X021605Y034148D01*
X021642Y034134D01*
X021677Y034116D01*
X021710Y034095D01*
X021741Y034070D01*
X021769Y034043D01*
X021794Y034013D01*
X021816Y033980D01*
X021835Y033946D01*
X021850Y033910D01*
X021862Y033872D01*
X021870Y033834D01*
X021874Y033795D01*
X021874Y033755D01*
X021870Y033716D01*
X021862Y033678D01*
X021850Y033640D01*
X021835Y033604D01*
X021816Y033570D01*
X021794Y033537D01*
X021769Y033507D01*
X021741Y033480D01*
X021710Y033455D01*
X021677Y033434D01*
X021642Y033416D01*
X021605Y033402D01*
X021568Y033391D01*
X021529Y033384D01*
X021490Y033381D01*
X021451Y033382D01*
X021412Y033387D01*
X021373Y033396D01*
X021336Y033408D01*
X021300Y033424D01*
X021266Y033444D01*
X021234Y033467D01*
X021205Y033493D01*
X021178Y033522D01*
X021154Y033553D01*
X021134Y033587D01*
X021117Y033622D01*
X021104Y033659D01*
X021094Y033697D01*
X021088Y033736D01*
X021086Y033775D01*
X017260Y034893D02*
X017262Y034937D01*
X017268Y034981D01*
X017278Y035024D01*
X017291Y035066D01*
X017308Y035107D01*
X017329Y035146D01*
X017353Y035183D01*
X017380Y035218D01*
X017410Y035250D01*
X017443Y035280D01*
X017479Y035306D01*
X017516Y035330D01*
X017556Y035349D01*
X017597Y035366D01*
X017640Y035378D01*
X017683Y035387D01*
X017727Y035392D01*
X017771Y035393D01*
X017815Y035390D01*
X017859Y035383D01*
X017902Y035372D01*
X017944Y035358D01*
X017984Y035340D01*
X018023Y035318D01*
X018059Y035294D01*
X018093Y035266D01*
X018125Y035235D01*
X018154Y035201D01*
X018180Y035165D01*
X018202Y035127D01*
X018221Y035087D01*
X018236Y035045D01*
X018248Y035003D01*
X018256Y034959D01*
X018260Y034915D01*
X018260Y034871D01*
X018256Y034827D01*
X018248Y034783D01*
X018236Y034741D01*
X018221Y034699D01*
X018202Y034659D01*
X018180Y034621D01*
X018154Y034585D01*
X018125Y034551D01*
X018093Y034520D01*
X018059Y034492D01*
X018023Y034468D01*
X017984Y034446D01*
X017944Y034428D01*
X017902Y034414D01*
X017859Y034403D01*
X017815Y034396D01*
X017771Y034393D01*
X017727Y034394D01*
X017683Y034399D01*
X017640Y034408D01*
X017597Y034420D01*
X017556Y034437D01*
X017516Y034456D01*
X017479Y034480D01*
X017443Y034506D01*
X017410Y034536D01*
X017380Y034568D01*
X017353Y034603D01*
X017329Y034640D01*
X017308Y034679D01*
X017291Y034720D01*
X017278Y034762D01*
X017268Y034805D01*
X017262Y034849D01*
X017260Y034893D01*
X042911Y017435D02*
X042913Y017461D01*
X042919Y017487D01*
X042928Y017511D01*
X042941Y017534D01*
X042958Y017554D01*
X042977Y017572D01*
X042999Y017587D01*
X043022Y017598D01*
X043047Y017606D01*
X043073Y017610D01*
X043099Y017610D01*
X043125Y017606D01*
X043150Y017598D01*
X043174Y017587D01*
X043195Y017572D01*
X043214Y017554D01*
X043231Y017534D01*
X043244Y017511D01*
X043253Y017487D01*
X043259Y017461D01*
X043261Y017435D01*
X043259Y017409D01*
X043253Y017383D01*
X043244Y017359D01*
X043231Y017336D01*
X043214Y017316D01*
X043195Y017298D01*
X043173Y017283D01*
X043150Y017272D01*
X043125Y017264D01*
X043099Y017260D01*
X043073Y017260D01*
X043047Y017264D01*
X043022Y017272D01*
X042998Y017283D01*
X042977Y017298D01*
X042958Y017316D01*
X042941Y017336D01*
X042928Y017359D01*
X042919Y017383D01*
X042913Y017409D01*
X042911Y017435D01*
X046060Y017435D02*
X046062Y017461D01*
X046068Y017487D01*
X046077Y017511D01*
X046090Y017534D01*
X046107Y017554D01*
X046126Y017572D01*
X046148Y017587D01*
X046171Y017598D01*
X046196Y017606D01*
X046222Y017610D01*
X046248Y017610D01*
X046274Y017606D01*
X046299Y017598D01*
X046323Y017587D01*
X046344Y017572D01*
X046363Y017554D01*
X046380Y017534D01*
X046393Y017511D01*
X046402Y017487D01*
X046408Y017461D01*
X046410Y017435D01*
X046408Y017409D01*
X046402Y017383D01*
X046393Y017359D01*
X046380Y017336D01*
X046363Y017316D01*
X046344Y017298D01*
X046322Y017283D01*
X046299Y017272D01*
X046274Y017264D01*
X046248Y017260D01*
X046222Y017260D01*
X046196Y017264D01*
X046171Y017272D01*
X046147Y017283D01*
X046126Y017298D01*
X046107Y017316D01*
X046090Y017336D01*
X046077Y017359D01*
X046068Y017383D01*
X046062Y017409D01*
X046060Y017435D01*
X048645Y019011D02*
X048647Y019050D01*
X048653Y019089D01*
X048663Y019127D01*
X048676Y019164D01*
X048693Y019199D01*
X048713Y019233D01*
X048737Y019264D01*
X048764Y019293D01*
X048793Y019319D01*
X048825Y019342D01*
X048859Y019362D01*
X048895Y019378D01*
X048932Y019390D01*
X048971Y019399D01*
X049010Y019404D01*
X049049Y019405D01*
X049088Y019402D01*
X049127Y019395D01*
X049164Y019384D01*
X049201Y019370D01*
X049236Y019352D01*
X049269Y019331D01*
X049300Y019306D01*
X049328Y019279D01*
X049353Y019249D01*
X049375Y019216D01*
X049394Y019182D01*
X049409Y019146D01*
X049421Y019108D01*
X049429Y019070D01*
X049433Y019031D01*
X049433Y018991D01*
X049429Y018952D01*
X049421Y018914D01*
X049409Y018876D01*
X049394Y018840D01*
X049375Y018806D01*
X049353Y018773D01*
X049328Y018743D01*
X049300Y018716D01*
X049269Y018691D01*
X049236Y018670D01*
X049201Y018652D01*
X049164Y018638D01*
X049127Y018627D01*
X049088Y018620D01*
X049049Y018617D01*
X049010Y018618D01*
X048971Y018623D01*
X048932Y018632D01*
X048895Y018644D01*
X048859Y018660D01*
X048825Y018680D01*
X048793Y018703D01*
X048764Y018729D01*
X048737Y018758D01*
X048713Y018789D01*
X048693Y018823D01*
X048676Y018858D01*
X048663Y018895D01*
X048653Y018933D01*
X048647Y018972D01*
X048645Y019011D01*
X052260Y017893D02*
X052262Y017937D01*
X052268Y017981D01*
X052278Y018024D01*
X052291Y018066D01*
X052308Y018107D01*
X052329Y018146D01*
X052353Y018183D01*
X052380Y018218D01*
X052410Y018250D01*
X052443Y018280D01*
X052479Y018306D01*
X052516Y018330D01*
X052556Y018349D01*
X052597Y018366D01*
X052640Y018378D01*
X052683Y018387D01*
X052727Y018392D01*
X052771Y018393D01*
X052815Y018390D01*
X052859Y018383D01*
X052902Y018372D01*
X052944Y018358D01*
X052984Y018340D01*
X053023Y018318D01*
X053059Y018294D01*
X053093Y018266D01*
X053125Y018235D01*
X053154Y018201D01*
X053180Y018165D01*
X053202Y018127D01*
X053221Y018087D01*
X053236Y018045D01*
X053248Y018003D01*
X053256Y017959D01*
X053260Y017915D01*
X053260Y017871D01*
X053256Y017827D01*
X053248Y017783D01*
X053236Y017741D01*
X053221Y017699D01*
X053202Y017659D01*
X053180Y017621D01*
X053154Y017585D01*
X053125Y017551D01*
X053093Y017520D01*
X053059Y017492D01*
X053023Y017468D01*
X052984Y017446D01*
X052944Y017428D01*
X052902Y017414D01*
X052859Y017403D01*
X052815Y017396D01*
X052771Y017393D01*
X052727Y017394D01*
X052683Y017399D01*
X052640Y017408D01*
X052597Y017420D01*
X052556Y017437D01*
X052516Y017456D01*
X052479Y017480D01*
X052443Y017506D01*
X052410Y017536D01*
X052380Y017568D01*
X052353Y017603D01*
X052329Y017640D01*
X052308Y017679D01*
X052291Y017720D01*
X052278Y017762D01*
X052268Y017805D01*
X052262Y017849D01*
X052260Y017893D01*
X048645Y033775D02*
X048647Y033814D01*
X048653Y033853D01*
X048663Y033891D01*
X048676Y033928D01*
X048693Y033963D01*
X048713Y033997D01*
X048737Y034028D01*
X048764Y034057D01*
X048793Y034083D01*
X048825Y034106D01*
X048859Y034126D01*
X048895Y034142D01*
X048932Y034154D01*
X048971Y034163D01*
X049010Y034168D01*
X049049Y034169D01*
X049088Y034166D01*
X049127Y034159D01*
X049164Y034148D01*
X049201Y034134D01*
X049236Y034116D01*
X049269Y034095D01*
X049300Y034070D01*
X049328Y034043D01*
X049353Y034013D01*
X049375Y033980D01*
X049394Y033946D01*
X049409Y033910D01*
X049421Y033872D01*
X049429Y033834D01*
X049433Y033795D01*
X049433Y033755D01*
X049429Y033716D01*
X049421Y033678D01*
X049409Y033640D01*
X049394Y033604D01*
X049375Y033570D01*
X049353Y033537D01*
X049328Y033507D01*
X049300Y033480D01*
X049269Y033455D01*
X049236Y033434D01*
X049201Y033416D01*
X049164Y033402D01*
X049127Y033391D01*
X049088Y033384D01*
X049049Y033381D01*
X049010Y033382D01*
X048971Y033387D01*
X048932Y033396D01*
X048895Y033408D01*
X048859Y033424D01*
X048825Y033444D01*
X048793Y033467D01*
X048764Y033493D01*
X048737Y033522D01*
X048713Y033553D01*
X048693Y033587D01*
X048676Y033622D01*
X048663Y033659D01*
X048653Y033697D01*
X048647Y033736D01*
X048645Y033775D01*
X052260Y034893D02*
X052262Y034937D01*
X052268Y034981D01*
X052278Y035024D01*
X052291Y035066D01*
X052308Y035107D01*
X052329Y035146D01*
X052353Y035183D01*
X052380Y035218D01*
X052410Y035250D01*
X052443Y035280D01*
X052479Y035306D01*
X052516Y035330D01*
X052556Y035349D01*
X052597Y035366D01*
X052640Y035378D01*
X052683Y035387D01*
X052727Y035392D01*
X052771Y035393D01*
X052815Y035390D01*
X052859Y035383D01*
X052902Y035372D01*
X052944Y035358D01*
X052984Y035340D01*
X053023Y035318D01*
X053059Y035294D01*
X053093Y035266D01*
X053125Y035235D01*
X053154Y035201D01*
X053180Y035165D01*
X053202Y035127D01*
X053221Y035087D01*
X053236Y035045D01*
X053248Y035003D01*
X053256Y034959D01*
X053260Y034915D01*
X053260Y034871D01*
X053256Y034827D01*
X053248Y034783D01*
X053236Y034741D01*
X053221Y034699D01*
X053202Y034659D01*
X053180Y034621D01*
X053154Y034585D01*
X053125Y034551D01*
X053093Y034520D01*
X053059Y034492D01*
X053023Y034468D01*
X052984Y034446D01*
X052944Y034428D01*
X052902Y034414D01*
X052859Y034403D01*
X052815Y034396D01*
X052771Y034393D01*
X052727Y034394D01*
X052683Y034399D01*
X052640Y034408D01*
X052597Y034420D01*
X052556Y034437D01*
X052516Y034456D01*
X052479Y034480D01*
X052443Y034506D01*
X052410Y034536D01*
X052380Y034568D01*
X052353Y034603D01*
X052329Y034640D01*
X052308Y034679D01*
X052291Y034720D01*
X052278Y034762D01*
X052268Y034805D01*
X052262Y034849D01*
X052260Y034893D01*
D12*
X052260Y031860D03*
X051260Y031860D03*
X053260Y031860D03*
X053260Y030060D03*
X052260Y030060D03*
X051260Y030060D03*
X019260Y030060D03*
X018260Y030060D03*
X017260Y030060D03*
X017260Y031860D03*
X018260Y031860D03*
X019260Y031860D03*
D13*
X019260Y033393D03*
X051260Y019393D03*
D14*
X017776Y022503D02*
X017776Y022715D01*
X017870Y022715D01*
X017870Y022503D01*
X017776Y022503D01*
X017776Y024472D02*
X017776Y024684D01*
X017870Y024684D01*
X017870Y024472D01*
X017776Y024472D01*
D15*
X016888Y024971D02*
X016632Y024971D01*
X016632Y022215D02*
X016888Y022215D01*
D16*
X020864Y022143D03*
X019360Y018893D03*
X023164Y016893D03*
X033760Y018793D03*
X039760Y026518D03*
X050864Y021394D03*
X051510Y023456D03*
D17*
X048039Y022141D03*
X048039Y020921D03*
X048039Y019700D03*
D18*
X045637Y020311D03*
X045637Y021531D03*
D19*
X022187Y022143D03*
X021832Y022143D03*
D20*
X050864Y020668D02*
X050864Y020368D01*
D21*
X050864Y020318D03*
X050864Y020718D03*
D22*
G36*
X027174Y025893D02*
X025760Y024479D01*
X024346Y025893D01*
X025760Y027307D01*
X027174Y025893D01*
G37*
D23*
X028010Y026768D03*
X028322Y027081D03*
X028010Y027393D03*
X029010Y027393D03*
X029285Y027056D03*
X029560Y027393D03*
X029835Y027056D03*
X030110Y027393D03*
X030635Y027393D03*
X030635Y026518D03*
X031197Y026039D03*
X030510Y025643D03*
X031010Y024672D03*
X031010Y024081D03*
X032197Y024956D03*
X032510Y025268D03*
X033260Y024581D03*
X035135Y025893D03*
X035434Y025543D03*
X034910Y026393D03*
X033160Y026543D03*
X033260Y027393D03*
X032960Y027893D03*
X033560Y028393D03*
X033260Y028893D03*
X034260Y029643D03*
X036260Y029643D03*
X037010Y028893D03*
X037260Y028393D03*
X037010Y027893D03*
X037260Y027393D03*
X037510Y026143D03*
X037510Y024393D03*
X035760Y024393D03*
X034260Y022268D03*
X035455Y021893D03*
X035752Y021593D03*
X036048Y021318D03*
X034910Y019893D03*
X035410Y019593D03*
X035760Y018893D03*
X036510Y018293D03*
X037010Y018893D03*
X038260Y018893D03*
X038430Y018293D03*
X039260Y017393D03*
X041010Y017393D03*
X041010Y018893D03*
X040785Y019593D03*
X041285Y019893D03*
X041010Y021143D03*
X041010Y022143D03*
X039285Y020193D03*
X038260Y020476D03*
X038260Y021143D03*
X037910Y021998D03*
X039010Y024393D03*
X040510Y024393D03*
X042010Y024393D03*
X043243Y023956D03*
X043510Y024393D03*
X044110Y024268D03*
X044976Y024456D03*
X045409Y023456D03*
X046410Y024643D03*
X047760Y023643D03*
X048260Y023143D03*
X049260Y022643D03*
X048572Y021706D03*
X048905Y021393D03*
X050135Y021518D03*
X051635Y020768D03*
X050135Y019268D03*
X051260Y018643D03*
X049364Y016893D03*
X047510Y018643D03*
X046760Y019268D03*
X045635Y019268D03*
X044976Y019893D03*
X044110Y019593D03*
X043385Y019268D03*
X043243Y020193D03*
X044543Y018643D03*
X044635Y017456D03*
X047260Y020093D03*
X046410Y020756D03*
X046760Y021143D03*
X046760Y022143D03*
X050760Y024956D03*
X052510Y024143D03*
X052572Y025893D03*
X052572Y027393D03*
X052572Y028893D03*
X050760Y028843D03*
X047760Y031393D03*
X046114Y030893D03*
X045405Y030893D03*
X045760Y031893D03*
X045760Y033393D03*
X045760Y034893D03*
X042760Y035393D03*
X042260Y034893D03*
X042260Y033393D03*
X042260Y031893D03*
X043760Y031393D03*
X040760Y031393D03*
X039114Y030893D03*
X038405Y030893D03*
X038760Y031893D03*
X038760Y033393D03*
X038760Y034893D03*
X035910Y032893D03*
X034885Y032893D03*
X033760Y031393D03*
X032114Y031143D03*
X031405Y031143D03*
X031760Y031893D03*
X031760Y033393D03*
X031760Y034893D03*
X034885Y034893D03*
X035634Y034893D03*
X036760Y031393D03*
X030635Y028268D03*
X026635Y028393D03*
X025405Y028831D03*
X024510Y028081D03*
X024885Y027768D03*
X023760Y028893D03*
X023385Y028618D03*
X023010Y028331D03*
X022635Y028018D03*
X021760Y027143D03*
X021760Y026393D03*
X021760Y025643D03*
X021760Y024893D03*
X021010Y024893D03*
X020864Y024143D03*
X020260Y024393D03*
X019510Y025143D03*
X018385Y024393D03*
X018010Y025143D03*
X020260Y022643D03*
X019510Y021893D03*
X018010Y022143D03*
X017860Y020693D03*
X019410Y020543D03*
X019360Y019444D03*
X020760Y019643D03*
X022510Y019893D03*
X024910Y019668D03*
X026410Y018856D03*
X026410Y017793D03*
X023660Y017793D03*
X020780Y017393D03*
X019360Y016893D03*
X024360Y021643D03*
X023885Y022143D03*
X023160Y022143D03*
X022760Y022643D03*
X022010Y022893D03*
X021260Y022643D03*
X022760Y023643D03*
X023760Y024613D03*
X024360Y023476D03*
X025060Y022393D03*
X025385Y022643D03*
X025710Y022393D03*
X026035Y022643D03*
X026360Y022393D03*
X027135Y022643D03*
X027135Y021393D03*
X028697Y022268D03*
X030760Y022268D03*
X029910Y018856D03*
X029910Y017793D03*
X032760Y018293D03*
X034510Y018293D03*
X025760Y023893D03*
X023760Y026393D03*
X023239Y026393D03*
X019447Y028331D03*
X019010Y028018D03*
X017510Y028643D03*
X020510Y029893D03*
X020510Y030893D03*
X020510Y031893D03*
X021760Y032893D03*
X022760Y031393D03*
X024405Y030893D03*
X025114Y030893D03*
X024760Y031893D03*
X024760Y033393D03*
X024760Y034893D03*
X028260Y034893D03*
X028260Y033393D03*
X028760Y032893D03*
X028260Y031893D03*
X026760Y031393D03*
X029760Y031393D03*
D24*
X031405Y031143D02*
X031905Y030643D01*
X032760Y030643D01*
X033260Y030143D01*
X033260Y028893D01*
X032960Y028443D02*
X033260Y028143D01*
X033260Y027393D01*
X032960Y027893D02*
X032760Y028093D01*
X032760Y029643D01*
X032260Y030143D01*
X024905Y030143D01*
X024405Y030643D01*
X024405Y030893D01*
X025114Y030893D02*
X025614Y030393D01*
X032510Y030393D01*
X032960Y029943D01*
X032960Y028443D01*
X033560Y028393D02*
X033560Y030356D01*
X032772Y031143D01*
X032114Y031143D01*
X031260Y029393D02*
X031760Y028893D01*
X031760Y026443D01*
X032310Y025893D01*
X035135Y025893D01*
X035197Y025955D01*
X035197Y034306D01*
X034885Y034617D01*
X034885Y034893D01*
X035434Y034393D02*
X035434Y025543D01*
X035010Y025543D01*
X034910Y025643D01*
X032060Y025643D01*
X031510Y026193D01*
X031510Y028750D01*
X031053Y029206D01*
X020010Y029206D01*
X019760Y029456D01*
X019760Y029810D01*
X019510Y030060D01*
X019260Y030060D01*
X020010Y029643D02*
X020260Y029393D01*
X031260Y029393D01*
X030110Y027393D02*
X030110Y023893D01*
X030360Y023643D01*
X044947Y023643D01*
X045072Y023768D01*
X045572Y023768D01*
X045697Y023643D01*
X047760Y023643D01*
X048260Y023143D02*
X030060Y023143D01*
X029560Y023643D01*
X029560Y027393D01*
X029835Y027056D02*
X029835Y023787D01*
X030228Y023393D01*
X045010Y023393D01*
X045072Y023456D01*
X045409Y023456D01*
X045101Y024331D02*
X044976Y024456D01*
X045101Y024331D02*
X051160Y024331D01*
X051760Y024931D01*
X051760Y031860D01*
X052260Y031860D01*
X052260Y030060D02*
X052260Y024931D01*
X051472Y024143D01*
X044235Y024143D01*
X044110Y024268D01*
X043243Y023956D02*
X051760Y023956D01*
X053260Y025456D01*
X053260Y030060D01*
X051260Y030060D02*
X051260Y024893D01*
X051010Y024643D01*
X046410Y024643D01*
X047010Y022893D02*
X047510Y022393D01*
X047510Y021787D01*
X047903Y021393D01*
X048905Y021393D01*
X047260Y022143D02*
X047260Y020093D01*
X046410Y020756D02*
X026610Y020756D01*
X026360Y021006D01*
X026360Y022393D01*
X026035Y022643D02*
X026035Y020870D01*
X026428Y020476D01*
X038260Y020476D01*
X039285Y020193D02*
X026210Y020193D01*
X025710Y020693D01*
X025710Y022393D01*
X025385Y022643D02*
X025385Y020443D01*
X025935Y019893D01*
X034910Y019893D01*
X041285Y019893D01*
X044976Y019893D01*
X044110Y019593D02*
X040785Y019593D01*
X035410Y019593D01*
X025710Y019593D01*
X025060Y020243D01*
X025060Y022393D01*
X023160Y022143D02*
X022187Y022143D01*
X021832Y022143D02*
X020864Y022143D01*
X020864Y024143D01*
X024885Y027768D02*
X026010Y027768D01*
X027510Y026268D01*
X027510Y021568D01*
X028060Y021018D01*
X037516Y021018D01*
X037910Y021412D01*
X037910Y021998D01*
X036048Y021318D02*
X028210Y021318D01*
X027710Y021818D01*
X027710Y026581D01*
X026210Y028081D01*
X024510Y028081D01*
X023760Y028893D02*
X019010Y028893D01*
X018760Y029143D01*
X018760Y030893D01*
X018260Y031393D01*
X018260Y031860D01*
X019260Y031860D02*
X019760Y031860D01*
X020010Y031610D01*
X020010Y029643D01*
X018535Y028618D02*
X018260Y028893D01*
X018260Y030060D01*
X018535Y028618D02*
X023385Y028618D01*
X023010Y028331D02*
X019447Y028331D01*
X019010Y028018D02*
X022635Y028018D01*
X028010Y027393D02*
X028447Y027393D01*
X028697Y027143D01*
X028697Y022268D01*
X028572Y021893D02*
X028322Y022143D01*
X028322Y027081D01*
X028010Y026768D02*
X028010Y021987D01*
X028403Y021593D01*
X035752Y021593D01*
X035455Y021893D02*
X028572Y021893D01*
X029610Y022643D02*
X029010Y023243D01*
X029010Y027393D01*
X029285Y027056D02*
X029285Y023443D01*
X029835Y022893D01*
X047010Y022893D01*
X046760Y022643D02*
X047260Y022143D01*
X046760Y022643D02*
X029610Y022643D01*
X031010Y024081D02*
X031010Y024672D01*
X032197Y024956D02*
X050760Y024956D01*
X050510Y025268D02*
X050760Y025518D01*
X050760Y028843D01*
X046114Y030893D02*
X046114Y031268D01*
X045989Y031393D01*
X045135Y031393D01*
X045010Y031268D01*
X045010Y030893D01*
X044510Y030393D01*
X038260Y030393D01*
X037760Y029893D01*
X037760Y028393D01*
X037260Y027893D01*
X037010Y027893D01*
X037260Y027393D02*
X037510Y027393D01*
X038010Y027893D01*
X038010Y029643D01*
X038510Y030143D01*
X044905Y030143D01*
X045405Y030643D01*
X045405Y030893D01*
X039114Y030893D02*
X038614Y031393D01*
X038010Y031393D01*
X037010Y030393D01*
X037010Y028893D01*
X037510Y028643D02*
X037510Y030106D01*
X038297Y030893D01*
X038405Y030893D01*
X037510Y028643D02*
X037260Y028393D01*
X032510Y025268D02*
X050510Y025268D01*
X050864Y021394D02*
X050864Y020718D01*
X043243Y020193D02*
X039285Y020193D01*
X023164Y016893D02*
X019360Y016893D01*
X035434Y034393D02*
X035634Y034593D01*
X035634Y034893D01*
D25*
X034510Y035393D02*
X034260Y035143D01*
X034260Y032893D01*
X034885Y032893D01*
X034885Y026417D01*
X034910Y026393D01*
X035697Y026393D02*
X036290Y026393D01*
X035697Y026393D02*
X035697Y032018D01*
X035910Y032231D01*
X035910Y032893D01*
X034260Y032893D02*
X028760Y032893D01*
X021760Y032893D01*
X017760Y031360D02*
X017760Y028643D01*
X018760Y027643D01*
X023239Y027643D01*
X024426Y028831D01*
X025405Y028831D01*
X030885Y028831D01*
X031197Y028518D01*
X031197Y026039D01*
X024360Y023476D02*
X024360Y021643D01*
X024360Y018293D01*
X032760Y018293D01*
X033760Y018293D01*
X033760Y018793D01*
X033760Y018293D02*
X034510Y018293D01*
X036510Y018293D01*
X038430Y018293D01*
X042160Y018293D01*
X042510Y018643D01*
X044543Y018643D01*
X046510Y018643D01*
X047260Y017893D01*
X050510Y017893D01*
X051260Y018643D01*
X050660Y017293D02*
X047110Y017293D01*
X046510Y017893D01*
X032385Y017893D01*
X031885Y017393D01*
X020780Y017393D01*
X020360Y018293D02*
X024360Y018293D01*
X020360Y018293D02*
X020110Y018543D01*
X020110Y019743D01*
X019860Y019993D01*
X019010Y019993D01*
X018760Y020243D01*
X018760Y027643D01*
X017760Y028643D02*
X017510Y028643D01*
X017760Y031360D02*
X017260Y031860D01*
X023239Y027643D02*
X023239Y026393D01*
X034510Y035393D02*
X042760Y035393D01*
X053260Y031860D02*
X053760Y031860D01*
X053760Y023456D01*
X051510Y023456D01*
X053760Y023456D02*
X053760Y020393D01*
X050660Y017293D01*
X048039Y019700D02*
X048657Y020318D01*
X050864Y020318D01*
D26*
X017587Y016580D02*
X017252Y016669D01*
X016953Y016842D01*
X016708Y017087D01*
X016535Y017386D01*
X016446Y017720D01*
X016435Y017893D01*
X016435Y034893D01*
X016446Y035066D01*
X016535Y035400D01*
X016708Y035700D01*
X016953Y035945D01*
X017252Y036117D01*
X017587Y036207D01*
X017760Y036218D01*
X020760Y036218D01*
X020760Y029643D01*
X031360Y029643D01*
X031760Y029243D01*
X031760Y029120D01*
X031326Y029553D01*
X020326Y029553D01*
X020170Y029710D01*
X020170Y031677D01*
X020076Y031770D01*
X019826Y032020D01*
X019556Y032020D01*
X019556Y032627D01*
X019498Y032685D01*
X019021Y032685D01*
X018963Y032627D01*
X018963Y031094D01*
X019021Y031035D01*
X019498Y031035D01*
X019556Y031094D01*
X019556Y031700D01*
X019693Y031700D01*
X019850Y031544D01*
X019850Y029947D01*
X019826Y029970D01*
X019826Y029970D01*
X019576Y030220D01*
X019556Y030220D01*
X019556Y030827D01*
X019498Y030885D01*
X019021Y030885D01*
X018963Y030827D01*
X018963Y029294D01*
X019021Y029235D01*
X019498Y029235D01*
X019556Y029294D01*
X019556Y029787D01*
X019600Y029744D01*
X019600Y029390D01*
X019693Y029296D01*
X019693Y029296D01*
X019850Y029140D01*
X019850Y029140D01*
X019936Y029053D01*
X019076Y029053D01*
X018920Y029210D01*
X018920Y030960D01*
X018826Y031053D01*
X018556Y031323D01*
X018556Y032627D01*
X018498Y032685D01*
X018021Y032685D01*
X017963Y032627D01*
X017963Y031468D01*
X017851Y031580D01*
X017556Y031875D01*
X017556Y032627D01*
X017498Y032685D01*
X017021Y032685D01*
X016963Y032627D01*
X016963Y031094D01*
X017021Y031035D01*
X017498Y031035D01*
X017540Y031077D01*
X017540Y030910D01*
X017514Y030925D01*
X017476Y030935D01*
X017308Y030935D01*
X017308Y030109D01*
X017211Y030109D01*
X017211Y030935D01*
X017043Y030935D01*
X017005Y030925D01*
X016971Y030905D01*
X016943Y030877D01*
X016923Y030843D01*
X016913Y030805D01*
X016913Y030109D01*
X017211Y030109D01*
X017211Y030012D01*
X016913Y030012D01*
X016913Y029315D01*
X016923Y029277D01*
X016943Y029243D01*
X016971Y029215D01*
X017005Y029195D01*
X017043Y029185D01*
X017211Y029185D01*
X017211Y030012D01*
X017308Y030012D01*
X017308Y029185D01*
X017476Y029185D01*
X017514Y029195D01*
X017540Y029210D01*
X017540Y028908D01*
X017457Y028908D01*
X017359Y028868D01*
X017285Y028793D01*
X017245Y028696D01*
X017245Y028591D01*
X017285Y028493D01*
X017359Y028419D01*
X017457Y028378D01*
X017562Y028378D01*
X017660Y028419D01*
X017664Y028423D01*
X017668Y028423D01*
X018540Y027552D01*
X018540Y024613D01*
X018535Y024618D01*
X018437Y024658D01*
X018332Y024658D01*
X018234Y024618D01*
X018160Y024543D01*
X018120Y024446D01*
X018120Y024341D01*
X018125Y024329D01*
X018125Y019643D01*
X018164Y019547D01*
X018414Y019297D01*
X018487Y019224D01*
X018583Y019184D01*
X019100Y019184D01*
X019100Y019111D01*
X019073Y019085D01*
X019021Y018961D01*
X019021Y018826D01*
X019073Y018702D01*
X019168Y018607D01*
X019292Y018555D01*
X019427Y018555D01*
X019551Y018607D01*
X019646Y018702D01*
X019698Y018826D01*
X019698Y018961D01*
X019646Y019085D01*
X019620Y019111D01*
X019620Y019380D01*
X019625Y019392D01*
X019625Y019497D01*
X019584Y019595D01*
X019510Y019669D01*
X019412Y019709D01*
X019307Y019709D01*
X019295Y019704D01*
X018742Y019704D01*
X018645Y019802D01*
X018645Y020047D01*
X018790Y019902D01*
X018918Y019773D01*
X019768Y019773D01*
X019890Y019652D01*
X019890Y018452D01*
X020140Y018202D01*
X020268Y018073D01*
X032253Y018073D01*
X032165Y017984D01*
X031793Y017613D01*
X020934Y017613D01*
X020930Y017618D01*
X020832Y017658D01*
X020727Y017658D01*
X020629Y017618D01*
X020555Y017543D01*
X020515Y017446D01*
X020515Y017341D01*
X020555Y017243D01*
X020629Y017169D01*
X020727Y017128D01*
X020832Y017128D01*
X020930Y017169D01*
X020934Y017173D01*
X022966Y017173D01*
X022877Y017085D01*
X022864Y017053D01*
X019574Y017053D01*
X019510Y017118D01*
X019412Y017158D01*
X019307Y017158D01*
X019209Y017118D01*
X019135Y017043D01*
X019095Y016946D01*
X019095Y016841D01*
X019135Y016743D01*
X019209Y016669D01*
X019307Y016628D01*
X019412Y016628D01*
X019510Y016669D01*
X019574Y016733D01*
X022864Y016733D01*
X022877Y016702D01*
X022972Y016607D01*
X023065Y016568D01*
X017760Y016568D01*
X017587Y016580D01*
X017547Y016590D02*
X023012Y016590D01*
X022890Y016689D02*
X019530Y016689D01*
X019189Y016689D02*
X017218Y016689D01*
X017048Y016787D02*
X019117Y016787D01*
X019095Y016886D02*
X016909Y016886D01*
X016811Y016984D02*
X019110Y016984D01*
X019174Y017083D02*
X016712Y017083D01*
X016654Y017181D02*
X020617Y017181D01*
X020540Y017280D02*
X017977Y017280D01*
X017889Y017243D02*
X018128Y017342D01*
X018311Y017525D01*
X018410Y017764D01*
X018410Y018023D01*
X018311Y018262D01*
X018128Y018444D01*
X017889Y018543D01*
X017630Y018543D01*
X017391Y018444D01*
X017208Y018262D01*
X017110Y018023D01*
X017110Y017764D01*
X017208Y017525D01*
X017391Y017342D01*
X017630Y017243D01*
X017889Y017243D01*
X018164Y017378D02*
X020515Y017378D01*
X020527Y017477D02*
X018262Y017477D01*
X018331Y017575D02*
X020587Y017575D01*
X020175Y018166D02*
X018350Y018166D01*
X018391Y018068D02*
X032248Y018068D01*
X032149Y017969D02*
X018410Y017969D01*
X018410Y017871D02*
X032051Y017871D01*
X031952Y017772D02*
X018410Y017772D01*
X018372Y017674D02*
X031854Y017674D01*
X032181Y017378D02*
X032521Y017378D01*
X032619Y017477D02*
X032279Y017477D01*
X032378Y017575D02*
X032718Y017575D01*
X032683Y017541D02*
X032296Y017153D01*
X023382Y017153D01*
X023362Y017173D01*
X031976Y017173D01*
X032105Y017302D01*
X032476Y017673D01*
X042865Y017673D01*
X042810Y017619D01*
X042761Y017500D01*
X042761Y017370D01*
X042810Y017251D01*
X042902Y017160D01*
X042917Y017153D01*
X038511Y017153D01*
X038157Y017507D01*
X038050Y017614D01*
X037955Y017653D01*
X032851Y017653D01*
X032756Y017614D01*
X032683Y017541D01*
X032422Y017280D02*
X032082Y017280D01*
X031984Y017181D02*
X032324Y017181D01*
X032665Y016787D02*
X032906Y016787D01*
X032808Y016689D02*
X032566Y016689D01*
X032550Y016673D02*
X032657Y016779D01*
X033011Y017133D01*
X037796Y017133D01*
X038183Y016746D01*
X038256Y016673D01*
X038351Y016633D01*
X049299Y016633D01*
X049311Y016628D01*
X049417Y016628D01*
X049514Y016669D01*
X049589Y016743D01*
X049629Y016841D01*
X049629Y016946D01*
X049589Y017043D01*
X049559Y017073D01*
X050751Y017073D01*
X050880Y017202D01*
X053851Y020173D01*
X053980Y020302D01*
X053980Y031951D01*
X053851Y032080D01*
X053556Y032080D01*
X053556Y032627D01*
X053498Y032685D01*
X053021Y032685D01*
X052963Y032627D01*
X052963Y031094D01*
X053021Y031035D01*
X053498Y031035D01*
X053540Y031077D01*
X053540Y030844D01*
X053498Y030885D01*
X053021Y030885D01*
X052963Y030827D01*
X052963Y029294D01*
X053021Y029235D01*
X053100Y029235D01*
X053100Y025522D01*
X051693Y024116D01*
X051671Y024116D01*
X052420Y024864D01*
X052420Y029235D01*
X052498Y029235D01*
X052556Y029294D01*
X052556Y030827D01*
X052498Y030885D01*
X052021Y030885D01*
X051963Y030827D01*
X051963Y029294D01*
X052021Y029235D01*
X052100Y029235D01*
X052100Y024997D01*
X051406Y024303D01*
X051358Y024303D01*
X051920Y024865D01*
X051920Y031700D01*
X051963Y031700D01*
X051963Y031094D01*
X052021Y031035D01*
X052498Y031035D01*
X052556Y031094D01*
X052556Y032627D01*
X052498Y032685D01*
X052021Y032685D01*
X051963Y032627D01*
X051963Y032020D01*
X051693Y032020D01*
X051606Y031933D01*
X051606Y032605D01*
X051596Y032643D01*
X051576Y032677D01*
X051548Y032705D01*
X051514Y032725D01*
X051476Y032735D01*
X051308Y032735D01*
X051308Y031909D01*
X051211Y031909D01*
X051211Y032735D01*
X051043Y032735D01*
X051005Y032725D01*
X050971Y032705D01*
X050943Y032677D01*
X050923Y032643D01*
X050913Y032605D01*
X050913Y031909D01*
X051211Y031909D01*
X051211Y031812D01*
X050913Y031812D01*
X050913Y031115D01*
X050923Y031077D01*
X050943Y031043D01*
X050971Y031015D01*
X051005Y030995D01*
X051043Y030985D01*
X051211Y030985D01*
X051211Y031812D01*
X051308Y031812D01*
X051308Y030985D01*
X051476Y030985D01*
X051514Y030995D01*
X051548Y031015D01*
X051576Y031043D01*
X051596Y031077D01*
X051600Y031090D01*
X051600Y024997D01*
X051093Y024491D01*
X051083Y024491D01*
X051170Y024577D01*
X051420Y024827D01*
X051420Y029235D01*
X051498Y029235D01*
X051556Y029294D01*
X051556Y030827D01*
X051498Y030885D01*
X051021Y030885D01*
X050963Y030827D01*
X050963Y029294D01*
X051021Y029235D01*
X051100Y029235D01*
X051100Y024960D01*
X051011Y024871D01*
X051025Y024903D01*
X051025Y025009D01*
X050984Y025106D01*
X050910Y025180D01*
X050812Y025221D01*
X050707Y025221D01*
X050675Y025208D01*
X050920Y025452D01*
X050920Y028629D01*
X050984Y028693D01*
X051025Y028791D01*
X051025Y028896D01*
X050984Y028993D01*
X050910Y029068D01*
X050812Y029108D01*
X050707Y029108D01*
X050609Y029068D01*
X050535Y028993D01*
X050495Y028896D01*
X050495Y028791D01*
X050535Y028693D01*
X050600Y028629D01*
X050600Y025585D01*
X050443Y025428D01*
X035673Y025428D01*
X035699Y025491D01*
X035699Y025596D01*
X035658Y025693D01*
X035594Y025758D01*
X035594Y026893D01*
X038760Y026893D01*
X038760Y029243D01*
X039160Y029643D01*
X049760Y029643D01*
X049760Y036218D01*
X052760Y036218D01*
X052932Y036207D01*
X053267Y036117D01*
X053566Y035945D01*
X053811Y035700D01*
X053984Y035400D01*
X054073Y035066D01*
X054085Y034893D01*
X054085Y017893D01*
X054073Y017720D01*
X053984Y017386D01*
X053811Y017087D01*
X053566Y016842D01*
X053267Y016669D01*
X052932Y016580D01*
X052760Y016568D01*
X037832Y016568D01*
X037435Y016966D01*
X037332Y017068D01*
X033187Y017068D01*
X032687Y016568D01*
X023263Y016568D01*
X023355Y016607D01*
X023382Y016633D01*
X032455Y016633D01*
X032550Y016673D01*
X032709Y016590D02*
X023316Y016590D01*
X022876Y017083D02*
X019545Y017083D01*
X020140Y018202D02*
X020140Y018202D01*
X020077Y018265D02*
X018307Y018265D01*
X018209Y018363D02*
X019978Y018363D01*
X019890Y018462D02*
X018086Y018462D01*
X017433Y018462D02*
X016435Y018462D01*
X016435Y018560D02*
X019280Y018560D01*
X019439Y018560D02*
X019890Y018560D01*
X019890Y018659D02*
X019603Y018659D01*
X019669Y018757D02*
X019890Y018757D01*
X019890Y018856D02*
X019698Y018856D01*
X019698Y018954D02*
X019890Y018954D01*
X019890Y019053D02*
X019659Y019053D01*
X019620Y019151D02*
X019890Y019151D01*
X019890Y019250D02*
X019620Y019250D01*
X019620Y019348D02*
X019890Y019348D01*
X019890Y019447D02*
X019625Y019447D01*
X019605Y019545D02*
X019890Y019545D01*
X019890Y019644D02*
X019535Y019644D01*
X019799Y019742D02*
X018704Y019742D01*
X018645Y019841D02*
X018851Y019841D01*
X018790Y019902D02*
X018790Y019902D01*
X018752Y019939D02*
X018645Y019939D01*
X018645Y020038D02*
X018654Y020038D01*
X018980Y020334D02*
X018980Y027423D01*
X023019Y027423D01*
X023019Y026548D01*
X023014Y026543D01*
X022974Y026446D01*
X022974Y026341D01*
X023014Y026243D01*
X023089Y026169D01*
X023186Y026128D01*
X023292Y026128D01*
X023389Y026169D01*
X023464Y026243D01*
X023504Y026341D01*
X023504Y026446D01*
X023464Y026543D01*
X023459Y026548D01*
X023459Y027552D01*
X024517Y028611D01*
X025250Y028611D01*
X025255Y028606D01*
X025352Y028566D01*
X025458Y028566D01*
X025555Y028606D01*
X025560Y028611D01*
X030793Y028611D01*
X030977Y028427D01*
X030977Y026194D01*
X030972Y026189D01*
X030932Y026092D01*
X030932Y025986D01*
X030972Y025889D01*
X031047Y025814D01*
X031144Y025774D01*
X031250Y025774D01*
X031347Y025814D01*
X031422Y025889D01*
X031462Y025986D01*
X031462Y026015D01*
X031900Y025577D01*
X031993Y025483D01*
X032350Y025483D01*
X032285Y025418D01*
X032245Y025321D01*
X032245Y025221D01*
X032144Y025221D01*
X032047Y025180D01*
X031972Y025106D01*
X031932Y025009D01*
X031932Y024903D01*
X031972Y024806D01*
X032047Y024731D01*
X032144Y024691D01*
X032250Y024691D01*
X032347Y024731D01*
X032412Y024796D01*
X046187Y024796D01*
X046185Y024793D01*
X046145Y024696D01*
X046145Y024591D01*
X046185Y024493D01*
X046187Y024491D01*
X045241Y024491D01*
X045241Y024509D01*
X045200Y024606D01*
X045126Y024680D01*
X045028Y024721D01*
X044923Y024721D01*
X044826Y024680D01*
X044751Y024606D01*
X044711Y024509D01*
X044711Y024403D01*
X044751Y024306D01*
X044753Y024303D01*
X044375Y024303D01*
X044375Y024321D01*
X044334Y024418D01*
X044260Y024493D01*
X044162Y024533D01*
X044057Y024533D01*
X043959Y024493D01*
X043885Y024418D01*
X043845Y024321D01*
X043845Y024216D01*
X043885Y024118D01*
X043887Y024116D01*
X043458Y024116D01*
X043393Y024180D01*
X043296Y024221D01*
X043191Y024221D01*
X043093Y024180D01*
X043019Y024106D01*
X042978Y024009D01*
X042978Y023903D01*
X043019Y023806D01*
X043021Y023803D01*
X030426Y023803D01*
X030270Y023960D01*
X030270Y027179D01*
X030334Y027243D01*
X030375Y027341D01*
X030375Y027446D01*
X030334Y027543D01*
X030260Y027618D01*
X030162Y027658D01*
X030057Y027658D01*
X029959Y027618D01*
X029885Y027543D01*
X029845Y027446D01*
X029845Y027341D01*
X029853Y027321D01*
X029816Y027321D01*
X029825Y027341D01*
X029825Y027446D01*
X029784Y027543D01*
X029710Y027618D01*
X029612Y027658D01*
X029507Y027658D01*
X029409Y027618D01*
X029335Y027543D01*
X029295Y027446D01*
X029295Y027341D01*
X029303Y027321D01*
X029266Y027321D01*
X029275Y027341D01*
X029275Y027446D01*
X029234Y027543D01*
X029160Y027618D01*
X029062Y027658D01*
X028957Y027658D01*
X028859Y027618D01*
X028785Y027543D01*
X028745Y027446D01*
X028745Y027341D01*
X028758Y027309D01*
X028513Y027553D01*
X028224Y027553D01*
X028160Y027618D01*
X028062Y027658D01*
X027957Y027658D01*
X027859Y027618D01*
X027785Y027543D01*
X027745Y027446D01*
X027745Y027341D01*
X027785Y027243D01*
X027859Y027169D01*
X027957Y027128D01*
X028057Y027128D01*
X028057Y027033D01*
X027957Y027033D01*
X027859Y026993D01*
X027785Y026918D01*
X027745Y026821D01*
X027745Y026772D01*
X026276Y028241D01*
X024724Y028241D01*
X024660Y028305D01*
X024562Y028346D01*
X024457Y028346D01*
X024359Y028305D01*
X024285Y028231D01*
X024245Y028134D01*
X024245Y028028D01*
X024285Y027931D01*
X024359Y027856D01*
X024457Y027816D01*
X024562Y027816D01*
X024629Y027843D01*
X024620Y027821D01*
X024620Y027716D01*
X024660Y027618D01*
X024734Y027544D01*
X024832Y027503D01*
X024937Y027503D01*
X025035Y027544D01*
X025099Y027608D01*
X025943Y027608D01*
X027350Y026202D01*
X027350Y021502D01*
X027936Y020916D01*
X026676Y020916D01*
X026520Y021072D01*
X026520Y022179D01*
X026584Y022243D01*
X026625Y022341D01*
X026625Y022446D01*
X026584Y022543D01*
X026510Y022618D01*
X026412Y022658D01*
X026307Y022658D01*
X026300Y022655D01*
X026300Y022696D01*
X026259Y022793D01*
X026185Y022868D01*
X026087Y022908D01*
X025982Y022908D01*
X025884Y022868D01*
X025810Y022793D01*
X025770Y022696D01*
X025770Y022655D01*
X025762Y022658D01*
X025657Y022658D01*
X025650Y022655D01*
X025650Y022696D01*
X025609Y022793D01*
X025535Y022868D01*
X025437Y022908D01*
X025332Y022908D01*
X025234Y022868D01*
X025160Y022793D01*
X025120Y022696D01*
X025120Y022655D01*
X025112Y022658D01*
X025007Y022658D01*
X024909Y022618D01*
X024835Y022543D01*
X024795Y022446D01*
X024795Y022341D01*
X024835Y022243D01*
X024900Y022179D01*
X024900Y020177D01*
X025550Y019527D01*
X025643Y019433D01*
X035195Y019433D01*
X035259Y019369D01*
X035357Y019328D01*
X035462Y019328D01*
X035560Y019369D01*
X035624Y019433D01*
X040570Y019433D01*
X040634Y019369D01*
X040732Y019328D01*
X040837Y019328D01*
X040935Y019369D01*
X040999Y019433D01*
X043895Y019433D01*
X043959Y019369D01*
X044057Y019328D01*
X044162Y019328D01*
X044260Y019369D01*
X044334Y019443D01*
X044375Y019541D01*
X044375Y019646D01*
X044338Y019733D01*
X044761Y019733D01*
X044826Y019669D01*
X044923Y019628D01*
X045028Y019628D01*
X045126Y019669D01*
X045200Y019743D01*
X045241Y019841D01*
X047177Y019841D01*
X047207Y019828D02*
X047312Y019828D01*
X047410Y019869D01*
X047484Y019943D01*
X047525Y020041D01*
X047525Y020146D01*
X047484Y020243D01*
X047420Y020308D01*
X047420Y021651D01*
X047443Y021627D01*
X047443Y021627D01*
X047758Y021312D01*
X047703Y021258D01*
X047703Y020584D01*
X047761Y020526D01*
X048317Y020526D01*
X048375Y020584D01*
X048375Y021233D01*
X048690Y021233D01*
X048755Y021169D01*
X048852Y021128D01*
X048958Y021128D01*
X049055Y021169D01*
X049130Y021243D01*
X049170Y021341D01*
X049170Y021446D01*
X049130Y021543D01*
X049055Y021618D01*
X048958Y021658D01*
X048852Y021658D01*
X048755Y021618D01*
X048690Y021553D01*
X047969Y021553D01*
X047827Y021696D01*
X047989Y021696D01*
X047989Y022091D01*
X048089Y022091D01*
X048089Y021696D01*
X048295Y021696D01*
X048333Y021706D01*
X048367Y021726D01*
X048395Y021754D01*
X048415Y021788D01*
X048425Y021826D01*
X048425Y022091D01*
X048089Y022091D01*
X048089Y022191D01*
X048425Y022191D01*
X048425Y022456D01*
X048415Y022495D01*
X048395Y022529D01*
X048367Y022557D01*
X048333Y022576D01*
X048295Y022587D01*
X048089Y022587D01*
X048089Y022191D01*
X047989Y022191D01*
X047989Y022587D01*
X047783Y022587D01*
X047745Y022576D01*
X047711Y022557D01*
X047683Y022529D01*
X047663Y022495D01*
X047657Y022472D01*
X047576Y022553D01*
X047146Y022983D01*
X048045Y022983D01*
X048109Y022919D01*
X048207Y022878D01*
X048312Y022878D01*
X048410Y022919D01*
X048484Y022993D01*
X048525Y023091D01*
X053540Y023091D01*
X053540Y022993D02*
X048484Y022993D01*
X048525Y023091D02*
X048525Y023196D01*
X048484Y023293D01*
X048410Y023368D01*
X048312Y023408D01*
X048207Y023408D01*
X048109Y023368D01*
X048045Y023303D01*
X045631Y023303D01*
X045633Y023306D01*
X045674Y023403D01*
X045674Y023483D01*
X047545Y023483D01*
X047609Y023419D01*
X047707Y023378D01*
X047812Y023378D01*
X047910Y023419D01*
X047984Y023493D01*
X048025Y023591D01*
X048025Y023696D01*
X047984Y023793D01*
X047982Y023796D01*
X051826Y023796D01*
X051920Y023890D01*
X053420Y025390D01*
X053420Y029235D01*
X053498Y029235D01*
X053540Y029277D01*
X053540Y023676D01*
X051768Y023676D01*
X051701Y023742D01*
X051577Y023794D01*
X051442Y023794D01*
X051318Y023742D01*
X051223Y023647D01*
X051171Y023523D01*
X051171Y023389D01*
X051223Y023264D01*
X051318Y023169D01*
X051442Y023118D01*
X051577Y023118D01*
X051701Y023169D01*
X051768Y023236D01*
X053540Y023236D01*
X053540Y020484D01*
X050568Y017513D01*
X047201Y017513D01*
X046601Y018113D01*
X042291Y018113D01*
X042601Y018423D01*
X044388Y018423D01*
X044392Y018419D01*
X044490Y018378D01*
X044595Y018378D01*
X044693Y018419D01*
X044697Y018423D01*
X046418Y018423D01*
X047040Y017802D01*
X047168Y017673D01*
X050601Y017673D01*
X050730Y017802D01*
X050730Y017802D01*
X051306Y018378D01*
X051312Y018378D01*
X051410Y018419D01*
X051484Y018493D01*
X051525Y018591D01*
X051525Y018696D01*
X051484Y018793D01*
X051410Y018868D01*
X051312Y018908D01*
X051207Y018908D01*
X051109Y018868D01*
X051035Y018793D01*
X050995Y018696D01*
X050995Y018689D01*
X050418Y018113D01*
X047351Y018113D01*
X046601Y018863D01*
X044697Y018863D01*
X044693Y018868D01*
X044595Y018908D01*
X044490Y018908D01*
X044392Y018868D01*
X044388Y018863D01*
X042418Y018863D01*
X042290Y018734D01*
X042068Y018513D01*
X038585Y018513D01*
X038580Y018518D01*
X038483Y018558D01*
X038377Y018558D01*
X038280Y018518D01*
X038275Y018513D01*
X036664Y018513D01*
X036660Y018518D01*
X036562Y018558D01*
X036457Y018558D01*
X036359Y018518D01*
X036355Y018513D01*
X034664Y018513D01*
X034660Y018518D01*
X034562Y018558D01*
X034457Y018558D01*
X034359Y018518D01*
X034355Y018513D01*
X033980Y018513D01*
X033980Y018535D01*
X034046Y018602D01*
X034098Y018726D01*
X034098Y018861D01*
X034046Y018985D01*
X033951Y019080D01*
X033827Y019131D01*
X033692Y019131D01*
X033568Y019080D01*
X033473Y018985D01*
X033421Y018861D01*
X033421Y018726D01*
X033473Y018602D01*
X033540Y018535D01*
X033540Y018513D01*
X032914Y018513D01*
X032910Y018518D01*
X032812Y018558D01*
X032707Y018558D01*
X032609Y018518D01*
X032605Y018513D01*
X024580Y018513D01*
X024580Y021489D01*
X024584Y021493D01*
X024625Y021591D01*
X024625Y021696D01*
X024584Y021793D01*
X024580Y021798D01*
X024580Y023322D01*
X024584Y023326D01*
X024625Y023424D01*
X024625Y023529D01*
X024584Y023627D01*
X024510Y023701D01*
X024412Y023741D01*
X024307Y023741D01*
X024209Y023701D01*
X024135Y023627D01*
X024095Y023529D01*
X024095Y023424D01*
X024135Y023326D01*
X024140Y023322D01*
X024140Y021798D01*
X024135Y021793D01*
X024095Y021696D01*
X024095Y021591D01*
X024135Y021493D01*
X024140Y021489D01*
X024140Y018513D01*
X021698Y018513D01*
X021788Y018550D01*
X021941Y018703D01*
X022024Y018903D01*
X022024Y019120D01*
X021941Y019319D01*
X021788Y019472D01*
X021588Y019555D01*
X021372Y019555D01*
X021172Y019472D01*
X021019Y019319D01*
X020936Y019120D01*
X020936Y018903D01*
X021019Y018703D01*
X021172Y018550D01*
X021262Y018513D01*
X020451Y018513D01*
X020330Y018634D01*
X020330Y019834D01*
X019951Y020213D01*
X019101Y020213D01*
X018980Y020334D01*
X018981Y020333D02*
X024140Y020333D01*
X024140Y020235D02*
X019079Y020235D01*
X018980Y020432D02*
X024140Y020432D01*
X024140Y020530D02*
X018980Y020530D01*
X018980Y020629D02*
X024140Y020629D01*
X024140Y020727D02*
X018980Y020727D01*
X018980Y020826D02*
X024140Y020826D01*
X024140Y020924D02*
X018980Y020924D01*
X018980Y021023D02*
X024140Y021023D01*
X024140Y021121D02*
X018980Y021121D01*
X018980Y021220D02*
X024140Y021220D01*
X024140Y021318D02*
X018980Y021318D01*
X018980Y021417D02*
X024140Y021417D01*
X024126Y021515D02*
X018980Y021515D01*
X018980Y021614D02*
X024095Y021614D01*
X024101Y021712D02*
X018980Y021712D01*
X018980Y021811D02*
X020783Y021811D01*
X020797Y021805D02*
X020931Y021805D01*
X021055Y021857D01*
X021150Y021952D01*
X021164Y021983D01*
X021607Y021983D01*
X021607Y021852D01*
X021666Y021793D01*
X021999Y021793D01*
X022010Y021804D01*
X022020Y021793D01*
X022353Y021793D01*
X022412Y021852D01*
X022412Y021983D01*
X022945Y021983D01*
X023009Y021919D01*
X023107Y021878D01*
X023212Y021878D01*
X023310Y021919D01*
X023384Y021993D01*
X023425Y022091D01*
X023425Y022196D01*
X023384Y022293D01*
X023310Y022368D01*
X023212Y022408D01*
X023107Y022408D01*
X023009Y022368D01*
X022945Y022303D01*
X022412Y022303D01*
X022412Y022435D01*
X022353Y022493D01*
X022020Y022493D01*
X022010Y022483D01*
X021999Y022493D01*
X021666Y022493D01*
X021607Y022435D01*
X021607Y022303D01*
X021164Y022303D01*
X021150Y022335D01*
X021055Y022430D01*
X021024Y022443D01*
X021024Y023929D01*
X021089Y023993D01*
X021129Y024091D01*
X021129Y024196D01*
X021089Y024293D01*
X021014Y024368D01*
X020917Y024408D01*
X020811Y024408D01*
X020714Y024368D01*
X020639Y024293D01*
X020599Y024196D01*
X020599Y024091D01*
X020639Y023993D01*
X020704Y023929D01*
X020704Y022443D01*
X020672Y022430D01*
X020577Y022335D01*
X020526Y022211D01*
X020526Y022076D01*
X020577Y021952D01*
X020672Y021857D01*
X020797Y021805D01*
X020945Y021811D02*
X021648Y021811D01*
X021607Y021909D02*
X021108Y021909D01*
X021164Y022303D02*
X021607Y022303D01*
X021607Y022402D02*
X021083Y022402D01*
X021024Y022500D02*
X024140Y022500D01*
X024140Y022402D02*
X023228Y022402D01*
X023091Y022402D02*
X022412Y022402D01*
X022412Y022303D02*
X022945Y022303D01*
X023032Y021909D02*
X022412Y021909D01*
X022371Y021811D02*
X024140Y021811D01*
X024140Y021909D02*
X023287Y021909D01*
X023390Y022008D02*
X024140Y022008D01*
X024140Y022106D02*
X023425Y022106D01*
X023421Y022205D02*
X024140Y022205D01*
X024140Y022303D02*
X023374Y022303D01*
X024140Y022599D02*
X021024Y022599D01*
X021024Y022697D02*
X024140Y022697D01*
X024140Y022796D02*
X021024Y022796D01*
X021024Y022894D02*
X024140Y022894D01*
X024140Y022993D02*
X021024Y022993D01*
X021024Y023091D02*
X024140Y023091D01*
X024140Y023190D02*
X021024Y023190D01*
X021024Y023288D02*
X024140Y023288D01*
X024110Y023387D02*
X021024Y023387D01*
X021024Y023485D02*
X024095Y023485D01*
X024117Y023584D02*
X021024Y023584D01*
X021024Y023682D02*
X024191Y023682D01*
X024528Y023682D02*
X027350Y023682D01*
X027350Y023584D02*
X024602Y023584D01*
X024625Y023485D02*
X027350Y023485D01*
X027350Y023387D02*
X024609Y023387D01*
X024580Y023288D02*
X027350Y023288D01*
X027350Y023190D02*
X024580Y023190D01*
X024580Y023091D02*
X027350Y023091D01*
X027350Y022993D02*
X024580Y022993D01*
X024580Y022894D02*
X025298Y022894D01*
X025162Y022796D02*
X024580Y022796D01*
X024580Y022697D02*
X025120Y022697D01*
X024890Y022599D02*
X024580Y022599D01*
X024580Y022500D02*
X024817Y022500D01*
X024795Y022402D02*
X024580Y022402D01*
X024580Y022303D02*
X024810Y022303D01*
X024873Y022205D02*
X024580Y022205D01*
X024580Y022106D02*
X024900Y022106D01*
X024900Y022008D02*
X024580Y022008D01*
X024580Y021909D02*
X024900Y021909D01*
X024900Y021811D02*
X024580Y021811D01*
X024618Y021712D02*
X024900Y021712D01*
X024900Y021614D02*
X024625Y021614D01*
X024593Y021515D02*
X024900Y021515D01*
X024900Y021417D02*
X024580Y021417D01*
X024580Y021318D02*
X024900Y021318D01*
X024900Y021220D02*
X024580Y021220D01*
X024580Y021121D02*
X024900Y021121D01*
X024900Y021023D02*
X024580Y021023D01*
X024580Y020924D02*
X024900Y020924D01*
X024900Y020826D02*
X024580Y020826D01*
X024580Y020727D02*
X024900Y020727D01*
X024900Y020629D02*
X024580Y020629D01*
X024580Y020530D02*
X024900Y020530D01*
X024900Y020432D02*
X024580Y020432D01*
X024580Y020333D02*
X024900Y020333D01*
X024900Y020235D02*
X024580Y020235D01*
X024580Y020136D02*
X024940Y020136D01*
X025039Y020038D02*
X024580Y020038D01*
X024580Y019939D02*
X025137Y019939D01*
X025236Y019841D02*
X024580Y019841D01*
X024580Y019742D02*
X025334Y019742D01*
X025433Y019644D02*
X024580Y019644D01*
X024580Y019545D02*
X025531Y019545D01*
X025630Y019447D02*
X024580Y019447D01*
X024580Y019348D02*
X035308Y019348D01*
X035511Y019348D02*
X040683Y019348D01*
X040886Y019348D02*
X044008Y019348D01*
X044211Y019348D02*
X047718Y019348D01*
X047703Y019364D02*
X047761Y019305D01*
X048317Y019305D01*
X048375Y019364D01*
X048375Y019725D01*
X048748Y020098D01*
X050567Y020098D01*
X050572Y020093D01*
X051155Y020093D01*
X051214Y020152D01*
X051214Y020485D01*
X051180Y020518D01*
X051214Y020552D01*
X051214Y020885D01*
X051155Y020943D01*
X051024Y020943D01*
X051024Y021095D01*
X051055Y021108D01*
X051150Y021203D01*
X051202Y021327D01*
X051202Y021462D01*
X051150Y021586D01*
X051055Y021681D01*
X050931Y021732D01*
X050797Y021732D01*
X050672Y021681D01*
X050577Y021586D01*
X050526Y021462D01*
X050526Y021327D01*
X050577Y021203D01*
X050672Y021108D01*
X050704Y021095D01*
X050704Y020943D01*
X050572Y020943D01*
X050514Y020885D01*
X050514Y020552D01*
X050527Y020538D01*
X048566Y020538D01*
X048123Y020096D01*
X047761Y020096D01*
X047703Y020037D01*
X047703Y019364D01*
X047703Y019447D02*
X044336Y019447D01*
X044375Y019545D02*
X047703Y019545D01*
X047703Y019644D02*
X045066Y019644D01*
X045199Y019742D02*
X047703Y019742D01*
X047703Y019841D02*
X047342Y019841D01*
X047207Y019828D02*
X047109Y019869D01*
X047035Y019943D01*
X046995Y020041D01*
X046995Y020146D01*
X047035Y020243D01*
X047100Y020308D01*
X047100Y022077D01*
X046693Y022483D01*
X029543Y022483D01*
X028857Y023170D01*
X028857Y022483D01*
X028922Y022418D01*
X028962Y022321D01*
X028962Y022216D01*
X028922Y022118D01*
X028857Y022053D01*
X035240Y022053D01*
X035305Y022118D01*
X035402Y022158D01*
X035508Y022158D01*
X035605Y022118D01*
X035679Y022043D01*
X035720Y021946D01*
X035720Y021858D01*
X035804Y021858D01*
X035902Y021818D01*
X035976Y021743D01*
X036017Y021646D01*
X036017Y021583D01*
X036101Y021583D01*
X036199Y021543D01*
X036273Y021468D01*
X036313Y021371D01*
X036313Y021266D01*
X036277Y021178D01*
X037450Y021178D01*
X037750Y021478D01*
X037750Y021783D01*
X037685Y021848D01*
X037645Y021945D01*
X037645Y022050D01*
X037685Y022148D01*
X037759Y022222D01*
X037857Y022263D01*
X037962Y022263D01*
X038060Y022222D01*
X038134Y022148D01*
X038175Y022050D01*
X038175Y021945D01*
X038134Y021848D01*
X038070Y021783D01*
X038070Y021346D01*
X037976Y021252D01*
X037640Y020916D01*
X046195Y020916D01*
X046259Y020980D01*
X046357Y021021D01*
X046462Y021021D01*
X046560Y020980D01*
X046634Y020906D01*
X046675Y020809D01*
X046675Y020703D01*
X046634Y020606D01*
X046560Y020531D01*
X046462Y020491D01*
X046357Y020491D01*
X046259Y020531D01*
X046195Y020596D01*
X046083Y020596D01*
X046083Y020361D01*
X045687Y020361D01*
X045687Y020261D01*
X045687Y019865D01*
X045952Y019865D01*
X045991Y019876D01*
X046025Y019895D01*
X046053Y019923D01*
X046073Y019957D01*
X046083Y019996D01*
X046083Y020261D01*
X045687Y020261D01*
X045587Y020261D01*
X045192Y020261D01*
X045192Y020052D01*
X045126Y020118D01*
X045028Y020158D01*
X044923Y020158D01*
X044826Y020118D01*
X044761Y020053D01*
X043472Y020053D01*
X043508Y020141D01*
X043508Y020246D01*
X043468Y020343D01*
X043393Y020418D01*
X043296Y020458D01*
X043191Y020458D01*
X043093Y020418D01*
X043029Y020353D01*
X039499Y020353D01*
X039435Y020418D01*
X039337Y020458D01*
X039232Y020458D01*
X039134Y020418D01*
X039070Y020353D01*
X038496Y020353D01*
X038525Y020423D01*
X038525Y020529D01*
X038497Y020596D01*
X045192Y020596D01*
X045192Y020361D01*
X045587Y020361D01*
X045587Y020261D01*
X045587Y019865D01*
X045322Y019865D01*
X045284Y019876D01*
X045250Y019895D01*
X045241Y019905D01*
X045241Y019841D01*
X045192Y020136D02*
X045081Y020136D01*
X045192Y020235D02*
X043508Y020235D01*
X043507Y020136D02*
X044870Y020136D01*
X045192Y020432D02*
X043360Y020432D01*
X043472Y020333D02*
X045587Y020333D01*
X045587Y020235D02*
X045687Y020235D01*
X045687Y020333D02*
X047100Y020333D01*
X047100Y020432D02*
X046083Y020432D01*
X046083Y020530D02*
X046261Y020530D01*
X046558Y020530D02*
X047100Y020530D01*
X047100Y020629D02*
X046644Y020629D01*
X046675Y020727D02*
X047100Y020727D01*
X047100Y020826D02*
X046667Y020826D01*
X046616Y020924D02*
X047100Y020924D01*
X047100Y021023D02*
X037747Y021023D01*
X037845Y021121D02*
X045245Y021121D01*
X045250Y021116D02*
X045284Y021096D01*
X045322Y021086D01*
X045587Y021086D01*
X045587Y021481D01*
X045192Y021481D01*
X045192Y021216D01*
X045202Y021178D01*
X045222Y021144D01*
X045250Y021116D01*
X045192Y021220D02*
X037944Y021220D01*
X038042Y021318D02*
X045192Y021318D01*
X045192Y021417D02*
X038070Y021417D01*
X038070Y021515D02*
X045587Y021515D01*
X045587Y021481D02*
X045587Y021581D01*
X045192Y021581D01*
X045192Y021846D01*
X045202Y021884D01*
X045222Y021918D01*
X045250Y021946D01*
X045284Y021966D01*
X045322Y021976D01*
X045587Y021976D01*
X045587Y021581D01*
X045687Y021581D01*
X045687Y021976D01*
X045952Y021976D01*
X045991Y021966D01*
X046025Y021946D01*
X046053Y021918D01*
X046073Y021884D01*
X046083Y021846D01*
X046083Y021581D01*
X045687Y021581D01*
X045687Y021481D01*
X045687Y021086D01*
X045952Y021086D01*
X045991Y021096D01*
X046025Y021116D01*
X046053Y021144D01*
X046073Y021178D01*
X046083Y021216D01*
X046083Y021481D01*
X045687Y021481D01*
X045587Y021481D01*
X045587Y021417D02*
X045687Y021417D01*
X045687Y021515D02*
X047100Y021515D01*
X047100Y021417D02*
X046083Y021417D01*
X046083Y021318D02*
X047100Y021318D01*
X047100Y021220D02*
X046083Y021220D01*
X046030Y021121D02*
X047100Y021121D01*
X047420Y021121D02*
X047703Y021121D01*
X047703Y021023D02*
X047420Y021023D01*
X047420Y020924D02*
X047703Y020924D01*
X047703Y020826D02*
X047420Y020826D01*
X047420Y020727D02*
X047703Y020727D01*
X047703Y020629D02*
X047420Y020629D01*
X047420Y020530D02*
X047757Y020530D01*
X047420Y020432D02*
X048459Y020432D01*
X048361Y020333D02*
X047420Y020333D01*
X047488Y020235D02*
X048262Y020235D01*
X048164Y020136D02*
X047525Y020136D01*
X047523Y020038D02*
X047704Y020038D01*
X047703Y019939D02*
X047480Y019939D01*
X047039Y019939D02*
X046062Y019939D01*
X046083Y020038D02*
X046996Y020038D01*
X046995Y020136D02*
X046083Y020136D01*
X046083Y020235D02*
X047031Y020235D01*
X047420Y021220D02*
X047703Y021220D01*
X047752Y021318D02*
X047420Y021318D01*
X047420Y021417D02*
X047653Y021417D01*
X047555Y021515D02*
X047420Y021515D01*
X047420Y021614D02*
X047456Y021614D01*
X047100Y021614D02*
X046083Y021614D01*
X046083Y021712D02*
X047100Y021712D01*
X047100Y021811D02*
X046083Y021811D01*
X046058Y021909D02*
X047100Y021909D01*
X047100Y022008D02*
X038175Y022008D01*
X038160Y021909D02*
X045217Y021909D01*
X045192Y021811D02*
X038097Y021811D01*
X038070Y021712D02*
X045192Y021712D01*
X045192Y021614D02*
X038070Y021614D01*
X037750Y021614D02*
X036017Y021614D01*
X035989Y021712D02*
X037750Y021712D01*
X037722Y021811D02*
X035909Y021811D01*
X035720Y021909D02*
X037659Y021909D01*
X037645Y022008D02*
X035694Y022008D01*
X035617Y022106D02*
X037668Y022106D01*
X037742Y022205D02*
X028958Y022205D01*
X028962Y022303D02*
X046873Y022303D01*
X046972Y022205D02*
X038077Y022205D01*
X038151Y022106D02*
X047070Y022106D01*
X046775Y022402D02*
X028929Y022402D01*
X028857Y022500D02*
X029526Y022500D01*
X029428Y022599D02*
X028857Y022599D01*
X028857Y022697D02*
X029329Y022697D01*
X029231Y022796D02*
X028857Y022796D01*
X028857Y022894D02*
X029132Y022894D01*
X029034Y022993D02*
X028857Y022993D01*
X028857Y023091D02*
X028935Y023091D01*
X028910Y022106D02*
X035293Y022106D01*
X036226Y021515D02*
X037750Y021515D01*
X037688Y021417D02*
X036295Y021417D01*
X036313Y021318D02*
X037590Y021318D01*
X037491Y021220D02*
X036295Y021220D01*
X037648Y020924D02*
X046203Y020924D01*
X045687Y021121D02*
X045587Y021121D01*
X045587Y021220D02*
X045687Y021220D01*
X045687Y021318D02*
X045587Y021318D01*
X045587Y021614D02*
X045687Y021614D01*
X045687Y021712D02*
X045587Y021712D01*
X045587Y021811D02*
X045687Y021811D01*
X045687Y021909D02*
X045587Y021909D01*
X045192Y020530D02*
X038524Y020530D01*
X038525Y020432D02*
X039168Y020432D01*
X039401Y020432D02*
X043127Y020432D01*
X044375Y019644D02*
X044886Y019644D01*
X045587Y019939D02*
X045687Y019939D01*
X045687Y020038D02*
X045587Y020038D01*
X045587Y020136D02*
X045687Y020136D01*
X046608Y018856D02*
X048515Y018856D01*
X048495Y018903D02*
X048578Y018703D01*
X048731Y018550D01*
X048931Y018468D01*
X049147Y018468D01*
X049347Y018550D01*
X049500Y018703D01*
X049583Y018903D01*
X049583Y019120D01*
X049500Y019319D01*
X049347Y019472D01*
X049147Y019555D01*
X048931Y019555D01*
X048731Y019472D01*
X048578Y019319D01*
X048495Y019120D01*
X048495Y018903D01*
X048495Y018954D02*
X034059Y018954D01*
X034098Y018856D02*
X042411Y018856D01*
X042312Y018757D02*
X034098Y018757D01*
X034070Y018659D02*
X042214Y018659D01*
X042115Y018560D02*
X034005Y018560D01*
X033514Y018560D02*
X024580Y018560D01*
X024580Y018659D02*
X033449Y018659D01*
X033421Y018757D02*
X024580Y018757D01*
X024580Y018856D02*
X033421Y018856D01*
X033460Y018954D02*
X024580Y018954D01*
X024580Y019053D02*
X033541Y019053D01*
X033978Y019053D02*
X048495Y019053D01*
X048508Y019151D02*
X024580Y019151D01*
X024580Y019250D02*
X048549Y019250D01*
X048607Y019348D02*
X048360Y019348D01*
X048375Y019447D02*
X048706Y019447D01*
X048907Y019545D02*
X048375Y019545D01*
X048375Y019644D02*
X051090Y019644D01*
X051091Y019645D02*
X051008Y019561D01*
X050963Y019452D01*
X050963Y019334D01*
X051008Y019225D01*
X051091Y019142D01*
X051200Y019096D01*
X051319Y019096D01*
X051428Y019142D01*
X051511Y019225D01*
X051556Y019334D01*
X051556Y019452D01*
X051511Y019561D01*
X051428Y019645D01*
X051319Y019690D01*
X051200Y019690D01*
X051091Y019645D01*
X051001Y019545D02*
X049171Y019545D01*
X049373Y019447D02*
X050963Y019447D01*
X050963Y019348D02*
X049471Y019348D01*
X049529Y019250D02*
X050998Y019250D01*
X051082Y019151D02*
X049570Y019151D01*
X049583Y019053D02*
X052108Y019053D01*
X052206Y019151D02*
X051437Y019151D01*
X051521Y019250D02*
X052305Y019250D01*
X052403Y019348D02*
X051556Y019348D01*
X051556Y019447D02*
X052502Y019447D01*
X052600Y019545D02*
X051518Y019545D01*
X051429Y019644D02*
X052699Y019644D01*
X052797Y019742D02*
X048392Y019742D01*
X048491Y019841D02*
X052896Y019841D01*
X052994Y019939D02*
X048589Y019939D01*
X048688Y020038D02*
X053093Y020038D01*
X053191Y020136D02*
X051198Y020136D01*
X051214Y020235D02*
X053290Y020235D01*
X053388Y020333D02*
X051214Y020333D01*
X051214Y020432D02*
X053487Y020432D01*
X053540Y020530D02*
X051192Y020530D01*
X051214Y020629D02*
X053540Y020629D01*
X053540Y020727D02*
X051214Y020727D01*
X051214Y020826D02*
X053540Y020826D01*
X053540Y020924D02*
X051174Y020924D01*
X051024Y021023D02*
X053540Y021023D01*
X053540Y021121D02*
X051069Y021121D01*
X051158Y021220D02*
X053540Y021220D01*
X053540Y021318D02*
X051198Y021318D01*
X051202Y021417D02*
X053540Y021417D01*
X053540Y021515D02*
X051180Y021515D01*
X051122Y021614D02*
X053540Y021614D01*
X053540Y021712D02*
X050980Y021712D01*
X050748Y021712D02*
X048344Y021712D01*
X048421Y021811D02*
X053540Y021811D01*
X053540Y021909D02*
X048425Y021909D01*
X048425Y022008D02*
X053540Y022008D01*
X053540Y022106D02*
X048089Y022106D01*
X048089Y022008D02*
X047989Y022008D01*
X047989Y021909D02*
X048089Y021909D01*
X048089Y021811D02*
X047989Y021811D01*
X047989Y021712D02*
X048089Y021712D01*
X047909Y021614D02*
X048751Y021614D01*
X049059Y021614D02*
X050605Y021614D01*
X050548Y021515D02*
X049141Y021515D01*
X049170Y021417D02*
X050526Y021417D01*
X050529Y021318D02*
X049161Y021318D01*
X049106Y021220D02*
X050570Y021220D01*
X050659Y021121D02*
X048375Y021121D01*
X048375Y021023D02*
X050704Y021023D01*
X050553Y020924D02*
X048375Y020924D01*
X048375Y020826D02*
X050514Y020826D01*
X050514Y020727D02*
X048375Y020727D01*
X048375Y020629D02*
X050514Y020629D01*
X048704Y021220D02*
X048375Y021220D01*
X048321Y020530D02*
X048558Y020530D01*
X048425Y022205D02*
X053540Y022205D01*
X053540Y022303D02*
X048425Y022303D01*
X048425Y022402D02*
X053540Y022402D01*
X053540Y022500D02*
X048412Y022500D01*
X048089Y022500D02*
X047989Y022500D01*
X047989Y022402D02*
X048089Y022402D01*
X048089Y022303D02*
X047989Y022303D01*
X047989Y022205D02*
X048089Y022205D01*
X047666Y022500D02*
X047629Y022500D01*
X047530Y022599D02*
X053540Y022599D01*
X053540Y022697D02*
X047432Y022697D01*
X047333Y022796D02*
X053540Y022796D01*
X053540Y022894D02*
X048351Y022894D01*
X048168Y022894D02*
X047235Y022894D01*
X047686Y023387D02*
X045667Y023387D01*
X044724Y024372D02*
X044353Y024372D01*
X044282Y024470D02*
X044711Y024470D01*
X044736Y024569D02*
X031254Y024569D01*
X031234Y024522D02*
X031275Y024619D01*
X031275Y024724D01*
X031234Y024822D01*
X031160Y024896D01*
X031062Y024937D01*
X030957Y024937D01*
X030859Y024896D01*
X030785Y024822D01*
X030745Y024724D01*
X030745Y024619D01*
X030785Y024522D01*
X030850Y024457D01*
X030850Y024296D01*
X030785Y024231D01*
X030745Y024134D01*
X030745Y024028D01*
X030785Y023931D01*
X030859Y023856D01*
X030957Y023816D01*
X031062Y023816D01*
X031160Y023856D01*
X031234Y023931D01*
X031275Y024028D01*
X031275Y024134D01*
X031234Y024231D01*
X031170Y024296D01*
X031170Y024457D01*
X031234Y024522D01*
X031183Y024470D02*
X043937Y024470D01*
X043866Y024372D02*
X031170Y024372D01*
X031192Y024273D02*
X043845Y024273D01*
X043861Y024175D02*
X043399Y024175D01*
X043088Y024175D02*
X031257Y024175D01*
X031275Y024076D02*
X043006Y024076D01*
X042978Y023978D02*
X031254Y023978D01*
X031183Y023879D02*
X042988Y023879D01*
X044812Y024667D02*
X031275Y024667D01*
X031257Y024766D02*
X032012Y024766D01*
X031948Y024864D02*
X031192Y024864D01*
X030827Y024864D02*
X030270Y024864D01*
X030270Y024766D02*
X030762Y024766D01*
X030745Y024667D02*
X030270Y024667D01*
X030270Y024569D02*
X030765Y024569D01*
X030836Y024470D02*
X030270Y024470D01*
X030270Y024372D02*
X030850Y024372D01*
X030827Y024273D02*
X030270Y024273D01*
X030270Y024175D02*
X030762Y024175D01*
X030745Y024076D02*
X030270Y024076D01*
X030270Y023978D02*
X030765Y023978D01*
X030836Y023879D02*
X030350Y023879D01*
X030270Y024963D02*
X031932Y024963D01*
X031954Y025061D02*
X030270Y025061D01*
X030270Y025160D02*
X032026Y025160D01*
X032245Y025258D02*
X030270Y025258D01*
X030270Y025357D02*
X032259Y025357D01*
X032322Y025455D02*
X030270Y025455D01*
X030270Y025554D02*
X031923Y025554D01*
X031824Y025652D02*
X030270Y025652D01*
X030270Y025751D02*
X031726Y025751D01*
X031627Y025849D02*
X031382Y025849D01*
X031446Y025948D02*
X031529Y025948D01*
X031012Y025849D02*
X030270Y025849D01*
X030270Y025948D02*
X030948Y025948D01*
X030932Y026046D02*
X030270Y026046D01*
X030270Y026145D02*
X030954Y026145D01*
X030977Y026243D02*
X030270Y026243D01*
X030270Y026342D02*
X030977Y026342D01*
X030977Y026440D02*
X030270Y026440D01*
X030270Y026539D02*
X030977Y026539D01*
X030977Y026637D02*
X030270Y026637D01*
X030270Y026736D02*
X030977Y026736D01*
X030977Y026834D02*
X030270Y026834D01*
X030270Y026933D02*
X030977Y026933D01*
X030977Y027031D02*
X030270Y027031D01*
X030270Y027130D02*
X030977Y027130D01*
X030977Y027228D02*
X030319Y027228D01*
X030369Y027327D02*
X030977Y027327D01*
X030977Y027425D02*
X030375Y027425D01*
X030342Y027524D02*
X030977Y027524D01*
X030977Y027622D02*
X030249Y027622D01*
X029970Y027622D02*
X029699Y027622D01*
X029792Y027524D02*
X029877Y027524D01*
X029845Y027425D02*
X029825Y027425D01*
X029819Y027327D02*
X029850Y027327D01*
X029420Y027622D02*
X029149Y027622D01*
X029242Y027524D02*
X029327Y027524D01*
X029295Y027425D02*
X029275Y027425D01*
X029269Y027327D02*
X029300Y027327D01*
X028870Y027622D02*
X028149Y027622D01*
X027870Y027622D02*
X026894Y027622D01*
X026993Y027524D02*
X027777Y027524D01*
X027745Y027425D02*
X027091Y027425D01*
X027190Y027327D02*
X027750Y027327D01*
X027800Y027228D02*
X027288Y027228D01*
X027387Y027130D02*
X027953Y027130D01*
X027952Y027031D02*
X027485Y027031D01*
X027584Y026933D02*
X027799Y026933D01*
X027750Y026834D02*
X027682Y026834D01*
X027210Y026342D02*
X026937Y026342D01*
X026839Y026440D02*
X027111Y026440D01*
X027013Y026539D02*
X026740Y026539D01*
X026642Y026637D02*
X026914Y026637D01*
X026816Y026736D02*
X026543Y026736D01*
X026573Y026706D02*
X025852Y027428D01*
X025817Y027447D01*
X025779Y027458D01*
X025740Y027458D01*
X025702Y027447D01*
X025667Y027428D01*
X024946Y026706D01*
X024225Y025985D01*
X024206Y025951D01*
X024195Y025913D01*
X024195Y025874D01*
X024206Y025835D01*
X024225Y025801D01*
X024946Y025080D01*
X025759Y025893D01*
X025760Y025893D01*
X026573Y025080D01*
X027294Y025801D01*
X027314Y025835D01*
X027324Y025874D01*
X027324Y025913D01*
X027314Y025951D01*
X027294Y025985D01*
X026573Y026706D01*
X025760Y025893D01*
X025760Y025893D01*
X026573Y025080D01*
X025852Y024359D01*
X025817Y024339D01*
X025779Y024329D01*
X025740Y024329D01*
X025702Y024339D01*
X025667Y024359D01*
X024946Y025080D01*
X025760Y025893D01*
X025760Y025893D01*
X026573Y026706D01*
X026504Y026637D02*
X026504Y026637D01*
X026405Y026539D02*
X026405Y026539D01*
X026307Y026440D02*
X026307Y026440D01*
X026208Y026342D02*
X026208Y026342D01*
X026110Y026243D02*
X026110Y026243D01*
X026011Y026145D02*
X026011Y026145D01*
X025913Y026046D02*
X025913Y026046D01*
X025814Y025948D02*
X025814Y025948D01*
X025760Y025893D02*
X025759Y025893D01*
X024946Y026706D01*
X025760Y025893D01*
X025803Y025849D02*
X025803Y025849D01*
X025716Y025849D02*
X025716Y025849D01*
X025705Y025948D02*
X025705Y025948D01*
X025606Y026046D02*
X025606Y026046D01*
X025508Y026145D02*
X025508Y026145D01*
X025409Y026243D02*
X025409Y026243D01*
X025311Y026342D02*
X025311Y026342D01*
X025212Y026440D02*
X025212Y026440D01*
X025114Y026539D02*
X025114Y026539D01*
X025015Y026637D02*
X025015Y026637D01*
X024976Y026736D02*
X023459Y026736D01*
X023459Y026834D02*
X025074Y026834D01*
X025173Y026933D02*
X023459Y026933D01*
X023459Y027031D02*
X025271Y027031D01*
X025370Y027130D02*
X023459Y027130D01*
X023459Y027228D02*
X025468Y027228D01*
X025567Y027327D02*
X023459Y027327D01*
X023459Y027425D02*
X025665Y027425D01*
X025854Y027425D02*
X026126Y027425D01*
X026225Y027327D02*
X025952Y027327D01*
X026051Y027228D02*
X026323Y027228D01*
X026422Y027130D02*
X026149Y027130D01*
X026248Y027031D02*
X026520Y027031D01*
X026619Y026933D02*
X026346Y026933D01*
X026445Y026834D02*
X026717Y026834D01*
X027036Y026243D02*
X027308Y026243D01*
X027350Y026145D02*
X027134Y026145D01*
X027233Y026046D02*
X027350Y026046D01*
X027350Y025948D02*
X027314Y025948D01*
X027317Y025849D02*
X027350Y025849D01*
X027350Y025751D02*
X027243Y025751D01*
X027145Y025652D02*
X027350Y025652D01*
X027350Y025554D02*
X027046Y025554D01*
X026948Y025455D02*
X027350Y025455D01*
X027350Y025357D02*
X026849Y025357D01*
X026751Y025258D02*
X027350Y025258D01*
X027350Y025160D02*
X026652Y025160D01*
X026554Y025061D02*
X027350Y025061D01*
X027350Y024963D02*
X026455Y024963D01*
X026357Y024864D02*
X027350Y024864D01*
X027350Y024766D02*
X026258Y024766D01*
X026160Y024667D02*
X027350Y024667D01*
X027350Y024569D02*
X026061Y024569D01*
X025963Y024470D02*
X027350Y024470D01*
X027350Y024372D02*
X025864Y024372D01*
X025655Y024372D02*
X021005Y024372D01*
X021097Y024273D02*
X027350Y024273D01*
X027350Y024175D02*
X021129Y024175D01*
X021123Y024076D02*
X027350Y024076D01*
X027350Y023978D02*
X021073Y023978D01*
X021024Y023879D02*
X027350Y023879D01*
X027350Y023781D02*
X021024Y023781D01*
X020704Y023781D02*
X018980Y023781D01*
X018980Y023879D02*
X020704Y023879D01*
X020655Y023978D02*
X018980Y023978D01*
X018980Y024076D02*
X020605Y024076D01*
X020599Y024175D02*
X018980Y024175D01*
X018980Y024273D02*
X020631Y024273D01*
X020723Y024372D02*
X018980Y024372D01*
X018980Y024470D02*
X025556Y024470D01*
X025458Y024569D02*
X018980Y024569D01*
X018980Y024667D02*
X025359Y024667D01*
X025261Y024766D02*
X018980Y024766D01*
X018980Y024864D02*
X025162Y024864D01*
X025064Y024963D02*
X018980Y024963D01*
X018980Y025061D02*
X024965Y025061D01*
X025026Y025160D02*
X025026Y025160D01*
X025125Y025258D02*
X025125Y025258D01*
X025223Y025357D02*
X025223Y025357D01*
X025322Y025455D02*
X025322Y025455D01*
X025420Y025554D02*
X025420Y025554D01*
X025519Y025652D02*
X025519Y025652D01*
X025617Y025751D02*
X025617Y025751D01*
X025902Y025751D02*
X025902Y025751D01*
X026000Y025652D02*
X026000Y025652D01*
X026099Y025554D02*
X026099Y025554D01*
X026197Y025455D02*
X026197Y025455D01*
X026296Y025357D02*
X026296Y025357D01*
X026394Y025258D02*
X026394Y025258D01*
X026493Y025160D02*
X026493Y025160D01*
X024867Y025160D02*
X018980Y025160D01*
X018980Y025258D02*
X024768Y025258D01*
X024670Y025357D02*
X018980Y025357D01*
X018980Y025455D02*
X024571Y025455D01*
X024473Y025554D02*
X018980Y025554D01*
X018980Y025652D02*
X024374Y025652D01*
X024276Y025751D02*
X018980Y025751D01*
X018980Y025849D02*
X024202Y025849D01*
X024205Y025948D02*
X018980Y025948D01*
X018980Y026046D02*
X024286Y026046D01*
X024385Y026145D02*
X023331Y026145D01*
X023464Y026243D02*
X024483Y026243D01*
X024582Y026342D02*
X023504Y026342D01*
X023504Y026440D02*
X024680Y026440D01*
X024779Y026539D02*
X023465Y026539D01*
X023459Y026637D02*
X024877Y026637D01*
X024782Y027524D02*
X023459Y027524D01*
X023529Y027622D02*
X024658Y027622D01*
X024620Y027721D02*
X023628Y027721D01*
X023726Y027819D02*
X024448Y027819D01*
X024571Y027819D02*
X024620Y027819D01*
X024298Y027918D02*
X023825Y027918D01*
X023923Y028016D02*
X024249Y028016D01*
X024245Y028115D02*
X024022Y028115D01*
X024120Y028213D02*
X024278Y028213D01*
X024219Y028312D02*
X024375Y028312D01*
X024317Y028410D02*
X030977Y028410D01*
X030977Y028312D02*
X024644Y028312D01*
X024416Y028509D02*
X030895Y028509D01*
X030797Y028607D02*
X025556Y028607D01*
X025254Y028607D02*
X024514Y028607D01*
X024987Y027524D02*
X026028Y027524D01*
X026500Y028016D02*
X030977Y028016D01*
X030977Y027918D02*
X026599Y027918D01*
X026697Y027819D02*
X030977Y027819D01*
X030977Y027721D02*
X026796Y027721D01*
X026402Y028115D02*
X030977Y028115D01*
X030977Y028213D02*
X026303Y028213D01*
X024839Y029983D02*
X032193Y029983D01*
X032600Y029577D01*
X032600Y028027D01*
X032693Y027933D01*
X032695Y027932D01*
X032695Y027841D01*
X032735Y027743D01*
X032809Y027669D01*
X032907Y027628D01*
X033012Y027628D01*
X033100Y027664D01*
X033100Y027608D01*
X033035Y027543D01*
X032995Y027446D01*
X032995Y027393D01*
X032260Y027393D01*
X032260Y029293D01*
X031660Y029893D01*
X021760Y029893D01*
X021760Y032628D01*
X021812Y032628D01*
X021910Y032669D01*
X021914Y032673D01*
X028605Y032673D01*
X028609Y032669D01*
X028707Y032628D01*
X028812Y032628D01*
X028910Y032669D01*
X028914Y032673D01*
X034665Y032673D01*
X034665Y027393D01*
X033525Y027393D01*
X033525Y027446D01*
X033484Y027543D01*
X033420Y027608D01*
X033420Y028164D01*
X033507Y028128D01*
X033612Y028128D01*
X033710Y028169D01*
X033784Y028243D01*
X033825Y028341D01*
X033825Y028446D01*
X033784Y028543D01*
X033720Y028608D01*
X033720Y030422D01*
X032932Y031210D01*
X032838Y031303D01*
X032329Y031303D01*
X032264Y031368D01*
X032167Y031408D01*
X032061Y031408D01*
X031964Y031368D01*
X031889Y031293D01*
X031849Y031196D01*
X031849Y031091D01*
X031889Y030993D01*
X031964Y030919D01*
X032061Y030878D01*
X032167Y030878D01*
X032264Y030919D01*
X032329Y030983D01*
X032706Y030983D01*
X033400Y030290D01*
X033400Y030230D01*
X033326Y030303D01*
X032920Y030710D01*
X032826Y030803D01*
X031971Y030803D01*
X031670Y031105D01*
X031670Y031196D01*
X031630Y031293D01*
X031555Y031368D01*
X031458Y031408D01*
X031352Y031408D01*
X031255Y031368D01*
X031181Y031293D01*
X031140Y031196D01*
X031140Y031091D01*
X031181Y030993D01*
X031255Y030919D01*
X031352Y030878D01*
X031444Y030878D01*
X031769Y030553D01*
X025680Y030553D01*
X025379Y030855D01*
X025379Y030946D01*
X025339Y031043D01*
X025264Y031118D01*
X025167Y031158D01*
X025061Y031158D01*
X024964Y031118D01*
X024889Y031043D01*
X024849Y030946D01*
X024849Y030841D01*
X024889Y030743D01*
X024964Y030669D01*
X025061Y030628D01*
X025153Y030628D01*
X025454Y030327D01*
X025478Y030303D01*
X024971Y030303D01*
X024581Y030694D01*
X024630Y030743D01*
X024670Y030841D01*
X024670Y030946D01*
X024630Y031043D01*
X024555Y031118D01*
X024458Y031158D01*
X024352Y031158D01*
X024255Y031118D01*
X024181Y031043D01*
X024140Y030946D01*
X024140Y030841D01*
X024181Y030743D01*
X024245Y030679D01*
X024245Y030577D01*
X024745Y030077D01*
X024839Y029983D01*
X024836Y029986D02*
X021760Y029986D01*
X021760Y030085D02*
X024737Y030085D01*
X024639Y030183D02*
X021760Y030183D01*
X021760Y030282D02*
X024540Y030282D01*
X024442Y030380D02*
X021760Y030380D01*
X021760Y030479D02*
X024343Y030479D01*
X024245Y030577D02*
X021760Y030577D01*
X021760Y030676D02*
X024245Y030676D01*
X024168Y030774D02*
X021760Y030774D01*
X021760Y030873D02*
X024140Y030873D01*
X024151Y030971D02*
X021760Y030971D01*
X021760Y031070D02*
X024207Y031070D01*
X024603Y031070D02*
X024916Y031070D01*
X024859Y030971D02*
X024660Y030971D01*
X024670Y030873D02*
X024849Y030873D01*
X024876Y030774D02*
X024643Y030774D01*
X024599Y030676D02*
X024957Y030676D01*
X024796Y030479D02*
X025302Y030479D01*
X025204Y030577D02*
X024697Y030577D01*
X024894Y030380D02*
X025401Y030380D01*
X025656Y030577D02*
X031745Y030577D01*
X031646Y030676D02*
X025558Y030676D01*
X025459Y030774D02*
X031548Y030774D01*
X031449Y030873D02*
X025379Y030873D01*
X025368Y030971D02*
X031202Y030971D01*
X031149Y031070D02*
X025312Y031070D01*
X025439Y031593D02*
X026585Y031593D01*
X026535Y031543D01*
X026495Y031446D01*
X026495Y031341D01*
X026535Y031243D01*
X026609Y031169D01*
X026707Y031128D01*
X026812Y031128D01*
X026910Y031169D01*
X026984Y031243D01*
X027025Y031341D01*
X027025Y031446D01*
X026984Y031543D01*
X026934Y031593D01*
X027280Y031593D01*
X027310Y031623D01*
X027310Y032214D01*
X027280Y032243D01*
X025439Y032243D01*
X025410Y032214D01*
X025410Y031623D01*
X025439Y031593D01*
X025410Y031661D02*
X024110Y031661D01*
X024110Y031623D02*
X024110Y032214D01*
X024080Y032243D01*
X022239Y032243D01*
X022210Y032214D01*
X022210Y031623D01*
X022239Y031593D01*
X022585Y031593D01*
X022535Y031543D01*
X022495Y031446D01*
X022495Y031341D01*
X022535Y031243D01*
X022609Y031169D01*
X022707Y031128D01*
X022812Y031128D01*
X022910Y031169D01*
X022984Y031243D01*
X023025Y031341D01*
X023025Y031446D01*
X022984Y031543D01*
X022934Y031593D01*
X024080Y031593D01*
X024110Y031623D01*
X024110Y031759D02*
X025410Y031759D01*
X025410Y031858D02*
X024110Y031858D01*
X024110Y031956D02*
X025410Y031956D01*
X025410Y032055D02*
X024110Y032055D01*
X024110Y032153D02*
X025410Y032153D01*
X026502Y031464D02*
X023017Y031464D01*
X023025Y031365D02*
X026495Y031365D01*
X026525Y031267D02*
X022994Y031267D01*
X022909Y031168D02*
X026610Y031168D01*
X026909Y031168D02*
X029610Y031168D01*
X029609Y031169D02*
X029707Y031128D01*
X029812Y031128D01*
X029910Y031169D01*
X029984Y031243D01*
X030025Y031341D01*
X030025Y031446D01*
X029984Y031543D01*
X029934Y031593D01*
X031080Y031593D01*
X031110Y031623D01*
X031110Y032214D01*
X031080Y032243D01*
X029239Y032243D01*
X029210Y032214D01*
X029210Y031623D01*
X029239Y031593D01*
X029585Y031593D01*
X029535Y031543D01*
X029495Y031446D01*
X029495Y031341D01*
X029535Y031243D01*
X029609Y031169D01*
X029525Y031267D02*
X026994Y031267D01*
X027025Y031365D02*
X029495Y031365D01*
X029502Y031464D02*
X027017Y031464D01*
X026965Y031562D02*
X029554Y031562D01*
X029210Y031661D02*
X027310Y031661D01*
X027310Y031759D02*
X029210Y031759D01*
X029210Y031858D02*
X027310Y031858D01*
X027310Y031956D02*
X029210Y031956D01*
X029210Y032055D02*
X027310Y032055D01*
X027310Y032153D02*
X029210Y032153D01*
X028855Y032646D02*
X034665Y032646D01*
X034665Y032547D02*
X021760Y032547D01*
X021760Y032449D02*
X034665Y032449D01*
X034665Y032350D02*
X021760Y032350D01*
X021760Y032252D02*
X034665Y032252D01*
X034665Y032153D02*
X034310Y032153D01*
X034310Y032214D02*
X034280Y032243D01*
X032439Y032243D01*
X032410Y032214D01*
X032410Y031623D01*
X032439Y031593D01*
X033585Y031593D01*
X033535Y031543D01*
X033495Y031446D01*
X033495Y031341D01*
X033535Y031243D01*
X033609Y031169D01*
X033707Y031128D01*
X033812Y031128D01*
X033910Y031169D01*
X033984Y031243D01*
X034025Y031341D01*
X034025Y031446D01*
X033984Y031543D01*
X033934Y031593D01*
X034280Y031593D01*
X034310Y031623D01*
X034310Y032214D01*
X034310Y032055D02*
X034665Y032055D01*
X034665Y031956D02*
X034310Y031956D01*
X034310Y031858D02*
X034665Y031858D01*
X034665Y031759D02*
X034310Y031759D01*
X034310Y031661D02*
X034665Y031661D01*
X034665Y031562D02*
X033965Y031562D01*
X034017Y031464D02*
X034665Y031464D01*
X034665Y031365D02*
X034025Y031365D01*
X033994Y031267D02*
X034665Y031267D01*
X034665Y031168D02*
X033909Y031168D01*
X033610Y031168D02*
X032973Y031168D01*
X032875Y031267D02*
X033525Y031267D01*
X033495Y031365D02*
X032267Y031365D01*
X031961Y031365D02*
X031558Y031365D01*
X031641Y031267D02*
X031878Y031267D01*
X031849Y031168D02*
X031670Y031168D01*
X031705Y031070D02*
X031857Y031070D01*
X031803Y030971D02*
X031911Y030971D01*
X031902Y030873D02*
X032816Y030873D01*
X032855Y030774D02*
X032915Y030774D01*
X032920Y030710D02*
X032920Y030710D01*
X032953Y030676D02*
X033013Y030676D01*
X033052Y030577D02*
X033112Y030577D01*
X033150Y030479D02*
X033210Y030479D01*
X033249Y030380D02*
X033309Y030380D01*
X033326Y030303D02*
X033326Y030303D01*
X033347Y030282D02*
X033400Y030282D01*
X033720Y030282D02*
X034665Y030282D01*
X034665Y030380D02*
X033720Y030380D01*
X033663Y030479D02*
X034665Y030479D01*
X034665Y030577D02*
X033564Y030577D01*
X033466Y030676D02*
X034665Y030676D01*
X034665Y030774D02*
X033367Y030774D01*
X033269Y030873D02*
X034665Y030873D01*
X034665Y030971D02*
X033170Y030971D01*
X033072Y031070D02*
X034665Y031070D01*
X034665Y030183D02*
X033720Y030183D01*
X033720Y030085D02*
X034665Y030085D01*
X034665Y029986D02*
X033720Y029986D01*
X033720Y029888D02*
X034665Y029888D01*
X034665Y029789D02*
X033720Y029789D01*
X033720Y029691D02*
X034665Y029691D01*
X034665Y029592D02*
X033720Y029592D01*
X033720Y029494D02*
X034665Y029494D01*
X034665Y029395D02*
X033720Y029395D01*
X033720Y029297D02*
X034665Y029297D01*
X034665Y029198D02*
X033720Y029198D01*
X033720Y029100D02*
X034665Y029100D01*
X034665Y029001D02*
X033720Y029001D01*
X033720Y028903D02*
X034665Y028903D01*
X034665Y028804D02*
X033720Y028804D01*
X033720Y028706D02*
X034665Y028706D01*
X034665Y028607D02*
X033720Y028607D01*
X033798Y028509D02*
X034665Y028509D01*
X034665Y028410D02*
X033825Y028410D01*
X033813Y028312D02*
X034665Y028312D01*
X034665Y028213D02*
X033754Y028213D01*
X033420Y028115D02*
X034665Y028115D01*
X034665Y028016D02*
X033420Y028016D01*
X033420Y027918D02*
X034665Y027918D01*
X034665Y027819D02*
X033420Y027819D01*
X033420Y027721D02*
X034665Y027721D01*
X034665Y027622D02*
X033420Y027622D01*
X033492Y027524D02*
X034665Y027524D01*
X034665Y027425D02*
X033525Y027425D01*
X033100Y027622D02*
X032260Y027622D01*
X032260Y027524D02*
X033027Y027524D01*
X032995Y027425D02*
X032260Y027425D01*
X032260Y027721D02*
X032757Y027721D01*
X032703Y027819D02*
X032260Y027819D01*
X032260Y027918D02*
X032695Y027918D01*
X032610Y028016D02*
X032260Y028016D01*
X032260Y028115D02*
X032600Y028115D01*
X032600Y028213D02*
X032260Y028213D01*
X032260Y028312D02*
X032600Y028312D01*
X032600Y028410D02*
X032260Y028410D01*
X032260Y028509D02*
X032600Y028509D01*
X032600Y028607D02*
X032260Y028607D01*
X032260Y028706D02*
X032600Y028706D01*
X032600Y028804D02*
X032260Y028804D01*
X032260Y028903D02*
X032600Y028903D01*
X032600Y029001D02*
X032260Y029001D01*
X032260Y029100D02*
X032600Y029100D01*
X032600Y029198D02*
X032260Y029198D01*
X032256Y029297D02*
X032600Y029297D01*
X032600Y029395D02*
X032157Y029395D01*
X032059Y029494D02*
X032600Y029494D01*
X032584Y029592D02*
X031960Y029592D01*
X031862Y029691D02*
X032486Y029691D01*
X032387Y029789D02*
X031763Y029789D01*
X031665Y029888D02*
X032289Y029888D01*
X031706Y029297D02*
X031582Y029297D01*
X031607Y029395D02*
X031484Y029395D01*
X031509Y029494D02*
X031385Y029494D01*
X031410Y029592D02*
X020287Y029592D01*
X020188Y029691D02*
X020760Y029691D01*
X020760Y029789D02*
X020170Y029789D01*
X020170Y029888D02*
X020760Y029888D01*
X020760Y029986D02*
X020170Y029986D01*
X020170Y030085D02*
X020760Y030085D01*
X020760Y030183D02*
X020170Y030183D01*
X020170Y030282D02*
X020760Y030282D01*
X020760Y030380D02*
X020170Y030380D01*
X020170Y030479D02*
X020760Y030479D01*
X020760Y030577D02*
X020170Y030577D01*
X020170Y030676D02*
X020760Y030676D01*
X020760Y030774D02*
X020170Y030774D01*
X020170Y030873D02*
X020760Y030873D01*
X020760Y030971D02*
X020170Y030971D01*
X020170Y031070D02*
X020760Y031070D01*
X020760Y031168D02*
X020170Y031168D01*
X020170Y031267D02*
X020760Y031267D01*
X020760Y031365D02*
X020170Y031365D01*
X020170Y031464D02*
X020760Y031464D01*
X020760Y031562D02*
X020170Y031562D01*
X020170Y031661D02*
X020760Y031661D01*
X020760Y031759D02*
X020087Y031759D01*
X019988Y031858D02*
X020760Y031858D01*
X020760Y031956D02*
X019890Y031956D01*
X019733Y031661D02*
X019556Y031661D01*
X019556Y031562D02*
X019831Y031562D01*
X019850Y031464D02*
X019556Y031464D01*
X019556Y031365D02*
X019850Y031365D01*
X019850Y031267D02*
X019556Y031267D01*
X019556Y031168D02*
X019850Y031168D01*
X019850Y031070D02*
X019532Y031070D01*
X019510Y030873D02*
X019850Y030873D01*
X019850Y030971D02*
X018908Y030971D01*
X018920Y030873D02*
X019009Y030873D01*
X018963Y030774D02*
X018920Y030774D01*
X018920Y030676D02*
X018963Y030676D01*
X018963Y030577D02*
X018920Y030577D01*
X018920Y030479D02*
X018963Y030479D01*
X018963Y030380D02*
X018920Y030380D01*
X018920Y030282D02*
X018963Y030282D01*
X018963Y030183D02*
X018920Y030183D01*
X018920Y030085D02*
X018963Y030085D01*
X018963Y029986D02*
X018920Y029986D01*
X018920Y029888D02*
X018963Y029888D01*
X018963Y029789D02*
X018920Y029789D01*
X018920Y029691D02*
X018963Y029691D01*
X018963Y029592D02*
X018920Y029592D01*
X018920Y029494D02*
X018963Y029494D01*
X018963Y029395D02*
X018920Y029395D01*
X018920Y029297D02*
X018963Y029297D01*
X018931Y029198D02*
X019791Y029198D01*
X019889Y029100D02*
X019029Y029100D01*
X019556Y029297D02*
X019692Y029297D01*
X019600Y029395D02*
X019556Y029395D01*
X019556Y029494D02*
X019600Y029494D01*
X019600Y029592D02*
X019556Y029592D01*
X019556Y029691D02*
X019600Y029691D01*
X019810Y029986D02*
X019850Y029986D01*
X019850Y030085D02*
X019711Y030085D01*
X019613Y030183D02*
X019850Y030183D01*
X019850Y030282D02*
X019556Y030282D01*
X019556Y030380D02*
X019850Y030380D01*
X019850Y030479D02*
X019556Y030479D01*
X019556Y030577D02*
X019850Y030577D01*
X019850Y030676D02*
X019556Y030676D01*
X019556Y030774D02*
X019850Y030774D01*
X018987Y031070D02*
X018809Y031070D01*
X018711Y031168D02*
X018963Y031168D01*
X018963Y031267D02*
X018612Y031267D01*
X018556Y031365D02*
X018963Y031365D01*
X018963Y031464D02*
X018556Y031464D01*
X018556Y031562D02*
X018963Y031562D01*
X018963Y031661D02*
X018556Y031661D01*
X018556Y031759D02*
X018963Y031759D01*
X018963Y031858D02*
X018556Y031858D01*
X018556Y031956D02*
X018963Y031956D01*
X018963Y032055D02*
X018556Y032055D01*
X018556Y032153D02*
X018963Y032153D01*
X018963Y032252D02*
X018556Y032252D01*
X018556Y032350D02*
X018963Y032350D01*
X018963Y032449D02*
X018556Y032449D01*
X018556Y032547D02*
X018963Y032547D01*
X018982Y032646D02*
X018537Y032646D01*
X017982Y032646D02*
X017537Y032646D01*
X017556Y032547D02*
X017963Y032547D01*
X017963Y032449D02*
X017556Y032449D01*
X017556Y032350D02*
X017963Y032350D01*
X017963Y032252D02*
X017556Y032252D01*
X017556Y032153D02*
X017963Y032153D01*
X017963Y032055D02*
X017556Y032055D01*
X017556Y031956D02*
X017963Y031956D01*
X017963Y031858D02*
X017573Y031858D01*
X017672Y031759D02*
X017963Y031759D01*
X017963Y031661D02*
X017770Y031661D01*
X017869Y031562D02*
X017963Y031562D01*
X017540Y031070D02*
X017532Y031070D01*
X017540Y030971D02*
X016435Y030971D01*
X016435Y030873D02*
X016940Y030873D01*
X016913Y030774D02*
X016435Y030774D01*
X016435Y030676D02*
X016913Y030676D01*
X016913Y030577D02*
X016435Y030577D01*
X016435Y030479D02*
X016913Y030479D01*
X016913Y030380D02*
X016435Y030380D01*
X016435Y030282D02*
X016913Y030282D01*
X016913Y030183D02*
X016435Y030183D01*
X016435Y030085D02*
X017211Y030085D01*
X017211Y030183D02*
X017308Y030183D01*
X017308Y030282D02*
X017211Y030282D01*
X017211Y030380D02*
X017308Y030380D01*
X017308Y030479D02*
X017211Y030479D01*
X017211Y030577D02*
X017308Y030577D01*
X017308Y030676D02*
X017211Y030676D01*
X017211Y030774D02*
X017308Y030774D01*
X017308Y030873D02*
X017211Y030873D01*
X016987Y031070D02*
X016435Y031070D01*
X016435Y031168D02*
X016963Y031168D01*
X016963Y031267D02*
X016435Y031267D01*
X016435Y031365D02*
X016963Y031365D01*
X016963Y031464D02*
X016435Y031464D01*
X016435Y031562D02*
X016963Y031562D01*
X016963Y031661D02*
X016435Y031661D01*
X016435Y031759D02*
X016963Y031759D01*
X016963Y031858D02*
X016435Y031858D01*
X016435Y031956D02*
X016963Y031956D01*
X016963Y032055D02*
X016435Y032055D01*
X016435Y032153D02*
X016963Y032153D01*
X016963Y032252D02*
X016435Y032252D01*
X016435Y032350D02*
X016963Y032350D01*
X016963Y032449D02*
X016435Y032449D01*
X016435Y032547D02*
X016963Y032547D01*
X016982Y032646D02*
X016435Y032646D01*
X016435Y032744D02*
X020760Y032744D01*
X020760Y032646D02*
X019537Y032646D01*
X019556Y032547D02*
X020760Y032547D01*
X020760Y032449D02*
X019556Y032449D01*
X019556Y032350D02*
X020760Y032350D01*
X020760Y032252D02*
X019556Y032252D01*
X019556Y032153D02*
X020760Y032153D01*
X020760Y032055D02*
X019556Y032055D01*
X019319Y033096D02*
X019428Y033142D01*
X019511Y033225D01*
X019556Y033334D01*
X019556Y033452D01*
X019511Y033561D01*
X019428Y033645D01*
X019319Y033690D01*
X019200Y033690D01*
X019091Y033645D01*
X019008Y033561D01*
X018963Y033452D01*
X018963Y033334D01*
X019008Y033225D01*
X019091Y033142D01*
X019200Y033096D01*
X019319Y033096D01*
X019420Y033138D02*
X020760Y033138D01*
X020760Y033040D02*
X016435Y033040D01*
X016435Y033138D02*
X019099Y033138D01*
X019003Y033237D02*
X016435Y033237D01*
X016435Y033335D02*
X018963Y033335D01*
X018963Y033434D02*
X016435Y033434D01*
X016435Y033532D02*
X018996Y033532D01*
X019077Y033631D02*
X016435Y033631D01*
X016435Y033729D02*
X020760Y033729D01*
X020760Y033631D02*
X019442Y033631D01*
X019523Y033532D02*
X020760Y033532D01*
X020760Y033434D02*
X019556Y033434D01*
X019556Y033335D02*
X020760Y033335D01*
X020760Y033237D02*
X019516Y033237D01*
X020760Y032941D02*
X016435Y032941D01*
X016435Y032843D02*
X020760Y032843D01*
X020760Y033828D02*
X016435Y033828D01*
X016435Y033926D02*
X020760Y033926D01*
X020760Y034025D02*
X016435Y034025D01*
X016435Y034123D02*
X020760Y034123D01*
X020760Y034222D02*
X016435Y034222D01*
X016435Y034320D02*
X017444Y034320D01*
X017391Y034342D02*
X017630Y034243D01*
X017889Y034243D01*
X018128Y034342D01*
X018311Y034525D01*
X018410Y034764D01*
X018410Y035023D01*
X018311Y035262D01*
X018128Y035444D01*
X017889Y035543D01*
X017630Y035543D01*
X017391Y035444D01*
X017208Y035262D01*
X017110Y035023D01*
X017110Y034764D01*
X017208Y034525D01*
X017391Y034342D01*
X017315Y034419D02*
X016435Y034419D01*
X016435Y034517D02*
X017216Y034517D01*
X017171Y034616D02*
X016435Y034616D01*
X016435Y034714D02*
X017130Y034714D01*
X017110Y034813D02*
X016435Y034813D01*
X016436Y034911D02*
X017110Y034911D01*
X017110Y035010D02*
X016442Y035010D01*
X016457Y035108D02*
X017145Y035108D01*
X017186Y035207D02*
X016484Y035207D01*
X016510Y035305D02*
X017252Y035305D01*
X017351Y035404D02*
X016537Y035404D01*
X016594Y035502D02*
X017531Y035502D01*
X017988Y035502D02*
X020760Y035502D01*
X020760Y035404D02*
X018168Y035404D01*
X018267Y035305D02*
X020760Y035305D01*
X020760Y035207D02*
X018333Y035207D01*
X018374Y035108D02*
X020760Y035108D01*
X020760Y035010D02*
X018410Y035010D01*
X018410Y034911D02*
X020760Y034911D01*
X020760Y034813D02*
X018410Y034813D01*
X018389Y034714D02*
X020760Y034714D01*
X020760Y034616D02*
X018348Y034616D01*
X018303Y034517D02*
X020760Y034517D01*
X020760Y034419D02*
X018204Y034419D01*
X018075Y034320D02*
X020760Y034320D01*
X021760Y034320D02*
X034040Y034320D01*
X034040Y034222D02*
X021802Y034222D01*
X021788Y034236D02*
X021760Y034248D01*
X021760Y036218D01*
X048760Y036218D01*
X048760Y034248D01*
X048731Y034236D01*
X048578Y034083D01*
X048495Y033883D01*
X048495Y033667D01*
X048578Y033467D01*
X048731Y033314D01*
X048760Y033302D01*
X048760Y029893D01*
X038860Y029893D01*
X038260Y029293D01*
X038260Y027393D01*
X037736Y027393D01*
X038076Y027733D01*
X038170Y027827D01*
X038170Y029577D01*
X038576Y029983D01*
X044971Y029983D01*
X045471Y030483D01*
X045565Y030577D01*
X045565Y030679D01*
X045630Y030743D01*
X045670Y030841D01*
X045670Y030946D01*
X045630Y031043D01*
X045555Y031118D01*
X045458Y031158D01*
X045352Y031158D01*
X045255Y031118D01*
X045181Y031043D01*
X045170Y031017D01*
X045170Y031202D01*
X045201Y031233D01*
X045923Y031233D01*
X045954Y031202D01*
X045954Y031108D01*
X045889Y031043D01*
X045849Y030946D01*
X045849Y030841D01*
X045889Y030743D01*
X045964Y030669D01*
X046061Y030628D01*
X046167Y030628D01*
X046264Y030669D01*
X046339Y030743D01*
X046379Y030841D01*
X046379Y030946D01*
X046339Y031043D01*
X046274Y031108D01*
X046274Y031335D01*
X046180Y031428D01*
X046055Y031553D01*
X045068Y031553D01*
X044975Y031460D01*
X044850Y031335D01*
X044850Y030960D01*
X044443Y030553D01*
X038193Y030553D01*
X038100Y030460D01*
X037670Y030030D01*
X037670Y030040D01*
X038286Y030656D01*
X038352Y030628D01*
X038458Y030628D01*
X038555Y030669D01*
X038630Y030743D01*
X038670Y030841D01*
X038670Y030946D01*
X038630Y031043D01*
X038555Y031118D01*
X038458Y031158D01*
X038352Y031158D01*
X038255Y031118D01*
X038181Y031043D01*
X038152Y030975D01*
X038137Y030960D01*
X037350Y030172D01*
X037350Y028710D01*
X037298Y028658D01*
X037207Y028658D01*
X037109Y028618D01*
X037035Y028543D01*
X036995Y028446D01*
X036995Y028341D01*
X037035Y028243D01*
X037109Y028169D01*
X037207Y028128D01*
X037268Y028128D01*
X037209Y028069D01*
X037160Y028118D01*
X037062Y028158D01*
X036957Y028158D01*
X036859Y028118D01*
X036785Y028043D01*
X036745Y027946D01*
X036745Y027841D01*
X036785Y027743D01*
X036859Y027669D01*
X036957Y027628D01*
X037062Y027628D01*
X037160Y027669D01*
X037224Y027733D01*
X037326Y027733D01*
X037826Y028233D01*
X037850Y028257D01*
X037850Y027960D01*
X037459Y027569D01*
X037410Y027618D01*
X037312Y027658D01*
X037207Y027658D01*
X037109Y027618D01*
X037035Y027543D01*
X036995Y027446D01*
X036995Y027393D01*
X035917Y027393D01*
X035917Y031927D01*
X036130Y032140D01*
X036130Y032739D01*
X036134Y032743D01*
X036175Y032841D01*
X036175Y032946D01*
X036134Y033043D01*
X036060Y033118D01*
X035962Y033158D01*
X035857Y033158D01*
X035759Y033118D01*
X035685Y033043D01*
X035645Y032946D01*
X035645Y032841D01*
X035685Y032743D01*
X035690Y032739D01*
X035690Y032322D01*
X035594Y032226D01*
X035594Y034327D01*
X035794Y034527D01*
X035794Y034679D01*
X035858Y034743D01*
X035899Y034841D01*
X035899Y034946D01*
X035858Y035043D01*
X035784Y035118D01*
X035686Y035158D01*
X035581Y035158D01*
X035483Y035118D01*
X035409Y035043D01*
X035369Y034946D01*
X035369Y034841D01*
X035409Y034743D01*
X035474Y034679D01*
X035474Y034660D01*
X035367Y034553D01*
X035274Y034460D01*
X035274Y034456D01*
X035263Y034466D01*
X035048Y034681D01*
X035110Y034743D01*
X035150Y034841D01*
X035150Y034946D01*
X035110Y035043D01*
X035036Y035118D01*
X034938Y035158D01*
X034833Y035158D01*
X034735Y035118D01*
X034661Y035043D01*
X034620Y034946D01*
X034620Y034841D01*
X034661Y034743D01*
X034725Y034679D01*
X034725Y034551D01*
X035037Y034240D01*
X035037Y033117D01*
X035036Y033118D01*
X034938Y033158D01*
X034833Y033158D01*
X034735Y033118D01*
X034731Y033113D01*
X034480Y033113D01*
X034480Y035052D01*
X034601Y035173D01*
X042605Y035173D01*
X042609Y035169D01*
X042707Y035128D01*
X042812Y035128D01*
X042910Y035169D01*
X042984Y035243D01*
X043025Y035341D01*
X043025Y035446D01*
X042984Y035543D01*
X042910Y035618D01*
X042812Y035658D01*
X042707Y035658D01*
X042609Y035618D01*
X042605Y035613D01*
X041310Y035613D01*
X041310Y036164D01*
X041280Y036193D01*
X039439Y036193D01*
X039410Y036164D01*
X039410Y035613D01*
X038110Y035613D01*
X038110Y036164D01*
X038080Y036193D01*
X036239Y036193D01*
X036210Y036164D01*
X036210Y035613D01*
X034418Y035613D01*
X034168Y035363D01*
X034040Y035234D01*
X034040Y033113D01*
X028914Y033113D01*
X028910Y033118D01*
X028812Y033158D01*
X028707Y033158D01*
X028609Y033118D01*
X028605Y033113D01*
X021914Y033113D01*
X021910Y033118D01*
X021812Y033158D01*
X021760Y033158D01*
X021760Y033302D01*
X021788Y033314D01*
X021941Y033467D01*
X022024Y033667D01*
X022024Y033883D01*
X021941Y034083D01*
X021788Y034236D01*
X021901Y034123D02*
X034040Y034123D01*
X034040Y034025D02*
X021965Y034025D01*
X022006Y033926D02*
X034040Y033926D01*
X034040Y033828D02*
X022024Y033828D01*
X022024Y033729D02*
X034040Y033729D01*
X034040Y033631D02*
X022009Y033631D01*
X021968Y033532D02*
X034040Y033532D01*
X034040Y033434D02*
X021908Y033434D01*
X021809Y033335D02*
X034040Y033335D01*
X034040Y033237D02*
X021760Y033237D01*
X021860Y033138D02*
X028659Y033138D01*
X028860Y033138D02*
X034040Y033138D01*
X034480Y033138D02*
X034785Y033138D01*
X034986Y033138D02*
X035037Y033138D01*
X035037Y033237D02*
X034480Y033237D01*
X034480Y033335D02*
X035037Y033335D01*
X035037Y033434D02*
X034480Y033434D01*
X034480Y033532D02*
X035037Y033532D01*
X035037Y033631D02*
X034480Y033631D01*
X034480Y033729D02*
X035037Y033729D01*
X035037Y033828D02*
X034480Y033828D01*
X034480Y033926D02*
X035037Y033926D01*
X035037Y034025D02*
X034480Y034025D01*
X034480Y034123D02*
X035037Y034123D01*
X035037Y034222D02*
X034480Y034222D01*
X034480Y034320D02*
X034956Y034320D01*
X034858Y034419D02*
X034480Y034419D01*
X034480Y034517D02*
X034759Y034517D01*
X034725Y034616D02*
X034480Y034616D01*
X034480Y034714D02*
X034690Y034714D01*
X034632Y034813D02*
X034480Y034813D01*
X034480Y034911D02*
X034620Y034911D01*
X034647Y035010D02*
X034480Y035010D01*
X034536Y035108D02*
X034726Y035108D01*
X035045Y035108D02*
X035474Y035108D01*
X035395Y035010D02*
X035124Y035010D01*
X035150Y034911D02*
X035369Y034911D01*
X035380Y034813D02*
X035139Y034813D01*
X035081Y034714D02*
X035438Y034714D01*
X035430Y034616D02*
X035113Y034616D01*
X035212Y034517D02*
X035331Y034517D01*
X035594Y034320D02*
X048760Y034320D01*
X048760Y034419D02*
X035685Y034419D01*
X035784Y034517D02*
X048760Y034517D01*
X048760Y034616D02*
X035794Y034616D01*
X035829Y034714D02*
X048760Y034714D01*
X048760Y034813D02*
X035887Y034813D01*
X035899Y034911D02*
X048760Y034911D01*
X048760Y035010D02*
X035872Y035010D01*
X035793Y035108D02*
X048760Y035108D01*
X048760Y035207D02*
X042948Y035207D01*
X043010Y035305D02*
X048760Y035305D01*
X048760Y035404D02*
X043025Y035404D01*
X043001Y035502D02*
X048760Y035502D01*
X048760Y035601D02*
X048310Y035601D01*
X048310Y035573D02*
X048310Y036164D01*
X048280Y036193D01*
X046439Y036193D01*
X046410Y036164D01*
X046410Y035573D01*
X046439Y035543D01*
X048280Y035543D01*
X048310Y035573D01*
X048310Y035699D02*
X048760Y035699D01*
X048760Y035798D02*
X048310Y035798D01*
X048310Y035896D02*
X048760Y035896D01*
X048760Y035995D02*
X048310Y035995D01*
X048310Y036093D02*
X048760Y036093D01*
X048760Y036192D02*
X048282Y036192D01*
X049760Y036192D02*
X052989Y036192D01*
X053308Y036093D02*
X049760Y036093D01*
X049760Y035995D02*
X053479Y035995D01*
X053614Y035896D02*
X049760Y035896D01*
X049760Y035798D02*
X053713Y035798D01*
X053811Y035699D02*
X049760Y035699D01*
X049760Y035601D02*
X053868Y035601D01*
X053925Y035502D02*
X052988Y035502D01*
X052889Y035543D02*
X052630Y035543D01*
X052391Y035444D01*
X052208Y035262D01*
X052110Y035023D01*
X052110Y034764D01*
X052208Y034525D01*
X052391Y034342D01*
X052630Y034243D01*
X052889Y034243D01*
X053128Y034342D01*
X053311Y034525D01*
X053410Y034764D01*
X053410Y035023D01*
X053311Y035262D01*
X053128Y035444D01*
X052889Y035543D01*
X053168Y035404D02*
X053982Y035404D01*
X054009Y035305D02*
X053267Y035305D01*
X053333Y035207D02*
X054036Y035207D01*
X054062Y035108D02*
X053374Y035108D01*
X053410Y035010D02*
X054077Y035010D01*
X054083Y034911D02*
X053410Y034911D01*
X053410Y034813D02*
X054085Y034813D01*
X054085Y034714D02*
X053389Y034714D01*
X053348Y034616D02*
X054085Y034616D01*
X054085Y034517D02*
X053303Y034517D01*
X053204Y034419D02*
X054085Y034419D01*
X054085Y034320D02*
X053075Y034320D01*
X052444Y034320D02*
X049760Y034320D01*
X049760Y034222D02*
X054085Y034222D01*
X054085Y034123D02*
X049760Y034123D01*
X049760Y034025D02*
X054085Y034025D01*
X054085Y033926D02*
X049760Y033926D01*
X049760Y033828D02*
X054085Y033828D01*
X054085Y033729D02*
X049760Y033729D01*
X049760Y033631D02*
X054085Y033631D01*
X054085Y033532D02*
X049760Y033532D01*
X049760Y033434D02*
X054085Y033434D01*
X054085Y033335D02*
X049760Y033335D01*
X049760Y033237D02*
X054085Y033237D01*
X054085Y033138D02*
X049760Y033138D01*
X049760Y033040D02*
X054085Y033040D01*
X054085Y032941D02*
X049760Y032941D01*
X049760Y032843D02*
X054085Y032843D01*
X054085Y032744D02*
X049760Y032744D01*
X049760Y032646D02*
X050924Y032646D01*
X050913Y032547D02*
X049760Y032547D01*
X049760Y032449D02*
X050913Y032449D01*
X050913Y032350D02*
X049760Y032350D01*
X049760Y032252D02*
X050913Y032252D01*
X050913Y032153D02*
X049760Y032153D01*
X049760Y032055D02*
X050913Y032055D01*
X050913Y031956D02*
X049760Y031956D01*
X049760Y031858D02*
X051211Y031858D01*
X051211Y031956D02*
X051308Y031956D01*
X051308Y032055D02*
X051211Y032055D01*
X051211Y032153D02*
X051308Y032153D01*
X051308Y032252D02*
X051211Y032252D01*
X051211Y032350D02*
X051308Y032350D01*
X051308Y032449D02*
X051211Y032449D01*
X051211Y032547D02*
X051308Y032547D01*
X051308Y032646D02*
X051211Y032646D01*
X051595Y032646D02*
X051982Y032646D01*
X051963Y032547D02*
X051606Y032547D01*
X051606Y032449D02*
X051963Y032449D01*
X051963Y032350D02*
X051606Y032350D01*
X051606Y032252D02*
X051963Y032252D01*
X051963Y032153D02*
X051606Y032153D01*
X051606Y032055D02*
X051963Y032055D01*
X051629Y031956D02*
X051606Y031956D01*
X051308Y031759D02*
X051211Y031759D01*
X051211Y031661D02*
X051308Y031661D01*
X051308Y031562D02*
X051211Y031562D01*
X051211Y031464D02*
X051308Y031464D01*
X051308Y031365D02*
X051211Y031365D01*
X051211Y031267D02*
X051308Y031267D01*
X051308Y031168D02*
X051211Y031168D01*
X051211Y031070D02*
X051308Y031070D01*
X051510Y030873D02*
X051600Y030873D01*
X051600Y030971D02*
X049760Y030971D01*
X049760Y030873D02*
X051009Y030873D01*
X050963Y030774D02*
X049760Y030774D01*
X049760Y030676D02*
X050963Y030676D01*
X050963Y030577D02*
X049760Y030577D01*
X049760Y030479D02*
X050963Y030479D01*
X050963Y030380D02*
X049760Y030380D01*
X049760Y030282D02*
X050963Y030282D01*
X050963Y030183D02*
X049760Y030183D01*
X049760Y030085D02*
X050963Y030085D01*
X050963Y029986D02*
X049760Y029986D01*
X049760Y029888D02*
X050963Y029888D01*
X050963Y029789D02*
X049760Y029789D01*
X049760Y029691D02*
X050963Y029691D01*
X050963Y029592D02*
X039109Y029592D01*
X039010Y029494D02*
X050963Y029494D01*
X050963Y029395D02*
X038912Y029395D01*
X038813Y029297D02*
X050963Y029297D01*
X051100Y029198D02*
X038760Y029198D01*
X038760Y029100D02*
X050686Y029100D01*
X050833Y029100D02*
X051100Y029100D01*
X051100Y029001D02*
X050976Y029001D01*
X051022Y028903D02*
X051100Y028903D01*
X051100Y028804D02*
X051025Y028804D01*
X050989Y028706D02*
X051100Y028706D01*
X051100Y028607D02*
X050920Y028607D01*
X050920Y028509D02*
X051100Y028509D01*
X051100Y028410D02*
X050920Y028410D01*
X050920Y028312D02*
X051100Y028312D01*
X051100Y028213D02*
X050920Y028213D01*
X050920Y028115D02*
X051100Y028115D01*
X051100Y028016D02*
X050920Y028016D01*
X050920Y027918D02*
X051100Y027918D01*
X051100Y027819D02*
X050920Y027819D01*
X050920Y027721D02*
X051100Y027721D01*
X051100Y027622D02*
X050920Y027622D01*
X050920Y027524D02*
X051100Y027524D01*
X051100Y027425D02*
X050920Y027425D01*
X050920Y027327D02*
X051100Y027327D01*
X051100Y027228D02*
X050920Y027228D01*
X050920Y027130D02*
X051100Y027130D01*
X051100Y027031D02*
X050920Y027031D01*
X050920Y026933D02*
X051100Y026933D01*
X051100Y026834D02*
X050920Y026834D01*
X050920Y026736D02*
X051100Y026736D01*
X051100Y026637D02*
X050920Y026637D01*
X050920Y026539D02*
X051100Y026539D01*
X051100Y026440D02*
X050920Y026440D01*
X050920Y026342D02*
X051100Y026342D01*
X051100Y026243D02*
X050920Y026243D01*
X050920Y026145D02*
X051100Y026145D01*
X051100Y026046D02*
X050920Y026046D01*
X050920Y025948D02*
X051100Y025948D01*
X051100Y025849D02*
X050920Y025849D01*
X050920Y025751D02*
X051100Y025751D01*
X051100Y025652D02*
X050920Y025652D01*
X050920Y025554D02*
X051100Y025554D01*
X051100Y025455D02*
X050920Y025455D01*
X050824Y025357D02*
X051100Y025357D01*
X051100Y025258D02*
X050726Y025258D01*
X050930Y025160D02*
X051100Y025160D01*
X051100Y025061D02*
X051003Y025061D01*
X051025Y024963D02*
X051100Y024963D01*
X051420Y024963D02*
X051565Y024963D01*
X051600Y025061D02*
X051420Y025061D01*
X051420Y025160D02*
X051600Y025160D01*
X051600Y025258D02*
X051420Y025258D01*
X051420Y025357D02*
X051600Y025357D01*
X051600Y025455D02*
X051420Y025455D01*
X051420Y025554D02*
X051600Y025554D01*
X051600Y025652D02*
X051420Y025652D01*
X051420Y025751D02*
X051600Y025751D01*
X051600Y025849D02*
X051420Y025849D01*
X051420Y025948D02*
X051600Y025948D01*
X051600Y026046D02*
X051420Y026046D01*
X051420Y026145D02*
X051600Y026145D01*
X051600Y026243D02*
X051420Y026243D01*
X051420Y026342D02*
X051600Y026342D01*
X051600Y026440D02*
X051420Y026440D01*
X051420Y026539D02*
X051600Y026539D01*
X051600Y026637D02*
X051420Y026637D01*
X051420Y026736D02*
X051600Y026736D01*
X051600Y026834D02*
X051420Y026834D01*
X051420Y026933D02*
X051600Y026933D01*
X051600Y027031D02*
X051420Y027031D01*
X051420Y027130D02*
X051600Y027130D01*
X051600Y027228D02*
X051420Y027228D01*
X051420Y027327D02*
X051600Y027327D01*
X051600Y027425D02*
X051420Y027425D01*
X051420Y027524D02*
X051600Y027524D01*
X051600Y027622D02*
X051420Y027622D01*
X051420Y027721D02*
X051600Y027721D01*
X051600Y027819D02*
X051420Y027819D01*
X051420Y027918D02*
X051600Y027918D01*
X051600Y028016D02*
X051420Y028016D01*
X051420Y028115D02*
X051600Y028115D01*
X051600Y028213D02*
X051420Y028213D01*
X051420Y028312D02*
X051600Y028312D01*
X051600Y028410D02*
X051420Y028410D01*
X051420Y028509D02*
X051600Y028509D01*
X051600Y028607D02*
X051420Y028607D01*
X051420Y028706D02*
X051600Y028706D01*
X051600Y028804D02*
X051420Y028804D01*
X051420Y028903D02*
X051600Y028903D01*
X051600Y029001D02*
X051420Y029001D01*
X051420Y029100D02*
X051600Y029100D01*
X051600Y029198D02*
X051420Y029198D01*
X051556Y029297D02*
X051600Y029297D01*
X051600Y029395D02*
X051556Y029395D01*
X051556Y029494D02*
X051600Y029494D01*
X051600Y029592D02*
X051556Y029592D01*
X051556Y029691D02*
X051600Y029691D01*
X051600Y029789D02*
X051556Y029789D01*
X051556Y029888D02*
X051600Y029888D01*
X051600Y029986D02*
X051556Y029986D01*
X051556Y030085D02*
X051600Y030085D01*
X051600Y030183D02*
X051556Y030183D01*
X051556Y030282D02*
X051600Y030282D01*
X051600Y030380D02*
X051556Y030380D01*
X051556Y030479D02*
X051600Y030479D01*
X051600Y030577D02*
X051556Y030577D01*
X051556Y030676D02*
X051600Y030676D01*
X051600Y030774D02*
X051556Y030774D01*
X051592Y031070D02*
X051600Y031070D01*
X051920Y031070D02*
X051987Y031070D01*
X051963Y031168D02*
X051920Y031168D01*
X051920Y031267D02*
X051963Y031267D01*
X051963Y031365D02*
X051920Y031365D01*
X051920Y031464D02*
X051963Y031464D01*
X051963Y031562D02*
X051920Y031562D01*
X051920Y031661D02*
X051963Y031661D01*
X052556Y031661D02*
X052963Y031661D01*
X052963Y031759D02*
X052556Y031759D01*
X052556Y031858D02*
X052963Y031858D01*
X052963Y031956D02*
X052556Y031956D01*
X052556Y032055D02*
X052963Y032055D01*
X052963Y032153D02*
X052556Y032153D01*
X052556Y032252D02*
X052963Y032252D01*
X052963Y032350D02*
X052556Y032350D01*
X052556Y032449D02*
X052963Y032449D01*
X052963Y032547D02*
X052556Y032547D01*
X052537Y032646D02*
X052982Y032646D01*
X053537Y032646D02*
X054085Y032646D01*
X054085Y032547D02*
X053556Y032547D01*
X053556Y032449D02*
X054085Y032449D01*
X054085Y032350D02*
X053556Y032350D01*
X053556Y032252D02*
X054085Y032252D01*
X054085Y032153D02*
X053556Y032153D01*
X053876Y032055D02*
X054085Y032055D01*
X054085Y031956D02*
X053975Y031956D01*
X053980Y031858D02*
X054085Y031858D01*
X054085Y031759D02*
X053980Y031759D01*
X053980Y031661D02*
X054085Y031661D01*
X054085Y031562D02*
X053980Y031562D01*
X053980Y031464D02*
X054085Y031464D01*
X054085Y031365D02*
X053980Y031365D01*
X053980Y031267D02*
X054085Y031267D01*
X054085Y031168D02*
X053980Y031168D01*
X053980Y031070D02*
X054085Y031070D01*
X054085Y030971D02*
X053980Y030971D01*
X053980Y030873D02*
X054085Y030873D01*
X054085Y030774D02*
X053980Y030774D01*
X053980Y030676D02*
X054085Y030676D01*
X054085Y030577D02*
X053980Y030577D01*
X053980Y030479D02*
X054085Y030479D01*
X054085Y030380D02*
X053980Y030380D01*
X053980Y030282D02*
X054085Y030282D01*
X054085Y030183D02*
X053980Y030183D01*
X053980Y030085D02*
X054085Y030085D01*
X054085Y029986D02*
X053980Y029986D01*
X053980Y029888D02*
X054085Y029888D01*
X054085Y029789D02*
X053980Y029789D01*
X053980Y029691D02*
X054085Y029691D01*
X054085Y029592D02*
X053980Y029592D01*
X053980Y029494D02*
X054085Y029494D01*
X054085Y029395D02*
X053980Y029395D01*
X053980Y029297D02*
X054085Y029297D01*
X054085Y029198D02*
X053980Y029198D01*
X053980Y029100D02*
X054085Y029100D01*
X054085Y029001D02*
X053980Y029001D01*
X053980Y028903D02*
X054085Y028903D01*
X054085Y028804D02*
X053980Y028804D01*
X053980Y028706D02*
X054085Y028706D01*
X054085Y028607D02*
X053980Y028607D01*
X053980Y028509D02*
X054085Y028509D01*
X054085Y028410D02*
X053980Y028410D01*
X053980Y028312D02*
X054085Y028312D01*
X054085Y028213D02*
X053980Y028213D01*
X053980Y028115D02*
X054085Y028115D01*
X054085Y028016D02*
X053980Y028016D01*
X053980Y027918D02*
X054085Y027918D01*
X054085Y027819D02*
X053980Y027819D01*
X053980Y027721D02*
X054085Y027721D01*
X054085Y027622D02*
X053980Y027622D01*
X053980Y027524D02*
X054085Y027524D01*
X054085Y027425D02*
X053980Y027425D01*
X053980Y027327D02*
X054085Y027327D01*
X054085Y027228D02*
X053980Y027228D01*
X053980Y027130D02*
X054085Y027130D01*
X054085Y027031D02*
X053980Y027031D01*
X053980Y026933D02*
X054085Y026933D01*
X054085Y026834D02*
X053980Y026834D01*
X053980Y026736D02*
X054085Y026736D01*
X054085Y026637D02*
X053980Y026637D01*
X053980Y026539D02*
X054085Y026539D01*
X054085Y026440D02*
X053980Y026440D01*
X053980Y026342D02*
X054085Y026342D01*
X054085Y026243D02*
X053980Y026243D01*
X053980Y026145D02*
X054085Y026145D01*
X054085Y026046D02*
X053980Y026046D01*
X053980Y025948D02*
X054085Y025948D01*
X054085Y025849D02*
X053980Y025849D01*
X053980Y025751D02*
X054085Y025751D01*
X054085Y025652D02*
X053980Y025652D01*
X053980Y025554D02*
X054085Y025554D01*
X054085Y025455D02*
X053980Y025455D01*
X053980Y025357D02*
X054085Y025357D01*
X054085Y025258D02*
X053980Y025258D01*
X053980Y025160D02*
X054085Y025160D01*
X054085Y025061D02*
X053980Y025061D01*
X053980Y024963D02*
X054085Y024963D01*
X054085Y024864D02*
X053980Y024864D01*
X053980Y024766D02*
X054085Y024766D01*
X054085Y024667D02*
X053980Y024667D01*
X053980Y024569D02*
X054085Y024569D01*
X054085Y024470D02*
X053980Y024470D01*
X053980Y024372D02*
X054085Y024372D01*
X054085Y024273D02*
X053980Y024273D01*
X053980Y024175D02*
X054085Y024175D01*
X054085Y024076D02*
X053980Y024076D01*
X053980Y023978D02*
X054085Y023978D01*
X054085Y023879D02*
X053980Y023879D01*
X053980Y023781D02*
X054085Y023781D01*
X054085Y023682D02*
X053980Y023682D01*
X053980Y023584D02*
X054085Y023584D01*
X054085Y023485D02*
X053980Y023485D01*
X053980Y023387D02*
X054085Y023387D01*
X054085Y023288D02*
X053980Y023288D01*
X053980Y023190D02*
X054085Y023190D01*
X054085Y023091D02*
X053980Y023091D01*
X053980Y022993D02*
X054085Y022993D01*
X054085Y022894D02*
X053980Y022894D01*
X053980Y022796D02*
X054085Y022796D01*
X054085Y022697D02*
X053980Y022697D01*
X053980Y022599D02*
X054085Y022599D01*
X054085Y022500D02*
X053980Y022500D01*
X053980Y022402D02*
X054085Y022402D01*
X054085Y022303D02*
X053980Y022303D01*
X053980Y022205D02*
X054085Y022205D01*
X054085Y022106D02*
X053980Y022106D01*
X053980Y022008D02*
X054085Y022008D01*
X054085Y021909D02*
X053980Y021909D01*
X053980Y021811D02*
X054085Y021811D01*
X054085Y021712D02*
X053980Y021712D01*
X053980Y021614D02*
X054085Y021614D01*
X054085Y021515D02*
X053980Y021515D01*
X053980Y021417D02*
X054085Y021417D01*
X054085Y021318D02*
X053980Y021318D01*
X053980Y021220D02*
X054085Y021220D01*
X054085Y021121D02*
X053980Y021121D01*
X053980Y021023D02*
X054085Y021023D01*
X054085Y020924D02*
X053980Y020924D01*
X053980Y020826D02*
X054085Y020826D01*
X054085Y020727D02*
X053980Y020727D01*
X053980Y020629D02*
X054085Y020629D01*
X054085Y020530D02*
X053980Y020530D01*
X053980Y020432D02*
X054085Y020432D01*
X054085Y020333D02*
X053980Y020333D01*
X053912Y020235D02*
X054085Y020235D01*
X054085Y020136D02*
X053814Y020136D01*
X053715Y020038D02*
X054085Y020038D01*
X054085Y019939D02*
X053617Y019939D01*
X053518Y019841D02*
X054085Y019841D01*
X054085Y019742D02*
X053420Y019742D01*
X053321Y019644D02*
X054085Y019644D01*
X054085Y019545D02*
X053223Y019545D01*
X053124Y019447D02*
X054085Y019447D01*
X054085Y019348D02*
X053026Y019348D01*
X052927Y019250D02*
X054085Y019250D01*
X054085Y019151D02*
X052829Y019151D01*
X052730Y019053D02*
X054085Y019053D01*
X054085Y018954D02*
X052632Y018954D01*
X052533Y018856D02*
X054085Y018856D01*
X054085Y018757D02*
X052435Y018757D01*
X052336Y018659D02*
X054085Y018659D01*
X054085Y018560D02*
X052238Y018560D01*
X052139Y018462D02*
X052433Y018462D01*
X052391Y018444D02*
X052630Y018543D01*
X052889Y018543D01*
X053128Y018444D01*
X053311Y018262D01*
X053410Y018023D01*
X053410Y017764D01*
X053311Y017525D01*
X053128Y017342D01*
X052889Y017243D01*
X052630Y017243D01*
X052391Y017342D01*
X052208Y017525D01*
X052110Y017764D01*
X052110Y018023D01*
X052208Y018262D01*
X052391Y018444D01*
X052310Y018363D02*
X052041Y018363D01*
X051942Y018265D02*
X052212Y018265D01*
X052169Y018166D02*
X051844Y018166D01*
X051745Y018068D02*
X052128Y018068D01*
X052110Y017969D02*
X051647Y017969D01*
X051548Y017871D02*
X052110Y017871D01*
X052110Y017772D02*
X051450Y017772D01*
X051351Y017674D02*
X052147Y017674D01*
X052188Y017575D02*
X051253Y017575D01*
X051154Y017477D02*
X052257Y017477D01*
X052355Y017378D02*
X051056Y017378D01*
X050957Y017280D02*
X052542Y017280D01*
X052977Y017280D02*
X053922Y017280D01*
X053979Y017378D02*
X053164Y017378D01*
X053262Y017477D02*
X054008Y017477D01*
X054034Y017575D02*
X053331Y017575D01*
X053372Y017674D02*
X054061Y017674D01*
X054077Y017772D02*
X053410Y017772D01*
X053410Y017871D02*
X054083Y017871D01*
X054085Y017969D02*
X053410Y017969D01*
X053391Y018068D02*
X054085Y018068D01*
X054085Y018166D02*
X053350Y018166D01*
X053307Y018265D02*
X054085Y018265D01*
X054085Y018363D02*
X053209Y018363D01*
X053086Y018462D02*
X054085Y018462D01*
X053865Y017181D02*
X050859Y017181D01*
X050760Y017083D02*
X053807Y017083D01*
X053708Y016984D02*
X049613Y016984D01*
X049629Y016886D02*
X053610Y016886D01*
X053471Y016787D02*
X049607Y016787D01*
X049534Y016689D02*
X053301Y016689D01*
X052972Y016590D02*
X037810Y016590D01*
X037711Y016689D02*
X038240Y016689D01*
X038142Y016787D02*
X037613Y016787D01*
X037514Y016886D02*
X038043Y016886D01*
X037945Y016984D02*
X037416Y016984D01*
X037435Y016966D02*
X037435Y016966D01*
X037846Y017083D02*
X032960Y017083D01*
X032862Y016984D02*
X033103Y016984D01*
X033005Y016886D02*
X032763Y016886D01*
X038089Y017575D02*
X042792Y017575D01*
X042761Y017477D02*
X038187Y017477D01*
X038286Y017378D02*
X042761Y017378D01*
X042798Y017280D02*
X038384Y017280D01*
X038483Y017181D02*
X042880Y017181D01*
X043255Y017153D02*
X043270Y017160D01*
X043361Y017251D01*
X043411Y017370D01*
X043411Y017500D01*
X043361Y017619D01*
X043307Y017673D01*
X046014Y017673D01*
X045960Y017619D01*
X045910Y017500D01*
X045910Y017370D01*
X045960Y017251D01*
X046051Y017160D01*
X046066Y017153D01*
X043255Y017153D01*
X043292Y017181D02*
X046030Y017181D01*
X045948Y017280D02*
X043373Y017280D01*
X043411Y017378D02*
X045910Y017378D01*
X045910Y017477D02*
X043411Y017477D01*
X043380Y017575D02*
X045942Y017575D01*
X046646Y018068D02*
X046774Y018068D01*
X046745Y017969D02*
X046872Y017969D01*
X046843Y017871D02*
X046971Y017871D01*
X046942Y017772D02*
X047069Y017772D01*
X047040Y017674D02*
X047168Y017674D01*
X047139Y017575D02*
X050630Y017575D01*
X050601Y017674D02*
X050729Y017674D01*
X050700Y017772D02*
X050827Y017772D01*
X050798Y017871D02*
X050926Y017871D01*
X050897Y017969D02*
X051024Y017969D01*
X050995Y018068D02*
X051123Y018068D01*
X051094Y018166D02*
X051221Y018166D01*
X051192Y018265D02*
X051320Y018265D01*
X051291Y018363D02*
X051418Y018363D01*
X051453Y018462D02*
X051517Y018462D01*
X051512Y018560D02*
X051615Y018560D01*
X051525Y018659D02*
X051714Y018659D01*
X051812Y018757D02*
X051499Y018757D01*
X051422Y018856D02*
X051911Y018856D01*
X052009Y018954D02*
X049583Y018954D01*
X049563Y018856D02*
X051097Y018856D01*
X051020Y018757D02*
X049522Y018757D01*
X049455Y018659D02*
X050964Y018659D01*
X050865Y018560D02*
X049357Y018560D01*
X048721Y018560D02*
X046904Y018560D01*
X047002Y018462D02*
X050767Y018462D01*
X050668Y018363D02*
X047101Y018363D01*
X047199Y018265D02*
X050570Y018265D01*
X050471Y018166D02*
X047298Y018166D01*
X046675Y018166D02*
X042344Y018166D01*
X042442Y018265D02*
X046577Y018265D01*
X046478Y018363D02*
X042541Y018363D01*
X046707Y018757D02*
X048556Y018757D01*
X048623Y018659D02*
X046805Y018659D01*
X047833Y023387D02*
X048155Y023387D01*
X047976Y023485D02*
X051171Y023485D01*
X051172Y023387D02*
X048364Y023387D01*
X048486Y023288D02*
X051213Y023288D01*
X051297Y023190D02*
X048525Y023190D01*
X048022Y023584D02*
X051197Y023584D01*
X051258Y023682D02*
X048025Y023682D01*
X047989Y023781D02*
X051411Y023781D01*
X051608Y023781D02*
X053540Y023781D01*
X053540Y023879D02*
X051909Y023879D01*
X052008Y023978D02*
X053540Y023978D01*
X053540Y024076D02*
X052106Y024076D01*
X052205Y024175D02*
X053540Y024175D01*
X053540Y024273D02*
X052303Y024273D01*
X052402Y024372D02*
X053540Y024372D01*
X053540Y024470D02*
X052500Y024470D01*
X052599Y024569D02*
X053540Y024569D01*
X053540Y024667D02*
X052697Y024667D01*
X052796Y024766D02*
X053540Y024766D01*
X053540Y024864D02*
X052894Y024864D01*
X052993Y024963D02*
X053540Y024963D01*
X053540Y025061D02*
X053091Y025061D01*
X053190Y025160D02*
X053540Y025160D01*
X053540Y025258D02*
X053288Y025258D01*
X053387Y025357D02*
X053540Y025357D01*
X053540Y025455D02*
X053420Y025455D01*
X053420Y025554D02*
X053540Y025554D01*
X053540Y025652D02*
X053420Y025652D01*
X053420Y025751D02*
X053540Y025751D01*
X053540Y025849D02*
X053420Y025849D01*
X053420Y025948D02*
X053540Y025948D01*
X053540Y026046D02*
X053420Y026046D01*
X053420Y026145D02*
X053540Y026145D01*
X053540Y026243D02*
X053420Y026243D01*
X053420Y026342D02*
X053540Y026342D01*
X053540Y026440D02*
X053420Y026440D01*
X053420Y026539D02*
X053540Y026539D01*
X053540Y026637D02*
X053420Y026637D01*
X053420Y026736D02*
X053540Y026736D01*
X053540Y026834D02*
X053420Y026834D01*
X053420Y026933D02*
X053540Y026933D01*
X053540Y027031D02*
X053420Y027031D01*
X053420Y027130D02*
X053540Y027130D01*
X053540Y027228D02*
X053420Y027228D01*
X053420Y027327D02*
X053540Y027327D01*
X053540Y027425D02*
X053420Y027425D01*
X053420Y027524D02*
X053540Y027524D01*
X053540Y027622D02*
X053420Y027622D01*
X053420Y027721D02*
X053540Y027721D01*
X053540Y027819D02*
X053420Y027819D01*
X053420Y027918D02*
X053540Y027918D01*
X053540Y028016D02*
X053420Y028016D01*
X053420Y028115D02*
X053540Y028115D01*
X053540Y028213D02*
X053420Y028213D01*
X053420Y028312D02*
X053540Y028312D01*
X053540Y028410D02*
X053420Y028410D01*
X053420Y028509D02*
X053540Y028509D01*
X053540Y028607D02*
X053420Y028607D01*
X053420Y028706D02*
X053540Y028706D01*
X053540Y028804D02*
X053420Y028804D01*
X053420Y028903D02*
X053540Y028903D01*
X053540Y029001D02*
X053420Y029001D01*
X053420Y029100D02*
X053540Y029100D01*
X053540Y029198D02*
X053420Y029198D01*
X053100Y029198D02*
X052420Y029198D01*
X052420Y029100D02*
X053100Y029100D01*
X053100Y029001D02*
X052420Y029001D01*
X052420Y028903D02*
X053100Y028903D01*
X053100Y028804D02*
X052420Y028804D01*
X052420Y028706D02*
X053100Y028706D01*
X053100Y028607D02*
X052420Y028607D01*
X052420Y028509D02*
X053100Y028509D01*
X053100Y028410D02*
X052420Y028410D01*
X052420Y028312D02*
X053100Y028312D01*
X053100Y028213D02*
X052420Y028213D01*
X052420Y028115D02*
X053100Y028115D01*
X053100Y028016D02*
X052420Y028016D01*
X052420Y027918D02*
X053100Y027918D01*
X053100Y027819D02*
X052420Y027819D01*
X052420Y027721D02*
X053100Y027721D01*
X053100Y027622D02*
X052420Y027622D01*
X052420Y027524D02*
X053100Y027524D01*
X053100Y027425D02*
X052420Y027425D01*
X052420Y027327D02*
X053100Y027327D01*
X053100Y027228D02*
X052420Y027228D01*
X052420Y027130D02*
X053100Y027130D01*
X053100Y027031D02*
X052420Y027031D01*
X052420Y026933D02*
X053100Y026933D01*
X053100Y026834D02*
X052420Y026834D01*
X052420Y026736D02*
X053100Y026736D01*
X053100Y026637D02*
X052420Y026637D01*
X052420Y026539D02*
X053100Y026539D01*
X053100Y026440D02*
X052420Y026440D01*
X052420Y026342D02*
X053100Y026342D01*
X053100Y026243D02*
X052420Y026243D01*
X052420Y026145D02*
X053100Y026145D01*
X053100Y026046D02*
X052420Y026046D01*
X052420Y025948D02*
X053100Y025948D01*
X053100Y025849D02*
X052420Y025849D01*
X052420Y025751D02*
X053100Y025751D01*
X053100Y025652D02*
X052420Y025652D01*
X052420Y025554D02*
X053100Y025554D01*
X053033Y025455D02*
X052420Y025455D01*
X052420Y025357D02*
X052934Y025357D01*
X052836Y025258D02*
X052420Y025258D01*
X052420Y025160D02*
X052737Y025160D01*
X052639Y025061D02*
X052420Y025061D01*
X052420Y024963D02*
X052540Y024963D01*
X052442Y024864D02*
X052419Y024864D01*
X052343Y024766D02*
X052321Y024766D01*
X052245Y024667D02*
X052222Y024667D01*
X052146Y024569D02*
X052124Y024569D01*
X052048Y024470D02*
X052025Y024470D01*
X051949Y024372D02*
X051927Y024372D01*
X051851Y024273D02*
X051828Y024273D01*
X051752Y024175D02*
X051730Y024175D01*
X051474Y024372D02*
X051427Y024372D01*
X051525Y024470D02*
X051573Y024470D01*
X051624Y024569D02*
X051671Y024569D01*
X051722Y024667D02*
X051770Y024667D01*
X051821Y024766D02*
X051868Y024766D01*
X051919Y024864D02*
X051967Y024864D01*
X051920Y024963D02*
X052065Y024963D01*
X052100Y025061D02*
X051920Y025061D01*
X051920Y025160D02*
X052100Y025160D01*
X052100Y025258D02*
X051920Y025258D01*
X051920Y025357D02*
X052100Y025357D01*
X052100Y025455D02*
X051920Y025455D01*
X051920Y025554D02*
X052100Y025554D01*
X052100Y025652D02*
X051920Y025652D01*
X051920Y025751D02*
X052100Y025751D01*
X052100Y025849D02*
X051920Y025849D01*
X051920Y025948D02*
X052100Y025948D01*
X052100Y026046D02*
X051920Y026046D01*
X051920Y026145D02*
X052100Y026145D01*
X052100Y026243D02*
X051920Y026243D01*
X051920Y026342D02*
X052100Y026342D01*
X052100Y026440D02*
X051920Y026440D01*
X051920Y026539D02*
X052100Y026539D01*
X052100Y026637D02*
X051920Y026637D01*
X051920Y026736D02*
X052100Y026736D01*
X052100Y026834D02*
X051920Y026834D01*
X051920Y026933D02*
X052100Y026933D01*
X052100Y027031D02*
X051920Y027031D01*
X051920Y027130D02*
X052100Y027130D01*
X052100Y027228D02*
X051920Y027228D01*
X051920Y027327D02*
X052100Y027327D01*
X052100Y027425D02*
X051920Y027425D01*
X051920Y027524D02*
X052100Y027524D01*
X052100Y027622D02*
X051920Y027622D01*
X051920Y027721D02*
X052100Y027721D01*
X052100Y027819D02*
X051920Y027819D01*
X051920Y027918D02*
X052100Y027918D01*
X052100Y028016D02*
X051920Y028016D01*
X051920Y028115D02*
X052100Y028115D01*
X052100Y028213D02*
X051920Y028213D01*
X051920Y028312D02*
X052100Y028312D01*
X052100Y028410D02*
X051920Y028410D01*
X051920Y028509D02*
X052100Y028509D01*
X052100Y028607D02*
X051920Y028607D01*
X051920Y028706D02*
X052100Y028706D01*
X052100Y028804D02*
X051920Y028804D01*
X051920Y028903D02*
X052100Y028903D01*
X052100Y029001D02*
X051920Y029001D01*
X051920Y029100D02*
X052100Y029100D01*
X052100Y029198D02*
X051920Y029198D01*
X051920Y029297D02*
X051963Y029297D01*
X051963Y029395D02*
X051920Y029395D01*
X051920Y029494D02*
X051963Y029494D01*
X051963Y029592D02*
X051920Y029592D01*
X051920Y029691D02*
X051963Y029691D01*
X051963Y029789D02*
X051920Y029789D01*
X051920Y029888D02*
X051963Y029888D01*
X051963Y029986D02*
X051920Y029986D01*
X051920Y030085D02*
X051963Y030085D01*
X051963Y030183D02*
X051920Y030183D01*
X051920Y030282D02*
X051963Y030282D01*
X051963Y030380D02*
X051920Y030380D01*
X051920Y030479D02*
X051963Y030479D01*
X051963Y030577D02*
X051920Y030577D01*
X051920Y030676D02*
X051963Y030676D01*
X051963Y030774D02*
X051920Y030774D01*
X051920Y030873D02*
X052009Y030873D01*
X051920Y030971D02*
X053540Y030971D01*
X053540Y030873D02*
X053510Y030873D01*
X053532Y031070D02*
X053540Y031070D01*
X052987Y031070D02*
X052532Y031070D01*
X052556Y031168D02*
X052963Y031168D01*
X052963Y031267D02*
X052556Y031267D01*
X052556Y031365D02*
X052963Y031365D01*
X052963Y031464D02*
X052556Y031464D01*
X052556Y031562D02*
X052963Y031562D01*
X053009Y030873D02*
X052510Y030873D01*
X052556Y030774D02*
X052963Y030774D01*
X052963Y030676D02*
X052556Y030676D01*
X052556Y030577D02*
X052963Y030577D01*
X052963Y030479D02*
X052556Y030479D01*
X052556Y030380D02*
X052963Y030380D01*
X052963Y030282D02*
X052556Y030282D01*
X052556Y030183D02*
X052963Y030183D01*
X052963Y030085D02*
X052556Y030085D01*
X052556Y029986D02*
X052963Y029986D01*
X052963Y029888D02*
X052556Y029888D01*
X052556Y029789D02*
X052963Y029789D01*
X052963Y029691D02*
X052556Y029691D01*
X052556Y029592D02*
X052963Y029592D01*
X052963Y029494D02*
X052556Y029494D01*
X052556Y029395D02*
X052963Y029395D01*
X052963Y029297D02*
X052556Y029297D01*
X050600Y028607D02*
X038760Y028607D01*
X038760Y028509D02*
X050600Y028509D01*
X050600Y028410D02*
X038760Y028410D01*
X038760Y028312D02*
X050600Y028312D01*
X050600Y028213D02*
X038760Y028213D01*
X038760Y028115D02*
X050600Y028115D01*
X050600Y028016D02*
X038760Y028016D01*
X038760Y027918D02*
X050600Y027918D01*
X050600Y027819D02*
X038760Y027819D01*
X038760Y027721D02*
X050600Y027721D01*
X050600Y027622D02*
X038760Y027622D01*
X038760Y027524D02*
X050600Y027524D01*
X050600Y027425D02*
X038760Y027425D01*
X038760Y027327D02*
X050600Y027327D01*
X050600Y027228D02*
X038760Y027228D01*
X038760Y027130D02*
X050600Y027130D01*
X050600Y027031D02*
X038760Y027031D01*
X038760Y026933D02*
X050600Y026933D01*
X050600Y026834D02*
X039985Y026834D01*
X040007Y026820D02*
X039943Y026862D01*
X039873Y026892D01*
X039798Y026906D01*
X039769Y026906D01*
X039769Y026527D01*
X040148Y026527D01*
X040148Y026557D01*
X040133Y026632D01*
X040103Y026702D01*
X040061Y026766D01*
X040007Y026820D01*
X040081Y026736D02*
X050600Y026736D01*
X050600Y026637D02*
X040130Y026637D01*
X040148Y026539D02*
X050600Y026539D01*
X050600Y026440D02*
X040140Y026440D01*
X040133Y026405D02*
X040148Y026480D01*
X040148Y026509D01*
X039769Y026509D01*
X039769Y026527D01*
X039750Y026527D01*
X039750Y026509D01*
X039371Y026509D01*
X039371Y026480D01*
X039386Y026405D01*
X039416Y026334D01*
X039458Y026271D01*
X039512Y026217D01*
X039576Y026174D01*
X039646Y026145D01*
X039721Y026130D01*
X039750Y026130D01*
X039750Y026509D01*
X039769Y026509D01*
X039769Y026130D01*
X039798Y026130D01*
X039873Y026145D01*
X039943Y026174D01*
X040007Y026217D01*
X040061Y026271D01*
X040103Y026334D01*
X040133Y026405D01*
X040107Y026342D02*
X050600Y026342D01*
X050600Y026243D02*
X040033Y026243D01*
X039871Y026145D02*
X050600Y026145D01*
X050600Y026046D02*
X035594Y026046D01*
X035594Y025948D02*
X050600Y025948D01*
X050600Y025849D02*
X035594Y025849D01*
X035601Y025751D02*
X050600Y025751D01*
X050600Y025652D02*
X035675Y025652D01*
X035699Y025554D02*
X050569Y025554D01*
X050470Y025455D02*
X035684Y025455D01*
X035594Y026145D02*
X039648Y026145D01*
X039750Y026145D02*
X039769Y026145D01*
X039769Y026243D02*
X039750Y026243D01*
X039750Y026342D02*
X039769Y026342D01*
X039769Y026440D02*
X039750Y026440D01*
X039750Y026527D02*
X039371Y026527D01*
X039371Y026557D01*
X039386Y026632D01*
X039416Y026702D01*
X039458Y026766D01*
X039512Y026820D01*
X039576Y026862D01*
X039646Y026892D01*
X039721Y026906D01*
X039750Y026906D01*
X039750Y026527D01*
X039750Y026539D02*
X039769Y026539D01*
X039769Y026637D02*
X039750Y026637D01*
X039750Y026736D02*
X039769Y026736D01*
X039769Y026834D02*
X039750Y026834D01*
X039534Y026834D02*
X035594Y026834D01*
X035594Y026736D02*
X039438Y026736D01*
X039389Y026637D02*
X035594Y026637D01*
X035594Y026539D02*
X039371Y026539D01*
X039379Y026440D02*
X035594Y026440D01*
X035594Y026342D02*
X039413Y026342D01*
X039486Y026243D02*
X035594Y026243D01*
X035037Y026159D02*
X035037Y026139D01*
X034985Y026118D01*
X034921Y026053D01*
X032376Y026053D01*
X031920Y026510D01*
X031920Y026893D01*
X034665Y026893D01*
X034665Y026497D01*
X034645Y026446D01*
X034645Y026341D01*
X034685Y026243D01*
X034759Y026169D01*
X034857Y026128D01*
X034962Y026128D01*
X035037Y026159D01*
X035037Y026145D02*
X035002Y026145D01*
X034817Y026145D02*
X032284Y026145D01*
X032186Y026243D02*
X034685Y026243D01*
X034645Y026342D02*
X032087Y026342D01*
X031989Y026440D02*
X034645Y026440D01*
X034665Y026539D02*
X031920Y026539D01*
X031920Y026637D02*
X034665Y026637D01*
X034665Y026736D02*
X031920Y026736D01*
X031920Y026834D02*
X034665Y026834D01*
X035917Y027425D02*
X036995Y027425D01*
X037027Y027524D02*
X035917Y027524D01*
X035917Y027622D02*
X037120Y027622D01*
X037212Y027721D02*
X037611Y027721D01*
X037709Y027819D02*
X037412Y027819D01*
X037510Y027918D02*
X037808Y027918D01*
X037850Y028016D02*
X037609Y028016D01*
X037707Y028115D02*
X037850Y028115D01*
X037850Y028213D02*
X037806Y028213D01*
X038170Y028213D02*
X038260Y028213D01*
X038260Y028115D02*
X038170Y028115D01*
X038170Y028016D02*
X038260Y028016D01*
X038260Y027918D02*
X038170Y027918D01*
X038162Y027819D02*
X038260Y027819D01*
X038260Y027721D02*
X038063Y027721D01*
X037965Y027622D02*
X038260Y027622D01*
X038260Y027524D02*
X037866Y027524D01*
X037768Y027425D02*
X038260Y027425D01*
X037512Y027622D02*
X037399Y027622D01*
X037255Y028115D02*
X037163Y028115D01*
X037065Y028213D02*
X035917Y028213D01*
X035917Y028115D02*
X036856Y028115D01*
X036774Y028016D02*
X035917Y028016D01*
X035917Y027918D02*
X036745Y027918D01*
X036753Y027819D02*
X035917Y027819D01*
X035917Y027721D02*
X036807Y027721D01*
X037006Y028312D02*
X035917Y028312D01*
X035917Y028410D02*
X036995Y028410D01*
X037021Y028509D02*
X035917Y028509D01*
X035917Y028607D02*
X037099Y028607D01*
X037062Y028628D02*
X037160Y028669D01*
X037234Y028743D01*
X037275Y028841D01*
X037275Y028946D01*
X037234Y029043D01*
X037170Y029108D01*
X037170Y030327D01*
X038076Y031233D01*
X038548Y031233D01*
X038849Y030932D01*
X038849Y030841D01*
X038889Y030743D01*
X038964Y030669D01*
X039061Y030628D01*
X039167Y030628D01*
X039264Y030669D01*
X039339Y030743D01*
X039379Y030841D01*
X039379Y030946D01*
X039339Y031043D01*
X039264Y031118D01*
X039167Y031158D01*
X039075Y031158D01*
X038680Y031553D01*
X037943Y031553D01*
X037850Y031460D01*
X037850Y031460D01*
X036943Y030553D01*
X036850Y030460D01*
X036850Y029108D01*
X036785Y029043D01*
X036745Y028946D01*
X036745Y028841D01*
X036785Y028743D01*
X036859Y028669D01*
X036957Y028628D01*
X037062Y028628D01*
X037197Y028706D02*
X037346Y028706D01*
X037350Y028804D02*
X037259Y028804D01*
X037275Y028903D02*
X037350Y028903D01*
X037350Y029001D02*
X037252Y029001D01*
X037178Y029100D02*
X037350Y029100D01*
X037350Y029198D02*
X037170Y029198D01*
X037170Y029297D02*
X037350Y029297D01*
X037350Y029395D02*
X037170Y029395D01*
X037170Y029494D02*
X037350Y029494D01*
X037350Y029592D02*
X037170Y029592D01*
X037170Y029691D02*
X037350Y029691D01*
X037350Y029789D02*
X037170Y029789D01*
X037170Y029888D02*
X037350Y029888D01*
X037350Y029986D02*
X037170Y029986D01*
X037170Y030085D02*
X037350Y030085D01*
X037361Y030183D02*
X037170Y030183D01*
X037170Y030282D02*
X037459Y030282D01*
X037558Y030380D02*
X037223Y030380D01*
X037321Y030479D02*
X037656Y030479D01*
X037755Y030577D02*
X037420Y030577D01*
X037518Y030676D02*
X037853Y030676D01*
X037952Y030774D02*
X037617Y030774D01*
X037715Y030873D02*
X038050Y030873D01*
X038149Y030971D02*
X037814Y030971D01*
X037912Y031070D02*
X038207Y031070D01*
X038011Y031168D02*
X038613Y031168D01*
X038603Y031070D02*
X038711Y031070D01*
X038660Y030971D02*
X038810Y030971D01*
X038849Y030873D02*
X038670Y030873D01*
X038643Y030774D02*
X038876Y030774D01*
X038957Y030676D02*
X038562Y030676D01*
X038207Y030577D02*
X044467Y030577D01*
X044566Y030676D02*
X039271Y030676D01*
X039351Y030774D02*
X044664Y030774D01*
X044763Y030873D02*
X039379Y030873D01*
X039368Y030971D02*
X044850Y030971D01*
X044850Y031070D02*
X039312Y031070D01*
X039065Y031168D02*
X040610Y031168D01*
X040609Y031169D02*
X040707Y031128D01*
X040812Y031128D01*
X040910Y031169D01*
X040984Y031243D01*
X041025Y031341D01*
X041025Y031446D01*
X040984Y031543D01*
X040934Y031593D01*
X041280Y031593D01*
X041310Y031623D01*
X041310Y032214D01*
X041280Y032243D01*
X039439Y032243D01*
X039410Y032214D01*
X039410Y031623D01*
X039439Y031593D01*
X040585Y031593D01*
X040535Y031543D01*
X040495Y031446D01*
X040495Y031341D01*
X040535Y031243D01*
X040609Y031169D01*
X040525Y031267D02*
X038967Y031267D01*
X038868Y031365D02*
X040495Y031365D01*
X040502Y031464D02*
X038770Y031464D01*
X039410Y031661D02*
X038110Y031661D01*
X038110Y031623D02*
X038110Y032214D01*
X038080Y032243D01*
X036239Y032243D01*
X036210Y032214D01*
X036210Y031623D01*
X036239Y031593D01*
X036585Y031593D01*
X036535Y031543D01*
X036495Y031446D01*
X036495Y031341D01*
X036535Y031243D01*
X036609Y031169D01*
X036707Y031128D01*
X036812Y031128D01*
X036910Y031169D01*
X036984Y031243D01*
X037025Y031341D01*
X037025Y031446D01*
X036984Y031543D01*
X036934Y031593D01*
X038080Y031593D01*
X038110Y031623D01*
X038110Y031759D02*
X039410Y031759D01*
X039410Y031858D02*
X038110Y031858D01*
X038110Y031956D02*
X039410Y031956D01*
X039410Y032055D02*
X038110Y032055D01*
X038110Y032153D02*
X039410Y032153D01*
X040554Y031562D02*
X036965Y031562D01*
X037017Y031464D02*
X037854Y031464D01*
X037755Y031365D02*
X037025Y031365D01*
X036994Y031267D02*
X037657Y031267D01*
X037558Y031168D02*
X036909Y031168D01*
X036610Y031168D02*
X035917Y031168D01*
X035917Y031070D02*
X037460Y031070D01*
X037361Y030971D02*
X035917Y030971D01*
X035917Y030873D02*
X037263Y030873D01*
X037164Y030774D02*
X035917Y030774D01*
X035917Y030676D02*
X037066Y030676D01*
X036967Y030577D02*
X035917Y030577D01*
X035917Y030479D02*
X036869Y030479D01*
X036850Y030380D02*
X035917Y030380D01*
X035917Y030282D02*
X036850Y030282D01*
X036850Y030183D02*
X035917Y030183D01*
X035917Y030085D02*
X036850Y030085D01*
X036850Y029986D02*
X035917Y029986D01*
X035917Y029888D02*
X036850Y029888D01*
X036850Y029789D02*
X035917Y029789D01*
X035917Y029691D02*
X036850Y029691D01*
X036850Y029592D02*
X035917Y029592D01*
X035917Y029494D02*
X036850Y029494D01*
X036850Y029395D02*
X035917Y029395D01*
X035917Y029297D02*
X036850Y029297D01*
X036850Y029198D02*
X035917Y029198D01*
X035917Y029100D02*
X036841Y029100D01*
X036767Y029001D02*
X035917Y029001D01*
X035917Y028903D02*
X036745Y028903D01*
X036760Y028804D02*
X035917Y028804D01*
X035917Y028706D02*
X036822Y028706D01*
X038170Y028706D02*
X038260Y028706D01*
X038260Y028804D02*
X038170Y028804D01*
X038170Y028903D02*
X038260Y028903D01*
X038260Y029001D02*
X038170Y029001D01*
X038170Y029100D02*
X038260Y029100D01*
X038260Y029198D02*
X038170Y029198D01*
X038170Y029297D02*
X038263Y029297D01*
X038170Y029395D02*
X038362Y029395D01*
X038460Y029494D02*
X038170Y029494D01*
X038185Y029592D02*
X038559Y029592D01*
X038657Y029691D02*
X038283Y029691D01*
X038382Y029789D02*
X038756Y029789D01*
X038854Y029888D02*
X038480Y029888D01*
X038020Y030380D02*
X038010Y030380D01*
X037922Y030282D02*
X037912Y030282D01*
X037823Y030183D02*
X037813Y030183D01*
X037725Y030085D02*
X037715Y030085D01*
X038109Y030479D02*
X038119Y030479D01*
X036943Y030553D02*
X036943Y030553D01*
X036525Y031267D02*
X035917Y031267D01*
X035917Y031365D02*
X036495Y031365D01*
X036502Y031464D02*
X035917Y031464D01*
X035917Y031562D02*
X036554Y031562D01*
X036210Y031661D02*
X035917Y031661D01*
X035917Y031759D02*
X036210Y031759D01*
X036210Y031858D02*
X035917Y031858D01*
X035946Y031956D02*
X036210Y031956D01*
X036210Y032055D02*
X036045Y032055D01*
X036130Y032153D02*
X036210Y032153D01*
X036130Y032252D02*
X048760Y032252D01*
X048760Y032350D02*
X036130Y032350D01*
X036130Y032449D02*
X048760Y032449D01*
X048760Y032547D02*
X036130Y032547D01*
X036130Y032646D02*
X048760Y032646D01*
X048760Y032744D02*
X036135Y032744D01*
X036175Y032843D02*
X048760Y032843D01*
X048760Y032941D02*
X036175Y032941D01*
X036136Y033040D02*
X048760Y033040D01*
X048760Y033138D02*
X036010Y033138D01*
X035809Y033138D02*
X035594Y033138D01*
X035594Y033040D02*
X035683Y033040D01*
X035645Y032941D02*
X035594Y032941D01*
X035594Y032843D02*
X035645Y032843D01*
X035684Y032744D02*
X035594Y032744D01*
X035594Y032646D02*
X035690Y032646D01*
X035690Y032547D02*
X035594Y032547D01*
X035594Y032449D02*
X035690Y032449D01*
X035690Y032350D02*
X035594Y032350D01*
X035594Y032252D02*
X035619Y032252D01*
X035594Y033237D02*
X048760Y033237D01*
X048710Y033335D02*
X035594Y033335D01*
X035594Y033434D02*
X048611Y033434D01*
X048551Y033532D02*
X035594Y033532D01*
X035594Y033631D02*
X048510Y033631D01*
X048495Y033729D02*
X035594Y033729D01*
X035594Y033828D02*
X048495Y033828D01*
X048513Y033926D02*
X035594Y033926D01*
X035594Y034025D02*
X048554Y034025D01*
X048618Y034123D02*
X035594Y034123D01*
X035594Y034222D02*
X048717Y034222D01*
X049760Y034419D02*
X052315Y034419D01*
X052216Y034517D02*
X049760Y034517D01*
X049760Y034616D02*
X052171Y034616D01*
X052130Y034714D02*
X049760Y034714D01*
X049760Y034813D02*
X052110Y034813D01*
X052110Y034911D02*
X049760Y034911D01*
X049760Y035010D02*
X052110Y035010D01*
X052145Y035108D02*
X049760Y035108D01*
X049760Y035207D02*
X052186Y035207D01*
X052252Y035305D02*
X049760Y035305D01*
X049760Y035404D02*
X052351Y035404D01*
X052531Y035502D02*
X049760Y035502D01*
X046410Y035601D02*
X045110Y035601D01*
X045110Y035573D02*
X045110Y036164D01*
X045080Y036193D01*
X043239Y036193D01*
X043210Y036164D01*
X043210Y035573D01*
X043239Y035543D01*
X045080Y035543D01*
X045110Y035573D01*
X045110Y035699D02*
X046410Y035699D01*
X046410Y035798D02*
X045110Y035798D01*
X045110Y035896D02*
X046410Y035896D01*
X046410Y035995D02*
X045110Y035995D01*
X045110Y036093D02*
X046410Y036093D01*
X046437Y036192D02*
X045082Y036192D01*
X043237Y036192D02*
X041282Y036192D01*
X041310Y036093D02*
X043210Y036093D01*
X043210Y035995D02*
X041310Y035995D01*
X041310Y035896D02*
X043210Y035896D01*
X043210Y035798D02*
X041310Y035798D01*
X041310Y035699D02*
X043210Y035699D01*
X043210Y035601D02*
X042927Y035601D01*
X039410Y035699D02*
X038110Y035699D01*
X038110Y035798D02*
X039410Y035798D01*
X039410Y035896D02*
X038110Y035896D01*
X038110Y035995D02*
X039410Y035995D01*
X039410Y036093D02*
X038110Y036093D01*
X038082Y036192D02*
X039437Y036192D01*
X036237Y036192D02*
X034282Y036192D01*
X034280Y036193D02*
X032439Y036193D01*
X032410Y036164D01*
X032410Y035573D01*
X032439Y035543D01*
X034280Y035543D01*
X034310Y035573D01*
X034310Y036164D01*
X034280Y036193D01*
X034310Y036093D02*
X036210Y036093D01*
X036210Y035995D02*
X034310Y035995D01*
X034310Y035896D02*
X036210Y035896D01*
X036210Y035798D02*
X034310Y035798D01*
X034310Y035699D02*
X036210Y035699D01*
X034406Y035601D02*
X034310Y035601D01*
X034307Y035502D02*
X021760Y035502D01*
X021760Y035404D02*
X034209Y035404D01*
X034110Y035305D02*
X021760Y035305D01*
X021760Y035207D02*
X034040Y035207D01*
X034040Y035108D02*
X021760Y035108D01*
X021760Y035010D02*
X034040Y035010D01*
X034040Y034911D02*
X021760Y034911D01*
X021760Y034813D02*
X034040Y034813D01*
X034040Y034714D02*
X021760Y034714D01*
X021760Y034616D02*
X034040Y034616D01*
X034040Y034517D02*
X021760Y034517D01*
X021760Y034419D02*
X034040Y034419D01*
X032410Y035601D02*
X031110Y035601D01*
X031110Y035573D02*
X031110Y036164D01*
X031080Y036193D01*
X029239Y036193D01*
X029210Y036164D01*
X029210Y035573D01*
X029239Y035543D01*
X031080Y035543D01*
X031110Y035573D01*
X031110Y035699D02*
X032410Y035699D01*
X032410Y035798D02*
X031110Y035798D01*
X031110Y035896D02*
X032410Y035896D01*
X032410Y035995D02*
X031110Y035995D01*
X031110Y036093D02*
X032410Y036093D01*
X032437Y036192D02*
X031082Y036192D01*
X029237Y036192D02*
X027282Y036192D01*
X027280Y036193D02*
X025439Y036193D01*
X025410Y036164D01*
X025410Y035573D01*
X025439Y035543D01*
X027280Y035543D01*
X027310Y035573D01*
X027310Y036164D01*
X027280Y036193D01*
X027310Y036093D02*
X029210Y036093D01*
X029210Y035995D02*
X027310Y035995D01*
X027310Y035896D02*
X029210Y035896D01*
X029210Y035798D02*
X027310Y035798D01*
X027310Y035699D02*
X029210Y035699D01*
X029210Y035601D02*
X027310Y035601D01*
X025410Y035601D02*
X024110Y035601D01*
X024110Y035573D02*
X024110Y036164D01*
X024080Y036193D01*
X022239Y036193D01*
X022210Y036164D01*
X022210Y035573D01*
X022239Y035543D01*
X024080Y035543D01*
X024110Y035573D01*
X024110Y035699D02*
X025410Y035699D01*
X025410Y035798D02*
X024110Y035798D01*
X024110Y035896D02*
X025410Y035896D01*
X025410Y035995D02*
X024110Y035995D01*
X024110Y036093D02*
X025410Y036093D01*
X025437Y036192D02*
X024082Y036192D01*
X022237Y036192D02*
X021760Y036192D01*
X021760Y036093D02*
X022210Y036093D01*
X022210Y035995D02*
X021760Y035995D01*
X021760Y035896D02*
X022210Y035896D01*
X022210Y035798D02*
X021760Y035798D01*
X021760Y035699D02*
X022210Y035699D01*
X022210Y035601D02*
X021760Y035601D01*
X020760Y035601D02*
X016651Y035601D01*
X016708Y035699D02*
X020760Y035699D01*
X020760Y035798D02*
X016806Y035798D01*
X016905Y035896D02*
X020760Y035896D01*
X020760Y035995D02*
X017040Y035995D01*
X017211Y036093D02*
X020760Y036093D01*
X020760Y036192D02*
X017530Y036192D01*
X021855Y032646D02*
X028664Y032646D01*
X029965Y031562D02*
X033554Y031562D01*
X033502Y031464D02*
X030017Y031464D01*
X030025Y031365D02*
X031252Y031365D01*
X031170Y031267D02*
X029994Y031267D01*
X029909Y031168D02*
X031140Y031168D01*
X031110Y031661D02*
X032410Y031661D01*
X032410Y031759D02*
X031110Y031759D01*
X031110Y031858D02*
X032410Y031858D01*
X032410Y031956D02*
X031110Y031956D01*
X031110Y032055D02*
X032410Y032055D01*
X032410Y032153D02*
X031110Y032153D01*
X032317Y030971D02*
X032718Y030971D01*
X031760Y029198D02*
X031681Y029198D01*
X028777Y027524D02*
X028543Y027524D01*
X028641Y027425D02*
X028745Y027425D01*
X028740Y027327D02*
X028750Y027327D01*
X032382Y024766D02*
X046173Y024766D01*
X046145Y024667D02*
X045139Y024667D01*
X045216Y024569D02*
X046154Y024569D01*
X051161Y024569D02*
X051171Y024569D01*
X051260Y024667D02*
X051270Y024667D01*
X051358Y024766D02*
X051368Y024766D01*
X051420Y024864D02*
X051467Y024864D01*
X051761Y023682D02*
X053540Y023682D01*
X053540Y023190D02*
X051722Y023190D01*
X050530Y028706D02*
X038760Y028706D01*
X038760Y028804D02*
X050495Y028804D01*
X050497Y028903D02*
X038760Y028903D01*
X038760Y029001D02*
X050543Y029001D01*
X048760Y029986D02*
X044974Y029986D01*
X045073Y030085D02*
X048760Y030085D01*
X048760Y030183D02*
X045171Y030183D01*
X045270Y030282D02*
X048760Y030282D01*
X048760Y030380D02*
X045368Y030380D01*
X045467Y030479D02*
X048760Y030479D01*
X048760Y030577D02*
X045565Y030577D01*
X045565Y030676D02*
X045957Y030676D01*
X045876Y030774D02*
X045643Y030774D01*
X045670Y030873D02*
X045849Y030873D01*
X045859Y030971D02*
X045660Y030971D01*
X045603Y031070D02*
X045916Y031070D01*
X045954Y031168D02*
X045170Y031168D01*
X045170Y031070D02*
X045207Y031070D01*
X044850Y031168D02*
X043909Y031168D01*
X043910Y031169D02*
X043984Y031243D01*
X044025Y031341D01*
X044025Y031446D01*
X043984Y031543D01*
X043934Y031593D01*
X045080Y031593D01*
X045110Y031623D01*
X045110Y032214D01*
X045080Y032243D01*
X043239Y032243D01*
X043210Y032214D01*
X043210Y031623D01*
X043239Y031593D01*
X043585Y031593D01*
X043535Y031543D01*
X043495Y031446D01*
X043495Y031341D01*
X043535Y031243D01*
X043609Y031169D01*
X043707Y031128D01*
X043812Y031128D01*
X043910Y031169D01*
X043994Y031267D02*
X044850Y031267D01*
X044880Y031365D02*
X044025Y031365D01*
X044017Y031464D02*
X044979Y031464D01*
X045110Y031661D02*
X046410Y031661D01*
X046410Y031623D02*
X046439Y031593D01*
X047585Y031593D01*
X047535Y031543D01*
X047495Y031446D01*
X047495Y031341D01*
X047535Y031243D01*
X047609Y031169D01*
X047707Y031128D01*
X047812Y031128D01*
X047910Y031169D01*
X047984Y031243D01*
X048025Y031341D01*
X048025Y031446D01*
X047984Y031543D01*
X047934Y031593D01*
X048280Y031593D01*
X048310Y031623D01*
X048310Y032214D01*
X048280Y032243D01*
X046439Y032243D01*
X046410Y032214D01*
X046410Y031623D01*
X046410Y031759D02*
X045110Y031759D01*
X045110Y031858D02*
X046410Y031858D01*
X046410Y031956D02*
X045110Y031956D01*
X045110Y032055D02*
X046410Y032055D01*
X046410Y032153D02*
X045110Y032153D01*
X046145Y031464D02*
X047502Y031464D01*
X047495Y031365D02*
X046243Y031365D01*
X046274Y031267D02*
X047525Y031267D01*
X047610Y031168D02*
X046274Y031168D01*
X046312Y031070D02*
X048760Y031070D01*
X048760Y031168D02*
X047909Y031168D01*
X047994Y031267D02*
X048760Y031267D01*
X048760Y031365D02*
X048025Y031365D01*
X048017Y031464D02*
X048760Y031464D01*
X048760Y031562D02*
X047965Y031562D01*
X048310Y031661D02*
X048760Y031661D01*
X048760Y031759D02*
X048310Y031759D01*
X048310Y031858D02*
X048760Y031858D01*
X048760Y031956D02*
X048310Y031956D01*
X048310Y032055D02*
X048760Y032055D01*
X048760Y032153D02*
X048310Y032153D01*
X047554Y031562D02*
X043965Y031562D01*
X043554Y031562D02*
X040965Y031562D01*
X041017Y031464D02*
X043502Y031464D01*
X043495Y031365D02*
X041025Y031365D01*
X040994Y031267D02*
X043525Y031267D01*
X043610Y031168D02*
X040909Y031168D01*
X041310Y031661D02*
X043210Y031661D01*
X043210Y031759D02*
X041310Y031759D01*
X041310Y031858D02*
X043210Y031858D01*
X043210Y031956D02*
X041310Y031956D01*
X041310Y032055D02*
X043210Y032055D01*
X043210Y032153D02*
X041310Y032153D01*
X038260Y028607D02*
X038170Y028607D01*
X038170Y028509D02*
X038260Y028509D01*
X038260Y028410D02*
X038170Y028410D01*
X038170Y028312D02*
X038260Y028312D01*
X046271Y030676D02*
X048760Y030676D01*
X048760Y030774D02*
X046351Y030774D01*
X046379Y030873D02*
X048760Y030873D01*
X048760Y030971D02*
X046368Y030971D01*
X049760Y031070D02*
X050927Y031070D01*
X050913Y031168D02*
X049760Y031168D01*
X049760Y031267D02*
X050913Y031267D01*
X050913Y031365D02*
X049760Y031365D01*
X049760Y031464D02*
X050913Y031464D01*
X050913Y031562D02*
X049760Y031562D01*
X049760Y031661D02*
X050913Y031661D01*
X050913Y031759D02*
X049760Y031759D01*
X027927Y020924D02*
X026667Y020924D01*
X026569Y021023D02*
X027829Y021023D01*
X027730Y021121D02*
X026520Y021121D01*
X026520Y021220D02*
X027632Y021220D01*
X027533Y021318D02*
X026520Y021318D01*
X026520Y021417D02*
X027435Y021417D01*
X027350Y021515D02*
X026520Y021515D01*
X026520Y021614D02*
X027350Y021614D01*
X027350Y021712D02*
X026520Y021712D01*
X026520Y021811D02*
X027350Y021811D01*
X027350Y021909D02*
X026520Y021909D01*
X026520Y022008D02*
X027350Y022008D01*
X027350Y022106D02*
X026520Y022106D01*
X026546Y022205D02*
X027350Y022205D01*
X027350Y022303D02*
X026609Y022303D01*
X026625Y022402D02*
X027350Y022402D01*
X027350Y022500D02*
X026602Y022500D01*
X026529Y022599D02*
X027350Y022599D01*
X027350Y022697D02*
X026299Y022697D01*
X026257Y022796D02*
X027350Y022796D01*
X027350Y022894D02*
X026121Y022894D01*
X025948Y022894D02*
X025471Y022894D01*
X025607Y022796D02*
X025812Y022796D01*
X025770Y022697D02*
X025649Y022697D01*
X024140Y020136D02*
X020028Y020136D01*
X020126Y020038D02*
X024140Y020038D01*
X024140Y019939D02*
X020225Y019939D01*
X020323Y019841D02*
X024140Y019841D01*
X024140Y019742D02*
X020330Y019742D01*
X020330Y019644D02*
X024140Y019644D01*
X024140Y019545D02*
X021612Y019545D01*
X021813Y019447D02*
X024140Y019447D01*
X024140Y019348D02*
X021912Y019348D01*
X021970Y019250D02*
X024140Y019250D01*
X024140Y019151D02*
X022011Y019151D01*
X022024Y019053D02*
X024140Y019053D01*
X024140Y018954D02*
X022024Y018954D01*
X022004Y018856D02*
X024140Y018856D01*
X024140Y018757D02*
X021963Y018757D01*
X021896Y018659D02*
X024140Y018659D01*
X024140Y018560D02*
X021798Y018560D01*
X021162Y018560D02*
X020404Y018560D01*
X020330Y018659D02*
X021064Y018659D01*
X020997Y018757D02*
X020330Y018757D01*
X020330Y018856D02*
X020956Y018856D01*
X020936Y018954D02*
X020330Y018954D01*
X020330Y019053D02*
X020936Y019053D01*
X020949Y019151D02*
X020330Y019151D01*
X020330Y019250D02*
X020990Y019250D01*
X021048Y019348D02*
X020330Y019348D01*
X020330Y019447D02*
X021146Y019447D01*
X021348Y019545D02*
X020330Y019545D01*
X019100Y019151D02*
X016435Y019151D01*
X016435Y019053D02*
X019060Y019053D01*
X019021Y018954D02*
X016435Y018954D01*
X016435Y018856D02*
X019021Y018856D01*
X019050Y018757D02*
X016435Y018757D01*
X016435Y018659D02*
X019116Y018659D01*
X018461Y019250D02*
X016435Y019250D01*
X016435Y019348D02*
X018363Y019348D01*
X018264Y019447D02*
X016435Y019447D01*
X016435Y019545D02*
X018166Y019545D01*
X018125Y019644D02*
X016435Y019644D01*
X016435Y019742D02*
X018125Y019742D01*
X018125Y019841D02*
X016435Y019841D01*
X016435Y019939D02*
X018125Y019939D01*
X018125Y020038D02*
X016435Y020038D01*
X016435Y020136D02*
X018125Y020136D01*
X018125Y020235D02*
X016435Y020235D01*
X016435Y020333D02*
X018125Y020333D01*
X018125Y020432D02*
X016435Y020432D01*
X016435Y020530D02*
X018125Y020530D01*
X018125Y020629D02*
X016435Y020629D01*
X016435Y020727D02*
X018125Y020727D01*
X018125Y020826D02*
X016435Y020826D01*
X016435Y020924D02*
X018125Y020924D01*
X018125Y021023D02*
X016435Y021023D01*
X016435Y021121D02*
X018125Y021121D01*
X018125Y021220D02*
X016435Y021220D01*
X016435Y021318D02*
X018125Y021318D01*
X018125Y021417D02*
X016435Y021417D01*
X016435Y021515D02*
X018125Y021515D01*
X018125Y021614D02*
X016435Y021614D01*
X016435Y021712D02*
X018125Y021712D01*
X018125Y021811D02*
X016435Y021811D01*
X016435Y021909D02*
X018125Y021909D01*
X018125Y022008D02*
X016435Y022008D01*
X016435Y022106D02*
X018125Y022106D01*
X018125Y022205D02*
X016435Y022205D01*
X016435Y022303D02*
X018125Y022303D01*
X018125Y022402D02*
X016435Y022402D01*
X016435Y022500D02*
X018125Y022500D01*
X018125Y022599D02*
X016435Y022599D01*
X016435Y022697D02*
X018125Y022697D01*
X018125Y022796D02*
X016435Y022796D01*
X016435Y022894D02*
X018125Y022894D01*
X018125Y022993D02*
X016435Y022993D01*
X016435Y023091D02*
X018125Y023091D01*
X018125Y023190D02*
X016435Y023190D01*
X016435Y023288D02*
X018125Y023288D01*
X018125Y023387D02*
X016435Y023387D01*
X016435Y023485D02*
X018125Y023485D01*
X018125Y023584D02*
X016435Y023584D01*
X016435Y023682D02*
X018125Y023682D01*
X018125Y023781D02*
X016435Y023781D01*
X016435Y023879D02*
X018125Y023879D01*
X018125Y023978D02*
X016435Y023978D01*
X016435Y024076D02*
X018125Y024076D01*
X018125Y024175D02*
X016435Y024175D01*
X016435Y024273D02*
X018125Y024273D01*
X018120Y024372D02*
X016435Y024372D01*
X016435Y024470D02*
X018130Y024470D01*
X018185Y024569D02*
X016435Y024569D01*
X016435Y024667D02*
X018540Y024667D01*
X018540Y024766D02*
X016435Y024766D01*
X016435Y024864D02*
X018540Y024864D01*
X018540Y024963D02*
X016435Y024963D01*
X016435Y025061D02*
X018540Y025061D01*
X018540Y025160D02*
X016435Y025160D01*
X016435Y025258D02*
X018540Y025258D01*
X018540Y025357D02*
X016435Y025357D01*
X016435Y025455D02*
X018540Y025455D01*
X018540Y025554D02*
X016435Y025554D01*
X016435Y025652D02*
X018540Y025652D01*
X018540Y025751D02*
X016435Y025751D01*
X016435Y025849D02*
X018540Y025849D01*
X018540Y025948D02*
X016435Y025948D01*
X016435Y026046D02*
X018540Y026046D01*
X018540Y026145D02*
X016435Y026145D01*
X016435Y026243D02*
X018540Y026243D01*
X018540Y026342D02*
X016435Y026342D01*
X016435Y026440D02*
X018540Y026440D01*
X018540Y026539D02*
X016435Y026539D01*
X016435Y026637D02*
X018540Y026637D01*
X018540Y026736D02*
X016435Y026736D01*
X016435Y026834D02*
X018540Y026834D01*
X018540Y026933D02*
X016435Y026933D01*
X016435Y027031D02*
X018540Y027031D01*
X018540Y027130D02*
X016435Y027130D01*
X016435Y027228D02*
X018540Y027228D01*
X018540Y027327D02*
X016435Y027327D01*
X016435Y027425D02*
X018540Y027425D01*
X018540Y027524D02*
X016435Y027524D01*
X016435Y027622D02*
X018469Y027622D01*
X018371Y027721D02*
X016435Y027721D01*
X016435Y027819D02*
X018272Y027819D01*
X018174Y027918D02*
X016435Y027918D01*
X016435Y028016D02*
X018075Y028016D01*
X017977Y028115D02*
X016435Y028115D01*
X016435Y028213D02*
X017878Y028213D01*
X017780Y028312D02*
X016435Y028312D01*
X016435Y028410D02*
X017379Y028410D01*
X017278Y028509D02*
X016435Y028509D01*
X016435Y028607D02*
X017245Y028607D01*
X017249Y028706D02*
X016435Y028706D01*
X016435Y028804D02*
X017296Y028804D01*
X017444Y028903D02*
X016435Y028903D01*
X016435Y029001D02*
X017540Y029001D01*
X017540Y029100D02*
X016435Y029100D01*
X016435Y029198D02*
X017000Y029198D01*
X016918Y029297D02*
X016435Y029297D01*
X016435Y029395D02*
X016913Y029395D01*
X016913Y029494D02*
X016435Y029494D01*
X016435Y029592D02*
X016913Y029592D01*
X016913Y029691D02*
X016435Y029691D01*
X016435Y029789D02*
X016913Y029789D01*
X016913Y029888D02*
X016435Y029888D01*
X016435Y029986D02*
X016913Y029986D01*
X017211Y029986D02*
X017308Y029986D01*
X017308Y029888D02*
X017211Y029888D01*
X017211Y029789D02*
X017308Y029789D01*
X017308Y029691D02*
X017211Y029691D01*
X017211Y029592D02*
X017308Y029592D01*
X017308Y029494D02*
X017211Y029494D01*
X017211Y029395D02*
X017308Y029395D01*
X017308Y029297D02*
X017211Y029297D01*
X017211Y029198D02*
X017308Y029198D01*
X017519Y029198D02*
X017540Y029198D01*
X017640Y028410D02*
X017681Y028410D01*
X018980Y027327D02*
X023019Y027327D01*
X023019Y027228D02*
X018980Y027228D01*
X018980Y027130D02*
X023019Y027130D01*
X023019Y027031D02*
X018980Y027031D01*
X018980Y026933D02*
X023019Y026933D01*
X023019Y026834D02*
X018980Y026834D01*
X018980Y026736D02*
X023019Y026736D01*
X023019Y026637D02*
X018980Y026637D01*
X018980Y026539D02*
X023012Y026539D01*
X022974Y026440D02*
X018980Y026440D01*
X018980Y026342D02*
X022974Y026342D01*
X023014Y026243D02*
X018980Y026243D01*
X018980Y026145D02*
X023146Y026145D01*
X020704Y023682D02*
X018980Y023682D01*
X018980Y023584D02*
X020704Y023584D01*
X020704Y023485D02*
X018980Y023485D01*
X018980Y023387D02*
X020704Y023387D01*
X020704Y023288D02*
X018980Y023288D01*
X018980Y023190D02*
X020704Y023190D01*
X020704Y023091D02*
X018980Y023091D01*
X018980Y022993D02*
X020704Y022993D01*
X020704Y022894D02*
X018980Y022894D01*
X018980Y022796D02*
X020704Y022796D01*
X020704Y022697D02*
X018980Y022697D01*
X018980Y022599D02*
X020704Y022599D01*
X020704Y022500D02*
X018980Y022500D01*
X018980Y022402D02*
X020644Y022402D01*
X020564Y022303D02*
X018980Y022303D01*
X018980Y022205D02*
X020526Y022205D01*
X020526Y022106D02*
X018980Y022106D01*
X018980Y022008D02*
X020554Y022008D01*
X020620Y021909D02*
X018980Y021909D01*
X017310Y018363D02*
X016435Y018363D01*
X016435Y018265D02*
X017212Y018265D01*
X017169Y018166D02*
X016435Y018166D01*
X016435Y018068D02*
X017128Y018068D01*
X017110Y017969D02*
X016435Y017969D01*
X016436Y017871D02*
X017110Y017871D01*
X017110Y017772D02*
X016442Y017772D01*
X016458Y017674D02*
X017147Y017674D01*
X017188Y017575D02*
X016485Y017575D01*
X016511Y017477D02*
X017257Y017477D01*
X017355Y017378D02*
X016540Y017378D01*
X016597Y017280D02*
X017542Y017280D01*
X021760Y031168D02*
X022610Y031168D01*
X022525Y031267D02*
X021760Y031267D01*
X021760Y031365D02*
X022495Y031365D01*
X022502Y031464D02*
X021760Y031464D01*
X021760Y031562D02*
X022554Y031562D01*
X022210Y031661D02*
X021760Y031661D01*
X021760Y031759D02*
X022210Y031759D01*
X022210Y031858D02*
X021760Y031858D01*
X021760Y031956D02*
X022210Y031956D01*
X022210Y032055D02*
X021760Y032055D01*
X021760Y032153D02*
X022210Y032153D01*
X022965Y031562D02*
X026554Y031562D01*
D27*
X018385Y024393D02*
X018385Y019694D01*
X018635Y019444D01*
X019360Y019444D01*
X019360Y018893D01*
X023164Y016893D02*
X032403Y016893D01*
X032510Y017000D01*
X032903Y017393D01*
X037903Y017393D01*
X038010Y017287D01*
X038403Y016893D01*
X049364Y016893D01*
M02*
