G75*
%MOIN*%
%OFA0B0*%
%FSLAX24Y24*%
%IPPOS*%
%LPD*%
%AMOC8*
5,1,8,0,0,1.08239X$1,22.5*
%
%ADD10C,0.0050*%
%ADD11C,0.0240*%
%ADD12C,0.0000*%
D10*
X017760Y016393D02*
X032760Y016393D01*
X033260Y016893D01*
X037260Y016893D01*
X037760Y016393D01*
X052760Y016393D01*
X052836Y016395D01*
X052912Y016401D01*
X052987Y016410D01*
X053062Y016424D01*
X053136Y016441D01*
X053209Y016462D01*
X053281Y016486D01*
X053352Y016515D01*
X053421Y016546D01*
X053488Y016581D01*
X053553Y016620D01*
X053617Y016662D01*
X053678Y016707D01*
X053737Y016755D01*
X053793Y016806D01*
X053847Y016860D01*
X053898Y016916D01*
X053946Y016975D01*
X053991Y017036D01*
X054033Y017100D01*
X054072Y017165D01*
X054107Y017232D01*
X054138Y017301D01*
X054167Y017372D01*
X054191Y017444D01*
X054212Y017517D01*
X054229Y017591D01*
X054243Y017666D01*
X054252Y017741D01*
X054258Y017817D01*
X054260Y017893D01*
X054260Y034893D01*
X054258Y034969D01*
X054252Y035045D01*
X054243Y035120D01*
X054229Y035195D01*
X054212Y035269D01*
X054191Y035342D01*
X054167Y035414D01*
X054138Y035485D01*
X054107Y035554D01*
X054072Y035621D01*
X054033Y035686D01*
X053991Y035750D01*
X053946Y035811D01*
X053898Y035870D01*
X053847Y035926D01*
X053793Y035980D01*
X053737Y036031D01*
X053678Y036079D01*
X053617Y036124D01*
X053553Y036166D01*
X053488Y036205D01*
X053421Y036240D01*
X053352Y036271D01*
X053281Y036300D01*
X053209Y036324D01*
X053136Y036345D01*
X053062Y036362D01*
X052987Y036376D01*
X052912Y036385D01*
X052836Y036391D01*
X052760Y036393D01*
X017760Y036393D01*
X017684Y036391D01*
X017608Y036385D01*
X017533Y036376D01*
X017458Y036362D01*
X017384Y036345D01*
X017311Y036324D01*
X017239Y036300D01*
X017168Y036271D01*
X017099Y036240D01*
X017032Y036205D01*
X016967Y036166D01*
X016903Y036124D01*
X016842Y036079D01*
X016783Y036031D01*
X016727Y035980D01*
X016673Y035926D01*
X016622Y035870D01*
X016574Y035811D01*
X016529Y035750D01*
X016487Y035686D01*
X016448Y035621D01*
X016413Y035554D01*
X016382Y035485D01*
X016353Y035414D01*
X016329Y035342D01*
X016308Y035269D01*
X016291Y035195D01*
X016277Y035120D01*
X016268Y035045D01*
X016262Y034969D01*
X016260Y034893D01*
X016260Y017893D01*
X016262Y017817D01*
X016268Y017741D01*
X016277Y017666D01*
X016291Y017591D01*
X016308Y017517D01*
X016329Y017444D01*
X016353Y017372D01*
X016382Y017301D01*
X016413Y017232D01*
X016448Y017165D01*
X016487Y017100D01*
X016529Y017036D01*
X016574Y016975D01*
X016622Y016916D01*
X016673Y016860D01*
X016727Y016806D01*
X016783Y016755D01*
X016842Y016707D01*
X016903Y016662D01*
X016967Y016620D01*
X017032Y016581D01*
X017099Y016546D01*
X017168Y016515D01*
X017239Y016486D01*
X017311Y016462D01*
X017384Y016441D01*
X017458Y016424D01*
X017533Y016410D01*
X017608Y016401D01*
X017684Y016395D01*
X017760Y016393D01*
X016235Y021593D02*
X015260Y021593D01*
X015260Y025593D01*
X016235Y025593D01*
X016235Y021593D01*
X016632Y022117D02*
X016887Y022117D01*
X016904Y022118D01*
X016921Y022123D01*
X016936Y022130D01*
X016950Y022140D01*
X016962Y022152D01*
X016972Y022166D01*
X016979Y022181D01*
X016984Y022198D01*
X016985Y022215D01*
X016984Y022232D01*
X016979Y022249D01*
X016972Y022264D01*
X016962Y022278D01*
X016950Y022290D01*
X016936Y022300D01*
X016921Y022307D01*
X016904Y022312D01*
X016887Y022313D01*
X016887Y022314D02*
X016632Y022314D01*
X016534Y022215D02*
X016535Y022198D01*
X016540Y022181D01*
X016547Y022166D01*
X016557Y022152D01*
X016569Y022140D01*
X016583Y022130D01*
X016598Y022123D01*
X016615Y022118D01*
X016632Y022117D01*
X016534Y022215D02*
X016535Y022232D01*
X016540Y022249D01*
X016547Y022264D01*
X016557Y022278D01*
X016569Y022290D01*
X016583Y022300D01*
X016598Y022307D01*
X016615Y022312D01*
X016632Y022313D01*
X017714Y022550D02*
X017714Y022668D01*
X017823Y022776D02*
X017842Y022774D01*
X017860Y022769D01*
X017877Y022762D01*
X017892Y022751D01*
X017906Y022737D01*
X017917Y022722D01*
X017924Y022705D01*
X017929Y022687D01*
X017931Y022668D01*
X017931Y022550D01*
X017823Y022442D02*
X017804Y022444D01*
X017786Y022449D01*
X017769Y022456D01*
X017754Y022467D01*
X017740Y022481D01*
X017729Y022496D01*
X017722Y022513D01*
X017717Y022531D01*
X017715Y022550D01*
X017823Y022442D02*
X017842Y022444D01*
X017860Y022449D01*
X017877Y022456D01*
X017892Y022467D01*
X017906Y022481D01*
X017917Y022496D01*
X017924Y022513D01*
X017929Y022531D01*
X017931Y022550D01*
X017715Y022668D02*
X017717Y022687D01*
X017722Y022705D01*
X017729Y022722D01*
X017740Y022737D01*
X017754Y022751D01*
X017769Y022762D01*
X017786Y022769D01*
X017804Y022774D01*
X017823Y022776D01*
X017832Y024410D02*
X017823Y024410D01*
X017823Y024411D02*
X017804Y024413D01*
X017786Y024418D01*
X017769Y024425D01*
X017754Y024436D01*
X017740Y024450D01*
X017729Y024465D01*
X017722Y024482D01*
X017717Y024500D01*
X017715Y024519D01*
X017714Y024519D02*
X017714Y024637D01*
X017715Y024637D02*
X017717Y024656D01*
X017722Y024674D01*
X017729Y024691D01*
X017740Y024706D01*
X017754Y024720D01*
X017769Y024731D01*
X017786Y024738D01*
X017804Y024743D01*
X017823Y024745D01*
X017832Y024745D01*
X017851Y024743D01*
X017869Y024738D01*
X017886Y024731D01*
X017901Y024720D01*
X017915Y024706D01*
X017926Y024691D01*
X017933Y024674D01*
X017938Y024656D01*
X017940Y024637D01*
X017941Y024637D02*
X017941Y024519D01*
X017940Y024519D02*
X017938Y024500D01*
X017933Y024482D01*
X017926Y024465D01*
X017915Y024450D01*
X017901Y024436D01*
X017886Y024425D01*
X017869Y024418D01*
X017851Y024413D01*
X017832Y024411D01*
X016887Y024873D02*
X016632Y024873D01*
X016534Y024971D02*
X016535Y024988D01*
X016540Y025005D01*
X016547Y025020D01*
X016557Y025034D01*
X016569Y025046D01*
X016583Y025056D01*
X016598Y025063D01*
X016615Y025068D01*
X016632Y025069D01*
X016632Y025070D02*
X016887Y025070D01*
X016985Y024971D02*
X016984Y024954D01*
X016979Y024937D01*
X016972Y024922D01*
X016962Y024908D01*
X016950Y024896D01*
X016936Y024886D01*
X016921Y024879D01*
X016904Y024874D01*
X016887Y024873D01*
X016985Y024971D02*
X016984Y024988D01*
X016979Y025005D01*
X016972Y025020D01*
X016962Y025034D01*
X016950Y025046D01*
X016936Y025056D01*
X016921Y025063D01*
X016904Y025068D01*
X016887Y025069D01*
X016632Y024873D02*
X016615Y024874D01*
X016598Y024879D01*
X016583Y024886D01*
X016569Y024896D01*
X016557Y024908D01*
X016547Y024922D01*
X016540Y024937D01*
X016535Y024954D01*
X016534Y024971D01*
X020043Y025393D02*
X020043Y027393D01*
X021130Y027393D01*
X021130Y025393D01*
X020043Y025393D01*
X022410Y031793D02*
X023910Y031793D01*
X023927Y031795D01*
X023944Y031799D01*
X023960Y031806D01*
X023974Y031816D01*
X023987Y031829D01*
X023997Y031843D01*
X024004Y031859D01*
X024008Y031876D01*
X024010Y031893D01*
X024008Y031910D01*
X024004Y031927D01*
X023997Y031943D01*
X023987Y031957D01*
X023974Y031970D01*
X023960Y031980D01*
X023944Y031987D01*
X023927Y031991D01*
X023910Y031993D01*
X022410Y031993D01*
X022310Y031893D02*
X022312Y031876D01*
X022316Y031859D01*
X022323Y031843D01*
X022333Y031829D01*
X022346Y031816D01*
X022360Y031806D01*
X022376Y031799D01*
X022393Y031795D01*
X022410Y031793D01*
X022310Y031893D02*
X022312Y031910D01*
X022316Y031927D01*
X022323Y031943D01*
X022333Y031957D01*
X022346Y031970D01*
X022360Y031980D01*
X022376Y031987D01*
X022393Y031991D01*
X022410Y031993D01*
X025610Y031993D02*
X027110Y031993D01*
X027210Y031893D02*
X027208Y031876D01*
X027204Y031859D01*
X027197Y031843D01*
X027187Y031829D01*
X027174Y031816D01*
X027160Y031806D01*
X027144Y031799D01*
X027127Y031795D01*
X027110Y031793D01*
X025610Y031793D01*
X025593Y031795D01*
X025576Y031799D01*
X025560Y031806D01*
X025546Y031816D01*
X025533Y031829D01*
X025523Y031843D01*
X025516Y031859D01*
X025512Y031876D01*
X025510Y031893D01*
X025512Y031910D01*
X025516Y031927D01*
X025523Y031943D01*
X025533Y031957D01*
X025546Y031970D01*
X025560Y031980D01*
X025576Y031987D01*
X025593Y031991D01*
X025610Y031993D01*
X027110Y031993D02*
X027127Y031991D01*
X027144Y031987D01*
X027160Y031980D01*
X027174Y031970D01*
X027187Y031957D01*
X027197Y031943D01*
X027204Y031927D01*
X027208Y031910D01*
X027210Y031893D01*
X029310Y031893D02*
X029312Y031876D01*
X029316Y031859D01*
X029323Y031843D01*
X029333Y031829D01*
X029346Y031816D01*
X029360Y031806D01*
X029376Y031799D01*
X029393Y031795D01*
X029410Y031793D01*
X030910Y031793D01*
X030927Y031795D01*
X030944Y031799D01*
X030960Y031806D01*
X030974Y031816D01*
X030987Y031829D01*
X030997Y031843D01*
X031004Y031859D01*
X031008Y031876D01*
X031010Y031893D01*
X031008Y031910D01*
X031004Y031927D01*
X030997Y031943D01*
X030987Y031957D01*
X030974Y031970D01*
X030960Y031980D01*
X030944Y031987D01*
X030927Y031991D01*
X030910Y031993D01*
X029410Y031993D01*
X029393Y031991D01*
X029376Y031987D01*
X029360Y031980D01*
X029346Y031970D01*
X029333Y031957D01*
X029323Y031943D01*
X029316Y031927D01*
X029312Y031910D01*
X029310Y031893D01*
X032510Y031893D02*
X032512Y031876D01*
X032516Y031859D01*
X032523Y031843D01*
X032533Y031829D01*
X032546Y031816D01*
X032560Y031806D01*
X032576Y031799D01*
X032593Y031795D01*
X032610Y031793D01*
X034110Y031793D01*
X034127Y031795D01*
X034144Y031799D01*
X034160Y031806D01*
X034174Y031816D01*
X034187Y031829D01*
X034197Y031843D01*
X034204Y031859D01*
X034208Y031876D01*
X034210Y031893D01*
X034208Y031910D01*
X034204Y031927D01*
X034197Y031943D01*
X034187Y031957D01*
X034174Y031970D01*
X034160Y031980D01*
X034144Y031987D01*
X034127Y031991D01*
X034110Y031993D01*
X032610Y031993D01*
X032593Y031991D01*
X032576Y031987D01*
X032560Y031980D01*
X032546Y031970D01*
X032533Y031957D01*
X032523Y031943D01*
X032516Y031927D01*
X032512Y031910D01*
X032510Y031893D01*
X036310Y031893D02*
X036312Y031876D01*
X036316Y031859D01*
X036323Y031843D01*
X036333Y031829D01*
X036346Y031816D01*
X036360Y031806D01*
X036376Y031799D01*
X036393Y031795D01*
X036410Y031793D01*
X037910Y031793D01*
X037927Y031795D01*
X037944Y031799D01*
X037960Y031806D01*
X037974Y031816D01*
X037987Y031829D01*
X037997Y031843D01*
X038004Y031859D01*
X038008Y031876D01*
X038010Y031893D01*
X038008Y031910D01*
X038004Y031927D01*
X037997Y031943D01*
X037987Y031957D01*
X037974Y031970D01*
X037960Y031980D01*
X037944Y031987D01*
X037927Y031991D01*
X037910Y031993D01*
X036410Y031993D01*
X036393Y031991D01*
X036376Y031987D01*
X036360Y031980D01*
X036346Y031970D01*
X036333Y031957D01*
X036323Y031943D01*
X036316Y031927D01*
X036312Y031910D01*
X036310Y031893D01*
X039510Y031893D02*
X039512Y031876D01*
X039516Y031859D01*
X039523Y031843D01*
X039533Y031829D01*
X039546Y031816D01*
X039560Y031806D01*
X039576Y031799D01*
X039593Y031795D01*
X039610Y031793D01*
X041110Y031793D01*
X041127Y031795D01*
X041144Y031799D01*
X041160Y031806D01*
X041174Y031816D01*
X041187Y031829D01*
X041197Y031843D01*
X041204Y031859D01*
X041208Y031876D01*
X041210Y031893D01*
X041208Y031910D01*
X041204Y031927D01*
X041197Y031943D01*
X041187Y031957D01*
X041174Y031970D01*
X041160Y031980D01*
X041144Y031987D01*
X041127Y031991D01*
X041110Y031993D01*
X039610Y031993D01*
X039593Y031991D01*
X039576Y031987D01*
X039560Y031980D01*
X039546Y031970D01*
X039533Y031957D01*
X039523Y031943D01*
X039516Y031927D01*
X039512Y031910D01*
X039510Y031893D01*
X043310Y031893D02*
X043312Y031876D01*
X043316Y031859D01*
X043323Y031843D01*
X043333Y031829D01*
X043346Y031816D01*
X043360Y031806D01*
X043376Y031799D01*
X043393Y031795D01*
X043410Y031793D01*
X044910Y031793D01*
X044927Y031795D01*
X044944Y031799D01*
X044960Y031806D01*
X044974Y031816D01*
X044987Y031829D01*
X044997Y031843D01*
X045004Y031859D01*
X045008Y031876D01*
X045010Y031893D01*
X045008Y031910D01*
X045004Y031927D01*
X044997Y031943D01*
X044987Y031957D01*
X044974Y031970D01*
X044960Y031980D01*
X044944Y031987D01*
X044927Y031991D01*
X044910Y031993D01*
X043410Y031993D01*
X043393Y031991D01*
X043376Y031987D01*
X043360Y031980D01*
X043346Y031970D01*
X043333Y031957D01*
X043323Y031943D01*
X043316Y031927D01*
X043312Y031910D01*
X043310Y031893D01*
X046510Y031893D02*
X046512Y031876D01*
X046516Y031859D01*
X046523Y031843D01*
X046533Y031829D01*
X046546Y031816D01*
X046560Y031806D01*
X046576Y031799D01*
X046593Y031795D01*
X046610Y031793D01*
X048110Y031793D01*
X048127Y031795D01*
X048144Y031799D01*
X048160Y031806D01*
X048174Y031816D01*
X048187Y031829D01*
X048197Y031843D01*
X048204Y031859D01*
X048208Y031876D01*
X048210Y031893D01*
X048208Y031910D01*
X048204Y031927D01*
X048197Y031943D01*
X048187Y031957D01*
X048174Y031970D01*
X048160Y031980D01*
X048144Y031987D01*
X048127Y031991D01*
X048110Y031993D01*
X046610Y031993D01*
X046593Y031991D01*
X046576Y031987D01*
X046560Y031980D01*
X046546Y031970D01*
X046533Y031957D01*
X046523Y031943D01*
X046516Y031927D01*
X046512Y031910D01*
X046510Y031893D01*
X046610Y035793D02*
X048110Y035793D01*
X048127Y035795D01*
X048144Y035799D01*
X048160Y035806D01*
X048174Y035816D01*
X048187Y035829D01*
X048197Y035843D01*
X048204Y035859D01*
X048208Y035876D01*
X048210Y035893D01*
X048208Y035910D01*
X048204Y035927D01*
X048197Y035943D01*
X048187Y035957D01*
X048174Y035970D01*
X048160Y035980D01*
X048144Y035987D01*
X048127Y035991D01*
X048110Y035993D01*
X046610Y035993D01*
X046510Y035893D02*
X046512Y035876D01*
X046516Y035859D01*
X046523Y035843D01*
X046533Y035829D01*
X046546Y035816D01*
X046560Y035806D01*
X046576Y035799D01*
X046593Y035795D01*
X046610Y035793D01*
X046510Y035893D02*
X046512Y035910D01*
X046516Y035927D01*
X046523Y035943D01*
X046533Y035957D01*
X046546Y035970D01*
X046560Y035980D01*
X046576Y035987D01*
X046593Y035991D01*
X046610Y035993D01*
X044910Y035993D02*
X043410Y035993D01*
X043310Y035893D02*
X043312Y035876D01*
X043316Y035859D01*
X043323Y035843D01*
X043333Y035829D01*
X043346Y035816D01*
X043360Y035806D01*
X043376Y035799D01*
X043393Y035795D01*
X043410Y035793D01*
X044910Y035793D01*
X044927Y035795D01*
X044944Y035799D01*
X044960Y035806D01*
X044974Y035816D01*
X044987Y035829D01*
X044997Y035843D01*
X045004Y035859D01*
X045008Y035876D01*
X045010Y035893D01*
X045008Y035910D01*
X045004Y035927D01*
X044997Y035943D01*
X044987Y035957D01*
X044974Y035970D01*
X044960Y035980D01*
X044944Y035987D01*
X044927Y035991D01*
X044910Y035993D01*
X043410Y035993D02*
X043393Y035991D01*
X043376Y035987D01*
X043360Y035980D01*
X043346Y035970D01*
X043333Y035957D01*
X043323Y035943D01*
X043316Y035927D01*
X043312Y035910D01*
X043310Y035893D01*
X041210Y035893D02*
X041208Y035876D01*
X041204Y035859D01*
X041197Y035843D01*
X041187Y035829D01*
X041174Y035816D01*
X041160Y035806D01*
X041144Y035799D01*
X041127Y035795D01*
X041110Y035793D01*
X039610Y035793D01*
X039593Y035795D01*
X039576Y035799D01*
X039560Y035806D01*
X039546Y035816D01*
X039533Y035829D01*
X039523Y035843D01*
X039516Y035859D01*
X039512Y035876D01*
X039510Y035893D01*
X039512Y035910D01*
X039516Y035927D01*
X039523Y035943D01*
X039533Y035957D01*
X039546Y035970D01*
X039560Y035980D01*
X039576Y035987D01*
X039593Y035991D01*
X039610Y035993D01*
X041110Y035993D01*
X041127Y035991D01*
X041144Y035987D01*
X041160Y035980D01*
X041174Y035970D01*
X041187Y035957D01*
X041197Y035943D01*
X041204Y035927D01*
X041208Y035910D01*
X041210Y035893D01*
X038010Y035893D02*
X038008Y035876D01*
X038004Y035859D01*
X037997Y035843D01*
X037987Y035829D01*
X037974Y035816D01*
X037960Y035806D01*
X037944Y035799D01*
X037927Y035795D01*
X037910Y035793D01*
X036410Y035793D01*
X036393Y035795D01*
X036376Y035799D01*
X036360Y035806D01*
X036346Y035816D01*
X036333Y035829D01*
X036323Y035843D01*
X036316Y035859D01*
X036312Y035876D01*
X036310Y035893D01*
X036312Y035910D01*
X036316Y035927D01*
X036323Y035943D01*
X036333Y035957D01*
X036346Y035970D01*
X036360Y035980D01*
X036376Y035987D01*
X036393Y035991D01*
X036410Y035993D01*
X037910Y035993D01*
X037927Y035991D01*
X037944Y035987D01*
X037960Y035980D01*
X037974Y035970D01*
X037987Y035957D01*
X037997Y035943D01*
X038004Y035927D01*
X038008Y035910D01*
X038010Y035893D01*
X034210Y035893D02*
X034208Y035876D01*
X034204Y035859D01*
X034197Y035843D01*
X034187Y035829D01*
X034174Y035816D01*
X034160Y035806D01*
X034144Y035799D01*
X034127Y035795D01*
X034110Y035793D01*
X032610Y035793D01*
X032593Y035795D01*
X032576Y035799D01*
X032560Y035806D01*
X032546Y035816D01*
X032533Y035829D01*
X032523Y035843D01*
X032516Y035859D01*
X032512Y035876D01*
X032510Y035893D01*
X032512Y035910D01*
X032516Y035927D01*
X032523Y035943D01*
X032533Y035957D01*
X032546Y035970D01*
X032560Y035980D01*
X032576Y035987D01*
X032593Y035991D01*
X032610Y035993D01*
X034110Y035993D01*
X034127Y035991D01*
X034144Y035987D01*
X034160Y035980D01*
X034174Y035970D01*
X034187Y035957D01*
X034197Y035943D01*
X034204Y035927D01*
X034208Y035910D01*
X034210Y035893D01*
X031010Y035893D02*
X031008Y035876D01*
X031004Y035859D01*
X030997Y035843D01*
X030987Y035829D01*
X030974Y035816D01*
X030960Y035806D01*
X030944Y035799D01*
X030927Y035795D01*
X030910Y035793D01*
X029410Y035793D01*
X029393Y035795D01*
X029376Y035799D01*
X029360Y035806D01*
X029346Y035816D01*
X029333Y035829D01*
X029323Y035843D01*
X029316Y035859D01*
X029312Y035876D01*
X029310Y035893D01*
X029312Y035910D01*
X029316Y035927D01*
X029323Y035943D01*
X029333Y035957D01*
X029346Y035970D01*
X029360Y035980D01*
X029376Y035987D01*
X029393Y035991D01*
X029410Y035993D01*
X030910Y035993D01*
X030927Y035991D01*
X030944Y035987D01*
X030960Y035980D01*
X030974Y035970D01*
X030987Y035957D01*
X030997Y035943D01*
X031004Y035927D01*
X031008Y035910D01*
X031010Y035893D01*
X027210Y035893D02*
X027208Y035876D01*
X027204Y035859D01*
X027197Y035843D01*
X027187Y035829D01*
X027174Y035816D01*
X027160Y035806D01*
X027144Y035799D01*
X027127Y035795D01*
X027110Y035793D01*
X025610Y035793D01*
X025593Y035795D01*
X025576Y035799D01*
X025560Y035806D01*
X025546Y035816D01*
X025533Y035829D01*
X025523Y035843D01*
X025516Y035859D01*
X025512Y035876D01*
X025510Y035893D01*
X025512Y035910D01*
X025516Y035927D01*
X025523Y035943D01*
X025533Y035957D01*
X025546Y035970D01*
X025560Y035980D01*
X025576Y035987D01*
X025593Y035991D01*
X025610Y035993D01*
X027110Y035993D01*
X027127Y035991D01*
X027144Y035987D01*
X027160Y035980D01*
X027174Y035970D01*
X027187Y035957D01*
X027197Y035943D01*
X027204Y035927D01*
X027208Y035910D01*
X027210Y035893D01*
X024010Y035893D02*
X024008Y035876D01*
X024004Y035859D01*
X023997Y035843D01*
X023987Y035829D01*
X023974Y035816D01*
X023960Y035806D01*
X023944Y035799D01*
X023927Y035795D01*
X023910Y035793D01*
X022410Y035793D01*
X022393Y035795D01*
X022376Y035799D01*
X022360Y035806D01*
X022346Y035816D01*
X022333Y035829D01*
X022323Y035843D01*
X022316Y035859D01*
X022312Y035876D01*
X022310Y035893D01*
X022312Y035910D01*
X022316Y035927D01*
X022323Y035943D01*
X022333Y035957D01*
X022346Y035970D01*
X022360Y035980D01*
X022376Y035987D01*
X022393Y035991D01*
X022410Y035993D01*
X023910Y035993D01*
X023927Y035991D01*
X023944Y035987D01*
X023960Y035980D01*
X023974Y035970D01*
X023987Y035957D01*
X023997Y035943D01*
X024004Y035927D01*
X024008Y035910D01*
X024010Y035893D01*
X049389Y027393D02*
X049389Y025393D01*
X050476Y025393D01*
X050476Y027393D01*
X049389Y027393D01*
D11*
X049560Y029643D02*
X049560Y032393D01*
X049560Y029643D02*
X039010Y029643D01*
X038510Y029143D01*
X038510Y027843D01*
X032010Y027843D02*
X032010Y029143D01*
X031510Y029643D01*
X020960Y029643D01*
X020960Y032393D01*
D12*
X021086Y033775D02*
X021088Y033814D01*
X021094Y033853D01*
X021104Y033891D01*
X021117Y033928D01*
X021134Y033963D01*
X021154Y033997D01*
X021178Y034028D01*
X021205Y034057D01*
X021234Y034083D01*
X021266Y034106D01*
X021300Y034126D01*
X021336Y034142D01*
X021373Y034154D01*
X021412Y034163D01*
X021451Y034168D01*
X021490Y034169D01*
X021529Y034166D01*
X021568Y034159D01*
X021605Y034148D01*
X021642Y034134D01*
X021677Y034116D01*
X021710Y034095D01*
X021741Y034070D01*
X021769Y034043D01*
X021794Y034013D01*
X021816Y033980D01*
X021835Y033946D01*
X021850Y033910D01*
X021862Y033872D01*
X021870Y033834D01*
X021874Y033795D01*
X021874Y033755D01*
X021870Y033716D01*
X021862Y033678D01*
X021850Y033640D01*
X021835Y033604D01*
X021816Y033570D01*
X021794Y033537D01*
X021769Y033507D01*
X021741Y033480D01*
X021710Y033455D01*
X021677Y033434D01*
X021642Y033416D01*
X021605Y033402D01*
X021568Y033391D01*
X021529Y033384D01*
X021490Y033381D01*
X021451Y033382D01*
X021412Y033387D01*
X021373Y033396D01*
X021336Y033408D01*
X021300Y033424D01*
X021266Y033444D01*
X021234Y033467D01*
X021205Y033493D01*
X021178Y033522D01*
X021154Y033553D01*
X021134Y033587D01*
X021117Y033622D01*
X021104Y033659D01*
X021094Y033697D01*
X021088Y033736D01*
X021086Y033775D01*
X017260Y034893D02*
X017262Y034937D01*
X017268Y034981D01*
X017278Y035024D01*
X017291Y035066D01*
X017308Y035107D01*
X017329Y035146D01*
X017353Y035183D01*
X017380Y035218D01*
X017410Y035250D01*
X017443Y035280D01*
X017479Y035306D01*
X017516Y035330D01*
X017556Y035349D01*
X017597Y035366D01*
X017640Y035378D01*
X017683Y035387D01*
X017727Y035392D01*
X017771Y035393D01*
X017815Y035390D01*
X017859Y035383D01*
X017902Y035372D01*
X017944Y035358D01*
X017984Y035340D01*
X018023Y035318D01*
X018059Y035294D01*
X018093Y035266D01*
X018125Y035235D01*
X018154Y035201D01*
X018180Y035165D01*
X018202Y035127D01*
X018221Y035087D01*
X018236Y035045D01*
X018248Y035003D01*
X018256Y034959D01*
X018260Y034915D01*
X018260Y034871D01*
X018256Y034827D01*
X018248Y034783D01*
X018236Y034741D01*
X018221Y034699D01*
X018202Y034659D01*
X018180Y034621D01*
X018154Y034585D01*
X018125Y034551D01*
X018093Y034520D01*
X018059Y034492D01*
X018023Y034468D01*
X017984Y034446D01*
X017944Y034428D01*
X017902Y034414D01*
X017859Y034403D01*
X017815Y034396D01*
X017771Y034393D01*
X017727Y034394D01*
X017683Y034399D01*
X017640Y034408D01*
X017597Y034420D01*
X017556Y034437D01*
X017516Y034456D01*
X017479Y034480D01*
X017443Y034506D01*
X017410Y034536D01*
X017380Y034568D01*
X017353Y034603D01*
X017329Y034640D01*
X017308Y034679D01*
X017291Y034720D01*
X017278Y034762D01*
X017268Y034805D01*
X017262Y034849D01*
X017260Y034893D01*
X021086Y019011D02*
X021088Y019050D01*
X021094Y019089D01*
X021104Y019127D01*
X021117Y019164D01*
X021134Y019199D01*
X021154Y019233D01*
X021178Y019264D01*
X021205Y019293D01*
X021234Y019319D01*
X021266Y019342D01*
X021300Y019362D01*
X021336Y019378D01*
X021373Y019390D01*
X021412Y019399D01*
X021451Y019404D01*
X021490Y019405D01*
X021529Y019402D01*
X021568Y019395D01*
X021605Y019384D01*
X021642Y019370D01*
X021677Y019352D01*
X021710Y019331D01*
X021741Y019306D01*
X021769Y019279D01*
X021794Y019249D01*
X021816Y019216D01*
X021835Y019182D01*
X021850Y019146D01*
X021862Y019108D01*
X021870Y019070D01*
X021874Y019031D01*
X021874Y018991D01*
X021870Y018952D01*
X021862Y018914D01*
X021850Y018876D01*
X021835Y018840D01*
X021816Y018806D01*
X021794Y018773D01*
X021769Y018743D01*
X021741Y018716D01*
X021710Y018691D01*
X021677Y018670D01*
X021642Y018652D01*
X021605Y018638D01*
X021568Y018627D01*
X021529Y018620D01*
X021490Y018617D01*
X021451Y018618D01*
X021412Y018623D01*
X021373Y018632D01*
X021336Y018644D01*
X021300Y018660D01*
X021266Y018680D01*
X021234Y018703D01*
X021205Y018729D01*
X021178Y018758D01*
X021154Y018789D01*
X021134Y018823D01*
X021117Y018858D01*
X021104Y018895D01*
X021094Y018933D01*
X021088Y018972D01*
X021086Y019011D01*
X017260Y017893D02*
X017262Y017937D01*
X017268Y017981D01*
X017278Y018024D01*
X017291Y018066D01*
X017308Y018107D01*
X017329Y018146D01*
X017353Y018183D01*
X017380Y018218D01*
X017410Y018250D01*
X017443Y018280D01*
X017479Y018306D01*
X017516Y018330D01*
X017556Y018349D01*
X017597Y018366D01*
X017640Y018378D01*
X017683Y018387D01*
X017727Y018392D01*
X017771Y018393D01*
X017815Y018390D01*
X017859Y018383D01*
X017902Y018372D01*
X017944Y018358D01*
X017984Y018340D01*
X018023Y018318D01*
X018059Y018294D01*
X018093Y018266D01*
X018125Y018235D01*
X018154Y018201D01*
X018180Y018165D01*
X018202Y018127D01*
X018221Y018087D01*
X018236Y018045D01*
X018248Y018003D01*
X018256Y017959D01*
X018260Y017915D01*
X018260Y017871D01*
X018256Y017827D01*
X018248Y017783D01*
X018236Y017741D01*
X018221Y017699D01*
X018202Y017659D01*
X018180Y017621D01*
X018154Y017585D01*
X018125Y017551D01*
X018093Y017520D01*
X018059Y017492D01*
X018023Y017468D01*
X017984Y017446D01*
X017944Y017428D01*
X017902Y017414D01*
X017859Y017403D01*
X017815Y017396D01*
X017771Y017393D01*
X017727Y017394D01*
X017683Y017399D01*
X017640Y017408D01*
X017597Y017420D01*
X017556Y017437D01*
X017516Y017456D01*
X017479Y017480D01*
X017443Y017506D01*
X017410Y017536D01*
X017380Y017568D01*
X017353Y017603D01*
X017329Y017640D01*
X017308Y017679D01*
X017291Y017720D01*
X017278Y017762D01*
X017268Y017805D01*
X017262Y017849D01*
X017260Y017893D01*
X042911Y017435D02*
X042913Y017461D01*
X042919Y017487D01*
X042928Y017511D01*
X042941Y017534D01*
X042958Y017554D01*
X042977Y017572D01*
X042999Y017587D01*
X043022Y017598D01*
X043047Y017606D01*
X043073Y017610D01*
X043099Y017610D01*
X043125Y017606D01*
X043150Y017598D01*
X043174Y017587D01*
X043195Y017572D01*
X043214Y017554D01*
X043231Y017534D01*
X043244Y017511D01*
X043253Y017487D01*
X043259Y017461D01*
X043261Y017435D01*
X043259Y017409D01*
X043253Y017383D01*
X043244Y017359D01*
X043231Y017336D01*
X043214Y017316D01*
X043195Y017298D01*
X043173Y017283D01*
X043150Y017272D01*
X043125Y017264D01*
X043099Y017260D01*
X043073Y017260D01*
X043047Y017264D01*
X043022Y017272D01*
X042998Y017283D01*
X042977Y017298D01*
X042958Y017316D01*
X042941Y017336D01*
X042928Y017359D01*
X042919Y017383D01*
X042913Y017409D01*
X042911Y017435D01*
X046060Y017435D02*
X046062Y017461D01*
X046068Y017487D01*
X046077Y017511D01*
X046090Y017534D01*
X046107Y017554D01*
X046126Y017572D01*
X046148Y017587D01*
X046171Y017598D01*
X046196Y017606D01*
X046222Y017610D01*
X046248Y017610D01*
X046274Y017606D01*
X046299Y017598D01*
X046323Y017587D01*
X046344Y017572D01*
X046363Y017554D01*
X046380Y017534D01*
X046393Y017511D01*
X046402Y017487D01*
X046408Y017461D01*
X046410Y017435D01*
X046408Y017409D01*
X046402Y017383D01*
X046393Y017359D01*
X046380Y017336D01*
X046363Y017316D01*
X046344Y017298D01*
X046322Y017283D01*
X046299Y017272D01*
X046274Y017264D01*
X046248Y017260D01*
X046222Y017260D01*
X046196Y017264D01*
X046171Y017272D01*
X046147Y017283D01*
X046126Y017298D01*
X046107Y017316D01*
X046090Y017336D01*
X046077Y017359D01*
X046068Y017383D01*
X046062Y017409D01*
X046060Y017435D01*
X048645Y019011D02*
X048647Y019050D01*
X048653Y019089D01*
X048663Y019127D01*
X048676Y019164D01*
X048693Y019199D01*
X048713Y019233D01*
X048737Y019264D01*
X048764Y019293D01*
X048793Y019319D01*
X048825Y019342D01*
X048859Y019362D01*
X048895Y019378D01*
X048932Y019390D01*
X048971Y019399D01*
X049010Y019404D01*
X049049Y019405D01*
X049088Y019402D01*
X049127Y019395D01*
X049164Y019384D01*
X049201Y019370D01*
X049236Y019352D01*
X049269Y019331D01*
X049300Y019306D01*
X049328Y019279D01*
X049353Y019249D01*
X049375Y019216D01*
X049394Y019182D01*
X049409Y019146D01*
X049421Y019108D01*
X049429Y019070D01*
X049433Y019031D01*
X049433Y018991D01*
X049429Y018952D01*
X049421Y018914D01*
X049409Y018876D01*
X049394Y018840D01*
X049375Y018806D01*
X049353Y018773D01*
X049328Y018743D01*
X049300Y018716D01*
X049269Y018691D01*
X049236Y018670D01*
X049201Y018652D01*
X049164Y018638D01*
X049127Y018627D01*
X049088Y018620D01*
X049049Y018617D01*
X049010Y018618D01*
X048971Y018623D01*
X048932Y018632D01*
X048895Y018644D01*
X048859Y018660D01*
X048825Y018680D01*
X048793Y018703D01*
X048764Y018729D01*
X048737Y018758D01*
X048713Y018789D01*
X048693Y018823D01*
X048676Y018858D01*
X048663Y018895D01*
X048653Y018933D01*
X048647Y018972D01*
X048645Y019011D01*
X052260Y017893D02*
X052262Y017937D01*
X052268Y017981D01*
X052278Y018024D01*
X052291Y018066D01*
X052308Y018107D01*
X052329Y018146D01*
X052353Y018183D01*
X052380Y018218D01*
X052410Y018250D01*
X052443Y018280D01*
X052479Y018306D01*
X052516Y018330D01*
X052556Y018349D01*
X052597Y018366D01*
X052640Y018378D01*
X052683Y018387D01*
X052727Y018392D01*
X052771Y018393D01*
X052815Y018390D01*
X052859Y018383D01*
X052902Y018372D01*
X052944Y018358D01*
X052984Y018340D01*
X053023Y018318D01*
X053059Y018294D01*
X053093Y018266D01*
X053125Y018235D01*
X053154Y018201D01*
X053180Y018165D01*
X053202Y018127D01*
X053221Y018087D01*
X053236Y018045D01*
X053248Y018003D01*
X053256Y017959D01*
X053260Y017915D01*
X053260Y017871D01*
X053256Y017827D01*
X053248Y017783D01*
X053236Y017741D01*
X053221Y017699D01*
X053202Y017659D01*
X053180Y017621D01*
X053154Y017585D01*
X053125Y017551D01*
X053093Y017520D01*
X053059Y017492D01*
X053023Y017468D01*
X052984Y017446D01*
X052944Y017428D01*
X052902Y017414D01*
X052859Y017403D01*
X052815Y017396D01*
X052771Y017393D01*
X052727Y017394D01*
X052683Y017399D01*
X052640Y017408D01*
X052597Y017420D01*
X052556Y017437D01*
X052516Y017456D01*
X052479Y017480D01*
X052443Y017506D01*
X052410Y017536D01*
X052380Y017568D01*
X052353Y017603D01*
X052329Y017640D01*
X052308Y017679D01*
X052291Y017720D01*
X052278Y017762D01*
X052268Y017805D01*
X052262Y017849D01*
X052260Y017893D01*
X048645Y033775D02*
X048647Y033814D01*
X048653Y033853D01*
X048663Y033891D01*
X048676Y033928D01*
X048693Y033963D01*
X048713Y033997D01*
X048737Y034028D01*
X048764Y034057D01*
X048793Y034083D01*
X048825Y034106D01*
X048859Y034126D01*
X048895Y034142D01*
X048932Y034154D01*
X048971Y034163D01*
X049010Y034168D01*
X049049Y034169D01*
X049088Y034166D01*
X049127Y034159D01*
X049164Y034148D01*
X049201Y034134D01*
X049236Y034116D01*
X049269Y034095D01*
X049300Y034070D01*
X049328Y034043D01*
X049353Y034013D01*
X049375Y033980D01*
X049394Y033946D01*
X049409Y033910D01*
X049421Y033872D01*
X049429Y033834D01*
X049433Y033795D01*
X049433Y033755D01*
X049429Y033716D01*
X049421Y033678D01*
X049409Y033640D01*
X049394Y033604D01*
X049375Y033570D01*
X049353Y033537D01*
X049328Y033507D01*
X049300Y033480D01*
X049269Y033455D01*
X049236Y033434D01*
X049201Y033416D01*
X049164Y033402D01*
X049127Y033391D01*
X049088Y033384D01*
X049049Y033381D01*
X049010Y033382D01*
X048971Y033387D01*
X048932Y033396D01*
X048895Y033408D01*
X048859Y033424D01*
X048825Y033444D01*
X048793Y033467D01*
X048764Y033493D01*
X048737Y033522D01*
X048713Y033553D01*
X048693Y033587D01*
X048676Y033622D01*
X048663Y033659D01*
X048653Y033697D01*
X048647Y033736D01*
X048645Y033775D01*
X052260Y034893D02*
X052262Y034937D01*
X052268Y034981D01*
X052278Y035024D01*
X052291Y035066D01*
X052308Y035107D01*
X052329Y035146D01*
X052353Y035183D01*
X052380Y035218D01*
X052410Y035250D01*
X052443Y035280D01*
X052479Y035306D01*
X052516Y035330D01*
X052556Y035349D01*
X052597Y035366D01*
X052640Y035378D01*
X052683Y035387D01*
X052727Y035392D01*
X052771Y035393D01*
X052815Y035390D01*
X052859Y035383D01*
X052902Y035372D01*
X052944Y035358D01*
X052984Y035340D01*
X053023Y035318D01*
X053059Y035294D01*
X053093Y035266D01*
X053125Y035235D01*
X053154Y035201D01*
X053180Y035165D01*
X053202Y035127D01*
X053221Y035087D01*
X053236Y035045D01*
X053248Y035003D01*
X053256Y034959D01*
X053260Y034915D01*
X053260Y034871D01*
X053256Y034827D01*
X053248Y034783D01*
X053236Y034741D01*
X053221Y034699D01*
X053202Y034659D01*
X053180Y034621D01*
X053154Y034585D01*
X053125Y034551D01*
X053093Y034520D01*
X053059Y034492D01*
X053023Y034468D01*
X052984Y034446D01*
X052944Y034428D01*
X052902Y034414D01*
X052859Y034403D01*
X052815Y034396D01*
X052771Y034393D01*
X052727Y034394D01*
X052683Y034399D01*
X052640Y034408D01*
X052597Y034420D01*
X052556Y034437D01*
X052516Y034456D01*
X052479Y034480D01*
X052443Y034506D01*
X052410Y034536D01*
X052380Y034568D01*
X052353Y034603D01*
X052329Y034640D01*
X052308Y034679D01*
X052291Y034720D01*
X052278Y034762D01*
X052268Y034805D01*
X052262Y034849D01*
X052260Y034893D01*
M02*
