%
M48
M72
T01C0.0130
T02C0.0236
T03C0.0350
T04C0.0787
T05C0.1000
%
T01
X19360Y16893
X20780Y17393
X20760Y19643
X19360Y19444
X19410Y20543
X19510Y21893
X20260Y22643
X21260Y22643
X22010Y22893
X22760Y22643
X23160Y22143
X23885Y22143
X24360Y21643
X25060Y22393
X25385Y22643
X25710Y22393
X26035Y22643
X26360Y22393
X27135Y22643
X27135Y21393
X28697Y22268
X30760Y22268
X31010Y24081
X31010Y24672
X30510Y25643
X31197Y26039
X30635Y26518
X29835Y27056
X30110Y27393
X30635Y27393
X30635Y28268
X29560Y27393
X29285Y27056
X29010Y27393
X28322Y27081
X28010Y27393
X28010Y26768
X26635Y28393
X25405Y28831
X24510Y28081
X24885Y27768
X23760Y28893
X23385Y28618
X23010Y28331
X22635Y28018
X21760Y27143
X21760Y26393
X21760Y25643
X21760Y24893
X21010Y24893
X20864Y24143
X20260Y24393
X19510Y25143
X18385Y24393
X18010Y25143
X18010Y22143
X17860Y20693
X22510Y19893
X24910Y19668
X26410Y18856
X26410Y17793
X23660Y17793
X29910Y17793
X29910Y18856
X32760Y18293
X34510Y18293
X35760Y18893
X35410Y19593
X34910Y19893
X36048Y21318
X35752Y21593
X35455Y21893
X34260Y22268
X35760Y24393
X37510Y24393
X39010Y24393
X40510Y24393
X42010Y24393
X43243Y23956
X43510Y24393
X44110Y24268
X44976Y24456
X45409Y23456
X46410Y24643
X47760Y23643
X48260Y23143
X49260Y22643
X48572Y21706
X48905Y21393
X50135Y21518
X51635Y20768
X50135Y19268
X47510Y18643
X46760Y19268
X45635Y19268
X44976Y19893
X44110Y19593
X43385Y19268
X43243Y20193
X41285Y19893
X40785Y19593
X41010Y18893
X39285Y20193
X38260Y20476
X38260Y21143
X37910Y21998
X41010Y22143
X41010Y21143
X38260Y18893
X38430Y18293
X39260Y17393
X41010Y17393
X44635Y17456
X44543Y18643
X47260Y20093
X46410Y20756
X46760Y21143
X46760Y22143
X50760Y24956
X52510Y24143
X52572Y25893
X52572Y27393
X52572Y28893
X50760Y28843
X47760Y31393
X46114Y30893
X45405Y30893
X45760Y31893
X45760Y33393
X45760Y34893
X42760Y35393
X42260Y34893
X42260Y33393
X42260Y31893
X43760Y31393
X40760Y31393
X39114Y30893
X38405Y30893
X38760Y31893
X38760Y33393
X38760Y34893
X35910Y32893
X34885Y32893
X33760Y31393
X32114Y31143
X31405Y31143
X31760Y31893
X31760Y33393
X31760Y34893
X34885Y34893
X35634Y34893
X36760Y31393
X36260Y29643
X37010Y28893
X37260Y28393
X37010Y27893
X37260Y27393
X37510Y26143
X35434Y25543
X35135Y25893
X34910Y26393
X33160Y26543
X33260Y27393
X32960Y27893
X33560Y28393
X33260Y28893
X34260Y29643
X29760Y31393
X28260Y31893
X28760Y32893
X28260Y33393
X28260Y34893
X24760Y34893
X24760Y33393
X24760Y31893
X25114Y30893
X24405Y30893
X22760Y31393
X20510Y30893
X20510Y29893
X19447Y28331
X19010Y28018
X17510Y28643
X20510Y31893
X21760Y32893
X26760Y31393
X23760Y26393
X23239Y26393
X23760Y24613
X22760Y23643
X24360Y23476
X25760Y23893
X25760Y25893
X32197Y24956
X32510Y25268
X33260Y24581
X37010Y18893
X36510Y18293
X49364Y16893
X51260Y18643
T02
X19360Y18893
X23164Y16893
X20864Y22143
X33760Y18793
X50864Y21394
X51510Y23456
X39760Y26518
T03
X43086Y17435
X46235Y17435
T04
X21480Y19011
X21480Y33775
X49039Y19011
X49039Y33775
T05
X52760Y17893
X52760Y34893
X17760Y34893
X17760Y17893
M30
