G75*
%MOIN*%
%OFA0B0*%
%FSLAX24Y24*%
%IPPOS*%
%LPD*%
%AMOC8*
5,1,8,0,0,1.08239X$1,22.5*
%
%ADD10C,0.0110*%
%ADD11C,0.0050*%
%ADD12C,0.0040*%
%ADD13C,0.0080*%
%ADD14C,0.0060*%
%ADD15C,0.0100*%
%ADD16R,0.0193X0.0598*%
D10*
X017415Y018898D02*
X017415Y019489D01*
X017710Y019489D01*
X017808Y019390D01*
X017808Y019194D01*
X017710Y019095D01*
X017415Y019095D01*
X018059Y018898D02*
X018059Y019489D01*
X018453Y019489D02*
X018453Y018898D01*
X018256Y019095D01*
X018059Y018898D01*
X018704Y018898D02*
X018704Y019489D01*
X018999Y019489D01*
X019097Y019390D01*
X019097Y019194D01*
X018999Y019095D01*
X018704Y019095D01*
X018900Y019095D02*
X019097Y018898D01*
X017408Y027648D02*
X017015Y027648D01*
X017015Y028239D01*
X017408Y028239D01*
X017211Y027944D02*
X017015Y027944D01*
X024015Y031844D02*
X024408Y031844D01*
X024659Y031942D02*
X024856Y032139D01*
X024856Y031548D01*
X024659Y031548D02*
X025053Y031548D01*
X024211Y031647D02*
X024211Y032040D01*
X031015Y031844D02*
X031408Y031844D01*
X031211Y032040D02*
X031211Y031647D01*
X031659Y031548D02*
X032053Y031942D01*
X032053Y032040D01*
X031954Y032139D01*
X031757Y032139D01*
X031659Y032040D01*
X031659Y031548D02*
X032053Y031548D01*
X038015Y031844D02*
X038408Y031844D01*
X038211Y032040D02*
X038211Y031647D01*
X038659Y031647D02*
X038757Y031548D01*
X038954Y031548D01*
X039053Y031647D01*
X039053Y031745D01*
X038954Y031844D01*
X038856Y031844D01*
X038954Y031844D02*
X039053Y031942D01*
X039053Y032040D01*
X038954Y032139D01*
X038757Y032139D01*
X038659Y032040D01*
X045015Y031844D02*
X045408Y031844D01*
X045659Y031844D02*
X045954Y032139D01*
X045954Y031548D01*
X046053Y031844D02*
X045659Y031844D01*
X045211Y032040D02*
X045211Y031647D01*
X053115Y033348D02*
X053115Y033742D01*
X053311Y033939D01*
X053508Y033742D01*
X053508Y033348D01*
X053508Y033644D02*
X053115Y033644D01*
X053115Y028239D02*
X053410Y028239D01*
X053508Y028140D01*
X053508Y028042D01*
X053410Y027944D01*
X053115Y027944D01*
X053410Y027944D02*
X053508Y027845D01*
X053508Y027747D01*
X053410Y027648D01*
X053115Y027648D01*
X053115Y028239D01*
X053213Y022539D02*
X053115Y022440D01*
X053115Y022047D01*
X053213Y021948D01*
X053410Y021948D01*
X053508Y022047D01*
X053508Y022440D02*
X053410Y022539D01*
X053213Y022539D01*
X017408Y033447D02*
X017408Y033840D01*
X017310Y033939D01*
X017015Y033939D01*
X017015Y033348D01*
X017310Y033348D01*
X017408Y033447D01*
D11*
X020043Y035803D02*
X050476Y035803D01*
X050476Y016984D01*
X020043Y016984D01*
X020043Y035803D01*
X021760Y036393D02*
X027760Y036393D01*
X027760Y031393D01*
X021760Y031393D01*
X021760Y036393D01*
X028760Y036393D02*
X034760Y036393D01*
X034760Y031393D01*
X028760Y031393D01*
X028760Y036393D01*
X035760Y036393D02*
X035760Y031393D01*
X041760Y031393D01*
X041760Y036393D01*
X035760Y036393D01*
X042760Y036393D02*
X048760Y036393D01*
X048760Y031393D01*
X042760Y031393D01*
X042760Y036393D01*
X035729Y029468D02*
X035684Y029514D01*
X035594Y029514D01*
X035549Y029468D01*
X035549Y029288D01*
X035594Y029243D01*
X035684Y029243D01*
X035729Y029288D01*
X035434Y029288D02*
X035434Y029468D01*
X035389Y029514D01*
X035254Y029514D01*
X035254Y029243D01*
X035389Y029243D01*
X035434Y029288D01*
X035140Y029243D02*
X035140Y029423D01*
X035050Y029514D01*
X034960Y029423D01*
X034960Y029243D01*
X034960Y029378D02*
X035140Y029378D01*
X037189Y022878D02*
X037897Y022878D01*
X035684Y020514D02*
X035549Y020514D01*
X035549Y020243D01*
X035684Y020243D01*
X035729Y020288D01*
X035729Y020468D01*
X035684Y020514D01*
X035434Y020468D02*
X035389Y020514D01*
X035299Y020514D01*
X035254Y020468D01*
X035254Y020288D01*
X035299Y020243D01*
X035389Y020243D01*
X035434Y020288D01*
X035140Y020243D02*
X034960Y020243D01*
X034960Y020514D01*
X031229Y021038D02*
X031184Y020993D01*
X031094Y020993D01*
X031049Y021038D01*
X031049Y021218D01*
X031094Y021264D01*
X031184Y021264D01*
X031229Y021218D01*
X030934Y021264D02*
X030754Y021264D01*
X030844Y021264D02*
X030844Y020993D01*
X030640Y020993D02*
X030550Y021083D01*
X030595Y021083D02*
X030460Y021083D01*
X030460Y020993D02*
X030460Y021264D01*
X030595Y021264D01*
X030640Y021218D01*
X030640Y021128D01*
X030595Y021083D01*
X038335Y017593D02*
X038335Y017548D01*
X038380Y017503D01*
X038470Y017503D01*
X038515Y017458D01*
X038515Y017413D01*
X038470Y017368D01*
X038380Y017368D01*
X038335Y017413D01*
X038335Y017593D02*
X038380Y017639D01*
X038470Y017639D01*
X038515Y017593D01*
X038629Y017639D02*
X038764Y017639D01*
X038809Y017593D01*
X038809Y017503D01*
X038764Y017458D01*
X038629Y017458D01*
X038629Y017368D02*
X038629Y017639D01*
X038924Y017639D02*
X039014Y017639D01*
X038969Y017639D02*
X038969Y017368D01*
X038924Y017368D02*
X039014Y017368D01*
X039415Y017368D02*
X039415Y017639D01*
X039595Y017639D01*
X039710Y017639D02*
X039755Y017639D01*
X039755Y017368D01*
X039710Y017368D02*
X039800Y017368D01*
X039906Y017413D02*
X039951Y017458D01*
X040086Y017458D01*
X040086Y017503D02*
X040086Y017368D01*
X039951Y017368D01*
X039906Y017413D01*
X039951Y017548D02*
X040041Y017548D01*
X040086Y017503D01*
X040201Y017503D02*
X040246Y017548D01*
X040381Y017548D01*
X040336Y017458D02*
X040246Y017458D01*
X040201Y017503D01*
X040201Y017368D02*
X040336Y017368D01*
X040381Y017413D01*
X040336Y017458D01*
X040495Y017503D02*
X040540Y017548D01*
X040630Y017548D01*
X040675Y017503D01*
X040675Y017368D01*
X040495Y017368D02*
X040495Y017639D01*
X039505Y017503D02*
X039415Y017503D01*
X042060Y016226D02*
X042060Y021726D01*
X047410Y021726D01*
X047410Y021276D01*
X047960Y021276D01*
X047960Y015826D01*
X046963Y015826D01*
X046906Y015827D01*
X046848Y015832D01*
X046791Y015839D01*
X046735Y015850D01*
X046679Y015863D01*
X046624Y015879D01*
X046569Y015898D01*
X044789Y016226D02*
X042060Y016226D01*
X044789Y016226D02*
X044929Y016224D01*
X045069Y016218D01*
X045208Y016208D01*
X045348Y016195D01*
X045487Y016177D01*
X045625Y016156D01*
X045763Y016130D01*
X045900Y016101D01*
X046036Y016068D01*
X046171Y016031D01*
X046305Y015991D01*
X046437Y015946D01*
X046569Y015898D01*
X044135Y022368D02*
X044180Y022413D01*
X044180Y022593D01*
X044135Y022639D01*
X044000Y022639D01*
X044000Y022368D01*
X044135Y022368D01*
X043885Y022413D02*
X043840Y022368D01*
X043750Y022368D01*
X043705Y022413D01*
X043750Y022503D02*
X043840Y022503D01*
X043885Y022458D01*
X043885Y022413D01*
X043750Y022503D02*
X043705Y022548D01*
X043705Y022593D01*
X043750Y022639D01*
X043840Y022639D01*
X043885Y022593D01*
X043296Y022503D02*
X043251Y022548D01*
X043161Y022548D01*
X043116Y022503D01*
X043116Y022413D01*
X043161Y022368D01*
X043251Y022368D01*
X043296Y022413D01*
X043296Y022503D01*
X043005Y022548D02*
X042960Y022548D01*
X042870Y022458D01*
X042870Y022368D02*
X042870Y022548D01*
X042756Y022548D02*
X042621Y022548D01*
X042576Y022503D01*
X042576Y022413D01*
X042621Y022368D01*
X042756Y022368D01*
X042469Y022368D02*
X042379Y022368D01*
X042424Y022368D02*
X042424Y022548D01*
X042379Y022548D01*
X042424Y022639D02*
X042424Y022684D01*
X042265Y022639D02*
X042265Y022368D01*
X042085Y022368D02*
X042085Y022639D01*
X042175Y022548D01*
X042265Y022639D01*
D12*
X040009Y026847D02*
X040049Y026887D01*
X040049Y027047D01*
X040009Y027087D01*
X039889Y027087D01*
X039889Y026847D01*
X040009Y026847D01*
X039791Y026847D02*
X039791Y027087D01*
X039631Y027087D02*
X039791Y026847D01*
X039631Y026847D02*
X039631Y027087D01*
X039533Y027047D02*
X039493Y027087D01*
X039413Y027087D01*
X039373Y027047D01*
X039373Y026887D01*
X039413Y026847D01*
X039493Y026847D01*
X039533Y026887D01*
X039533Y026967D01*
X039453Y026967D01*
D13*
X019954Y017000D02*
X019954Y016822D01*
X021765Y016822D01*
X021765Y017000D01*
X021253Y017000D02*
X021253Y017787D01*
X021765Y017787D02*
X021765Y017964D01*
X019954Y017964D01*
X019954Y017787D01*
X019710Y018643D02*
X019710Y019143D01*
X020310Y019143D02*
X020310Y018643D01*
X018466Y019693D02*
X017253Y019693D01*
X016860Y020205D02*
X016860Y021181D01*
X017253Y021693D02*
X018466Y021693D01*
X018860Y021181D02*
X018860Y020193D01*
X017360Y020693D02*
X017362Y020737D01*
X017368Y020781D01*
X017378Y020824D01*
X017391Y020866D01*
X017408Y020907D01*
X017429Y020946D01*
X017453Y020983D01*
X017480Y021018D01*
X017510Y021050D01*
X017543Y021080D01*
X017579Y021106D01*
X017616Y021130D01*
X017656Y021149D01*
X017697Y021166D01*
X017740Y021178D01*
X017783Y021187D01*
X017827Y021192D01*
X017871Y021193D01*
X017915Y021190D01*
X017959Y021183D01*
X018002Y021172D01*
X018044Y021158D01*
X018084Y021140D01*
X018123Y021118D01*
X018159Y021094D01*
X018193Y021066D01*
X018225Y021035D01*
X018254Y021001D01*
X018280Y020965D01*
X018302Y020927D01*
X018321Y020887D01*
X018336Y020845D01*
X018348Y020803D01*
X018356Y020759D01*
X018360Y020715D01*
X018360Y020671D01*
X018356Y020627D01*
X018348Y020583D01*
X018336Y020541D01*
X018321Y020499D01*
X018302Y020459D01*
X018280Y020421D01*
X018254Y020385D01*
X018225Y020351D01*
X018193Y020320D01*
X018159Y020292D01*
X018123Y020268D01*
X018084Y020246D01*
X018044Y020228D01*
X018002Y020214D01*
X017959Y020203D01*
X017915Y020196D01*
X017871Y020193D01*
X017827Y020194D01*
X017783Y020199D01*
X017740Y020208D01*
X017697Y020220D01*
X017656Y020237D01*
X017616Y020256D01*
X017579Y020280D01*
X017543Y020306D01*
X017510Y020336D01*
X017480Y020368D01*
X017453Y020403D01*
X017429Y020440D01*
X017408Y020479D01*
X017391Y020520D01*
X017378Y020562D01*
X017368Y020605D01*
X017362Y020649D01*
X017360Y020693D01*
X021240Y021203D02*
X021579Y021203D01*
X021729Y020749D02*
X021729Y020538D01*
X021579Y020083D02*
X021240Y020083D01*
X022990Y020083D02*
X023329Y020083D01*
X023479Y020538D02*
X023479Y020749D01*
X023329Y021203D02*
X022990Y021203D01*
X025735Y019943D02*
X026935Y021143D01*
X029335Y021143D01*
X030535Y019943D01*
X030535Y016943D01*
X030514Y016895D01*
X030490Y016849D01*
X030463Y016805D01*
X030432Y016763D01*
X030398Y016723D01*
X030362Y016686D01*
X030323Y016652D01*
X030281Y016621D01*
X030237Y016593D01*
X030191Y016568D01*
X030144Y016547D01*
X030095Y016529D01*
X030045Y016516D01*
X029993Y016505D01*
X029942Y016499D01*
X029890Y016497D01*
X029838Y016499D01*
X029786Y016504D01*
X029735Y016513D01*
X029684Y016527D01*
X029635Y016543D01*
X029570Y016605D01*
X029502Y016665D01*
X029432Y016721D01*
X029360Y016775D01*
X029285Y016825D01*
X029208Y016872D01*
X029130Y016916D01*
X029049Y016957D01*
X028967Y016994D01*
X028884Y017027D01*
X028799Y017057D01*
X028713Y017084D01*
X028626Y017106D01*
X028538Y017125D01*
X028449Y017141D01*
X028360Y017152D01*
X028270Y017160D01*
X028180Y017164D01*
X028090Y017164D01*
X028000Y017160D01*
X027910Y017152D01*
X027821Y017141D01*
X027732Y017125D01*
X027644Y017106D01*
X027557Y017084D01*
X027471Y017057D01*
X027386Y017027D01*
X027303Y016994D01*
X027221Y016957D01*
X027140Y016916D01*
X027062Y016872D01*
X026985Y016825D01*
X026910Y016775D01*
X026838Y016721D01*
X026768Y016665D01*
X026700Y016605D01*
X026635Y016543D01*
X026586Y016527D01*
X026535Y016513D01*
X026484Y016504D01*
X026432Y016499D01*
X026380Y016497D01*
X026328Y016499D01*
X026277Y016505D01*
X026225Y016516D01*
X026175Y016529D01*
X026126Y016547D01*
X026079Y016568D01*
X026033Y016593D01*
X025989Y016621D01*
X025947Y016652D01*
X025908Y016686D01*
X025872Y016723D01*
X025838Y016763D01*
X025807Y016805D01*
X025780Y016849D01*
X025756Y016895D01*
X025735Y016943D01*
X025735Y019943D01*
X027830Y022711D02*
X028192Y023073D01*
X027189Y024075D02*
X026827Y023713D01*
X026275Y024460D02*
X025760Y023945D01*
X025648Y024056D01*
X027193Y025378D02*
X027708Y025893D01*
X027193Y026408D01*
X026275Y027327D02*
X025760Y027842D01*
X025244Y027327D01*
X023950Y026033D02*
X023950Y025754D01*
X018860Y025893D02*
X018860Y026881D01*
X018466Y027393D02*
X017253Y027393D01*
X016860Y026881D02*
X016860Y025905D01*
X017253Y025393D02*
X018466Y025393D01*
X017360Y026393D02*
X017362Y026437D01*
X017368Y026481D01*
X017378Y026524D01*
X017391Y026566D01*
X017408Y026607D01*
X017429Y026646D01*
X017453Y026683D01*
X017480Y026718D01*
X017510Y026750D01*
X017543Y026780D01*
X017579Y026806D01*
X017616Y026830D01*
X017656Y026849D01*
X017697Y026866D01*
X017740Y026878D01*
X017783Y026887D01*
X017827Y026892D01*
X017871Y026893D01*
X017915Y026890D01*
X017959Y026883D01*
X018002Y026872D01*
X018044Y026858D01*
X018084Y026840D01*
X018123Y026818D01*
X018159Y026794D01*
X018193Y026766D01*
X018225Y026735D01*
X018254Y026701D01*
X018280Y026665D01*
X018302Y026627D01*
X018321Y026587D01*
X018336Y026545D01*
X018348Y026503D01*
X018356Y026459D01*
X018360Y026415D01*
X018360Y026371D01*
X018356Y026327D01*
X018348Y026283D01*
X018336Y026241D01*
X018321Y026199D01*
X018302Y026159D01*
X018280Y026121D01*
X018254Y026085D01*
X018225Y026051D01*
X018193Y026020D01*
X018159Y025992D01*
X018123Y025968D01*
X018084Y025946D01*
X018044Y025928D01*
X018002Y025914D01*
X017959Y025903D01*
X017915Y025896D01*
X017871Y025893D01*
X017827Y025894D01*
X017783Y025899D01*
X017740Y025908D01*
X017697Y025920D01*
X017656Y025937D01*
X017616Y025956D01*
X017579Y025980D01*
X017543Y026006D01*
X017510Y026036D01*
X017480Y026068D01*
X017453Y026103D01*
X017429Y026140D01*
X017408Y026179D01*
X017391Y026220D01*
X017378Y026262D01*
X017368Y026305D01*
X017362Y026349D01*
X017360Y026393D01*
X017253Y031093D02*
X018466Y031093D01*
X018860Y031605D02*
X018860Y032581D01*
X018466Y033093D02*
X017253Y033093D01*
X016860Y032593D02*
X016860Y031605D01*
X017360Y032093D02*
X017362Y032137D01*
X017368Y032181D01*
X017378Y032224D01*
X017391Y032266D01*
X017408Y032307D01*
X017429Y032346D01*
X017453Y032383D01*
X017480Y032418D01*
X017510Y032450D01*
X017543Y032480D01*
X017579Y032506D01*
X017616Y032530D01*
X017656Y032549D01*
X017697Y032566D01*
X017740Y032578D01*
X017783Y032587D01*
X017827Y032592D01*
X017871Y032593D01*
X017915Y032590D01*
X017959Y032583D01*
X018002Y032572D01*
X018044Y032558D01*
X018084Y032540D01*
X018123Y032518D01*
X018159Y032494D01*
X018193Y032466D01*
X018225Y032435D01*
X018254Y032401D01*
X018280Y032365D01*
X018302Y032327D01*
X018321Y032287D01*
X018336Y032245D01*
X018348Y032203D01*
X018356Y032159D01*
X018360Y032115D01*
X018360Y032071D01*
X018356Y032027D01*
X018348Y031983D01*
X018336Y031941D01*
X018321Y031899D01*
X018302Y031859D01*
X018280Y031821D01*
X018254Y031785D01*
X018225Y031751D01*
X018193Y031720D01*
X018159Y031692D01*
X018123Y031668D01*
X018084Y031646D01*
X018044Y031628D01*
X018002Y031614D01*
X017959Y031603D01*
X017915Y031596D01*
X017871Y031593D01*
X017827Y031594D01*
X017783Y031599D01*
X017740Y031608D01*
X017697Y031620D01*
X017656Y031637D01*
X017616Y031656D01*
X017579Y031680D01*
X017543Y031706D01*
X017510Y031736D01*
X017480Y031768D01*
X017453Y031803D01*
X017429Y031840D01*
X017408Y031879D01*
X017391Y031920D01*
X017378Y031962D01*
X017368Y032005D01*
X017362Y032049D01*
X017360Y032093D01*
X030313Y023853D02*
X030315Y023868D01*
X030321Y023881D01*
X030330Y023893D01*
X030341Y023902D01*
X030355Y023908D01*
X030370Y023910D01*
X030385Y023908D01*
X030398Y023902D01*
X030410Y023893D01*
X030419Y023882D01*
X030425Y023868D01*
X030427Y023853D01*
X030425Y023838D01*
X030419Y023825D01*
X030410Y023813D01*
X030399Y023804D01*
X030385Y023798D01*
X030370Y023796D01*
X030355Y023798D01*
X030342Y023804D01*
X030330Y023813D01*
X030321Y023824D01*
X030315Y023838D01*
X030313Y023853D01*
X033508Y022563D02*
X033980Y022563D01*
X033508Y022563D02*
X033508Y022484D01*
X033508Y021303D02*
X033508Y021145D01*
X033626Y021145D01*
X036893Y021145D01*
X037011Y021145D01*
X037011Y021303D01*
X036893Y021145D02*
X036893Y021027D01*
X037011Y021027D01*
X037011Y020752D01*
X033508Y020752D01*
X033508Y021027D01*
X033626Y021027D01*
X033626Y021145D01*
X034098Y021027D02*
X034177Y020870D01*
X034256Y021027D01*
X034098Y021027D01*
X034099Y021025D02*
X034254Y021025D01*
X034215Y020946D02*
X034139Y020946D01*
X036539Y022563D02*
X037011Y022563D01*
X037011Y022484D01*
X038590Y021575D02*
X038590Y019858D01*
X040479Y019858D01*
X040479Y019662D01*
X040479Y019858D02*
X040479Y021575D01*
X038590Y019858D02*
X038590Y019662D01*
X049939Y018649D02*
X049939Y016838D01*
X050116Y016838D01*
X050116Y017350D02*
X050903Y017350D01*
X050903Y016838D02*
X051080Y016838D01*
X051080Y018649D01*
X050903Y018649D01*
X050116Y018649D02*
X049939Y018649D01*
X052053Y019693D02*
X053266Y019693D01*
X053660Y020205D02*
X053660Y021181D01*
X053266Y021693D02*
X052053Y021693D01*
X051660Y021193D02*
X051660Y020205D01*
X052160Y020693D02*
X052162Y020737D01*
X052168Y020781D01*
X052178Y020824D01*
X052191Y020866D01*
X052208Y020907D01*
X052229Y020946D01*
X052253Y020983D01*
X052280Y021018D01*
X052310Y021050D01*
X052343Y021080D01*
X052379Y021106D01*
X052416Y021130D01*
X052456Y021149D01*
X052497Y021166D01*
X052540Y021178D01*
X052583Y021187D01*
X052627Y021192D01*
X052671Y021193D01*
X052715Y021190D01*
X052759Y021183D01*
X052802Y021172D01*
X052844Y021158D01*
X052884Y021140D01*
X052923Y021118D01*
X052959Y021094D01*
X052993Y021066D01*
X053025Y021035D01*
X053054Y021001D01*
X053080Y020965D01*
X053102Y020927D01*
X053121Y020887D01*
X053136Y020845D01*
X053148Y020803D01*
X053156Y020759D01*
X053160Y020715D01*
X053160Y020671D01*
X053156Y020627D01*
X053148Y020583D01*
X053136Y020541D01*
X053121Y020499D01*
X053102Y020459D01*
X053080Y020421D01*
X053054Y020385D01*
X053025Y020351D01*
X052993Y020320D01*
X052959Y020292D01*
X052923Y020268D01*
X052884Y020246D01*
X052844Y020228D01*
X052802Y020214D01*
X052759Y020203D01*
X052715Y020196D01*
X052671Y020193D01*
X052627Y020194D01*
X052583Y020199D01*
X052540Y020208D01*
X052497Y020220D01*
X052456Y020237D01*
X052416Y020256D01*
X052379Y020280D01*
X052343Y020306D01*
X052310Y020336D01*
X052280Y020368D01*
X052253Y020403D01*
X052229Y020440D01*
X052208Y020479D01*
X052191Y020520D01*
X052178Y020562D01*
X052168Y020605D01*
X052162Y020649D01*
X052160Y020693D01*
X051070Y022474D02*
X051070Y022812D01*
X050615Y022962D02*
X050404Y022962D01*
X049950Y022812D02*
X049950Y022474D01*
X052053Y025393D02*
X053266Y025393D01*
X053660Y025905D02*
X053660Y026881D01*
X053266Y027393D02*
X052053Y027393D01*
X051660Y026893D02*
X051660Y025905D01*
X052160Y026393D02*
X052162Y026437D01*
X052168Y026481D01*
X052178Y026524D01*
X052191Y026566D01*
X052208Y026607D01*
X052229Y026646D01*
X052253Y026683D01*
X052280Y026718D01*
X052310Y026750D01*
X052343Y026780D01*
X052379Y026806D01*
X052416Y026830D01*
X052456Y026849D01*
X052497Y026866D01*
X052540Y026878D01*
X052583Y026887D01*
X052627Y026892D01*
X052671Y026893D01*
X052715Y026890D01*
X052759Y026883D01*
X052802Y026872D01*
X052844Y026858D01*
X052884Y026840D01*
X052923Y026818D01*
X052959Y026794D01*
X052993Y026766D01*
X053025Y026735D01*
X053054Y026701D01*
X053080Y026665D01*
X053102Y026627D01*
X053121Y026587D01*
X053136Y026545D01*
X053148Y026503D01*
X053156Y026459D01*
X053160Y026415D01*
X053160Y026371D01*
X053156Y026327D01*
X053148Y026283D01*
X053136Y026241D01*
X053121Y026199D01*
X053102Y026159D01*
X053080Y026121D01*
X053054Y026085D01*
X053025Y026051D01*
X052993Y026020D01*
X052959Y025992D01*
X052923Y025968D01*
X052884Y025946D01*
X052844Y025928D01*
X052802Y025914D01*
X052759Y025903D01*
X052715Y025896D01*
X052671Y025893D01*
X052627Y025894D01*
X052583Y025899D01*
X052540Y025908D01*
X052497Y025920D01*
X052456Y025937D01*
X052416Y025956D01*
X052379Y025980D01*
X052343Y026006D01*
X052310Y026036D01*
X052280Y026068D01*
X052253Y026103D01*
X052229Y026140D01*
X052208Y026179D01*
X052191Y026220D01*
X052178Y026262D01*
X052168Y026305D01*
X052162Y026349D01*
X052160Y026393D01*
X052053Y031093D02*
X053266Y031093D01*
X053660Y031605D02*
X053660Y032581D01*
X053266Y033093D02*
X052053Y033093D01*
X051660Y032593D02*
X051660Y031605D01*
X052160Y032093D02*
X052162Y032137D01*
X052168Y032181D01*
X052178Y032224D01*
X052191Y032266D01*
X052208Y032307D01*
X052229Y032346D01*
X052253Y032383D01*
X052280Y032418D01*
X052310Y032450D01*
X052343Y032480D01*
X052379Y032506D01*
X052416Y032530D01*
X052456Y032549D01*
X052497Y032566D01*
X052540Y032578D01*
X052583Y032587D01*
X052627Y032592D01*
X052671Y032593D01*
X052715Y032590D01*
X052759Y032583D01*
X052802Y032572D01*
X052844Y032558D01*
X052884Y032540D01*
X052923Y032518D01*
X052959Y032494D01*
X052993Y032466D01*
X053025Y032435D01*
X053054Y032401D01*
X053080Y032365D01*
X053102Y032327D01*
X053121Y032287D01*
X053136Y032245D01*
X053148Y032203D01*
X053156Y032159D01*
X053160Y032115D01*
X053160Y032071D01*
X053156Y032027D01*
X053148Y031983D01*
X053136Y031941D01*
X053121Y031899D01*
X053102Y031859D01*
X053080Y031821D01*
X053054Y031785D01*
X053025Y031751D01*
X052993Y031720D01*
X052959Y031692D01*
X052923Y031668D01*
X052884Y031646D01*
X052844Y031628D01*
X052802Y031614D01*
X052759Y031603D01*
X052715Y031596D01*
X052671Y031593D01*
X052627Y031594D01*
X052583Y031599D01*
X052540Y031608D01*
X052497Y031620D01*
X052456Y031637D01*
X052416Y031656D01*
X052379Y031680D01*
X052343Y031706D01*
X052310Y031736D01*
X052280Y031768D01*
X052253Y031803D01*
X052229Y031840D01*
X052208Y031879D01*
X052191Y031920D01*
X052178Y031962D01*
X052168Y032005D01*
X052162Y032049D01*
X052160Y032093D01*
X034813Y028853D02*
X034815Y028868D01*
X034821Y028881D01*
X034830Y028893D01*
X034841Y028902D01*
X034855Y028908D01*
X034870Y028910D01*
X034885Y028908D01*
X034898Y028902D01*
X034910Y028893D01*
X034919Y028882D01*
X034925Y028868D01*
X034927Y028853D01*
X034925Y028838D01*
X034919Y028825D01*
X034910Y028813D01*
X034899Y028804D01*
X034885Y028798D01*
X034870Y028796D01*
X034855Y028798D01*
X034842Y028804D01*
X034830Y028813D01*
X034821Y028824D01*
X034815Y028838D01*
X034813Y028853D01*
D14*
X034550Y029073D02*
X035969Y029073D01*
X036641Y030157D02*
X036878Y030157D01*
X036878Y030630D02*
X036641Y030630D01*
X035996Y030775D02*
X035996Y031011D01*
X035523Y031011D02*
X035523Y030775D01*
X034996Y030775D02*
X034996Y031011D01*
X034523Y031011D02*
X034523Y030775D01*
X033878Y030630D02*
X033641Y030630D01*
X033641Y030157D02*
X033878Y030157D01*
X032996Y030775D02*
X032996Y031011D01*
X032523Y031011D02*
X032523Y030775D01*
X031878Y030630D02*
X031641Y030630D01*
X031641Y030157D02*
X031878Y030157D01*
X030996Y030775D02*
X030996Y031011D01*
X030523Y031011D02*
X030523Y030775D01*
X029878Y030630D02*
X029641Y030630D01*
X029641Y030157D02*
X029878Y030157D01*
X028996Y030775D02*
X028996Y031011D01*
X028523Y031011D02*
X028523Y030775D01*
X027996Y030775D02*
X027996Y031011D01*
X027523Y031011D02*
X027523Y030775D01*
X026878Y030630D02*
X026641Y030630D01*
X026641Y030157D02*
X026878Y030157D01*
X025996Y030775D02*
X025996Y031011D01*
X025523Y031011D02*
X025523Y030775D01*
X024878Y030630D02*
X024641Y030630D01*
X024641Y030157D02*
X024878Y030157D01*
X023996Y030775D02*
X023996Y031011D01*
X023523Y031011D02*
X023523Y030775D01*
X022878Y030630D02*
X022641Y030630D01*
X022641Y030157D02*
X022878Y030157D01*
X021996Y030775D02*
X021996Y031011D01*
X021523Y031011D02*
X021523Y030775D01*
X017978Y030830D02*
X017741Y030830D01*
X017741Y030357D02*
X017978Y030357D01*
X017978Y028130D02*
X017741Y028130D01*
X017741Y027657D02*
X017978Y027657D01*
X022766Y027130D02*
X023003Y027130D01*
X023003Y026657D02*
X022766Y026657D01*
X022766Y026130D02*
X023003Y026130D01*
X023003Y025657D02*
X022766Y025657D01*
X023523Y023949D02*
X023523Y023713D01*
X023996Y023713D02*
X023996Y023949D01*
X023278Y021830D02*
X023041Y021830D01*
X023041Y021357D02*
X023278Y021357D01*
X024123Y020761D02*
X024123Y020525D01*
X024596Y020525D02*
X024596Y020761D01*
X024698Y020761D02*
X024698Y020525D01*
X025171Y020525D02*
X025171Y020761D01*
X025273Y020761D02*
X025273Y020525D01*
X025746Y020525D02*
X025746Y020761D01*
X025303Y021407D02*
X025066Y021407D01*
X025066Y021880D02*
X025303Y021880D01*
X028648Y023025D02*
X028648Y023261D01*
X029121Y023261D02*
X029121Y023025D01*
X030050Y022213D02*
X031469Y022213D01*
X030878Y022005D02*
X030641Y022005D01*
X030641Y021532D02*
X030878Y021532D01*
X032829Y023157D02*
X033065Y023157D01*
X033065Y023630D02*
X032829Y023630D01*
X032829Y023720D02*
X033065Y023720D01*
X033065Y024192D02*
X032829Y024192D01*
X033773Y024261D02*
X033773Y024025D01*
X034246Y024025D02*
X034246Y024261D01*
X034523Y024261D02*
X034523Y024025D01*
X034996Y024025D02*
X034996Y024261D01*
X036391Y023994D02*
X036628Y023994D01*
X036628Y023521D02*
X036391Y023521D01*
X035969Y025713D02*
X034550Y025713D01*
X032696Y026275D02*
X032696Y026511D01*
X032223Y026511D02*
X032223Y026275D01*
X031996Y026275D02*
X031996Y026511D01*
X031523Y026511D02*
X031523Y026275D01*
X031469Y024073D02*
X030050Y024073D01*
X028878Y025657D02*
X028641Y025657D01*
X028641Y026130D02*
X028878Y026130D01*
X025878Y028095D02*
X025641Y028095D01*
X025641Y028567D02*
X025878Y028567D01*
X019378Y024130D02*
X019141Y024130D01*
X019141Y023657D02*
X019378Y023657D01*
X019378Y023330D02*
X019141Y023330D01*
X019141Y022857D02*
X019378Y022857D01*
X020391Y021830D02*
X020628Y021830D01*
X020628Y021357D02*
X020391Y021357D01*
X020346Y020761D02*
X020346Y020525D01*
X019873Y020525D02*
X019873Y020761D01*
X022691Y019580D02*
X022928Y019580D01*
X022928Y019107D02*
X022691Y019107D01*
X022691Y018980D02*
X022928Y018980D01*
X022928Y018507D02*
X022691Y018507D01*
X022691Y018380D02*
X022928Y018380D01*
X022928Y017907D02*
X022691Y017907D01*
X023523Y018925D02*
X023523Y019161D01*
X023996Y019161D02*
X023996Y018925D01*
X037773Y026975D02*
X037773Y027211D01*
X038246Y027211D02*
X038246Y026975D01*
X038641Y030157D02*
X038878Y030157D01*
X038878Y030630D02*
X038641Y030630D01*
X037996Y030775D02*
X037996Y031011D01*
X037523Y031011D02*
X037523Y030775D01*
X035378Y032157D02*
X035141Y032157D01*
X035141Y032630D02*
X035378Y032630D01*
X035428Y033574D02*
X035465Y033574D01*
X035782Y033574D02*
X035819Y033574D01*
X035819Y034212D01*
X035782Y034212D01*
X035465Y034212D02*
X035054Y034212D01*
X034737Y034212D02*
X034700Y034212D01*
X034700Y033574D01*
X034737Y033574D01*
X035054Y033574D02*
X035091Y033574D01*
X039523Y031011D02*
X039523Y030775D01*
X039996Y030775D02*
X039996Y031011D01*
X040641Y030630D02*
X040878Y030630D01*
X040878Y030157D02*
X040641Y030157D01*
X041523Y030775D02*
X041523Y031011D01*
X041996Y031011D02*
X041996Y030775D01*
X042523Y030775D02*
X042523Y031011D01*
X042996Y031011D02*
X042996Y030775D01*
X043641Y030630D02*
X043878Y030630D01*
X043878Y030157D02*
X043641Y030157D01*
X044523Y030775D02*
X044523Y031011D01*
X044996Y031011D02*
X044996Y030775D01*
X045641Y030630D02*
X045878Y030630D01*
X045878Y030157D02*
X045641Y030157D01*
X046523Y030775D02*
X046523Y031011D01*
X046996Y031011D02*
X046996Y030775D01*
X047641Y030630D02*
X047878Y030630D01*
X047878Y030157D02*
X047641Y030157D01*
X048523Y030775D02*
X048523Y031011D01*
X048996Y031011D02*
X048996Y030775D01*
X052541Y030880D02*
X052778Y030880D01*
X052778Y030407D02*
X052541Y030407D01*
X052541Y025130D02*
X052778Y025130D01*
X052778Y024657D02*
X052541Y024657D01*
X051746Y022761D02*
X051746Y022525D01*
X051273Y022525D02*
X051273Y022761D01*
X052541Y022380D02*
X052778Y022380D01*
X052778Y021907D02*
X052541Y021907D01*
X050628Y021030D02*
X050391Y021030D01*
X050391Y020557D02*
X050628Y020557D01*
X050628Y020330D02*
X050391Y020330D01*
X050391Y019857D02*
X050628Y019857D01*
X049378Y019857D02*
X049141Y019857D01*
X049141Y020330D02*
X049378Y020330D01*
X049378Y020557D02*
X049141Y020557D01*
X049141Y021030D02*
X049378Y021030D01*
X049378Y021906D02*
X049141Y021906D01*
X049141Y022379D02*
X049378Y022379D01*
X049378Y022907D02*
X049141Y022907D01*
X049141Y023380D02*
X049378Y023380D01*
X049600Y017861D02*
X049600Y017625D01*
X049128Y017625D02*
X049128Y017861D01*
X040128Y018057D02*
X039891Y018057D01*
X039891Y018530D02*
X040128Y018530D01*
D15*
X019310Y022293D02*
X019210Y022293D01*
X019210Y022493D02*
X019310Y022493D01*
X019310Y024493D02*
X019210Y024493D01*
X019210Y024693D02*
X019310Y024693D01*
D16*
X038785Y021914D03*
X039285Y021914D03*
X039785Y021914D03*
X040285Y021914D03*
X040285Y019323D03*
X039785Y019323D03*
X039285Y019323D03*
X038785Y019323D03*
M02*
