G75*
%MOIN*%
%OFA0B0*%
%FSLAX24Y24*%
%IPPOS*%
%LPD*%
%AMOC8*
5,1,8,0,0,1.08239X$1,22.5*
%
%ADD10C,0.0050*%
%ADD11C,0.0000*%
%ADD12R,0.0276X0.0669*%
%ADD13R,0.0709X0.0394*%
%ADD14R,0.0472X0.0217*%
%ADD15R,0.0472X0.0315*%
%ADD16R,0.0217X0.0472*%
%ADD17R,0.0315X0.0472*%
%ADD18R,0.0579X0.0500*%
%ADD19R,0.0870X0.0240*%
%ADD20R,0.1800X0.4400*%
%ADD21R,0.0300X0.0300*%
%ADD22R,0.0600X0.0300*%
%ADD23R,0.0500X0.0579*%
%ADD24R,0.0531X0.0157*%
%ADD25C,0.0281*%
%ADD26R,0.0610X0.0648*%
%ADD27R,0.0610X0.0591*%
%ADD28R,0.1560X0.1560*%
%ADD29R,0.1250X0.1250*%
%ADD30R,0.0236X0.0866*%
%ADD31R,0.0118X0.0512*%
%ADD32R,0.0650X0.0807*%
%ADD33R,0.0315X0.0118*%
%ADD34R,0.0300X0.0600*%
%ADD35R,0.0400X0.0600*%
%ADD36R,0.0600X0.0800*%
%ADD37R,0.0600X0.0600*%
D10*
X017760Y016393D02*
X032760Y016393D01*
X033260Y016893D01*
X037260Y016893D01*
X037760Y016393D01*
X052760Y016393D01*
X052836Y016395D01*
X052912Y016401D01*
X052987Y016410D01*
X053062Y016424D01*
X053136Y016441D01*
X053209Y016462D01*
X053281Y016486D01*
X053352Y016515D01*
X053421Y016546D01*
X053488Y016581D01*
X053553Y016620D01*
X053617Y016662D01*
X053678Y016707D01*
X053737Y016755D01*
X053793Y016806D01*
X053847Y016860D01*
X053898Y016916D01*
X053946Y016975D01*
X053991Y017036D01*
X054033Y017100D01*
X054072Y017165D01*
X054107Y017232D01*
X054138Y017301D01*
X054167Y017372D01*
X054191Y017444D01*
X054212Y017517D01*
X054229Y017591D01*
X054243Y017666D01*
X054252Y017741D01*
X054258Y017817D01*
X054260Y017893D01*
X054260Y034893D01*
X054258Y034969D01*
X054252Y035045D01*
X054243Y035120D01*
X054229Y035195D01*
X054212Y035269D01*
X054191Y035342D01*
X054167Y035414D01*
X054138Y035485D01*
X054107Y035554D01*
X054072Y035621D01*
X054033Y035686D01*
X053991Y035750D01*
X053946Y035811D01*
X053898Y035870D01*
X053847Y035926D01*
X053793Y035980D01*
X053737Y036031D01*
X053678Y036079D01*
X053617Y036124D01*
X053553Y036166D01*
X053488Y036205D01*
X053421Y036240D01*
X053352Y036271D01*
X053281Y036300D01*
X053209Y036324D01*
X053136Y036345D01*
X053062Y036362D01*
X052987Y036376D01*
X052912Y036385D01*
X052836Y036391D01*
X052760Y036393D01*
X017760Y036393D01*
X017684Y036391D01*
X017608Y036385D01*
X017533Y036376D01*
X017458Y036362D01*
X017384Y036345D01*
X017311Y036324D01*
X017239Y036300D01*
X017168Y036271D01*
X017099Y036240D01*
X017032Y036205D01*
X016967Y036166D01*
X016903Y036124D01*
X016842Y036079D01*
X016783Y036031D01*
X016727Y035980D01*
X016673Y035926D01*
X016622Y035870D01*
X016574Y035811D01*
X016529Y035750D01*
X016487Y035686D01*
X016448Y035621D01*
X016413Y035554D01*
X016382Y035485D01*
X016353Y035414D01*
X016329Y035342D01*
X016308Y035269D01*
X016291Y035195D01*
X016277Y035120D01*
X016268Y035045D01*
X016262Y034969D01*
X016260Y034893D01*
X016260Y017893D01*
X016262Y017817D01*
X016268Y017741D01*
X016277Y017666D01*
X016291Y017591D01*
X016308Y017517D01*
X016329Y017444D01*
X016353Y017372D01*
X016382Y017301D01*
X016413Y017232D01*
X016448Y017165D01*
X016487Y017100D01*
X016529Y017036D01*
X016574Y016975D01*
X016622Y016916D01*
X016673Y016860D01*
X016727Y016806D01*
X016783Y016755D01*
X016842Y016707D01*
X016903Y016662D01*
X016967Y016620D01*
X017032Y016581D01*
X017099Y016546D01*
X017168Y016515D01*
X017239Y016486D01*
X017311Y016462D01*
X017384Y016441D01*
X017458Y016424D01*
X017533Y016410D01*
X017608Y016401D01*
X017684Y016395D01*
X017760Y016393D01*
D11*
X017260Y017893D02*
X017262Y017937D01*
X017268Y017981D01*
X017278Y018024D01*
X017291Y018066D01*
X017308Y018107D01*
X017329Y018146D01*
X017353Y018183D01*
X017380Y018218D01*
X017410Y018250D01*
X017443Y018280D01*
X017479Y018306D01*
X017516Y018330D01*
X017556Y018349D01*
X017597Y018366D01*
X017640Y018378D01*
X017683Y018387D01*
X017727Y018392D01*
X017771Y018393D01*
X017815Y018390D01*
X017859Y018383D01*
X017902Y018372D01*
X017944Y018358D01*
X017984Y018340D01*
X018023Y018318D01*
X018059Y018294D01*
X018093Y018266D01*
X018125Y018235D01*
X018154Y018201D01*
X018180Y018165D01*
X018202Y018127D01*
X018221Y018087D01*
X018236Y018045D01*
X018248Y018003D01*
X018256Y017959D01*
X018260Y017915D01*
X018260Y017871D01*
X018256Y017827D01*
X018248Y017783D01*
X018236Y017741D01*
X018221Y017699D01*
X018202Y017659D01*
X018180Y017621D01*
X018154Y017585D01*
X018125Y017551D01*
X018093Y017520D01*
X018059Y017492D01*
X018023Y017468D01*
X017984Y017446D01*
X017944Y017428D01*
X017902Y017414D01*
X017859Y017403D01*
X017815Y017396D01*
X017771Y017393D01*
X017727Y017394D01*
X017683Y017399D01*
X017640Y017408D01*
X017597Y017420D01*
X017556Y017437D01*
X017516Y017456D01*
X017479Y017480D01*
X017443Y017506D01*
X017410Y017536D01*
X017380Y017568D01*
X017353Y017603D01*
X017329Y017640D01*
X017308Y017679D01*
X017291Y017720D01*
X017278Y017762D01*
X017268Y017805D01*
X017262Y017849D01*
X017260Y017893D01*
X021086Y019011D02*
X021088Y019050D01*
X021094Y019089D01*
X021104Y019127D01*
X021117Y019164D01*
X021134Y019199D01*
X021154Y019233D01*
X021178Y019264D01*
X021205Y019293D01*
X021234Y019319D01*
X021266Y019342D01*
X021300Y019362D01*
X021336Y019378D01*
X021373Y019390D01*
X021412Y019399D01*
X021451Y019404D01*
X021490Y019405D01*
X021529Y019402D01*
X021568Y019395D01*
X021605Y019384D01*
X021642Y019370D01*
X021677Y019352D01*
X021710Y019331D01*
X021741Y019306D01*
X021769Y019279D01*
X021794Y019249D01*
X021816Y019216D01*
X021835Y019182D01*
X021850Y019146D01*
X021862Y019108D01*
X021870Y019070D01*
X021874Y019031D01*
X021874Y018991D01*
X021870Y018952D01*
X021862Y018914D01*
X021850Y018876D01*
X021835Y018840D01*
X021816Y018806D01*
X021794Y018773D01*
X021769Y018743D01*
X021741Y018716D01*
X021710Y018691D01*
X021677Y018670D01*
X021642Y018652D01*
X021605Y018638D01*
X021568Y018627D01*
X021529Y018620D01*
X021490Y018617D01*
X021451Y018618D01*
X021412Y018623D01*
X021373Y018632D01*
X021336Y018644D01*
X021300Y018660D01*
X021266Y018680D01*
X021234Y018703D01*
X021205Y018729D01*
X021178Y018758D01*
X021154Y018789D01*
X021134Y018823D01*
X021117Y018858D01*
X021104Y018895D01*
X021094Y018933D01*
X021088Y018972D01*
X021086Y019011D01*
X021086Y033775D02*
X021088Y033814D01*
X021094Y033853D01*
X021104Y033891D01*
X021117Y033928D01*
X021134Y033963D01*
X021154Y033997D01*
X021178Y034028D01*
X021205Y034057D01*
X021234Y034083D01*
X021266Y034106D01*
X021300Y034126D01*
X021336Y034142D01*
X021373Y034154D01*
X021412Y034163D01*
X021451Y034168D01*
X021490Y034169D01*
X021529Y034166D01*
X021568Y034159D01*
X021605Y034148D01*
X021642Y034134D01*
X021677Y034116D01*
X021710Y034095D01*
X021741Y034070D01*
X021769Y034043D01*
X021794Y034013D01*
X021816Y033980D01*
X021835Y033946D01*
X021850Y033910D01*
X021862Y033872D01*
X021870Y033834D01*
X021874Y033795D01*
X021874Y033755D01*
X021870Y033716D01*
X021862Y033678D01*
X021850Y033640D01*
X021835Y033604D01*
X021816Y033570D01*
X021794Y033537D01*
X021769Y033507D01*
X021741Y033480D01*
X021710Y033455D01*
X021677Y033434D01*
X021642Y033416D01*
X021605Y033402D01*
X021568Y033391D01*
X021529Y033384D01*
X021490Y033381D01*
X021451Y033382D01*
X021412Y033387D01*
X021373Y033396D01*
X021336Y033408D01*
X021300Y033424D01*
X021266Y033444D01*
X021234Y033467D01*
X021205Y033493D01*
X021178Y033522D01*
X021154Y033553D01*
X021134Y033587D01*
X021117Y033622D01*
X021104Y033659D01*
X021094Y033697D01*
X021088Y033736D01*
X021086Y033775D01*
X017260Y034893D02*
X017262Y034937D01*
X017268Y034981D01*
X017278Y035024D01*
X017291Y035066D01*
X017308Y035107D01*
X017329Y035146D01*
X017353Y035183D01*
X017380Y035218D01*
X017410Y035250D01*
X017443Y035280D01*
X017479Y035306D01*
X017516Y035330D01*
X017556Y035349D01*
X017597Y035366D01*
X017640Y035378D01*
X017683Y035387D01*
X017727Y035392D01*
X017771Y035393D01*
X017815Y035390D01*
X017859Y035383D01*
X017902Y035372D01*
X017944Y035358D01*
X017984Y035340D01*
X018023Y035318D01*
X018059Y035294D01*
X018093Y035266D01*
X018125Y035235D01*
X018154Y035201D01*
X018180Y035165D01*
X018202Y035127D01*
X018221Y035087D01*
X018236Y035045D01*
X018248Y035003D01*
X018256Y034959D01*
X018260Y034915D01*
X018260Y034871D01*
X018256Y034827D01*
X018248Y034783D01*
X018236Y034741D01*
X018221Y034699D01*
X018202Y034659D01*
X018180Y034621D01*
X018154Y034585D01*
X018125Y034551D01*
X018093Y034520D01*
X018059Y034492D01*
X018023Y034468D01*
X017984Y034446D01*
X017944Y034428D01*
X017902Y034414D01*
X017859Y034403D01*
X017815Y034396D01*
X017771Y034393D01*
X017727Y034394D01*
X017683Y034399D01*
X017640Y034408D01*
X017597Y034420D01*
X017556Y034437D01*
X017516Y034456D01*
X017479Y034480D01*
X017443Y034506D01*
X017410Y034536D01*
X017380Y034568D01*
X017353Y034603D01*
X017329Y034640D01*
X017308Y034679D01*
X017291Y034720D01*
X017278Y034762D01*
X017268Y034805D01*
X017262Y034849D01*
X017260Y034893D01*
X042911Y017435D02*
X042913Y017461D01*
X042919Y017487D01*
X042928Y017511D01*
X042941Y017534D01*
X042958Y017554D01*
X042977Y017572D01*
X042999Y017587D01*
X043022Y017598D01*
X043047Y017606D01*
X043073Y017610D01*
X043099Y017610D01*
X043125Y017606D01*
X043150Y017598D01*
X043174Y017587D01*
X043195Y017572D01*
X043214Y017554D01*
X043231Y017534D01*
X043244Y017511D01*
X043253Y017487D01*
X043259Y017461D01*
X043261Y017435D01*
X043259Y017409D01*
X043253Y017383D01*
X043244Y017359D01*
X043231Y017336D01*
X043214Y017316D01*
X043195Y017298D01*
X043173Y017283D01*
X043150Y017272D01*
X043125Y017264D01*
X043099Y017260D01*
X043073Y017260D01*
X043047Y017264D01*
X043022Y017272D01*
X042998Y017283D01*
X042977Y017298D01*
X042958Y017316D01*
X042941Y017336D01*
X042928Y017359D01*
X042919Y017383D01*
X042913Y017409D01*
X042911Y017435D01*
X046060Y017435D02*
X046062Y017461D01*
X046068Y017487D01*
X046077Y017511D01*
X046090Y017534D01*
X046107Y017554D01*
X046126Y017572D01*
X046148Y017587D01*
X046171Y017598D01*
X046196Y017606D01*
X046222Y017610D01*
X046248Y017610D01*
X046274Y017606D01*
X046299Y017598D01*
X046323Y017587D01*
X046344Y017572D01*
X046363Y017554D01*
X046380Y017534D01*
X046393Y017511D01*
X046402Y017487D01*
X046408Y017461D01*
X046410Y017435D01*
X046408Y017409D01*
X046402Y017383D01*
X046393Y017359D01*
X046380Y017336D01*
X046363Y017316D01*
X046344Y017298D01*
X046322Y017283D01*
X046299Y017272D01*
X046274Y017264D01*
X046248Y017260D01*
X046222Y017260D01*
X046196Y017264D01*
X046171Y017272D01*
X046147Y017283D01*
X046126Y017298D01*
X046107Y017316D01*
X046090Y017336D01*
X046077Y017359D01*
X046068Y017383D01*
X046062Y017409D01*
X046060Y017435D01*
X048645Y019011D02*
X048647Y019050D01*
X048653Y019089D01*
X048663Y019127D01*
X048676Y019164D01*
X048693Y019199D01*
X048713Y019233D01*
X048737Y019264D01*
X048764Y019293D01*
X048793Y019319D01*
X048825Y019342D01*
X048859Y019362D01*
X048895Y019378D01*
X048932Y019390D01*
X048971Y019399D01*
X049010Y019404D01*
X049049Y019405D01*
X049088Y019402D01*
X049127Y019395D01*
X049164Y019384D01*
X049201Y019370D01*
X049236Y019352D01*
X049269Y019331D01*
X049300Y019306D01*
X049328Y019279D01*
X049353Y019249D01*
X049375Y019216D01*
X049394Y019182D01*
X049409Y019146D01*
X049421Y019108D01*
X049429Y019070D01*
X049433Y019031D01*
X049433Y018991D01*
X049429Y018952D01*
X049421Y018914D01*
X049409Y018876D01*
X049394Y018840D01*
X049375Y018806D01*
X049353Y018773D01*
X049328Y018743D01*
X049300Y018716D01*
X049269Y018691D01*
X049236Y018670D01*
X049201Y018652D01*
X049164Y018638D01*
X049127Y018627D01*
X049088Y018620D01*
X049049Y018617D01*
X049010Y018618D01*
X048971Y018623D01*
X048932Y018632D01*
X048895Y018644D01*
X048859Y018660D01*
X048825Y018680D01*
X048793Y018703D01*
X048764Y018729D01*
X048737Y018758D01*
X048713Y018789D01*
X048693Y018823D01*
X048676Y018858D01*
X048663Y018895D01*
X048653Y018933D01*
X048647Y018972D01*
X048645Y019011D01*
X052260Y017893D02*
X052262Y017937D01*
X052268Y017981D01*
X052278Y018024D01*
X052291Y018066D01*
X052308Y018107D01*
X052329Y018146D01*
X052353Y018183D01*
X052380Y018218D01*
X052410Y018250D01*
X052443Y018280D01*
X052479Y018306D01*
X052516Y018330D01*
X052556Y018349D01*
X052597Y018366D01*
X052640Y018378D01*
X052683Y018387D01*
X052727Y018392D01*
X052771Y018393D01*
X052815Y018390D01*
X052859Y018383D01*
X052902Y018372D01*
X052944Y018358D01*
X052984Y018340D01*
X053023Y018318D01*
X053059Y018294D01*
X053093Y018266D01*
X053125Y018235D01*
X053154Y018201D01*
X053180Y018165D01*
X053202Y018127D01*
X053221Y018087D01*
X053236Y018045D01*
X053248Y018003D01*
X053256Y017959D01*
X053260Y017915D01*
X053260Y017871D01*
X053256Y017827D01*
X053248Y017783D01*
X053236Y017741D01*
X053221Y017699D01*
X053202Y017659D01*
X053180Y017621D01*
X053154Y017585D01*
X053125Y017551D01*
X053093Y017520D01*
X053059Y017492D01*
X053023Y017468D01*
X052984Y017446D01*
X052944Y017428D01*
X052902Y017414D01*
X052859Y017403D01*
X052815Y017396D01*
X052771Y017393D01*
X052727Y017394D01*
X052683Y017399D01*
X052640Y017408D01*
X052597Y017420D01*
X052556Y017437D01*
X052516Y017456D01*
X052479Y017480D01*
X052443Y017506D01*
X052410Y017536D01*
X052380Y017568D01*
X052353Y017603D01*
X052329Y017640D01*
X052308Y017679D01*
X052291Y017720D01*
X052278Y017762D01*
X052268Y017805D01*
X052262Y017849D01*
X052260Y017893D01*
X048645Y033775D02*
X048647Y033814D01*
X048653Y033853D01*
X048663Y033891D01*
X048676Y033928D01*
X048693Y033963D01*
X048713Y033997D01*
X048737Y034028D01*
X048764Y034057D01*
X048793Y034083D01*
X048825Y034106D01*
X048859Y034126D01*
X048895Y034142D01*
X048932Y034154D01*
X048971Y034163D01*
X049010Y034168D01*
X049049Y034169D01*
X049088Y034166D01*
X049127Y034159D01*
X049164Y034148D01*
X049201Y034134D01*
X049236Y034116D01*
X049269Y034095D01*
X049300Y034070D01*
X049328Y034043D01*
X049353Y034013D01*
X049375Y033980D01*
X049394Y033946D01*
X049409Y033910D01*
X049421Y033872D01*
X049429Y033834D01*
X049433Y033795D01*
X049433Y033755D01*
X049429Y033716D01*
X049421Y033678D01*
X049409Y033640D01*
X049394Y033604D01*
X049375Y033570D01*
X049353Y033537D01*
X049328Y033507D01*
X049300Y033480D01*
X049269Y033455D01*
X049236Y033434D01*
X049201Y033416D01*
X049164Y033402D01*
X049127Y033391D01*
X049088Y033384D01*
X049049Y033381D01*
X049010Y033382D01*
X048971Y033387D01*
X048932Y033396D01*
X048895Y033408D01*
X048859Y033424D01*
X048825Y033444D01*
X048793Y033467D01*
X048764Y033493D01*
X048737Y033522D01*
X048713Y033553D01*
X048693Y033587D01*
X048676Y033622D01*
X048663Y033659D01*
X048653Y033697D01*
X048647Y033736D01*
X048645Y033775D01*
X052260Y034893D02*
X052262Y034937D01*
X052268Y034981D01*
X052278Y035024D01*
X052291Y035066D01*
X052308Y035107D01*
X052329Y035146D01*
X052353Y035183D01*
X052380Y035218D01*
X052410Y035250D01*
X052443Y035280D01*
X052479Y035306D01*
X052516Y035330D01*
X052556Y035349D01*
X052597Y035366D01*
X052640Y035378D01*
X052683Y035387D01*
X052727Y035392D01*
X052771Y035393D01*
X052815Y035390D01*
X052859Y035383D01*
X052902Y035372D01*
X052944Y035358D01*
X052984Y035340D01*
X053023Y035318D01*
X053059Y035294D01*
X053093Y035266D01*
X053125Y035235D01*
X053154Y035201D01*
X053180Y035165D01*
X053202Y035127D01*
X053221Y035087D01*
X053236Y035045D01*
X053248Y035003D01*
X053256Y034959D01*
X053260Y034915D01*
X053260Y034871D01*
X053256Y034827D01*
X053248Y034783D01*
X053236Y034741D01*
X053221Y034699D01*
X053202Y034659D01*
X053180Y034621D01*
X053154Y034585D01*
X053125Y034551D01*
X053093Y034520D01*
X053059Y034492D01*
X053023Y034468D01*
X052984Y034446D01*
X052944Y034428D01*
X052902Y034414D01*
X052859Y034403D01*
X052815Y034396D01*
X052771Y034393D01*
X052727Y034394D01*
X052683Y034399D01*
X052640Y034408D01*
X052597Y034420D01*
X052556Y034437D01*
X052516Y034456D01*
X052479Y034480D01*
X052443Y034506D01*
X052410Y034536D01*
X052380Y034568D01*
X052353Y034603D01*
X052329Y034640D01*
X052308Y034679D01*
X052291Y034720D01*
X052278Y034762D01*
X052268Y034805D01*
X052262Y034849D01*
X052260Y034893D01*
D12*
G36*
X027982Y023392D02*
X028177Y023197D01*
X027706Y022726D01*
X027511Y022921D01*
X027982Y023392D01*
G37*
G36*
X027648Y023726D02*
X027843Y023531D01*
X027372Y023060D01*
X027177Y023255D01*
X027648Y023726D01*
G37*
G36*
X027313Y024060D02*
X027508Y023865D01*
X027037Y023394D01*
X026842Y023589D01*
X027313Y024060D01*
G37*
D13*
X020010Y019444D03*
X020010Y018342D03*
D14*
X020898Y020269D03*
X020898Y020643D03*
X020898Y021017D03*
X021921Y021017D03*
X022648Y021017D03*
X022648Y020643D03*
X022648Y020269D03*
X021921Y020269D03*
X023671Y020269D03*
X023671Y021017D03*
D15*
X024360Y020998D03*
X024935Y020998D03*
X025510Y020998D03*
X025510Y020289D03*
X024935Y020289D03*
X024360Y020289D03*
X023760Y019398D03*
X023760Y018689D03*
X020110Y020289D03*
X020110Y020998D03*
X023760Y023476D03*
X023760Y024185D03*
X028885Y023498D03*
X028885Y022789D03*
X031760Y026039D03*
X032460Y026039D03*
X032460Y026748D03*
X031760Y026748D03*
X034010Y024498D03*
X034760Y024498D03*
X034760Y023789D03*
X034010Y023789D03*
X038010Y026739D03*
X038010Y027448D03*
X037760Y030539D03*
X037760Y031248D03*
X039760Y031248D03*
X039760Y030539D03*
X041760Y030539D03*
X041760Y031248D03*
X042760Y031248D03*
X042760Y030539D03*
X044760Y030539D03*
X044760Y031248D03*
X046760Y031248D03*
X046760Y030539D03*
X048760Y030539D03*
X048760Y031248D03*
X051510Y022998D03*
X051510Y022289D03*
X049364Y018098D03*
X049364Y017389D03*
X035760Y030539D03*
X035760Y031248D03*
X034760Y031248D03*
X034760Y030539D03*
X032760Y030539D03*
X032760Y031248D03*
X030760Y031248D03*
X030760Y030539D03*
X028760Y030539D03*
X027760Y030539D03*
X027760Y031248D03*
X028760Y031248D03*
X025760Y031248D03*
X025760Y030539D03*
X023760Y030539D03*
X023760Y031248D03*
X021760Y031248D03*
X021760Y030539D03*
D16*
X034885Y033381D03*
X035260Y033381D03*
X035634Y033381D03*
X035634Y034405D03*
X034885Y034405D03*
X050135Y023155D03*
X050884Y023155D03*
X050884Y022131D03*
X050510Y022131D03*
X050135Y022131D03*
D17*
X049614Y022142D03*
X048905Y022142D03*
X048905Y023143D03*
X049614Y023143D03*
X052305Y022143D03*
X053014Y022143D03*
X050864Y020793D03*
X050864Y020093D03*
X050155Y020093D03*
X049614Y020093D03*
X049614Y020793D03*
X050155Y020793D03*
X048905Y020793D03*
X048905Y020093D03*
X052305Y024893D03*
X053014Y024893D03*
X048114Y030393D03*
X047405Y030393D03*
X046114Y030393D03*
X045405Y030393D03*
X044114Y030393D03*
X043405Y030393D03*
X041114Y030393D03*
X040405Y030393D03*
X039114Y030393D03*
X038405Y030393D03*
X037114Y030393D03*
X036405Y030393D03*
X034114Y030393D03*
X033405Y030393D03*
X032114Y030393D03*
X031405Y030393D03*
X030114Y030393D03*
X029405Y030393D03*
X027114Y030393D03*
X026405Y030393D03*
X025114Y030393D03*
X024405Y030393D03*
X023114Y030393D03*
X022405Y030393D03*
X025405Y028331D03*
X026114Y028331D03*
X023239Y026893D03*
X022530Y026893D03*
X022530Y025893D03*
X023239Y025893D03*
X019614Y023893D03*
X018905Y023893D03*
X018905Y023093D03*
X019614Y023093D03*
X020155Y021593D03*
X020864Y021593D03*
X022805Y021593D03*
X023514Y021593D03*
X024830Y021643D03*
X025539Y021643D03*
X023164Y019343D03*
X022455Y019343D03*
X022455Y018743D03*
X022455Y018143D03*
X023164Y018143D03*
X023164Y018743D03*
X030405Y021768D03*
X031114Y021768D03*
X032593Y023393D03*
X032593Y023956D03*
X033301Y023956D03*
X033301Y023393D03*
X036155Y023757D03*
X036864Y023757D03*
X029114Y025893D03*
X028405Y025893D03*
X034905Y032393D03*
X035614Y032393D03*
X052305Y030643D03*
X053014Y030643D03*
X040364Y018293D03*
X039655Y018293D03*
X018214Y027893D03*
X017505Y027893D03*
X017505Y030593D03*
X018214Y030593D03*
D18*
X050510Y018590D03*
X050510Y016897D03*
D19*
X036290Y025893D03*
X036290Y026393D03*
X036290Y026893D03*
X036290Y027393D03*
X036290Y027893D03*
X036290Y028393D03*
X036290Y028893D03*
X034230Y028893D03*
X034230Y028393D03*
X034230Y027893D03*
X034230Y027393D03*
X034230Y026893D03*
X034230Y026393D03*
X034230Y025893D03*
X031790Y023893D03*
X031790Y023393D03*
X031790Y022893D03*
X031790Y022393D03*
X029730Y022393D03*
X029730Y022893D03*
X029730Y023393D03*
X029730Y023893D03*
D20*
X030160Y033893D03*
X033360Y033893D03*
X037160Y033893D03*
X040360Y033893D03*
X044160Y033893D03*
X047360Y033893D03*
X026360Y033893D03*
X023160Y033893D03*
D21*
X019560Y024593D03*
X018960Y024593D03*
X018960Y022393D03*
X019560Y022393D03*
D22*
X018860Y021443D03*
X016860Y021443D03*
X016860Y019943D03*
X018860Y019943D03*
X018860Y025643D03*
X016860Y025643D03*
X016860Y027143D03*
X018860Y027143D03*
X018860Y031343D03*
X016860Y031343D03*
X016860Y032843D03*
X018860Y032843D03*
X051660Y032843D03*
X051660Y031343D03*
X053660Y031343D03*
X053660Y032843D03*
X053660Y027143D03*
X053660Y025643D03*
X051660Y025643D03*
X051660Y027143D03*
X051660Y021443D03*
X051660Y019943D03*
X053660Y019943D03*
X053660Y021443D03*
D23*
X021706Y017393D03*
X020013Y017393D03*
D24*
X017823Y023081D03*
X017823Y023337D03*
X017823Y023593D03*
X017823Y023849D03*
X017823Y024105D03*
D25*
X017776Y024472D02*
X017776Y024684D01*
X017870Y024684D01*
X017870Y024472D01*
X017776Y024472D01*
X017776Y022715D02*
X017776Y022503D01*
X017776Y022715D02*
X017870Y022715D01*
X017870Y022503D01*
X017776Y022503D01*
D26*
X016760Y022364D03*
X016760Y024823D03*
D27*
X016760Y023987D03*
X016760Y023200D03*
D28*
X028135Y018643D03*
D29*
X031235Y018643D03*
X025035Y018643D03*
D30*
X038785Y019307D03*
X039285Y019307D03*
X039785Y019307D03*
X040285Y019307D03*
X040285Y021929D03*
X039785Y021929D03*
X039285Y021929D03*
X038785Y021929D03*
D31*
X036342Y022858D03*
X036145Y022858D03*
X035948Y022858D03*
X035752Y022858D03*
X035555Y022858D03*
X035358Y022858D03*
X035161Y022858D03*
X034964Y022858D03*
X034767Y022858D03*
X034571Y022858D03*
X034374Y022858D03*
X034177Y022858D03*
D32*
X033429Y021893D03*
X037090Y021893D03*
D33*
G36*
X027333Y025795D02*
X027554Y025574D01*
X027471Y025491D01*
X027250Y025712D01*
X027333Y025795D01*
G37*
G36*
X027194Y025656D02*
X027415Y025435D01*
X027332Y025352D01*
X027111Y025573D01*
X027194Y025656D01*
G37*
G36*
X027055Y025516D02*
X027276Y025295D01*
X027193Y025212D01*
X026972Y025433D01*
X027055Y025516D01*
G37*
G36*
X026915Y025377D02*
X027136Y025156D01*
X027053Y025073D01*
X026832Y025294D01*
X026915Y025377D01*
G37*
G36*
X026776Y025238D02*
X026997Y025017D01*
X026914Y024934D01*
X026693Y025155D01*
X026776Y025238D01*
G37*
G36*
X026775Y024795D02*
X026554Y025016D01*
X026637Y025099D01*
X026858Y024878D01*
X026775Y024795D01*
G37*
G36*
X026636Y024656D02*
X026415Y024877D01*
X026498Y024960D01*
X026719Y024739D01*
X026636Y024656D01*
G37*
G36*
X026497Y024516D02*
X026276Y024737D01*
X026359Y024820D01*
X026580Y024599D01*
X026497Y024516D01*
G37*
G36*
X026357Y024377D02*
X026136Y024598D01*
X026219Y024681D01*
X026440Y024460D01*
X026357Y024377D01*
G37*
G36*
X026218Y024238D02*
X025997Y024459D01*
X026080Y024542D01*
X026301Y024321D01*
X026218Y024238D01*
G37*
G36*
X026079Y024099D02*
X025858Y024320D01*
X025941Y024403D01*
X026162Y024182D01*
X026079Y024099D01*
G37*
G36*
X025661Y024320D02*
X025440Y024099D01*
X025357Y024182D01*
X025578Y024403D01*
X025661Y024320D01*
G37*
G36*
X025522Y024459D02*
X025301Y024238D01*
X025218Y024321D01*
X025439Y024542D01*
X025522Y024459D01*
G37*
G36*
X025383Y024598D02*
X025162Y024377D01*
X025079Y024460D01*
X025300Y024681D01*
X025383Y024598D01*
G37*
G36*
X025243Y024737D02*
X025022Y024516D01*
X024939Y024599D01*
X025160Y024820D01*
X025243Y024737D01*
G37*
G36*
X025104Y024877D02*
X024883Y024656D01*
X024800Y024739D01*
X025021Y024960D01*
X025104Y024877D01*
G37*
G36*
X024661Y024878D02*
X024882Y025099D01*
X024965Y025016D01*
X024744Y024795D01*
X024661Y024878D01*
G37*
G36*
X024522Y025017D02*
X024743Y025238D01*
X024826Y025155D01*
X024605Y024934D01*
X024522Y025017D01*
G37*
G36*
X024383Y025156D02*
X024604Y025377D01*
X024687Y025294D01*
X024466Y025073D01*
X024383Y025156D01*
G37*
G36*
X024243Y025295D02*
X024464Y025516D01*
X024547Y025433D01*
X024326Y025212D01*
X024243Y025295D01*
G37*
G36*
X024104Y025435D02*
X024325Y025656D01*
X024408Y025573D01*
X024187Y025352D01*
X024104Y025435D01*
G37*
G36*
X023965Y025574D02*
X024186Y025795D01*
X024269Y025712D01*
X024048Y025491D01*
X023965Y025574D01*
G37*
G36*
X024186Y025992D02*
X023965Y026213D01*
X024048Y026296D01*
X024269Y026075D01*
X024186Y025992D01*
G37*
G36*
X024325Y026131D02*
X024104Y026352D01*
X024187Y026435D01*
X024408Y026214D01*
X024325Y026131D01*
G37*
G36*
X024464Y026270D02*
X024243Y026491D01*
X024326Y026574D01*
X024547Y026353D01*
X024464Y026270D01*
G37*
G36*
X024604Y026409D02*
X024383Y026630D01*
X024466Y026713D01*
X024687Y026492D01*
X024604Y026409D01*
G37*
G36*
X024743Y026549D02*
X024522Y026770D01*
X024605Y026853D01*
X024826Y026632D01*
X024743Y026549D01*
G37*
G36*
X024744Y026992D02*
X024965Y026771D01*
X024882Y026688D01*
X024661Y026909D01*
X024744Y026992D01*
G37*
G36*
X024883Y027131D02*
X025104Y026910D01*
X025021Y026827D01*
X024800Y027048D01*
X024883Y027131D01*
G37*
G36*
X025022Y027270D02*
X025243Y027049D01*
X025160Y026966D01*
X024939Y027187D01*
X025022Y027270D01*
G37*
G36*
X025162Y027409D02*
X025383Y027188D01*
X025300Y027105D01*
X025079Y027326D01*
X025162Y027409D01*
G37*
G36*
X025301Y027549D02*
X025522Y027328D01*
X025439Y027245D01*
X025218Y027466D01*
X025301Y027549D01*
G37*
G36*
X025440Y027688D02*
X025661Y027467D01*
X025578Y027384D01*
X025357Y027605D01*
X025440Y027688D01*
G37*
G36*
X025858Y027467D02*
X026079Y027688D01*
X026162Y027605D01*
X025941Y027384D01*
X025858Y027467D01*
G37*
G36*
X025997Y027328D02*
X026218Y027549D01*
X026301Y027466D01*
X026080Y027245D01*
X025997Y027328D01*
G37*
G36*
X026136Y027188D02*
X026357Y027409D01*
X026440Y027326D01*
X026219Y027105D01*
X026136Y027188D01*
G37*
G36*
X026276Y027049D02*
X026497Y027270D01*
X026580Y027187D01*
X026359Y026966D01*
X026276Y027049D01*
G37*
G36*
X026415Y026910D02*
X026636Y027131D01*
X026719Y027048D01*
X026498Y026827D01*
X026415Y026910D01*
G37*
G36*
X026858Y026909D02*
X026637Y026688D01*
X026554Y026771D01*
X026775Y026992D01*
X026858Y026909D01*
G37*
G36*
X026997Y026770D02*
X026776Y026549D01*
X026693Y026632D01*
X026914Y026853D01*
X026997Y026770D01*
G37*
G36*
X027136Y026630D02*
X026915Y026409D01*
X026832Y026492D01*
X027053Y026713D01*
X027136Y026630D01*
G37*
G36*
X027276Y026491D02*
X027055Y026270D01*
X026972Y026353D01*
X027193Y026574D01*
X027276Y026491D01*
G37*
G36*
X027415Y026352D02*
X027194Y026131D01*
X027111Y026214D01*
X027332Y026435D01*
X027415Y026352D01*
G37*
G36*
X027554Y026213D02*
X027333Y025992D01*
X027250Y026075D01*
X027471Y026296D01*
X027554Y026213D01*
G37*
D34*
X042377Y021726D03*
X042810Y021726D03*
X043243Y021726D03*
X043676Y021726D03*
X044110Y021726D03*
X044543Y021726D03*
X044976Y021726D03*
X045409Y021726D03*
X045842Y021726D03*
D35*
X041847Y021490D03*
D36*
X041984Y017643D03*
X048047Y017643D03*
D37*
X047724Y021572D03*
M02*
