G75*
%MOIN*%
%OFA0B0*%
%FSLAX25Y25*%
%IPPOS*%
%LPD*%
%AMOC8*
5,1,8,0,0,1.08239X$1,22.5*
%
%ADD10C,0.00500*%
%ADD11C,0.00000*%
%ADD12R,0.12598X0.05000*%
%ADD13C,0.00394*%
%ADD14R,0.05512X0.14961*%
%ADD15C,0.02805*%
%ADD16C,0.03543*%
%ADD17C,0.04762*%
%ADD18R,0.04724X0.05906*%
%ADD19R,0.05906X0.05906*%
%ADD20R,0.02500X0.05000*%
%ADD21C,0.00800*%
%ADD22R,0.20000X0.20000*%
%ADD23R,0.05000X0.02500*%
%ADD24C,0.03300*%
%ADD25C,0.01200*%
%ADD26C,0.02400*%
%ADD27C,0.04000*%
D10*
X0177595Y0163933D02*
X0527595Y0163933D01*
X0527957Y0163937D01*
X0528320Y0163951D01*
X0528682Y0163972D01*
X0529043Y0164003D01*
X0529403Y0164042D01*
X0529762Y0164090D01*
X0530120Y0164147D01*
X0530477Y0164212D01*
X0530832Y0164286D01*
X0531185Y0164369D01*
X0531536Y0164460D01*
X0531884Y0164559D01*
X0532230Y0164667D01*
X0532574Y0164783D01*
X0532914Y0164908D01*
X0533251Y0165040D01*
X0533585Y0165181D01*
X0533916Y0165330D01*
X0534243Y0165487D01*
X0534566Y0165651D01*
X0534885Y0165823D01*
X0535199Y0166003D01*
X0535510Y0166191D01*
X0535815Y0166386D01*
X0536116Y0166588D01*
X0536412Y0166798D01*
X0536702Y0167014D01*
X0536988Y0167238D01*
X0537268Y0167468D01*
X0537542Y0167705D01*
X0537810Y0167949D01*
X0538073Y0168199D01*
X0538329Y0168455D01*
X0538579Y0168718D01*
X0538823Y0168986D01*
X0539060Y0169260D01*
X0539290Y0169540D01*
X0539514Y0169826D01*
X0539730Y0170116D01*
X0539940Y0170412D01*
X0540142Y0170713D01*
X0540337Y0171018D01*
X0540525Y0171329D01*
X0540705Y0171643D01*
X0540877Y0171962D01*
X0541041Y0172285D01*
X0541198Y0172612D01*
X0541347Y0172943D01*
X0541488Y0173277D01*
X0541620Y0173614D01*
X0541745Y0173954D01*
X0541861Y0174298D01*
X0541969Y0174644D01*
X0542068Y0174992D01*
X0542159Y0175343D01*
X0542242Y0175696D01*
X0542316Y0176051D01*
X0542381Y0176408D01*
X0542438Y0176766D01*
X0542486Y0177125D01*
X0542525Y0177485D01*
X0542556Y0177846D01*
X0542577Y0178208D01*
X0542591Y0178571D01*
X0542595Y0178933D01*
X0542595Y0302004D01*
X0536493Y0302004D01*
X0536411Y0302006D01*
X0536330Y0302012D01*
X0536248Y0302021D01*
X0536167Y0302034D01*
X0536087Y0302051D01*
X0536008Y0302072D01*
X0535930Y0302096D01*
X0535853Y0302124D01*
X0535777Y0302155D01*
X0535703Y0302190D01*
X0535631Y0302228D01*
X0535560Y0302269D01*
X0535492Y0302314D01*
X0535425Y0302362D01*
X0535361Y0302413D01*
X0535299Y0302466D01*
X0535240Y0302523D01*
X0535183Y0302582D01*
X0535130Y0302644D01*
X0535079Y0302708D01*
X0535031Y0302775D01*
X0534986Y0302843D01*
X0534945Y0302914D01*
X0534907Y0302986D01*
X0534872Y0303060D01*
X0534841Y0303136D01*
X0534813Y0303213D01*
X0534789Y0303291D01*
X0534768Y0303370D01*
X0534751Y0303450D01*
X0534738Y0303531D01*
X0534729Y0303613D01*
X0534723Y0303694D01*
X0534721Y0303776D01*
X0534723Y0303858D01*
X0534729Y0303939D01*
X0534738Y0304021D01*
X0534751Y0304102D01*
X0534768Y0304182D01*
X0534789Y0304261D01*
X0534813Y0304339D01*
X0534841Y0304416D01*
X0534872Y0304492D01*
X0534907Y0304566D01*
X0534945Y0304638D01*
X0534986Y0304709D01*
X0535031Y0304777D01*
X0535079Y0304844D01*
X0535130Y0304908D01*
X0535183Y0304970D01*
X0535240Y0305029D01*
X0535299Y0305086D01*
X0535361Y0305139D01*
X0535425Y0305190D01*
X0535492Y0305238D01*
X0535560Y0305283D01*
X0535631Y0305324D01*
X0535703Y0305362D01*
X0535777Y0305397D01*
X0535853Y0305428D01*
X0535930Y0305456D01*
X0536008Y0305480D01*
X0536087Y0305501D01*
X0536167Y0305518D01*
X0536248Y0305531D01*
X0536330Y0305540D01*
X0536411Y0305546D01*
X0536493Y0305548D01*
X0536493Y0305547D02*
X0542595Y0305547D01*
X0542595Y0348933D01*
X0542591Y0349295D01*
X0542577Y0349658D01*
X0542556Y0350020D01*
X0542525Y0350381D01*
X0542486Y0350741D01*
X0542438Y0351100D01*
X0542381Y0351458D01*
X0542316Y0351815D01*
X0542242Y0352170D01*
X0542159Y0352523D01*
X0542068Y0352874D01*
X0541969Y0353222D01*
X0541861Y0353568D01*
X0541745Y0353912D01*
X0541620Y0354252D01*
X0541488Y0354589D01*
X0541347Y0354923D01*
X0541198Y0355254D01*
X0541041Y0355581D01*
X0540877Y0355904D01*
X0540705Y0356223D01*
X0540525Y0356537D01*
X0540337Y0356848D01*
X0540142Y0357153D01*
X0539940Y0357454D01*
X0539730Y0357750D01*
X0539514Y0358040D01*
X0539290Y0358326D01*
X0539060Y0358606D01*
X0538823Y0358880D01*
X0538579Y0359148D01*
X0538329Y0359411D01*
X0538073Y0359667D01*
X0537810Y0359917D01*
X0537542Y0360161D01*
X0537268Y0360398D01*
X0536988Y0360628D01*
X0536702Y0360852D01*
X0536412Y0361068D01*
X0536116Y0361278D01*
X0535815Y0361480D01*
X0535510Y0361675D01*
X0535199Y0361863D01*
X0534885Y0362043D01*
X0534566Y0362215D01*
X0534243Y0362379D01*
X0533916Y0362536D01*
X0533585Y0362685D01*
X0533251Y0362826D01*
X0532914Y0362958D01*
X0532574Y0363083D01*
X0532230Y0363199D01*
X0531884Y0363307D01*
X0531536Y0363406D01*
X0531185Y0363497D01*
X0530832Y0363580D01*
X0530477Y0363654D01*
X0530120Y0363719D01*
X0529762Y0363776D01*
X0529403Y0363824D01*
X0529043Y0363863D01*
X0528682Y0363894D01*
X0528320Y0363915D01*
X0527957Y0363929D01*
X0527595Y0363933D01*
X0177595Y0363933D01*
X0177233Y0363929D01*
X0176870Y0363915D01*
X0176508Y0363894D01*
X0176147Y0363863D01*
X0175787Y0363824D01*
X0175428Y0363776D01*
X0175070Y0363719D01*
X0174713Y0363654D01*
X0174358Y0363580D01*
X0174005Y0363497D01*
X0173654Y0363406D01*
X0173306Y0363307D01*
X0172960Y0363199D01*
X0172616Y0363083D01*
X0172276Y0362958D01*
X0171939Y0362826D01*
X0171605Y0362685D01*
X0171274Y0362536D01*
X0170947Y0362379D01*
X0170624Y0362215D01*
X0170305Y0362043D01*
X0169991Y0361863D01*
X0169680Y0361675D01*
X0169375Y0361480D01*
X0169074Y0361278D01*
X0168778Y0361068D01*
X0168488Y0360852D01*
X0168202Y0360628D01*
X0167922Y0360398D01*
X0167648Y0360161D01*
X0167380Y0359917D01*
X0167117Y0359667D01*
X0166861Y0359411D01*
X0166611Y0359148D01*
X0166367Y0358880D01*
X0166130Y0358606D01*
X0165900Y0358326D01*
X0165676Y0358040D01*
X0165460Y0357750D01*
X0165250Y0357454D01*
X0165048Y0357153D01*
X0164853Y0356848D01*
X0164665Y0356537D01*
X0164485Y0356223D01*
X0164313Y0355904D01*
X0164149Y0355581D01*
X0163992Y0355254D01*
X0163843Y0354923D01*
X0163702Y0354589D01*
X0163570Y0354252D01*
X0163445Y0353912D01*
X0163329Y0353568D01*
X0163221Y0353222D01*
X0163122Y0352874D01*
X0163031Y0352523D01*
X0162948Y0352170D01*
X0162874Y0351815D01*
X0162809Y0351458D01*
X0162752Y0351100D01*
X0162704Y0350741D01*
X0162665Y0350381D01*
X0162634Y0350020D01*
X0162613Y0349658D01*
X0162599Y0349295D01*
X0162595Y0348933D01*
X0162595Y0305547D01*
X0168698Y0305547D01*
X0168698Y0305548D02*
X0168780Y0305546D01*
X0168861Y0305540D01*
X0168943Y0305531D01*
X0169024Y0305518D01*
X0169104Y0305501D01*
X0169183Y0305480D01*
X0169261Y0305456D01*
X0169338Y0305428D01*
X0169414Y0305397D01*
X0169488Y0305362D01*
X0169560Y0305324D01*
X0169631Y0305283D01*
X0169699Y0305238D01*
X0169766Y0305190D01*
X0169830Y0305139D01*
X0169892Y0305086D01*
X0169951Y0305029D01*
X0170008Y0304970D01*
X0170061Y0304908D01*
X0170112Y0304844D01*
X0170160Y0304777D01*
X0170205Y0304709D01*
X0170246Y0304638D01*
X0170284Y0304566D01*
X0170319Y0304492D01*
X0170350Y0304416D01*
X0170378Y0304339D01*
X0170402Y0304261D01*
X0170423Y0304182D01*
X0170440Y0304102D01*
X0170453Y0304021D01*
X0170462Y0303939D01*
X0170468Y0303858D01*
X0170470Y0303776D01*
X0170468Y0303694D01*
X0170462Y0303613D01*
X0170453Y0303531D01*
X0170440Y0303450D01*
X0170423Y0303370D01*
X0170402Y0303291D01*
X0170378Y0303213D01*
X0170350Y0303136D01*
X0170319Y0303060D01*
X0170284Y0302986D01*
X0170246Y0302914D01*
X0170205Y0302843D01*
X0170160Y0302775D01*
X0170112Y0302708D01*
X0170061Y0302644D01*
X0170008Y0302582D01*
X0169951Y0302523D01*
X0169892Y0302466D01*
X0169830Y0302413D01*
X0169766Y0302362D01*
X0169699Y0302314D01*
X0169631Y0302269D01*
X0169560Y0302228D01*
X0169488Y0302190D01*
X0169414Y0302155D01*
X0169338Y0302124D01*
X0169261Y0302096D01*
X0169183Y0302072D01*
X0169104Y0302051D01*
X0169024Y0302034D01*
X0168943Y0302021D01*
X0168861Y0302012D01*
X0168780Y0302006D01*
X0168698Y0302004D01*
X0162595Y0302004D01*
X0162595Y0178933D01*
X0162599Y0178571D01*
X0162613Y0178208D01*
X0162634Y0177846D01*
X0162665Y0177485D01*
X0162704Y0177125D01*
X0162752Y0176766D01*
X0162809Y0176408D01*
X0162874Y0176051D01*
X0162948Y0175696D01*
X0163031Y0175343D01*
X0163122Y0174992D01*
X0163221Y0174644D01*
X0163329Y0174298D01*
X0163445Y0173954D01*
X0163570Y0173614D01*
X0163702Y0173277D01*
X0163843Y0172943D01*
X0163992Y0172612D01*
X0164149Y0172285D01*
X0164313Y0171962D01*
X0164485Y0171643D01*
X0164665Y0171329D01*
X0164853Y0171018D01*
X0165048Y0170713D01*
X0165250Y0170412D01*
X0165460Y0170116D01*
X0165676Y0169826D01*
X0165900Y0169540D01*
X0166130Y0169260D01*
X0166367Y0168986D01*
X0166611Y0168718D01*
X0166861Y0168455D01*
X0167117Y0168199D01*
X0167380Y0167949D01*
X0167648Y0167705D01*
X0167922Y0167468D01*
X0168202Y0167238D01*
X0168488Y0167014D01*
X0168778Y0166798D01*
X0169074Y0166588D01*
X0169375Y0166386D01*
X0169680Y0166191D01*
X0169991Y0166003D01*
X0170305Y0165823D01*
X0170624Y0165651D01*
X0170947Y0165487D01*
X0171274Y0165330D01*
X0171605Y0165181D01*
X0171939Y0165040D01*
X0172276Y0164908D01*
X0172616Y0164783D01*
X0172960Y0164667D01*
X0173306Y0164559D01*
X0173654Y0164460D01*
X0174005Y0164369D01*
X0174358Y0164286D01*
X0174713Y0164212D01*
X0175070Y0164147D01*
X0175428Y0164090D01*
X0175787Y0164042D01*
X0176147Y0164003D01*
X0176508Y0163972D01*
X0176870Y0163951D01*
X0177233Y0163937D01*
X0177595Y0163933D01*
D11*
X0168737Y0178933D02*
X0168740Y0179150D01*
X0168748Y0179368D01*
X0168761Y0179585D01*
X0168780Y0179801D01*
X0168804Y0180017D01*
X0168833Y0180233D01*
X0168867Y0180447D01*
X0168907Y0180661D01*
X0168952Y0180874D01*
X0169002Y0181085D01*
X0169058Y0181296D01*
X0169118Y0181504D01*
X0169184Y0181712D01*
X0169255Y0181917D01*
X0169331Y0182121D01*
X0169411Y0182323D01*
X0169497Y0182523D01*
X0169587Y0182720D01*
X0169683Y0182916D01*
X0169783Y0183109D01*
X0169888Y0183299D01*
X0169997Y0183487D01*
X0170111Y0183672D01*
X0170230Y0183854D01*
X0170353Y0184034D01*
X0170480Y0184210D01*
X0170612Y0184383D01*
X0170748Y0184552D01*
X0170888Y0184719D01*
X0171032Y0184882D01*
X0171180Y0185041D01*
X0171331Y0185197D01*
X0171487Y0185348D01*
X0171646Y0185496D01*
X0171809Y0185640D01*
X0171976Y0185780D01*
X0172145Y0185916D01*
X0172318Y0186048D01*
X0172494Y0186175D01*
X0172674Y0186298D01*
X0172856Y0186417D01*
X0173041Y0186531D01*
X0173229Y0186640D01*
X0173419Y0186745D01*
X0173612Y0186845D01*
X0173808Y0186941D01*
X0174005Y0187031D01*
X0174205Y0187117D01*
X0174407Y0187197D01*
X0174611Y0187273D01*
X0174816Y0187344D01*
X0175024Y0187410D01*
X0175232Y0187470D01*
X0175443Y0187526D01*
X0175654Y0187576D01*
X0175867Y0187621D01*
X0176081Y0187661D01*
X0176295Y0187695D01*
X0176511Y0187724D01*
X0176727Y0187748D01*
X0176943Y0187767D01*
X0177160Y0187780D01*
X0177378Y0187788D01*
X0177595Y0187791D01*
X0177812Y0187788D01*
X0178030Y0187780D01*
X0178247Y0187767D01*
X0178463Y0187748D01*
X0178679Y0187724D01*
X0178895Y0187695D01*
X0179109Y0187661D01*
X0179323Y0187621D01*
X0179536Y0187576D01*
X0179747Y0187526D01*
X0179958Y0187470D01*
X0180166Y0187410D01*
X0180374Y0187344D01*
X0180579Y0187273D01*
X0180783Y0187197D01*
X0180985Y0187117D01*
X0181185Y0187031D01*
X0181382Y0186941D01*
X0181578Y0186845D01*
X0181771Y0186745D01*
X0181961Y0186640D01*
X0182149Y0186531D01*
X0182334Y0186417D01*
X0182516Y0186298D01*
X0182696Y0186175D01*
X0182872Y0186048D01*
X0183045Y0185916D01*
X0183214Y0185780D01*
X0183381Y0185640D01*
X0183544Y0185496D01*
X0183703Y0185348D01*
X0183859Y0185197D01*
X0184010Y0185041D01*
X0184158Y0184882D01*
X0184302Y0184719D01*
X0184442Y0184552D01*
X0184578Y0184383D01*
X0184710Y0184210D01*
X0184837Y0184034D01*
X0184960Y0183854D01*
X0185079Y0183672D01*
X0185193Y0183487D01*
X0185302Y0183299D01*
X0185407Y0183109D01*
X0185507Y0182916D01*
X0185603Y0182720D01*
X0185693Y0182523D01*
X0185779Y0182323D01*
X0185859Y0182121D01*
X0185935Y0181917D01*
X0186006Y0181712D01*
X0186072Y0181504D01*
X0186132Y0181296D01*
X0186188Y0181085D01*
X0186238Y0180874D01*
X0186283Y0180661D01*
X0186323Y0180447D01*
X0186357Y0180233D01*
X0186386Y0180017D01*
X0186410Y0179801D01*
X0186429Y0179585D01*
X0186442Y0179368D01*
X0186450Y0179150D01*
X0186453Y0178933D01*
X0186450Y0178716D01*
X0186442Y0178498D01*
X0186429Y0178281D01*
X0186410Y0178065D01*
X0186386Y0177849D01*
X0186357Y0177633D01*
X0186323Y0177419D01*
X0186283Y0177205D01*
X0186238Y0176992D01*
X0186188Y0176781D01*
X0186132Y0176570D01*
X0186072Y0176362D01*
X0186006Y0176154D01*
X0185935Y0175949D01*
X0185859Y0175745D01*
X0185779Y0175543D01*
X0185693Y0175343D01*
X0185603Y0175146D01*
X0185507Y0174950D01*
X0185407Y0174757D01*
X0185302Y0174567D01*
X0185193Y0174379D01*
X0185079Y0174194D01*
X0184960Y0174012D01*
X0184837Y0173832D01*
X0184710Y0173656D01*
X0184578Y0173483D01*
X0184442Y0173314D01*
X0184302Y0173147D01*
X0184158Y0172984D01*
X0184010Y0172825D01*
X0183859Y0172669D01*
X0183703Y0172518D01*
X0183544Y0172370D01*
X0183381Y0172226D01*
X0183214Y0172086D01*
X0183045Y0171950D01*
X0182872Y0171818D01*
X0182696Y0171691D01*
X0182516Y0171568D01*
X0182334Y0171449D01*
X0182149Y0171335D01*
X0181961Y0171226D01*
X0181771Y0171121D01*
X0181578Y0171021D01*
X0181382Y0170925D01*
X0181185Y0170835D01*
X0180985Y0170749D01*
X0180783Y0170669D01*
X0180579Y0170593D01*
X0180374Y0170522D01*
X0180166Y0170456D01*
X0179958Y0170396D01*
X0179747Y0170340D01*
X0179536Y0170290D01*
X0179323Y0170245D01*
X0179109Y0170205D01*
X0178895Y0170171D01*
X0178679Y0170142D01*
X0178463Y0170118D01*
X0178247Y0170099D01*
X0178030Y0170086D01*
X0177812Y0170078D01*
X0177595Y0170075D01*
X0177378Y0170078D01*
X0177160Y0170086D01*
X0176943Y0170099D01*
X0176727Y0170118D01*
X0176511Y0170142D01*
X0176295Y0170171D01*
X0176081Y0170205D01*
X0175867Y0170245D01*
X0175654Y0170290D01*
X0175443Y0170340D01*
X0175232Y0170396D01*
X0175024Y0170456D01*
X0174816Y0170522D01*
X0174611Y0170593D01*
X0174407Y0170669D01*
X0174205Y0170749D01*
X0174005Y0170835D01*
X0173808Y0170925D01*
X0173612Y0171021D01*
X0173419Y0171121D01*
X0173229Y0171226D01*
X0173041Y0171335D01*
X0172856Y0171449D01*
X0172674Y0171568D01*
X0172494Y0171691D01*
X0172318Y0171818D01*
X0172145Y0171950D01*
X0171976Y0172086D01*
X0171809Y0172226D01*
X0171646Y0172370D01*
X0171487Y0172518D01*
X0171331Y0172669D01*
X0171180Y0172825D01*
X0171032Y0172984D01*
X0170888Y0173147D01*
X0170748Y0173314D01*
X0170612Y0173483D01*
X0170480Y0173656D01*
X0170353Y0173832D01*
X0170230Y0174012D01*
X0170111Y0174194D01*
X0169997Y0174379D01*
X0169888Y0174567D01*
X0169783Y0174757D01*
X0169683Y0174950D01*
X0169587Y0175146D01*
X0169497Y0175343D01*
X0169411Y0175543D01*
X0169331Y0175745D01*
X0169255Y0175949D01*
X0169184Y0176154D01*
X0169118Y0176362D01*
X0169058Y0176570D01*
X0169002Y0176781D01*
X0168952Y0176992D01*
X0168907Y0177205D01*
X0168867Y0177419D01*
X0168833Y0177633D01*
X0168804Y0177849D01*
X0168780Y0178065D01*
X0168761Y0178281D01*
X0168748Y0178498D01*
X0168740Y0178716D01*
X0168737Y0178933D01*
X0210863Y0190114D02*
X0210865Y0190239D01*
X0210871Y0190364D01*
X0210881Y0190488D01*
X0210895Y0190612D01*
X0210912Y0190736D01*
X0210934Y0190859D01*
X0210960Y0190981D01*
X0210989Y0191103D01*
X0211022Y0191223D01*
X0211060Y0191342D01*
X0211100Y0191461D01*
X0211145Y0191577D01*
X0211193Y0191692D01*
X0211245Y0191806D01*
X0211301Y0191918D01*
X0211360Y0192028D01*
X0211422Y0192136D01*
X0211488Y0192243D01*
X0211557Y0192347D01*
X0211630Y0192448D01*
X0211705Y0192548D01*
X0211784Y0192645D01*
X0211866Y0192739D01*
X0211951Y0192831D01*
X0212038Y0192920D01*
X0212129Y0193006D01*
X0212222Y0193089D01*
X0212318Y0193170D01*
X0212416Y0193247D01*
X0212516Y0193321D01*
X0212619Y0193392D01*
X0212724Y0193459D01*
X0212832Y0193524D01*
X0212941Y0193584D01*
X0213052Y0193642D01*
X0213165Y0193695D01*
X0213279Y0193745D01*
X0213395Y0193792D01*
X0213512Y0193834D01*
X0213631Y0193873D01*
X0213751Y0193909D01*
X0213872Y0193940D01*
X0213994Y0193968D01*
X0214116Y0193991D01*
X0214240Y0194011D01*
X0214364Y0194027D01*
X0214488Y0194039D01*
X0214613Y0194047D01*
X0214738Y0194051D01*
X0214862Y0194051D01*
X0214987Y0194047D01*
X0215112Y0194039D01*
X0215236Y0194027D01*
X0215360Y0194011D01*
X0215484Y0193991D01*
X0215606Y0193968D01*
X0215728Y0193940D01*
X0215849Y0193909D01*
X0215969Y0193873D01*
X0216088Y0193834D01*
X0216205Y0193792D01*
X0216321Y0193745D01*
X0216435Y0193695D01*
X0216548Y0193642D01*
X0216659Y0193584D01*
X0216769Y0193524D01*
X0216876Y0193459D01*
X0216981Y0193392D01*
X0217084Y0193321D01*
X0217184Y0193247D01*
X0217282Y0193170D01*
X0217378Y0193089D01*
X0217471Y0193006D01*
X0217562Y0192920D01*
X0217649Y0192831D01*
X0217734Y0192739D01*
X0217816Y0192645D01*
X0217895Y0192548D01*
X0217970Y0192448D01*
X0218043Y0192347D01*
X0218112Y0192243D01*
X0218178Y0192136D01*
X0218240Y0192028D01*
X0218299Y0191918D01*
X0218355Y0191806D01*
X0218407Y0191692D01*
X0218455Y0191577D01*
X0218500Y0191461D01*
X0218540Y0191342D01*
X0218578Y0191223D01*
X0218611Y0191103D01*
X0218640Y0190981D01*
X0218666Y0190859D01*
X0218688Y0190736D01*
X0218705Y0190612D01*
X0218719Y0190488D01*
X0218729Y0190364D01*
X0218735Y0190239D01*
X0218737Y0190114D01*
X0218735Y0189989D01*
X0218729Y0189864D01*
X0218719Y0189740D01*
X0218705Y0189616D01*
X0218688Y0189492D01*
X0218666Y0189369D01*
X0218640Y0189247D01*
X0218611Y0189125D01*
X0218578Y0189005D01*
X0218540Y0188886D01*
X0218500Y0188767D01*
X0218455Y0188651D01*
X0218407Y0188536D01*
X0218355Y0188422D01*
X0218299Y0188310D01*
X0218240Y0188200D01*
X0218178Y0188092D01*
X0218112Y0187985D01*
X0218043Y0187881D01*
X0217970Y0187780D01*
X0217895Y0187680D01*
X0217816Y0187583D01*
X0217734Y0187489D01*
X0217649Y0187397D01*
X0217562Y0187308D01*
X0217471Y0187222D01*
X0217378Y0187139D01*
X0217282Y0187058D01*
X0217184Y0186981D01*
X0217084Y0186907D01*
X0216981Y0186836D01*
X0216876Y0186769D01*
X0216768Y0186704D01*
X0216659Y0186644D01*
X0216548Y0186586D01*
X0216435Y0186533D01*
X0216321Y0186483D01*
X0216205Y0186436D01*
X0216088Y0186394D01*
X0215969Y0186355D01*
X0215849Y0186319D01*
X0215728Y0186288D01*
X0215606Y0186260D01*
X0215484Y0186237D01*
X0215360Y0186217D01*
X0215236Y0186201D01*
X0215112Y0186189D01*
X0214987Y0186181D01*
X0214862Y0186177D01*
X0214738Y0186177D01*
X0214613Y0186181D01*
X0214488Y0186189D01*
X0214364Y0186201D01*
X0214240Y0186217D01*
X0214116Y0186237D01*
X0213994Y0186260D01*
X0213872Y0186288D01*
X0213751Y0186319D01*
X0213631Y0186355D01*
X0213512Y0186394D01*
X0213395Y0186436D01*
X0213279Y0186483D01*
X0213165Y0186533D01*
X0213052Y0186586D01*
X0212941Y0186644D01*
X0212831Y0186704D01*
X0212724Y0186769D01*
X0212619Y0186836D01*
X0212516Y0186907D01*
X0212416Y0186981D01*
X0212318Y0187058D01*
X0212222Y0187139D01*
X0212129Y0187222D01*
X0212038Y0187308D01*
X0211951Y0187397D01*
X0211866Y0187489D01*
X0211784Y0187583D01*
X0211705Y0187680D01*
X0211630Y0187780D01*
X0211557Y0187881D01*
X0211488Y0187985D01*
X0211422Y0188092D01*
X0211360Y0188200D01*
X0211301Y0188310D01*
X0211245Y0188422D01*
X0211193Y0188536D01*
X0211145Y0188651D01*
X0211100Y0188767D01*
X0211060Y0188886D01*
X0211022Y0189005D01*
X0210989Y0189125D01*
X0210960Y0189247D01*
X0210934Y0189369D01*
X0210912Y0189492D01*
X0210895Y0189616D01*
X0210881Y0189740D01*
X0210871Y0189864D01*
X0210865Y0189989D01*
X0210863Y0190114D01*
X0210863Y0337752D02*
X0210865Y0337877D01*
X0210871Y0338002D01*
X0210881Y0338126D01*
X0210895Y0338250D01*
X0210912Y0338374D01*
X0210934Y0338497D01*
X0210960Y0338619D01*
X0210989Y0338741D01*
X0211022Y0338861D01*
X0211060Y0338980D01*
X0211100Y0339099D01*
X0211145Y0339215D01*
X0211193Y0339330D01*
X0211245Y0339444D01*
X0211301Y0339556D01*
X0211360Y0339666D01*
X0211422Y0339774D01*
X0211488Y0339881D01*
X0211557Y0339985D01*
X0211630Y0340086D01*
X0211705Y0340186D01*
X0211784Y0340283D01*
X0211866Y0340377D01*
X0211951Y0340469D01*
X0212038Y0340558D01*
X0212129Y0340644D01*
X0212222Y0340727D01*
X0212318Y0340808D01*
X0212416Y0340885D01*
X0212516Y0340959D01*
X0212619Y0341030D01*
X0212724Y0341097D01*
X0212832Y0341162D01*
X0212941Y0341222D01*
X0213052Y0341280D01*
X0213165Y0341333D01*
X0213279Y0341383D01*
X0213395Y0341430D01*
X0213512Y0341472D01*
X0213631Y0341511D01*
X0213751Y0341547D01*
X0213872Y0341578D01*
X0213994Y0341606D01*
X0214116Y0341629D01*
X0214240Y0341649D01*
X0214364Y0341665D01*
X0214488Y0341677D01*
X0214613Y0341685D01*
X0214738Y0341689D01*
X0214862Y0341689D01*
X0214987Y0341685D01*
X0215112Y0341677D01*
X0215236Y0341665D01*
X0215360Y0341649D01*
X0215484Y0341629D01*
X0215606Y0341606D01*
X0215728Y0341578D01*
X0215849Y0341547D01*
X0215969Y0341511D01*
X0216088Y0341472D01*
X0216205Y0341430D01*
X0216321Y0341383D01*
X0216435Y0341333D01*
X0216548Y0341280D01*
X0216659Y0341222D01*
X0216769Y0341162D01*
X0216876Y0341097D01*
X0216981Y0341030D01*
X0217084Y0340959D01*
X0217184Y0340885D01*
X0217282Y0340808D01*
X0217378Y0340727D01*
X0217471Y0340644D01*
X0217562Y0340558D01*
X0217649Y0340469D01*
X0217734Y0340377D01*
X0217816Y0340283D01*
X0217895Y0340186D01*
X0217970Y0340086D01*
X0218043Y0339985D01*
X0218112Y0339881D01*
X0218178Y0339774D01*
X0218240Y0339666D01*
X0218299Y0339556D01*
X0218355Y0339444D01*
X0218407Y0339330D01*
X0218455Y0339215D01*
X0218500Y0339099D01*
X0218540Y0338980D01*
X0218578Y0338861D01*
X0218611Y0338741D01*
X0218640Y0338619D01*
X0218666Y0338497D01*
X0218688Y0338374D01*
X0218705Y0338250D01*
X0218719Y0338126D01*
X0218729Y0338002D01*
X0218735Y0337877D01*
X0218737Y0337752D01*
X0218735Y0337627D01*
X0218729Y0337502D01*
X0218719Y0337378D01*
X0218705Y0337254D01*
X0218688Y0337130D01*
X0218666Y0337007D01*
X0218640Y0336885D01*
X0218611Y0336763D01*
X0218578Y0336643D01*
X0218540Y0336524D01*
X0218500Y0336405D01*
X0218455Y0336289D01*
X0218407Y0336174D01*
X0218355Y0336060D01*
X0218299Y0335948D01*
X0218240Y0335838D01*
X0218178Y0335730D01*
X0218112Y0335623D01*
X0218043Y0335519D01*
X0217970Y0335418D01*
X0217895Y0335318D01*
X0217816Y0335221D01*
X0217734Y0335127D01*
X0217649Y0335035D01*
X0217562Y0334946D01*
X0217471Y0334860D01*
X0217378Y0334777D01*
X0217282Y0334696D01*
X0217184Y0334619D01*
X0217084Y0334545D01*
X0216981Y0334474D01*
X0216876Y0334407D01*
X0216768Y0334342D01*
X0216659Y0334282D01*
X0216548Y0334224D01*
X0216435Y0334171D01*
X0216321Y0334121D01*
X0216205Y0334074D01*
X0216088Y0334032D01*
X0215969Y0333993D01*
X0215849Y0333957D01*
X0215728Y0333926D01*
X0215606Y0333898D01*
X0215484Y0333875D01*
X0215360Y0333855D01*
X0215236Y0333839D01*
X0215112Y0333827D01*
X0214987Y0333819D01*
X0214862Y0333815D01*
X0214738Y0333815D01*
X0214613Y0333819D01*
X0214488Y0333827D01*
X0214364Y0333839D01*
X0214240Y0333855D01*
X0214116Y0333875D01*
X0213994Y0333898D01*
X0213872Y0333926D01*
X0213751Y0333957D01*
X0213631Y0333993D01*
X0213512Y0334032D01*
X0213395Y0334074D01*
X0213279Y0334121D01*
X0213165Y0334171D01*
X0213052Y0334224D01*
X0212941Y0334282D01*
X0212831Y0334342D01*
X0212724Y0334407D01*
X0212619Y0334474D01*
X0212516Y0334545D01*
X0212416Y0334619D01*
X0212318Y0334696D01*
X0212222Y0334777D01*
X0212129Y0334860D01*
X0212038Y0334946D01*
X0211951Y0335035D01*
X0211866Y0335127D01*
X0211784Y0335221D01*
X0211705Y0335318D01*
X0211630Y0335418D01*
X0211557Y0335519D01*
X0211488Y0335623D01*
X0211422Y0335730D01*
X0211360Y0335838D01*
X0211301Y0335948D01*
X0211245Y0336060D01*
X0211193Y0336174D01*
X0211145Y0336289D01*
X0211100Y0336405D01*
X0211060Y0336524D01*
X0211022Y0336643D01*
X0210989Y0336763D01*
X0210960Y0336885D01*
X0210934Y0337007D01*
X0210912Y0337130D01*
X0210895Y0337254D01*
X0210881Y0337378D01*
X0210871Y0337502D01*
X0210865Y0337627D01*
X0210863Y0337752D01*
X0168737Y0348933D02*
X0168740Y0349150D01*
X0168748Y0349368D01*
X0168761Y0349585D01*
X0168780Y0349801D01*
X0168804Y0350017D01*
X0168833Y0350233D01*
X0168867Y0350447D01*
X0168907Y0350661D01*
X0168952Y0350874D01*
X0169002Y0351085D01*
X0169058Y0351296D01*
X0169118Y0351504D01*
X0169184Y0351712D01*
X0169255Y0351917D01*
X0169331Y0352121D01*
X0169411Y0352323D01*
X0169497Y0352523D01*
X0169587Y0352720D01*
X0169683Y0352916D01*
X0169783Y0353109D01*
X0169888Y0353299D01*
X0169997Y0353487D01*
X0170111Y0353672D01*
X0170230Y0353854D01*
X0170353Y0354034D01*
X0170480Y0354210D01*
X0170612Y0354383D01*
X0170748Y0354552D01*
X0170888Y0354719D01*
X0171032Y0354882D01*
X0171180Y0355041D01*
X0171331Y0355197D01*
X0171487Y0355348D01*
X0171646Y0355496D01*
X0171809Y0355640D01*
X0171976Y0355780D01*
X0172145Y0355916D01*
X0172318Y0356048D01*
X0172494Y0356175D01*
X0172674Y0356298D01*
X0172856Y0356417D01*
X0173041Y0356531D01*
X0173229Y0356640D01*
X0173419Y0356745D01*
X0173612Y0356845D01*
X0173808Y0356941D01*
X0174005Y0357031D01*
X0174205Y0357117D01*
X0174407Y0357197D01*
X0174611Y0357273D01*
X0174816Y0357344D01*
X0175024Y0357410D01*
X0175232Y0357470D01*
X0175443Y0357526D01*
X0175654Y0357576D01*
X0175867Y0357621D01*
X0176081Y0357661D01*
X0176295Y0357695D01*
X0176511Y0357724D01*
X0176727Y0357748D01*
X0176943Y0357767D01*
X0177160Y0357780D01*
X0177378Y0357788D01*
X0177595Y0357791D01*
X0177812Y0357788D01*
X0178030Y0357780D01*
X0178247Y0357767D01*
X0178463Y0357748D01*
X0178679Y0357724D01*
X0178895Y0357695D01*
X0179109Y0357661D01*
X0179323Y0357621D01*
X0179536Y0357576D01*
X0179747Y0357526D01*
X0179958Y0357470D01*
X0180166Y0357410D01*
X0180374Y0357344D01*
X0180579Y0357273D01*
X0180783Y0357197D01*
X0180985Y0357117D01*
X0181185Y0357031D01*
X0181382Y0356941D01*
X0181578Y0356845D01*
X0181771Y0356745D01*
X0181961Y0356640D01*
X0182149Y0356531D01*
X0182334Y0356417D01*
X0182516Y0356298D01*
X0182696Y0356175D01*
X0182872Y0356048D01*
X0183045Y0355916D01*
X0183214Y0355780D01*
X0183381Y0355640D01*
X0183544Y0355496D01*
X0183703Y0355348D01*
X0183859Y0355197D01*
X0184010Y0355041D01*
X0184158Y0354882D01*
X0184302Y0354719D01*
X0184442Y0354552D01*
X0184578Y0354383D01*
X0184710Y0354210D01*
X0184837Y0354034D01*
X0184960Y0353854D01*
X0185079Y0353672D01*
X0185193Y0353487D01*
X0185302Y0353299D01*
X0185407Y0353109D01*
X0185507Y0352916D01*
X0185603Y0352720D01*
X0185693Y0352523D01*
X0185779Y0352323D01*
X0185859Y0352121D01*
X0185935Y0351917D01*
X0186006Y0351712D01*
X0186072Y0351504D01*
X0186132Y0351296D01*
X0186188Y0351085D01*
X0186238Y0350874D01*
X0186283Y0350661D01*
X0186323Y0350447D01*
X0186357Y0350233D01*
X0186386Y0350017D01*
X0186410Y0349801D01*
X0186429Y0349585D01*
X0186442Y0349368D01*
X0186450Y0349150D01*
X0186453Y0348933D01*
X0186450Y0348716D01*
X0186442Y0348498D01*
X0186429Y0348281D01*
X0186410Y0348065D01*
X0186386Y0347849D01*
X0186357Y0347633D01*
X0186323Y0347419D01*
X0186283Y0347205D01*
X0186238Y0346992D01*
X0186188Y0346781D01*
X0186132Y0346570D01*
X0186072Y0346362D01*
X0186006Y0346154D01*
X0185935Y0345949D01*
X0185859Y0345745D01*
X0185779Y0345543D01*
X0185693Y0345343D01*
X0185603Y0345146D01*
X0185507Y0344950D01*
X0185407Y0344757D01*
X0185302Y0344567D01*
X0185193Y0344379D01*
X0185079Y0344194D01*
X0184960Y0344012D01*
X0184837Y0343832D01*
X0184710Y0343656D01*
X0184578Y0343483D01*
X0184442Y0343314D01*
X0184302Y0343147D01*
X0184158Y0342984D01*
X0184010Y0342825D01*
X0183859Y0342669D01*
X0183703Y0342518D01*
X0183544Y0342370D01*
X0183381Y0342226D01*
X0183214Y0342086D01*
X0183045Y0341950D01*
X0182872Y0341818D01*
X0182696Y0341691D01*
X0182516Y0341568D01*
X0182334Y0341449D01*
X0182149Y0341335D01*
X0181961Y0341226D01*
X0181771Y0341121D01*
X0181578Y0341021D01*
X0181382Y0340925D01*
X0181185Y0340835D01*
X0180985Y0340749D01*
X0180783Y0340669D01*
X0180579Y0340593D01*
X0180374Y0340522D01*
X0180166Y0340456D01*
X0179958Y0340396D01*
X0179747Y0340340D01*
X0179536Y0340290D01*
X0179323Y0340245D01*
X0179109Y0340205D01*
X0178895Y0340171D01*
X0178679Y0340142D01*
X0178463Y0340118D01*
X0178247Y0340099D01*
X0178030Y0340086D01*
X0177812Y0340078D01*
X0177595Y0340075D01*
X0177378Y0340078D01*
X0177160Y0340086D01*
X0176943Y0340099D01*
X0176727Y0340118D01*
X0176511Y0340142D01*
X0176295Y0340171D01*
X0176081Y0340205D01*
X0175867Y0340245D01*
X0175654Y0340290D01*
X0175443Y0340340D01*
X0175232Y0340396D01*
X0175024Y0340456D01*
X0174816Y0340522D01*
X0174611Y0340593D01*
X0174407Y0340669D01*
X0174205Y0340749D01*
X0174005Y0340835D01*
X0173808Y0340925D01*
X0173612Y0341021D01*
X0173419Y0341121D01*
X0173229Y0341226D01*
X0173041Y0341335D01*
X0172856Y0341449D01*
X0172674Y0341568D01*
X0172494Y0341691D01*
X0172318Y0341818D01*
X0172145Y0341950D01*
X0171976Y0342086D01*
X0171809Y0342226D01*
X0171646Y0342370D01*
X0171487Y0342518D01*
X0171331Y0342669D01*
X0171180Y0342825D01*
X0171032Y0342984D01*
X0170888Y0343147D01*
X0170748Y0343314D01*
X0170612Y0343483D01*
X0170480Y0343656D01*
X0170353Y0343832D01*
X0170230Y0344012D01*
X0170111Y0344194D01*
X0169997Y0344379D01*
X0169888Y0344567D01*
X0169783Y0344757D01*
X0169683Y0344950D01*
X0169587Y0345146D01*
X0169497Y0345343D01*
X0169411Y0345543D01*
X0169331Y0345745D01*
X0169255Y0345949D01*
X0169184Y0346154D01*
X0169118Y0346362D01*
X0169058Y0346570D01*
X0169002Y0346781D01*
X0168952Y0346992D01*
X0168907Y0347205D01*
X0168867Y0347419D01*
X0168833Y0347633D01*
X0168804Y0347849D01*
X0168780Y0348065D01*
X0168761Y0348281D01*
X0168748Y0348498D01*
X0168740Y0348716D01*
X0168737Y0348933D01*
X0429109Y0177291D02*
X0429111Y0177374D01*
X0429117Y0177457D01*
X0429127Y0177540D01*
X0429141Y0177622D01*
X0429158Y0177704D01*
X0429180Y0177784D01*
X0429205Y0177863D01*
X0429234Y0177941D01*
X0429267Y0178018D01*
X0429304Y0178093D01*
X0429343Y0178166D01*
X0429387Y0178237D01*
X0429433Y0178306D01*
X0429483Y0178373D01*
X0429536Y0178437D01*
X0429592Y0178499D01*
X0429651Y0178558D01*
X0429713Y0178614D01*
X0429777Y0178667D01*
X0429844Y0178717D01*
X0429913Y0178763D01*
X0429984Y0178807D01*
X0430057Y0178846D01*
X0430132Y0178883D01*
X0430209Y0178916D01*
X0430287Y0178945D01*
X0430366Y0178970D01*
X0430446Y0178992D01*
X0430528Y0179009D01*
X0430610Y0179023D01*
X0430693Y0179033D01*
X0430776Y0179039D01*
X0430859Y0179041D01*
X0430942Y0179039D01*
X0431025Y0179033D01*
X0431108Y0179023D01*
X0431190Y0179009D01*
X0431272Y0178992D01*
X0431352Y0178970D01*
X0431431Y0178945D01*
X0431509Y0178916D01*
X0431586Y0178883D01*
X0431661Y0178846D01*
X0431734Y0178807D01*
X0431805Y0178763D01*
X0431874Y0178717D01*
X0431941Y0178667D01*
X0432005Y0178614D01*
X0432067Y0178558D01*
X0432126Y0178499D01*
X0432182Y0178437D01*
X0432235Y0178373D01*
X0432285Y0178306D01*
X0432331Y0178237D01*
X0432375Y0178166D01*
X0432414Y0178093D01*
X0432451Y0178018D01*
X0432484Y0177941D01*
X0432513Y0177863D01*
X0432538Y0177784D01*
X0432560Y0177704D01*
X0432577Y0177622D01*
X0432591Y0177540D01*
X0432601Y0177457D01*
X0432607Y0177374D01*
X0432609Y0177291D01*
X0432607Y0177208D01*
X0432601Y0177125D01*
X0432591Y0177042D01*
X0432577Y0176960D01*
X0432560Y0176878D01*
X0432538Y0176798D01*
X0432513Y0176719D01*
X0432484Y0176641D01*
X0432451Y0176564D01*
X0432414Y0176489D01*
X0432375Y0176416D01*
X0432331Y0176345D01*
X0432285Y0176276D01*
X0432235Y0176209D01*
X0432182Y0176145D01*
X0432126Y0176083D01*
X0432067Y0176024D01*
X0432005Y0175968D01*
X0431941Y0175915D01*
X0431874Y0175865D01*
X0431805Y0175819D01*
X0431734Y0175775D01*
X0431661Y0175736D01*
X0431586Y0175699D01*
X0431509Y0175666D01*
X0431431Y0175637D01*
X0431352Y0175612D01*
X0431272Y0175590D01*
X0431190Y0175573D01*
X0431108Y0175559D01*
X0431025Y0175549D01*
X0430942Y0175543D01*
X0430859Y0175541D01*
X0430776Y0175543D01*
X0430693Y0175549D01*
X0430610Y0175559D01*
X0430528Y0175573D01*
X0430446Y0175590D01*
X0430366Y0175612D01*
X0430287Y0175637D01*
X0430209Y0175666D01*
X0430132Y0175699D01*
X0430057Y0175736D01*
X0429984Y0175775D01*
X0429913Y0175819D01*
X0429844Y0175865D01*
X0429777Y0175915D01*
X0429713Y0175968D01*
X0429651Y0176024D01*
X0429592Y0176083D01*
X0429536Y0176145D01*
X0429483Y0176209D01*
X0429433Y0176276D01*
X0429387Y0176345D01*
X0429343Y0176416D01*
X0429304Y0176489D01*
X0429267Y0176564D01*
X0429234Y0176641D01*
X0429205Y0176719D01*
X0429180Y0176798D01*
X0429158Y0176878D01*
X0429141Y0176960D01*
X0429127Y0177042D01*
X0429117Y0177125D01*
X0429111Y0177208D01*
X0429109Y0177291D01*
X0460605Y0177291D02*
X0460607Y0177374D01*
X0460613Y0177457D01*
X0460623Y0177540D01*
X0460637Y0177622D01*
X0460654Y0177704D01*
X0460676Y0177784D01*
X0460701Y0177863D01*
X0460730Y0177941D01*
X0460763Y0178018D01*
X0460800Y0178093D01*
X0460839Y0178166D01*
X0460883Y0178237D01*
X0460929Y0178306D01*
X0460979Y0178373D01*
X0461032Y0178437D01*
X0461088Y0178499D01*
X0461147Y0178558D01*
X0461209Y0178614D01*
X0461273Y0178667D01*
X0461340Y0178717D01*
X0461409Y0178763D01*
X0461480Y0178807D01*
X0461553Y0178846D01*
X0461628Y0178883D01*
X0461705Y0178916D01*
X0461783Y0178945D01*
X0461862Y0178970D01*
X0461942Y0178992D01*
X0462024Y0179009D01*
X0462106Y0179023D01*
X0462189Y0179033D01*
X0462272Y0179039D01*
X0462355Y0179041D01*
X0462438Y0179039D01*
X0462521Y0179033D01*
X0462604Y0179023D01*
X0462686Y0179009D01*
X0462768Y0178992D01*
X0462848Y0178970D01*
X0462927Y0178945D01*
X0463005Y0178916D01*
X0463082Y0178883D01*
X0463157Y0178846D01*
X0463230Y0178807D01*
X0463301Y0178763D01*
X0463370Y0178717D01*
X0463437Y0178667D01*
X0463501Y0178614D01*
X0463563Y0178558D01*
X0463622Y0178499D01*
X0463678Y0178437D01*
X0463731Y0178373D01*
X0463781Y0178306D01*
X0463827Y0178237D01*
X0463871Y0178166D01*
X0463910Y0178093D01*
X0463947Y0178018D01*
X0463980Y0177941D01*
X0464009Y0177863D01*
X0464034Y0177784D01*
X0464056Y0177704D01*
X0464073Y0177622D01*
X0464087Y0177540D01*
X0464097Y0177457D01*
X0464103Y0177374D01*
X0464105Y0177291D01*
X0464103Y0177208D01*
X0464097Y0177125D01*
X0464087Y0177042D01*
X0464073Y0176960D01*
X0464056Y0176878D01*
X0464034Y0176798D01*
X0464009Y0176719D01*
X0463980Y0176641D01*
X0463947Y0176564D01*
X0463910Y0176489D01*
X0463871Y0176416D01*
X0463827Y0176345D01*
X0463781Y0176276D01*
X0463731Y0176209D01*
X0463678Y0176145D01*
X0463622Y0176083D01*
X0463563Y0176024D01*
X0463501Y0175968D01*
X0463437Y0175915D01*
X0463370Y0175865D01*
X0463301Y0175819D01*
X0463230Y0175775D01*
X0463157Y0175736D01*
X0463082Y0175699D01*
X0463005Y0175666D01*
X0462927Y0175637D01*
X0462848Y0175612D01*
X0462768Y0175590D01*
X0462686Y0175573D01*
X0462604Y0175559D01*
X0462521Y0175549D01*
X0462438Y0175543D01*
X0462355Y0175541D01*
X0462272Y0175543D01*
X0462189Y0175549D01*
X0462106Y0175559D01*
X0462024Y0175573D01*
X0461942Y0175590D01*
X0461862Y0175612D01*
X0461783Y0175637D01*
X0461705Y0175666D01*
X0461628Y0175699D01*
X0461553Y0175736D01*
X0461480Y0175775D01*
X0461409Y0175819D01*
X0461340Y0175865D01*
X0461273Y0175915D01*
X0461209Y0175968D01*
X0461147Y0176024D01*
X0461088Y0176083D01*
X0461032Y0176145D01*
X0460979Y0176209D01*
X0460929Y0176276D01*
X0460883Y0176345D01*
X0460839Y0176416D01*
X0460800Y0176489D01*
X0460763Y0176564D01*
X0460730Y0176641D01*
X0460701Y0176719D01*
X0460676Y0176798D01*
X0460654Y0176878D01*
X0460637Y0176960D01*
X0460623Y0177042D01*
X0460613Y0177125D01*
X0460607Y0177208D01*
X0460605Y0177291D01*
X0486453Y0190114D02*
X0486455Y0190239D01*
X0486461Y0190364D01*
X0486471Y0190488D01*
X0486485Y0190612D01*
X0486502Y0190736D01*
X0486524Y0190859D01*
X0486550Y0190981D01*
X0486579Y0191103D01*
X0486612Y0191223D01*
X0486650Y0191342D01*
X0486690Y0191461D01*
X0486735Y0191577D01*
X0486783Y0191692D01*
X0486835Y0191806D01*
X0486891Y0191918D01*
X0486950Y0192028D01*
X0487012Y0192136D01*
X0487078Y0192243D01*
X0487147Y0192347D01*
X0487220Y0192448D01*
X0487295Y0192548D01*
X0487374Y0192645D01*
X0487456Y0192739D01*
X0487541Y0192831D01*
X0487628Y0192920D01*
X0487719Y0193006D01*
X0487812Y0193089D01*
X0487908Y0193170D01*
X0488006Y0193247D01*
X0488106Y0193321D01*
X0488209Y0193392D01*
X0488314Y0193459D01*
X0488422Y0193524D01*
X0488531Y0193584D01*
X0488642Y0193642D01*
X0488755Y0193695D01*
X0488869Y0193745D01*
X0488985Y0193792D01*
X0489102Y0193834D01*
X0489221Y0193873D01*
X0489341Y0193909D01*
X0489462Y0193940D01*
X0489584Y0193968D01*
X0489706Y0193991D01*
X0489830Y0194011D01*
X0489954Y0194027D01*
X0490078Y0194039D01*
X0490203Y0194047D01*
X0490328Y0194051D01*
X0490452Y0194051D01*
X0490577Y0194047D01*
X0490702Y0194039D01*
X0490826Y0194027D01*
X0490950Y0194011D01*
X0491074Y0193991D01*
X0491196Y0193968D01*
X0491318Y0193940D01*
X0491439Y0193909D01*
X0491559Y0193873D01*
X0491678Y0193834D01*
X0491795Y0193792D01*
X0491911Y0193745D01*
X0492025Y0193695D01*
X0492138Y0193642D01*
X0492249Y0193584D01*
X0492359Y0193524D01*
X0492466Y0193459D01*
X0492571Y0193392D01*
X0492674Y0193321D01*
X0492774Y0193247D01*
X0492872Y0193170D01*
X0492968Y0193089D01*
X0493061Y0193006D01*
X0493152Y0192920D01*
X0493239Y0192831D01*
X0493324Y0192739D01*
X0493406Y0192645D01*
X0493485Y0192548D01*
X0493560Y0192448D01*
X0493633Y0192347D01*
X0493702Y0192243D01*
X0493768Y0192136D01*
X0493830Y0192028D01*
X0493889Y0191918D01*
X0493945Y0191806D01*
X0493997Y0191692D01*
X0494045Y0191577D01*
X0494090Y0191461D01*
X0494130Y0191342D01*
X0494168Y0191223D01*
X0494201Y0191103D01*
X0494230Y0190981D01*
X0494256Y0190859D01*
X0494278Y0190736D01*
X0494295Y0190612D01*
X0494309Y0190488D01*
X0494319Y0190364D01*
X0494325Y0190239D01*
X0494327Y0190114D01*
X0494325Y0189989D01*
X0494319Y0189864D01*
X0494309Y0189740D01*
X0494295Y0189616D01*
X0494278Y0189492D01*
X0494256Y0189369D01*
X0494230Y0189247D01*
X0494201Y0189125D01*
X0494168Y0189005D01*
X0494130Y0188886D01*
X0494090Y0188767D01*
X0494045Y0188651D01*
X0493997Y0188536D01*
X0493945Y0188422D01*
X0493889Y0188310D01*
X0493830Y0188200D01*
X0493768Y0188092D01*
X0493702Y0187985D01*
X0493633Y0187881D01*
X0493560Y0187780D01*
X0493485Y0187680D01*
X0493406Y0187583D01*
X0493324Y0187489D01*
X0493239Y0187397D01*
X0493152Y0187308D01*
X0493061Y0187222D01*
X0492968Y0187139D01*
X0492872Y0187058D01*
X0492774Y0186981D01*
X0492674Y0186907D01*
X0492571Y0186836D01*
X0492466Y0186769D01*
X0492358Y0186704D01*
X0492249Y0186644D01*
X0492138Y0186586D01*
X0492025Y0186533D01*
X0491911Y0186483D01*
X0491795Y0186436D01*
X0491678Y0186394D01*
X0491559Y0186355D01*
X0491439Y0186319D01*
X0491318Y0186288D01*
X0491196Y0186260D01*
X0491074Y0186237D01*
X0490950Y0186217D01*
X0490826Y0186201D01*
X0490702Y0186189D01*
X0490577Y0186181D01*
X0490452Y0186177D01*
X0490328Y0186177D01*
X0490203Y0186181D01*
X0490078Y0186189D01*
X0489954Y0186201D01*
X0489830Y0186217D01*
X0489706Y0186237D01*
X0489584Y0186260D01*
X0489462Y0186288D01*
X0489341Y0186319D01*
X0489221Y0186355D01*
X0489102Y0186394D01*
X0488985Y0186436D01*
X0488869Y0186483D01*
X0488755Y0186533D01*
X0488642Y0186586D01*
X0488531Y0186644D01*
X0488421Y0186704D01*
X0488314Y0186769D01*
X0488209Y0186836D01*
X0488106Y0186907D01*
X0488006Y0186981D01*
X0487908Y0187058D01*
X0487812Y0187139D01*
X0487719Y0187222D01*
X0487628Y0187308D01*
X0487541Y0187397D01*
X0487456Y0187489D01*
X0487374Y0187583D01*
X0487295Y0187680D01*
X0487220Y0187780D01*
X0487147Y0187881D01*
X0487078Y0187985D01*
X0487012Y0188092D01*
X0486950Y0188200D01*
X0486891Y0188310D01*
X0486835Y0188422D01*
X0486783Y0188536D01*
X0486735Y0188651D01*
X0486690Y0188767D01*
X0486650Y0188886D01*
X0486612Y0189005D01*
X0486579Y0189125D01*
X0486550Y0189247D01*
X0486524Y0189369D01*
X0486502Y0189492D01*
X0486485Y0189616D01*
X0486471Y0189740D01*
X0486461Y0189864D01*
X0486455Y0189989D01*
X0486453Y0190114D01*
X0518737Y0178933D02*
X0518740Y0179150D01*
X0518748Y0179368D01*
X0518761Y0179585D01*
X0518780Y0179801D01*
X0518804Y0180017D01*
X0518833Y0180233D01*
X0518867Y0180447D01*
X0518907Y0180661D01*
X0518952Y0180874D01*
X0519002Y0181085D01*
X0519058Y0181296D01*
X0519118Y0181504D01*
X0519184Y0181712D01*
X0519255Y0181917D01*
X0519331Y0182121D01*
X0519411Y0182323D01*
X0519497Y0182523D01*
X0519587Y0182720D01*
X0519683Y0182916D01*
X0519783Y0183109D01*
X0519888Y0183299D01*
X0519997Y0183487D01*
X0520111Y0183672D01*
X0520230Y0183854D01*
X0520353Y0184034D01*
X0520480Y0184210D01*
X0520612Y0184383D01*
X0520748Y0184552D01*
X0520888Y0184719D01*
X0521032Y0184882D01*
X0521180Y0185041D01*
X0521331Y0185197D01*
X0521487Y0185348D01*
X0521646Y0185496D01*
X0521809Y0185640D01*
X0521976Y0185780D01*
X0522145Y0185916D01*
X0522318Y0186048D01*
X0522494Y0186175D01*
X0522674Y0186298D01*
X0522856Y0186417D01*
X0523041Y0186531D01*
X0523229Y0186640D01*
X0523419Y0186745D01*
X0523612Y0186845D01*
X0523808Y0186941D01*
X0524005Y0187031D01*
X0524205Y0187117D01*
X0524407Y0187197D01*
X0524611Y0187273D01*
X0524816Y0187344D01*
X0525024Y0187410D01*
X0525232Y0187470D01*
X0525443Y0187526D01*
X0525654Y0187576D01*
X0525867Y0187621D01*
X0526081Y0187661D01*
X0526295Y0187695D01*
X0526511Y0187724D01*
X0526727Y0187748D01*
X0526943Y0187767D01*
X0527160Y0187780D01*
X0527378Y0187788D01*
X0527595Y0187791D01*
X0527812Y0187788D01*
X0528030Y0187780D01*
X0528247Y0187767D01*
X0528463Y0187748D01*
X0528679Y0187724D01*
X0528895Y0187695D01*
X0529109Y0187661D01*
X0529323Y0187621D01*
X0529536Y0187576D01*
X0529747Y0187526D01*
X0529958Y0187470D01*
X0530166Y0187410D01*
X0530374Y0187344D01*
X0530579Y0187273D01*
X0530783Y0187197D01*
X0530985Y0187117D01*
X0531185Y0187031D01*
X0531382Y0186941D01*
X0531578Y0186845D01*
X0531771Y0186745D01*
X0531961Y0186640D01*
X0532149Y0186531D01*
X0532334Y0186417D01*
X0532516Y0186298D01*
X0532696Y0186175D01*
X0532872Y0186048D01*
X0533045Y0185916D01*
X0533214Y0185780D01*
X0533381Y0185640D01*
X0533544Y0185496D01*
X0533703Y0185348D01*
X0533859Y0185197D01*
X0534010Y0185041D01*
X0534158Y0184882D01*
X0534302Y0184719D01*
X0534442Y0184552D01*
X0534578Y0184383D01*
X0534710Y0184210D01*
X0534837Y0184034D01*
X0534960Y0183854D01*
X0535079Y0183672D01*
X0535193Y0183487D01*
X0535302Y0183299D01*
X0535407Y0183109D01*
X0535507Y0182916D01*
X0535603Y0182720D01*
X0535693Y0182523D01*
X0535779Y0182323D01*
X0535859Y0182121D01*
X0535935Y0181917D01*
X0536006Y0181712D01*
X0536072Y0181504D01*
X0536132Y0181296D01*
X0536188Y0181085D01*
X0536238Y0180874D01*
X0536283Y0180661D01*
X0536323Y0180447D01*
X0536357Y0180233D01*
X0536386Y0180017D01*
X0536410Y0179801D01*
X0536429Y0179585D01*
X0536442Y0179368D01*
X0536450Y0179150D01*
X0536453Y0178933D01*
X0536450Y0178716D01*
X0536442Y0178498D01*
X0536429Y0178281D01*
X0536410Y0178065D01*
X0536386Y0177849D01*
X0536357Y0177633D01*
X0536323Y0177419D01*
X0536283Y0177205D01*
X0536238Y0176992D01*
X0536188Y0176781D01*
X0536132Y0176570D01*
X0536072Y0176362D01*
X0536006Y0176154D01*
X0535935Y0175949D01*
X0535859Y0175745D01*
X0535779Y0175543D01*
X0535693Y0175343D01*
X0535603Y0175146D01*
X0535507Y0174950D01*
X0535407Y0174757D01*
X0535302Y0174567D01*
X0535193Y0174379D01*
X0535079Y0174194D01*
X0534960Y0174012D01*
X0534837Y0173832D01*
X0534710Y0173656D01*
X0534578Y0173483D01*
X0534442Y0173314D01*
X0534302Y0173147D01*
X0534158Y0172984D01*
X0534010Y0172825D01*
X0533859Y0172669D01*
X0533703Y0172518D01*
X0533544Y0172370D01*
X0533381Y0172226D01*
X0533214Y0172086D01*
X0533045Y0171950D01*
X0532872Y0171818D01*
X0532696Y0171691D01*
X0532516Y0171568D01*
X0532334Y0171449D01*
X0532149Y0171335D01*
X0531961Y0171226D01*
X0531771Y0171121D01*
X0531578Y0171021D01*
X0531382Y0170925D01*
X0531185Y0170835D01*
X0530985Y0170749D01*
X0530783Y0170669D01*
X0530579Y0170593D01*
X0530374Y0170522D01*
X0530166Y0170456D01*
X0529958Y0170396D01*
X0529747Y0170340D01*
X0529536Y0170290D01*
X0529323Y0170245D01*
X0529109Y0170205D01*
X0528895Y0170171D01*
X0528679Y0170142D01*
X0528463Y0170118D01*
X0528247Y0170099D01*
X0528030Y0170086D01*
X0527812Y0170078D01*
X0527595Y0170075D01*
X0527378Y0170078D01*
X0527160Y0170086D01*
X0526943Y0170099D01*
X0526727Y0170118D01*
X0526511Y0170142D01*
X0526295Y0170171D01*
X0526081Y0170205D01*
X0525867Y0170245D01*
X0525654Y0170290D01*
X0525443Y0170340D01*
X0525232Y0170396D01*
X0525024Y0170456D01*
X0524816Y0170522D01*
X0524611Y0170593D01*
X0524407Y0170669D01*
X0524205Y0170749D01*
X0524005Y0170835D01*
X0523808Y0170925D01*
X0523612Y0171021D01*
X0523419Y0171121D01*
X0523229Y0171226D01*
X0523041Y0171335D01*
X0522856Y0171449D01*
X0522674Y0171568D01*
X0522494Y0171691D01*
X0522318Y0171818D01*
X0522145Y0171950D01*
X0521976Y0172086D01*
X0521809Y0172226D01*
X0521646Y0172370D01*
X0521487Y0172518D01*
X0521331Y0172669D01*
X0521180Y0172825D01*
X0521032Y0172984D01*
X0520888Y0173147D01*
X0520748Y0173314D01*
X0520612Y0173483D01*
X0520480Y0173656D01*
X0520353Y0173832D01*
X0520230Y0174012D01*
X0520111Y0174194D01*
X0519997Y0174379D01*
X0519888Y0174567D01*
X0519783Y0174757D01*
X0519683Y0174950D01*
X0519587Y0175146D01*
X0519497Y0175343D01*
X0519411Y0175543D01*
X0519331Y0175745D01*
X0519255Y0175949D01*
X0519184Y0176154D01*
X0519118Y0176362D01*
X0519058Y0176570D01*
X0519002Y0176781D01*
X0518952Y0176992D01*
X0518907Y0177205D01*
X0518867Y0177419D01*
X0518833Y0177633D01*
X0518804Y0177849D01*
X0518780Y0178065D01*
X0518761Y0178281D01*
X0518748Y0178498D01*
X0518740Y0178716D01*
X0518737Y0178933D01*
X0486453Y0337752D02*
X0486455Y0337877D01*
X0486461Y0338002D01*
X0486471Y0338126D01*
X0486485Y0338250D01*
X0486502Y0338374D01*
X0486524Y0338497D01*
X0486550Y0338619D01*
X0486579Y0338741D01*
X0486612Y0338861D01*
X0486650Y0338980D01*
X0486690Y0339099D01*
X0486735Y0339215D01*
X0486783Y0339330D01*
X0486835Y0339444D01*
X0486891Y0339556D01*
X0486950Y0339666D01*
X0487012Y0339774D01*
X0487078Y0339881D01*
X0487147Y0339985D01*
X0487220Y0340086D01*
X0487295Y0340186D01*
X0487374Y0340283D01*
X0487456Y0340377D01*
X0487541Y0340469D01*
X0487628Y0340558D01*
X0487719Y0340644D01*
X0487812Y0340727D01*
X0487908Y0340808D01*
X0488006Y0340885D01*
X0488106Y0340959D01*
X0488209Y0341030D01*
X0488314Y0341097D01*
X0488422Y0341162D01*
X0488531Y0341222D01*
X0488642Y0341280D01*
X0488755Y0341333D01*
X0488869Y0341383D01*
X0488985Y0341430D01*
X0489102Y0341472D01*
X0489221Y0341511D01*
X0489341Y0341547D01*
X0489462Y0341578D01*
X0489584Y0341606D01*
X0489706Y0341629D01*
X0489830Y0341649D01*
X0489954Y0341665D01*
X0490078Y0341677D01*
X0490203Y0341685D01*
X0490328Y0341689D01*
X0490452Y0341689D01*
X0490577Y0341685D01*
X0490702Y0341677D01*
X0490826Y0341665D01*
X0490950Y0341649D01*
X0491074Y0341629D01*
X0491196Y0341606D01*
X0491318Y0341578D01*
X0491439Y0341547D01*
X0491559Y0341511D01*
X0491678Y0341472D01*
X0491795Y0341430D01*
X0491911Y0341383D01*
X0492025Y0341333D01*
X0492138Y0341280D01*
X0492249Y0341222D01*
X0492359Y0341162D01*
X0492466Y0341097D01*
X0492571Y0341030D01*
X0492674Y0340959D01*
X0492774Y0340885D01*
X0492872Y0340808D01*
X0492968Y0340727D01*
X0493061Y0340644D01*
X0493152Y0340558D01*
X0493239Y0340469D01*
X0493324Y0340377D01*
X0493406Y0340283D01*
X0493485Y0340186D01*
X0493560Y0340086D01*
X0493633Y0339985D01*
X0493702Y0339881D01*
X0493768Y0339774D01*
X0493830Y0339666D01*
X0493889Y0339556D01*
X0493945Y0339444D01*
X0493997Y0339330D01*
X0494045Y0339215D01*
X0494090Y0339099D01*
X0494130Y0338980D01*
X0494168Y0338861D01*
X0494201Y0338741D01*
X0494230Y0338619D01*
X0494256Y0338497D01*
X0494278Y0338374D01*
X0494295Y0338250D01*
X0494309Y0338126D01*
X0494319Y0338002D01*
X0494325Y0337877D01*
X0494327Y0337752D01*
X0494325Y0337627D01*
X0494319Y0337502D01*
X0494309Y0337378D01*
X0494295Y0337254D01*
X0494278Y0337130D01*
X0494256Y0337007D01*
X0494230Y0336885D01*
X0494201Y0336763D01*
X0494168Y0336643D01*
X0494130Y0336524D01*
X0494090Y0336405D01*
X0494045Y0336289D01*
X0493997Y0336174D01*
X0493945Y0336060D01*
X0493889Y0335948D01*
X0493830Y0335838D01*
X0493768Y0335730D01*
X0493702Y0335623D01*
X0493633Y0335519D01*
X0493560Y0335418D01*
X0493485Y0335318D01*
X0493406Y0335221D01*
X0493324Y0335127D01*
X0493239Y0335035D01*
X0493152Y0334946D01*
X0493061Y0334860D01*
X0492968Y0334777D01*
X0492872Y0334696D01*
X0492774Y0334619D01*
X0492674Y0334545D01*
X0492571Y0334474D01*
X0492466Y0334407D01*
X0492358Y0334342D01*
X0492249Y0334282D01*
X0492138Y0334224D01*
X0492025Y0334171D01*
X0491911Y0334121D01*
X0491795Y0334074D01*
X0491678Y0334032D01*
X0491559Y0333993D01*
X0491439Y0333957D01*
X0491318Y0333926D01*
X0491196Y0333898D01*
X0491074Y0333875D01*
X0490950Y0333855D01*
X0490826Y0333839D01*
X0490702Y0333827D01*
X0490577Y0333819D01*
X0490452Y0333815D01*
X0490328Y0333815D01*
X0490203Y0333819D01*
X0490078Y0333827D01*
X0489954Y0333839D01*
X0489830Y0333855D01*
X0489706Y0333875D01*
X0489584Y0333898D01*
X0489462Y0333926D01*
X0489341Y0333957D01*
X0489221Y0333993D01*
X0489102Y0334032D01*
X0488985Y0334074D01*
X0488869Y0334121D01*
X0488755Y0334171D01*
X0488642Y0334224D01*
X0488531Y0334282D01*
X0488421Y0334342D01*
X0488314Y0334407D01*
X0488209Y0334474D01*
X0488106Y0334545D01*
X0488006Y0334619D01*
X0487908Y0334696D01*
X0487812Y0334777D01*
X0487719Y0334860D01*
X0487628Y0334946D01*
X0487541Y0335035D01*
X0487456Y0335127D01*
X0487374Y0335221D01*
X0487295Y0335318D01*
X0487220Y0335418D01*
X0487147Y0335519D01*
X0487078Y0335623D01*
X0487012Y0335730D01*
X0486950Y0335838D01*
X0486891Y0335948D01*
X0486835Y0336060D01*
X0486783Y0336174D01*
X0486735Y0336289D01*
X0486690Y0336405D01*
X0486650Y0336524D01*
X0486612Y0336643D01*
X0486579Y0336763D01*
X0486550Y0336885D01*
X0486524Y0337007D01*
X0486502Y0337130D01*
X0486485Y0337254D01*
X0486471Y0337378D01*
X0486461Y0337502D01*
X0486455Y0337627D01*
X0486453Y0337752D01*
X0518737Y0348933D02*
X0518740Y0349150D01*
X0518748Y0349368D01*
X0518761Y0349585D01*
X0518780Y0349801D01*
X0518804Y0350017D01*
X0518833Y0350233D01*
X0518867Y0350447D01*
X0518907Y0350661D01*
X0518952Y0350874D01*
X0519002Y0351085D01*
X0519058Y0351296D01*
X0519118Y0351504D01*
X0519184Y0351712D01*
X0519255Y0351917D01*
X0519331Y0352121D01*
X0519411Y0352323D01*
X0519497Y0352523D01*
X0519587Y0352720D01*
X0519683Y0352916D01*
X0519783Y0353109D01*
X0519888Y0353299D01*
X0519997Y0353487D01*
X0520111Y0353672D01*
X0520230Y0353854D01*
X0520353Y0354034D01*
X0520480Y0354210D01*
X0520612Y0354383D01*
X0520748Y0354552D01*
X0520888Y0354719D01*
X0521032Y0354882D01*
X0521180Y0355041D01*
X0521331Y0355197D01*
X0521487Y0355348D01*
X0521646Y0355496D01*
X0521809Y0355640D01*
X0521976Y0355780D01*
X0522145Y0355916D01*
X0522318Y0356048D01*
X0522494Y0356175D01*
X0522674Y0356298D01*
X0522856Y0356417D01*
X0523041Y0356531D01*
X0523229Y0356640D01*
X0523419Y0356745D01*
X0523612Y0356845D01*
X0523808Y0356941D01*
X0524005Y0357031D01*
X0524205Y0357117D01*
X0524407Y0357197D01*
X0524611Y0357273D01*
X0524816Y0357344D01*
X0525024Y0357410D01*
X0525232Y0357470D01*
X0525443Y0357526D01*
X0525654Y0357576D01*
X0525867Y0357621D01*
X0526081Y0357661D01*
X0526295Y0357695D01*
X0526511Y0357724D01*
X0526727Y0357748D01*
X0526943Y0357767D01*
X0527160Y0357780D01*
X0527378Y0357788D01*
X0527595Y0357791D01*
X0527812Y0357788D01*
X0528030Y0357780D01*
X0528247Y0357767D01*
X0528463Y0357748D01*
X0528679Y0357724D01*
X0528895Y0357695D01*
X0529109Y0357661D01*
X0529323Y0357621D01*
X0529536Y0357576D01*
X0529747Y0357526D01*
X0529958Y0357470D01*
X0530166Y0357410D01*
X0530374Y0357344D01*
X0530579Y0357273D01*
X0530783Y0357197D01*
X0530985Y0357117D01*
X0531185Y0357031D01*
X0531382Y0356941D01*
X0531578Y0356845D01*
X0531771Y0356745D01*
X0531961Y0356640D01*
X0532149Y0356531D01*
X0532334Y0356417D01*
X0532516Y0356298D01*
X0532696Y0356175D01*
X0532872Y0356048D01*
X0533045Y0355916D01*
X0533214Y0355780D01*
X0533381Y0355640D01*
X0533544Y0355496D01*
X0533703Y0355348D01*
X0533859Y0355197D01*
X0534010Y0355041D01*
X0534158Y0354882D01*
X0534302Y0354719D01*
X0534442Y0354552D01*
X0534578Y0354383D01*
X0534710Y0354210D01*
X0534837Y0354034D01*
X0534960Y0353854D01*
X0535079Y0353672D01*
X0535193Y0353487D01*
X0535302Y0353299D01*
X0535407Y0353109D01*
X0535507Y0352916D01*
X0535603Y0352720D01*
X0535693Y0352523D01*
X0535779Y0352323D01*
X0535859Y0352121D01*
X0535935Y0351917D01*
X0536006Y0351712D01*
X0536072Y0351504D01*
X0536132Y0351296D01*
X0536188Y0351085D01*
X0536238Y0350874D01*
X0536283Y0350661D01*
X0536323Y0350447D01*
X0536357Y0350233D01*
X0536386Y0350017D01*
X0536410Y0349801D01*
X0536429Y0349585D01*
X0536442Y0349368D01*
X0536450Y0349150D01*
X0536453Y0348933D01*
X0536450Y0348716D01*
X0536442Y0348498D01*
X0536429Y0348281D01*
X0536410Y0348065D01*
X0536386Y0347849D01*
X0536357Y0347633D01*
X0536323Y0347419D01*
X0536283Y0347205D01*
X0536238Y0346992D01*
X0536188Y0346781D01*
X0536132Y0346570D01*
X0536072Y0346362D01*
X0536006Y0346154D01*
X0535935Y0345949D01*
X0535859Y0345745D01*
X0535779Y0345543D01*
X0535693Y0345343D01*
X0535603Y0345146D01*
X0535507Y0344950D01*
X0535407Y0344757D01*
X0535302Y0344567D01*
X0535193Y0344379D01*
X0535079Y0344194D01*
X0534960Y0344012D01*
X0534837Y0343832D01*
X0534710Y0343656D01*
X0534578Y0343483D01*
X0534442Y0343314D01*
X0534302Y0343147D01*
X0534158Y0342984D01*
X0534010Y0342825D01*
X0533859Y0342669D01*
X0533703Y0342518D01*
X0533544Y0342370D01*
X0533381Y0342226D01*
X0533214Y0342086D01*
X0533045Y0341950D01*
X0532872Y0341818D01*
X0532696Y0341691D01*
X0532516Y0341568D01*
X0532334Y0341449D01*
X0532149Y0341335D01*
X0531961Y0341226D01*
X0531771Y0341121D01*
X0531578Y0341021D01*
X0531382Y0340925D01*
X0531185Y0340835D01*
X0530985Y0340749D01*
X0530783Y0340669D01*
X0530579Y0340593D01*
X0530374Y0340522D01*
X0530166Y0340456D01*
X0529958Y0340396D01*
X0529747Y0340340D01*
X0529536Y0340290D01*
X0529323Y0340245D01*
X0529109Y0340205D01*
X0528895Y0340171D01*
X0528679Y0340142D01*
X0528463Y0340118D01*
X0528247Y0340099D01*
X0528030Y0340086D01*
X0527812Y0340078D01*
X0527595Y0340075D01*
X0527378Y0340078D01*
X0527160Y0340086D01*
X0526943Y0340099D01*
X0526727Y0340118D01*
X0526511Y0340142D01*
X0526295Y0340171D01*
X0526081Y0340205D01*
X0525867Y0340245D01*
X0525654Y0340290D01*
X0525443Y0340340D01*
X0525232Y0340396D01*
X0525024Y0340456D01*
X0524816Y0340522D01*
X0524611Y0340593D01*
X0524407Y0340669D01*
X0524205Y0340749D01*
X0524005Y0340835D01*
X0523808Y0340925D01*
X0523612Y0341021D01*
X0523419Y0341121D01*
X0523229Y0341226D01*
X0523041Y0341335D01*
X0522856Y0341449D01*
X0522674Y0341568D01*
X0522494Y0341691D01*
X0522318Y0341818D01*
X0522145Y0341950D01*
X0521976Y0342086D01*
X0521809Y0342226D01*
X0521646Y0342370D01*
X0521487Y0342518D01*
X0521331Y0342669D01*
X0521180Y0342825D01*
X0521032Y0342984D01*
X0520888Y0343147D01*
X0520748Y0343314D01*
X0520612Y0343483D01*
X0520480Y0343656D01*
X0520353Y0343832D01*
X0520230Y0344012D01*
X0520111Y0344194D01*
X0519997Y0344379D01*
X0519888Y0344567D01*
X0519783Y0344757D01*
X0519683Y0344950D01*
X0519587Y0345146D01*
X0519497Y0345343D01*
X0519411Y0345543D01*
X0519331Y0345745D01*
X0519255Y0345949D01*
X0519184Y0346154D01*
X0519118Y0346362D01*
X0519058Y0346570D01*
X0519002Y0346781D01*
X0518952Y0346992D01*
X0518907Y0347205D01*
X0518867Y0347419D01*
X0518833Y0347633D01*
X0518804Y0347849D01*
X0518780Y0348065D01*
X0518761Y0348281D01*
X0518748Y0348498D01*
X0518740Y0348716D01*
X0518737Y0348933D01*
D12*
X0517516Y0303933D03*
X0517516Y0293933D03*
X0517516Y0283933D03*
X0497674Y0283933D03*
X0497674Y0293933D03*
X0497674Y0303933D03*
X0207516Y0303933D03*
X0207516Y0293933D03*
X0207516Y0283933D03*
X0187674Y0283933D03*
X0187674Y0293933D03*
X0187674Y0303933D03*
D13*
X0228304Y0321413D02*
X0243264Y0321413D01*
X0243264Y0329287D01*
X0228304Y0329287D01*
X0228304Y0321413D01*
X0251926Y0321413D02*
X0266886Y0321413D01*
X0266886Y0329287D01*
X0251926Y0329287D01*
X0251926Y0321413D01*
X0250745Y0341098D02*
X0253107Y0341098D01*
X0253107Y0352909D01*
X0250745Y0352909D01*
X0250745Y0341098D01*
X0244446Y0341098D02*
X0244446Y0352909D01*
X0242083Y0352909D01*
X0242083Y0341098D01*
X0244446Y0341098D01*
X0243264Y0364720D02*
X0228304Y0364720D01*
X0228304Y0372594D01*
X0243264Y0372594D01*
X0243264Y0364720D01*
X0251926Y0364720D02*
X0266886Y0364720D01*
X0266886Y0372594D01*
X0251926Y0372594D01*
X0251926Y0364720D01*
X0298304Y0364720D02*
X0313264Y0364720D01*
X0313264Y0372594D01*
X0298304Y0372594D01*
X0298304Y0364720D01*
X0312083Y0352909D02*
X0312083Y0341098D01*
X0314446Y0341098D01*
X0314446Y0352909D01*
X0312083Y0352909D01*
X0320745Y0352909D02*
X0320745Y0341098D01*
X0323107Y0341098D01*
X0323107Y0352909D01*
X0320745Y0352909D01*
X0321926Y0364720D02*
X0336886Y0364720D01*
X0336886Y0372594D01*
X0321926Y0372594D01*
X0321926Y0364720D01*
X0368304Y0364720D02*
X0383264Y0364720D01*
X0383264Y0372594D01*
X0368304Y0372594D01*
X0368304Y0364720D01*
X0382083Y0352909D02*
X0382083Y0341098D01*
X0384446Y0341098D01*
X0384446Y0352909D01*
X0382083Y0352909D01*
X0390745Y0352909D02*
X0390745Y0341098D01*
X0393107Y0341098D01*
X0393107Y0352909D01*
X0390745Y0352909D01*
X0391926Y0364720D02*
X0406886Y0364720D01*
X0406886Y0372594D01*
X0391926Y0372594D01*
X0391926Y0364720D01*
X0391926Y0329287D02*
X0391926Y0321413D01*
X0406886Y0321413D01*
X0406886Y0329287D01*
X0391926Y0329287D01*
X0383264Y0329287D02*
X0368304Y0329287D01*
X0368304Y0321413D01*
X0383264Y0321413D01*
X0383264Y0329287D01*
X0336886Y0329287D02*
X0336886Y0321413D01*
X0321926Y0321413D01*
X0321926Y0329287D01*
X0336886Y0329287D01*
X0313264Y0329287D02*
X0313264Y0321413D01*
X0298304Y0321413D01*
X0298304Y0329287D01*
X0313264Y0329287D01*
X0438304Y0329287D02*
X0438304Y0321413D01*
X0453264Y0321413D01*
X0453264Y0329287D01*
X0438304Y0329287D01*
X0452083Y0341098D02*
X0454446Y0341098D01*
X0454446Y0352909D01*
X0452083Y0352909D01*
X0452083Y0341098D01*
X0460745Y0341098D02*
X0460745Y0352909D01*
X0463107Y0352909D01*
X0463107Y0341098D01*
X0460745Y0341098D01*
X0461926Y0329287D02*
X0461926Y0321413D01*
X0476886Y0321413D01*
X0476886Y0329287D01*
X0461926Y0329287D01*
X0461926Y0364720D02*
X0476886Y0364720D01*
X0476886Y0372594D01*
X0461926Y0372594D01*
X0461926Y0364720D01*
X0453264Y0364720D02*
X0453264Y0372594D01*
X0438304Y0372594D01*
X0438304Y0364720D01*
X0453264Y0364720D01*
D14*
X0453264Y0347004D03*
X0461926Y0347004D03*
X0391926Y0347004D03*
X0383264Y0347004D03*
X0321926Y0347004D03*
X0313264Y0347004D03*
X0251926Y0347004D03*
X0243264Y0347004D03*
D15*
X0177757Y0246834D02*
X0177757Y0244718D01*
X0177757Y0246834D02*
X0178693Y0246834D01*
X0178693Y0244718D01*
X0177757Y0244718D01*
X0177757Y0227149D02*
X0177757Y0225033D01*
X0177757Y0227149D02*
X0178693Y0227149D01*
X0178693Y0225033D01*
X0177757Y0225033D01*
D16*
X0166315Y0222154D02*
X0166315Y0222154D01*
X0168875Y0222154D01*
X0168875Y0222154D01*
X0166315Y0222154D01*
X0166315Y0249713D02*
X0166315Y0249713D01*
X0168875Y0249713D01*
X0168875Y0249713D01*
X0166315Y0249713D01*
D17*
X0196567Y0206933D03*
X0219763Y0176765D03*
X0298845Y0255183D03*
X0370720Y0222683D03*
X0404470Y0220808D03*
X0411658Y0220808D03*
X0455268Y0233308D03*
X0497595Y0242683D03*
X0508835Y0220433D03*
X0493845Y0203087D03*
X0501345Y0180183D03*
X0387595Y0180573D03*
X0465095Y0278933D03*
X0352595Y0356433D03*
D18*
X0480390Y0221413D03*
X0480390Y0209209D03*
X0480390Y0197004D03*
D19*
X0456375Y0203106D03*
X0456375Y0215311D03*
D20*
X0484970Y0203087D03*
X0488970Y0203087D03*
X0471867Y0265587D03*
X0468323Y0265587D03*
D21*
X0485470Y0203087D02*
X0488470Y0203087D01*
X0362595Y0269933D02*
X0362595Y0272933D01*
D22*
G36*
X0271737Y0248933D02*
X0257595Y0234791D01*
X0243453Y0248933D01*
X0257595Y0263075D01*
X0271737Y0248933D01*
G37*
D23*
X0362595Y0269433D03*
X0362595Y0273433D03*
D24*
X0355095Y0271433D03*
X0355095Y0260183D03*
X0370345Y0262308D03*
X0376970Y0273933D03*
X0380095Y0278933D03*
X0390720Y0273933D03*
X0397220Y0286058D03*
X0404795Y0287058D03*
X0407595Y0283933D03*
X0399249Y0302683D03*
X0387595Y0306433D03*
X0372595Y0288933D03*
X0362595Y0293933D03*
X0362595Y0303933D03*
X0362595Y0311030D03*
X0351970Y0316433D03*
X0348845Y0311030D03*
X0345095Y0316433D03*
X0352595Y0328933D03*
X0317595Y0306433D03*
X0305942Y0302683D03*
X0292595Y0303933D03*
X0292595Y0311030D03*
X0292595Y0316433D03*
X0282595Y0323933D03*
X0282595Y0333933D03*
X0282595Y0343933D03*
X0282595Y0353933D03*
X0272595Y0316433D03*
X0272595Y0303933D03*
X0282595Y0303933D03*
X0259249Y0302683D03*
X0247595Y0306433D03*
X0235942Y0302683D03*
X0222595Y0303933D03*
X0222595Y0311030D03*
X0207595Y0322558D03*
X0200095Y0330058D03*
X0192595Y0335058D03*
X0200095Y0342558D03*
X0192595Y0350058D03*
X0200095Y0357558D03*
X0207595Y0350058D03*
X0207595Y0335058D03*
X0195095Y0321433D03*
X0178595Y0320933D03*
X0187674Y0298933D03*
X0205095Y0288933D03*
X0207516Y0278933D03*
X0215095Y0277558D03*
X0215095Y0270058D03*
X0222595Y0268150D03*
X0222595Y0272604D03*
X0226970Y0273933D03*
X0231970Y0274012D03*
X0235095Y0277683D03*
X0239629Y0275808D03*
X0244083Y0275808D03*
X0240720Y0282058D03*
X0245720Y0287058D03*
X0250095Y0287058D03*
X0257595Y0277683D03*
X0268528Y0277683D03*
X0272982Y0277683D03*
X0277437Y0277683D03*
X0281891Y0277683D03*
X0281970Y0273308D03*
X0282129Y0268933D03*
X0282129Y0264558D03*
X0286583Y0264558D03*
X0292595Y0256433D03*
X0305970Y0267933D03*
X0300970Y0275433D03*
X0295970Y0282933D03*
X0290970Y0275433D03*
X0285970Y0282933D03*
X0305970Y0282933D03*
X0315970Y0282933D03*
X0325095Y0278933D03*
X0328220Y0273933D03*
X0315970Y0267933D03*
X0311345Y0260587D03*
X0315095Y0251433D03*
X0313845Y0247058D03*
X0321970Y0246433D03*
X0324470Y0249558D03*
X0358501Y0227058D03*
X0362438Y0225183D03*
X0366375Y0227058D03*
X0377595Y0227058D03*
X0377595Y0221433D03*
X0374249Y0213933D03*
X0392595Y0202683D03*
X0397595Y0198808D03*
X0407220Y0192808D03*
X0412220Y0195808D03*
X0425720Y0205058D03*
X0433615Y0198808D03*
X0438220Y0205058D03*
X0446345Y0205058D03*
X0447595Y0195808D03*
X0442276Y0192808D03*
X0440095Y0183808D03*
X0440095Y0177558D03*
X0452595Y0177558D03*
X0452595Y0183808D03*
X0456345Y0193183D03*
X0465095Y0188933D03*
X0465095Y0183808D03*
X0470095Y0177683D03*
X0486345Y0168933D03*
X0477595Y0188808D03*
X0475095Y0203808D03*
X0496345Y0211748D03*
X0500095Y0221308D03*
X0515095Y0221308D03*
X0523249Y0228933D03*
X0508835Y0238308D03*
X0516595Y0249558D03*
X0525095Y0258933D03*
X0536970Y0250058D03*
X0536970Y0238808D03*
X0536970Y0227558D03*
X0526595Y0206933D03*
X0526345Y0192558D03*
X0513845Y0192683D03*
X0513845Y0182558D03*
X0497595Y0196433D03*
X0474470Y0225058D03*
X0474470Y0232558D03*
X0475095Y0244602D03*
X0480095Y0260058D03*
X0486345Y0260058D03*
X0475720Y0265587D03*
X0465095Y0262058D03*
X0460095Y0260058D03*
X0450095Y0260058D03*
X0440095Y0260058D03*
X0434158Y0255587D03*
X0431345Y0252058D03*
X0420095Y0260058D03*
X0415942Y0255587D03*
X0399720Y0259808D03*
X0394470Y0259558D03*
X0389720Y0259808D03*
X0386345Y0255587D03*
X0397595Y0252371D03*
X0400095Y0246433D03*
X0391345Y0232683D03*
X0397595Y0225183D03*
X0402220Y0213933D03*
X0411658Y0213933D03*
X0428220Y0228933D03*
X0425095Y0232058D03*
X0431345Y0232058D03*
X0446607Y0213933D03*
X0427595Y0183808D03*
X0377595Y0181308D03*
X0372595Y0176308D03*
X0367595Y0181308D03*
X0362595Y0176308D03*
X0357595Y0181308D03*
X0352595Y0176308D03*
X0347595Y0181308D03*
X0342595Y0176308D03*
X0337595Y0181308D03*
X0332595Y0176308D03*
X0327595Y0181308D03*
X0322595Y0176308D03*
X0300095Y0181308D03*
X0292595Y0176308D03*
X0270095Y0176308D03*
X0262595Y0181308D03*
X0250388Y0176765D03*
X0240095Y0181433D03*
X0240184Y0186433D03*
X0235720Y0189558D03*
X0222595Y0183933D03*
X0207595Y0183933D03*
X0198845Y0168933D03*
X0178595Y0206933D03*
X0178595Y0216433D03*
X0183845Y0224558D03*
X0200095Y0224558D03*
X0207595Y0212558D03*
X0222595Y0212558D03*
X0237595Y0212558D03*
X0243095Y0210183D03*
X0246345Y0212683D03*
X0249595Y0210183D03*
X0236345Y0224558D03*
X0237595Y0228933D03*
X0220095Y0230058D03*
X0221567Y0246433D03*
X0227595Y0246433D03*
X0215095Y0246308D03*
X0207595Y0246308D03*
X0183845Y0243933D03*
X0178595Y0254558D03*
X0178595Y0263933D03*
X0183845Y0267683D03*
X0187674Y0278933D03*
X0195720Y0274558D03*
X0275095Y0213933D03*
X0270845Y0209558D03*
X0270095Y0203808D03*
X0281345Y0208183D03*
X0292595Y0203808D03*
X0302595Y0208808D03*
X0312345Y0202683D03*
X0310095Y0213933D03*
X0346690Y0213933D03*
X0350627Y0195808D03*
X0354564Y0192808D03*
X0377595Y0189558D03*
X0465095Y0272683D03*
X0480095Y0278808D03*
X0486345Y0278808D03*
X0488845Y0292058D03*
X0482595Y0303933D03*
X0469249Y0302683D03*
X0457595Y0306433D03*
X0445942Y0302683D03*
X0432595Y0303933D03*
X0432595Y0311030D03*
X0432595Y0316433D03*
X0422595Y0323933D03*
X0422595Y0333933D03*
X0422595Y0343933D03*
X0422595Y0353933D03*
X0412595Y0316433D03*
X0412595Y0303933D03*
X0422595Y0303933D03*
X0433845Y0278808D03*
X0441345Y0278808D03*
X0500095Y0276433D03*
X0510095Y0266433D03*
X0517595Y0276433D03*
X0525095Y0271433D03*
X0529942Y0276433D03*
X0508845Y0293933D03*
X0529942Y0301433D03*
X0526595Y0320933D03*
X0510095Y0321433D03*
X0505095Y0327558D03*
X0497595Y0335058D03*
X0505095Y0342558D03*
X0497595Y0350058D03*
X0505095Y0357558D03*
X0512595Y0350058D03*
X0512595Y0335058D03*
X0497595Y0320058D03*
X0342595Y0293933D03*
X0332595Y0288933D03*
D25*
X0332595Y0295808D01*
X0330095Y0298308D01*
X0308442Y0298308D01*
X0305942Y0300808D01*
X0305942Y0302683D01*
X0308537Y0301762D02*
X0396654Y0301762D01*
X0396806Y0301394D02*
X0396045Y0300633D01*
X0374391Y0300633D01*
X0371891Y0298133D01*
X0370895Y0297137D01*
X0370895Y0291122D01*
X0370264Y0290491D01*
X0369845Y0289480D01*
X0369845Y0288386D01*
X0370264Y0287375D01*
X0371037Y0286602D01*
X0372048Y0286183D01*
X0373142Y0286183D01*
X0374153Y0286602D01*
X0374926Y0287375D01*
X0375270Y0288205D01*
X0375270Y0276122D01*
X0374639Y0275491D01*
X0374220Y0274480D01*
X0374220Y0273933D01*
X0366695Y0273933D01*
X0366695Y0274894D01*
X0366586Y0275301D01*
X0366375Y0275665D01*
X0366078Y0275963D01*
X0365713Y0276174D01*
X0365306Y0276283D01*
X0362620Y0276283D01*
X0362620Y0274433D01*
X0362570Y0274433D01*
X0362570Y0276283D01*
X0359884Y0276283D01*
X0359478Y0276174D01*
X0359113Y0275963D01*
X0358815Y0275665D01*
X0358604Y0275301D01*
X0358495Y0274894D01*
X0358495Y0273933D01*
X0356246Y0273933D01*
X0355642Y0274183D01*
X0354548Y0274183D01*
X0353945Y0273933D01*
X0330970Y0273933D01*
X0330970Y0274480D01*
X0330551Y0275491D01*
X0329920Y0276122D01*
X0329920Y0288205D01*
X0330264Y0287375D01*
X0331037Y0286602D01*
X0332048Y0286183D01*
X0333142Y0286183D01*
X0334153Y0286602D01*
X0334926Y0287375D01*
X0335345Y0288386D01*
X0335345Y0289480D01*
X0334926Y0290491D01*
X0334295Y0291122D01*
X0334295Y0296512D01*
X0333299Y0297508D01*
X0330799Y0300008D01*
X0309146Y0300008D01*
X0308151Y0301003D01*
X0308273Y0301125D01*
X0308692Y0302136D01*
X0308692Y0303230D01*
X0308273Y0304241D01*
X0307499Y0305014D01*
X0306489Y0305433D01*
X0305395Y0305433D01*
X0304384Y0305014D01*
X0303610Y0304241D01*
X0303192Y0303230D01*
X0303192Y0302136D01*
X0303610Y0301125D01*
X0304242Y0300494D01*
X0304242Y0300104D01*
X0306212Y0298133D01*
X0262453Y0298133D01*
X0260949Y0299637D01*
X0260949Y0300494D01*
X0261580Y0301125D01*
X0261999Y0302136D01*
X0261999Y0303230D01*
X0261580Y0304241D01*
X0260806Y0305014D01*
X0259796Y0305433D01*
X0258702Y0305433D01*
X0257691Y0305014D01*
X0256917Y0304241D01*
X0256499Y0303230D01*
X0256499Y0302136D01*
X0256917Y0301125D01*
X0257549Y0300494D01*
X0257549Y0298229D01*
X0259520Y0296258D01*
X0239146Y0296258D01*
X0237642Y0297762D01*
X0237642Y0300494D01*
X0238273Y0301125D01*
X0238692Y0302136D01*
X0238692Y0303230D01*
X0238273Y0304241D01*
X0237499Y0305014D01*
X0236489Y0305433D01*
X0235395Y0305433D01*
X0234384Y0305014D01*
X0233610Y0304241D01*
X0233192Y0303230D01*
X0233192Y0302136D01*
X0233610Y0301125D01*
X0234242Y0300494D01*
X0234242Y0296354D01*
X0236662Y0293933D01*
X0224032Y0293933D01*
X0220095Y0297870D01*
X0220095Y0309879D01*
X0220264Y0309472D01*
X0221037Y0308698D01*
X0222048Y0308280D01*
X0223142Y0308280D01*
X0224153Y0308698D01*
X0224184Y0308730D01*
X0291006Y0308730D01*
X0291037Y0308698D01*
X0292048Y0308280D01*
X0293142Y0308280D01*
X0294153Y0308698D01*
X0294184Y0308730D01*
X0347256Y0308730D01*
X0347287Y0308698D01*
X0348298Y0308280D01*
X0349392Y0308280D01*
X0350403Y0308698D01*
X0350434Y0308730D01*
X0361006Y0308730D01*
X0361037Y0308698D01*
X0362048Y0308280D01*
X0363142Y0308280D01*
X0364153Y0308698D01*
X0364184Y0308730D01*
X0431006Y0308730D01*
X0431037Y0308698D01*
X0432048Y0308280D01*
X0433142Y0308280D01*
X0434153Y0308698D01*
X0434926Y0309472D01*
X0435345Y0310483D01*
X0435345Y0311577D01*
X0434926Y0312587D01*
X0434153Y0313361D01*
X0433142Y0313780D01*
X0432048Y0313780D01*
X0431037Y0313361D01*
X0431006Y0313330D01*
X0364184Y0313330D01*
X0364153Y0313361D01*
X0363142Y0313780D01*
X0362048Y0313780D01*
X0361037Y0313361D01*
X0361006Y0313330D01*
X0350434Y0313330D01*
X0350403Y0313361D01*
X0349392Y0313780D01*
X0348298Y0313780D01*
X0347287Y0313361D01*
X0347256Y0313330D01*
X0294184Y0313330D01*
X0294153Y0313361D01*
X0293142Y0313780D01*
X0292048Y0313780D01*
X0291037Y0313361D01*
X0291006Y0313330D01*
X0224184Y0313330D01*
X0224153Y0313361D01*
X0223142Y0313780D01*
X0222048Y0313780D01*
X0221037Y0313361D01*
X0220264Y0312587D01*
X0220095Y0312180D01*
X0220095Y0336067D01*
X0220337Y0336651D01*
X0220337Y0338853D01*
X0220095Y0339437D01*
X0220095Y0362083D01*
X0485095Y0362083D01*
X0485095Y0339437D01*
X0484853Y0338853D01*
X0484853Y0336651D01*
X0485095Y0336067D01*
X0485095Y0297870D01*
X0481158Y0293933D01*
X0468528Y0293933D01*
X0470949Y0296354D01*
X0470949Y0300494D01*
X0471580Y0301125D01*
X0471999Y0302136D01*
X0471999Y0303230D01*
X0471580Y0304241D01*
X0470806Y0305014D01*
X0469796Y0305433D01*
X0468702Y0305433D01*
X0467691Y0305014D01*
X0466917Y0304241D01*
X0466499Y0303230D01*
X0466499Y0302136D01*
X0466917Y0301125D01*
X0467549Y0300494D01*
X0467549Y0297762D01*
X0466045Y0296258D01*
X0445671Y0296258D01*
X0446646Y0297233D01*
X0447642Y0298229D01*
X0447642Y0300494D01*
X0448273Y0301125D01*
X0448692Y0302136D01*
X0448692Y0303230D01*
X0448273Y0304241D01*
X0447499Y0305014D01*
X0446489Y0305433D01*
X0445395Y0305433D01*
X0444384Y0305014D01*
X0443610Y0304241D01*
X0443192Y0303230D01*
X0443192Y0302136D01*
X0443610Y0301125D01*
X0444242Y0300494D01*
X0444242Y0299637D01*
X0442737Y0298133D01*
X0398353Y0298133D01*
X0398449Y0298229D01*
X0400405Y0300186D01*
X0400806Y0300352D01*
X0401580Y0301125D01*
X0401999Y0302136D01*
X0401999Y0303230D01*
X0401580Y0304241D01*
X0400806Y0305014D01*
X0399796Y0305433D01*
X0398702Y0305433D01*
X0397691Y0305014D01*
X0396917Y0304241D01*
X0396499Y0303230D01*
X0396499Y0302136D01*
X0396806Y0301394D01*
X0396499Y0302960D02*
X0308692Y0302960D01*
X0308307Y0304159D02*
X0396883Y0304159D01*
X0398519Y0305357D02*
X0306671Y0305357D01*
X0305212Y0305357D02*
X0259978Y0305357D01*
X0258519Y0305357D02*
X0236671Y0305357D01*
X0235212Y0305357D02*
X0220095Y0305357D01*
X0220095Y0304159D02*
X0233576Y0304159D01*
X0233192Y0302960D02*
X0220095Y0302960D01*
X0220095Y0301762D02*
X0233347Y0301762D01*
X0234172Y0300563D02*
X0220095Y0300563D01*
X0220095Y0299365D02*
X0234242Y0299365D01*
X0234242Y0298166D02*
X0220095Y0298166D01*
X0220997Y0296968D02*
X0234242Y0296968D01*
X0234826Y0295769D02*
X0222196Y0295769D01*
X0223394Y0294571D02*
X0236025Y0294571D01*
X0238442Y0294558D02*
X0322595Y0294558D01*
X0325095Y0292058D01*
X0325095Y0278933D01*
X0329920Y0278990D02*
X0375270Y0278990D01*
X0375270Y0277792D02*
X0329920Y0277792D01*
X0329920Y0276593D02*
X0375270Y0276593D01*
X0374599Y0275395D02*
X0366532Y0275395D01*
X0366695Y0274196D02*
X0374220Y0274196D01*
X0376970Y0273933D02*
X0376970Y0293933D01*
X0379470Y0296433D01*
X0443442Y0296433D01*
X0445942Y0298933D01*
X0445942Y0302683D01*
X0448537Y0301762D02*
X0466654Y0301762D01*
X0466499Y0302960D02*
X0448692Y0302960D01*
X0448307Y0304159D02*
X0466883Y0304159D01*
X0468519Y0305357D02*
X0446671Y0305357D01*
X0445212Y0305357D02*
X0399978Y0305357D01*
X0401614Y0304159D02*
X0443576Y0304159D01*
X0443192Y0302960D02*
X0401999Y0302960D01*
X0401844Y0301762D02*
X0443347Y0301762D01*
X0444172Y0300563D02*
X0401018Y0300563D01*
X0399585Y0299365D02*
X0443969Y0299365D01*
X0442771Y0298166D02*
X0398386Y0298166D01*
X0396749Y0298933D02*
X0375095Y0298933D01*
X0372595Y0296433D01*
X0372595Y0288933D01*
X0370748Y0290975D02*
X0334442Y0290975D01*
X0334295Y0292174D02*
X0370895Y0292174D01*
X0370895Y0293372D02*
X0334295Y0293372D01*
X0334295Y0294571D02*
X0370895Y0294571D01*
X0370895Y0295769D02*
X0334295Y0295769D01*
X0333840Y0296968D02*
X0370895Y0296968D01*
X0371924Y0298166D02*
X0332641Y0298166D01*
X0331443Y0299365D02*
X0373123Y0299365D01*
X0374321Y0300563D02*
X0308590Y0300563D01*
X0306179Y0298166D02*
X0262420Y0298166D01*
X0261221Y0299365D02*
X0304981Y0299365D01*
X0304172Y0300563D02*
X0261018Y0300563D01*
X0261844Y0301762D02*
X0303347Y0301762D01*
X0303192Y0302960D02*
X0261999Y0302960D01*
X0261614Y0304159D02*
X0303576Y0304159D01*
X0293221Y0313747D02*
X0344394Y0313747D01*
X0344548Y0313683D02*
X0345642Y0313683D01*
X0346653Y0314102D01*
X0347284Y0314733D01*
X0349781Y0314733D01*
X0350412Y0314102D01*
X0351423Y0313683D01*
X0352517Y0313683D01*
X0353528Y0314102D01*
X0354301Y0314875D01*
X0354720Y0315886D01*
X0354720Y0316980D01*
X0354301Y0317991D01*
X0353528Y0318764D01*
X0352517Y0319183D01*
X0351423Y0319183D01*
X0350412Y0318764D01*
X0349781Y0318133D01*
X0347284Y0318133D01*
X0346653Y0318764D01*
X0345642Y0319183D01*
X0344548Y0319183D01*
X0343537Y0318764D01*
X0342764Y0317991D01*
X0342345Y0316980D01*
X0342345Y0315886D01*
X0342764Y0314875D01*
X0343537Y0314102D01*
X0344548Y0313683D01*
X0345796Y0313747D02*
X0348220Y0313747D01*
X0349471Y0313747D02*
X0351269Y0313747D01*
X0352671Y0313747D02*
X0361970Y0313747D01*
X0363221Y0313747D02*
X0431970Y0313747D01*
X0433221Y0313747D02*
X0485095Y0313747D01*
X0485095Y0314945D02*
X0354331Y0314945D01*
X0354720Y0316144D02*
X0485095Y0316144D01*
X0485095Y0317343D02*
X0354570Y0317343D01*
X0353751Y0318541D02*
X0485095Y0318541D01*
X0485095Y0319740D02*
X0477754Y0319740D01*
X0477631Y0319617D02*
X0478683Y0320669D01*
X0478683Y0322158D01*
X0478683Y0328543D01*
X0478683Y0330032D01*
X0477631Y0331084D01*
X0461182Y0331084D01*
X0460129Y0330032D01*
X0460129Y0320669D01*
X0461182Y0319617D01*
X0477631Y0319617D01*
X0478683Y0320938D02*
X0485095Y0320938D01*
X0485095Y0322137D02*
X0478683Y0322137D01*
X0478683Y0323335D02*
X0485095Y0323335D01*
X0485095Y0324534D02*
X0478683Y0324534D01*
X0478683Y0325732D02*
X0485095Y0325732D01*
X0485095Y0326931D02*
X0478683Y0326931D01*
X0478683Y0328129D02*
X0485095Y0328129D01*
X0485095Y0329328D02*
X0478683Y0329328D01*
X0478189Y0330526D02*
X0485095Y0330526D01*
X0485095Y0331725D02*
X0220095Y0331725D01*
X0220095Y0332923D02*
X0485095Y0332923D01*
X0485095Y0334122D02*
X0220095Y0334122D01*
X0220095Y0335320D02*
X0485095Y0335320D01*
X0484908Y0336519D02*
X0220282Y0336519D01*
X0220337Y0337717D02*
X0484853Y0337717D01*
X0484879Y0338916D02*
X0465629Y0338916D01*
X0465782Y0339068D02*
X0465782Y0354940D01*
X0465137Y0355584D01*
X0458714Y0355584D01*
X0458070Y0354940D01*
X0458070Y0339068D01*
X0458714Y0338424D01*
X0465137Y0338424D01*
X0465782Y0339068D01*
X0465782Y0340114D02*
X0485095Y0340114D01*
X0485095Y0341313D02*
X0465782Y0341313D01*
X0465782Y0342511D02*
X0485095Y0342511D01*
X0485095Y0343710D02*
X0465782Y0343710D01*
X0465782Y0344908D02*
X0485095Y0344908D01*
X0485095Y0346107D02*
X0465782Y0346107D01*
X0465782Y0347305D02*
X0485095Y0347305D01*
X0485095Y0348504D02*
X0465782Y0348504D01*
X0465782Y0349702D02*
X0485095Y0349702D01*
X0485095Y0350901D02*
X0465782Y0350901D01*
X0465782Y0352099D02*
X0485095Y0352099D01*
X0485095Y0353298D02*
X0465782Y0353298D01*
X0465782Y0354496D02*
X0485095Y0354496D01*
X0485095Y0355695D02*
X0356507Y0355695D01*
X0356576Y0356041D02*
X0356576Y0356433D01*
X0352595Y0356433D01*
X0348614Y0356433D01*
X0348614Y0356041D01*
X0348767Y0355272D01*
X0349067Y0354547D01*
X0349503Y0353895D01*
X0350057Y0353341D01*
X0350709Y0352905D01*
X0351434Y0352605D01*
X0352203Y0352452D01*
X0352595Y0352452D01*
X0352595Y0356433D01*
X0352595Y0356433D01*
X0352595Y0356433D01*
X0348614Y0356433D01*
X0348614Y0356825D01*
X0348767Y0357594D01*
X0349067Y0358319D01*
X0349503Y0358971D01*
X0350057Y0359525D01*
X0350709Y0359961D01*
X0351434Y0360261D01*
X0352203Y0360414D01*
X0352595Y0360414D01*
X0352595Y0356433D01*
X0352595Y0352452D01*
X0352987Y0352452D01*
X0353756Y0352605D01*
X0354481Y0352905D01*
X0355133Y0353341D01*
X0355687Y0353895D01*
X0356123Y0354547D01*
X0356423Y0355272D01*
X0356576Y0356041D01*
X0356576Y0356433D02*
X0356576Y0356825D01*
X0356423Y0357594D01*
X0356123Y0358319D01*
X0355687Y0358971D01*
X0355133Y0359525D01*
X0354481Y0359961D01*
X0353756Y0360261D01*
X0352987Y0360414D01*
X0352595Y0360414D01*
X0352595Y0356433D01*
X0352595Y0356433D01*
X0352595Y0356433D01*
X0356576Y0356433D01*
X0356563Y0356893D02*
X0485095Y0356893D01*
X0485095Y0358092D02*
X0356217Y0358092D01*
X0355368Y0359290D02*
X0485095Y0359290D01*
X0485095Y0360489D02*
X0220095Y0360489D01*
X0220095Y0361687D02*
X0485095Y0361687D01*
X0490095Y0361687D02*
X0530368Y0361687D01*
X0529312Y0361971D02*
X0532627Y0361082D01*
X0535600Y0359366D01*
X0538028Y0356938D01*
X0539744Y0353965D01*
X0540633Y0350649D01*
X0540745Y0348933D01*
X0540745Y0307397D01*
X0535522Y0307397D01*
X0533842Y0306427D01*
X0533842Y0306427D01*
X0533842Y0306427D01*
X0532871Y0304746D01*
X0532871Y0302805D01*
X0533842Y0301124D01*
X0535522Y0300154D01*
X0540745Y0300154D01*
X0540745Y0178933D01*
X0540633Y0177217D01*
X0539744Y0173901D01*
X0538028Y0170928D01*
X0535600Y0168500D01*
X0532627Y0166784D01*
X0529312Y0165896D01*
X0527595Y0165783D01*
X0177595Y0165783D01*
X0175879Y0165896D01*
X0172563Y0166784D01*
X0169590Y0168500D01*
X0167163Y0170928D01*
X0165446Y0173901D01*
X0164558Y0177217D01*
X0164445Y0178933D01*
X0164445Y0300154D01*
X0169668Y0300154D01*
X0171349Y0301124D01*
X0171349Y0301124D01*
X0171349Y0301124D01*
X0172319Y0302805D01*
X0172319Y0304746D01*
X0171349Y0306427D01*
X0171349Y0306427D01*
X0171349Y0306427D01*
X0169668Y0307397D01*
X0164445Y0307397D01*
X0164445Y0348933D01*
X0164558Y0350649D01*
X0165446Y0353965D01*
X0167163Y0356938D01*
X0169590Y0359366D01*
X0172563Y0361082D01*
X0175879Y0361971D01*
X0177595Y0362083D01*
X0215095Y0362083D01*
X0215095Y0343289D01*
X0213698Y0343289D01*
X0211663Y0342446D01*
X0210106Y0340888D01*
X0209263Y0338853D01*
X0209263Y0336651D01*
X0210106Y0334616D01*
X0211663Y0333058D01*
X0213698Y0332215D01*
X0215095Y0332215D01*
X0215095Y0307416D01*
X0214798Y0307713D01*
X0214433Y0307924D01*
X0214026Y0308033D01*
X0208116Y0308033D01*
X0208116Y0304533D01*
X0206916Y0304533D01*
X0206916Y0303333D01*
X0199617Y0303333D01*
X0199617Y0301222D01*
X0199726Y0300815D01*
X0199937Y0300451D01*
X0200235Y0300153D01*
X0200600Y0299942D01*
X0201007Y0299833D01*
X0206916Y0299833D01*
X0206916Y0303333D01*
X0208116Y0303333D01*
X0208116Y0299833D01*
X0214026Y0299833D01*
X0214433Y0299942D01*
X0214798Y0300153D01*
X0215095Y0300450D01*
X0215095Y0295433D01*
X0221595Y0288933D01*
X0243706Y0288933D01*
X0243389Y0288616D01*
X0242970Y0287605D01*
X0242970Y0286511D01*
X0243389Y0285500D01*
X0244162Y0284727D01*
X0245173Y0284308D01*
X0246066Y0284308D01*
X0246616Y0283758D01*
X0242909Y0283758D01*
X0242278Y0284389D01*
X0241267Y0284808D01*
X0240173Y0284808D01*
X0239162Y0284389D01*
X0238389Y0283616D01*
X0237970Y0282605D01*
X0237970Y0281511D01*
X0238389Y0280500D01*
X0239162Y0279727D01*
X0240173Y0279308D01*
X0241267Y0279308D01*
X0242278Y0279727D01*
X0242909Y0280358D01*
X0267800Y0280358D01*
X0266971Y0280014D01*
X0266197Y0279241D01*
X0265778Y0278230D01*
X0265778Y0277337D01*
X0261520Y0273079D01*
X0261520Y0267412D01*
X0258045Y0270887D01*
X0257049Y0271883D01*
X0250412Y0271883D01*
X0246833Y0275462D01*
X0246833Y0276355D01*
X0246414Y0277366D01*
X0245641Y0278139D01*
X0244630Y0278558D01*
X0243536Y0278558D01*
X0242525Y0278139D01*
X0241856Y0277470D01*
X0241186Y0278139D01*
X0240176Y0278558D01*
X0239082Y0278558D01*
X0238071Y0278139D01*
X0237297Y0277366D01*
X0236879Y0276355D01*
X0236879Y0275261D01*
X0237297Y0274250D01*
X0238071Y0273477D01*
X0239082Y0273058D01*
X0239974Y0273058D01*
X0245429Y0267604D01*
X0246424Y0266608D01*
X0255016Y0266608D01*
X0257041Y0264583D01*
X0256978Y0264566D01*
X0256613Y0264355D01*
X0249393Y0257136D01*
X0257595Y0248933D01*
X0257595Y0248933D01*
X0249393Y0240731D01*
X0242173Y0247951D01*
X0241962Y0248315D01*
X0241853Y0248722D01*
X0241853Y0249144D01*
X0241962Y0249551D01*
X0242173Y0249915D01*
X0249393Y0257135D01*
X0257595Y0248933D01*
X0249393Y0240731D01*
X0256613Y0233511D01*
X0256978Y0233300D01*
X0257384Y0233191D01*
X0257806Y0233191D01*
X0258213Y0233300D01*
X0258578Y0233511D01*
X0265798Y0240731D01*
X0273018Y0247951D01*
X0273228Y0248315D01*
X0273245Y0248379D01*
X0292145Y0229479D01*
X0293141Y0228483D01*
X0356114Y0228483D01*
X0355751Y0227605D01*
X0355751Y0227508D01*
X0260174Y0227508D01*
X0238045Y0249637D01*
X0238045Y0270341D01*
X0234720Y0273666D01*
X0234720Y0274559D01*
X0234301Y0275570D01*
X0233528Y0276344D01*
X0232517Y0276762D01*
X0231423Y0276762D01*
X0230412Y0276344D01*
X0229639Y0275570D01*
X0229454Y0275123D01*
X0229301Y0275491D01*
X0228528Y0276264D01*
X0227517Y0276683D01*
X0226423Y0276683D01*
X0225412Y0276264D01*
X0224639Y0275491D01*
X0224334Y0274754D01*
X0224153Y0274935D01*
X0223142Y0275354D01*
X0222048Y0275354D01*
X0221037Y0274935D01*
X0220264Y0274162D01*
X0219845Y0273151D01*
X0219845Y0272057D01*
X0220264Y0271046D01*
X0220933Y0270377D01*
X0220264Y0269707D01*
X0219845Y0268697D01*
X0219845Y0267603D01*
X0220264Y0266592D01*
X0221037Y0265818D01*
X0222048Y0265400D01*
X0222941Y0265400D01*
X0229020Y0259320D01*
X0229020Y0248819D01*
X0228142Y0249183D01*
X0227048Y0249183D01*
X0226037Y0248764D01*
X0225264Y0247991D01*
X0224845Y0246980D01*
X0224845Y0246407D01*
X0224317Y0246936D01*
X0224317Y0246980D01*
X0223898Y0247991D01*
X0223124Y0248764D01*
X0222114Y0249183D01*
X0221020Y0249183D01*
X0220009Y0248764D01*
X0219235Y0247991D01*
X0218817Y0246980D01*
X0218817Y0245886D01*
X0219235Y0244875D01*
X0220009Y0244102D01*
X0221020Y0243683D01*
X0221064Y0243683D01*
X0223017Y0241730D01*
X0224364Y0240383D01*
X0227892Y0240383D01*
X0236726Y0231550D01*
X0236037Y0231264D01*
X0235264Y0230491D01*
X0234845Y0229480D01*
X0234845Y0228386D01*
X0235264Y0227375D01*
X0235468Y0227171D01*
X0234787Y0226889D01*
X0234156Y0226258D01*
X0202284Y0226258D01*
X0201653Y0226889D01*
X0200642Y0227308D01*
X0199548Y0227308D01*
X0198537Y0226889D01*
X0198045Y0226397D01*
X0198045Y0270104D01*
X0200545Y0272604D01*
X0200545Y0275729D01*
X0201170Y0276354D01*
X0201170Y0280333D01*
X0205120Y0280333D01*
X0204766Y0279480D01*
X0204766Y0278386D01*
X0205185Y0277375D01*
X0205959Y0276602D01*
X0206969Y0276183D01*
X0208063Y0276183D01*
X0209074Y0276602D01*
X0209848Y0277375D01*
X0210266Y0278386D01*
X0210266Y0279480D01*
X0209913Y0280333D01*
X0214271Y0280333D01*
X0214916Y0280977D01*
X0214916Y0286889D01*
X0214271Y0287533D01*
X0207492Y0287533D01*
X0207845Y0288386D01*
X0207845Y0289480D01*
X0207492Y0290333D01*
X0214271Y0290333D01*
X0214916Y0290977D01*
X0214916Y0296889D01*
X0214271Y0297533D01*
X0200762Y0297533D01*
X0200117Y0296889D01*
X0200117Y0295633D01*
X0198141Y0295633D01*
X0196891Y0294383D01*
X0196658Y0294150D01*
X0195174Y0295633D01*
X0195073Y0295633D01*
X0195073Y0296889D01*
X0194429Y0297533D01*
X0190071Y0297533D01*
X0190424Y0298386D01*
X0190424Y0299480D01*
X0190071Y0300333D01*
X0194429Y0300333D01*
X0195073Y0300977D01*
X0195073Y0306889D01*
X0194429Y0307533D01*
X0180919Y0307533D01*
X0180275Y0306889D01*
X0180275Y0300977D01*
X0180919Y0300333D01*
X0185277Y0300333D01*
X0184924Y0299480D01*
X0184924Y0298386D01*
X0185277Y0297533D01*
X0180919Y0297533D01*
X0180275Y0296889D01*
X0180275Y0290977D01*
X0180919Y0290333D01*
X0194020Y0290333D01*
X0194020Y0287533D01*
X0180919Y0287533D01*
X0180275Y0286889D01*
X0180275Y0280977D01*
X0180919Y0280333D01*
X0185277Y0280333D01*
X0184924Y0279480D01*
X0184924Y0278386D01*
X0185343Y0277375D01*
X0186116Y0276602D01*
X0187127Y0276183D01*
X0188221Y0276183D01*
X0189020Y0276514D01*
X0189020Y0216354D01*
X0190270Y0215104D01*
X0191266Y0214108D01*
X0241266Y0214108D01*
X0241395Y0213979D01*
X0241395Y0212372D01*
X0240764Y0211741D01*
X0240345Y0210730D01*
X0240345Y0209636D01*
X0240764Y0208625D01*
X0241395Y0207994D01*
X0241395Y0194604D01*
X0243895Y0192104D01*
X0244741Y0191258D01*
X0237909Y0191258D01*
X0237278Y0191889D01*
X0236267Y0192308D01*
X0235173Y0192308D01*
X0234162Y0191889D01*
X0233389Y0191116D01*
X0232970Y0190105D01*
X0232970Y0189011D01*
X0233389Y0188000D01*
X0234162Y0187227D01*
X0235173Y0186808D01*
X0236267Y0186808D01*
X0237278Y0187227D01*
X0237718Y0187667D01*
X0237434Y0186980D01*
X0237434Y0185886D01*
X0237852Y0184875D01*
X0238626Y0184102D01*
X0239637Y0183683D01*
X0240731Y0183683D01*
X0241741Y0184102D01*
X0242373Y0184733D01*
X0380799Y0184733D01*
X0383299Y0187233D01*
X0462906Y0187233D01*
X0463537Y0186602D01*
X0464548Y0186183D01*
X0465642Y0186183D01*
X0466653Y0186602D01*
X0467426Y0187375D01*
X0467845Y0188386D01*
X0467845Y0189480D01*
X0467426Y0190491D01*
X0466653Y0191264D01*
X0465642Y0191683D01*
X0464548Y0191683D01*
X0463537Y0191264D01*
X0462906Y0190633D01*
X0443990Y0190633D01*
X0444608Y0191250D01*
X0445026Y0192261D01*
X0445026Y0193355D01*
X0444714Y0194108D01*
X0445406Y0194108D01*
X0446037Y0193477D01*
X0447048Y0193058D01*
X0448142Y0193058D01*
X0449153Y0193477D01*
X0449926Y0194250D01*
X0450345Y0195261D01*
X0450345Y0196355D01*
X0449926Y0197366D01*
X0449153Y0198139D01*
X0448142Y0198558D01*
X0447048Y0198558D01*
X0446037Y0198139D01*
X0445406Y0197508D01*
X0436053Y0197508D01*
X0436365Y0198261D01*
X0436365Y0199355D01*
X0435946Y0200366D01*
X0435173Y0201139D01*
X0434162Y0201558D01*
X0433068Y0201558D01*
X0432057Y0201139D01*
X0431426Y0200508D01*
X0399784Y0200508D01*
X0399153Y0201139D01*
X0398142Y0201558D01*
X0397048Y0201558D01*
X0396037Y0201139D01*
X0395406Y0200508D01*
X0394309Y0200508D01*
X0394926Y0201125D01*
X0395345Y0202136D01*
X0395345Y0203230D01*
X0394926Y0204241D01*
X0394153Y0205014D01*
X0393142Y0205433D01*
X0392048Y0205433D01*
X0391037Y0205014D01*
X0390406Y0204383D01*
X0314534Y0204383D01*
X0313903Y0205014D01*
X0312892Y0205433D01*
X0311798Y0205433D01*
X0310787Y0205014D01*
X0310014Y0204241D01*
X0309595Y0203230D01*
X0309595Y0202136D01*
X0310014Y0201125D01*
X0310631Y0200508D01*
X0252799Y0200508D01*
X0251295Y0202012D01*
X0251295Y0207994D01*
X0251926Y0208625D01*
X0252345Y0209636D01*
X0252345Y0210730D01*
X0251926Y0211741D01*
X0251295Y0212372D01*
X0251295Y0212829D01*
X0256266Y0207858D01*
X0268656Y0207858D01*
X0269287Y0207227D01*
X0270298Y0206808D01*
X0271392Y0206808D01*
X0272403Y0207227D01*
X0273176Y0208000D01*
X0273595Y0209011D01*
X0273595Y0210105D01*
X0273176Y0211116D01*
X0272659Y0211633D01*
X0273506Y0211633D01*
X0273537Y0211602D01*
X0274548Y0211183D01*
X0275642Y0211183D01*
X0276653Y0211602D01*
X0276684Y0211633D01*
X0308506Y0211633D01*
X0308537Y0211602D01*
X0309548Y0211183D01*
X0310642Y0211183D01*
X0311653Y0211602D01*
X0311684Y0211633D01*
X0345101Y0211633D01*
X0345132Y0211602D01*
X0346143Y0211183D01*
X0347237Y0211183D01*
X0348247Y0211602D01*
X0348279Y0211633D01*
X0372660Y0211633D01*
X0372691Y0211602D01*
X0373702Y0211183D01*
X0374796Y0211183D01*
X0375806Y0211602D01*
X0375838Y0211633D01*
X0400631Y0211633D01*
X0400662Y0211602D01*
X0401673Y0211183D01*
X0402767Y0211183D01*
X0403778Y0211602D01*
X0403809Y0211633D01*
X0410069Y0211633D01*
X0410100Y0211602D01*
X0411111Y0211183D01*
X0412205Y0211183D01*
X0413215Y0211602D01*
X0413247Y0211633D01*
X0445018Y0211633D01*
X0445049Y0211602D01*
X0446060Y0211183D01*
X0447154Y0211183D01*
X0448165Y0211602D01*
X0448938Y0212375D01*
X0449357Y0213386D01*
X0449357Y0214480D01*
X0448938Y0215491D01*
X0448165Y0216264D01*
X0447154Y0216683D01*
X0446060Y0216683D01*
X0445049Y0216264D01*
X0445018Y0216233D01*
X0430424Y0216233D01*
X0430545Y0216354D01*
X0433045Y0218854D01*
X0433045Y0229869D01*
X0433676Y0230500D01*
X0434095Y0231511D01*
X0434095Y0232605D01*
X0433676Y0233616D01*
X0433184Y0234108D01*
X0451832Y0234108D01*
X0451787Y0234001D01*
X0451787Y0232616D01*
X0452317Y0231336D01*
X0453296Y0230357D01*
X0454576Y0229827D01*
X0455961Y0229827D01*
X0457240Y0230357D01*
X0458219Y0231336D01*
X0458749Y0232616D01*
X0458749Y0234001D01*
X0458219Y0235280D01*
X0457516Y0235983D01*
X0487516Y0235983D01*
X0495270Y0228229D01*
X0496266Y0227233D01*
X0521060Y0227233D01*
X0521691Y0226602D01*
X0522702Y0226183D01*
X0523796Y0226183D01*
X0524806Y0226602D01*
X0525580Y0227375D01*
X0525999Y0228386D01*
X0525999Y0229480D01*
X0525580Y0230491D01*
X0524806Y0231264D01*
X0523796Y0231683D01*
X0522702Y0231683D01*
X0521691Y0231264D01*
X0521060Y0230633D01*
X0497674Y0230633D01*
X0491699Y0236608D01*
X0506646Y0236608D01*
X0507278Y0235977D01*
X0508288Y0235558D01*
X0509382Y0235558D01*
X0510393Y0235977D01*
X0511167Y0236750D01*
X0511585Y0237761D01*
X0511585Y0238855D01*
X0511167Y0239866D01*
X0510393Y0240639D01*
X0509382Y0241058D01*
X0508288Y0241058D01*
X0507278Y0240639D01*
X0506646Y0240008D01*
X0499843Y0240008D01*
X0500546Y0240711D01*
X0501076Y0241991D01*
X0501076Y0243376D01*
X0500546Y0244655D01*
X0499567Y0245634D01*
X0498288Y0246164D01*
X0496903Y0246164D01*
X0495623Y0245634D01*
X0494644Y0244655D01*
X0494531Y0244383D01*
X0489391Y0244383D01*
X0488395Y0243387D01*
X0488141Y0243133D01*
X0477463Y0243133D01*
X0477845Y0244055D01*
X0477845Y0245149D01*
X0477426Y0246160D01*
X0476653Y0246934D01*
X0475642Y0247352D01*
X0474548Y0247352D01*
X0473537Y0246934D01*
X0472906Y0246302D01*
X0471891Y0246302D01*
X0470597Y0245008D01*
X0402481Y0245008D01*
X0402845Y0245886D01*
X0402845Y0246980D01*
X0402481Y0247858D01*
X0427516Y0247858D01*
X0428141Y0247233D01*
X0434549Y0247233D01*
X0435174Y0247858D01*
X0514406Y0247858D01*
X0515037Y0247227D01*
X0516048Y0246808D01*
X0517142Y0246808D01*
X0518153Y0247227D01*
X0518926Y0248000D01*
X0519345Y0249011D01*
X0519345Y0250105D01*
X0518926Y0251116D01*
X0518153Y0251889D01*
X0517142Y0252308D01*
X0516048Y0252308D01*
X0515037Y0251889D01*
X0514406Y0251258D01*
X0514199Y0251258D01*
X0514295Y0251354D01*
X0516795Y0253854D01*
X0516795Y0268229D01*
X0518299Y0269733D01*
X0522906Y0269733D01*
X0523537Y0269102D01*
X0524548Y0268683D01*
X0525642Y0268683D01*
X0526653Y0269102D01*
X0527426Y0269875D01*
X0527845Y0270886D01*
X0527845Y0271980D01*
X0527426Y0272991D01*
X0526653Y0273764D01*
X0525763Y0274133D01*
X0528353Y0274133D01*
X0528384Y0274102D01*
X0529395Y0273683D01*
X0530489Y0273683D01*
X0531499Y0274102D01*
X0532273Y0274875D01*
X0532692Y0275886D01*
X0532692Y0276980D01*
X0532273Y0277991D01*
X0531499Y0278764D01*
X0530489Y0279183D01*
X0529395Y0279183D01*
X0528384Y0278764D01*
X0528353Y0278733D01*
X0519184Y0278733D01*
X0519153Y0278764D01*
X0518142Y0279183D01*
X0517048Y0279183D01*
X0516037Y0278764D01*
X0515264Y0277991D01*
X0514845Y0276980D01*
X0514845Y0275886D01*
X0515264Y0274875D01*
X0516037Y0274102D01*
X0517048Y0273683D01*
X0518142Y0273683D01*
X0519153Y0274102D01*
X0519184Y0274133D01*
X0524427Y0274133D01*
X0523537Y0273764D01*
X0522906Y0273133D01*
X0516891Y0273133D01*
X0514391Y0270633D01*
X0513395Y0269637D01*
X0513395Y0255262D01*
X0511891Y0253758D01*
X0491519Y0253758D01*
X0492395Y0254634D01*
X0493645Y0255884D01*
X0493645Y0274133D01*
X0498506Y0274133D01*
X0498537Y0274102D01*
X0499548Y0273683D01*
X0500642Y0273683D01*
X0501653Y0274102D01*
X0502426Y0274875D01*
X0502845Y0275886D01*
X0502845Y0276980D01*
X0502426Y0277991D01*
X0501653Y0278764D01*
X0500642Y0279183D01*
X0499548Y0279183D01*
X0498537Y0278764D01*
X0498506Y0278733D01*
X0490392Y0278733D01*
X0489045Y0277386D01*
X0489045Y0257887D01*
X0435747Y0257887D01*
X0435715Y0257918D01*
X0434705Y0258337D01*
X0433611Y0258337D01*
X0432600Y0257918D01*
X0432569Y0257887D01*
X0417531Y0257887D01*
X0417499Y0257918D01*
X0416489Y0258337D01*
X0415395Y0258337D01*
X0414384Y0257918D01*
X0414353Y0257887D01*
X0401048Y0257887D01*
X0400201Y0258733D01*
X0397105Y0258733D01*
X0397220Y0259011D01*
X0397220Y0260105D01*
X0396801Y0261116D01*
X0396170Y0261747D01*
X0396170Y0273387D01*
X0395174Y0274383D01*
X0393924Y0275633D01*
X0392909Y0275633D01*
X0392278Y0276264D01*
X0391267Y0276683D01*
X0390173Y0276683D01*
X0389162Y0276264D01*
X0388389Y0275491D01*
X0387970Y0274480D01*
X0387970Y0273386D01*
X0388389Y0272375D01*
X0389162Y0271602D01*
X0390173Y0271183D01*
X0391267Y0271183D01*
X0392278Y0271602D01*
X0392713Y0272036D01*
X0392770Y0271979D01*
X0392770Y0261747D01*
X0392139Y0261116D01*
X0391720Y0260105D01*
X0391720Y0259011D01*
X0392139Y0258000D01*
X0392253Y0257887D01*
X0387934Y0257887D01*
X0387903Y0257918D01*
X0386892Y0258337D01*
X0385798Y0258337D01*
X0384787Y0257918D01*
X0384756Y0257887D01*
X0356688Y0257887D01*
X0357426Y0258625D01*
X0357845Y0259636D01*
X0357845Y0260730D01*
X0357426Y0261741D01*
X0356795Y0262372D01*
X0356795Y0268933D01*
X0358495Y0268933D01*
X0358495Y0267972D01*
X0358604Y0267565D01*
X0358815Y0267201D01*
X0359113Y0266903D01*
X0359478Y0266692D01*
X0359884Y0266583D01*
X0362570Y0266583D01*
X0362570Y0268433D01*
X0362620Y0268433D01*
X0362620Y0266583D01*
X0365306Y0266583D01*
X0365713Y0266692D01*
X0366078Y0266903D01*
X0366375Y0267201D01*
X0366586Y0267565D01*
X0366695Y0267972D01*
X0366695Y0268933D01*
X0382595Y0268933D01*
X0387595Y0273933D01*
X0387595Y0284996D01*
X0391532Y0288933D01*
X0402781Y0288933D01*
X0402464Y0288616D01*
X0402045Y0287605D01*
X0402045Y0286511D01*
X0402464Y0285500D01*
X0403237Y0284727D01*
X0404248Y0284308D01*
X0404845Y0284308D01*
X0404845Y0283386D01*
X0405264Y0282375D01*
X0406037Y0281602D01*
X0407048Y0281183D01*
X0408142Y0281183D01*
X0409153Y0281602D01*
X0409784Y0282233D01*
X0463966Y0282233D01*
X0463123Y0281884D01*
X0462144Y0280905D01*
X0461614Y0279626D01*
X0461614Y0278241D01*
X0462144Y0276961D01*
X0463123Y0275982D01*
X0464403Y0275452D01*
X0465788Y0275452D01*
X0467067Y0275982D01*
X0468046Y0276961D01*
X0468576Y0278241D01*
X0468576Y0279626D01*
X0468046Y0280905D01*
X0467067Y0281884D01*
X0466225Y0282233D01*
X0490275Y0282233D01*
X0490275Y0280977D01*
X0490919Y0280333D01*
X0504429Y0280333D01*
X0505073Y0280977D01*
X0505073Y0286889D01*
X0504729Y0287233D01*
X0510462Y0287233D01*
X0510117Y0286889D01*
X0510117Y0280977D01*
X0510762Y0280333D01*
X0524271Y0280333D01*
X0524916Y0280977D01*
X0524916Y0286889D01*
X0524271Y0287533D01*
X0519216Y0287533D01*
X0519216Y0288387D01*
X0517966Y0289637D01*
X0517271Y0290333D01*
X0524271Y0290333D01*
X0524916Y0290977D01*
X0524916Y0296889D01*
X0524271Y0297533D01*
X0510762Y0297533D01*
X0510117Y0296889D01*
X0510117Y0296383D01*
X0509392Y0296683D01*
X0508298Y0296683D01*
X0507287Y0296264D01*
X0506514Y0295491D01*
X0506095Y0294480D01*
X0506095Y0293386D01*
X0506514Y0292375D01*
X0507287Y0291602D01*
X0508298Y0291183D01*
X0509392Y0291183D01*
X0510117Y0291483D01*
X0510117Y0290977D01*
X0510462Y0290633D01*
X0504729Y0290633D01*
X0505073Y0290977D01*
X0505073Y0296889D01*
X0504429Y0297533D01*
X0490919Y0297533D01*
X0490275Y0296889D01*
X0490275Y0295633D01*
X0490095Y0295633D01*
X0490095Y0300450D01*
X0490392Y0300153D01*
X0490757Y0299942D01*
X0491164Y0299833D01*
X0497074Y0299833D01*
X0497074Y0303333D01*
X0498274Y0303333D01*
X0498274Y0304533D01*
X0505573Y0304533D01*
X0505573Y0306644D01*
X0505464Y0307051D01*
X0505253Y0307415D01*
X0504956Y0307713D01*
X0504591Y0307924D01*
X0504184Y0308033D01*
X0498274Y0308033D01*
X0498274Y0304533D01*
X0497074Y0304533D01*
X0497074Y0308033D01*
X0491164Y0308033D01*
X0490757Y0307924D01*
X0490392Y0307713D01*
X0490095Y0307416D01*
X0490095Y0332215D01*
X0491492Y0332215D01*
X0493527Y0333058D01*
X0495084Y0334616D01*
X0495927Y0336651D01*
X0495927Y0338853D01*
X0495084Y0340888D01*
X0493527Y0342446D01*
X0491492Y0343289D01*
X0490095Y0343289D01*
X0490095Y0362083D01*
X0527595Y0362083D01*
X0529312Y0361971D01*
X0528972Y0359391D02*
X0526218Y0359391D01*
X0523558Y0358679D01*
X0521174Y0357302D01*
X0519226Y0355355D01*
X0517850Y0352970D01*
X0517137Y0350310D01*
X0517137Y0347556D01*
X0517850Y0344896D01*
X0519226Y0342512D01*
X0521174Y0340564D01*
X0523558Y0339188D01*
X0526218Y0338475D01*
X0528972Y0338475D01*
X0531632Y0339188D01*
X0534017Y0340564D01*
X0535964Y0342512D01*
X0537341Y0344896D01*
X0538053Y0347556D01*
X0538053Y0350310D01*
X0537341Y0352970D01*
X0535964Y0355355D01*
X0534017Y0357302D01*
X0531632Y0358679D01*
X0528972Y0359391D01*
X0529349Y0359290D02*
X0535676Y0359290D01*
X0536874Y0358092D02*
X0532648Y0358092D01*
X0534425Y0356893D02*
X0538054Y0356893D01*
X0538746Y0355695D02*
X0535624Y0355695D01*
X0536459Y0354496D02*
X0539438Y0354496D01*
X0539923Y0353298D02*
X0537151Y0353298D01*
X0537574Y0352099D02*
X0540244Y0352099D01*
X0540565Y0350901D02*
X0537895Y0350901D01*
X0538053Y0349702D02*
X0540695Y0349702D01*
X0540745Y0348504D02*
X0538053Y0348504D01*
X0537986Y0347305D02*
X0540745Y0347305D01*
X0540745Y0346107D02*
X0537665Y0346107D01*
X0537344Y0344908D02*
X0540745Y0344908D01*
X0540745Y0343710D02*
X0536656Y0343710D01*
X0535964Y0342511D02*
X0540745Y0342511D01*
X0540745Y0341313D02*
X0534765Y0341313D01*
X0533237Y0340114D02*
X0540745Y0340114D01*
X0540745Y0338916D02*
X0530618Y0338916D01*
X0524573Y0338916D02*
X0495902Y0338916D01*
X0495927Y0337717D02*
X0540745Y0337717D01*
X0540745Y0336519D02*
X0495873Y0336519D01*
X0495376Y0335320D02*
X0540745Y0335320D01*
X0540745Y0334122D02*
X0494591Y0334122D01*
X0493202Y0332923D02*
X0540745Y0332923D01*
X0540745Y0331725D02*
X0490095Y0331725D01*
X0490095Y0330526D02*
X0540745Y0330526D01*
X0540745Y0329328D02*
X0490095Y0329328D01*
X0490095Y0328129D02*
X0540745Y0328129D01*
X0540745Y0326931D02*
X0490095Y0326931D01*
X0490095Y0325732D02*
X0540745Y0325732D01*
X0540745Y0324534D02*
X0490095Y0324534D01*
X0490095Y0323335D02*
X0540745Y0323335D01*
X0540745Y0322137D02*
X0490095Y0322137D01*
X0490095Y0320938D02*
X0540745Y0320938D01*
X0540745Y0319740D02*
X0490095Y0319740D01*
X0490095Y0318541D02*
X0540745Y0318541D01*
X0540745Y0317343D02*
X0490095Y0317343D01*
X0490095Y0316144D02*
X0540745Y0316144D01*
X0540745Y0314945D02*
X0490095Y0314945D01*
X0490095Y0313747D02*
X0540745Y0313747D01*
X0540745Y0312548D02*
X0490095Y0312548D01*
X0490095Y0311350D02*
X0540745Y0311350D01*
X0540745Y0310151D02*
X0490095Y0310151D01*
X0490095Y0308953D02*
X0540745Y0308953D01*
X0540745Y0307754D02*
X0504884Y0307754D01*
X0505573Y0306556D02*
X0510117Y0306556D01*
X0510117Y0306889D02*
X0510117Y0300977D01*
X0510762Y0300333D01*
X0524271Y0300333D01*
X0524916Y0300977D01*
X0524916Y0302233D01*
X0526737Y0302233D01*
X0527192Y0301779D01*
X0527192Y0300886D01*
X0527610Y0299875D01*
X0528384Y0299102D01*
X0529395Y0298683D01*
X0530489Y0298683D01*
X0531499Y0299102D01*
X0532273Y0299875D01*
X0532692Y0300886D01*
X0532692Y0301980D01*
X0532273Y0302991D01*
X0531499Y0303764D01*
X0530489Y0304183D01*
X0529596Y0304183D01*
X0529295Y0304484D01*
X0529295Y0304637D01*
X0528299Y0305633D01*
X0524916Y0305633D01*
X0524916Y0306889D01*
X0524271Y0307533D01*
X0510762Y0307533D01*
X0510117Y0306889D01*
X0510117Y0305357D02*
X0505573Y0305357D01*
X0505573Y0303333D02*
X0498274Y0303333D01*
X0498274Y0299833D01*
X0504184Y0299833D01*
X0504591Y0299942D01*
X0504956Y0300153D01*
X0505253Y0300451D01*
X0505464Y0300815D01*
X0505573Y0301222D01*
X0505573Y0303333D01*
X0505573Y0302960D02*
X0510117Y0302960D01*
X0510117Y0301762D02*
X0505573Y0301762D01*
X0505318Y0300563D02*
X0510531Y0300563D01*
X0510196Y0296968D02*
X0504994Y0296968D01*
X0505073Y0295769D02*
X0506792Y0295769D01*
X0506133Y0294571D02*
X0505073Y0294571D01*
X0505073Y0293372D02*
X0506101Y0293372D01*
X0506715Y0292174D02*
X0505073Y0292174D01*
X0505071Y0290975D02*
X0510119Y0290975D01*
X0508845Y0293933D02*
X0517516Y0293933D01*
X0517827Y0289777D02*
X0540745Y0289777D01*
X0540745Y0290975D02*
X0524913Y0290975D01*
X0524916Y0292174D02*
X0540745Y0292174D01*
X0540745Y0293372D02*
X0524916Y0293372D01*
X0524916Y0294571D02*
X0540745Y0294571D01*
X0540745Y0295769D02*
X0524916Y0295769D01*
X0524836Y0296968D02*
X0540745Y0296968D01*
X0540745Y0298166D02*
X0490095Y0298166D01*
X0490095Y0296968D02*
X0490354Y0296968D01*
X0490275Y0295769D02*
X0490095Y0295769D01*
X0490720Y0293933D02*
X0497674Y0293933D01*
X0497074Y0300563D02*
X0498274Y0300563D01*
X0498274Y0301762D02*
X0497074Y0301762D01*
X0497074Y0302960D02*
X0498274Y0302960D01*
X0498274Y0304159D02*
X0510117Y0304159D01*
X0517516Y0303933D02*
X0527595Y0303933D01*
X0527595Y0303780D01*
X0529942Y0301433D01*
X0531762Y0299365D02*
X0540745Y0299365D01*
X0534813Y0300563D02*
X0532558Y0300563D01*
X0532692Y0301762D02*
X0533473Y0301762D01*
X0533842Y0301124D02*
X0533842Y0301124D01*
X0533842Y0301124D01*
X0532871Y0302960D02*
X0532286Y0302960D01*
X0532871Y0304159D02*
X0530547Y0304159D01*
X0528575Y0305357D02*
X0533224Y0305357D01*
X0534065Y0306556D02*
X0524916Y0306556D01*
X0524916Y0301762D02*
X0527192Y0301762D01*
X0527325Y0300563D02*
X0524502Y0300563D01*
X0528121Y0299365D02*
X0490095Y0299365D01*
X0485095Y0299365D02*
X0470949Y0299365D01*
X0470949Y0298166D02*
X0485095Y0298166D01*
X0484193Y0296968D02*
X0470949Y0296968D01*
X0470364Y0295769D02*
X0482994Y0295769D01*
X0481796Y0294571D02*
X0469166Y0294571D01*
X0466749Y0294558D02*
X0469249Y0297058D01*
X0469249Y0302683D01*
X0471844Y0301762D02*
X0485095Y0301762D01*
X0485095Y0302960D02*
X0471999Y0302960D01*
X0471614Y0304159D02*
X0485095Y0304159D01*
X0485095Y0305357D02*
X0469978Y0305357D01*
X0471018Y0300563D02*
X0485095Y0300563D01*
X0490720Y0293933D02*
X0488845Y0292058D01*
X0491345Y0288933D02*
X0489470Y0287058D01*
X0404795Y0287058D01*
X0402981Y0284983D02*
X0387595Y0284983D01*
X0387595Y0283784D02*
X0404845Y0283784D01*
X0405177Y0282586D02*
X0387595Y0282586D01*
X0387595Y0281387D02*
X0406555Y0281387D01*
X0408635Y0281387D02*
X0462626Y0281387D01*
X0461847Y0280189D02*
X0387595Y0280189D01*
X0387595Y0278990D02*
X0461614Y0278990D01*
X0461800Y0277792D02*
X0387595Y0277792D01*
X0387595Y0276593D02*
X0389956Y0276593D01*
X0391484Y0276593D02*
X0462512Y0276593D01*
X0463537Y0275014D02*
X0462764Y0274241D01*
X0462345Y0273230D01*
X0462345Y0272136D01*
X0462764Y0271125D01*
X0463395Y0270494D01*
X0463395Y0264247D01*
X0462764Y0263616D01*
X0462345Y0262605D01*
X0462345Y0261511D01*
X0462764Y0260500D01*
X0463537Y0259727D01*
X0464548Y0259308D01*
X0465642Y0259308D01*
X0466653Y0259727D01*
X0467426Y0260500D01*
X0467845Y0261511D01*
X0467845Y0261987D01*
X0470029Y0261987D01*
X0470095Y0262053D01*
X0470161Y0261987D01*
X0473572Y0261987D01*
X0474217Y0262631D01*
X0474217Y0263233D01*
X0475173Y0262837D01*
X0476267Y0262837D01*
X0477278Y0263255D01*
X0478051Y0264029D01*
X0478470Y0265040D01*
X0478470Y0266134D01*
X0478051Y0267144D01*
X0477278Y0267918D01*
X0476267Y0268337D01*
X0475173Y0268337D01*
X0474217Y0267940D01*
X0474217Y0268542D01*
X0473572Y0269187D01*
X0470161Y0269187D01*
X0470095Y0269121D01*
X0470029Y0269187D01*
X0466795Y0269187D01*
X0466795Y0270494D01*
X0467426Y0271125D01*
X0467845Y0272136D01*
X0467845Y0273230D01*
X0467426Y0274241D01*
X0466653Y0275014D01*
X0465642Y0275433D01*
X0464548Y0275433D01*
X0463537Y0275014D01*
X0464455Y0275395D02*
X0394163Y0275395D01*
X0395361Y0274196D02*
X0462745Y0274196D01*
X0462345Y0272998D02*
X0396170Y0272998D01*
X0396170Y0271799D02*
X0462485Y0271799D01*
X0463289Y0270601D02*
X0396170Y0270601D01*
X0396170Y0269402D02*
X0463395Y0269402D01*
X0463395Y0268204D02*
X0396170Y0268204D01*
X0396170Y0267005D02*
X0463395Y0267005D01*
X0463395Y0265807D02*
X0396170Y0265807D01*
X0396170Y0264608D02*
X0463395Y0264608D01*
X0462678Y0263410D02*
X0396170Y0263410D01*
X0396170Y0262211D02*
X0462345Y0262211D01*
X0462552Y0261012D02*
X0396844Y0261012D01*
X0397220Y0259814D02*
X0463450Y0259814D01*
X0465095Y0262058D02*
X0465095Y0265587D01*
X0468323Y0265587D01*
X0465095Y0265587D02*
X0465095Y0272683D01*
X0467706Y0271799D02*
X0489045Y0271799D01*
X0489045Y0270601D02*
X0466902Y0270601D01*
X0466795Y0269402D02*
X0489045Y0269402D01*
X0489045Y0268204D02*
X0476588Y0268204D01*
X0474852Y0268204D02*
X0474217Y0268204D01*
X0475720Y0265587D02*
X0471867Y0265587D01*
X0473797Y0262211D02*
X0489045Y0262211D01*
X0489045Y0263410D02*
X0477432Y0263410D01*
X0478291Y0264608D02*
X0489045Y0264608D01*
X0489045Y0265807D02*
X0478470Y0265807D01*
X0478109Y0267005D02*
X0489045Y0267005D01*
X0493645Y0267005D02*
X0513395Y0267005D01*
X0513395Y0265807D02*
X0493645Y0265807D01*
X0493645Y0264608D02*
X0513395Y0264608D01*
X0513395Y0263410D02*
X0493645Y0263410D01*
X0493645Y0262211D02*
X0513395Y0262211D01*
X0513395Y0261012D02*
X0493645Y0261012D01*
X0493645Y0259814D02*
X0513395Y0259814D01*
X0513395Y0258615D02*
X0493645Y0258615D01*
X0493645Y0257417D02*
X0513395Y0257417D01*
X0513395Y0256218D02*
X0493645Y0256218D01*
X0492781Y0255020D02*
X0513153Y0255020D01*
X0511954Y0253821D02*
X0491583Y0253821D01*
X0489045Y0258615D02*
X0400319Y0258615D01*
X0394470Y0259558D02*
X0394470Y0272683D01*
X0393220Y0273933D01*
X0390720Y0273933D01*
X0388131Y0272998D02*
X0386660Y0272998D01*
X0387595Y0274196D02*
X0387970Y0274196D01*
X0387595Y0275395D02*
X0388349Y0275395D01*
X0388965Y0271799D02*
X0385461Y0271799D01*
X0384263Y0270601D02*
X0392770Y0270601D01*
X0392770Y0271799D02*
X0392475Y0271799D01*
X0392770Y0269402D02*
X0383064Y0269402D01*
X0392770Y0268204D02*
X0366695Y0268204D01*
X0366180Y0267005D02*
X0392770Y0267005D01*
X0392770Y0265807D02*
X0356795Y0265807D01*
X0356795Y0267005D02*
X0359010Y0267005D01*
X0358495Y0268204D02*
X0356795Y0268204D01*
X0353395Y0268204D02*
X0313645Y0268204D01*
X0313645Y0269402D02*
X0322126Y0269402D01*
X0322595Y0268933D02*
X0353395Y0268933D01*
X0353395Y0262372D01*
X0352764Y0261741D01*
X0352345Y0260730D01*
X0352345Y0259636D01*
X0352764Y0258625D01*
X0353503Y0257887D01*
X0313645Y0257887D01*
X0313645Y0258998D01*
X0313676Y0259029D01*
X0314095Y0260040D01*
X0314095Y0261134D01*
X0313676Y0262144D01*
X0313645Y0262176D01*
X0313645Y0285511D01*
X0311145Y0288011D01*
X0310223Y0288933D01*
X0313658Y0288933D01*
X0317595Y0284996D01*
X0317595Y0273933D01*
X0322595Y0268933D01*
X0320928Y0270601D02*
X0313645Y0270601D01*
X0313645Y0271799D02*
X0319729Y0271799D01*
X0318531Y0272998D02*
X0313645Y0272998D01*
X0313645Y0274196D02*
X0317595Y0274196D01*
X0317595Y0275395D02*
X0313645Y0275395D01*
X0313645Y0276593D02*
X0317595Y0276593D01*
X0317595Y0277792D02*
X0313645Y0277792D01*
X0313645Y0278990D02*
X0317595Y0278990D01*
X0317595Y0280189D02*
X0313645Y0280189D01*
X0313645Y0281387D02*
X0317595Y0281387D01*
X0317595Y0282586D02*
X0313645Y0282586D01*
X0313645Y0283784D02*
X0317595Y0283784D01*
X0317595Y0284983D02*
X0313645Y0284983D01*
X0312975Y0286181D02*
X0316410Y0286181D01*
X0315211Y0287380D02*
X0311776Y0287380D01*
X0310578Y0288578D02*
X0314013Y0288578D01*
X0309045Y0283605D02*
X0307892Y0284758D01*
X0277220Y0284758D01*
X0281545Y0280433D01*
X0282438Y0280433D01*
X0283449Y0280014D01*
X0284222Y0279241D01*
X0284641Y0278230D01*
X0284641Y0277136D01*
X0284222Y0276125D01*
X0283632Y0275535D01*
X0284301Y0274866D01*
X0284720Y0273855D01*
X0284720Y0272761D01*
X0284301Y0271750D01*
X0283751Y0271200D01*
X0284460Y0270491D01*
X0284879Y0269480D01*
X0284879Y0268386D01*
X0284460Y0267375D01*
X0283830Y0266746D01*
X0284356Y0266220D01*
X0285025Y0266889D01*
X0286036Y0267308D01*
X0287130Y0267308D01*
X0288141Y0266889D01*
X0288914Y0266116D01*
X0289333Y0265105D01*
X0289333Y0264011D01*
X0288914Y0263000D01*
X0288141Y0262227D01*
X0287130Y0261808D01*
X0286237Y0261808D01*
X0285545Y0261116D01*
X0285545Y0258387D01*
X0298924Y0245008D01*
X0319584Y0245008D01*
X0319220Y0245886D01*
X0319220Y0246980D01*
X0319639Y0247991D01*
X0320412Y0248764D01*
X0321423Y0249183D01*
X0321720Y0249183D01*
X0321720Y0249733D01*
X0317284Y0249733D01*
X0316653Y0249102D01*
X0315642Y0248683D01*
X0314548Y0248683D01*
X0313537Y0249102D01*
X0312764Y0249875D01*
X0312345Y0250886D01*
X0312345Y0251980D01*
X0312764Y0252991D01*
X0313060Y0253287D01*
X0311642Y0253287D01*
X0310392Y0254537D01*
X0309045Y0255884D01*
X0309045Y0258998D01*
X0309014Y0259029D01*
X0308595Y0260040D01*
X0308595Y0261134D01*
X0309014Y0262144D01*
X0309045Y0262176D01*
X0309045Y0283605D01*
X0308866Y0283784D02*
X0278194Y0283784D01*
X0279392Y0282586D02*
X0309045Y0282586D01*
X0309045Y0281387D02*
X0280591Y0281387D01*
X0283028Y0280189D02*
X0309045Y0280189D01*
X0309045Y0278990D02*
X0284326Y0278990D01*
X0284641Y0277792D02*
X0309045Y0277792D01*
X0309045Y0276593D02*
X0284416Y0276593D01*
X0283773Y0275395D02*
X0309045Y0275395D01*
X0309045Y0274196D02*
X0284579Y0274196D01*
X0284720Y0272998D02*
X0309045Y0272998D01*
X0309045Y0271799D02*
X0284322Y0271799D01*
X0284350Y0270601D02*
X0309045Y0270601D01*
X0309045Y0269402D02*
X0284879Y0269402D01*
X0284803Y0268204D02*
X0309045Y0268204D01*
X0309045Y0267005D02*
X0287861Y0267005D01*
X0289042Y0265807D02*
X0309045Y0265807D01*
X0309045Y0264608D02*
X0289333Y0264608D01*
X0289084Y0263410D02*
X0309045Y0263410D01*
X0309045Y0262211D02*
X0288103Y0262211D01*
X0286583Y0264558D02*
X0283845Y0261820D01*
X0283845Y0257683D01*
X0298220Y0243308D01*
X0471301Y0243308D01*
X0472595Y0244602D01*
X0475095Y0244602D01*
X0473234Y0246630D02*
X0402845Y0246630D01*
X0402657Y0245432D02*
X0471020Y0245432D01*
X0476956Y0246630D02*
X0540745Y0246630D01*
X0540745Y0245432D02*
X0499769Y0245432D01*
X0500721Y0244233D02*
X0540745Y0244233D01*
X0540745Y0243035D02*
X0501076Y0243035D01*
X0501012Y0241836D02*
X0540745Y0241836D01*
X0540745Y0240638D02*
X0510395Y0240638D01*
X0511343Y0239439D02*
X0540745Y0239439D01*
X0540745Y0238241D02*
X0511585Y0238241D01*
X0511288Y0237042D02*
X0540745Y0237042D01*
X0540745Y0235844D02*
X0510072Y0235844D01*
X0507599Y0235844D02*
X0492464Y0235844D01*
X0493662Y0234645D02*
X0540745Y0234645D01*
X0540745Y0233447D02*
X0494861Y0233447D01*
X0496059Y0232248D02*
X0540745Y0232248D01*
X0540745Y0231050D02*
X0525021Y0231050D01*
X0525845Y0229851D02*
X0540745Y0229851D01*
X0540745Y0228653D02*
X0525999Y0228653D01*
X0525613Y0227454D02*
X0540745Y0227454D01*
X0540745Y0226256D02*
X0523971Y0226256D01*
X0522526Y0226256D02*
X0433045Y0226256D01*
X0433045Y0227454D02*
X0496045Y0227454D01*
X0494846Y0228653D02*
X0433045Y0228653D01*
X0433045Y0229851D02*
X0454517Y0229851D01*
X0456019Y0229851D02*
X0493648Y0229851D01*
X0492449Y0231050D02*
X0457933Y0231050D01*
X0458597Y0232248D02*
X0491251Y0232248D01*
X0490052Y0233447D02*
X0458749Y0233447D01*
X0458482Y0234645D02*
X0488854Y0234645D01*
X0487655Y0235844D02*
X0457656Y0235844D01*
X0455268Y0235808D02*
X0455268Y0233308D01*
X0455268Y0235808D02*
X0295720Y0235808D01*
X0265095Y0266433D01*
X0265095Y0269796D01*
X0272982Y0277683D01*
X0273062Y0282058D02*
X0277437Y0277683D01*
X0281891Y0277683D02*
X0275641Y0283933D01*
X0248845Y0283933D01*
X0245720Y0287058D01*
X0243906Y0284983D02*
X0214916Y0284983D01*
X0214916Y0286181D02*
X0243107Y0286181D01*
X0242970Y0287380D02*
X0214425Y0287380D01*
X0214913Y0290975D02*
X0219553Y0290975D01*
X0220751Y0289777D02*
X0207722Y0289777D01*
X0207845Y0288578D02*
X0243373Y0288578D01*
X0242883Y0283784D02*
X0246590Y0283784D01*
X0242740Y0280189D02*
X0267391Y0280189D01*
X0266093Y0278990D02*
X0210266Y0278990D01*
X0210020Y0277792D02*
X0237723Y0277792D01*
X0236977Y0276593D02*
X0232925Y0276593D01*
X0234374Y0275395D02*
X0236879Y0275395D01*
X0237351Y0274196D02*
X0234720Y0274196D01*
X0235389Y0272998D02*
X0240035Y0272998D01*
X0241233Y0271799D02*
X0236587Y0271799D01*
X0237786Y0270601D02*
X0242432Y0270601D01*
X0243630Y0269402D02*
X0238045Y0269402D01*
X0238045Y0268204D02*
X0244829Y0268204D01*
X0246027Y0267005D02*
X0238045Y0267005D01*
X0238045Y0265807D02*
X0255818Y0265807D01*
X0257016Y0264608D02*
X0238045Y0264608D01*
X0238045Y0263410D02*
X0255667Y0263410D01*
X0254468Y0262211D02*
X0238045Y0262211D01*
X0238045Y0261012D02*
X0253270Y0261012D01*
X0252071Y0259814D02*
X0238045Y0259814D01*
X0238045Y0258615D02*
X0250873Y0258615D01*
X0249674Y0257417D02*
X0238045Y0257417D01*
X0238045Y0256218D02*
X0248476Y0256218D01*
X0247277Y0255020D02*
X0238045Y0255020D01*
X0238045Y0253821D02*
X0246079Y0253821D01*
X0244880Y0252623D02*
X0238045Y0252623D01*
X0238045Y0251424D02*
X0243682Y0251424D01*
X0242483Y0250226D02*
X0238045Y0250226D01*
X0238655Y0249027D02*
X0241853Y0249027D01*
X0242294Y0247829D02*
X0239853Y0247829D01*
X0241052Y0246630D02*
X0243493Y0246630D01*
X0244691Y0245432D02*
X0242251Y0245432D01*
X0243449Y0244233D02*
X0245890Y0244233D01*
X0247089Y0243035D02*
X0244648Y0243035D01*
X0245846Y0241836D02*
X0248287Y0241836D01*
X0249486Y0240638D02*
X0247045Y0240638D01*
X0248243Y0239439D02*
X0250684Y0239439D01*
X0251883Y0238241D02*
X0249442Y0238241D01*
X0250640Y0237042D02*
X0253081Y0237042D01*
X0254280Y0235844D02*
X0251839Y0235844D01*
X0253037Y0234645D02*
X0255478Y0234645D01*
X0254236Y0233447D02*
X0256723Y0233447D01*
X0258467Y0233447D02*
X0288177Y0233447D01*
X0286979Y0234645D02*
X0259712Y0234645D01*
X0260911Y0235844D02*
X0285780Y0235844D01*
X0284582Y0237042D02*
X0262109Y0237042D01*
X0263308Y0238241D02*
X0283383Y0238241D01*
X0282185Y0239439D02*
X0264506Y0239439D01*
X0265705Y0240638D02*
X0280986Y0240638D01*
X0279788Y0241836D02*
X0266903Y0241836D01*
X0265798Y0240731D02*
X0257595Y0248933D01*
X0257595Y0248933D01*
X0257595Y0248933D01*
X0265798Y0240731D01*
X0264692Y0241836D02*
X0264692Y0241836D01*
X0263493Y0243035D02*
X0263493Y0243035D01*
X0262295Y0244233D02*
X0262295Y0244233D01*
X0261096Y0245432D02*
X0261096Y0245432D01*
X0259898Y0246630D02*
X0259898Y0246630D01*
X0258699Y0247829D02*
X0258699Y0247829D01*
X0257501Y0249027D02*
X0257501Y0249027D01*
X0256491Y0247829D02*
X0256491Y0247829D01*
X0255293Y0246630D02*
X0255292Y0246630D01*
X0254094Y0245432D02*
X0254094Y0245432D01*
X0252895Y0244233D02*
X0252895Y0244233D01*
X0251697Y0243035D02*
X0251697Y0243035D01*
X0250498Y0241836D02*
X0250498Y0241836D01*
X0256302Y0250226D02*
X0256302Y0250226D01*
X0255104Y0251424D02*
X0255104Y0251424D01*
X0253905Y0252623D02*
X0253905Y0252623D01*
X0252707Y0253821D02*
X0252707Y0253821D01*
X0251508Y0255020D02*
X0251508Y0255020D01*
X0250310Y0256218D02*
X0250310Y0256218D01*
X0236345Y0248933D02*
X0236345Y0269637D01*
X0231970Y0274012D01*
X0231015Y0276593D02*
X0227734Y0276593D01*
X0226206Y0276593D02*
X0209053Y0276593D01*
X0207516Y0278933D02*
X0207516Y0283933D01*
X0205060Y0280189D02*
X0201170Y0280189D01*
X0201170Y0278990D02*
X0204766Y0278990D01*
X0205013Y0277792D02*
X0201170Y0277792D01*
X0201170Y0276593D02*
X0205979Y0276593D01*
X0209973Y0280189D02*
X0238700Y0280189D01*
X0238021Y0281387D02*
X0214916Y0281387D01*
X0214916Y0282586D02*
X0237970Y0282586D01*
X0238557Y0283784D02*
X0214916Y0283784D01*
X0214916Y0292174D02*
X0218354Y0292174D01*
X0217156Y0293372D02*
X0214916Y0293372D01*
X0214916Y0294571D02*
X0215957Y0294571D01*
X0215095Y0295769D02*
X0214916Y0295769D01*
X0214836Y0296968D02*
X0215095Y0296968D01*
X0215095Y0298166D02*
X0190333Y0298166D01*
X0190424Y0299365D02*
X0215095Y0299365D01*
X0208116Y0300563D02*
X0206916Y0300563D01*
X0206916Y0301762D02*
X0208116Y0301762D01*
X0208116Y0302960D02*
X0206916Y0302960D01*
X0206916Y0304159D02*
X0195073Y0304159D01*
X0195073Y0305357D02*
X0199617Y0305357D01*
X0199617Y0304533D02*
X0206916Y0304533D01*
X0206916Y0308033D01*
X0201007Y0308033D01*
X0200600Y0307924D01*
X0200235Y0307713D01*
X0199937Y0307415D01*
X0199726Y0307051D01*
X0199617Y0306644D01*
X0199617Y0304533D01*
X0199617Y0302960D02*
X0195073Y0302960D01*
X0195073Y0301762D02*
X0199617Y0301762D01*
X0199872Y0300563D02*
X0194659Y0300563D01*
X0194994Y0296968D02*
X0200196Y0296968D01*
X0200117Y0295769D02*
X0195073Y0295769D01*
X0196237Y0294571D02*
X0197079Y0294571D01*
X0198845Y0293933D02*
X0197595Y0292683D01*
X0197595Y0278933D01*
X0196345Y0277683D01*
X0193845Y0277683D01*
X0192595Y0276433D01*
X0192595Y0218933D01*
X0193845Y0217683D01*
X0243220Y0217683D01*
X0246345Y0214558D01*
X0246345Y0212683D01*
X0246345Y0198308D01*
X0248845Y0195808D01*
X0350627Y0195808D01*
X0412220Y0195808D01*
X0447595Y0195808D01*
X0445618Y0193896D02*
X0444802Y0193896D01*
X0445026Y0192697D02*
X0485467Y0192697D01*
X0485696Y0193251D02*
X0484853Y0191216D01*
X0484853Y0189013D01*
X0485696Y0186978D01*
X0487254Y0185420D01*
X0489289Y0184577D01*
X0491492Y0184577D01*
X0493527Y0185420D01*
X0495084Y0186978D01*
X0495927Y0189013D01*
X0495927Y0191216D01*
X0495084Y0193251D01*
X0493527Y0194808D01*
X0491492Y0195651D01*
X0489289Y0195651D01*
X0487254Y0194808D01*
X0485696Y0193251D01*
X0486342Y0193896D02*
X0483853Y0193896D01*
X0483853Y0193596D02*
X0483853Y0199487D01*
X0486676Y0199487D01*
X0486970Y0199781D01*
X0487264Y0199487D01*
X0490676Y0199487D01*
X0491320Y0200131D01*
X0491320Y0200689D01*
X0491873Y0200135D01*
X0493153Y0199606D01*
X0494538Y0199606D01*
X0495817Y0200135D01*
X0495895Y0200214D01*
X0495895Y0198622D01*
X0495264Y0197991D01*
X0494845Y0196980D01*
X0494845Y0195886D01*
X0495264Y0194875D01*
X0496037Y0194102D01*
X0497048Y0193683D01*
X0498142Y0193683D01*
X0499153Y0194102D01*
X0499926Y0194875D01*
X0500345Y0195886D01*
X0500345Y0196980D01*
X0499926Y0197991D01*
X0499295Y0198622D01*
X0499295Y0207137D01*
X0498299Y0208133D01*
X0498045Y0208387D01*
X0498045Y0209559D01*
X0498676Y0210190D01*
X0499095Y0211201D01*
X0499095Y0212295D01*
X0498676Y0213306D01*
X0497903Y0214079D01*
X0496892Y0214498D01*
X0495798Y0214498D01*
X0494787Y0214079D01*
X0494014Y0213306D01*
X0493595Y0212295D01*
X0493595Y0211201D01*
X0494014Y0210190D01*
X0494645Y0209559D01*
X0494645Y0206979D01*
X0495423Y0206201D01*
X0494538Y0206568D01*
X0493153Y0206568D01*
X0491873Y0206038D01*
X0491320Y0205485D01*
X0491320Y0206042D01*
X0490676Y0206687D01*
X0487264Y0206687D01*
X0486970Y0206392D01*
X0486676Y0206687D01*
X0483853Y0206687D01*
X0483853Y0212617D01*
X0483208Y0213261D01*
X0477573Y0213261D01*
X0476928Y0212617D01*
X0476928Y0205800D01*
X0477573Y0205156D01*
X0480457Y0205156D01*
X0479438Y0204137D01*
X0478090Y0202789D01*
X0478090Y0201057D01*
X0477573Y0201057D01*
X0476928Y0200412D01*
X0476928Y0193596D01*
X0477573Y0192951D01*
X0483208Y0192951D01*
X0483853Y0193596D01*
X0483853Y0195094D02*
X0487945Y0195094D01*
X0483853Y0196293D02*
X0494845Y0196293D01*
X0495057Y0197491D02*
X0483853Y0197491D01*
X0483853Y0198690D02*
X0495895Y0198690D01*
X0495895Y0199888D02*
X0495221Y0199888D01*
X0492470Y0199888D02*
X0491078Y0199888D01*
X0492836Y0195094D02*
X0495173Y0195094D01*
X0494439Y0193896D02*
X0496534Y0193896D01*
X0495314Y0192697D02*
X0540745Y0192697D01*
X0540745Y0191499D02*
X0495810Y0191499D01*
X0495927Y0190300D02*
X0540745Y0190300D01*
X0540745Y0189102D02*
X0530053Y0189102D01*
X0528972Y0189391D02*
X0526218Y0189391D01*
X0523558Y0188679D01*
X0521174Y0187302D01*
X0519226Y0185355D01*
X0517850Y0182970D01*
X0517137Y0180310D01*
X0517137Y0177556D01*
X0517850Y0174896D01*
X0519226Y0172512D01*
X0521174Y0170564D01*
X0523558Y0169188D01*
X0526218Y0168475D01*
X0528972Y0168475D01*
X0531632Y0169188D01*
X0534017Y0170564D01*
X0535964Y0172512D01*
X0537341Y0174896D01*
X0538053Y0177556D01*
X0538053Y0180310D01*
X0537341Y0182970D01*
X0535964Y0185355D01*
X0534017Y0187302D01*
X0531632Y0188679D01*
X0528972Y0189391D01*
X0525138Y0189102D02*
X0495927Y0189102D01*
X0495468Y0187903D02*
X0522216Y0187903D01*
X0520577Y0186705D02*
X0494812Y0186705D01*
X0493613Y0185506D02*
X0519378Y0185506D01*
X0518622Y0184308D02*
X0241947Y0184308D01*
X0240184Y0186433D02*
X0380095Y0186433D01*
X0382595Y0188933D01*
X0465095Y0188933D01*
X0467645Y0187903D02*
X0485313Y0187903D01*
X0484853Y0189102D02*
X0467845Y0189102D01*
X0467505Y0190300D02*
X0484853Y0190300D01*
X0484971Y0191499D02*
X0466087Y0191499D01*
X0464103Y0191499D02*
X0444710Y0191499D01*
X0442276Y0192808D02*
X0407220Y0192808D01*
X0354564Y0192808D01*
X0245595Y0192808D01*
X0243095Y0195308D01*
X0243095Y0210183D01*
X0243095Y0214683D01*
X0241970Y0215808D01*
X0191970Y0215808D01*
X0190720Y0217058D01*
X0190720Y0278308D01*
X0191970Y0279558D01*
X0194470Y0279558D01*
X0195720Y0280808D01*
X0195720Y0292683D01*
X0194470Y0293933D01*
X0187674Y0293933D01*
X0185015Y0298166D02*
X0164445Y0298166D01*
X0164445Y0296968D02*
X0180354Y0296968D01*
X0180275Y0295769D02*
X0164445Y0295769D01*
X0164445Y0294571D02*
X0180275Y0294571D01*
X0180275Y0293372D02*
X0164445Y0293372D01*
X0164445Y0292174D02*
X0180275Y0292174D01*
X0180277Y0290975D02*
X0164445Y0290975D01*
X0164445Y0289777D02*
X0194020Y0289777D01*
X0194020Y0288578D02*
X0164445Y0288578D01*
X0164445Y0287380D02*
X0180766Y0287380D01*
X0180275Y0286181D02*
X0164445Y0286181D01*
X0164445Y0284983D02*
X0180275Y0284983D01*
X0180275Y0283784D02*
X0164445Y0283784D01*
X0164445Y0282586D02*
X0180275Y0282586D01*
X0180275Y0281387D02*
X0164445Y0281387D01*
X0164445Y0280189D02*
X0185217Y0280189D01*
X0184924Y0278990D02*
X0164445Y0278990D01*
X0164445Y0277792D02*
X0185170Y0277792D01*
X0186137Y0276593D02*
X0164445Y0276593D01*
X0164445Y0275395D02*
X0189020Y0275395D01*
X0189020Y0274196D02*
X0164445Y0274196D01*
X0164445Y0272998D02*
X0189020Y0272998D01*
X0189020Y0271799D02*
X0164445Y0271799D01*
X0164445Y0270601D02*
X0189020Y0270601D01*
X0189020Y0269402D02*
X0186015Y0269402D01*
X0186176Y0269241D02*
X0185403Y0270014D01*
X0184392Y0270433D01*
X0183298Y0270433D01*
X0182287Y0270014D01*
X0181514Y0269241D01*
X0181095Y0268230D01*
X0181095Y0267136D01*
X0181514Y0266125D01*
X0182145Y0265494D01*
X0182145Y0246584D01*
X0182089Y0246561D01*
X0181217Y0245689D01*
X0180745Y0244550D01*
X0180745Y0199822D01*
X0181978Y0196845D01*
X0181978Y0196845D01*
X0184257Y0194566D01*
X0187234Y0193333D01*
X0192595Y0193333D01*
X0193088Y0193294D01*
X0194025Y0192990D01*
X0194823Y0192410D01*
X0195402Y0191613D01*
X0195706Y0190676D01*
X0195745Y0190183D01*
X0195745Y0168316D01*
X0196217Y0167177D01*
X0197089Y0166305D01*
X0198229Y0165833D01*
X0486962Y0165833D01*
X0488101Y0166305D01*
X0488973Y0167177D01*
X0488996Y0167233D01*
X0500799Y0167233D01*
X0501795Y0168229D01*
X0503045Y0169479D01*
X0503045Y0177119D01*
X0503317Y0177232D01*
X0504296Y0178211D01*
X0504826Y0179491D01*
X0504826Y0180876D01*
X0504296Y0182155D01*
X0503317Y0183134D01*
X0502038Y0183664D01*
X0500653Y0183664D01*
X0499373Y0183134D01*
X0498394Y0182155D01*
X0497864Y0180876D01*
X0497864Y0179491D01*
X0498394Y0178211D01*
X0499373Y0177232D01*
X0499645Y0177119D01*
X0499645Y0170887D01*
X0499391Y0170633D01*
X0488996Y0170633D01*
X0488973Y0170689D01*
X0488101Y0171561D01*
X0486962Y0172033D01*
X0467698Y0172033D01*
X0470598Y0174933D01*
X0470642Y0174933D01*
X0471653Y0175352D01*
X0472426Y0176125D01*
X0472845Y0177136D01*
X0472845Y0178230D01*
X0472426Y0179241D01*
X0471653Y0180014D01*
X0470642Y0180433D01*
X0469548Y0180433D01*
X0468537Y0180014D01*
X0467764Y0179241D01*
X0467345Y0178230D01*
X0467345Y0178186D01*
X0465649Y0176489D01*
X0465705Y0176625D01*
X0465705Y0177958D01*
X0465195Y0179189D01*
X0464253Y0180131D01*
X0463021Y0180641D01*
X0461689Y0180641D01*
X0460457Y0180131D01*
X0459515Y0179189D01*
X0459005Y0177958D01*
X0459005Y0176625D01*
X0459515Y0175394D01*
X0459926Y0174983D01*
X0433288Y0174983D01*
X0433699Y0175394D01*
X0434209Y0176625D01*
X0434209Y0177958D01*
X0433699Y0179189D01*
X0432757Y0180131D01*
X0431525Y0180641D01*
X0430193Y0180641D01*
X0428961Y0180131D01*
X0428019Y0179189D01*
X0427509Y0177958D01*
X0427509Y0176625D01*
X0428019Y0175394D01*
X0428430Y0174983D01*
X0255423Y0174983D01*
X0253138Y0177268D01*
X0253138Y0177312D01*
X0252719Y0178323D01*
X0251946Y0179097D01*
X0250935Y0179515D01*
X0249841Y0179515D01*
X0248830Y0179097D01*
X0248799Y0179065D01*
X0222386Y0179065D01*
X0221735Y0179716D01*
X0220455Y0180246D01*
X0219071Y0180246D01*
X0217791Y0179716D01*
X0216812Y0178737D01*
X0216282Y0177458D01*
X0216282Y0176073D01*
X0216812Y0174793D01*
X0217791Y0173814D01*
X0219071Y0173284D01*
X0220455Y0173284D01*
X0221735Y0173814D01*
X0222386Y0174465D01*
X0248799Y0174465D01*
X0248830Y0174434D01*
X0249841Y0174015D01*
X0249885Y0174015D01*
X0251867Y0172033D01*
X0201945Y0172033D01*
X0201945Y0191664D01*
X0201030Y0194481D01*
X0199289Y0196877D01*
X0196893Y0198618D01*
X0194076Y0199533D01*
X0188845Y0199533D01*
X0188474Y0199570D01*
X0187790Y0199853D01*
X0187265Y0200377D01*
X0186982Y0201062D01*
X0186945Y0201433D01*
X0186945Y0244550D01*
X0186473Y0245689D01*
X0185601Y0246561D01*
X0185545Y0246584D01*
X0185545Y0265494D01*
X0186176Y0266125D01*
X0186595Y0267136D01*
X0186595Y0268230D01*
X0186176Y0269241D01*
X0186595Y0268204D02*
X0189020Y0268204D01*
X0189020Y0267005D02*
X0186541Y0267005D01*
X0185858Y0265807D02*
X0189020Y0265807D01*
X0189020Y0264608D02*
X0185545Y0264608D01*
X0185545Y0263410D02*
X0189020Y0263410D01*
X0189020Y0262211D02*
X0185545Y0262211D01*
X0185545Y0261012D02*
X0189020Y0261012D01*
X0189020Y0259814D02*
X0185545Y0259814D01*
X0185545Y0258615D02*
X0189020Y0258615D01*
X0189020Y0257417D02*
X0185545Y0257417D01*
X0185545Y0256218D02*
X0189020Y0256218D01*
X0189020Y0255020D02*
X0185545Y0255020D01*
X0185545Y0253821D02*
X0189020Y0253821D01*
X0189020Y0252623D02*
X0185545Y0252623D01*
X0185545Y0251424D02*
X0189020Y0251424D01*
X0189020Y0250226D02*
X0185545Y0250226D01*
X0185545Y0249027D02*
X0189020Y0249027D01*
X0189020Y0247829D02*
X0185545Y0247829D01*
X0185545Y0246630D02*
X0189020Y0246630D01*
X0189020Y0245432D02*
X0186580Y0245432D01*
X0186945Y0244233D02*
X0189020Y0244233D01*
X0189020Y0243035D02*
X0186945Y0243035D01*
X0186945Y0241836D02*
X0189020Y0241836D01*
X0189020Y0240638D02*
X0186945Y0240638D01*
X0186945Y0239439D02*
X0189020Y0239439D01*
X0189020Y0238241D02*
X0186945Y0238241D01*
X0186945Y0237042D02*
X0189020Y0237042D01*
X0189020Y0235844D02*
X0186945Y0235844D01*
X0186945Y0234645D02*
X0189020Y0234645D01*
X0189020Y0233447D02*
X0186945Y0233447D01*
X0186945Y0232248D02*
X0189020Y0232248D01*
X0189020Y0231050D02*
X0186945Y0231050D01*
X0186945Y0229851D02*
X0189020Y0229851D01*
X0189020Y0228653D02*
X0186945Y0228653D01*
X0186945Y0227454D02*
X0189020Y0227454D01*
X0189020Y0226256D02*
X0186945Y0226256D01*
X0186945Y0225057D02*
X0189020Y0225057D01*
X0189020Y0223859D02*
X0186945Y0223859D01*
X0186945Y0222660D02*
X0189020Y0222660D01*
X0189020Y0221462D02*
X0186945Y0221462D01*
X0186945Y0220263D02*
X0189020Y0220263D01*
X0189020Y0219065D02*
X0186945Y0219065D01*
X0186945Y0217866D02*
X0189020Y0217866D01*
X0189020Y0216668D02*
X0186945Y0216668D01*
X0186945Y0215469D02*
X0189905Y0215469D01*
X0190270Y0215104D02*
X0190270Y0215104D01*
X0191103Y0214271D02*
X0186945Y0214271D01*
X0186945Y0213072D02*
X0241395Y0213072D01*
X0240897Y0211874D02*
X0186945Y0211874D01*
X0186945Y0210675D02*
X0240345Y0210675D01*
X0240411Y0209477D02*
X0198946Y0209477D01*
X0198538Y0209884D02*
X0199518Y0208905D01*
X0200048Y0207626D01*
X0200048Y0206241D01*
X0199518Y0204961D01*
X0198538Y0203982D01*
X0197259Y0203452D01*
X0195874Y0203452D01*
X0194595Y0203982D01*
X0193615Y0204961D01*
X0193085Y0206241D01*
X0193085Y0207626D01*
X0193615Y0208905D01*
X0194595Y0209884D01*
X0195874Y0210414D01*
X0197259Y0210414D01*
X0198538Y0209884D01*
X0199777Y0208278D02*
X0241111Y0208278D01*
X0241395Y0207079D02*
X0200048Y0207079D01*
X0199899Y0205881D02*
X0241395Y0205881D01*
X0241395Y0204682D02*
X0199239Y0204682D01*
X0197336Y0203484D02*
X0241395Y0203484D01*
X0241395Y0202285D02*
X0186945Y0202285D01*
X0186979Y0201087D02*
X0241395Y0201087D01*
X0241395Y0199888D02*
X0187754Y0199888D01*
X0186945Y0203484D02*
X0195797Y0203484D01*
X0193894Y0204682D02*
X0186945Y0204682D01*
X0186945Y0205881D02*
X0193234Y0205881D01*
X0193085Y0207079D02*
X0186945Y0207079D01*
X0186945Y0208278D02*
X0193356Y0208278D01*
X0194187Y0209477D02*
X0186945Y0209477D01*
X0180745Y0209477D02*
X0164445Y0209477D01*
X0164445Y0210675D02*
X0180745Y0210675D01*
X0180745Y0211874D02*
X0164445Y0211874D01*
X0164445Y0213072D02*
X0180745Y0213072D01*
X0180745Y0214271D02*
X0164445Y0214271D01*
X0164445Y0215469D02*
X0180745Y0215469D01*
X0180745Y0216668D02*
X0164445Y0216668D01*
X0164445Y0217866D02*
X0180745Y0217866D01*
X0180745Y0219065D02*
X0164445Y0219065D01*
X0164445Y0220263D02*
X0180745Y0220263D01*
X0180745Y0221462D02*
X0164445Y0221462D01*
X0164445Y0222660D02*
X0180745Y0222660D01*
X0180745Y0223859D02*
X0164445Y0223859D01*
X0164445Y0225057D02*
X0180745Y0225057D01*
X0180745Y0226256D02*
X0164445Y0226256D01*
X0164445Y0227454D02*
X0180745Y0227454D01*
X0180745Y0228653D02*
X0164445Y0228653D01*
X0164445Y0229851D02*
X0180745Y0229851D01*
X0180745Y0231050D02*
X0164445Y0231050D01*
X0164445Y0232248D02*
X0180745Y0232248D01*
X0180745Y0233447D02*
X0164445Y0233447D01*
X0164445Y0234645D02*
X0180745Y0234645D01*
X0180745Y0235844D02*
X0164445Y0235844D01*
X0164445Y0237042D02*
X0180745Y0237042D01*
X0180745Y0238241D02*
X0164445Y0238241D01*
X0164445Y0239439D02*
X0180745Y0239439D01*
X0180745Y0240638D02*
X0164445Y0240638D01*
X0164445Y0241836D02*
X0180745Y0241836D01*
X0180745Y0243035D02*
X0164445Y0243035D01*
X0164445Y0244233D02*
X0180745Y0244233D01*
X0181111Y0245432D02*
X0164445Y0245432D01*
X0164445Y0246630D02*
X0182145Y0246630D01*
X0182145Y0247829D02*
X0164445Y0247829D01*
X0164445Y0249027D02*
X0182145Y0249027D01*
X0182145Y0250226D02*
X0164445Y0250226D01*
X0164445Y0251424D02*
X0182145Y0251424D01*
X0182145Y0252623D02*
X0164445Y0252623D01*
X0164445Y0253821D02*
X0182145Y0253821D01*
X0182145Y0255020D02*
X0164445Y0255020D01*
X0164445Y0256218D02*
X0182145Y0256218D01*
X0182145Y0257417D02*
X0164445Y0257417D01*
X0164445Y0258615D02*
X0182145Y0258615D01*
X0182145Y0259814D02*
X0164445Y0259814D01*
X0164445Y0261012D02*
X0182145Y0261012D01*
X0182145Y0262211D02*
X0164445Y0262211D01*
X0164445Y0263410D02*
X0182145Y0263410D01*
X0182145Y0264608D02*
X0164445Y0264608D01*
X0164445Y0265807D02*
X0181833Y0265807D01*
X0181149Y0267005D02*
X0164445Y0267005D01*
X0164445Y0268204D02*
X0181095Y0268204D01*
X0181675Y0269402D02*
X0164445Y0269402D01*
X0183845Y0267683D02*
X0183845Y0243933D01*
X0198045Y0244233D02*
X0219877Y0244233D01*
X0219005Y0245432D02*
X0198045Y0245432D01*
X0198045Y0246630D02*
X0218817Y0246630D01*
X0219168Y0247829D02*
X0198045Y0247829D01*
X0198045Y0249027D02*
X0220644Y0249027D01*
X0222489Y0249027D02*
X0226672Y0249027D01*
X0228518Y0249027D02*
X0229020Y0249027D01*
X0229020Y0250226D02*
X0198045Y0250226D01*
X0198045Y0251424D02*
X0229020Y0251424D01*
X0229020Y0252623D02*
X0198045Y0252623D01*
X0198045Y0253821D02*
X0229020Y0253821D01*
X0229020Y0255020D02*
X0198045Y0255020D01*
X0198045Y0256218D02*
X0229020Y0256218D01*
X0229020Y0257417D02*
X0198045Y0257417D01*
X0198045Y0258615D02*
X0229020Y0258615D01*
X0228527Y0259814D02*
X0198045Y0259814D01*
X0198045Y0261012D02*
X0227328Y0261012D01*
X0226130Y0262211D02*
X0198045Y0262211D01*
X0198045Y0263410D02*
X0224931Y0263410D01*
X0223733Y0264608D02*
X0198045Y0264608D01*
X0198045Y0265807D02*
X0221066Y0265807D01*
X0220093Y0267005D02*
X0198045Y0267005D01*
X0198045Y0268204D02*
X0219845Y0268204D01*
X0220137Y0269402D02*
X0198045Y0269402D01*
X0198542Y0270601D02*
X0220709Y0270601D01*
X0219952Y0271799D02*
X0199740Y0271799D01*
X0200545Y0272998D02*
X0219845Y0272998D01*
X0220298Y0274196D02*
X0200545Y0274196D01*
X0200545Y0275395D02*
X0224599Y0275395D01*
X0226970Y0273933D02*
X0234470Y0266433D01*
X0234470Y0248308D01*
X0258845Y0223933D01*
X0361188Y0223933D01*
X0362438Y0225183D01*
X0365125Y0222058D02*
X0258220Y0222058D01*
X0232595Y0247683D01*
X0232595Y0262604D01*
X0222595Y0272604D01*
X0222595Y0268150D02*
X0230720Y0260025D01*
X0230720Y0247058D01*
X0257595Y0220183D01*
X0368220Y0220183D01*
X0370720Y0222683D01*
X0375095Y0227058D01*
X0377595Y0227058D01*
X0381345Y0225183D02*
X0377595Y0221433D01*
X0380345Y0221462D02*
X0400541Y0221462D01*
X0400489Y0221200D02*
X0400489Y0220808D01*
X0400489Y0220416D01*
X0400642Y0219647D01*
X0400942Y0218922D01*
X0401052Y0218758D01*
X0378323Y0218758D01*
X0379153Y0219102D01*
X0379926Y0219875D01*
X0380345Y0220886D01*
X0380345Y0221779D01*
X0382049Y0223483D01*
X0395406Y0223483D01*
X0396037Y0222852D01*
X0397048Y0222433D01*
X0398142Y0222433D01*
X0399153Y0222852D01*
X0399926Y0223625D01*
X0400345Y0224636D01*
X0400345Y0225730D01*
X0399926Y0226741D01*
X0399434Y0227233D01*
X0426031Y0227233D01*
X0426662Y0226602D01*
X0427673Y0226183D01*
X0428767Y0226183D01*
X0429645Y0226547D01*
X0429645Y0220262D01*
X0428141Y0218758D01*
X0414531Y0218758D01*
X0414609Y0218836D01*
X0415139Y0220116D01*
X0415139Y0221501D01*
X0414609Y0222780D01*
X0413630Y0223759D01*
X0412350Y0224289D01*
X0410965Y0224289D01*
X0409686Y0223759D01*
X0408707Y0222780D01*
X0408322Y0221851D01*
X0408298Y0221969D01*
X0407998Y0222694D01*
X0407562Y0223346D01*
X0407008Y0223900D01*
X0406356Y0224336D01*
X0405631Y0224636D01*
X0404862Y0224789D01*
X0404470Y0224789D01*
X0404078Y0224789D01*
X0403309Y0224636D01*
X0402584Y0224336D01*
X0401932Y0223900D01*
X0401378Y0223346D01*
X0400942Y0222694D01*
X0400642Y0221969D01*
X0400489Y0221200D01*
X0400489Y0220808D02*
X0404470Y0220808D01*
X0400489Y0220808D01*
X0400519Y0220263D02*
X0380087Y0220263D01*
X0379063Y0219065D02*
X0400883Y0219065D01*
X0400928Y0222660D02*
X0398690Y0222660D01*
X0400023Y0223859D02*
X0401891Y0223859D01*
X0400345Y0225057D02*
X0429645Y0225057D01*
X0429645Y0223859D02*
X0413389Y0223859D01*
X0414658Y0222660D02*
X0429645Y0222660D01*
X0429645Y0221462D02*
X0415139Y0221462D01*
X0415139Y0220263D02*
X0429645Y0220263D01*
X0428448Y0219065D02*
X0414703Y0219065D01*
X0409926Y0223859D02*
X0407050Y0223859D01*
X0408012Y0222660D02*
X0408657Y0222660D01*
X0404470Y0222660D02*
X0404470Y0222660D01*
X0404470Y0221462D02*
X0404470Y0221462D01*
X0404470Y0220808D02*
X0404470Y0224789D01*
X0404470Y0220808D01*
X0404470Y0220808D01*
X0404470Y0220808D01*
X0404470Y0223859D02*
X0404470Y0223859D01*
X0400127Y0226256D02*
X0427498Y0226256D01*
X0428942Y0226256D02*
X0429645Y0226256D01*
X0428220Y0228933D02*
X0394470Y0228933D01*
X0393220Y0227683D01*
X0389470Y0227683D01*
X0386970Y0230183D01*
X0293845Y0230183D01*
X0255720Y0268308D01*
X0247129Y0268308D01*
X0239629Y0275808D01*
X0241534Y0277792D02*
X0242177Y0277792D01*
X0244083Y0275808D02*
X0249708Y0270183D01*
X0256345Y0270183D01*
X0294470Y0232058D01*
X0387595Y0232058D01*
X0390095Y0229558D01*
X0392595Y0229558D01*
X0395095Y0232058D01*
X0425095Y0232058D01*
X0431345Y0232058D02*
X0431345Y0219558D01*
X0428845Y0217058D01*
X0258220Y0217058D01*
X0228845Y0246433D01*
X0227595Y0246433D01*
X0224845Y0246630D02*
X0224622Y0246630D01*
X0225197Y0247829D02*
X0223965Y0247829D01*
X0221712Y0243035D02*
X0198045Y0243035D01*
X0198045Y0241836D02*
X0222911Y0241836D01*
X0224109Y0240638D02*
X0198045Y0240638D01*
X0198045Y0239439D02*
X0228836Y0239439D01*
X0230035Y0238241D02*
X0198045Y0238241D01*
X0198045Y0237042D02*
X0231233Y0237042D01*
X0232432Y0235844D02*
X0198045Y0235844D01*
X0198045Y0234645D02*
X0233630Y0234645D01*
X0234829Y0233447D02*
X0198045Y0233447D01*
X0198045Y0232248D02*
X0236027Y0232248D01*
X0235823Y0231050D02*
X0198045Y0231050D01*
X0198045Y0229851D02*
X0234999Y0229851D01*
X0234845Y0228653D02*
X0198045Y0228653D01*
X0198045Y0227454D02*
X0235231Y0227454D01*
X0236345Y0224558D02*
X0200095Y0224558D01*
X0197595Y0221433D02*
X0245095Y0221433D01*
X0256970Y0209558D01*
X0270845Y0209558D01*
X0273359Y0210675D02*
X0476928Y0210675D01*
X0476928Y0209477D02*
X0273595Y0209477D01*
X0273291Y0208278D02*
X0476928Y0208278D01*
X0476928Y0207079D02*
X0460570Y0207079D01*
X0460608Y0207041D02*
X0460310Y0207339D01*
X0459945Y0207550D01*
X0459538Y0207659D01*
X0456975Y0207659D01*
X0456975Y0203706D01*
X0460927Y0203706D01*
X0460927Y0206270D01*
X0460818Y0206677D01*
X0460608Y0207041D01*
X0460927Y0205881D02*
X0476928Y0205881D01*
X0478785Y0203484D02*
X0456975Y0203484D01*
X0456975Y0203706D02*
X0456975Y0202506D01*
X0460927Y0202506D01*
X0460927Y0199943D01*
X0460818Y0199536D01*
X0460608Y0199171D01*
X0460310Y0198873D01*
X0459945Y0198663D01*
X0459538Y0198554D01*
X0456975Y0198554D01*
X0456975Y0202506D01*
X0455775Y0202506D01*
X0455775Y0198554D01*
X0453211Y0198554D01*
X0452804Y0198663D01*
X0452439Y0198873D01*
X0452142Y0199171D01*
X0451931Y0199536D01*
X0451822Y0199943D01*
X0451822Y0202506D01*
X0455775Y0202506D01*
X0455775Y0203706D01*
X0455775Y0207659D01*
X0453211Y0207659D01*
X0452804Y0207550D01*
X0452439Y0207339D01*
X0452142Y0207041D01*
X0451931Y0206677D01*
X0451822Y0206270D01*
X0451822Y0203706D01*
X0455775Y0203706D01*
X0456975Y0203706D01*
X0456975Y0204682D02*
X0455775Y0204682D01*
X0455775Y0203484D02*
X0395240Y0203484D01*
X0395345Y0202285D02*
X0451822Y0202285D01*
X0451822Y0201087D02*
X0435225Y0201087D01*
X0436144Y0199888D02*
X0451837Y0199888D01*
X0452757Y0198690D02*
X0436365Y0198690D01*
X0433615Y0198808D02*
X0397595Y0198808D01*
X0252095Y0198808D01*
X0249595Y0201308D01*
X0249595Y0210183D01*
X0249595Y0213933D01*
X0243970Y0219558D01*
X0195720Y0219558D01*
X0194470Y0220808D01*
X0194470Y0273308D01*
X0195720Y0274558D01*
X0198845Y0273308D02*
X0196345Y0270808D01*
X0196345Y0222683D01*
X0197595Y0221433D01*
X0180745Y0208278D02*
X0164445Y0208278D01*
X0164445Y0207079D02*
X0180745Y0207079D01*
X0180745Y0205881D02*
X0164445Y0205881D01*
X0164445Y0204682D02*
X0180745Y0204682D01*
X0180745Y0203484D02*
X0164445Y0203484D01*
X0164445Y0202285D02*
X0180745Y0202285D01*
X0180745Y0201087D02*
X0164445Y0201087D01*
X0164445Y0199888D02*
X0180745Y0199888D01*
X0181214Y0198690D02*
X0164445Y0198690D01*
X0164445Y0197491D02*
X0181710Y0197491D01*
X0182530Y0196293D02*
X0164445Y0196293D01*
X0164445Y0195094D02*
X0183729Y0195094D01*
X0184257Y0194566D02*
X0184257Y0194566D01*
X0185875Y0193896D02*
X0164445Y0193896D01*
X0164445Y0192697D02*
X0194428Y0192697D01*
X0193088Y0193294D02*
X0193088Y0193294D01*
X0195439Y0191499D02*
X0164445Y0191499D01*
X0164445Y0190300D02*
X0195736Y0190300D01*
X0195745Y0189102D02*
X0180053Y0189102D01*
X0178972Y0189391D02*
X0176218Y0189391D01*
X0173558Y0188679D01*
X0171174Y0187302D01*
X0169226Y0185355D01*
X0167850Y0182970D01*
X0167137Y0180310D01*
X0167137Y0177556D01*
X0167850Y0174896D01*
X0169226Y0172512D01*
X0171174Y0170564D01*
X0173558Y0169188D01*
X0176218Y0168475D01*
X0178972Y0168475D01*
X0181632Y0169188D01*
X0184017Y0170564D01*
X0185964Y0172512D01*
X0187341Y0174896D01*
X0188053Y0177556D01*
X0188053Y0180310D01*
X0187341Y0182970D01*
X0185964Y0185355D01*
X0184017Y0187302D01*
X0181632Y0188679D01*
X0178972Y0189391D01*
X0175138Y0189102D02*
X0164445Y0189102D01*
X0164445Y0187903D02*
X0172216Y0187903D01*
X0170577Y0186705D02*
X0164445Y0186705D01*
X0164445Y0185506D02*
X0169378Y0185506D01*
X0168622Y0184308D02*
X0164445Y0184308D01*
X0164445Y0183109D02*
X0167930Y0183109D01*
X0167566Y0181911D02*
X0164445Y0181911D01*
X0164445Y0180712D02*
X0167245Y0180712D01*
X0167137Y0179514D02*
X0164445Y0179514D01*
X0164486Y0178315D02*
X0167137Y0178315D01*
X0167255Y0177117D02*
X0164584Y0177117D01*
X0164906Y0175918D02*
X0167576Y0175918D01*
X0167952Y0174720D02*
X0165227Y0174720D01*
X0165665Y0173521D02*
X0168644Y0173521D01*
X0169415Y0172323D02*
X0166357Y0172323D01*
X0167049Y0171124D02*
X0170614Y0171124D01*
X0172280Y0169926D02*
X0168165Y0169926D01*
X0169363Y0168727D02*
X0175277Y0168727D01*
X0174257Y0166330D02*
X0197064Y0166330D01*
X0196071Y0167529D02*
X0171273Y0167529D01*
X0179914Y0168727D02*
X0195745Y0168727D01*
X0195745Y0169926D02*
X0182910Y0169926D01*
X0184576Y0171124D02*
X0195745Y0171124D01*
X0195745Y0172323D02*
X0185775Y0172323D01*
X0186547Y0173521D02*
X0195745Y0173521D01*
X0195745Y0174720D02*
X0187239Y0174720D01*
X0187614Y0175918D02*
X0195745Y0175918D01*
X0195745Y0177117D02*
X0187936Y0177117D01*
X0188053Y0178315D02*
X0195745Y0178315D01*
X0195745Y0179514D02*
X0188053Y0179514D01*
X0187946Y0180712D02*
X0195745Y0180712D01*
X0195745Y0181911D02*
X0187624Y0181911D01*
X0187260Y0183109D02*
X0195745Y0183109D01*
X0195745Y0184308D02*
X0186568Y0184308D01*
X0185812Y0185506D02*
X0195745Y0185506D01*
X0195745Y0186705D02*
X0184614Y0186705D01*
X0182975Y0187903D02*
X0195745Y0187903D01*
X0201945Y0187903D02*
X0209722Y0187903D01*
X0210106Y0186978D02*
X0211663Y0185420D01*
X0213698Y0184577D01*
X0215901Y0184577D01*
X0217936Y0185420D01*
X0219494Y0186978D01*
X0220337Y0189013D01*
X0220337Y0191216D01*
X0219494Y0193251D01*
X0217936Y0194808D01*
X0215901Y0195651D01*
X0213698Y0195651D01*
X0211663Y0194808D01*
X0210106Y0193251D01*
X0209263Y0191216D01*
X0209263Y0189013D01*
X0210106Y0186978D01*
X0210379Y0186705D02*
X0201945Y0186705D01*
X0201945Y0185506D02*
X0211577Y0185506D01*
X0209263Y0189102D02*
X0201945Y0189102D01*
X0201945Y0190300D02*
X0209263Y0190300D01*
X0209380Y0191499D02*
X0201945Y0191499D01*
X0201609Y0192697D02*
X0209877Y0192697D01*
X0210751Y0193896D02*
X0201220Y0193896D01*
X0201030Y0194481D02*
X0201030Y0194481D01*
X0200584Y0195094D02*
X0212354Y0195094D01*
X0217245Y0195094D02*
X0241395Y0195094D01*
X0241395Y0196293D02*
X0199713Y0196293D01*
X0199289Y0196877D02*
X0199289Y0196877D01*
X0199289Y0196877D01*
X0198443Y0197491D02*
X0241395Y0197491D01*
X0241395Y0198690D02*
X0196671Y0198690D01*
X0196893Y0198618D02*
X0196893Y0198618D01*
X0201945Y0184308D02*
X0238420Y0184308D01*
X0237591Y0185506D02*
X0218022Y0185506D01*
X0219221Y0186705D02*
X0237434Y0186705D01*
X0235720Y0189558D02*
X0377595Y0189558D01*
X0381573Y0185506D02*
X0487168Y0185506D01*
X0485969Y0186705D02*
X0466756Y0186705D01*
X0463434Y0186705D02*
X0382771Y0186705D01*
X0385623Y0183524D02*
X0384644Y0182545D01*
X0384114Y0181265D01*
X0384114Y0179880D01*
X0384644Y0178601D01*
X0385623Y0177622D01*
X0386903Y0177092D01*
X0388288Y0177092D01*
X0389567Y0177622D01*
X0390546Y0178601D01*
X0391076Y0179880D01*
X0391076Y0181265D01*
X0390546Y0182545D01*
X0389567Y0183524D01*
X0388288Y0184054D01*
X0386903Y0184054D01*
X0385623Y0183524D01*
X0385209Y0183109D02*
X0201945Y0183109D01*
X0201945Y0181911D02*
X0384381Y0181911D01*
X0384114Y0180712D02*
X0201945Y0180712D01*
X0201945Y0179514D02*
X0217588Y0179514D01*
X0216637Y0178315D02*
X0201945Y0178315D01*
X0201945Y0177117D02*
X0216282Y0177117D01*
X0216346Y0175918D02*
X0201945Y0175918D01*
X0201945Y0174720D02*
X0216886Y0174720D01*
X0218498Y0173521D02*
X0201945Y0173521D01*
X0201945Y0172323D02*
X0251578Y0172323D01*
X0250379Y0173521D02*
X0221028Y0173521D01*
X0221937Y0179514D02*
X0249837Y0179514D01*
X0250939Y0179514D02*
X0384266Y0179514D01*
X0384930Y0178315D02*
X0252723Y0178315D01*
X0253289Y0177117D02*
X0386842Y0177117D01*
X0388348Y0177117D02*
X0427509Y0177117D01*
X0427657Y0178315D02*
X0390261Y0178315D01*
X0390924Y0179514D02*
X0428344Y0179514D01*
X0427802Y0175918D02*
X0254488Y0175918D01*
X0236345Y0176765D02*
X0235095Y0176765D01*
X0233486Y0187903D02*
X0219877Y0187903D01*
X0220337Y0189102D02*
X0232970Y0189102D01*
X0233051Y0190300D02*
X0220337Y0190300D01*
X0220220Y0191499D02*
X0233772Y0191499D01*
X0237668Y0191499D02*
X0244500Y0191499D01*
X0243302Y0192697D02*
X0219723Y0192697D01*
X0218849Y0193896D02*
X0242103Y0193896D01*
X0252220Y0201087D02*
X0310052Y0201087D01*
X0309595Y0202285D02*
X0251295Y0202285D01*
X0251295Y0203484D02*
X0309700Y0203484D01*
X0310455Y0204682D02*
X0251295Y0204682D01*
X0251295Y0205881D02*
X0451822Y0205881D01*
X0451822Y0204682D02*
X0394485Y0204682D01*
X0392595Y0202683D02*
X0312345Y0202683D01*
X0314235Y0204682D02*
X0390705Y0204682D01*
X0394888Y0201087D02*
X0395985Y0201087D01*
X0399205Y0201087D02*
X0432005Y0201087D01*
X0449801Y0197491D02*
X0476928Y0197491D01*
X0476928Y0196293D02*
X0450345Y0196293D01*
X0450276Y0195094D02*
X0476928Y0195094D01*
X0476928Y0193896D02*
X0449572Y0193896D01*
X0455775Y0198690D02*
X0456975Y0198690D01*
X0456975Y0199888D02*
X0455775Y0199888D01*
X0455775Y0201087D02*
X0456975Y0201087D01*
X0456975Y0202285D02*
X0455775Y0202285D01*
X0455775Y0205881D02*
X0456975Y0205881D01*
X0456975Y0207079D02*
X0455775Y0207079D01*
X0452180Y0207079D02*
X0272047Y0207079D01*
X0269643Y0207079D02*
X0251295Y0207079D01*
X0251579Y0208278D02*
X0255846Y0208278D01*
X0254648Y0209477D02*
X0252279Y0209477D01*
X0252345Y0210675D02*
X0253449Y0210675D01*
X0252251Y0211874D02*
X0251794Y0211874D01*
X0259470Y0225808D02*
X0236345Y0248933D01*
X0255434Y0232248D02*
X0289376Y0232248D01*
X0290574Y0231050D02*
X0256633Y0231050D01*
X0257831Y0229851D02*
X0291773Y0229851D01*
X0292971Y0228653D02*
X0259030Y0228653D01*
X0259470Y0225808D02*
X0357251Y0225808D01*
X0358501Y0227058D01*
X0366375Y0227058D02*
X0366375Y0223308D01*
X0365125Y0222058D01*
X0381226Y0222660D02*
X0396500Y0222660D01*
X0397595Y0225183D02*
X0381345Y0225183D01*
X0390095Y0233933D02*
X0391345Y0232683D01*
X0390095Y0233933D02*
X0295095Y0233933D01*
X0263220Y0265808D01*
X0263220Y0272375D01*
X0268528Y0277683D01*
X0265778Y0277792D02*
X0245988Y0277792D01*
X0246734Y0276593D02*
X0265034Y0276593D01*
X0263836Y0275395D02*
X0246900Y0275395D01*
X0248099Y0274196D02*
X0262637Y0274196D01*
X0261520Y0272998D02*
X0249297Y0272998D01*
X0257133Y0271799D02*
X0261520Y0271799D01*
X0261520Y0270601D02*
X0258332Y0270601D01*
X0259530Y0269402D02*
X0261520Y0269402D01*
X0261520Y0268204D02*
X0260729Y0268204D01*
X0276345Y0267683D02*
X0276345Y0257683D01*
X0296345Y0237683D01*
X0488220Y0237683D01*
X0496970Y0228933D01*
X0523249Y0228933D01*
X0521476Y0231050D02*
X0497258Y0231050D01*
X0490095Y0238308D02*
X0488845Y0239558D01*
X0296970Y0239558D01*
X0278220Y0258308D01*
X0278220Y0265025D01*
X0282129Y0268933D01*
X0284090Y0267005D02*
X0285304Y0267005D01*
X0282129Y0264558D02*
X0282129Y0256900D01*
X0297595Y0241433D01*
X0488845Y0241433D01*
X0490095Y0242683D01*
X0497595Y0242683D01*
X0495421Y0245432D02*
X0477728Y0245432D01*
X0477845Y0244233D02*
X0489241Y0244233D01*
X0490095Y0238308D02*
X0508835Y0238308D01*
X0507276Y0240638D02*
X0500473Y0240638D01*
X0514435Y0247829D02*
X0435145Y0247829D01*
X0433845Y0248933D02*
X0428845Y0248933D01*
X0428220Y0249558D01*
X0324470Y0249558D01*
X0322283Y0251433D02*
X0315095Y0251433D01*
X0312345Y0251424D02*
X0292508Y0251424D01*
X0293706Y0250226D02*
X0312619Y0250226D01*
X0313717Y0249027D02*
X0294905Y0249027D01*
X0296103Y0247829D02*
X0319572Y0247829D01*
X0319220Y0246630D02*
X0297302Y0246630D01*
X0298501Y0245432D02*
X0319408Y0245432D01*
X0321970Y0246433D02*
X0400095Y0246433D01*
X0402494Y0247829D02*
X0427545Y0247829D01*
X0431345Y0252058D02*
X0512595Y0252058D01*
X0515095Y0254558D01*
X0515095Y0268933D01*
X0517595Y0271433D01*
X0525095Y0271433D01*
X0523237Y0269402D02*
X0517968Y0269402D01*
X0516795Y0268204D02*
X0540745Y0268204D01*
X0540745Y0269402D02*
X0526953Y0269402D01*
X0527727Y0270601D02*
X0540745Y0270601D01*
X0540745Y0271799D02*
X0527845Y0271799D01*
X0527420Y0272998D02*
X0540745Y0272998D01*
X0540745Y0274196D02*
X0531594Y0274196D01*
X0532488Y0275395D02*
X0540745Y0275395D01*
X0540745Y0276593D02*
X0532692Y0276593D01*
X0532355Y0277792D02*
X0540745Y0277792D01*
X0540745Y0278990D02*
X0530954Y0278990D01*
X0528929Y0278990D02*
X0518608Y0278990D01*
X0516582Y0278990D02*
X0501108Y0278990D01*
X0502509Y0277792D02*
X0515181Y0277792D01*
X0514845Y0276593D02*
X0502845Y0276593D01*
X0502642Y0275395D02*
X0515049Y0275395D01*
X0515943Y0274196D02*
X0501747Y0274196D01*
X0499082Y0278990D02*
X0468576Y0278990D01*
X0468390Y0277792D02*
X0489451Y0277792D01*
X0489045Y0276593D02*
X0467678Y0276593D01*
X0465735Y0275395D02*
X0489045Y0275395D01*
X0489045Y0274196D02*
X0467445Y0274196D01*
X0467845Y0272998D02*
X0489045Y0272998D01*
X0493645Y0272998D02*
X0516756Y0272998D01*
X0515557Y0271799D02*
X0493645Y0271799D01*
X0493645Y0270601D02*
X0514358Y0270601D01*
X0513395Y0269402D02*
X0493645Y0269402D01*
X0493645Y0268204D02*
X0513395Y0268204D01*
X0516795Y0267005D02*
X0540745Y0267005D01*
X0540745Y0265807D02*
X0516795Y0265807D01*
X0516795Y0264608D02*
X0540745Y0264608D01*
X0540745Y0263410D02*
X0516795Y0263410D01*
X0516795Y0262211D02*
X0540745Y0262211D01*
X0540745Y0261012D02*
X0516795Y0261012D01*
X0516795Y0259814D02*
X0540745Y0259814D01*
X0540745Y0258615D02*
X0516795Y0258615D01*
X0516795Y0257417D02*
X0540745Y0257417D01*
X0540745Y0256218D02*
X0516795Y0256218D01*
X0516795Y0255020D02*
X0540745Y0255020D01*
X0540745Y0253821D02*
X0516763Y0253821D01*
X0515564Y0252623D02*
X0540745Y0252623D01*
X0540745Y0251424D02*
X0518618Y0251424D01*
X0519295Y0250226D02*
X0540745Y0250226D01*
X0540745Y0249027D02*
X0519345Y0249027D01*
X0518755Y0247829D02*
X0540745Y0247829D01*
X0516595Y0249558D02*
X0434470Y0249558D01*
X0433845Y0248933D01*
X0433747Y0233447D02*
X0451787Y0233447D01*
X0451939Y0232248D02*
X0434095Y0232248D01*
X0433904Y0231050D02*
X0452604Y0231050D01*
X0453211Y0219864D02*
X0452804Y0219755D01*
X0452439Y0219544D01*
X0452142Y0219246D01*
X0451931Y0218881D01*
X0451822Y0218474D01*
X0451822Y0215911D01*
X0455775Y0215911D01*
X0455775Y0219864D01*
X0453211Y0219864D01*
X0452037Y0219065D02*
X0433045Y0219065D01*
X0433045Y0220263D02*
X0476428Y0220263D01*
X0476428Y0220832D02*
X0476428Y0218250D01*
X0476537Y0217843D01*
X0476748Y0217478D01*
X0477046Y0217180D01*
X0477411Y0216970D01*
X0477818Y0216861D01*
X0479809Y0216861D01*
X0479809Y0220832D01*
X0476428Y0220832D01*
X0476428Y0221994D02*
X0476428Y0224577D01*
X0476537Y0224984D01*
X0476748Y0225349D01*
X0477046Y0225646D01*
X0477411Y0225857D01*
X0477818Y0225966D01*
X0479809Y0225966D01*
X0479809Y0221995D01*
X0480972Y0221995D01*
X0480972Y0225966D01*
X0482963Y0225966D01*
X0483370Y0225857D01*
X0483735Y0225646D01*
X0484033Y0225349D01*
X0484244Y0224984D01*
X0484353Y0224577D01*
X0484353Y0221994D01*
X0480972Y0221994D01*
X0480972Y0220832D01*
X0484353Y0220832D01*
X0484353Y0218250D01*
X0484244Y0217843D01*
X0484033Y0217478D01*
X0483735Y0217180D01*
X0483370Y0216970D01*
X0482963Y0216861D01*
X0480972Y0216861D01*
X0480972Y0220832D01*
X0479809Y0220832D01*
X0479809Y0221994D01*
X0476428Y0221994D01*
X0476428Y0222660D02*
X0433045Y0222660D01*
X0433045Y0221462D02*
X0479809Y0221462D01*
X0480972Y0221462D02*
X0505493Y0221462D01*
X0505354Y0221126D02*
X0505354Y0219741D01*
X0505884Y0218461D01*
X0506863Y0217482D01*
X0508143Y0216952D01*
X0509528Y0216952D01*
X0510807Y0217482D01*
X0511786Y0218461D01*
X0512316Y0219741D01*
X0512316Y0221126D01*
X0511786Y0222405D01*
X0510807Y0223384D01*
X0509528Y0223914D01*
X0508143Y0223914D01*
X0506863Y0223384D01*
X0505884Y0222405D01*
X0505354Y0221126D01*
X0505354Y0220263D02*
X0484353Y0220263D01*
X0484353Y0219065D02*
X0505634Y0219065D01*
X0506479Y0217866D02*
X0484250Y0217866D01*
X0480972Y0217866D02*
X0479809Y0217866D01*
X0479809Y0219065D02*
X0480972Y0219065D01*
X0480972Y0220263D02*
X0479809Y0220263D01*
X0479809Y0222660D02*
X0480972Y0222660D01*
X0480972Y0223859D02*
X0479809Y0223859D01*
X0479809Y0225057D02*
X0480972Y0225057D01*
X0484201Y0225057D02*
X0540745Y0225057D01*
X0540745Y0223859D02*
X0509662Y0223859D01*
X0508009Y0223859D02*
X0484353Y0223859D01*
X0484353Y0222660D02*
X0506139Y0222660D01*
X0511531Y0222660D02*
X0540745Y0222660D01*
X0540745Y0221462D02*
X0512177Y0221462D01*
X0512316Y0220263D02*
X0540745Y0220263D01*
X0540745Y0219065D02*
X0512036Y0219065D01*
X0511191Y0217866D02*
X0540745Y0217866D01*
X0540745Y0216668D02*
X0460927Y0216668D01*
X0460927Y0215911D02*
X0460927Y0218474D01*
X0460818Y0218881D01*
X0460608Y0219246D01*
X0460310Y0219544D01*
X0459945Y0219755D01*
X0459538Y0219864D01*
X0456975Y0219864D01*
X0456975Y0215911D01*
X0460927Y0215911D01*
X0460927Y0214711D02*
X0456975Y0214711D01*
X0456975Y0215911D01*
X0455775Y0215911D01*
X0455775Y0214711D01*
X0456975Y0214711D01*
X0456975Y0210758D01*
X0459538Y0210758D01*
X0459945Y0210867D01*
X0460310Y0211078D01*
X0460608Y0211376D01*
X0460818Y0211741D01*
X0460927Y0212148D01*
X0460927Y0214711D01*
X0460927Y0214271D02*
X0495249Y0214271D01*
X0493917Y0213072D02*
X0483398Y0213072D01*
X0483853Y0211874D02*
X0493595Y0211874D01*
X0493813Y0210675D02*
X0483853Y0210675D01*
X0483853Y0209477D02*
X0494645Y0209477D01*
X0494645Y0208278D02*
X0483853Y0208278D01*
X0483853Y0207079D02*
X0494645Y0207079D01*
X0496345Y0207683D02*
X0497595Y0206433D01*
X0497595Y0196433D01*
X0498656Y0193896D02*
X0540745Y0193896D01*
X0540745Y0195094D02*
X0500017Y0195094D01*
X0500345Y0196293D02*
X0540745Y0196293D01*
X0540745Y0197491D02*
X0500133Y0197491D01*
X0499295Y0198690D02*
X0540745Y0198690D01*
X0540745Y0199888D02*
X0499295Y0199888D01*
X0499295Y0201087D02*
X0540745Y0201087D01*
X0540745Y0202285D02*
X0499295Y0202285D01*
X0499295Y0203484D02*
X0540745Y0203484D01*
X0540745Y0204682D02*
X0499295Y0204682D01*
X0499295Y0205881D02*
X0540745Y0205881D01*
X0540745Y0207079D02*
X0499295Y0207079D01*
X0498154Y0208278D02*
X0540745Y0208278D01*
X0540745Y0209477D02*
X0498045Y0209477D01*
X0498877Y0210675D02*
X0540745Y0210675D01*
X0540745Y0211874D02*
X0499095Y0211874D01*
X0498773Y0213072D02*
X0540745Y0213072D01*
X0540745Y0214271D02*
X0497441Y0214271D01*
X0496345Y0211748D02*
X0496345Y0207683D01*
X0491716Y0205881D02*
X0491320Y0205881D01*
X0479984Y0204682D02*
X0460927Y0204682D01*
X0460927Y0202285D02*
X0478090Y0202285D01*
X0478090Y0201087D02*
X0460927Y0201087D01*
X0460913Y0199888D02*
X0476928Y0199888D01*
X0476928Y0198690D02*
X0459992Y0198690D01*
X0455775Y0210758D02*
X0455775Y0214711D01*
X0451822Y0214711D01*
X0451822Y0212148D01*
X0451931Y0211741D01*
X0452142Y0211376D01*
X0452439Y0211078D01*
X0452804Y0210867D01*
X0453211Y0210758D01*
X0455775Y0210758D01*
X0455775Y0211874D02*
X0456975Y0211874D01*
X0456975Y0213072D02*
X0455775Y0213072D01*
X0455775Y0214271D02*
X0456975Y0214271D01*
X0456975Y0215469D02*
X0540745Y0215469D01*
X0540745Y0187903D02*
X0532975Y0187903D01*
X0534614Y0186705D02*
X0540745Y0186705D01*
X0540745Y0185506D02*
X0535812Y0185506D01*
X0536568Y0184308D02*
X0540745Y0184308D01*
X0540745Y0183109D02*
X0537260Y0183109D01*
X0537624Y0181911D02*
X0540745Y0181911D01*
X0540745Y0180712D02*
X0537946Y0180712D01*
X0538053Y0179514D02*
X0540745Y0179514D01*
X0540705Y0178315D02*
X0538053Y0178315D01*
X0537936Y0177117D02*
X0540606Y0177117D01*
X0540285Y0175918D02*
X0537614Y0175918D01*
X0537239Y0174720D02*
X0539964Y0174720D01*
X0539525Y0173521D02*
X0536547Y0173521D01*
X0535775Y0172323D02*
X0538833Y0172323D01*
X0538141Y0171124D02*
X0534576Y0171124D01*
X0532910Y0169926D02*
X0537026Y0169926D01*
X0535827Y0168727D02*
X0529914Y0168727D01*
X0530933Y0166330D02*
X0488126Y0166330D01*
X0486345Y0168933D02*
X0500095Y0168933D01*
X0501345Y0170183D01*
X0501345Y0180183D01*
X0499645Y0177117D02*
X0472837Y0177117D01*
X0472810Y0178315D02*
X0498351Y0178315D01*
X0497864Y0179514D02*
X0472154Y0179514D01*
X0472219Y0175918D02*
X0499645Y0175918D01*
X0499645Y0174720D02*
X0470384Y0174720D01*
X0469186Y0173521D02*
X0499645Y0173521D01*
X0499645Y0172323D02*
X0467987Y0172323D01*
X0466276Y0177117D02*
X0465705Y0177117D01*
X0465557Y0178315D02*
X0467380Y0178315D01*
X0468037Y0179514D02*
X0464870Y0179514D01*
X0459840Y0179514D02*
X0433374Y0179514D01*
X0434061Y0178315D02*
X0459153Y0178315D01*
X0459005Y0177117D02*
X0434209Y0177117D01*
X0433916Y0175918D02*
X0459298Y0175918D01*
X0488538Y0171124D02*
X0499645Y0171124D01*
X0503045Y0171124D02*
X0520614Y0171124D01*
X0519415Y0172323D02*
X0503045Y0172323D01*
X0503045Y0173521D02*
X0518644Y0173521D01*
X0517952Y0174720D02*
X0503045Y0174720D01*
X0503045Y0175918D02*
X0517576Y0175918D01*
X0517255Y0177117D02*
X0503045Y0177117D01*
X0504339Y0178315D02*
X0517137Y0178315D01*
X0517137Y0179514D02*
X0504826Y0179514D01*
X0504826Y0180712D02*
X0517245Y0180712D01*
X0517566Y0181911D02*
X0504397Y0181911D01*
X0503342Y0183109D02*
X0517930Y0183109D01*
X0522280Y0169926D02*
X0503045Y0169926D01*
X0502293Y0168727D02*
X0525277Y0168727D01*
X0533917Y0167529D02*
X0501095Y0167529D01*
X0497864Y0180712D02*
X0391076Y0180712D01*
X0390809Y0181911D02*
X0498293Y0181911D01*
X0499348Y0183109D02*
X0389982Y0183109D01*
X0430859Y0216668D02*
X0446023Y0216668D01*
X0447191Y0216668D02*
X0451822Y0216668D01*
X0451822Y0217866D02*
X0432057Y0217866D01*
X0433045Y0223859D02*
X0476428Y0223859D01*
X0476580Y0225057D02*
X0433045Y0225057D01*
X0448947Y0215469D02*
X0455775Y0215469D01*
X0455775Y0216668D02*
X0456975Y0216668D01*
X0456975Y0217866D02*
X0455775Y0217866D01*
X0455775Y0219065D02*
X0456975Y0219065D01*
X0460713Y0219065D02*
X0476428Y0219065D01*
X0476531Y0217866D02*
X0460927Y0217866D01*
X0460927Y0213072D02*
X0477383Y0213072D01*
X0476928Y0211874D02*
X0460854Y0211874D01*
X0451895Y0211874D02*
X0448436Y0211874D01*
X0449227Y0213072D02*
X0451822Y0213072D01*
X0451822Y0214271D02*
X0449357Y0214271D01*
X0397595Y0252371D02*
X0323220Y0252371D01*
X0322283Y0251433D01*
X0321047Y0249027D02*
X0316473Y0249027D01*
X0312611Y0252623D02*
X0301208Y0252623D01*
X0300817Y0252232D02*
X0301796Y0253211D01*
X0302326Y0254491D01*
X0302326Y0255876D01*
X0301796Y0257155D01*
X0300817Y0258134D01*
X0299538Y0258664D01*
X0298153Y0258664D01*
X0296873Y0258134D01*
X0295894Y0257155D01*
X0295364Y0255876D01*
X0295364Y0254491D01*
X0295894Y0253211D01*
X0296873Y0252232D01*
X0298153Y0251702D01*
X0299538Y0251702D01*
X0300817Y0252232D01*
X0302049Y0253821D02*
X0311108Y0253821D01*
X0309909Y0255020D02*
X0302326Y0255020D01*
X0302184Y0256218D02*
X0309045Y0256218D01*
X0309045Y0257417D02*
X0301534Y0257417D01*
X0299655Y0258615D02*
X0309045Y0258615D01*
X0308689Y0259814D02*
X0285545Y0259814D01*
X0285545Y0261012D02*
X0308595Y0261012D01*
X0313645Y0262211D02*
X0353234Y0262211D01*
X0353395Y0263410D02*
X0313645Y0263410D01*
X0313645Y0264608D02*
X0353395Y0264608D01*
X0353395Y0265807D02*
X0313645Y0265807D01*
X0313645Y0267005D02*
X0353395Y0267005D01*
X0356795Y0264608D02*
X0392770Y0264608D01*
X0392770Y0263410D02*
X0356795Y0263410D01*
X0356956Y0262211D02*
X0392770Y0262211D01*
X0392096Y0261012D02*
X0357728Y0261012D01*
X0357845Y0259814D02*
X0391720Y0259814D01*
X0391884Y0258615D02*
X0357417Y0258615D01*
X0355095Y0260183D02*
X0355095Y0271433D01*
X0358495Y0274196D02*
X0330970Y0274196D01*
X0330591Y0275395D02*
X0358658Y0275395D01*
X0362570Y0275395D02*
X0362620Y0275395D01*
X0362570Y0268204D02*
X0362620Y0268204D01*
X0362620Y0267005D02*
X0362570Y0267005D01*
X0352462Y0261012D02*
X0314095Y0261012D01*
X0314002Y0259814D02*
X0352345Y0259814D01*
X0352774Y0258615D02*
X0313645Y0258615D01*
X0298035Y0258615D02*
X0285545Y0258615D01*
X0286515Y0257417D02*
X0296156Y0257417D01*
X0295506Y0256218D02*
X0287714Y0256218D01*
X0288912Y0255020D02*
X0295364Y0255020D01*
X0295641Y0253821D02*
X0290111Y0253821D01*
X0291309Y0252623D02*
X0296482Y0252623D01*
X0278589Y0243035D02*
X0268102Y0243035D01*
X0269300Y0244233D02*
X0277391Y0244233D01*
X0276192Y0245432D02*
X0270499Y0245432D01*
X0271697Y0246630D02*
X0274994Y0246630D01*
X0273795Y0247829D02*
X0272896Y0247829D01*
X0276345Y0267683D02*
X0281970Y0273308D01*
X0273062Y0282058D02*
X0240720Y0282058D01*
X0229566Y0275395D02*
X0229341Y0275395D01*
X0238442Y0294558D02*
X0235942Y0297058D01*
X0235942Y0302683D01*
X0238537Y0301762D02*
X0256654Y0301762D01*
X0256499Y0302960D02*
X0238692Y0302960D01*
X0238307Y0304159D02*
X0256883Y0304159D01*
X0259249Y0302683D02*
X0259249Y0298933D01*
X0261749Y0296433D01*
X0325720Y0296433D01*
X0328220Y0293933D01*
X0328220Y0273933D01*
X0329920Y0280189D02*
X0375270Y0280189D01*
X0375270Y0281387D02*
X0329920Y0281387D01*
X0329920Y0282586D02*
X0375270Y0282586D01*
X0375270Y0283784D02*
X0329920Y0283784D01*
X0329920Y0284983D02*
X0375270Y0284983D01*
X0375270Y0286181D02*
X0329920Y0286181D01*
X0329920Y0287380D02*
X0330262Y0287380D01*
X0334928Y0287380D02*
X0370262Y0287380D01*
X0369845Y0288578D02*
X0335345Y0288578D01*
X0335222Y0289777D02*
X0369968Y0289777D01*
X0374928Y0287380D02*
X0375270Y0287380D01*
X0380095Y0292058D02*
X0382595Y0294558D01*
X0466749Y0294558D01*
X0466754Y0296968D02*
X0446380Y0296968D01*
X0447579Y0298166D02*
X0467549Y0298166D01*
X0467549Y0299365D02*
X0447642Y0299365D01*
X0447711Y0300563D02*
X0467479Y0300563D01*
X0485095Y0306556D02*
X0220095Y0306556D01*
X0220095Y0307754D02*
X0485095Y0307754D01*
X0485095Y0308953D02*
X0434408Y0308953D01*
X0435208Y0310151D02*
X0485095Y0310151D01*
X0485095Y0311350D02*
X0435345Y0311350D01*
X0434943Y0312548D02*
X0485095Y0312548D01*
X0490095Y0307754D02*
X0490463Y0307754D01*
X0497074Y0307754D02*
X0498274Y0307754D01*
X0498274Y0306556D02*
X0497074Y0306556D01*
X0497074Y0305357D02*
X0498274Y0305357D01*
X0491345Y0288933D02*
X0516266Y0288933D01*
X0517516Y0287683D01*
X0517516Y0283933D01*
X0519025Y0288578D02*
X0540745Y0288578D01*
X0540745Y0287380D02*
X0524425Y0287380D01*
X0524916Y0286181D02*
X0540745Y0286181D01*
X0540745Y0284983D02*
X0524916Y0284983D01*
X0524916Y0283784D02*
X0540745Y0283784D01*
X0540745Y0282586D02*
X0524916Y0282586D01*
X0524916Y0281387D02*
X0540745Y0281387D01*
X0540745Y0280189D02*
X0468343Y0280189D01*
X0467564Y0281387D02*
X0490275Y0281387D01*
X0497674Y0283933D02*
X0407595Y0283933D01*
X0402182Y0286181D02*
X0388780Y0286181D01*
X0389979Y0287380D02*
X0402045Y0287380D01*
X0402448Y0288578D02*
X0391177Y0288578D01*
X0380095Y0292058D02*
X0380095Y0278933D01*
X0396749Y0298933D02*
X0399249Y0301433D01*
X0399249Y0302683D01*
X0391182Y0319617D02*
X0407631Y0319617D01*
X0408683Y0320669D01*
X0408683Y0322158D01*
X0408683Y0328543D01*
X0408683Y0330032D01*
X0407631Y0331084D01*
X0391182Y0331084D01*
X0390129Y0330032D01*
X0390129Y0320669D01*
X0391182Y0319617D01*
X0391059Y0319740D02*
X0384132Y0319740D01*
X0384009Y0319617D02*
X0385061Y0320669D01*
X0385061Y0330032D01*
X0384009Y0331084D01*
X0367560Y0331084D01*
X0366507Y0330032D01*
X0366507Y0328543D01*
X0366507Y0322158D01*
X0366507Y0320669D01*
X0367560Y0319617D01*
X0384009Y0319617D01*
X0385061Y0320938D02*
X0390129Y0320938D01*
X0390129Y0322137D02*
X0385061Y0322137D01*
X0385061Y0323335D02*
X0390129Y0323335D01*
X0390129Y0324534D02*
X0385061Y0324534D01*
X0385061Y0325732D02*
X0390129Y0325732D01*
X0390129Y0326931D02*
X0385061Y0326931D01*
X0385061Y0328129D02*
X0390129Y0328129D01*
X0390129Y0329328D02*
X0385061Y0329328D01*
X0384567Y0330526D02*
X0390623Y0330526D01*
X0388714Y0338424D02*
X0388070Y0339068D01*
X0388070Y0354940D01*
X0388714Y0355584D01*
X0395137Y0355584D01*
X0395782Y0354940D01*
X0395782Y0339068D01*
X0395137Y0338424D01*
X0388714Y0338424D01*
X0388222Y0338916D02*
X0386968Y0338916D01*
X0387120Y0339068D02*
X0386476Y0338424D01*
X0380053Y0338424D01*
X0379409Y0339068D01*
X0379409Y0354940D01*
X0380053Y0355584D01*
X0386476Y0355584D01*
X0387120Y0354940D01*
X0387120Y0339068D01*
X0387120Y0340114D02*
X0388070Y0340114D01*
X0388070Y0341313D02*
X0387120Y0341313D01*
X0387120Y0342511D02*
X0388070Y0342511D01*
X0388070Y0343710D02*
X0387120Y0343710D01*
X0387120Y0344908D02*
X0388070Y0344908D01*
X0388070Y0346107D02*
X0387120Y0346107D01*
X0387120Y0347305D02*
X0388070Y0347305D01*
X0388070Y0348504D02*
X0387120Y0348504D01*
X0387120Y0349702D02*
X0388070Y0349702D01*
X0388070Y0350901D02*
X0387120Y0350901D01*
X0387120Y0352099D02*
X0388070Y0352099D01*
X0388070Y0353298D02*
X0387120Y0353298D01*
X0387120Y0354496D02*
X0388070Y0354496D01*
X0379409Y0354496D02*
X0356089Y0354496D01*
X0355069Y0353298D02*
X0379409Y0353298D01*
X0379409Y0352099D02*
X0325782Y0352099D01*
X0325782Y0350901D02*
X0379409Y0350901D01*
X0379409Y0349702D02*
X0325782Y0349702D01*
X0325782Y0348504D02*
X0379409Y0348504D01*
X0379409Y0347305D02*
X0325782Y0347305D01*
X0325782Y0346107D02*
X0379409Y0346107D01*
X0379409Y0344908D02*
X0325782Y0344908D01*
X0325782Y0343710D02*
X0379409Y0343710D01*
X0379409Y0342511D02*
X0325782Y0342511D01*
X0325782Y0341313D02*
X0379409Y0341313D01*
X0379409Y0340114D02*
X0325782Y0340114D01*
X0325782Y0339068D02*
X0325782Y0354940D01*
X0325137Y0355584D01*
X0318714Y0355584D01*
X0318070Y0354940D01*
X0318070Y0339068D01*
X0318714Y0338424D01*
X0325137Y0338424D01*
X0325782Y0339068D01*
X0325629Y0338916D02*
X0379561Y0338916D01*
X0367001Y0330526D02*
X0338189Y0330526D01*
X0338683Y0330032D02*
X0337631Y0331084D01*
X0321182Y0331084D01*
X0320129Y0330032D01*
X0320129Y0320669D01*
X0321182Y0319617D01*
X0337631Y0319617D01*
X0338683Y0320669D01*
X0338683Y0322158D01*
X0338683Y0328543D01*
X0338683Y0330032D01*
X0338683Y0329328D02*
X0366507Y0329328D01*
X0366507Y0328129D02*
X0338683Y0328129D01*
X0338683Y0326931D02*
X0366507Y0326931D01*
X0366507Y0325732D02*
X0338683Y0325732D01*
X0338683Y0324534D02*
X0366507Y0324534D01*
X0366507Y0323335D02*
X0338683Y0323335D01*
X0338683Y0322137D02*
X0366507Y0322137D01*
X0366507Y0320938D02*
X0338683Y0320938D01*
X0337754Y0319740D02*
X0367437Y0319740D01*
X0351970Y0316433D02*
X0345095Y0316433D01*
X0342495Y0317343D02*
X0220095Y0317343D01*
X0220095Y0318541D02*
X0343314Y0318541D01*
X0342345Y0316144D02*
X0220095Y0316144D01*
X0220095Y0314945D02*
X0342735Y0314945D01*
X0346876Y0318541D02*
X0350189Y0318541D01*
X0321059Y0319740D02*
X0314132Y0319740D01*
X0314009Y0319617D02*
X0315061Y0320669D01*
X0315061Y0330032D01*
X0314009Y0331084D01*
X0297560Y0331084D01*
X0296507Y0330032D01*
X0296507Y0328543D01*
X0296507Y0322158D01*
X0296507Y0320669D01*
X0297560Y0319617D01*
X0314009Y0319617D01*
X0315061Y0320938D02*
X0320129Y0320938D01*
X0320129Y0322137D02*
X0315061Y0322137D01*
X0315061Y0323335D02*
X0320129Y0323335D01*
X0320129Y0324534D02*
X0315061Y0324534D01*
X0315061Y0325732D02*
X0320129Y0325732D01*
X0320129Y0326931D02*
X0315061Y0326931D01*
X0315061Y0328129D02*
X0320129Y0328129D01*
X0320129Y0329328D02*
X0315061Y0329328D01*
X0314567Y0330526D02*
X0320623Y0330526D01*
X0318222Y0338916D02*
X0316968Y0338916D01*
X0317120Y0339068D02*
X0316476Y0338424D01*
X0310053Y0338424D01*
X0309409Y0339068D01*
X0309409Y0354940D01*
X0310053Y0355584D01*
X0316476Y0355584D01*
X0317120Y0354940D01*
X0317120Y0339068D01*
X0317120Y0340114D02*
X0318070Y0340114D01*
X0318070Y0341313D02*
X0317120Y0341313D01*
X0317120Y0342511D02*
X0318070Y0342511D01*
X0318070Y0343710D02*
X0317120Y0343710D01*
X0317120Y0344908D02*
X0318070Y0344908D01*
X0318070Y0346107D02*
X0317120Y0346107D01*
X0317120Y0347305D02*
X0318070Y0347305D01*
X0318070Y0348504D02*
X0317120Y0348504D01*
X0317120Y0349702D02*
X0318070Y0349702D01*
X0318070Y0350901D02*
X0317120Y0350901D01*
X0317120Y0352099D02*
X0318070Y0352099D01*
X0318070Y0353298D02*
X0317120Y0353298D01*
X0317120Y0354496D02*
X0318070Y0354496D01*
X0325782Y0354496D02*
X0349101Y0354496D01*
X0348683Y0355695D02*
X0220095Y0355695D01*
X0220095Y0356893D02*
X0348628Y0356893D01*
X0348973Y0358092D02*
X0220095Y0358092D01*
X0220095Y0359290D02*
X0349822Y0359290D01*
X0352595Y0359290D02*
X0352595Y0359290D01*
X0352595Y0358092D02*
X0352595Y0358092D01*
X0352595Y0356893D02*
X0352595Y0356893D01*
X0352595Y0355695D02*
X0352595Y0355695D01*
X0352595Y0354496D02*
X0352595Y0354496D01*
X0352595Y0353298D02*
X0352595Y0353298D01*
X0350122Y0353298D02*
X0325782Y0353298D01*
X0309409Y0353298D02*
X0255782Y0353298D01*
X0255782Y0354496D02*
X0309409Y0354496D01*
X0309409Y0352099D02*
X0255782Y0352099D01*
X0255782Y0350901D02*
X0309409Y0350901D01*
X0309409Y0349702D02*
X0255782Y0349702D01*
X0255782Y0348504D02*
X0309409Y0348504D01*
X0309409Y0347305D02*
X0255782Y0347305D01*
X0255782Y0346107D02*
X0309409Y0346107D01*
X0309409Y0344908D02*
X0255782Y0344908D01*
X0255782Y0343710D02*
X0309409Y0343710D01*
X0309409Y0342511D02*
X0255782Y0342511D01*
X0255782Y0341313D02*
X0309409Y0341313D01*
X0309409Y0340114D02*
X0255782Y0340114D01*
X0255782Y0339068D02*
X0255782Y0354940D01*
X0255137Y0355584D01*
X0248714Y0355584D01*
X0248070Y0354940D01*
X0248070Y0339068D01*
X0248714Y0338424D01*
X0255137Y0338424D01*
X0255782Y0339068D01*
X0255629Y0338916D02*
X0309561Y0338916D01*
X0297001Y0330526D02*
X0268189Y0330526D01*
X0268683Y0330032D02*
X0267631Y0331084D01*
X0251182Y0331084D01*
X0250129Y0330032D01*
X0250129Y0320669D01*
X0251182Y0319617D01*
X0267631Y0319617D01*
X0268683Y0320669D01*
X0268683Y0322158D01*
X0268683Y0328543D01*
X0268683Y0330032D01*
X0268683Y0329328D02*
X0296507Y0329328D01*
X0296507Y0328129D02*
X0268683Y0328129D01*
X0268683Y0326931D02*
X0296507Y0326931D01*
X0296507Y0325732D02*
X0268683Y0325732D01*
X0268683Y0324534D02*
X0296507Y0324534D01*
X0296507Y0323335D02*
X0268683Y0323335D01*
X0268683Y0322137D02*
X0296507Y0322137D01*
X0296507Y0320938D02*
X0268683Y0320938D01*
X0267754Y0319740D02*
X0297437Y0319740D01*
X0291970Y0313747D02*
X0223221Y0313747D01*
X0221970Y0313747D02*
X0220095Y0313747D01*
X0220095Y0312548D02*
X0220248Y0312548D01*
X0220095Y0308953D02*
X0220783Y0308953D01*
X0215095Y0308953D02*
X0164445Y0308953D01*
X0164445Y0310151D02*
X0215095Y0310151D01*
X0215095Y0311350D02*
X0164445Y0311350D01*
X0164445Y0312548D02*
X0215095Y0312548D01*
X0215095Y0313747D02*
X0164445Y0313747D01*
X0164445Y0314945D02*
X0215095Y0314945D01*
X0215095Y0316144D02*
X0164445Y0316144D01*
X0164445Y0317343D02*
X0215095Y0317343D01*
X0215095Y0318541D02*
X0164445Y0318541D01*
X0164445Y0319740D02*
X0215095Y0319740D01*
X0215095Y0320938D02*
X0164445Y0320938D01*
X0164445Y0322137D02*
X0215095Y0322137D01*
X0215095Y0323335D02*
X0164445Y0323335D01*
X0164445Y0324534D02*
X0215095Y0324534D01*
X0215095Y0325732D02*
X0164445Y0325732D01*
X0164445Y0326931D02*
X0215095Y0326931D01*
X0215095Y0328129D02*
X0164445Y0328129D01*
X0164445Y0329328D02*
X0215095Y0329328D01*
X0215095Y0330526D02*
X0164445Y0330526D01*
X0164445Y0331725D02*
X0215095Y0331725D01*
X0211989Y0332923D02*
X0164445Y0332923D01*
X0164445Y0334122D02*
X0210600Y0334122D01*
X0209814Y0335320D02*
X0164445Y0335320D01*
X0164445Y0336519D02*
X0209317Y0336519D01*
X0209263Y0337717D02*
X0164445Y0337717D01*
X0164445Y0338916D02*
X0174573Y0338916D01*
X0173558Y0339188D02*
X0176218Y0338475D01*
X0178972Y0338475D01*
X0181632Y0339188D01*
X0184017Y0340564D01*
X0185964Y0342512D01*
X0187341Y0344896D01*
X0188053Y0347556D01*
X0188053Y0350310D01*
X0187341Y0352970D01*
X0185964Y0355355D01*
X0184017Y0357302D01*
X0181632Y0358679D01*
X0178972Y0359391D01*
X0176218Y0359391D01*
X0173558Y0358679D01*
X0171174Y0357302D01*
X0169226Y0355355D01*
X0167850Y0352970D01*
X0167137Y0350310D01*
X0167137Y0347556D01*
X0167850Y0344896D01*
X0169226Y0342512D01*
X0171174Y0340564D01*
X0173558Y0339188D01*
X0171953Y0340114D02*
X0164445Y0340114D01*
X0164445Y0341313D02*
X0170425Y0341313D01*
X0169227Y0342511D02*
X0164445Y0342511D01*
X0164445Y0343710D02*
X0168535Y0343710D01*
X0167846Y0344908D02*
X0164445Y0344908D01*
X0164445Y0346107D02*
X0167525Y0346107D01*
X0167204Y0347305D02*
X0164445Y0347305D01*
X0164445Y0348504D02*
X0167137Y0348504D01*
X0167137Y0349702D02*
X0164496Y0349702D01*
X0164625Y0350901D02*
X0167295Y0350901D01*
X0167616Y0352099D02*
X0164946Y0352099D01*
X0165267Y0353298D02*
X0168039Y0353298D01*
X0168731Y0354496D02*
X0165753Y0354496D01*
X0166445Y0355695D02*
X0169567Y0355695D01*
X0170765Y0356893D02*
X0167137Y0356893D01*
X0168316Y0358092D02*
X0172542Y0358092D01*
X0171535Y0360489D02*
X0215095Y0360489D01*
X0215095Y0361687D02*
X0174822Y0361687D01*
X0175842Y0359290D02*
X0169515Y0359290D01*
X0179349Y0359290D02*
X0215095Y0359290D01*
X0215095Y0358092D02*
X0182648Y0358092D01*
X0184425Y0356893D02*
X0215095Y0356893D01*
X0215095Y0355695D02*
X0185624Y0355695D01*
X0186459Y0354496D02*
X0215095Y0354496D01*
X0215095Y0353298D02*
X0187151Y0353298D01*
X0187574Y0352099D02*
X0215095Y0352099D01*
X0215095Y0350901D02*
X0187895Y0350901D01*
X0188053Y0349702D02*
X0215095Y0349702D01*
X0215095Y0348504D02*
X0188053Y0348504D01*
X0187986Y0347305D02*
X0215095Y0347305D01*
X0215095Y0346107D02*
X0187665Y0346107D01*
X0187344Y0344908D02*
X0215095Y0344908D01*
X0215095Y0343710D02*
X0186656Y0343710D01*
X0185964Y0342511D02*
X0211821Y0342511D01*
X0210530Y0341313D02*
X0184765Y0341313D01*
X0183237Y0340114D02*
X0209785Y0340114D01*
X0209289Y0338916D02*
X0180618Y0338916D01*
X0220095Y0340114D02*
X0239409Y0340114D01*
X0239409Y0339068D02*
X0240053Y0338424D01*
X0246476Y0338424D01*
X0247120Y0339068D01*
X0247120Y0354940D01*
X0246476Y0355584D01*
X0240053Y0355584D01*
X0239409Y0354940D01*
X0239409Y0339068D01*
X0239561Y0338916D02*
X0220311Y0338916D01*
X0220095Y0341313D02*
X0239409Y0341313D01*
X0239409Y0342511D02*
X0220095Y0342511D01*
X0220095Y0343710D02*
X0239409Y0343710D01*
X0239409Y0344908D02*
X0220095Y0344908D01*
X0220095Y0346107D02*
X0239409Y0346107D01*
X0239409Y0347305D02*
X0220095Y0347305D01*
X0220095Y0348504D02*
X0239409Y0348504D01*
X0239409Y0349702D02*
X0220095Y0349702D01*
X0220095Y0350901D02*
X0239409Y0350901D01*
X0239409Y0352099D02*
X0220095Y0352099D01*
X0220095Y0353298D02*
X0239409Y0353298D01*
X0239409Y0354496D02*
X0220095Y0354496D01*
X0247120Y0354496D02*
X0248070Y0354496D01*
X0248070Y0353298D02*
X0247120Y0353298D01*
X0247120Y0352099D02*
X0248070Y0352099D01*
X0248070Y0350901D02*
X0247120Y0350901D01*
X0247120Y0349702D02*
X0248070Y0349702D01*
X0248070Y0348504D02*
X0247120Y0348504D01*
X0247120Y0347305D02*
X0248070Y0347305D01*
X0248070Y0346107D02*
X0247120Y0346107D01*
X0247120Y0344908D02*
X0248070Y0344908D01*
X0248070Y0343710D02*
X0247120Y0343710D01*
X0247120Y0342511D02*
X0248070Y0342511D01*
X0248070Y0341313D02*
X0247120Y0341313D01*
X0247120Y0340114D02*
X0248070Y0340114D01*
X0248222Y0338916D02*
X0246968Y0338916D01*
X0244009Y0331084D02*
X0227560Y0331084D01*
X0226507Y0330032D01*
X0226507Y0328543D01*
X0226507Y0322158D01*
X0226507Y0320669D01*
X0227560Y0319617D01*
X0244009Y0319617D01*
X0245061Y0320669D01*
X0245061Y0330032D01*
X0244009Y0331084D01*
X0244567Y0330526D02*
X0250623Y0330526D01*
X0250129Y0329328D02*
X0245061Y0329328D01*
X0245061Y0328129D02*
X0250129Y0328129D01*
X0250129Y0326931D02*
X0245061Y0326931D01*
X0245061Y0325732D02*
X0250129Y0325732D01*
X0250129Y0324534D02*
X0245061Y0324534D01*
X0245061Y0323335D02*
X0250129Y0323335D01*
X0250129Y0322137D02*
X0245061Y0322137D01*
X0245061Y0320938D02*
X0250129Y0320938D01*
X0251059Y0319740D02*
X0244132Y0319740D01*
X0227437Y0319740D02*
X0220095Y0319740D01*
X0220095Y0320938D02*
X0226507Y0320938D01*
X0226507Y0322137D02*
X0220095Y0322137D01*
X0220095Y0323335D02*
X0226507Y0323335D01*
X0226507Y0324534D02*
X0220095Y0324534D01*
X0220095Y0325732D02*
X0226507Y0325732D01*
X0226507Y0326931D02*
X0220095Y0326931D01*
X0220095Y0328129D02*
X0226507Y0328129D01*
X0226507Y0329328D02*
X0220095Y0329328D01*
X0220095Y0330526D02*
X0227001Y0330526D01*
X0215095Y0307754D02*
X0214727Y0307754D01*
X0208116Y0307754D02*
X0206916Y0307754D01*
X0206916Y0306556D02*
X0208116Y0306556D01*
X0208116Y0305357D02*
X0206916Y0305357D01*
X0200306Y0307754D02*
X0164445Y0307754D01*
X0171125Y0306556D02*
X0180275Y0306556D01*
X0180275Y0305357D02*
X0171966Y0305357D01*
X0172319Y0304159D02*
X0180275Y0304159D01*
X0180275Y0302960D02*
X0172319Y0302960D01*
X0171717Y0301762D02*
X0180275Y0301762D01*
X0180689Y0300563D02*
X0170377Y0300563D01*
X0164445Y0299365D02*
X0184924Y0299365D01*
X0187674Y0298933D02*
X0187674Y0303933D01*
X0195073Y0306556D02*
X0199617Y0306556D01*
X0198845Y0293933D02*
X0207516Y0293933D01*
X0205095Y0288933D02*
X0200720Y0288933D01*
X0199470Y0287683D01*
X0199470Y0277058D01*
X0198845Y0276433D01*
X0198845Y0273308D01*
X0187674Y0278933D02*
X0187674Y0283933D01*
X0237642Y0298166D02*
X0257611Y0298166D01*
X0257549Y0299365D02*
X0237642Y0299365D01*
X0237711Y0300563D02*
X0257479Y0300563D01*
X0258810Y0296968D02*
X0238436Y0296968D01*
X0395629Y0338916D02*
X0449561Y0338916D01*
X0449409Y0339068D02*
X0450053Y0338424D01*
X0456476Y0338424D01*
X0457120Y0339068D01*
X0457120Y0354940D01*
X0456476Y0355584D01*
X0450053Y0355584D01*
X0449409Y0354940D01*
X0449409Y0339068D01*
X0449409Y0340114D02*
X0395782Y0340114D01*
X0395782Y0341313D02*
X0449409Y0341313D01*
X0449409Y0342511D02*
X0395782Y0342511D01*
X0395782Y0343710D02*
X0449409Y0343710D01*
X0449409Y0344908D02*
X0395782Y0344908D01*
X0395782Y0346107D02*
X0449409Y0346107D01*
X0449409Y0347305D02*
X0395782Y0347305D01*
X0395782Y0348504D02*
X0449409Y0348504D01*
X0449409Y0349702D02*
X0395782Y0349702D01*
X0395782Y0350901D02*
X0449409Y0350901D01*
X0449409Y0352099D02*
X0395782Y0352099D01*
X0395782Y0353298D02*
X0449409Y0353298D01*
X0449409Y0354496D02*
X0395782Y0354496D01*
X0408189Y0330526D02*
X0437001Y0330526D01*
X0436507Y0330032D02*
X0436507Y0328543D01*
X0436507Y0322158D01*
X0436507Y0320669D01*
X0437560Y0319617D01*
X0454009Y0319617D01*
X0455061Y0320669D01*
X0455061Y0330032D01*
X0454009Y0331084D01*
X0437560Y0331084D01*
X0436507Y0330032D01*
X0436507Y0329328D02*
X0408683Y0329328D01*
X0408683Y0328129D02*
X0436507Y0328129D01*
X0436507Y0326931D02*
X0408683Y0326931D01*
X0408683Y0325732D02*
X0436507Y0325732D01*
X0436507Y0324534D02*
X0408683Y0324534D01*
X0408683Y0323335D02*
X0436507Y0323335D01*
X0436507Y0322137D02*
X0408683Y0322137D01*
X0408683Y0320938D02*
X0436507Y0320938D01*
X0437437Y0319740D02*
X0407754Y0319740D01*
X0454132Y0319740D02*
X0461059Y0319740D01*
X0460129Y0320938D02*
X0455061Y0320938D01*
X0455061Y0322137D02*
X0460129Y0322137D01*
X0460129Y0323335D02*
X0455061Y0323335D01*
X0455061Y0324534D02*
X0460129Y0324534D01*
X0460129Y0325732D02*
X0455061Y0325732D01*
X0455061Y0326931D02*
X0460129Y0326931D01*
X0460129Y0328129D02*
X0455061Y0328129D01*
X0455061Y0329328D02*
X0460129Y0329328D01*
X0460623Y0330526D02*
X0454567Y0330526D01*
X0456968Y0338916D02*
X0458222Y0338916D01*
X0458070Y0340114D02*
X0457120Y0340114D01*
X0457120Y0341313D02*
X0458070Y0341313D01*
X0458070Y0342511D02*
X0457120Y0342511D01*
X0457120Y0343710D02*
X0458070Y0343710D01*
X0458070Y0344908D02*
X0457120Y0344908D01*
X0457120Y0346107D02*
X0458070Y0346107D01*
X0458070Y0347305D02*
X0457120Y0347305D01*
X0457120Y0348504D02*
X0458070Y0348504D01*
X0458070Y0349702D02*
X0457120Y0349702D01*
X0457120Y0350901D02*
X0458070Y0350901D01*
X0458070Y0352099D02*
X0457120Y0352099D01*
X0457120Y0353298D02*
X0458070Y0353298D01*
X0458070Y0354496D02*
X0457120Y0354496D01*
X0490095Y0354496D02*
X0518731Y0354496D01*
X0518039Y0353298D02*
X0490095Y0353298D01*
X0490095Y0352099D02*
X0517616Y0352099D01*
X0517295Y0350901D02*
X0490095Y0350901D01*
X0490095Y0349702D02*
X0517137Y0349702D01*
X0517137Y0348504D02*
X0490095Y0348504D01*
X0490095Y0347305D02*
X0517204Y0347305D01*
X0517525Y0346107D02*
X0490095Y0346107D01*
X0490095Y0344908D02*
X0517846Y0344908D01*
X0518535Y0343710D02*
X0490095Y0343710D01*
X0493369Y0342511D02*
X0519227Y0342511D01*
X0520425Y0341313D02*
X0494660Y0341313D01*
X0495405Y0340114D02*
X0521953Y0340114D01*
X0519567Y0355695D02*
X0490095Y0355695D01*
X0490095Y0356893D02*
X0520765Y0356893D01*
X0522542Y0358092D02*
X0490095Y0358092D01*
X0490095Y0359290D02*
X0525842Y0359290D01*
X0533655Y0360489D02*
X0490095Y0360489D01*
X0505073Y0286181D02*
X0510117Y0286181D01*
X0510117Y0284983D02*
X0505073Y0284983D01*
X0505073Y0283784D02*
X0510117Y0283784D01*
X0510117Y0282586D02*
X0505073Y0282586D01*
X0505073Y0281387D02*
X0510117Y0281387D01*
X0489045Y0261012D02*
X0467639Y0261012D01*
X0466740Y0259814D02*
X0489045Y0259814D01*
X0514366Y0251424D02*
X0514572Y0251424D01*
D26*
X0491345Y0256837D02*
X0490095Y0255587D01*
X0434158Y0255587D01*
X0415942Y0255587D01*
X0400095Y0255587D01*
X0399249Y0256433D01*
X0396345Y0256433D01*
X0395499Y0255587D01*
X0386345Y0255587D01*
X0312595Y0255587D01*
X0311345Y0256837D01*
X0311345Y0260587D01*
X0311345Y0284558D01*
X0308845Y0287058D01*
X0250095Y0287058D01*
X0222595Y0311030D02*
X0292595Y0311030D01*
X0348845Y0311030D01*
X0362595Y0311030D01*
X0432595Y0311030D01*
X0491345Y0276433D02*
X0491345Y0256837D01*
X0491345Y0276433D02*
X0500095Y0276433D01*
X0517595Y0276433D02*
X0529942Y0276433D01*
X0446607Y0213933D02*
X0411658Y0213933D01*
X0402220Y0213933D01*
X0374249Y0213933D01*
X0346690Y0213933D01*
X0310095Y0213933D01*
X0275095Y0213933D01*
X0257595Y0213933D01*
X0240408Y0231121D01*
X0239783Y0231121D01*
X0237595Y0228933D01*
X0240408Y0231121D02*
X0228845Y0242683D01*
X0225317Y0242683D01*
X0221567Y0246433D01*
X0219763Y0176765D02*
X0235095Y0176765D01*
X0250388Y0176765D01*
X0254470Y0172683D01*
X0465095Y0172683D01*
X0470095Y0177683D01*
X0480390Y0197004D02*
X0480390Y0201837D01*
X0481640Y0203087D01*
X0484970Y0203087D01*
X0488970Y0203087D02*
X0493845Y0203087D01*
D27*
X0486345Y0168933D02*
X0198845Y0168933D01*
X0198845Y0190183D01*
X0198843Y0190339D01*
X0198837Y0190495D01*
X0198828Y0190650D01*
X0198814Y0190805D01*
X0198796Y0190960D01*
X0198775Y0191115D01*
X0198750Y0191268D01*
X0198721Y0191421D01*
X0198688Y0191574D01*
X0198652Y0191725D01*
X0198611Y0191876D01*
X0198567Y0192025D01*
X0198520Y0192174D01*
X0198468Y0192321D01*
X0198413Y0192466D01*
X0198354Y0192611D01*
X0198292Y0192754D01*
X0198226Y0192895D01*
X0198157Y0193034D01*
X0198084Y0193172D01*
X0198008Y0193308D01*
X0197928Y0193442D01*
X0197845Y0193574D01*
X0197759Y0193704D01*
X0197670Y0193831D01*
X0197577Y0193957D01*
X0197481Y0194080D01*
X0197383Y0194200D01*
X0197281Y0194319D01*
X0197177Y0194434D01*
X0197069Y0194547D01*
X0196959Y0194657D01*
X0196846Y0194765D01*
X0196731Y0194869D01*
X0196612Y0194971D01*
X0196492Y0195069D01*
X0196369Y0195165D01*
X0196243Y0195258D01*
X0196116Y0195347D01*
X0195986Y0195433D01*
X0195854Y0195516D01*
X0195720Y0195596D01*
X0195584Y0195672D01*
X0195446Y0195745D01*
X0195307Y0195814D01*
X0195166Y0195880D01*
X0195023Y0195942D01*
X0194878Y0196001D01*
X0194733Y0196056D01*
X0194586Y0196108D01*
X0194437Y0196155D01*
X0194288Y0196199D01*
X0194137Y0196240D01*
X0193986Y0196276D01*
X0193833Y0196309D01*
X0193680Y0196338D01*
X0193527Y0196363D01*
X0193372Y0196384D01*
X0193217Y0196402D01*
X0193062Y0196416D01*
X0192907Y0196425D01*
X0192751Y0196431D01*
X0192595Y0196433D01*
X0188845Y0196433D01*
X0188705Y0196435D01*
X0188565Y0196441D01*
X0188425Y0196451D01*
X0188285Y0196464D01*
X0188146Y0196482D01*
X0188007Y0196504D01*
X0187870Y0196529D01*
X0187732Y0196558D01*
X0187596Y0196591D01*
X0187461Y0196628D01*
X0187327Y0196669D01*
X0187194Y0196714D01*
X0187062Y0196762D01*
X0186932Y0196814D01*
X0186803Y0196869D01*
X0186676Y0196928D01*
X0186550Y0196991D01*
X0186426Y0197057D01*
X0186305Y0197126D01*
X0186185Y0197199D01*
X0186067Y0197276D01*
X0185952Y0197355D01*
X0185838Y0197438D01*
X0185728Y0197524D01*
X0185619Y0197613D01*
X0185513Y0197705D01*
X0185410Y0197800D01*
X0185309Y0197897D01*
X0185212Y0197998D01*
X0185117Y0198101D01*
X0185025Y0198207D01*
X0184936Y0198316D01*
X0184850Y0198426D01*
X0184767Y0198540D01*
X0184688Y0198655D01*
X0184611Y0198773D01*
X0184538Y0198893D01*
X0184469Y0199014D01*
X0184403Y0199138D01*
X0184340Y0199264D01*
X0184281Y0199391D01*
X0184226Y0199520D01*
X0184174Y0199650D01*
X0184126Y0199782D01*
X0184081Y0199915D01*
X0184040Y0200049D01*
X0184003Y0200184D01*
X0183970Y0200320D01*
X0183941Y0200458D01*
X0183916Y0200595D01*
X0183894Y0200734D01*
X0183876Y0200873D01*
X0183863Y0201013D01*
X0183853Y0201153D01*
X0183847Y0201293D01*
X0183845Y0201433D01*
X0183845Y0224558D01*
X0183845Y0243933D01*
M02*
