%
M48
M72
T01C0.01300
T02C0.02362
T03C0.03500
T04C0.07874
T05C0.17717
%
T01
X513845Y182558
X512595Y350058
X505095Y342558
X497595Y335058
X432595Y316433
X432595Y311030
X432595Y303933
X422595Y303933
X412595Y303933
X399249Y302683
X387595Y306433
X412595Y316433
X422595Y323933
X422595Y333933
X422595Y343933
X422595Y353933
X387595Y358933
X317595Y358933
X292595Y316433
X292595Y311030
X292595Y303933
X282595Y303933
X272595Y303933
X259249Y302683
X247595Y306433
X235942Y302683
X222595Y303933
X222595Y311030
X272595Y316433
X282595Y323933
X282595Y333933
X282595Y343933
X282595Y353933
X247595Y358933
X207595Y350058
X200095Y357558
X192595Y350058
X200095Y342558
X192595Y335058
X200095Y330058
X207595Y335058
X207595Y322558
X195095Y321433
X178595Y320933
X198845Y168933
X207595Y183933
X222595Y183933
X235720Y189558
X240184Y186433
X240095Y181433
X250388Y176765
X262595Y181308
X270095Y176308
X292595Y176308
X300095Y181308
X322595Y176308
X327595Y181308
X332595Y176308
X337595Y181308
X342595Y176308
X347595Y181308
X352595Y176308
X357595Y181308
X362595Y176308
X367595Y181308
X372595Y176308
X377595Y181308
X377595Y189558
X392595Y202683
X397595Y198808
X407220Y192808
X412220Y195808
X425720Y205058
X433615Y198808
X438220Y205058
X446345Y205058
X447595Y195808
X442276Y192808
X440095Y183808
X440095Y177558
X427595Y183808
X452595Y183808
X452595Y177558
X465095Y183808
X465095Y188933
X456345Y193183
X475095Y203808
X477595Y188808
X497595Y196433
X513845Y192683
X526345Y192558
X526595Y206933
X515095Y221308
X523249Y228933
X508835Y238308
X516595Y249558
X525095Y258933
X536970Y250058
X536970Y238808
X536970Y227558
X500095Y221308
X496345Y211748
X474470Y225058
X474470Y232558
X475095Y244602
X480095Y260058
X486345Y260058
X475720Y265587
X465095Y262058
X460095Y260058
X450095Y260058
X440095Y260058
X434158Y255587
X431345Y252058
X420095Y260058
X415942Y255587
X399720Y259808
X394470Y259558
X389720Y259808
X386345Y255587
X397595Y252371
X400095Y246433
X391345Y232683
X397595Y225183
X402220Y213933
X411658Y213933
X428220Y228933
X425095Y232058
X431345Y232058
X446607Y213933
X470095Y177683
X486345Y168933
X377595Y221433
X374249Y213933
X362438Y225183
X366375Y227058
X358501Y227058
X346690Y213933
X350627Y195808
X354564Y192808
X312345Y202683
X302595Y208808
X310095Y213933
X292595Y203808
X281345Y208183
X275095Y213933
X270845Y209558
X270095Y203808
X249595Y210183
X246345Y212683
X243095Y210183
X237595Y212558
X222595Y212558
X207595Y212558
X197595Y216308
X210095Y224558
X236345Y224558
X237595Y228933
X227595Y246433
X221567Y246433
X215095Y246308
X207595Y246308
X183845Y243933
X178595Y254558
X178595Y263933
X183845Y267683
X187674Y278933
X196345Y273933
X207516Y278933
X215095Y277558
X215095Y270058
X222595Y268150
X222595Y272604
X226970Y273933
X231970Y274012
X235095Y277683
X239629Y275808
X244083Y275808
X240720Y282058
X245720Y287058
X250095Y287058
X257595Y277683
X268528Y277683
X272982Y277683
X277437Y277683
X281891Y277683
X281970Y273308
X282129Y268933
X282129Y264558
X286583Y264558
X292595Y256433
X305970Y267933
X300970Y275433
X295970Y282933
X290970Y275433
X285970Y282933
X305970Y282933
X315970Y282933
X325095Y278933
X328220Y273933
X315970Y267933
X311345Y260587
X315095Y251433
X313845Y247058
X321970Y246433
X324470Y249558
X355095Y260183
X355095Y271433
X370345Y262308
X376970Y273933
X380095Y278933
X390720Y273933
X397220Y286058
X404795Y287058
X407595Y283933
X433845Y278808
X441345Y278808
X465095Y272683
X480095Y278808
X486345Y278808
X488845Y292058
X482595Y303933
X469249Y302683
X457595Y306433
X445942Y302683
X497595Y320058
X505095Y327558
X510095Y321433
X512595Y335058
X526595Y320933
X529942Y301433
X508845Y293933
X500095Y276433
X510095Y266433
X517595Y276433
X525095Y271433
X529942Y276433
X457595Y358933
X497595Y350058
X505095Y357558
X187674Y298933
X205095Y288933
X257595Y248933
X305942Y302683
X317595Y306433
X332595Y288933
X342595Y293933
X362595Y293933
X362595Y303933
X362595Y311030
X351970Y316433
X348845Y311030
X345095Y316433
X352595Y328933
X372595Y288933
X377595Y227058
X183845Y224558
X178595Y216433
X178595Y206933
T02
X219763Y176765
X196567Y206933
X298845Y255183
X370720Y222683
X404470Y220808
X411658Y220808
X455268Y233308
X497595Y242683
X508835Y220433
X493845Y203087
X501345Y180183
X387595Y180573
X465095Y278933
X352595Y356433
T03
X462355Y177291
X430859Y177291
T04
X214800Y190114
X490390Y337752
X490390Y190114
X214800Y337752
T05
X527595Y178933
X527595Y348933
X177595Y348933
X177595Y178933
M30
