G75*
%MOIN*%
%OFA0B0*%
%FSLAX25Y25*%
%IPPOS*%
%LPD*%
%AMOC8*
5,1,8,0,0,1.08239X$1,22.5*
%
%ADD10C,0.00500*%
%ADD11C,0.03200*%
%ADD12C,0.00000*%
%ADD13C,0.00394*%
D10*
X0177595Y0163933D02*
X0527595Y0163933D01*
X0527957Y0163937D01*
X0528320Y0163951D01*
X0528682Y0163972D01*
X0529043Y0164003D01*
X0529403Y0164042D01*
X0529762Y0164090D01*
X0530120Y0164147D01*
X0530477Y0164212D01*
X0530832Y0164286D01*
X0531185Y0164369D01*
X0531536Y0164460D01*
X0531884Y0164559D01*
X0532230Y0164667D01*
X0532574Y0164783D01*
X0532914Y0164908D01*
X0533251Y0165040D01*
X0533585Y0165181D01*
X0533916Y0165330D01*
X0534243Y0165487D01*
X0534566Y0165651D01*
X0534885Y0165823D01*
X0535199Y0166003D01*
X0535510Y0166191D01*
X0535815Y0166386D01*
X0536116Y0166588D01*
X0536412Y0166798D01*
X0536702Y0167014D01*
X0536988Y0167238D01*
X0537268Y0167468D01*
X0537542Y0167705D01*
X0537810Y0167949D01*
X0538073Y0168199D01*
X0538329Y0168455D01*
X0538579Y0168718D01*
X0538823Y0168986D01*
X0539060Y0169260D01*
X0539290Y0169540D01*
X0539514Y0169826D01*
X0539730Y0170116D01*
X0539940Y0170412D01*
X0540142Y0170713D01*
X0540337Y0171018D01*
X0540525Y0171329D01*
X0540705Y0171643D01*
X0540877Y0171962D01*
X0541041Y0172285D01*
X0541198Y0172612D01*
X0541347Y0172943D01*
X0541488Y0173277D01*
X0541620Y0173614D01*
X0541745Y0173954D01*
X0541861Y0174298D01*
X0541969Y0174644D01*
X0542068Y0174992D01*
X0542159Y0175343D01*
X0542242Y0175696D01*
X0542316Y0176051D01*
X0542381Y0176408D01*
X0542438Y0176766D01*
X0542486Y0177125D01*
X0542525Y0177485D01*
X0542556Y0177846D01*
X0542577Y0178208D01*
X0542591Y0178571D01*
X0542595Y0178933D01*
X0542595Y0302004D01*
X0536493Y0302004D01*
X0536411Y0302006D01*
X0536330Y0302012D01*
X0536248Y0302021D01*
X0536167Y0302034D01*
X0536087Y0302051D01*
X0536008Y0302072D01*
X0535930Y0302096D01*
X0535853Y0302124D01*
X0535777Y0302155D01*
X0535703Y0302190D01*
X0535631Y0302228D01*
X0535560Y0302269D01*
X0535492Y0302314D01*
X0535425Y0302362D01*
X0535361Y0302413D01*
X0535299Y0302466D01*
X0535240Y0302523D01*
X0535183Y0302582D01*
X0535130Y0302644D01*
X0535079Y0302708D01*
X0535031Y0302775D01*
X0534986Y0302843D01*
X0534945Y0302914D01*
X0534907Y0302986D01*
X0534872Y0303060D01*
X0534841Y0303136D01*
X0534813Y0303213D01*
X0534789Y0303291D01*
X0534768Y0303370D01*
X0534751Y0303450D01*
X0534738Y0303531D01*
X0534729Y0303613D01*
X0534723Y0303694D01*
X0534721Y0303776D01*
X0534723Y0303858D01*
X0534729Y0303939D01*
X0534738Y0304021D01*
X0534751Y0304102D01*
X0534768Y0304182D01*
X0534789Y0304261D01*
X0534813Y0304339D01*
X0534841Y0304416D01*
X0534872Y0304492D01*
X0534907Y0304566D01*
X0534945Y0304638D01*
X0534986Y0304709D01*
X0535031Y0304777D01*
X0535079Y0304844D01*
X0535130Y0304908D01*
X0535183Y0304970D01*
X0535240Y0305029D01*
X0535299Y0305086D01*
X0535361Y0305139D01*
X0535425Y0305190D01*
X0535492Y0305238D01*
X0535560Y0305283D01*
X0535631Y0305324D01*
X0535703Y0305362D01*
X0535777Y0305397D01*
X0535853Y0305428D01*
X0535930Y0305456D01*
X0536008Y0305480D01*
X0536087Y0305501D01*
X0536167Y0305518D01*
X0536248Y0305531D01*
X0536330Y0305540D01*
X0536411Y0305546D01*
X0536493Y0305548D01*
X0536493Y0305547D02*
X0542595Y0305547D01*
X0542595Y0348933D01*
X0542591Y0349295D01*
X0542577Y0349658D01*
X0542556Y0350020D01*
X0542525Y0350381D01*
X0542486Y0350741D01*
X0542438Y0351100D01*
X0542381Y0351458D01*
X0542316Y0351815D01*
X0542242Y0352170D01*
X0542159Y0352523D01*
X0542068Y0352874D01*
X0541969Y0353222D01*
X0541861Y0353568D01*
X0541745Y0353912D01*
X0541620Y0354252D01*
X0541488Y0354589D01*
X0541347Y0354923D01*
X0541198Y0355254D01*
X0541041Y0355581D01*
X0540877Y0355904D01*
X0540705Y0356223D01*
X0540525Y0356537D01*
X0540337Y0356848D01*
X0540142Y0357153D01*
X0539940Y0357454D01*
X0539730Y0357750D01*
X0539514Y0358040D01*
X0539290Y0358326D01*
X0539060Y0358606D01*
X0538823Y0358880D01*
X0538579Y0359148D01*
X0538329Y0359411D01*
X0538073Y0359667D01*
X0537810Y0359917D01*
X0537542Y0360161D01*
X0537268Y0360398D01*
X0536988Y0360628D01*
X0536702Y0360852D01*
X0536412Y0361068D01*
X0536116Y0361278D01*
X0535815Y0361480D01*
X0535510Y0361675D01*
X0535199Y0361863D01*
X0534885Y0362043D01*
X0534566Y0362215D01*
X0534243Y0362379D01*
X0533916Y0362536D01*
X0533585Y0362685D01*
X0533251Y0362826D01*
X0532914Y0362958D01*
X0532574Y0363083D01*
X0532230Y0363199D01*
X0531884Y0363307D01*
X0531536Y0363406D01*
X0531185Y0363497D01*
X0530832Y0363580D01*
X0530477Y0363654D01*
X0530120Y0363719D01*
X0529762Y0363776D01*
X0529403Y0363824D01*
X0529043Y0363863D01*
X0528682Y0363894D01*
X0528320Y0363915D01*
X0527957Y0363929D01*
X0527595Y0363933D01*
X0177595Y0363933D01*
X0177233Y0363929D01*
X0176870Y0363915D01*
X0176508Y0363894D01*
X0176147Y0363863D01*
X0175787Y0363824D01*
X0175428Y0363776D01*
X0175070Y0363719D01*
X0174713Y0363654D01*
X0174358Y0363580D01*
X0174005Y0363497D01*
X0173654Y0363406D01*
X0173306Y0363307D01*
X0172960Y0363199D01*
X0172616Y0363083D01*
X0172276Y0362958D01*
X0171939Y0362826D01*
X0171605Y0362685D01*
X0171274Y0362536D01*
X0170947Y0362379D01*
X0170624Y0362215D01*
X0170305Y0362043D01*
X0169991Y0361863D01*
X0169680Y0361675D01*
X0169375Y0361480D01*
X0169074Y0361278D01*
X0168778Y0361068D01*
X0168488Y0360852D01*
X0168202Y0360628D01*
X0167922Y0360398D01*
X0167648Y0360161D01*
X0167380Y0359917D01*
X0167117Y0359667D01*
X0166861Y0359411D01*
X0166611Y0359148D01*
X0166367Y0358880D01*
X0166130Y0358606D01*
X0165900Y0358326D01*
X0165676Y0358040D01*
X0165460Y0357750D01*
X0165250Y0357454D01*
X0165048Y0357153D01*
X0164853Y0356848D01*
X0164665Y0356537D01*
X0164485Y0356223D01*
X0164313Y0355904D01*
X0164149Y0355581D01*
X0163992Y0355254D01*
X0163843Y0354923D01*
X0163702Y0354589D01*
X0163570Y0354252D01*
X0163445Y0353912D01*
X0163329Y0353568D01*
X0163221Y0353222D01*
X0163122Y0352874D01*
X0163031Y0352523D01*
X0162948Y0352170D01*
X0162874Y0351815D01*
X0162809Y0351458D01*
X0162752Y0351100D01*
X0162704Y0350741D01*
X0162665Y0350381D01*
X0162634Y0350020D01*
X0162613Y0349658D01*
X0162599Y0349295D01*
X0162595Y0348933D01*
X0162595Y0305547D01*
X0168698Y0305547D01*
X0168698Y0305548D02*
X0168780Y0305546D01*
X0168861Y0305540D01*
X0168943Y0305531D01*
X0169024Y0305518D01*
X0169104Y0305501D01*
X0169183Y0305480D01*
X0169261Y0305456D01*
X0169338Y0305428D01*
X0169414Y0305397D01*
X0169488Y0305362D01*
X0169560Y0305324D01*
X0169631Y0305283D01*
X0169699Y0305238D01*
X0169766Y0305190D01*
X0169830Y0305139D01*
X0169892Y0305086D01*
X0169951Y0305029D01*
X0170008Y0304970D01*
X0170061Y0304908D01*
X0170112Y0304844D01*
X0170160Y0304777D01*
X0170205Y0304709D01*
X0170246Y0304638D01*
X0170284Y0304566D01*
X0170319Y0304492D01*
X0170350Y0304416D01*
X0170378Y0304339D01*
X0170402Y0304261D01*
X0170423Y0304182D01*
X0170440Y0304102D01*
X0170453Y0304021D01*
X0170462Y0303939D01*
X0170468Y0303858D01*
X0170470Y0303776D01*
X0170468Y0303694D01*
X0170462Y0303613D01*
X0170453Y0303531D01*
X0170440Y0303450D01*
X0170423Y0303370D01*
X0170402Y0303291D01*
X0170378Y0303213D01*
X0170350Y0303136D01*
X0170319Y0303060D01*
X0170284Y0302986D01*
X0170246Y0302914D01*
X0170205Y0302843D01*
X0170160Y0302775D01*
X0170112Y0302708D01*
X0170061Y0302644D01*
X0170008Y0302582D01*
X0169951Y0302523D01*
X0169892Y0302466D01*
X0169830Y0302413D01*
X0169766Y0302362D01*
X0169699Y0302314D01*
X0169631Y0302269D01*
X0169560Y0302228D01*
X0169488Y0302190D01*
X0169414Y0302155D01*
X0169338Y0302124D01*
X0169261Y0302096D01*
X0169183Y0302072D01*
X0169104Y0302051D01*
X0169024Y0302034D01*
X0168943Y0302021D01*
X0168861Y0302012D01*
X0168780Y0302006D01*
X0168698Y0302004D01*
X0162595Y0302004D01*
X0162595Y0178933D01*
X0162599Y0178571D01*
X0162613Y0178208D01*
X0162634Y0177846D01*
X0162665Y0177485D01*
X0162704Y0177125D01*
X0162752Y0176766D01*
X0162809Y0176408D01*
X0162874Y0176051D01*
X0162948Y0175696D01*
X0163031Y0175343D01*
X0163122Y0174992D01*
X0163221Y0174644D01*
X0163329Y0174298D01*
X0163445Y0173954D01*
X0163570Y0173614D01*
X0163702Y0173277D01*
X0163843Y0172943D01*
X0163992Y0172612D01*
X0164149Y0172285D01*
X0164313Y0171962D01*
X0164485Y0171643D01*
X0164665Y0171329D01*
X0164853Y0171018D01*
X0165048Y0170713D01*
X0165250Y0170412D01*
X0165460Y0170116D01*
X0165676Y0169826D01*
X0165900Y0169540D01*
X0166130Y0169260D01*
X0166367Y0168986D01*
X0166611Y0168718D01*
X0166861Y0168455D01*
X0167117Y0168199D01*
X0167380Y0167949D01*
X0167648Y0167705D01*
X0167922Y0167468D01*
X0168202Y0167238D01*
X0168488Y0167014D01*
X0168778Y0166798D01*
X0169074Y0166588D01*
X0169375Y0166386D01*
X0169680Y0166191D01*
X0169991Y0166003D01*
X0170305Y0165823D01*
X0170624Y0165651D01*
X0170947Y0165487D01*
X0171274Y0165330D01*
X0171605Y0165181D01*
X0171939Y0165040D01*
X0172276Y0164908D01*
X0172616Y0164783D01*
X0172960Y0164667D01*
X0173306Y0164559D01*
X0173654Y0164460D01*
X0174005Y0164369D01*
X0174358Y0164286D01*
X0174713Y0164212D01*
X0175070Y0164147D01*
X0175428Y0164090D01*
X0175787Y0164042D01*
X0176147Y0164003D01*
X0176508Y0163972D01*
X0176870Y0163951D01*
X0177233Y0163937D01*
X0177595Y0163933D01*
X0162345Y0215933D02*
X0152595Y0215933D01*
X0152595Y0255933D01*
X0162345Y0255933D01*
X0162345Y0215933D01*
X0166316Y0221169D02*
X0168875Y0221169D01*
X0168875Y0221170D02*
X0168937Y0221172D01*
X0168998Y0221178D01*
X0169059Y0221187D01*
X0169120Y0221201D01*
X0169179Y0221218D01*
X0169237Y0221239D01*
X0169294Y0221264D01*
X0169349Y0221292D01*
X0169402Y0221323D01*
X0169453Y0221358D01*
X0169502Y0221396D01*
X0169549Y0221437D01*
X0169592Y0221480D01*
X0169633Y0221527D01*
X0169671Y0221576D01*
X0169706Y0221627D01*
X0169737Y0221680D01*
X0169765Y0221735D01*
X0169790Y0221792D01*
X0169811Y0221850D01*
X0169828Y0221909D01*
X0169842Y0221970D01*
X0169851Y0222031D01*
X0169857Y0222092D01*
X0169859Y0222154D01*
X0169857Y0222216D01*
X0169851Y0222277D01*
X0169842Y0222338D01*
X0169828Y0222399D01*
X0169811Y0222458D01*
X0169790Y0222516D01*
X0169765Y0222573D01*
X0169737Y0222628D01*
X0169706Y0222681D01*
X0169671Y0222732D01*
X0169633Y0222781D01*
X0169592Y0222828D01*
X0169549Y0222871D01*
X0169502Y0222912D01*
X0169453Y0222950D01*
X0169402Y0222985D01*
X0169349Y0223016D01*
X0169294Y0223044D01*
X0169237Y0223069D01*
X0169179Y0223090D01*
X0169120Y0223107D01*
X0169059Y0223121D01*
X0168998Y0223130D01*
X0168937Y0223136D01*
X0168875Y0223138D01*
X0166316Y0223138D01*
X0165332Y0222154D02*
X0165334Y0222092D01*
X0165340Y0222031D01*
X0165349Y0221970D01*
X0165363Y0221909D01*
X0165380Y0221850D01*
X0165401Y0221792D01*
X0165426Y0221735D01*
X0165454Y0221680D01*
X0165485Y0221627D01*
X0165520Y0221576D01*
X0165558Y0221527D01*
X0165599Y0221480D01*
X0165642Y0221437D01*
X0165689Y0221396D01*
X0165738Y0221358D01*
X0165789Y0221323D01*
X0165842Y0221292D01*
X0165897Y0221264D01*
X0165954Y0221239D01*
X0166012Y0221218D01*
X0166071Y0221201D01*
X0166132Y0221187D01*
X0166193Y0221178D01*
X0166254Y0221172D01*
X0166316Y0221170D01*
X0165332Y0222154D02*
X0165334Y0222216D01*
X0165340Y0222277D01*
X0165349Y0222338D01*
X0165363Y0222399D01*
X0165380Y0222458D01*
X0165401Y0222516D01*
X0165426Y0222573D01*
X0165454Y0222628D01*
X0165485Y0222681D01*
X0165520Y0222732D01*
X0165558Y0222781D01*
X0165599Y0222828D01*
X0165642Y0222871D01*
X0165689Y0222912D01*
X0165738Y0222950D01*
X0165789Y0222985D01*
X0165842Y0223016D01*
X0165897Y0223044D01*
X0165954Y0223069D01*
X0166012Y0223090D01*
X0166071Y0223107D01*
X0166132Y0223121D01*
X0166193Y0223130D01*
X0166254Y0223136D01*
X0166316Y0223138D01*
X0177142Y0225500D02*
X0177142Y0226681D01*
X0178225Y0227764D02*
X0178288Y0227762D01*
X0178351Y0227757D01*
X0178413Y0227748D01*
X0178475Y0227735D01*
X0178536Y0227719D01*
X0178595Y0227699D01*
X0178654Y0227675D01*
X0178711Y0227649D01*
X0178767Y0227619D01*
X0178820Y0227586D01*
X0178872Y0227550D01*
X0178921Y0227511D01*
X0178968Y0227469D01*
X0179013Y0227424D01*
X0179055Y0227377D01*
X0179094Y0227328D01*
X0179130Y0227276D01*
X0179163Y0227223D01*
X0179193Y0227167D01*
X0179219Y0227110D01*
X0179243Y0227051D01*
X0179263Y0226992D01*
X0179279Y0226931D01*
X0179292Y0226869D01*
X0179301Y0226807D01*
X0179306Y0226744D01*
X0179308Y0226681D01*
X0179308Y0225500D01*
X0178225Y0224417D02*
X0178162Y0224419D01*
X0178099Y0224424D01*
X0178037Y0224433D01*
X0177975Y0224446D01*
X0177914Y0224462D01*
X0177855Y0224482D01*
X0177796Y0224506D01*
X0177739Y0224532D01*
X0177684Y0224562D01*
X0177630Y0224595D01*
X0177578Y0224631D01*
X0177529Y0224670D01*
X0177482Y0224712D01*
X0177437Y0224757D01*
X0177395Y0224804D01*
X0177356Y0224853D01*
X0177320Y0224905D01*
X0177287Y0224959D01*
X0177257Y0225014D01*
X0177231Y0225071D01*
X0177207Y0225130D01*
X0177187Y0225189D01*
X0177171Y0225250D01*
X0177158Y0225312D01*
X0177149Y0225374D01*
X0177144Y0225437D01*
X0177142Y0225500D01*
X0178225Y0224417D02*
X0178288Y0224419D01*
X0178351Y0224424D01*
X0178413Y0224433D01*
X0178475Y0224446D01*
X0178536Y0224462D01*
X0178595Y0224482D01*
X0178654Y0224506D01*
X0178711Y0224532D01*
X0178767Y0224562D01*
X0178820Y0224595D01*
X0178872Y0224631D01*
X0178921Y0224670D01*
X0178968Y0224712D01*
X0179013Y0224757D01*
X0179055Y0224804D01*
X0179094Y0224853D01*
X0179130Y0224905D01*
X0179163Y0224959D01*
X0179193Y0225014D01*
X0179219Y0225071D01*
X0179243Y0225130D01*
X0179263Y0225189D01*
X0179279Y0225250D01*
X0179292Y0225312D01*
X0179301Y0225374D01*
X0179306Y0225437D01*
X0179308Y0225500D01*
X0177142Y0226681D02*
X0177144Y0226744D01*
X0177149Y0226807D01*
X0177158Y0226869D01*
X0177171Y0226931D01*
X0177187Y0226992D01*
X0177207Y0227051D01*
X0177231Y0227110D01*
X0177257Y0227167D01*
X0177287Y0227223D01*
X0177320Y0227276D01*
X0177356Y0227328D01*
X0177395Y0227377D01*
X0177437Y0227424D01*
X0177482Y0227469D01*
X0177529Y0227511D01*
X0177578Y0227550D01*
X0177630Y0227586D01*
X0177684Y0227619D01*
X0177739Y0227649D01*
X0177796Y0227675D01*
X0177855Y0227699D01*
X0177914Y0227719D01*
X0177975Y0227735D01*
X0178037Y0227748D01*
X0178099Y0227757D01*
X0178162Y0227762D01*
X0178225Y0227764D01*
X0178323Y0244102D02*
X0178225Y0244102D01*
X0178162Y0244104D01*
X0178099Y0244109D01*
X0178037Y0244118D01*
X0177975Y0244131D01*
X0177914Y0244147D01*
X0177855Y0244167D01*
X0177796Y0244191D01*
X0177739Y0244217D01*
X0177684Y0244247D01*
X0177630Y0244280D01*
X0177578Y0244316D01*
X0177529Y0244355D01*
X0177482Y0244397D01*
X0177437Y0244442D01*
X0177395Y0244489D01*
X0177356Y0244538D01*
X0177320Y0244590D01*
X0177287Y0244644D01*
X0177257Y0244699D01*
X0177231Y0244756D01*
X0177207Y0244815D01*
X0177187Y0244874D01*
X0177171Y0244935D01*
X0177158Y0244997D01*
X0177149Y0245059D01*
X0177144Y0245122D01*
X0177142Y0245185D01*
X0177142Y0246366D01*
X0177144Y0246429D01*
X0177149Y0246492D01*
X0177158Y0246554D01*
X0177171Y0246616D01*
X0177187Y0246677D01*
X0177207Y0246736D01*
X0177231Y0246795D01*
X0177257Y0246852D01*
X0177287Y0246908D01*
X0177320Y0246961D01*
X0177356Y0247013D01*
X0177395Y0247062D01*
X0177437Y0247109D01*
X0177482Y0247154D01*
X0177529Y0247196D01*
X0177578Y0247235D01*
X0177630Y0247271D01*
X0177684Y0247304D01*
X0177739Y0247334D01*
X0177796Y0247360D01*
X0177855Y0247384D01*
X0177914Y0247404D01*
X0177975Y0247420D01*
X0178037Y0247433D01*
X0178099Y0247442D01*
X0178162Y0247447D01*
X0178225Y0247449D01*
X0178323Y0247449D01*
X0178386Y0247447D01*
X0178449Y0247442D01*
X0178511Y0247433D01*
X0178573Y0247420D01*
X0178634Y0247404D01*
X0178693Y0247384D01*
X0178752Y0247360D01*
X0178809Y0247334D01*
X0178865Y0247304D01*
X0178918Y0247271D01*
X0178970Y0247235D01*
X0179019Y0247196D01*
X0179066Y0247154D01*
X0179111Y0247109D01*
X0179153Y0247062D01*
X0179192Y0247013D01*
X0179228Y0246961D01*
X0179261Y0246908D01*
X0179291Y0246852D01*
X0179317Y0246795D01*
X0179341Y0246736D01*
X0179361Y0246677D01*
X0179377Y0246616D01*
X0179390Y0246554D01*
X0179399Y0246492D01*
X0179404Y0246429D01*
X0179406Y0246366D01*
X0179406Y0245185D01*
X0179404Y0245122D01*
X0179399Y0245059D01*
X0179390Y0244997D01*
X0179377Y0244935D01*
X0179361Y0244874D01*
X0179341Y0244815D01*
X0179317Y0244756D01*
X0179291Y0244699D01*
X0179261Y0244644D01*
X0179228Y0244590D01*
X0179192Y0244538D01*
X0179153Y0244489D01*
X0179111Y0244442D01*
X0179066Y0244397D01*
X0179019Y0244355D01*
X0178970Y0244316D01*
X0178918Y0244280D01*
X0178865Y0244247D01*
X0178809Y0244217D01*
X0178752Y0244191D01*
X0178693Y0244167D01*
X0178634Y0244147D01*
X0178573Y0244131D01*
X0178511Y0244118D01*
X0178449Y0244109D01*
X0178386Y0244104D01*
X0178323Y0244102D01*
X0168875Y0248728D02*
X0166316Y0248728D01*
X0165332Y0249713D02*
X0165334Y0249775D01*
X0165340Y0249836D01*
X0165349Y0249897D01*
X0165363Y0249958D01*
X0165380Y0250017D01*
X0165401Y0250075D01*
X0165426Y0250132D01*
X0165454Y0250187D01*
X0165485Y0250240D01*
X0165520Y0250291D01*
X0165558Y0250340D01*
X0165599Y0250387D01*
X0165642Y0250430D01*
X0165689Y0250471D01*
X0165738Y0250509D01*
X0165789Y0250544D01*
X0165842Y0250575D01*
X0165897Y0250603D01*
X0165954Y0250628D01*
X0166012Y0250649D01*
X0166071Y0250666D01*
X0166132Y0250680D01*
X0166193Y0250689D01*
X0166254Y0250695D01*
X0166316Y0250697D01*
X0168875Y0250697D01*
X0169859Y0249713D02*
X0169857Y0249651D01*
X0169851Y0249590D01*
X0169842Y0249529D01*
X0169828Y0249468D01*
X0169811Y0249409D01*
X0169790Y0249351D01*
X0169765Y0249294D01*
X0169737Y0249239D01*
X0169706Y0249186D01*
X0169671Y0249135D01*
X0169633Y0249086D01*
X0169592Y0249039D01*
X0169549Y0248996D01*
X0169502Y0248955D01*
X0169453Y0248917D01*
X0169402Y0248882D01*
X0169349Y0248851D01*
X0169294Y0248823D01*
X0169237Y0248798D01*
X0169179Y0248777D01*
X0169120Y0248760D01*
X0169059Y0248746D01*
X0168998Y0248737D01*
X0168937Y0248731D01*
X0168875Y0248729D01*
X0169859Y0249713D02*
X0169857Y0249775D01*
X0169851Y0249836D01*
X0169842Y0249897D01*
X0169828Y0249958D01*
X0169811Y0250017D01*
X0169790Y0250075D01*
X0169765Y0250132D01*
X0169737Y0250187D01*
X0169706Y0250240D01*
X0169671Y0250291D01*
X0169633Y0250340D01*
X0169592Y0250387D01*
X0169549Y0250430D01*
X0169502Y0250471D01*
X0169453Y0250509D01*
X0169402Y0250544D01*
X0169349Y0250575D01*
X0169294Y0250603D01*
X0169237Y0250628D01*
X0169179Y0250649D01*
X0169120Y0250666D01*
X0169059Y0250680D01*
X0168998Y0250689D01*
X0168937Y0250695D01*
X0168875Y0250697D01*
X0166316Y0248729D02*
X0166254Y0248731D01*
X0166193Y0248737D01*
X0166132Y0248746D01*
X0166071Y0248760D01*
X0166012Y0248777D01*
X0165954Y0248798D01*
X0165897Y0248823D01*
X0165842Y0248851D01*
X0165789Y0248882D01*
X0165738Y0248917D01*
X0165689Y0248955D01*
X0165642Y0248996D01*
X0165599Y0249039D01*
X0165558Y0249086D01*
X0165520Y0249135D01*
X0165485Y0249186D01*
X0165454Y0249239D01*
X0165426Y0249294D01*
X0165401Y0249351D01*
X0165380Y0249409D01*
X0165363Y0249468D01*
X0165349Y0249529D01*
X0165340Y0249590D01*
X0165334Y0249651D01*
X0165332Y0249713D01*
X0200430Y0253933D02*
X0200430Y0273933D01*
X0211304Y0273933D01*
X0211304Y0253933D01*
X0200430Y0253933D01*
X0493886Y0253933D02*
X0493886Y0273933D01*
X0504760Y0273933D01*
X0504760Y0253933D01*
X0493886Y0253933D01*
D11*
X0482595Y0291433D02*
X0390095Y0291433D01*
X0385095Y0286433D01*
X0385095Y0275933D01*
X0320095Y0275933D02*
X0320095Y0286433D01*
X0315095Y0291433D01*
X0222595Y0291433D01*
X0217595Y0296433D01*
X0217595Y0328933D01*
X0482595Y0291433D02*
X0487595Y0296433D01*
X0487595Y0328933D01*
D12*
X0486453Y0337752D02*
X0486455Y0337877D01*
X0486461Y0338002D01*
X0486471Y0338126D01*
X0486485Y0338250D01*
X0486502Y0338374D01*
X0486524Y0338497D01*
X0486550Y0338619D01*
X0486579Y0338741D01*
X0486612Y0338861D01*
X0486650Y0338980D01*
X0486690Y0339099D01*
X0486735Y0339215D01*
X0486783Y0339330D01*
X0486835Y0339444D01*
X0486891Y0339556D01*
X0486950Y0339666D01*
X0487012Y0339774D01*
X0487078Y0339881D01*
X0487147Y0339985D01*
X0487220Y0340086D01*
X0487295Y0340186D01*
X0487374Y0340283D01*
X0487456Y0340377D01*
X0487541Y0340469D01*
X0487628Y0340558D01*
X0487719Y0340644D01*
X0487812Y0340727D01*
X0487908Y0340808D01*
X0488006Y0340885D01*
X0488106Y0340959D01*
X0488209Y0341030D01*
X0488314Y0341097D01*
X0488422Y0341162D01*
X0488531Y0341222D01*
X0488642Y0341280D01*
X0488755Y0341333D01*
X0488869Y0341383D01*
X0488985Y0341430D01*
X0489102Y0341472D01*
X0489221Y0341511D01*
X0489341Y0341547D01*
X0489462Y0341578D01*
X0489584Y0341606D01*
X0489706Y0341629D01*
X0489830Y0341649D01*
X0489954Y0341665D01*
X0490078Y0341677D01*
X0490203Y0341685D01*
X0490328Y0341689D01*
X0490452Y0341689D01*
X0490577Y0341685D01*
X0490702Y0341677D01*
X0490826Y0341665D01*
X0490950Y0341649D01*
X0491074Y0341629D01*
X0491196Y0341606D01*
X0491318Y0341578D01*
X0491439Y0341547D01*
X0491559Y0341511D01*
X0491678Y0341472D01*
X0491795Y0341430D01*
X0491911Y0341383D01*
X0492025Y0341333D01*
X0492138Y0341280D01*
X0492249Y0341222D01*
X0492359Y0341162D01*
X0492466Y0341097D01*
X0492571Y0341030D01*
X0492674Y0340959D01*
X0492774Y0340885D01*
X0492872Y0340808D01*
X0492968Y0340727D01*
X0493061Y0340644D01*
X0493152Y0340558D01*
X0493239Y0340469D01*
X0493324Y0340377D01*
X0493406Y0340283D01*
X0493485Y0340186D01*
X0493560Y0340086D01*
X0493633Y0339985D01*
X0493702Y0339881D01*
X0493768Y0339774D01*
X0493830Y0339666D01*
X0493889Y0339556D01*
X0493945Y0339444D01*
X0493997Y0339330D01*
X0494045Y0339215D01*
X0494090Y0339099D01*
X0494130Y0338980D01*
X0494168Y0338861D01*
X0494201Y0338741D01*
X0494230Y0338619D01*
X0494256Y0338497D01*
X0494278Y0338374D01*
X0494295Y0338250D01*
X0494309Y0338126D01*
X0494319Y0338002D01*
X0494325Y0337877D01*
X0494327Y0337752D01*
X0494325Y0337627D01*
X0494319Y0337502D01*
X0494309Y0337378D01*
X0494295Y0337254D01*
X0494278Y0337130D01*
X0494256Y0337007D01*
X0494230Y0336885D01*
X0494201Y0336763D01*
X0494168Y0336643D01*
X0494130Y0336524D01*
X0494090Y0336405D01*
X0494045Y0336289D01*
X0493997Y0336174D01*
X0493945Y0336060D01*
X0493889Y0335948D01*
X0493830Y0335838D01*
X0493768Y0335730D01*
X0493702Y0335623D01*
X0493633Y0335519D01*
X0493560Y0335418D01*
X0493485Y0335318D01*
X0493406Y0335221D01*
X0493324Y0335127D01*
X0493239Y0335035D01*
X0493152Y0334946D01*
X0493061Y0334860D01*
X0492968Y0334777D01*
X0492872Y0334696D01*
X0492774Y0334619D01*
X0492674Y0334545D01*
X0492571Y0334474D01*
X0492466Y0334407D01*
X0492358Y0334342D01*
X0492249Y0334282D01*
X0492138Y0334224D01*
X0492025Y0334171D01*
X0491911Y0334121D01*
X0491795Y0334074D01*
X0491678Y0334032D01*
X0491559Y0333993D01*
X0491439Y0333957D01*
X0491318Y0333926D01*
X0491196Y0333898D01*
X0491074Y0333875D01*
X0490950Y0333855D01*
X0490826Y0333839D01*
X0490702Y0333827D01*
X0490577Y0333819D01*
X0490452Y0333815D01*
X0490328Y0333815D01*
X0490203Y0333819D01*
X0490078Y0333827D01*
X0489954Y0333839D01*
X0489830Y0333855D01*
X0489706Y0333875D01*
X0489584Y0333898D01*
X0489462Y0333926D01*
X0489341Y0333957D01*
X0489221Y0333993D01*
X0489102Y0334032D01*
X0488985Y0334074D01*
X0488869Y0334121D01*
X0488755Y0334171D01*
X0488642Y0334224D01*
X0488531Y0334282D01*
X0488421Y0334342D01*
X0488314Y0334407D01*
X0488209Y0334474D01*
X0488106Y0334545D01*
X0488006Y0334619D01*
X0487908Y0334696D01*
X0487812Y0334777D01*
X0487719Y0334860D01*
X0487628Y0334946D01*
X0487541Y0335035D01*
X0487456Y0335127D01*
X0487374Y0335221D01*
X0487295Y0335318D01*
X0487220Y0335418D01*
X0487147Y0335519D01*
X0487078Y0335623D01*
X0487012Y0335730D01*
X0486950Y0335838D01*
X0486891Y0335948D01*
X0486835Y0336060D01*
X0486783Y0336174D01*
X0486735Y0336289D01*
X0486690Y0336405D01*
X0486650Y0336524D01*
X0486612Y0336643D01*
X0486579Y0336763D01*
X0486550Y0336885D01*
X0486524Y0337007D01*
X0486502Y0337130D01*
X0486485Y0337254D01*
X0486471Y0337378D01*
X0486461Y0337502D01*
X0486455Y0337627D01*
X0486453Y0337752D01*
X0518737Y0348933D02*
X0518740Y0349150D01*
X0518748Y0349368D01*
X0518761Y0349585D01*
X0518780Y0349801D01*
X0518804Y0350017D01*
X0518833Y0350233D01*
X0518867Y0350447D01*
X0518907Y0350661D01*
X0518952Y0350874D01*
X0519002Y0351085D01*
X0519058Y0351296D01*
X0519118Y0351504D01*
X0519184Y0351712D01*
X0519255Y0351917D01*
X0519331Y0352121D01*
X0519411Y0352323D01*
X0519497Y0352523D01*
X0519587Y0352720D01*
X0519683Y0352916D01*
X0519783Y0353109D01*
X0519888Y0353299D01*
X0519997Y0353487D01*
X0520111Y0353672D01*
X0520230Y0353854D01*
X0520353Y0354034D01*
X0520480Y0354210D01*
X0520612Y0354383D01*
X0520748Y0354552D01*
X0520888Y0354719D01*
X0521032Y0354882D01*
X0521180Y0355041D01*
X0521331Y0355197D01*
X0521487Y0355348D01*
X0521646Y0355496D01*
X0521809Y0355640D01*
X0521976Y0355780D01*
X0522145Y0355916D01*
X0522318Y0356048D01*
X0522494Y0356175D01*
X0522674Y0356298D01*
X0522856Y0356417D01*
X0523041Y0356531D01*
X0523229Y0356640D01*
X0523419Y0356745D01*
X0523612Y0356845D01*
X0523808Y0356941D01*
X0524005Y0357031D01*
X0524205Y0357117D01*
X0524407Y0357197D01*
X0524611Y0357273D01*
X0524816Y0357344D01*
X0525024Y0357410D01*
X0525232Y0357470D01*
X0525443Y0357526D01*
X0525654Y0357576D01*
X0525867Y0357621D01*
X0526081Y0357661D01*
X0526295Y0357695D01*
X0526511Y0357724D01*
X0526727Y0357748D01*
X0526943Y0357767D01*
X0527160Y0357780D01*
X0527378Y0357788D01*
X0527595Y0357791D01*
X0527812Y0357788D01*
X0528030Y0357780D01*
X0528247Y0357767D01*
X0528463Y0357748D01*
X0528679Y0357724D01*
X0528895Y0357695D01*
X0529109Y0357661D01*
X0529323Y0357621D01*
X0529536Y0357576D01*
X0529747Y0357526D01*
X0529958Y0357470D01*
X0530166Y0357410D01*
X0530374Y0357344D01*
X0530579Y0357273D01*
X0530783Y0357197D01*
X0530985Y0357117D01*
X0531185Y0357031D01*
X0531382Y0356941D01*
X0531578Y0356845D01*
X0531771Y0356745D01*
X0531961Y0356640D01*
X0532149Y0356531D01*
X0532334Y0356417D01*
X0532516Y0356298D01*
X0532696Y0356175D01*
X0532872Y0356048D01*
X0533045Y0355916D01*
X0533214Y0355780D01*
X0533381Y0355640D01*
X0533544Y0355496D01*
X0533703Y0355348D01*
X0533859Y0355197D01*
X0534010Y0355041D01*
X0534158Y0354882D01*
X0534302Y0354719D01*
X0534442Y0354552D01*
X0534578Y0354383D01*
X0534710Y0354210D01*
X0534837Y0354034D01*
X0534960Y0353854D01*
X0535079Y0353672D01*
X0535193Y0353487D01*
X0535302Y0353299D01*
X0535407Y0353109D01*
X0535507Y0352916D01*
X0535603Y0352720D01*
X0535693Y0352523D01*
X0535779Y0352323D01*
X0535859Y0352121D01*
X0535935Y0351917D01*
X0536006Y0351712D01*
X0536072Y0351504D01*
X0536132Y0351296D01*
X0536188Y0351085D01*
X0536238Y0350874D01*
X0536283Y0350661D01*
X0536323Y0350447D01*
X0536357Y0350233D01*
X0536386Y0350017D01*
X0536410Y0349801D01*
X0536429Y0349585D01*
X0536442Y0349368D01*
X0536450Y0349150D01*
X0536453Y0348933D01*
X0536450Y0348716D01*
X0536442Y0348498D01*
X0536429Y0348281D01*
X0536410Y0348065D01*
X0536386Y0347849D01*
X0536357Y0347633D01*
X0536323Y0347419D01*
X0536283Y0347205D01*
X0536238Y0346992D01*
X0536188Y0346781D01*
X0536132Y0346570D01*
X0536072Y0346362D01*
X0536006Y0346154D01*
X0535935Y0345949D01*
X0535859Y0345745D01*
X0535779Y0345543D01*
X0535693Y0345343D01*
X0535603Y0345146D01*
X0535507Y0344950D01*
X0535407Y0344757D01*
X0535302Y0344567D01*
X0535193Y0344379D01*
X0535079Y0344194D01*
X0534960Y0344012D01*
X0534837Y0343832D01*
X0534710Y0343656D01*
X0534578Y0343483D01*
X0534442Y0343314D01*
X0534302Y0343147D01*
X0534158Y0342984D01*
X0534010Y0342825D01*
X0533859Y0342669D01*
X0533703Y0342518D01*
X0533544Y0342370D01*
X0533381Y0342226D01*
X0533214Y0342086D01*
X0533045Y0341950D01*
X0532872Y0341818D01*
X0532696Y0341691D01*
X0532516Y0341568D01*
X0532334Y0341449D01*
X0532149Y0341335D01*
X0531961Y0341226D01*
X0531771Y0341121D01*
X0531578Y0341021D01*
X0531382Y0340925D01*
X0531185Y0340835D01*
X0530985Y0340749D01*
X0530783Y0340669D01*
X0530579Y0340593D01*
X0530374Y0340522D01*
X0530166Y0340456D01*
X0529958Y0340396D01*
X0529747Y0340340D01*
X0529536Y0340290D01*
X0529323Y0340245D01*
X0529109Y0340205D01*
X0528895Y0340171D01*
X0528679Y0340142D01*
X0528463Y0340118D01*
X0528247Y0340099D01*
X0528030Y0340086D01*
X0527812Y0340078D01*
X0527595Y0340075D01*
X0527378Y0340078D01*
X0527160Y0340086D01*
X0526943Y0340099D01*
X0526727Y0340118D01*
X0526511Y0340142D01*
X0526295Y0340171D01*
X0526081Y0340205D01*
X0525867Y0340245D01*
X0525654Y0340290D01*
X0525443Y0340340D01*
X0525232Y0340396D01*
X0525024Y0340456D01*
X0524816Y0340522D01*
X0524611Y0340593D01*
X0524407Y0340669D01*
X0524205Y0340749D01*
X0524005Y0340835D01*
X0523808Y0340925D01*
X0523612Y0341021D01*
X0523419Y0341121D01*
X0523229Y0341226D01*
X0523041Y0341335D01*
X0522856Y0341449D01*
X0522674Y0341568D01*
X0522494Y0341691D01*
X0522318Y0341818D01*
X0522145Y0341950D01*
X0521976Y0342086D01*
X0521809Y0342226D01*
X0521646Y0342370D01*
X0521487Y0342518D01*
X0521331Y0342669D01*
X0521180Y0342825D01*
X0521032Y0342984D01*
X0520888Y0343147D01*
X0520748Y0343314D01*
X0520612Y0343483D01*
X0520480Y0343656D01*
X0520353Y0343832D01*
X0520230Y0344012D01*
X0520111Y0344194D01*
X0519997Y0344379D01*
X0519888Y0344567D01*
X0519783Y0344757D01*
X0519683Y0344950D01*
X0519587Y0345146D01*
X0519497Y0345343D01*
X0519411Y0345543D01*
X0519331Y0345745D01*
X0519255Y0345949D01*
X0519184Y0346154D01*
X0519118Y0346362D01*
X0519058Y0346570D01*
X0519002Y0346781D01*
X0518952Y0346992D01*
X0518907Y0347205D01*
X0518867Y0347419D01*
X0518833Y0347633D01*
X0518804Y0347849D01*
X0518780Y0348065D01*
X0518761Y0348281D01*
X0518748Y0348498D01*
X0518740Y0348716D01*
X0518737Y0348933D01*
X0486453Y0190114D02*
X0486455Y0190239D01*
X0486461Y0190364D01*
X0486471Y0190488D01*
X0486485Y0190612D01*
X0486502Y0190736D01*
X0486524Y0190859D01*
X0486550Y0190981D01*
X0486579Y0191103D01*
X0486612Y0191223D01*
X0486650Y0191342D01*
X0486690Y0191461D01*
X0486735Y0191577D01*
X0486783Y0191692D01*
X0486835Y0191806D01*
X0486891Y0191918D01*
X0486950Y0192028D01*
X0487012Y0192136D01*
X0487078Y0192243D01*
X0487147Y0192347D01*
X0487220Y0192448D01*
X0487295Y0192548D01*
X0487374Y0192645D01*
X0487456Y0192739D01*
X0487541Y0192831D01*
X0487628Y0192920D01*
X0487719Y0193006D01*
X0487812Y0193089D01*
X0487908Y0193170D01*
X0488006Y0193247D01*
X0488106Y0193321D01*
X0488209Y0193392D01*
X0488314Y0193459D01*
X0488422Y0193524D01*
X0488531Y0193584D01*
X0488642Y0193642D01*
X0488755Y0193695D01*
X0488869Y0193745D01*
X0488985Y0193792D01*
X0489102Y0193834D01*
X0489221Y0193873D01*
X0489341Y0193909D01*
X0489462Y0193940D01*
X0489584Y0193968D01*
X0489706Y0193991D01*
X0489830Y0194011D01*
X0489954Y0194027D01*
X0490078Y0194039D01*
X0490203Y0194047D01*
X0490328Y0194051D01*
X0490452Y0194051D01*
X0490577Y0194047D01*
X0490702Y0194039D01*
X0490826Y0194027D01*
X0490950Y0194011D01*
X0491074Y0193991D01*
X0491196Y0193968D01*
X0491318Y0193940D01*
X0491439Y0193909D01*
X0491559Y0193873D01*
X0491678Y0193834D01*
X0491795Y0193792D01*
X0491911Y0193745D01*
X0492025Y0193695D01*
X0492138Y0193642D01*
X0492249Y0193584D01*
X0492359Y0193524D01*
X0492466Y0193459D01*
X0492571Y0193392D01*
X0492674Y0193321D01*
X0492774Y0193247D01*
X0492872Y0193170D01*
X0492968Y0193089D01*
X0493061Y0193006D01*
X0493152Y0192920D01*
X0493239Y0192831D01*
X0493324Y0192739D01*
X0493406Y0192645D01*
X0493485Y0192548D01*
X0493560Y0192448D01*
X0493633Y0192347D01*
X0493702Y0192243D01*
X0493768Y0192136D01*
X0493830Y0192028D01*
X0493889Y0191918D01*
X0493945Y0191806D01*
X0493997Y0191692D01*
X0494045Y0191577D01*
X0494090Y0191461D01*
X0494130Y0191342D01*
X0494168Y0191223D01*
X0494201Y0191103D01*
X0494230Y0190981D01*
X0494256Y0190859D01*
X0494278Y0190736D01*
X0494295Y0190612D01*
X0494309Y0190488D01*
X0494319Y0190364D01*
X0494325Y0190239D01*
X0494327Y0190114D01*
X0494325Y0189989D01*
X0494319Y0189864D01*
X0494309Y0189740D01*
X0494295Y0189616D01*
X0494278Y0189492D01*
X0494256Y0189369D01*
X0494230Y0189247D01*
X0494201Y0189125D01*
X0494168Y0189005D01*
X0494130Y0188886D01*
X0494090Y0188767D01*
X0494045Y0188651D01*
X0493997Y0188536D01*
X0493945Y0188422D01*
X0493889Y0188310D01*
X0493830Y0188200D01*
X0493768Y0188092D01*
X0493702Y0187985D01*
X0493633Y0187881D01*
X0493560Y0187780D01*
X0493485Y0187680D01*
X0493406Y0187583D01*
X0493324Y0187489D01*
X0493239Y0187397D01*
X0493152Y0187308D01*
X0493061Y0187222D01*
X0492968Y0187139D01*
X0492872Y0187058D01*
X0492774Y0186981D01*
X0492674Y0186907D01*
X0492571Y0186836D01*
X0492466Y0186769D01*
X0492358Y0186704D01*
X0492249Y0186644D01*
X0492138Y0186586D01*
X0492025Y0186533D01*
X0491911Y0186483D01*
X0491795Y0186436D01*
X0491678Y0186394D01*
X0491559Y0186355D01*
X0491439Y0186319D01*
X0491318Y0186288D01*
X0491196Y0186260D01*
X0491074Y0186237D01*
X0490950Y0186217D01*
X0490826Y0186201D01*
X0490702Y0186189D01*
X0490577Y0186181D01*
X0490452Y0186177D01*
X0490328Y0186177D01*
X0490203Y0186181D01*
X0490078Y0186189D01*
X0489954Y0186201D01*
X0489830Y0186217D01*
X0489706Y0186237D01*
X0489584Y0186260D01*
X0489462Y0186288D01*
X0489341Y0186319D01*
X0489221Y0186355D01*
X0489102Y0186394D01*
X0488985Y0186436D01*
X0488869Y0186483D01*
X0488755Y0186533D01*
X0488642Y0186586D01*
X0488531Y0186644D01*
X0488421Y0186704D01*
X0488314Y0186769D01*
X0488209Y0186836D01*
X0488106Y0186907D01*
X0488006Y0186981D01*
X0487908Y0187058D01*
X0487812Y0187139D01*
X0487719Y0187222D01*
X0487628Y0187308D01*
X0487541Y0187397D01*
X0487456Y0187489D01*
X0487374Y0187583D01*
X0487295Y0187680D01*
X0487220Y0187780D01*
X0487147Y0187881D01*
X0487078Y0187985D01*
X0487012Y0188092D01*
X0486950Y0188200D01*
X0486891Y0188310D01*
X0486835Y0188422D01*
X0486783Y0188536D01*
X0486735Y0188651D01*
X0486690Y0188767D01*
X0486650Y0188886D01*
X0486612Y0189005D01*
X0486579Y0189125D01*
X0486550Y0189247D01*
X0486524Y0189369D01*
X0486502Y0189492D01*
X0486485Y0189616D01*
X0486471Y0189740D01*
X0486461Y0189864D01*
X0486455Y0189989D01*
X0486453Y0190114D01*
X0460605Y0177291D02*
X0460607Y0177374D01*
X0460613Y0177457D01*
X0460623Y0177540D01*
X0460637Y0177622D01*
X0460654Y0177704D01*
X0460676Y0177784D01*
X0460701Y0177863D01*
X0460730Y0177941D01*
X0460763Y0178018D01*
X0460800Y0178093D01*
X0460839Y0178166D01*
X0460883Y0178237D01*
X0460929Y0178306D01*
X0460979Y0178373D01*
X0461032Y0178437D01*
X0461088Y0178499D01*
X0461147Y0178558D01*
X0461209Y0178614D01*
X0461273Y0178667D01*
X0461340Y0178717D01*
X0461409Y0178763D01*
X0461480Y0178807D01*
X0461553Y0178846D01*
X0461628Y0178883D01*
X0461705Y0178916D01*
X0461783Y0178945D01*
X0461862Y0178970D01*
X0461942Y0178992D01*
X0462024Y0179009D01*
X0462106Y0179023D01*
X0462189Y0179033D01*
X0462272Y0179039D01*
X0462355Y0179041D01*
X0462438Y0179039D01*
X0462521Y0179033D01*
X0462604Y0179023D01*
X0462686Y0179009D01*
X0462768Y0178992D01*
X0462848Y0178970D01*
X0462927Y0178945D01*
X0463005Y0178916D01*
X0463082Y0178883D01*
X0463157Y0178846D01*
X0463230Y0178807D01*
X0463301Y0178763D01*
X0463370Y0178717D01*
X0463437Y0178667D01*
X0463501Y0178614D01*
X0463563Y0178558D01*
X0463622Y0178499D01*
X0463678Y0178437D01*
X0463731Y0178373D01*
X0463781Y0178306D01*
X0463827Y0178237D01*
X0463871Y0178166D01*
X0463910Y0178093D01*
X0463947Y0178018D01*
X0463980Y0177941D01*
X0464009Y0177863D01*
X0464034Y0177784D01*
X0464056Y0177704D01*
X0464073Y0177622D01*
X0464087Y0177540D01*
X0464097Y0177457D01*
X0464103Y0177374D01*
X0464105Y0177291D01*
X0464103Y0177208D01*
X0464097Y0177125D01*
X0464087Y0177042D01*
X0464073Y0176960D01*
X0464056Y0176878D01*
X0464034Y0176798D01*
X0464009Y0176719D01*
X0463980Y0176641D01*
X0463947Y0176564D01*
X0463910Y0176489D01*
X0463871Y0176416D01*
X0463827Y0176345D01*
X0463781Y0176276D01*
X0463731Y0176209D01*
X0463678Y0176145D01*
X0463622Y0176083D01*
X0463563Y0176024D01*
X0463501Y0175968D01*
X0463437Y0175915D01*
X0463370Y0175865D01*
X0463301Y0175819D01*
X0463230Y0175775D01*
X0463157Y0175736D01*
X0463082Y0175699D01*
X0463005Y0175666D01*
X0462927Y0175637D01*
X0462848Y0175612D01*
X0462768Y0175590D01*
X0462686Y0175573D01*
X0462604Y0175559D01*
X0462521Y0175549D01*
X0462438Y0175543D01*
X0462355Y0175541D01*
X0462272Y0175543D01*
X0462189Y0175549D01*
X0462106Y0175559D01*
X0462024Y0175573D01*
X0461942Y0175590D01*
X0461862Y0175612D01*
X0461783Y0175637D01*
X0461705Y0175666D01*
X0461628Y0175699D01*
X0461553Y0175736D01*
X0461480Y0175775D01*
X0461409Y0175819D01*
X0461340Y0175865D01*
X0461273Y0175915D01*
X0461209Y0175968D01*
X0461147Y0176024D01*
X0461088Y0176083D01*
X0461032Y0176145D01*
X0460979Y0176209D01*
X0460929Y0176276D01*
X0460883Y0176345D01*
X0460839Y0176416D01*
X0460800Y0176489D01*
X0460763Y0176564D01*
X0460730Y0176641D01*
X0460701Y0176719D01*
X0460676Y0176798D01*
X0460654Y0176878D01*
X0460637Y0176960D01*
X0460623Y0177042D01*
X0460613Y0177125D01*
X0460607Y0177208D01*
X0460605Y0177291D01*
X0429109Y0177291D02*
X0429111Y0177374D01*
X0429117Y0177457D01*
X0429127Y0177540D01*
X0429141Y0177622D01*
X0429158Y0177704D01*
X0429180Y0177784D01*
X0429205Y0177863D01*
X0429234Y0177941D01*
X0429267Y0178018D01*
X0429304Y0178093D01*
X0429343Y0178166D01*
X0429387Y0178237D01*
X0429433Y0178306D01*
X0429483Y0178373D01*
X0429536Y0178437D01*
X0429592Y0178499D01*
X0429651Y0178558D01*
X0429713Y0178614D01*
X0429777Y0178667D01*
X0429844Y0178717D01*
X0429913Y0178763D01*
X0429984Y0178807D01*
X0430057Y0178846D01*
X0430132Y0178883D01*
X0430209Y0178916D01*
X0430287Y0178945D01*
X0430366Y0178970D01*
X0430446Y0178992D01*
X0430528Y0179009D01*
X0430610Y0179023D01*
X0430693Y0179033D01*
X0430776Y0179039D01*
X0430859Y0179041D01*
X0430942Y0179039D01*
X0431025Y0179033D01*
X0431108Y0179023D01*
X0431190Y0179009D01*
X0431272Y0178992D01*
X0431352Y0178970D01*
X0431431Y0178945D01*
X0431509Y0178916D01*
X0431586Y0178883D01*
X0431661Y0178846D01*
X0431734Y0178807D01*
X0431805Y0178763D01*
X0431874Y0178717D01*
X0431941Y0178667D01*
X0432005Y0178614D01*
X0432067Y0178558D01*
X0432126Y0178499D01*
X0432182Y0178437D01*
X0432235Y0178373D01*
X0432285Y0178306D01*
X0432331Y0178237D01*
X0432375Y0178166D01*
X0432414Y0178093D01*
X0432451Y0178018D01*
X0432484Y0177941D01*
X0432513Y0177863D01*
X0432538Y0177784D01*
X0432560Y0177704D01*
X0432577Y0177622D01*
X0432591Y0177540D01*
X0432601Y0177457D01*
X0432607Y0177374D01*
X0432609Y0177291D01*
X0432607Y0177208D01*
X0432601Y0177125D01*
X0432591Y0177042D01*
X0432577Y0176960D01*
X0432560Y0176878D01*
X0432538Y0176798D01*
X0432513Y0176719D01*
X0432484Y0176641D01*
X0432451Y0176564D01*
X0432414Y0176489D01*
X0432375Y0176416D01*
X0432331Y0176345D01*
X0432285Y0176276D01*
X0432235Y0176209D01*
X0432182Y0176145D01*
X0432126Y0176083D01*
X0432067Y0176024D01*
X0432005Y0175968D01*
X0431941Y0175915D01*
X0431874Y0175865D01*
X0431805Y0175819D01*
X0431734Y0175775D01*
X0431661Y0175736D01*
X0431586Y0175699D01*
X0431509Y0175666D01*
X0431431Y0175637D01*
X0431352Y0175612D01*
X0431272Y0175590D01*
X0431190Y0175573D01*
X0431108Y0175559D01*
X0431025Y0175549D01*
X0430942Y0175543D01*
X0430859Y0175541D01*
X0430776Y0175543D01*
X0430693Y0175549D01*
X0430610Y0175559D01*
X0430528Y0175573D01*
X0430446Y0175590D01*
X0430366Y0175612D01*
X0430287Y0175637D01*
X0430209Y0175666D01*
X0430132Y0175699D01*
X0430057Y0175736D01*
X0429984Y0175775D01*
X0429913Y0175819D01*
X0429844Y0175865D01*
X0429777Y0175915D01*
X0429713Y0175968D01*
X0429651Y0176024D01*
X0429592Y0176083D01*
X0429536Y0176145D01*
X0429483Y0176209D01*
X0429433Y0176276D01*
X0429387Y0176345D01*
X0429343Y0176416D01*
X0429304Y0176489D01*
X0429267Y0176564D01*
X0429234Y0176641D01*
X0429205Y0176719D01*
X0429180Y0176798D01*
X0429158Y0176878D01*
X0429141Y0176960D01*
X0429127Y0177042D01*
X0429117Y0177125D01*
X0429111Y0177208D01*
X0429109Y0177291D01*
X0518737Y0178933D02*
X0518740Y0179150D01*
X0518748Y0179368D01*
X0518761Y0179585D01*
X0518780Y0179801D01*
X0518804Y0180017D01*
X0518833Y0180233D01*
X0518867Y0180447D01*
X0518907Y0180661D01*
X0518952Y0180874D01*
X0519002Y0181085D01*
X0519058Y0181296D01*
X0519118Y0181504D01*
X0519184Y0181712D01*
X0519255Y0181917D01*
X0519331Y0182121D01*
X0519411Y0182323D01*
X0519497Y0182523D01*
X0519587Y0182720D01*
X0519683Y0182916D01*
X0519783Y0183109D01*
X0519888Y0183299D01*
X0519997Y0183487D01*
X0520111Y0183672D01*
X0520230Y0183854D01*
X0520353Y0184034D01*
X0520480Y0184210D01*
X0520612Y0184383D01*
X0520748Y0184552D01*
X0520888Y0184719D01*
X0521032Y0184882D01*
X0521180Y0185041D01*
X0521331Y0185197D01*
X0521487Y0185348D01*
X0521646Y0185496D01*
X0521809Y0185640D01*
X0521976Y0185780D01*
X0522145Y0185916D01*
X0522318Y0186048D01*
X0522494Y0186175D01*
X0522674Y0186298D01*
X0522856Y0186417D01*
X0523041Y0186531D01*
X0523229Y0186640D01*
X0523419Y0186745D01*
X0523612Y0186845D01*
X0523808Y0186941D01*
X0524005Y0187031D01*
X0524205Y0187117D01*
X0524407Y0187197D01*
X0524611Y0187273D01*
X0524816Y0187344D01*
X0525024Y0187410D01*
X0525232Y0187470D01*
X0525443Y0187526D01*
X0525654Y0187576D01*
X0525867Y0187621D01*
X0526081Y0187661D01*
X0526295Y0187695D01*
X0526511Y0187724D01*
X0526727Y0187748D01*
X0526943Y0187767D01*
X0527160Y0187780D01*
X0527378Y0187788D01*
X0527595Y0187791D01*
X0527812Y0187788D01*
X0528030Y0187780D01*
X0528247Y0187767D01*
X0528463Y0187748D01*
X0528679Y0187724D01*
X0528895Y0187695D01*
X0529109Y0187661D01*
X0529323Y0187621D01*
X0529536Y0187576D01*
X0529747Y0187526D01*
X0529958Y0187470D01*
X0530166Y0187410D01*
X0530374Y0187344D01*
X0530579Y0187273D01*
X0530783Y0187197D01*
X0530985Y0187117D01*
X0531185Y0187031D01*
X0531382Y0186941D01*
X0531578Y0186845D01*
X0531771Y0186745D01*
X0531961Y0186640D01*
X0532149Y0186531D01*
X0532334Y0186417D01*
X0532516Y0186298D01*
X0532696Y0186175D01*
X0532872Y0186048D01*
X0533045Y0185916D01*
X0533214Y0185780D01*
X0533381Y0185640D01*
X0533544Y0185496D01*
X0533703Y0185348D01*
X0533859Y0185197D01*
X0534010Y0185041D01*
X0534158Y0184882D01*
X0534302Y0184719D01*
X0534442Y0184552D01*
X0534578Y0184383D01*
X0534710Y0184210D01*
X0534837Y0184034D01*
X0534960Y0183854D01*
X0535079Y0183672D01*
X0535193Y0183487D01*
X0535302Y0183299D01*
X0535407Y0183109D01*
X0535507Y0182916D01*
X0535603Y0182720D01*
X0535693Y0182523D01*
X0535779Y0182323D01*
X0535859Y0182121D01*
X0535935Y0181917D01*
X0536006Y0181712D01*
X0536072Y0181504D01*
X0536132Y0181296D01*
X0536188Y0181085D01*
X0536238Y0180874D01*
X0536283Y0180661D01*
X0536323Y0180447D01*
X0536357Y0180233D01*
X0536386Y0180017D01*
X0536410Y0179801D01*
X0536429Y0179585D01*
X0536442Y0179368D01*
X0536450Y0179150D01*
X0536453Y0178933D01*
X0536450Y0178716D01*
X0536442Y0178498D01*
X0536429Y0178281D01*
X0536410Y0178065D01*
X0536386Y0177849D01*
X0536357Y0177633D01*
X0536323Y0177419D01*
X0536283Y0177205D01*
X0536238Y0176992D01*
X0536188Y0176781D01*
X0536132Y0176570D01*
X0536072Y0176362D01*
X0536006Y0176154D01*
X0535935Y0175949D01*
X0535859Y0175745D01*
X0535779Y0175543D01*
X0535693Y0175343D01*
X0535603Y0175146D01*
X0535507Y0174950D01*
X0535407Y0174757D01*
X0535302Y0174567D01*
X0535193Y0174379D01*
X0535079Y0174194D01*
X0534960Y0174012D01*
X0534837Y0173832D01*
X0534710Y0173656D01*
X0534578Y0173483D01*
X0534442Y0173314D01*
X0534302Y0173147D01*
X0534158Y0172984D01*
X0534010Y0172825D01*
X0533859Y0172669D01*
X0533703Y0172518D01*
X0533544Y0172370D01*
X0533381Y0172226D01*
X0533214Y0172086D01*
X0533045Y0171950D01*
X0532872Y0171818D01*
X0532696Y0171691D01*
X0532516Y0171568D01*
X0532334Y0171449D01*
X0532149Y0171335D01*
X0531961Y0171226D01*
X0531771Y0171121D01*
X0531578Y0171021D01*
X0531382Y0170925D01*
X0531185Y0170835D01*
X0530985Y0170749D01*
X0530783Y0170669D01*
X0530579Y0170593D01*
X0530374Y0170522D01*
X0530166Y0170456D01*
X0529958Y0170396D01*
X0529747Y0170340D01*
X0529536Y0170290D01*
X0529323Y0170245D01*
X0529109Y0170205D01*
X0528895Y0170171D01*
X0528679Y0170142D01*
X0528463Y0170118D01*
X0528247Y0170099D01*
X0528030Y0170086D01*
X0527812Y0170078D01*
X0527595Y0170075D01*
X0527378Y0170078D01*
X0527160Y0170086D01*
X0526943Y0170099D01*
X0526727Y0170118D01*
X0526511Y0170142D01*
X0526295Y0170171D01*
X0526081Y0170205D01*
X0525867Y0170245D01*
X0525654Y0170290D01*
X0525443Y0170340D01*
X0525232Y0170396D01*
X0525024Y0170456D01*
X0524816Y0170522D01*
X0524611Y0170593D01*
X0524407Y0170669D01*
X0524205Y0170749D01*
X0524005Y0170835D01*
X0523808Y0170925D01*
X0523612Y0171021D01*
X0523419Y0171121D01*
X0523229Y0171226D01*
X0523041Y0171335D01*
X0522856Y0171449D01*
X0522674Y0171568D01*
X0522494Y0171691D01*
X0522318Y0171818D01*
X0522145Y0171950D01*
X0521976Y0172086D01*
X0521809Y0172226D01*
X0521646Y0172370D01*
X0521487Y0172518D01*
X0521331Y0172669D01*
X0521180Y0172825D01*
X0521032Y0172984D01*
X0520888Y0173147D01*
X0520748Y0173314D01*
X0520612Y0173483D01*
X0520480Y0173656D01*
X0520353Y0173832D01*
X0520230Y0174012D01*
X0520111Y0174194D01*
X0519997Y0174379D01*
X0519888Y0174567D01*
X0519783Y0174757D01*
X0519683Y0174950D01*
X0519587Y0175146D01*
X0519497Y0175343D01*
X0519411Y0175543D01*
X0519331Y0175745D01*
X0519255Y0175949D01*
X0519184Y0176154D01*
X0519118Y0176362D01*
X0519058Y0176570D01*
X0519002Y0176781D01*
X0518952Y0176992D01*
X0518907Y0177205D01*
X0518867Y0177419D01*
X0518833Y0177633D01*
X0518804Y0177849D01*
X0518780Y0178065D01*
X0518761Y0178281D01*
X0518748Y0178498D01*
X0518740Y0178716D01*
X0518737Y0178933D01*
X0210863Y0190114D02*
X0210865Y0190239D01*
X0210871Y0190364D01*
X0210881Y0190488D01*
X0210895Y0190612D01*
X0210912Y0190736D01*
X0210934Y0190859D01*
X0210960Y0190981D01*
X0210989Y0191103D01*
X0211022Y0191223D01*
X0211060Y0191342D01*
X0211100Y0191461D01*
X0211145Y0191577D01*
X0211193Y0191692D01*
X0211245Y0191806D01*
X0211301Y0191918D01*
X0211360Y0192028D01*
X0211422Y0192136D01*
X0211488Y0192243D01*
X0211557Y0192347D01*
X0211630Y0192448D01*
X0211705Y0192548D01*
X0211784Y0192645D01*
X0211866Y0192739D01*
X0211951Y0192831D01*
X0212038Y0192920D01*
X0212129Y0193006D01*
X0212222Y0193089D01*
X0212318Y0193170D01*
X0212416Y0193247D01*
X0212516Y0193321D01*
X0212619Y0193392D01*
X0212724Y0193459D01*
X0212832Y0193524D01*
X0212941Y0193584D01*
X0213052Y0193642D01*
X0213165Y0193695D01*
X0213279Y0193745D01*
X0213395Y0193792D01*
X0213512Y0193834D01*
X0213631Y0193873D01*
X0213751Y0193909D01*
X0213872Y0193940D01*
X0213994Y0193968D01*
X0214116Y0193991D01*
X0214240Y0194011D01*
X0214364Y0194027D01*
X0214488Y0194039D01*
X0214613Y0194047D01*
X0214738Y0194051D01*
X0214862Y0194051D01*
X0214987Y0194047D01*
X0215112Y0194039D01*
X0215236Y0194027D01*
X0215360Y0194011D01*
X0215484Y0193991D01*
X0215606Y0193968D01*
X0215728Y0193940D01*
X0215849Y0193909D01*
X0215969Y0193873D01*
X0216088Y0193834D01*
X0216205Y0193792D01*
X0216321Y0193745D01*
X0216435Y0193695D01*
X0216548Y0193642D01*
X0216659Y0193584D01*
X0216769Y0193524D01*
X0216876Y0193459D01*
X0216981Y0193392D01*
X0217084Y0193321D01*
X0217184Y0193247D01*
X0217282Y0193170D01*
X0217378Y0193089D01*
X0217471Y0193006D01*
X0217562Y0192920D01*
X0217649Y0192831D01*
X0217734Y0192739D01*
X0217816Y0192645D01*
X0217895Y0192548D01*
X0217970Y0192448D01*
X0218043Y0192347D01*
X0218112Y0192243D01*
X0218178Y0192136D01*
X0218240Y0192028D01*
X0218299Y0191918D01*
X0218355Y0191806D01*
X0218407Y0191692D01*
X0218455Y0191577D01*
X0218500Y0191461D01*
X0218540Y0191342D01*
X0218578Y0191223D01*
X0218611Y0191103D01*
X0218640Y0190981D01*
X0218666Y0190859D01*
X0218688Y0190736D01*
X0218705Y0190612D01*
X0218719Y0190488D01*
X0218729Y0190364D01*
X0218735Y0190239D01*
X0218737Y0190114D01*
X0218735Y0189989D01*
X0218729Y0189864D01*
X0218719Y0189740D01*
X0218705Y0189616D01*
X0218688Y0189492D01*
X0218666Y0189369D01*
X0218640Y0189247D01*
X0218611Y0189125D01*
X0218578Y0189005D01*
X0218540Y0188886D01*
X0218500Y0188767D01*
X0218455Y0188651D01*
X0218407Y0188536D01*
X0218355Y0188422D01*
X0218299Y0188310D01*
X0218240Y0188200D01*
X0218178Y0188092D01*
X0218112Y0187985D01*
X0218043Y0187881D01*
X0217970Y0187780D01*
X0217895Y0187680D01*
X0217816Y0187583D01*
X0217734Y0187489D01*
X0217649Y0187397D01*
X0217562Y0187308D01*
X0217471Y0187222D01*
X0217378Y0187139D01*
X0217282Y0187058D01*
X0217184Y0186981D01*
X0217084Y0186907D01*
X0216981Y0186836D01*
X0216876Y0186769D01*
X0216768Y0186704D01*
X0216659Y0186644D01*
X0216548Y0186586D01*
X0216435Y0186533D01*
X0216321Y0186483D01*
X0216205Y0186436D01*
X0216088Y0186394D01*
X0215969Y0186355D01*
X0215849Y0186319D01*
X0215728Y0186288D01*
X0215606Y0186260D01*
X0215484Y0186237D01*
X0215360Y0186217D01*
X0215236Y0186201D01*
X0215112Y0186189D01*
X0214987Y0186181D01*
X0214862Y0186177D01*
X0214738Y0186177D01*
X0214613Y0186181D01*
X0214488Y0186189D01*
X0214364Y0186201D01*
X0214240Y0186217D01*
X0214116Y0186237D01*
X0213994Y0186260D01*
X0213872Y0186288D01*
X0213751Y0186319D01*
X0213631Y0186355D01*
X0213512Y0186394D01*
X0213395Y0186436D01*
X0213279Y0186483D01*
X0213165Y0186533D01*
X0213052Y0186586D01*
X0212941Y0186644D01*
X0212831Y0186704D01*
X0212724Y0186769D01*
X0212619Y0186836D01*
X0212516Y0186907D01*
X0212416Y0186981D01*
X0212318Y0187058D01*
X0212222Y0187139D01*
X0212129Y0187222D01*
X0212038Y0187308D01*
X0211951Y0187397D01*
X0211866Y0187489D01*
X0211784Y0187583D01*
X0211705Y0187680D01*
X0211630Y0187780D01*
X0211557Y0187881D01*
X0211488Y0187985D01*
X0211422Y0188092D01*
X0211360Y0188200D01*
X0211301Y0188310D01*
X0211245Y0188422D01*
X0211193Y0188536D01*
X0211145Y0188651D01*
X0211100Y0188767D01*
X0211060Y0188886D01*
X0211022Y0189005D01*
X0210989Y0189125D01*
X0210960Y0189247D01*
X0210934Y0189369D01*
X0210912Y0189492D01*
X0210895Y0189616D01*
X0210881Y0189740D01*
X0210871Y0189864D01*
X0210865Y0189989D01*
X0210863Y0190114D01*
X0168737Y0178933D02*
X0168740Y0179150D01*
X0168748Y0179368D01*
X0168761Y0179585D01*
X0168780Y0179801D01*
X0168804Y0180017D01*
X0168833Y0180233D01*
X0168867Y0180447D01*
X0168907Y0180661D01*
X0168952Y0180874D01*
X0169002Y0181085D01*
X0169058Y0181296D01*
X0169118Y0181504D01*
X0169184Y0181712D01*
X0169255Y0181917D01*
X0169331Y0182121D01*
X0169411Y0182323D01*
X0169497Y0182523D01*
X0169587Y0182720D01*
X0169683Y0182916D01*
X0169783Y0183109D01*
X0169888Y0183299D01*
X0169997Y0183487D01*
X0170111Y0183672D01*
X0170230Y0183854D01*
X0170353Y0184034D01*
X0170480Y0184210D01*
X0170612Y0184383D01*
X0170748Y0184552D01*
X0170888Y0184719D01*
X0171032Y0184882D01*
X0171180Y0185041D01*
X0171331Y0185197D01*
X0171487Y0185348D01*
X0171646Y0185496D01*
X0171809Y0185640D01*
X0171976Y0185780D01*
X0172145Y0185916D01*
X0172318Y0186048D01*
X0172494Y0186175D01*
X0172674Y0186298D01*
X0172856Y0186417D01*
X0173041Y0186531D01*
X0173229Y0186640D01*
X0173419Y0186745D01*
X0173612Y0186845D01*
X0173808Y0186941D01*
X0174005Y0187031D01*
X0174205Y0187117D01*
X0174407Y0187197D01*
X0174611Y0187273D01*
X0174816Y0187344D01*
X0175024Y0187410D01*
X0175232Y0187470D01*
X0175443Y0187526D01*
X0175654Y0187576D01*
X0175867Y0187621D01*
X0176081Y0187661D01*
X0176295Y0187695D01*
X0176511Y0187724D01*
X0176727Y0187748D01*
X0176943Y0187767D01*
X0177160Y0187780D01*
X0177378Y0187788D01*
X0177595Y0187791D01*
X0177812Y0187788D01*
X0178030Y0187780D01*
X0178247Y0187767D01*
X0178463Y0187748D01*
X0178679Y0187724D01*
X0178895Y0187695D01*
X0179109Y0187661D01*
X0179323Y0187621D01*
X0179536Y0187576D01*
X0179747Y0187526D01*
X0179958Y0187470D01*
X0180166Y0187410D01*
X0180374Y0187344D01*
X0180579Y0187273D01*
X0180783Y0187197D01*
X0180985Y0187117D01*
X0181185Y0187031D01*
X0181382Y0186941D01*
X0181578Y0186845D01*
X0181771Y0186745D01*
X0181961Y0186640D01*
X0182149Y0186531D01*
X0182334Y0186417D01*
X0182516Y0186298D01*
X0182696Y0186175D01*
X0182872Y0186048D01*
X0183045Y0185916D01*
X0183214Y0185780D01*
X0183381Y0185640D01*
X0183544Y0185496D01*
X0183703Y0185348D01*
X0183859Y0185197D01*
X0184010Y0185041D01*
X0184158Y0184882D01*
X0184302Y0184719D01*
X0184442Y0184552D01*
X0184578Y0184383D01*
X0184710Y0184210D01*
X0184837Y0184034D01*
X0184960Y0183854D01*
X0185079Y0183672D01*
X0185193Y0183487D01*
X0185302Y0183299D01*
X0185407Y0183109D01*
X0185507Y0182916D01*
X0185603Y0182720D01*
X0185693Y0182523D01*
X0185779Y0182323D01*
X0185859Y0182121D01*
X0185935Y0181917D01*
X0186006Y0181712D01*
X0186072Y0181504D01*
X0186132Y0181296D01*
X0186188Y0181085D01*
X0186238Y0180874D01*
X0186283Y0180661D01*
X0186323Y0180447D01*
X0186357Y0180233D01*
X0186386Y0180017D01*
X0186410Y0179801D01*
X0186429Y0179585D01*
X0186442Y0179368D01*
X0186450Y0179150D01*
X0186453Y0178933D01*
X0186450Y0178716D01*
X0186442Y0178498D01*
X0186429Y0178281D01*
X0186410Y0178065D01*
X0186386Y0177849D01*
X0186357Y0177633D01*
X0186323Y0177419D01*
X0186283Y0177205D01*
X0186238Y0176992D01*
X0186188Y0176781D01*
X0186132Y0176570D01*
X0186072Y0176362D01*
X0186006Y0176154D01*
X0185935Y0175949D01*
X0185859Y0175745D01*
X0185779Y0175543D01*
X0185693Y0175343D01*
X0185603Y0175146D01*
X0185507Y0174950D01*
X0185407Y0174757D01*
X0185302Y0174567D01*
X0185193Y0174379D01*
X0185079Y0174194D01*
X0184960Y0174012D01*
X0184837Y0173832D01*
X0184710Y0173656D01*
X0184578Y0173483D01*
X0184442Y0173314D01*
X0184302Y0173147D01*
X0184158Y0172984D01*
X0184010Y0172825D01*
X0183859Y0172669D01*
X0183703Y0172518D01*
X0183544Y0172370D01*
X0183381Y0172226D01*
X0183214Y0172086D01*
X0183045Y0171950D01*
X0182872Y0171818D01*
X0182696Y0171691D01*
X0182516Y0171568D01*
X0182334Y0171449D01*
X0182149Y0171335D01*
X0181961Y0171226D01*
X0181771Y0171121D01*
X0181578Y0171021D01*
X0181382Y0170925D01*
X0181185Y0170835D01*
X0180985Y0170749D01*
X0180783Y0170669D01*
X0180579Y0170593D01*
X0180374Y0170522D01*
X0180166Y0170456D01*
X0179958Y0170396D01*
X0179747Y0170340D01*
X0179536Y0170290D01*
X0179323Y0170245D01*
X0179109Y0170205D01*
X0178895Y0170171D01*
X0178679Y0170142D01*
X0178463Y0170118D01*
X0178247Y0170099D01*
X0178030Y0170086D01*
X0177812Y0170078D01*
X0177595Y0170075D01*
X0177378Y0170078D01*
X0177160Y0170086D01*
X0176943Y0170099D01*
X0176727Y0170118D01*
X0176511Y0170142D01*
X0176295Y0170171D01*
X0176081Y0170205D01*
X0175867Y0170245D01*
X0175654Y0170290D01*
X0175443Y0170340D01*
X0175232Y0170396D01*
X0175024Y0170456D01*
X0174816Y0170522D01*
X0174611Y0170593D01*
X0174407Y0170669D01*
X0174205Y0170749D01*
X0174005Y0170835D01*
X0173808Y0170925D01*
X0173612Y0171021D01*
X0173419Y0171121D01*
X0173229Y0171226D01*
X0173041Y0171335D01*
X0172856Y0171449D01*
X0172674Y0171568D01*
X0172494Y0171691D01*
X0172318Y0171818D01*
X0172145Y0171950D01*
X0171976Y0172086D01*
X0171809Y0172226D01*
X0171646Y0172370D01*
X0171487Y0172518D01*
X0171331Y0172669D01*
X0171180Y0172825D01*
X0171032Y0172984D01*
X0170888Y0173147D01*
X0170748Y0173314D01*
X0170612Y0173483D01*
X0170480Y0173656D01*
X0170353Y0173832D01*
X0170230Y0174012D01*
X0170111Y0174194D01*
X0169997Y0174379D01*
X0169888Y0174567D01*
X0169783Y0174757D01*
X0169683Y0174950D01*
X0169587Y0175146D01*
X0169497Y0175343D01*
X0169411Y0175543D01*
X0169331Y0175745D01*
X0169255Y0175949D01*
X0169184Y0176154D01*
X0169118Y0176362D01*
X0169058Y0176570D01*
X0169002Y0176781D01*
X0168952Y0176992D01*
X0168907Y0177205D01*
X0168867Y0177419D01*
X0168833Y0177633D01*
X0168804Y0177849D01*
X0168780Y0178065D01*
X0168761Y0178281D01*
X0168748Y0178498D01*
X0168740Y0178716D01*
X0168737Y0178933D01*
X0210863Y0337752D02*
X0210865Y0337877D01*
X0210871Y0338002D01*
X0210881Y0338126D01*
X0210895Y0338250D01*
X0210912Y0338374D01*
X0210934Y0338497D01*
X0210960Y0338619D01*
X0210989Y0338741D01*
X0211022Y0338861D01*
X0211060Y0338980D01*
X0211100Y0339099D01*
X0211145Y0339215D01*
X0211193Y0339330D01*
X0211245Y0339444D01*
X0211301Y0339556D01*
X0211360Y0339666D01*
X0211422Y0339774D01*
X0211488Y0339881D01*
X0211557Y0339985D01*
X0211630Y0340086D01*
X0211705Y0340186D01*
X0211784Y0340283D01*
X0211866Y0340377D01*
X0211951Y0340469D01*
X0212038Y0340558D01*
X0212129Y0340644D01*
X0212222Y0340727D01*
X0212318Y0340808D01*
X0212416Y0340885D01*
X0212516Y0340959D01*
X0212619Y0341030D01*
X0212724Y0341097D01*
X0212832Y0341162D01*
X0212941Y0341222D01*
X0213052Y0341280D01*
X0213165Y0341333D01*
X0213279Y0341383D01*
X0213395Y0341430D01*
X0213512Y0341472D01*
X0213631Y0341511D01*
X0213751Y0341547D01*
X0213872Y0341578D01*
X0213994Y0341606D01*
X0214116Y0341629D01*
X0214240Y0341649D01*
X0214364Y0341665D01*
X0214488Y0341677D01*
X0214613Y0341685D01*
X0214738Y0341689D01*
X0214862Y0341689D01*
X0214987Y0341685D01*
X0215112Y0341677D01*
X0215236Y0341665D01*
X0215360Y0341649D01*
X0215484Y0341629D01*
X0215606Y0341606D01*
X0215728Y0341578D01*
X0215849Y0341547D01*
X0215969Y0341511D01*
X0216088Y0341472D01*
X0216205Y0341430D01*
X0216321Y0341383D01*
X0216435Y0341333D01*
X0216548Y0341280D01*
X0216659Y0341222D01*
X0216769Y0341162D01*
X0216876Y0341097D01*
X0216981Y0341030D01*
X0217084Y0340959D01*
X0217184Y0340885D01*
X0217282Y0340808D01*
X0217378Y0340727D01*
X0217471Y0340644D01*
X0217562Y0340558D01*
X0217649Y0340469D01*
X0217734Y0340377D01*
X0217816Y0340283D01*
X0217895Y0340186D01*
X0217970Y0340086D01*
X0218043Y0339985D01*
X0218112Y0339881D01*
X0218178Y0339774D01*
X0218240Y0339666D01*
X0218299Y0339556D01*
X0218355Y0339444D01*
X0218407Y0339330D01*
X0218455Y0339215D01*
X0218500Y0339099D01*
X0218540Y0338980D01*
X0218578Y0338861D01*
X0218611Y0338741D01*
X0218640Y0338619D01*
X0218666Y0338497D01*
X0218688Y0338374D01*
X0218705Y0338250D01*
X0218719Y0338126D01*
X0218729Y0338002D01*
X0218735Y0337877D01*
X0218737Y0337752D01*
X0218735Y0337627D01*
X0218729Y0337502D01*
X0218719Y0337378D01*
X0218705Y0337254D01*
X0218688Y0337130D01*
X0218666Y0337007D01*
X0218640Y0336885D01*
X0218611Y0336763D01*
X0218578Y0336643D01*
X0218540Y0336524D01*
X0218500Y0336405D01*
X0218455Y0336289D01*
X0218407Y0336174D01*
X0218355Y0336060D01*
X0218299Y0335948D01*
X0218240Y0335838D01*
X0218178Y0335730D01*
X0218112Y0335623D01*
X0218043Y0335519D01*
X0217970Y0335418D01*
X0217895Y0335318D01*
X0217816Y0335221D01*
X0217734Y0335127D01*
X0217649Y0335035D01*
X0217562Y0334946D01*
X0217471Y0334860D01*
X0217378Y0334777D01*
X0217282Y0334696D01*
X0217184Y0334619D01*
X0217084Y0334545D01*
X0216981Y0334474D01*
X0216876Y0334407D01*
X0216768Y0334342D01*
X0216659Y0334282D01*
X0216548Y0334224D01*
X0216435Y0334171D01*
X0216321Y0334121D01*
X0216205Y0334074D01*
X0216088Y0334032D01*
X0215969Y0333993D01*
X0215849Y0333957D01*
X0215728Y0333926D01*
X0215606Y0333898D01*
X0215484Y0333875D01*
X0215360Y0333855D01*
X0215236Y0333839D01*
X0215112Y0333827D01*
X0214987Y0333819D01*
X0214862Y0333815D01*
X0214738Y0333815D01*
X0214613Y0333819D01*
X0214488Y0333827D01*
X0214364Y0333839D01*
X0214240Y0333855D01*
X0214116Y0333875D01*
X0213994Y0333898D01*
X0213872Y0333926D01*
X0213751Y0333957D01*
X0213631Y0333993D01*
X0213512Y0334032D01*
X0213395Y0334074D01*
X0213279Y0334121D01*
X0213165Y0334171D01*
X0213052Y0334224D01*
X0212941Y0334282D01*
X0212831Y0334342D01*
X0212724Y0334407D01*
X0212619Y0334474D01*
X0212516Y0334545D01*
X0212416Y0334619D01*
X0212318Y0334696D01*
X0212222Y0334777D01*
X0212129Y0334860D01*
X0212038Y0334946D01*
X0211951Y0335035D01*
X0211866Y0335127D01*
X0211784Y0335221D01*
X0211705Y0335318D01*
X0211630Y0335418D01*
X0211557Y0335519D01*
X0211488Y0335623D01*
X0211422Y0335730D01*
X0211360Y0335838D01*
X0211301Y0335948D01*
X0211245Y0336060D01*
X0211193Y0336174D01*
X0211145Y0336289D01*
X0211100Y0336405D01*
X0211060Y0336524D01*
X0211022Y0336643D01*
X0210989Y0336763D01*
X0210960Y0336885D01*
X0210934Y0337007D01*
X0210912Y0337130D01*
X0210895Y0337254D01*
X0210881Y0337378D01*
X0210871Y0337502D01*
X0210865Y0337627D01*
X0210863Y0337752D01*
X0168737Y0348933D02*
X0168740Y0349150D01*
X0168748Y0349368D01*
X0168761Y0349585D01*
X0168780Y0349801D01*
X0168804Y0350017D01*
X0168833Y0350233D01*
X0168867Y0350447D01*
X0168907Y0350661D01*
X0168952Y0350874D01*
X0169002Y0351085D01*
X0169058Y0351296D01*
X0169118Y0351504D01*
X0169184Y0351712D01*
X0169255Y0351917D01*
X0169331Y0352121D01*
X0169411Y0352323D01*
X0169497Y0352523D01*
X0169587Y0352720D01*
X0169683Y0352916D01*
X0169783Y0353109D01*
X0169888Y0353299D01*
X0169997Y0353487D01*
X0170111Y0353672D01*
X0170230Y0353854D01*
X0170353Y0354034D01*
X0170480Y0354210D01*
X0170612Y0354383D01*
X0170748Y0354552D01*
X0170888Y0354719D01*
X0171032Y0354882D01*
X0171180Y0355041D01*
X0171331Y0355197D01*
X0171487Y0355348D01*
X0171646Y0355496D01*
X0171809Y0355640D01*
X0171976Y0355780D01*
X0172145Y0355916D01*
X0172318Y0356048D01*
X0172494Y0356175D01*
X0172674Y0356298D01*
X0172856Y0356417D01*
X0173041Y0356531D01*
X0173229Y0356640D01*
X0173419Y0356745D01*
X0173612Y0356845D01*
X0173808Y0356941D01*
X0174005Y0357031D01*
X0174205Y0357117D01*
X0174407Y0357197D01*
X0174611Y0357273D01*
X0174816Y0357344D01*
X0175024Y0357410D01*
X0175232Y0357470D01*
X0175443Y0357526D01*
X0175654Y0357576D01*
X0175867Y0357621D01*
X0176081Y0357661D01*
X0176295Y0357695D01*
X0176511Y0357724D01*
X0176727Y0357748D01*
X0176943Y0357767D01*
X0177160Y0357780D01*
X0177378Y0357788D01*
X0177595Y0357791D01*
X0177812Y0357788D01*
X0178030Y0357780D01*
X0178247Y0357767D01*
X0178463Y0357748D01*
X0178679Y0357724D01*
X0178895Y0357695D01*
X0179109Y0357661D01*
X0179323Y0357621D01*
X0179536Y0357576D01*
X0179747Y0357526D01*
X0179958Y0357470D01*
X0180166Y0357410D01*
X0180374Y0357344D01*
X0180579Y0357273D01*
X0180783Y0357197D01*
X0180985Y0357117D01*
X0181185Y0357031D01*
X0181382Y0356941D01*
X0181578Y0356845D01*
X0181771Y0356745D01*
X0181961Y0356640D01*
X0182149Y0356531D01*
X0182334Y0356417D01*
X0182516Y0356298D01*
X0182696Y0356175D01*
X0182872Y0356048D01*
X0183045Y0355916D01*
X0183214Y0355780D01*
X0183381Y0355640D01*
X0183544Y0355496D01*
X0183703Y0355348D01*
X0183859Y0355197D01*
X0184010Y0355041D01*
X0184158Y0354882D01*
X0184302Y0354719D01*
X0184442Y0354552D01*
X0184578Y0354383D01*
X0184710Y0354210D01*
X0184837Y0354034D01*
X0184960Y0353854D01*
X0185079Y0353672D01*
X0185193Y0353487D01*
X0185302Y0353299D01*
X0185407Y0353109D01*
X0185507Y0352916D01*
X0185603Y0352720D01*
X0185693Y0352523D01*
X0185779Y0352323D01*
X0185859Y0352121D01*
X0185935Y0351917D01*
X0186006Y0351712D01*
X0186072Y0351504D01*
X0186132Y0351296D01*
X0186188Y0351085D01*
X0186238Y0350874D01*
X0186283Y0350661D01*
X0186323Y0350447D01*
X0186357Y0350233D01*
X0186386Y0350017D01*
X0186410Y0349801D01*
X0186429Y0349585D01*
X0186442Y0349368D01*
X0186450Y0349150D01*
X0186453Y0348933D01*
X0186450Y0348716D01*
X0186442Y0348498D01*
X0186429Y0348281D01*
X0186410Y0348065D01*
X0186386Y0347849D01*
X0186357Y0347633D01*
X0186323Y0347419D01*
X0186283Y0347205D01*
X0186238Y0346992D01*
X0186188Y0346781D01*
X0186132Y0346570D01*
X0186072Y0346362D01*
X0186006Y0346154D01*
X0185935Y0345949D01*
X0185859Y0345745D01*
X0185779Y0345543D01*
X0185693Y0345343D01*
X0185603Y0345146D01*
X0185507Y0344950D01*
X0185407Y0344757D01*
X0185302Y0344567D01*
X0185193Y0344379D01*
X0185079Y0344194D01*
X0184960Y0344012D01*
X0184837Y0343832D01*
X0184710Y0343656D01*
X0184578Y0343483D01*
X0184442Y0343314D01*
X0184302Y0343147D01*
X0184158Y0342984D01*
X0184010Y0342825D01*
X0183859Y0342669D01*
X0183703Y0342518D01*
X0183544Y0342370D01*
X0183381Y0342226D01*
X0183214Y0342086D01*
X0183045Y0341950D01*
X0182872Y0341818D01*
X0182696Y0341691D01*
X0182516Y0341568D01*
X0182334Y0341449D01*
X0182149Y0341335D01*
X0181961Y0341226D01*
X0181771Y0341121D01*
X0181578Y0341021D01*
X0181382Y0340925D01*
X0181185Y0340835D01*
X0180985Y0340749D01*
X0180783Y0340669D01*
X0180579Y0340593D01*
X0180374Y0340522D01*
X0180166Y0340456D01*
X0179958Y0340396D01*
X0179747Y0340340D01*
X0179536Y0340290D01*
X0179323Y0340245D01*
X0179109Y0340205D01*
X0178895Y0340171D01*
X0178679Y0340142D01*
X0178463Y0340118D01*
X0178247Y0340099D01*
X0178030Y0340086D01*
X0177812Y0340078D01*
X0177595Y0340075D01*
X0177378Y0340078D01*
X0177160Y0340086D01*
X0176943Y0340099D01*
X0176727Y0340118D01*
X0176511Y0340142D01*
X0176295Y0340171D01*
X0176081Y0340205D01*
X0175867Y0340245D01*
X0175654Y0340290D01*
X0175443Y0340340D01*
X0175232Y0340396D01*
X0175024Y0340456D01*
X0174816Y0340522D01*
X0174611Y0340593D01*
X0174407Y0340669D01*
X0174205Y0340749D01*
X0174005Y0340835D01*
X0173808Y0340925D01*
X0173612Y0341021D01*
X0173419Y0341121D01*
X0173229Y0341226D01*
X0173041Y0341335D01*
X0172856Y0341449D01*
X0172674Y0341568D01*
X0172494Y0341691D01*
X0172318Y0341818D01*
X0172145Y0341950D01*
X0171976Y0342086D01*
X0171809Y0342226D01*
X0171646Y0342370D01*
X0171487Y0342518D01*
X0171331Y0342669D01*
X0171180Y0342825D01*
X0171032Y0342984D01*
X0170888Y0343147D01*
X0170748Y0343314D01*
X0170612Y0343483D01*
X0170480Y0343656D01*
X0170353Y0343832D01*
X0170230Y0344012D01*
X0170111Y0344194D01*
X0169997Y0344379D01*
X0169888Y0344567D01*
X0169783Y0344757D01*
X0169683Y0344950D01*
X0169587Y0345146D01*
X0169497Y0345343D01*
X0169411Y0345543D01*
X0169331Y0345745D01*
X0169255Y0345949D01*
X0169184Y0346154D01*
X0169118Y0346362D01*
X0169058Y0346570D01*
X0169002Y0346781D01*
X0168952Y0346992D01*
X0168907Y0347205D01*
X0168867Y0347419D01*
X0168833Y0347633D01*
X0168804Y0347849D01*
X0168780Y0348065D01*
X0168761Y0348281D01*
X0168748Y0348498D01*
X0168740Y0348716D01*
X0168737Y0348933D01*
D13*
X0228304Y0364720D02*
X0243264Y0364720D01*
X0243264Y0372594D01*
X0228304Y0372594D01*
X0228304Y0364720D01*
X0242083Y0352909D02*
X0242083Y0341098D01*
X0244446Y0341098D01*
X0244446Y0352909D01*
X0242083Y0352909D01*
X0250745Y0352909D02*
X0250745Y0341098D01*
X0253107Y0341098D01*
X0253107Y0352909D01*
X0250745Y0352909D01*
X0251926Y0364720D02*
X0266886Y0364720D01*
X0266886Y0372594D01*
X0251926Y0372594D01*
X0251926Y0364720D01*
X0251926Y0329287D02*
X0251926Y0321413D01*
X0266886Y0321413D01*
X0266886Y0329287D01*
X0251926Y0329287D01*
X0243264Y0329287D02*
X0228304Y0329287D01*
X0228304Y0321413D01*
X0243264Y0321413D01*
X0243264Y0329287D01*
X0298304Y0329287D02*
X0298304Y0321413D01*
X0313264Y0321413D01*
X0313264Y0329287D01*
X0298304Y0329287D01*
X0312083Y0341098D02*
X0314446Y0341098D01*
X0314446Y0352909D01*
X0312083Y0352909D01*
X0312083Y0341098D01*
X0320745Y0341098D02*
X0320745Y0352909D01*
X0323107Y0352909D01*
X0323107Y0341098D01*
X0320745Y0341098D01*
X0321926Y0329287D02*
X0321926Y0321413D01*
X0336886Y0321413D01*
X0336886Y0329287D01*
X0321926Y0329287D01*
X0368304Y0329287D02*
X0368304Y0321413D01*
X0383264Y0321413D01*
X0383264Y0329287D01*
X0368304Y0329287D01*
X0382083Y0341098D02*
X0384446Y0341098D01*
X0384446Y0352909D01*
X0382083Y0352909D01*
X0382083Y0341098D01*
X0390745Y0341098D02*
X0390745Y0352909D01*
X0393107Y0352909D01*
X0393107Y0341098D01*
X0390745Y0341098D01*
X0391926Y0329287D02*
X0391926Y0321413D01*
X0406886Y0321413D01*
X0406886Y0329287D01*
X0391926Y0329287D01*
X0391926Y0364720D02*
X0406886Y0364720D01*
X0406886Y0372594D01*
X0391926Y0372594D01*
X0391926Y0364720D01*
X0383264Y0364720D02*
X0383264Y0372594D01*
X0368304Y0372594D01*
X0368304Y0364720D01*
X0383264Y0364720D01*
X0336886Y0364720D02*
X0321926Y0364720D01*
X0321926Y0372594D01*
X0336886Y0372594D01*
X0336886Y0364720D01*
X0313264Y0364720D02*
X0313264Y0372594D01*
X0298304Y0372594D01*
X0298304Y0364720D01*
X0313264Y0364720D01*
X0438304Y0364720D02*
X0453264Y0364720D01*
X0453264Y0372594D01*
X0438304Y0372594D01*
X0438304Y0364720D01*
X0452083Y0352909D02*
X0452083Y0341098D01*
X0454446Y0341098D01*
X0454446Y0352909D01*
X0452083Y0352909D01*
X0460745Y0352909D02*
X0460745Y0341098D01*
X0463107Y0341098D01*
X0463107Y0352909D01*
X0460745Y0352909D01*
X0461926Y0364720D02*
X0476886Y0364720D01*
X0476886Y0372594D01*
X0461926Y0372594D01*
X0461926Y0364720D01*
X0461926Y0329287D02*
X0461926Y0321413D01*
X0476886Y0321413D01*
X0476886Y0329287D01*
X0461926Y0329287D01*
X0453264Y0329287D02*
X0438304Y0329287D01*
X0438304Y0321413D01*
X0453264Y0321413D01*
X0453264Y0329287D01*
M02*
